<svg width="60" height="60" viewBox="0 0 60 60" fill="none" xmlns="http://www.w3.org/2000/svg" save-fill="">
<path d="M29.5089 42.1517C23.8035 42.1517 18.6607 39.0177 15.366 36.4463C11.8303 33.6338 9.66068 30.9017 9.49997 30.7409C9.41961 30.5802 9.41961 30.4195 9.49997 30.2588C9.58032 30.1785 11.75 27.366 15.366 24.5535C18.6607 21.9821 23.8035 18.8481 29.5089 18.8481C35.2142 18.8481 40.3571 21.9821 43.6518 24.5535C47.1875 27.366 49.3571 30.0981 49.5178 30.2588C49.5982 30.4195 49.5982 30.5802 49.5178 30.7409C49.4375 30.8213 47.2678 33.6338 43.6518 36.4463C40.3571 39.0177 35.2142 42.1517 29.5089 42.1517ZM10.3035 30.4999C11.6696 32.1071 19.7857 41.3481 29.5089 41.3481C39.1517 41.3481 47.2678 32.1071 48.7142 30.4999C47.3482 28.8928 39.2321 19.6517 29.5089 19.6517C19.7857 19.6517 11.6696 28.8124 10.3035 30.4999Z" fill="#263238"/>
<path d="M29.509 42.1517C23.0804 42.1517 17.8572 36.9285 17.8572 30.4999C17.8572 24.0714 23.0804 18.8481 29.509 18.8481C35.9375 18.8481 41.1608 24.0714 41.1608 30.4999C41.1608 36.9285 35.9375 42.1517 29.509 42.1517ZM29.509 19.6517C23.5625 19.6517 18.6607 24.5535 18.6607 30.4999C18.6607 36.4464 23.5625 41.3481 29.509 41.3481C35.4554 41.3481 40.3572 36.4464 40.3572 30.4999C40.3572 24.5535 35.4554 19.6517 29.509 19.6517Z" fill="#263238"/>
<path d="M38.3482 30.9019C38.1072 30.9019 37.9465 30.7412 37.9465 30.5001C37.9465 25.8394 34.1697 22.0626 29.509 22.0626C29.2679 22.0626 29.1072 21.9019 29.1072 21.6608C29.1072 21.4197 29.2679 21.259 29.509 21.259C34.5715 21.259 38.75 25.4376 38.75 30.5001C38.75 30.6608 38.509 30.9019 38.3482 30.9019Z" fill="#263238"/>
<path d="M33.5267 36.9285H25.491L29.5088 28.8928L33.5267 36.9285Z" fill="#FF5252"/>
<path d="M33.5268 37.3303H25.491C25.3303 37.3303 25.25 37.2499 25.1696 37.1696C25.0893 37.0892 25.0893 36.9285 25.1696 36.7678L29.1875 28.7321C29.3482 28.491 29.75 28.491 29.9107 28.7321L33.9285 36.7678C34.0089 36.9285 34.0089 37.0089 33.9285 37.1696C33.7678 37.2499 33.6071 37.3303 33.5268 37.3303ZM26.1339 36.5268H32.8839L29.5089 29.7768L26.1339 36.5268Z" fill="#263238"/>
<path d="M28.0625 28.1697C28.3035 27.6072 28.866 27.2858 29.5089 27.2858C30.1518 27.2858 30.7142 27.6072 30.9553 28.1697L34.25 34.8393C35.2946 33.7143 35.9375 32.1876 35.9375 30.5001C35.9375 26.9644 33.0446 24.0715 29.5089 24.0715C25.9732 24.0715 23.0803 26.9644 23.0803 30.5001C23.0803 32.1876 23.7232 33.634 24.7679 34.8393L28.0625 28.1697Z" fill="#FFD740"/>
<path d="M34.2501 35.1607C34.1697 35.1607 34.0894 35.1607 34.009 35.0804C33.8483 34.9196 33.8483 34.6786 34.009 34.5179C35.0537 33.3929 35.6162 31.9465 35.6162 30.5C35.6162 27.2054 32.884 24.4732 29.5894 24.4732C26.2947 24.4732 23.5626 27.2054 23.5626 30.5C23.5626 32.0268 24.1251 33.3929 25.1697 34.5179C25.3304 34.6786 25.3304 34.9196 25.1697 35.0804C25.009 35.2411 24.7679 35.2411 24.6072 35.0804C23.4822 33.7946 22.8394 32.1875 22.8394 30.5C22.8394 26.7232 25.8929 23.6697 29.6697 23.6697C33.4465 23.6697 36.5001 26.7232 36.5001 30.5C36.5001 32.1875 35.8572 33.7946 34.7322 35.0804C34.4911 35.1607 34.3304 35.1607 34.2501 35.1607Z" fill="#263238"/>
<path d="M17.4555 8.80357H15.8483C15.6072 8.80357 15.4465 8.64286 15.4465 8.40179C15.4465 8.16071 15.6072 8 15.8483 8H17.4555C17.6965 8 17.8572 8.16071 17.8572 8.40179C17.8572 8.64286 17.6162 8.80357 17.4555 8.80357Z" fill="#263238"/>
<path d="M5.40179 20.8571C5.16071 20.8571 5 20.6964 5 20.4554V12.4196C5 10.0089 7.00893 8 9.41964 8H14.2411C14.4821 8 14.6429 8.16071 14.6429 8.40179C14.6429 8.64286 14.4821 8.80357 14.2411 8.80357H9.41964C7.41071 8.80357 5.80357 10.4107 5.80357 12.4196V20.4554C5.80357 20.6161 5.5625 20.8571 5.40179 20.8571Z" fill="#263238"/>
<path d="M43.1696 53.0001H41.5624C41.3214 53.0001 41.1606 52.8394 41.1606 52.5983C41.1606 52.3572 41.3214 52.1965 41.5624 52.1965H43.1696C43.4106 52.1965 43.5714 52.3572 43.5714 52.5983C43.5714 52.8394 43.3303 53.0001 43.1696 53.0001Z" fill="#263238"/>
<path d="M49.5982 53H44.7768C44.5357 53 44.375 52.8393 44.375 52.5982C44.375 52.3571 44.5357 52.1964 44.7768 52.1964H49.5982C51.6071 52.1964 53.2143 50.5893 53.2143 48.5803V40.5446C53.2143 40.3035 53.375 40.1428 53.6161 40.1428C53.8571 40.1428 54.0179 40.3035 54.0179 40.5446V48.5803C54.0179 50.991 52.0089 53 49.5982 53Z" fill="#263238"/>
<path d="M53.616 20.8571C53.3749 20.8571 53.2142 20.6964 53.2142 20.4554V12.4196C53.2142 10.4107 51.6071 8.80357 49.5981 8.80357H41.5624C41.3214 8.80357 41.1606 8.64286 41.1606 8.40179C41.1606 8.16071 41.3214 8 41.5624 8H49.5981C52.0089 8 54.0178 10.0089 54.0178 12.4196V20.4554C54.0178 20.6161 53.7767 20.8571 53.616 20.8571Z" fill="#263238"/>
<path d="M17.4554 53H9.41964C7.00893 53 5 50.991 5 48.5803V40.5446C5 40.3035 5.16071 40.1428 5.40179 40.1428C5.64286 40.1428 5.80357 40.3035 5.80357 40.5446V48.5803C5.80357 50.5893 7.41071 52.1964 9.41964 52.1964H17.4554C17.6964 52.1964 17.8571 52.3571 17.8571 52.5982C17.8571 52.8393 17.6161 53 17.4554 53Z" fill="#263238"/>
<path d="M42.3661 16.0357H39.1518C38.9107 16.0357 38.75 15.875 38.75 15.634C38.75 15.3929 38.9107 15.2322 39.1518 15.2322H42.3661C42.6071 15.2322 42.7679 15.3929 42.7679 15.634C42.7679 15.875 42.5268 16.0357 42.3661 16.0357Z" fill="#263238"/>
<path d="M40.759 17.6429C40.5179 17.6429 40.3572 17.4821 40.3572 17.2411V14.0268C40.3572 13.7857 40.5179 13.625 40.759 13.625C41 13.625 41.1607 13.7857 41.1607 14.0268V17.2411C41.1607 17.4018 40.9197 17.6429 40.759 17.6429Z" fill="#263238"/>
<path d="M47.9911 19.6517H44.7768C44.5357 19.6517 44.375 19.491 44.375 19.2499C44.375 19.0089 44.5357 18.8481 44.7768 18.8481H47.9911C48.2321 18.8481 48.3929 19.0089 48.3929 19.2499C48.3929 19.491 48.1518 19.6517 47.9911 19.6517Z" fill="#263238"/>
<path d="M46.384 21.2588C46.1429 21.2588 45.9822 21.0981 45.9822 20.857V17.6428C45.9822 17.4017 46.1429 17.241 46.384 17.241C46.625 17.241 46.7857 17.4017 46.7857 17.6428V20.857C46.7857 21.0178 46.5447 21.2588 46.384 21.2588Z" fill="#263238"/>
</svg>
