<svg version="1.1" viewBox="0 0 60 60" xmlns="http://www.w3.org/2000/svg" save-fill="">
 <path d="m49.353 34.588h-39.706c-1.2353 0-2.2059-0.9706-2.2059-2.2059v-13.235c0-1.2352 0.97059-2.2058 2.2059-2.2058h39.706c1.2353 0 2.2059 0.9706 2.2059 2.2058v13.235c0 1.1471-1.0588 2.2059-2.2059 2.2059z" fill="#D5B26B"/>
 <g fill="#1B514A">
  <path d="m49.353 35.029h-39.706c-1.5 0-2.6471-1.147-2.6471-2.647v-13.235c0-1.5 1.1471-2.6471 2.6471-2.6471h39.706c1.5 0 2.6471 1.1471 2.6471 2.6471v13.235c0 1.4117-1.2353 2.647-2.6471 2.647zm-39.706-17.647c-0.97059 0-1.7647 0.7941-1.7647 1.7647v13.235c0 0.9705 0.79412 1.7647 1.7647 1.7647h39.706c0.9706 0 1.7647-0.7942 1.7647-1.7647v-13.235c0-0.9706-0.7941-1.7647-1.7647-1.7647h-39.706z"/>
  <path d="m35.676 15.618c-0.2647 0-0.4411-0.1765-0.4411-0.4412v-2.2059c0-0.2647-0.1765-0.4412-0.4412-0.4412h-10.588c-0.2648 0-0.4412 0.1765-0.4412 0.4412v2.2059c0 0.2647-0.1765 0.4412-0.4412 0.4412s-0.4412-0.1765-0.4412-0.4412v-2.2059c0-0.7059 0.6177-1.3235 1.3236-1.3235h10.588c0.7059 0 1.3235 0.6176 1.3235 1.3235v2.2059c0 0.1765-0.2647 0.4412-0.4412 0.4412z"/>
  <path d="m38.324 15.618c-0.2647 0-0.4412-0.1764-0.4412-0.4411v-2.2059c0-1.6765-1.4118-3.0882-3.0882-3.0882h-10.588c-1.6764 0-3.0882 1.4118-3.0882 3.0882v2.2059c0 0.2647-0.1765 0.4411-0.4412 0.4411s-0.4411-0.1764-0.4411-0.4411v-2.2059c0-2.2059 1.7647-3.9706 3.9705-3.9706h10.588c2.2059 0 3.9706 1.7647 3.9706 3.9706v2.2059c0 0.1764-0.2647 0.4411-0.4412 0.4411z"/>
  <path d="m48.471 50.029h-37.941c-1.5 0-2.647-1.1471-2.647-2.6471v-13.235c0-0.1764 0.08822-0.353 0.26469-0.353 0.17647-0.0883 0.35294-0.0883 0.44118 0 0.35294 0.2647 0.70589 0.353 1.0588 0.353h39.706c0.353 0 0.7059-0.0883 1.0589-0.353 0.1764-0.0883 0.3529-0.0883 0.4411 0 0.1765 0.0882 0.2647 0.2648 0.2647 0.353v13.235c0 1.4118-1.2353 2.6471-2.647 2.6471zm-39.706-15.176v12.529c0 0.9706 0.79412 1.7647 1.7647 1.7647h37.941c0.9706 0 1.7647-0.7941 1.7647-1.7647v-12.529c-0.2647 0.0882-0.6177 0.1764-0.8824 0.1764h-39.706c-0.35294 0-0.61764-0.0882-0.88235-0.1764z"/>
 </g>
 <path d="m33.029 27.088h-7.0588c-0.5294 0-0.8824-0.3529-0.8824-0.8823v-0.8824c0-0.5294 0.353-0.8823 0.8824-0.8823h7.0588c0.5294 0 0.8824 0.3529 0.8824 0.8823v0.8824c0 0.4411-0.4412 0.8823-0.8824 0.8823z" fill="#fff"/>
 <path d="m33.029 27.53h-7.0588c-0.7059 0-1.3235-0.6177-1.3235-1.3236v-0.8823c0-0.7059 0.6176-1.3236 1.3235-1.3236h7.0588c0.7059 0 1.3236 0.6177 1.3236 1.3236v0.8823c0 0.7059-0.6177 1.3236-1.3236 1.3236zm-7.0588-2.6471c-0.2647 0-0.4412 0.1765-0.4412 0.4412v0.8823c0 0.2647 0.1765 0.4412 0.4412 0.4412h7.0588c0.2648 0 0.4412-0.1765 0.4412-0.4412v-0.8823c0-0.2647-0.1764-0.4412-0.4412-0.4412h-7.0588z" fill="#1B514A"/>
 <path d="m20.235 42.088-1.7647 1.7648-1.7647-1.7648v-11.47c0-0.5295 0.353-0.8824 0.8824-0.8824h1.7647c0.5294 0 0.8823 0.3529 0.8823 0.8824v11.47z" fill="#D5B26B"/>
 <path d="m18.47 44.294c-0.0882 0-0.2646-1e-4 -0.3529-0.0883l-1.7647-1.7647c-0.0882-0.0883-0.0883-0.1764-0.0883-0.3529v-11.471c0-0.7059 0.6177-1.3235 1.3236-1.3235h1.7647c0.7059 0 1.3235 0.6176 1.3235 1.3235v11.471c0 0.0882-0.0882 0.2646-0.0882 0.3529l-1.7647 1.7647c-0.1765 0-0.2647 0.0883-0.353 0.0883zm-1.3235-2.4706 1.3235 1.3235 1.3236-1.3235v-11.294c0-0.2647-0.1765-0.4412-0.4412-0.4412h-1.7647c-0.2647 0-0.4412 0.1765-0.4412 0.4412v11.294z" fill="#1B514A"/>
 <path d="m21.118 39.882h-5.2941c-0.5294 0-0.8823-0.3529-0.8823-0.8823v-0.8824c0-0.5294 0.3529-0.8823 0.8823-0.8823h5.2941c0.5294 0 0.8824 0.3529 0.8824 0.8823v0.8824c0 0.4411-0.4412 0.8823-0.8824 0.8823z" fill="#D5B26B"/>
 <path d="m21.118 40.324h-5.2941c-0.7059 0-1.3236-0.6176-1.3236-1.3235v-0.8824c0-0.7059 0.6177-1.3235 1.3236-1.3235h5.2941c0.7059 0 1.3235 0.6176 1.3235 1.3235v0.8824c0 0.7059-0.6176 1.3235-1.3235 1.3235zm-5.2941-2.6471c-0.2648 0-0.4412 0.1765-0.4412 0.4412v0.8824c0 0.2647 0.1764 0.4411 0.4412 0.4411h5.2941c0.2647 0 0.4411-0.1764 0.4411-0.4411v-0.8824c0-0.2647-0.1764-0.4412-0.4411-0.4412h-5.2941z" fill="#1B514A"/>
 <path d="m42.294 42.088-1.7647 1.7648-1.7648-1.7648v-11.47c0-0.5295 0.353-0.8824 0.8824-0.8824h1.7647c0.5294 0 0.8824 0.3529 0.8824 0.8824v11.47z" fill="#D5B26B"/>
 <path d="m40.529 44.294c-0.0883 0-0.2647-1e-4 -0.3529-0.0883l-1.7647-1.7647c-0.0883-0.0883-0.0883-0.1764-0.0883-0.3529v-11.471c0-0.7059 0.6176-1.3235 1.3235-1.3235h1.7647c0.7059 0 1.3236 0.6176 1.3236 1.3235v11.471c0 0.0882-0.0883 0.2646-0.0883 0.3529l-1.7647 1.7647c-0.1764 0-0.2647 0.0883-0.3529 0.0883zm-1.3236-2.4706 1.3236 1.3235 1.3235-1.3235v-11.294c0-0.2647-0.1765-0.4412-0.4412-0.4412h-1.7647c-0.2647 0-0.4412 0.1765-0.4412 0.4412v11.294z" fill="#1B514A"/>
 <path d="m43.177 39.882h-5.2941c-0.5294 0-0.8824-0.3529-0.8824-0.8823v-0.8824c0-0.5294 0.353-0.8823 0.8824-0.8823h5.2941c0.5294 0 0.8823 0.3529 0.8823 0.8823v0.8824c0 0.4411-0.4411 0.8823-0.8823 0.8823z" fill="#D5B26B"/>
 <path d="m43.177 40.324h-5.2941c-0.7059 0-1.3235-0.6176-1.3235-1.3235v-0.8824c0-0.7059 0.6176-1.3235 1.3235-1.3235h5.2941c0.7059 0 1.3235 0.6176 1.3235 1.3235v0.8824c0 0.7059-0.6176 1.3235-1.3235 1.3235zm-5.2941-2.6471c-0.2647 0-0.4412 0.1765-0.4412 0.4412v0.8824c0 0.2647 0.1765 0.4411 0.4412 0.4411h5.2941c0.2647 0 0.4412-0.1764 0.4412-0.4411v-0.8824c0-0.2647-0.1765-0.4412-0.4412-0.4412h-5.2941z" fill="#1B514A"/>
</svg>
