<svg version="1.1" viewBox="0 0 60 60" xmlns="http://www.w3.org/2000/svg" save-fill="">
 <path d="m17 4.4822v12.282c0 6.9883 5.5059 13.023 12.494 13.129 7.0941 0.1059 12.918-5.6117 12.918-12.706v-12.706c0-0.63529-0.4236-1.0588-1.0589-1.0588h-23.294c-0.6353 0-1.0588 0.52941-1.0588 1.0588z" fill="#D5B26B"/>
 <g fill="#1B514A">
  <path d="m29.706 30.529h-0.2118c-7.2-0.1059-13.024-6.2471-13.024-13.659v-12.282c0-0.84706 0.7412-1.5882 1.5882-1.5882h23.294c0.847 0 1.5882 0.74118 1.5882 1.5882v12.706c0 3.6-1.3765 6.8823-3.9177 9.4234-2.5411 2.4353-5.8235 3.8119-9.3176 3.8119zm-11.647-26.471c-0.3176 0-0.5294 0.21177-0.5294 0.52942v12.282c0 6.7764 5.4 12.494 11.965 12.6 3.2824 0.1059 6.4589-1.1648 8.7883-3.4942s3.6-5.3999 3.6-8.6823v-12.706c0-0.31765-0.2118-0.52942-0.5294-0.52942h-23.294z"/>
  <path d="m18.165 23.117h-2.7529c-4.1294 0-7.4118-3.2823-7.4118-7.4117v-7.4118c0-1.1647 0.95294-2.1176 2.1176-2.1176h6.8824c0.3176 0 0.5294 0.21176 0.5294 0.52941v3.1765c0 0.31765-0.2118 0.52945-0.5294 0.52945h-4.7647v5.2941c0 1.8 1.3765 3.1765 3.1765 3.1765h1.0588v-1.5883c0-0.3176 0.2118-0.5294 0.5294-0.5294s0.5294 0.2118 0.5294 0.5294c0 1.8 0.4235 3.4941 1.1647 5.0823 0.1059 0.2118 0.1059 0.3176 0 0.5294s-0.4235 0.2118-0.5294 0.2118zm-8.0471-15.882c-0.63525 0-1.0588 0.42353-1.0588 1.0588v7.4118c0 3.4941 2.8588 6.3529 6.353 6.3529h1.9058c-0.3176-0.7412-0.5294-1.3764-0.6352-2.1176h-1.3765c-2.3294 0-4.2353-1.9059-4.2353-4.2353v-5.8236c0-0.31764 0.2118-0.52941 0.5294-0.52941h4.7647v-2.1176h-6.2471z"/>
  <path d="m44 23.117h-2.7529c-0.2118 0-0.3177-0.1059-0.4235-0.2118-0.1059-0.1059-0.1059-0.3176 0-0.5294 0.7411-1.5882 1.1647-3.2823 1.1647-5.0823v-10.588c0-0.31765 0.2117-0.52941 0.5294-0.52941h6.8823c1.1647 0 2.1177 0.95294 2.1177 2.1176v7.4118c-0.1059 4.0235-3.4941 7.4117-7.5177 7.4117zm-2.0117-1.0588h1.9058c3.4942 0 6.353-2.8588 6.353-6.3529v-7.4118c0-0.6353-0.4235-1.0588-1.0588-1.0588h-6.353v2.1176h4.7647c0.3177 0 0.5294 0.21177 0.5294 0.52941v5.8236c0 2.3294-1.9058 4.2353-4.2353 4.2353h-1.3764c0 0.6353-0.2118 1.3764-0.5294 2.1176zm0.9529-3.1764h1.0588c1.8 0 3.1765-1.3765 3.1765-3.1765v-5.2941h-4.2353v8.4706z"/>
 </g>
 <path d="m29.706 10.306 1.5882 3.4941 3.7059 0.6353-2.6471 2.6471 0.5294 3.8117-3.1764-1.7999-3.2824 1.7999 0.6353-3.8117-2.6471-2.6471 3.6-0.6353 1.6942-3.4941z" fill="#fff"/>
 <path d="m26.424 21.529c-0.1058 0-0.2117-1e-4 -0.3176-0.106-0.2118-0.1059-0.2118-0.3176-0.2118-0.5294l0.5294-3.5999-2.4353-2.5412c-0.1058-0.1059-0.2117-0.3176-0.1058-0.5294 0.1058-0.2118 0.2117-0.3177 0.4235-0.3177l3.3882-0.5294 1.4824-3.2823c0.1059-0.2118 0.3176-0.31773 0.5294-0.31773s0.4235 0.10593 0.5294 0.31773l1.4824 3.2823 3.3882 0.5294c0.2118 0 0.3176 0.2118 0.4235 0.3177s0 0.4235-0.1059 0.5294l-2.4353 2.5412 0.5295 3.5999c0 0.2118 0 0.4235-0.2118 0.5294s-0.4235 0.1059-0.5294 0l-2.9647-1.6941-2.9647 1.6941c-0.3177 0-0.3177 0.106-0.4236 0.106zm-0.9529-6.7765 1.9059 2.0118c0.1059 0.1059 0.2117 0.3175 0.1059 0.4234l-0.4236 2.7531 2.3294-1.2707c0.2118-0.1059 0.3177-0.1059 0.5295 0l2.3294 1.2707-0.4236-2.7531c0-0.2117 0-0.3175 0.1059-0.4234l1.9059-2.0118-2.6471-0.4235c-0.2117 0-0.3176-0.106-0.4235-0.3177l-1.1647-2.4353-1.1647 2.4353c-0.1059 0.2117-0.2118 0.3177-0.4235 0.3177l-2.5412 0.4235z" fill="#1B514A"/>
 <path d="m35 46.412h-10.588c-0.1058 0-0.3176-0.106-0.4235-0.2118-0.1059-0.1059-0.1059-0.3177-0.1059-0.4236l2.3294-16.306c0-0.1059 0.1059-0.3177 0.2118-0.3177 0.1059-0.1059 0.3176-0.1058 0.4235-0.1058 2.0118 0.4235 3.8118 0.4235 5.7177 0 0.1059 0 0.3176-1e-4 0.4235 0.1058s0.2118 0.2118 0.2118 0.3177l2.3294 16.306c0 0.1059 0 0.3177-0.1059 0.4236-0.2118 0.1058-0.3176 0.2118-0.4235 0.2118zm-10.059-1.0588h9.3177l-2.1177-15.035c-1.6941 0.3177-3.3882 0.3177-5.0823 0l-2.1177 15.035z" fill="#1B514A"/>
 <path d="m40.294 51.07h-21.176v-2.6471c0-1.4823 1.1647-2.647 2.647-2.647h15.882c1.4823 0 2.647 1.1647 2.647 2.647v2.6471z" fill="#D5B26B"/>
 <path d="m40.294 51.706h-21.176c-0.3176 0-0.5294-0.2118-0.5294-0.5294v-2.6471c0-1.8 1.3765-3.1765 3.1765-3.1765h15.882c1.8 0 3.1764 1.3765 3.1764 3.1765v2.6471c0 0.2117-0.3176 0.5294-0.5294 0.5294zm-20.647-1.0589h20.118v-2.1176c0-1.1647-0.9529-2.1176-2.1176-2.1176h-15.882c-1.1647 0-2.1176 0.9529-2.1176 2.1176v2.1176z" fill="#1B514A"/>
 <path d="m41.882 56.365h-24.353c-1.4824 0-2.6471-1.1647-2.6471-2.6471 0-1.4823 1.1647-2.647 2.6471-2.647h24.353c1.4824 0 2.6471 1.1647 2.6471 2.647 0 1.4824-1.2706 2.6471-2.6471 2.6471z" fill="#D5B26B"/>
 <path d="m41.882 57h-24.353c-1.8 0-3.1765-1.3765-3.1765-3.1765s1.3765-3.1764 3.1765-3.1764h24.353c1.8 0 3.1765 1.3764 3.1765 3.1764s-1.4824 3.1765-3.1765 3.1765zm-24.353-5.2941c-1.1647 0-2.1177 0.9529-2.1177 2.1176s0.953 2.1177 2.1177 2.1177h24.353c1.1647 0 2.1177-0.953 2.1177-2.1177s-0.953-2.1176-2.1177-2.1176h-24.353z" fill="#1B514A"/>
</svg>
