<svg version="1.1" viewBox="0 0 60 60" xmlns="http://www.w3.org/2000/svg" save-fill="">
 <g fill="#1B514A">
  <path d="m30 38.72c-0.72 0-1.28-0.48-1.52-1.04-0.24 0.16-0.56 0.24-0.88 0.24-0.72 0-1.28-0.48-1.52-1.04-0.24 0.16-0.56 0.24-0.88 0.24-0.88 0-1.6-0.72-1.6-1.6v-12c0-0.24 0.16-0.4 0.4-0.4s0.4 0.16 0.4 0.4v12c0 0.48 0.32 0.8 0.8 0.8s0.8-0.32 0.8-0.8c0-0.24 0.16-0.4 0.4-0.4s0.4 0.16 0.4 0.4v0.8c0 0.48 0.32 0.8 0.8 0.8s0.8-0.32 0.8-0.8c0-0.24 0.16-0.4 0.4-0.4s0.4 0.16 0.4 0.4v0.8c0 0.48 0.32 0.8 0.8 0.8s0.8-0.32 0.8-0.8v-1.2c0-0.24 0.16-0.4 0.4-0.4s0.4 0.16 0.4 0.4c0 0.48 0.32 0.8 0.8 0.8s0.8-0.32 0.8-0.8v-6.4c0-0.24 0.16-0.4 0.4-0.4s0.4 0.16 0.4 0.4c0 0.48 0.32 0.8 0.8 0.8s0.8-0.32 0.8-0.8v-2.8c0-0.4-0.16-0.8-0.48-1.12l-1.84-1.84c-0.16-0.16-0.16-0.4 0-0.56s0.4-0.16 0.56 0l1.84 1.84c0.48 0.48 0.72 1.04 0.72 1.68v2.8c0 0.88-0.72 1.6-1.6 1.6-0.32 0-0.56-0.08-0.8-0.24v5.04c0 0.88-0.72 1.6-1.6 1.6-0.32 0-0.56-0.08-0.8-0.24-0.16 0.88-0.8 1.44-1.6 1.44z"/>
  <path d="m34.4 18.4h-11.2c-0.24 0-0.4-0.16-0.4-0.4v-11.6c0-0.24 0.16-0.4 0.4-0.4s0.4 0.16 0.4 0.4v11.2h10.4v-11.2c0-0.24 0.16-0.4 0.4-0.4s0.4 0.16 0.4 0.4v11.6c0 0.16-0.24 0.4-0.4 0.4z"/>
  <path d="m31.2 36.32c-0.24 0-0.4-0.16-0.4-0.4v-4c0-0.24 0.16-0.4 0.4-0.4s0.4 0.16 0.4 0.4v4c0 0.24-0.24 0.4-0.4 0.4z"/>
  <path d="m28.8 36.72c-0.24 0-0.4-0.16-0.4-0.4v-4.4c0-0.24 0.16-0.4 0.4-0.4s0.4 0.16 0.4 0.4v4.4c0 0.24-0.24 0.4-0.4 0.4z"/>
  <path d="m26.4 35.92c-0.24 0-0.4-0.16-0.4-0.4v-3.6c0-0.24 0.16-0.4 0.4-0.4s0.4 0.16 0.4 0.4v3.6c0 0.24-0.24 0.4-0.4 0.4z"/>
 </g>
 <path d="m23.2 17.92h11.2v3.2c0 0.48-0.32 0.8-0.8 0.8h-9.6c-0.48 0-0.8-0.32-0.8-0.8v-3.2z" fill="#D5B26B"/>
 <g fill="#1B514A">
  <path d="m33.6 22.4h-9.6c-0.64 0-1.2-0.56-1.2-1.2v-3.2c0-0.24 0.16-0.4 0.4-0.4h11.2c0.24 0 0.4 0.16 0.4 0.4v3.2c0 0.64-0.56 1.2-1.2 1.2zm-10-4v2.8c0 0.24 0.16 0.4 0.4 0.4h9.6c0.24 0 0.4-0.16 0.4-0.4v-2.8h-10.4z"/>
  <path d="m40.4 34.48c-0.08 0-0.2399 0-0.3199-0.08l-3.2-3.2c-0.16-0.16-0.16-0.4 0-0.56s0.4-0.16 0.56 0l3.2 3.2c0.16 0.16 0.16 0.4 0 0.56 0 0-0.0801 0.08-0.2401 0.08z"/>
  <path d="m33.68 41.2h-2.56c-0.64 0-1.28-0.24-1.68-0.72l-0.4-0.4c-0.16-0.16-0.16-0.4 0-0.56s0.4-0.16 0.56 0l0.4 0.4c0.32 0.32 0.72 0.48 1.12 0.48h2.56c0.24 0 0.4 0.16 0.4 0.4s-0.24 0.4-0.4 0.4z"/>
  <path d="m45.28 54c-0.08 0-0.24 0-0.32-0.08l-8.24-8.24c-0.16-0.16-0.16-0.4 0-0.56l7.92-7.92c0.16-0.16 0.4-0.16 0.56 0l8.24 8.16c0.16 0.16 0.16 0.4 0 0.56s-0.4 0.16-0.56 0l-7.92-7.92-7.36 7.36 7.92 7.92c0.16 0.16 0.16 0.4 0 0.56-0.08 0.08-0.16 0.16-0.24 0.16z"/>
 </g>
 <path d="m44.96 37.44-7.92 7.92-2.24-2.24c-0.32-0.32-0.32-0.8 0-1.12l6.8-6.8c0.32-0.32 0.8-0.32 1.12 0l2.24 2.24z" fill="#D5B26B"/>
 <g fill="#1B514A">
  <path d="m37.04 45.76c-0.08 0-0.24 0-0.32-0.08l-2.24-2.24c-0.48-0.48-0.48-1.2 0-1.68l6.8-6.8c0.48-0.48 1.28-0.48 1.68 0l2.24 2.24c0.16 0.16 0.16 0.4 0 0.56l-7.92 7.92s-0.16 0.08-0.24 0.08zm5.12-10.4c-0.08 0-0.24 0-0.32 0.08l-6.8 6.8c-0.16 0.16-0.16 0.4 0 0.56l2 2 7.36-7.36-2-2c-0.08-0.08-0.16-0.08-0.24-0.08z"/>
  <path d="m25.52 41.2c-0.08 0-0.24 0-0.32-0.08-0.16-0.16-0.16-0.4 0-0.56l1.68-1.68c0.16-0.16 0.4-0.16 0.56 0s0.16 0.4 0 0.56l-1.68 1.68c-0.08 0.08-0.16 0.08-0.24 0.08z"/>
  <path d="m18.72 34.48c-0.24 0-0.4-0.16-0.4-0.4v-2.56c0-0.64 0.24-1.28 0.72-1.68l2-1.92c0.4-0.4 0.96-0.56 1.52-0.4 0.24 0.08 0.32 0.24 0.32 0.48-0.08 0.24-0.24 0.32-0.48 0.32-0.32-0.08-0.56 0-0.72 0.16l-2 1.92c-0.32 0.32-0.48 0.72-0.48 1.12v2.56c-0.08 0.16-0.32 0.4-0.48 0.4z"/>
  <path d="m13.92 54c-0.08 0-0.24 0-0.32-0.08-0.16-0.16-0.16-0.4 0-0.56l7.92-7.92-7.36-7.36-7.92 7.92c-0.16 0.16-0.40001 0.16-0.56001 0s-0.16-0.4 0-0.56l8.24-8.24c0.16-0.16 0.4-0.16 0.56 0l7.92 7.92c0.16 0.16 0.16 0.4 0 0.56l-8.24 8.16c-0.08 0.08-0.16 0.16-0.24 0.16z"/>
 </g>
 <path d="m22.08 45.36-7.92-7.92 2.24-2.24c0.32-0.32 0.8-0.32 1.12 0l6.8 6.8c0.32 0.32 0.32 0.8 0 1.12l-2.24 2.24z" fill="#D5B26B"/>
 <g fill="#1B514A">
  <path d="m22.08 45.76c-0.08 0-0.24 0-0.32-0.08l-7.92-7.92c-0.16-0.16-0.16-0.4 0-0.56l2.24-2.24c0.48-0.48 1.28-0.48 1.68 0l6.8 6.8c0.48 0.48 0.48 1.2 0 1.68l-2.24 2.24s-0.16 0.08-0.24 0.08zm-7.36-8.32 7.36 7.36 2-2c0.16-0.16 0.16-0.4 0-0.56l-6.8-6.8c-0.16-0.16-0.4-0.16-0.56 0l-2 2z"/>
  <path d="m6 26.4h-1.6c-0.24 0-0.4-0.16-0.4-0.4s0.16-0.4 0.4-0.4h1.6c0.24 0 0.4 0.16 0.4 0.4s-0.24 0.4-0.4 0.4z"/>
  <path d="m17.6 26.4h-10c-0.24 0-0.4-0.16-0.4-0.4s0.16-0.4 0.4-0.4h10c0.24 0 0.4 0.16 0.4 0.4s-0.24 0.4-0.4 0.4z"/>
  <path d="m54.8 26.4h-1.6c-0.24 0-0.4-0.16-0.4-0.4s0.16-0.4 0.4-0.4h1.6c0.24 0 0.4 0.16 0.4 0.4s-0.24 0.4-0.4 0.4z"/>
  <path d="m51.6 26.4h-10c-0.24 0-0.4-0.16-0.4-0.4s0.16-0.4 0.4-0.4h10c0.24 0 0.4 0.16 0.4 0.4s-0.24 0.4-0.4 0.4z"/>
  <path d="m45.6 10.4h-3.2c-0.24 0-0.4-0.16-0.4-0.4s0.16-0.4 0.4-0.4h3.2c0.24 0 0.4 0.16 0.4 0.4s-0.24 0.4-0.4 0.4z"/>
  <path d="m44 12c-0.24 0-0.4-0.16-0.4-0.4v-3.2c0-0.24 0.16-0.4 0.4-0.4s0.4 0.16 0.4 0.4v3.2c0 0.16-0.24 0.4-0.4 0.4z"/>
  <path d="m51.2 15.6h-3.2c-0.24 0-0.4-0.16-0.4-0.4s0.16-0.4 0.4-0.4h3.2c0.24 0 0.4 0.16 0.4 0.4s-0.24 0.4-0.4 0.4z"/>
  <path d="m49.6 17.2c-0.24 0-0.4-0.16-0.4-0.4v-3.2c0-0.24 0.16-0.4 0.4-0.4s0.4 0.16 0.4 0.4v3.2c0 0.16-0.24 0.4-0.4 0.4z"/>
 </g>
</svg>
