<svg version="1.1" viewBox="0 0 60 60" xmlns="http://www.w3.org/2000/svg" save-fill="">
 <path d="m30.097 48c-5.6903 0-11.29-1.4452-16.439-4.2452-0.1806-0.0903-0.2709-0.2709-0.2709-0.3613v-7.2257c0-0.271 0.1806-0.4516 0.4516-0.4516s0.4516 0.1806 0.4516 0.4516v1.5355c9.9354 5.329 21.677 5.329 31.613 0v-1.5355c0-0.271 0.1807-0.4516 0.4516-0.4516 0.271 0 0.4516 0.1806 0.4516 0.4516v7.2257c0 0.1807-0.0903 0.3613-0.271 0.3613-5.058 2.8-10.748 4.2452-16.438 4.2452zm-15.806-4.8774c9.9354 5.329 21.677 5.329 31.613 0v-4.4258c-9.9354 5.1484-21.677 5.1484-31.613 0v4.4258z" fill="#1B514A"/>
 <path d="m29.374 13.497-25.381 9.2129c-0.81289 0.2709-0.81289 1.445 0 1.716l25.381 9.2129c0.5419 0.1807 1.0839 0.1807 1.5355 0l25.38-9.2129c0.8128-0.271 0.8128-1.4451 0-1.716l-25.38-9.2129c-0.4516-0.1807-0.9936-0.1807-1.5355 0z" fill="#D5B26B"/>
 <g fill="#1B514A">
  <path d="m30.187 34.271c-0.271 0-0.6323-0.0903-0.9032-0.1806l-25.38-9.213c-0.54193-0.1806-0.90322-0.7224-0.90322-1.2644 0-0.5419 0.36129-1.0839 0.90322-1.2645l25.38-9.2129c0.6322-0.1807 1.2645-0.1807 1.8968 0l25.38 9.2129c0.542 0.1806 0.9033 0.7226 0.9033 1.2645 0 0.542-0.3613 1.0838-0.9033 1.2644l-25.38 9.213c-0.3613 0.0903-0.7226 0.1806-0.9936 0.1806zm-0.6322-20.413-25.381 9.2128c-0.27097 0.0903-0.27096 0.3613-0.27096 0.4516s-1e-5 0.3613 0.27096 0.4516l25.381 9.2129c0.3613 0.1807 0.8129 0.1807 1.2645 0l25.38-9.2129c0.2709-0.0903 0.2709-0.3613 0.2709-0.4516s0-0.3613-0.2709-0.4516l-25.38-9.2128c-0.4516-0.0903-0.9032-0.0903-1.2645 0z"/>
  <path d="m46.355 36.619c-0.271 0-0.4516-0.1807-0.4516-0.4517v-8.1289c0-0.271 0.1806-0.4516 0.4516-0.4516 0.2709 0 0.4516 0.1806 0.4516 0.4516v8.1289c0 0.1807-0.1807 0.4517-0.4516 0.4517z"/>
  <path d="m13.839 36.529c-0.271 0-0.4516-0.1807-0.4516-0.4516v-8.129c0-0.271 0.1806-0.4516 0.4516-0.4516s0.4516 0.1806 0.4516 0.4516v8.129c0 0.2709-0.1806 0.4516-0.4516 0.4516z"/>
 </g>
 <path d="m53.219 46.826h-3.6129l0.4516-8.129h2.7096l0.4517 8.129z" fill="#D5B26B"/>
 <g fill="#1B514A">
  <path d="m53.219 47.277h-3.6128c-0.0904 0-0.271-0.0903-0.3613-0.1806-0.0904-0.0903-0.0904-0.1807-0.0904-0.3613l0.4517-8.129c0-0.271 0.1806-0.4516 0.4516-0.4516h2.7096c0.271 0 0.4516 0.1806 0.4516 0.4516l0.4516 8.129c0 0.0903 1e-4 0.271-0.0903 0.3613-0.0903 0.0903-0.2709 0.1806-0.3613 0.1806zm-3.1612-0.9032h2.6193l-0.3613-7.2258h-1.8967l-0.3613 7.2258z"/>
  <path d="m51.413 39.148c-0.271 0-0.4516-0.1806-0.4516-0.4516v-10.658c0-2.2581-1.8065-4.0645-4.0645-4.0645h-14.903c-0.271 0-0.4517-0.1807-0.4517-0.4516 0-0.271 0.1807-0.4517 0.4517-0.4517h14.903c2.7096 0 4.9677 2.2581 4.9677 4.9678v10.658c0 0.271-0.271 0.4516-0.4516 0.4516z"/>
  <path d="m30.097 25.871c-1.2646 0-2.2581-0.9936-2.2581-2.2581s0.9935-2.258 2.2581-2.258c1.2645 0 2.258 0.9935 2.258 2.258s-0.9935 2.2581-2.258 2.2581zm0-3.6129c-0.7226 0-1.3549 0.6323-1.3549 1.3548 0 0.7226 0.6323 1.3549 1.3549 1.3549 0.7225 0 1.3548-0.6323 1.3548-1.3549 0-0.7225-0.542-1.3548-1.3548-1.3548z"/>
 </g>
</svg>
