<svg version="1.1" viewBox="0 0 60 60" xmlns="http://www.w3.org/2000/svg" save-fill="">
 <path d="m35.852 19.016c-0.2459-2.0492-1.9672-3.6886-4.0983-3.6886-0.9017 0-1.8033 0.3279-2.459 0.8197-0.6558-0.4918-1.5574-0.8197-2.4591-0.8197-2.1311 0-3.9344 1.6394-4.0983 3.7705-1.9672 0.4099-3.4426 2.1312-3.2787 4.2623 0.1639 2.2132 2.0492 3.8525 4.2623 3.8525h1.4754v2.6229c0 0.7377 0.9836 1.1476 1.4754 0.4919l2.623-3.1968h6.5573c2.7049 0 4.8361-2.6229 3.8525-5.4918-0.4918-1.5574-2.1312-2.6229-3.8525-2.6229z" fill="#D5B26B"/>
 <g fill="#1B514A">
  <path d="m26.016 31.148c-0.1639 0-0.2459-1e-4 -0.4098-0.082-0.4918-0.164-0.8197-0.6558-0.8197-1.1476v-2.2131h-1.0656c-2.459 0-4.5082-1.8852-4.6721-4.2623-0.082-2.1311 1.3115-4.0983 3.3606-4.5901 0.3279-2.2131 2.2132-3.8525 4.4263-3.8525 0.9016 0 1.7213 0.2459 2.459 0.7377 0.7377-0.4918 1.5574-0.7377 2.459-0.7377 2.2131 0 4.0164 1.5574 4.4262 3.6885 1.8033 0.082 3.3607 1.3115 3.9345 3.0328 0.4918 1.4754 0.2459 2.9508-0.6558 4.1803-0.8197 1.1476-2.2131 1.8853-3.6885 1.8853h-6.3934l-2.541 3.0328c-0.082 0.1639-0.4918 0.3279-0.8197 0.3279zm0.8197-15.41c-1.9672 0-3.5246 1.4754-3.6886 3.3607 0 0.1639-0.1639 0.3278-0.3278 0.4098-1.8033 0.3279-3.1148 1.9672-2.9508 3.8525 0.0819 1.9672 1.8032 3.4426 3.8524 3.4426h1.4754c0.2459 0 0.4099 0.1639 0.4099 0.4098v2.623c0 0.2459 0.2459 0.3278 0.2459 0.4098s0.2459 0.082 0.4918-0.1639l2.6229-3.1968c0.082-0.0819 0.164-0.1639 0.3279-0.1639h6.5574c1.1475 0 2.2951-0.5738 2.9508-1.5574 0.7377-0.9836 0.9016-2.2131 0.4918-3.4426-0.4918-1.4754-1.8853-2.459-3.5246-2.459h-0.082c-0.2459 0-0.4098-0.1639-0.4098-0.3279-0.1639-1.8852-1.7213-3.3606-3.6885-3.3606-0.8197 0-1.5574 0.2459-2.2131 0.7377-0.164 0.0819-0.3279 0.0819-0.4918 0-0.4918-0.3279-1.2296-0.5738-2.0492-0.5738z"/>
  <path d="m51.672 14.016h-3.2787c-0.2459 0-0.4099-0.1639-0.4099-0.4098s0.164-0.4098 0.4099-0.4098h3.2787c0.2459 0 0.4098 0.1639 0.4098 0.4098s-0.2459 0.4098-0.4098 0.4098z"/>
  <path d="m47.574 9.0985h-3.2787c-0.2459 0-0.4098-0.16393-0.4098-0.40984 0-0.2459 0.1639-0.40983 0.4098-0.40983h3.2787c0.2459 0 0.4098 0.16393 0.4098 0.40983 0 0.24591-0.2459 0.40984-0.4098 0.40984z"/>
  <path d="m45.934 10.738c-0.2459 0-0.4098-0.164-0.4098-0.4099v-3.2787c0-0.2459 0.1639-0.40984 0.4098-0.40984s0.4098 0.16394 0.4098 0.40984v3.2787c0 0.164-0.2459 0.4099-0.4098 0.4099z"/>
  <path d="m50.033 15.656c-0.2459 0-0.4099-0.1639-0.4099-0.4098v-3.2787c0-0.2459 0.164-0.4098 0.4099-0.4098s0.4098 0.1639 0.4098 0.4098v3.2787c0 0.1639-0.2459 0.4098-0.4098 0.4098z"/>
  <path d="m8.2295 51.721h-0.81967c-0.24591 0-0.40984-0.164-0.40984-0.4099s0.16393-0.4098 0.40984-0.4098h0.81967c0.2459 0 0.40983 0.1639 0.40983 0.4098s-0.2459 0.4099-0.40983 0.4099z"/>
  <path d="m18.885 51.721h-9.0164c-0.2459 0-0.40984-0.164-0.40984-0.4099s0.16394-0.4098 0.40984-0.4098h9.0164c0.2459 0 0.4098 0.1639 0.4098 0.4098s-0.2459 0.4099-0.4098 0.4099z"/>
  <path d="m48.393 51.721h-0.8196c-0.2459 0-0.4099-0.164-0.4099-0.4099s0.164-0.4098 0.4099-0.4098h0.8196c0.2459 0 0.4099 0.1639 0.4099 0.4098s-0.2459 0.4099-0.4099 0.4099z"/>
  <path d="m45.934 51.721h-9.0164c-0.2459 0-0.4098-0.164-0.4098-0.4099s0.1639-0.4098 0.4098-0.4098h9.0164c0.2459 0 0.4099 0.1639 0.4099 0.4098s-0.2459 0.4099-0.4099 0.4099z"/>
  <path d="m34.459 55c-0.2459 0-0.4098-0.1639-0.4098-0.4098v-7.377c0-0.2459 0.1639-0.4099 0.4098-0.4099s0.4098 0.164 0.4098 0.4099v7.377c0 0.1639-0.2459 0.4098-0.4098 0.4098z"/>
  <path d="m24.787 24.344c-0.6557 0-1.2295-0.5738-1.2295-1.2295 0-0.6558 0.5738-1.2295 1.2295-1.2295 0.6558 0 1.2295 0.5737 1.2295 1.2295 0 0.6557-0.5737 1.2295-1.2295 1.2295zm0-1.6394c-0.2459 0-0.4098 0.164-0.4098 0.4099s0.1639 0.4098 0.4098 0.4098 0.4099-0.1639 0.4099-0.4098-0.164-0.4099-0.4099-0.4099z"/>
  <path d="m29.705 24.344c-0.6557 0-1.2295-0.5738-1.2295-1.2295 0-0.6558 0.5738-1.2295 1.2295-1.2295s1.2295 0.5737 1.2295 1.2295c0 0.6557-0.5738 1.2295-1.2295 1.2295zm0-1.6394c-0.2459 0-0.4098 0.164-0.4098 0.4099s0.1639 0.4098 0.4098 0.4098 0.4098-0.1639 0.4098-0.4098-0.1639-0.4099-0.4098-0.4099z"/>
  <path d="m34.623 24.344c-0.6558 0-1.2295-0.5738-1.2295-1.2295 0-0.6558 0.5737-1.2295 1.2295-1.2295 0.6557 0 1.2295 0.5737 1.2295 1.2295 0 0.6557-0.5738 1.2295-1.2295 1.2295zm0-1.6394c-0.2459 0-0.4099 0.164-0.4099 0.4099s0.164 0.4098 0.4099 0.4098 0.4098-0.1639 0.4098-0.4098-0.1639-0.4099-0.4098-0.4099z"/>
 </g>
 <path d="m18.393 13.524c0-2.541-2.2951-4.5902-5-4.0164-1.5574 0.32787-2.7869 1.6394-3.1148 3.1968-0.2459 1.3934 0.1639 2.7049 0.9836 3.6065 0.5738 0.6557 0.9836 1.4754 0.9836 2.2951v0.2459h4.0984v-0.1639c0-0.9017 0.4098-1.7214 0.9836-2.3771 0.7377-0.7377 1.0656-1.7213 1.0656-2.7869z" fill="#D5B26B"/>
 <g fill="#1B514A">
  <path d="m16.344 19.344h-4.0984c-0.2459 0-0.4098-0.1639-0.4098-0.4098v-0.2459c0-0.7377-0.3279-1.4754-0.9017-2.0492-0.98359-1.0655-1.3934-2.5409-1.0656-3.9344 0.32787-1.7213 1.7213-3.1148 3.4427-3.5246 1.3934-0.24591 2.7868 0.08197 3.7705 0.90169 1.0655 0.9016 1.6393 2.1311 1.6393 3.5245 0 1.1476-0.4098 2.2132-1.1475 3.0328-0.4099 0.4099-0.9017 1.1476-0.9017 2.0492v0.2459c0.082 0.1639-0.0819 0.4098-0.3278 0.4098zm-3.6886-0.8196h3.2787c0.082-0.9017 0.4098-1.7213 1.0656-2.4591 0.6557-0.6557 0.9836-1.5573 0.9836-2.459 0-1.1475-0.4918-2.1311-1.3935-2.8688-0.9016-0.73773-1.9672-0.98362-3.1147-0.73772-1.3934 0.32782-2.541 1.4754-2.7869 2.8688-0.2459 1.1476 0.082 2.3771 0.9016 3.1967 0.6558 0.6558 1.0656 1.5574 1.0656 2.4591z"/>
  <path d="m14.295 23.443c-1.3935 0-2.4591-1.0656-2.4591-2.459v-2.0492c0-0.2459 0.164-0.4098 0.4099-0.4098h4.0983c0.2459 0 0.4099 0.1639 0.4099 0.4098v2.0492c0 1.3114-1.0656 2.459-2.459 2.459zm-1.6394-4.0984v1.6394c0 0.9016 0.7377 1.6393 1.6394 1.6393 0.9016 0 1.6393-0.7377 1.6393-1.6393v-1.6394h-3.2787z"/>
  <path d="m16.344 21.393h-4.0983c-0.2459 0-0.4099-0.1639-0.4099-0.4098s0.164-0.4099 0.4099-0.4099h4.0983c0.2459 0 0.4099 0.164 0.4099 0.4099s-0.164 0.4098-0.4099 0.4098z"/>
  <path d="m14.295 7.459c-0.2459 0-0.4098-0.16394-0.4098-0.40984v-1.6393c0-0.24591 0.1639-0.40984 0.4098-0.40984s0.4098 0.16393 0.4098 0.40984v1.6393c0 0.16393-0.1639 0.40984-0.4098 0.40984z"/>
  <path d="m10.197 8.8525c-0.082 0-0.24591-1e-5 -0.32788-0.08197l-1.1475-1.1475c-0.16393-0.16393-0.16393-0.40985 0-0.57378 0.16394-0.16393 0.40985-0.16393 0.57378 0l1.1475 1.1476c0.1639 0.16394 0.1639 0.40982 0 0.57376 0 0-0.082 0.08197-0.2459 0.08197z"/>
  <path d="m18.394 8.8525c-0.082 0-0.246-1e-5 -0.3279-0.08197-0.164-0.16394-0.164-0.40982 0-0.57376l1.1475-1.1476c0.164-0.16393 0.4099-0.16393 0.5738 0s0.1639 0.40985 0 0.57378l-1.1475 1.1475s-0.082 0.08197-0.2459 0.08197z"/>
  <path d="m14.295 19.344c-0.2459 0-0.4098-0.1639-0.4098-0.4098v-4.0984c0-0.2459 0.1639-0.4098 0.4098-0.4098s0.4098 0.1639 0.4098 0.4098v4.0984c0 0.1639-0.1639 0.4098-0.4098 0.4098z"/>
  <path d="m21.344 55c-0.246 0-0.4099-0.1639-0.4099-0.4098v-12.295l-2.5409-2.2131c-3.6066-3.1967-5.6558-7.7869-5.6558-12.623v-1.6394c0-0.5737 0-1.0656 0.082-1.4754 0-0.2459 0.2459-0.4098 0.4098-0.4098 0.2459 0 0.4098 0.2459 0.4098 0.4098 0 0.4098-0.0819 0.9017-0.0819 1.3935v1.6393c0 4.5902 1.9672 8.9344 5.4098 11.967l2.623 2.3771c0.0819 0.0819 0.1639 0.1639 0.1639 0.3278v12.459c0 0.2459-0.2459 0.4917-0.4098 0.4917z"/>
  <path d="m39.787 47.623h-9.4263c-0.2459 0-0.4098-0.1639-0.4098-0.4098s0.1639-0.4098 0.4098-0.4098h9.4263c3.1967 0 5.7377-2.541 5.7377-5.7377v-5.3279c0-0.2459 0.1639-0.4098 0.4098-0.4098h2.1312c0.6557 0 1.1475-0.3279 1.4754-0.9017 0.3279-0.5737 0.2459-1.2295-0.164-1.7213l-3.8524-5.3278c-0.082-0.082-0.082-0.164-0.082-0.246v-1.2295c0-8.8524-7.1311-15.984-15.984-15.984-3.3606 0-6.5574 1.0656-9.2623 3.0328-0.1639 0.164-0.4098 0.082-0.5737-0.082-0.164-0.1639-0.082-0.4098 0.0819-0.5737 2.8689-2.0492 6.2295-3.1148 9.7541-3.1148 9.2623 0 16.803 7.541 16.803 16.803v1.0656l3.7705 5.2459c0.5737 0.7377 0.5738 1.7213 0.1639 2.541-0.4098 0.8196-1.2295 1.3114-2.2131 1.3114h-1.7213v4.9181c0.082 3.6065-2.8689 6.5573-6.4754 6.5573z"/>
 </g>
</svg>
