<svg save-fill="" version="1.1" viewBox="0 0 60 60" xmlns="http://www.w3.org/2000/svg" save-fill="">
 <g fill="#1B514A">
  <path d="m16.5 5c-0.3 0-0.5-0.2-0.5-0.5v-4c0-0.3 0.2-0.5 0.5-0.5s0.5 0.2 0.5 0.5v4c0 0.2-0.3 0.5-0.5 0.5z"/>
  <path d="m18.5 3h-4c-0.3 0-0.5-0.2-0.5-0.5s0.2-0.5 0.5-0.5h4c0.3 0 0.5 0.2 0.5 0.5s-0.3 0.5-0.5 0.5z"/>
  <path d="M8.5 8.5C8.2 8.5 8 8.3 8 8V4C8 3.7 8.2 3.5 8.5 3.5C8.8 3.5 9 3.7 9 4V8C9 8.2 8.7 8.5 8.5 8.5Z"/>
  <path d="m10.5 6.5h-4c-0.3 0-0.5-0.2-0.5-0.5s0.2-0.5 0.5-0.5h4c0.3 0 0.5 0.2 0.5 0.5s-0.3 0.5-0.5 0.5z"/>
  <path d="m38.5 3h-2c-0.3 0-0.5-0.2-0.5-0.5s0.2-0.5 0.5-0.5h2c0.3 0 0.5 0.2 0.5 0.5s-0.3 0.5-0.5 0.5z"/>
  <path d="m56.5 3h-16c-0.3 0-0.5-0.2-0.5-0.5s0.2-0.5 0.5-0.5h16c0.3 0 0.5 0.2 0.5 0.5s-0.3 0.5-0.5 0.5z"/>
  <path d="m23.5 56h-2c-0.3 0-0.5-0.2-0.5-0.5s0.2-0.5 0.5-0.5h2c0.3 0 0.5 0.2 0.5 0.5s-0.3 0.5-0.5 0.5z"/>
  <path d="m19.5 56h-16c-0.3 0-0.5-0.2-0.5-0.5s0.2-0.5 0.5-0.5h16c0.3 0 0.5 0.2 0.5 0.5s-0.3 0.5-0.5 0.5z"/>
 </g>
 <path d="m30.923 17.308c-18.75 0-18.462 19.327-18.462 19.327h36.058s1.1539-19.327-17.596-19.327z" fill="#D5B26B"/>
 <path d="m51.981 45v-8.3653h-42.981v8.3653h42.981z" fill="#D5B26B"/>
 <path d="m13.023 36.085h34.96c4e-4 -0.0828 3e-4 -0.1747-6e-4 -0.2752-5e-3 -0.5142-0.0324-1.2521-0.1229-2.1389-0.1812-1.7765-0.6136-4.1344-1.6131-6.4841-0.9985-2.3474-2.5566-4.6724-4.984-6.4118-2.4232-1.7365-5.751-2.9169-10.339-2.9169-4.5878 0-7.9732 1.1804-10.481 2.9216-2.512 1.7441-4.1779 4.075-5.2832 6.4258-1.1061 2.3527-1.6444 4.7126-1.9051 6.4895-0.1302 0.8871-0.1907 1.6251-0.2187 2.1394-0.0049 0.0906-0.0088 0.1743-0.0119 0.2506zm36.06 0c4e-4 -0.0866 3e-4 -0.182-7e-4 -0.2858-0.0052-0.5427-0.0341-1.3147-0.1284-2.2399-0.1884-1.8472-0.6394-4.321-1.6952-6.8031-1.0568-2.4843-2.7258-4.991-5.3556-6.8754-2.6338-1.8874-6.193-3.1227-10.98-3.1227-4.7871 0-8.3969 1.2354-11.108 3.118-2.7073 1.8797-4.4849 4.3805-5.6513 6.8614-1.1655 2.479-1.727 4.9508-1.9981 6.7978-0.1357 0.9248-0.1992 1.6967-0.2287 2.2394-0.0062 0.1136-0.0108 0.2173-0.0144 0.3103h-3.4722v9.4654h44.081v-9.4654h-3.4479zm-39.533 1.1v7.2654h41.881v-7.2654h-41.881z" clip-rule="evenodd" fill="#1B514A" fill-rule="evenodd"/>
 <path d="M25.7307 29.4231V15H36.1153V29.4231H25.7307Z" fill="#D5B26B"/>
 <path d="m25.181 14.45h11.485v15.523h-11.485v-15.523zm1.1 1.1v13.323h9.2846v-13.323h-9.2846z" clip-rule="evenodd" fill="#1B514A" fill-rule="evenodd"/>
 <path d="m38 30.5h-14v-3h14v3z" clip-rule="evenodd" fill="#D5B26B" fill-rule="evenodd"/>
</svg>
