<svg width="60" height="60" viewBox="0 0 60 60" fill="none" xmlns="http://www.w3.org/2000/svg" save-fill="">
<path d="M35.589 41.6712H22.4383C22.1917 41.6712 22.0273 41.5068 22.0273 41.2602V40.4383C22.0273 38.7123 21.2876 37.0684 19.9725 36.0821C16.0273 32.9588 14.0547 28.1095 14.7122 23.0958C15.5342 16.6026 20.7944 11.3424 27.3698 10.6027C31.5616 10.1095 35.5068 11.4246 38.6301 14.1369C41.6712 16.8492 43.3972 20.7944 43.3972 24.8218C43.3972 29.178 41.4246 33.2876 38.0547 35.9999C36.7397 37.0684 35.9999 38.6301 35.9999 40.4383V41.2602C35.9999 41.5068 35.7534 41.6712 35.589 41.6712ZM22.8492 40.8492H35.178V40.4383C35.178 38.4657 35.9999 36.5752 37.5616 35.4246C40.767 32.7944 42.5753 29.0136 42.5753 24.904C42.5753 21.041 40.9314 17.3424 38.0547 14.7944C35.178 12.1643 31.3972 11.0136 27.452 11.4246C21.2876 12.0821 16.2739 17.0958 15.5342 23.178C14.9588 27.9451 16.8492 32.4656 20.4657 35.4246C21.9451 36.5752 22.767 38.4657 22.767 40.4383V40.8492H22.8492Z" fill="#1B514A"/>
<path d="M40.5206 25.2328C40.274 25.2328 40.1096 25.0684 40.1096 24.8219C40.1096 18.7397 35.0959 13.726 29.0137 13.726C28.7672 13.726 28.6028 13.5616 28.6028 13.315C28.6028 13.0684 28.7672 12.9041 29.0137 12.9041C35.5891 12.9041 40.9315 18.2465 40.9315 24.8219C40.9315 25.0684 40.685 25.2328 40.5206 25.2328Z" fill="#1B514A"/>
<path d="M29.4245 53.5888H28.6026C25.2328 53.5888 22.4382 50.7943 22.4382 47.4244V41.26H35.5889V47.4244C35.5889 50.8764 32.7944 53.5888 29.4245 53.5888Z" fill="#D5B26B"/>
<path d="M29.4246 53.9998H28.6027C24.9862 53.9998 22.0273 51.0409 22.0273 47.4245V41.2601C22.0273 41.0135 22.1917 40.8491 22.4383 40.8491H35.589C35.8356 40.8491 35.9999 41.0135 35.9999 41.2601V47.4245C35.9999 51.1231 33.041 53.9998 29.4246 53.9998ZM22.8493 41.671V47.4245C22.8493 50.6299 25.3972 53.1779 28.6027 53.1779H29.4246C32.6301 53.1779 35.178 50.6299 35.178 47.4245V41.671H22.8493Z" fill="#1B514A"/>
<path d="M35.589 44.9589H22.4383C22.1917 44.9589 22.0273 44.7945 22.0273 44.5479C22.0273 44.3013 22.1917 44.137 22.4383 44.137H35.589C35.8356 44.137 35.9999 44.3013 35.9999 44.5479C35.9999 44.7945 35.7534 44.9589 35.589 44.9589Z" fill="#1B514A"/>
<path d="M35.589 48.2465H22.4383C22.1917 48.2465 22.0273 48.0821 22.0273 47.8355C22.0273 47.5889 22.1917 47.4246 22.4383 47.4246H35.589C35.8356 47.4246 35.9999 47.5889 35.9999 47.8355C35.9999 48.0821 35.7534 48.2465 35.589 48.2465Z" fill="#1B514A"/>
<path d="M29.0958 8.79444C28.8492 8.79444 28.6848 8.63006 28.6848 8.38348V3.45197C28.6848 3.2054 28.8492 3.04102 29.0958 3.04102C29.3423 3.04102 29.5067 3.2054 29.5067 3.45197V8.38348C29.5067 8.63006 29.3423 8.79444 29.0958 8.79444Z" fill="#1B514A"/>
<path d="M12.5754 25.2328H7.64387C7.39729 25.2328 7.23291 25.0684 7.23291 24.8218C7.23291 24.5753 7.39729 24.4109 7.64387 24.4109H12.5754C12.822 24.4109 12.9863 24.5753 12.9863 24.8218C12.9863 25.0684 12.7398 25.2328 12.5754 25.2328Z" fill="#1B514A"/>
<path d="M50.3835 25.2328H45.452C45.2054 25.2328 45.041 25.0684 45.041 24.8218C45.041 24.5753 45.2054 24.4109 45.452 24.4109H50.3835C50.6301 24.4109 50.7944 24.5753 50.7944 24.8218C50.7944 25.0684 50.5479 25.2328 50.3835 25.2328Z" fill="#1B514A"/>
<path d="M13.8903 40.3559C13.8081 40.3559 13.6437 40.356 13.5615 40.2738C13.3971 40.1094 13.3971 39.8628 13.5615 39.6984L17.0136 36.2463C17.178 36.082 17.4245 36.082 17.5889 36.2463C17.7533 36.4107 17.7533 36.6573 17.5889 36.8217L14.1369 40.2738C14.0547 40.356 13.9725 40.3559 13.8903 40.3559Z" fill="#1B514A"/>
<path d="M40.6027 13.6438C40.5205 13.6438 40.3561 13.6438 40.2739 13.5616C40.1095 13.3972 40.1095 13.1506 40.2739 12.9862L43.726 9.53418C43.8904 9.36979 44.1369 9.36979 44.3013 9.53418C44.4657 9.69856 44.4657 9.94515 44.3013 10.1095L40.8493 13.5616C40.8493 13.6438 40.6849 13.6438 40.6027 13.6438Z" fill="#1B514A"/>
<path d="M44.0547 40.3559C43.9726 40.3559 43.8082 40.356 43.726 40.2738L40.2739 36.8217C40.1095 36.6573 40.1095 36.4107 40.2739 36.2463C40.4383 36.082 40.6849 36.082 40.8493 36.2463L44.3013 39.6984C44.4657 39.8628 44.4657 40.1094 44.3013 40.2738C44.3013 40.356 44.2191 40.3559 44.0547 40.3559Z" fill="#1B514A"/>
<path d="M17.3423 13.6438C17.2602 13.6438 17.0958 13.6438 17.0136 13.5616L13.5615 10.1095C13.3971 9.94515 13.3971 9.69856 13.5615 9.53418C13.7259 9.36979 13.9725 9.36979 14.1369 9.53418L17.5889 12.9862C17.7533 13.1506 17.7533 13.3972 17.5889 13.5616C17.5889 13.6438 17.4245 13.6438 17.3423 13.6438Z" fill="#1B514A"/>
<path d="M52.8493 25.2328H52.0274C51.7808 25.2328 51.6165 25.0684 51.6165 24.8218C51.6165 24.5753 51.7808 24.4109 52.0274 24.4109H52.8493C53.0959 24.4109 53.2603 24.5753 53.2603 24.8218C53.2603 25.0684 53.0137 25.2328 52.8493 25.2328Z" fill="#1B514A"/>
<path d="M5.99997 25.2328H5.17805C4.93147 25.2328 4.76709 25.0684 4.76709 24.8218C4.76709 24.5753 4.93147 24.4109 5.17805 24.4109H5.99997C6.24654 24.4109 6.41093 24.5753 6.41093 24.8218C6.41093 25.0684 6.16435 25.2328 5.99997 25.2328Z" fill="#1B514A"/>
<path d="M25.315 35.5068L28.1918 26.4657H23.2603L32.7123 17.4246L29.8356 26.4657H34.7671L25.315 35.5068Z" fill="#D5B26B"/>
<path d="M25.315 35.9177C25.2328 35.9177 25.1506 35.9176 25.0684 35.8354C24.904 35.7533 24.8218 35.5067 24.904 35.3423L27.6164 26.8766H23.2602C23.0958 26.8766 22.9314 26.7944 22.8492 26.63C22.767 26.4656 22.8492 26.3012 22.9314 26.219L32.3835 17.1779C32.5479 17.0136 32.7122 17.0135 32.8766 17.0957C33.041 17.1779 33.1232 17.4245 33.041 17.5889L30.3287 26.0547H34.6848C34.8492 26.0547 35.0136 26.1368 35.0958 26.3012C35.178 26.4656 35.0958 26.63 35.0136 26.7122L25.5616 35.7533C25.4794 35.9177 25.3972 35.9177 25.315 35.9177ZM24.2465 26.0547H28.1917C28.3561 26.0547 28.4383 26.1369 28.5205 26.219C28.6027 26.3012 28.6027 26.4656 28.6027 26.5478L26.2191 34.0273L33.7807 26.7943H29.8355C29.6711 26.7943 29.5889 26.7122 29.5068 26.63C29.4246 26.5478 29.4246 26.3834 29.4246 26.3012L31.8081 18.8218L24.2465 26.0547Z" fill="#1B514A"/>
</svg>
