<svg version="1.1" viewBox="0 0 60 60" xmlns="http://www.w3.org/2000/svg" save-fill="">
 <g fill="#1B514A">
  <path d="m17.373 50.176c-2.5273 0-4.6334-2.1061-4.6334-4.6334s2.1061-4.6334 4.6334-4.6334 4.6334 2.1061 4.6334 4.6334-2.1061 4.6334-4.6334 4.6334zm0-8.4243c-2.1061 0-3.791 1.6848-3.791 3.7909s1.6849 3.7909 3.791 3.7909 3.7909-1.6848 3.7909-3.7909-1.7691-3.7909-3.7909-3.7909z"/>
  <path d="m10.633 57c-0.2528 0-0.4212-0.1685-0.4212-0.4212v-2.8643c0-1.0109 0.5897-1.8534 1.5164-2.2747l3.1169-1.432v-0.7583c0-0.2527 0.1685-0.4212 0.4213-0.4212 0.2527 0 0.4212 0.1685 0.4212 0.4212v1.011c0 0.1685-0.0843 0.337-0.2528 0.4212l-3.3697 1.5164c-0.5897 0.2527-1.0109 0.8424-1.0109 1.5164v2.8643c0 0.1685-0.2527 0.4212-0.4212 0.4212z"/>
  <path d="m24.112 57c-0.2527 0-0.4212-0.1685-0.4212-0.4212v-2.8643c0-0.674-0.4212-1.2637-1.0109-1.5164l-3.3697-1.5164c-0.1685-0.0842-0.2528-0.2527-0.2528-0.4212v-1.011c0-0.2527 0.1685-0.4212 0.4213-0.4212 0.2527 0 0.4212 0.1685 0.4212 0.4212v0.674l3.117 1.4321c0.9267 0.4212 1.5163 1.348 1.5163 2.2747v2.8641c0 0.2528-0.2527 0.5056-0.4212 0.5056z"/>
  <path d="m30.852 50.176c-2.5273 0-4.6334-2.1061-4.6334-4.6334s2.1061-4.6334 4.6334-4.6334 4.6333 2.1061 4.6333 4.6334-2.106 4.6334-4.6333 4.6334zm0-8.4243c-2.1061 0-3.791 1.6848-3.791 3.7909s1.6849 3.7909 3.791 3.7909c2.106 0 3.7909-1.6848 3.7909-3.7909s-1.7691-3.7909-3.7909-3.7909z"/>
  <path d="m24.112 57c-0.2528 0-0.4213-0.1685-0.4213-0.4212v-2.8643c0-1.0109 0.5898-1.8534 1.5164-2.2747l3.117-1.432v-0.7583c0-0.2527 0.1685-0.4212 0.4212-0.4212 0.2528 0 0.4213 0.1685 0.4213 0.4212v1.011c0 0.1685-0.0843 0.337-0.2528 0.4212l-3.3697 1.5164c-0.5897 0.2527-1.0109 0.8424-1.0109 1.5164v2.8643c0 0.1685-0.2528 0.4212-0.4212 0.4212z"/>
  <path d="m37.591 57c-0.2527 0-0.4212-0.1685-0.4212-0.4212v-2.8643c0-0.674-0.4212-1.2637-1.0109-1.5164l-3.3697-1.5164c-0.1685-0.0842-0.2528-0.2527-0.2528-0.4212v-1.011c0-0.2527 0.1685-0.4212 0.4212-0.4212 0.2528 0 0.4213 0.1685 0.4213 0.4212v0.674l3.117 1.4321c0.9266 0.4212 1.5163 1.348 1.5163 2.2747v2.8641c0 0.2528-0.2527 0.5056-0.4212 0.5056z"/>
  <path d="m44.331 50.176c-2.5273 0-4.6333-2.1061-4.6333-4.6334s2.106-4.6334 4.6333-4.6334 4.6334 2.1061 4.6334 4.6334-2.1061 4.6334-4.6334 4.6334zm0-8.4243c-2.106 0-3.7909 1.6848-3.7909 3.7909s1.6849 3.7909 3.7909 3.7909c2.1061 0 3.791-1.6848 3.791-3.7909s-1.7691-3.7909-3.791-3.7909z"/>
  <path d="m37.591 57c-0.2527 0-0.4212-0.1685-0.4212-0.4212v-2.8643c0-1.0109 0.5897-1.8534 1.5164-2.2747l3.117-1.432v-0.7583c0-0.2527 0.1685-0.4212 0.4212-0.4212s0.4212 0.1685 0.4212 0.4212v1.011c0 0.1685-0.0842 0.337-0.2527 0.4212l-3.3697 1.5164c-0.5897 0.2527-1.0109 0.8424-1.0109 1.5164v2.8643c0 0.1685-0.2528 0.4212-0.4213 0.4212z"/>
  <path d="m51.07 57c-0.2527 0-0.4212-0.1685-0.4212-0.4212v-2.8643c0-0.674-0.4212-1.2637-1.0109-1.5164l-3.3697-1.5164c-0.1685-0.0842-0.2528-0.2527-0.2528-0.4212v-1.011c0-0.2527 0.1685-0.4212 0.4212-0.4212 0.2528 0 0.4213 0.1685 0.4213 0.4212v0.674l3.117 1.4321c0.9266 0.4212 1.5163 1.348 1.5163 2.2747v2.8641c0 0.2528-0.2527 0.5056-0.4212 0.5056z"/>
 </g>
 <path d="m30.852 3.4211h-11.794c-0.5054 0-0.8424 0.33698-0.8424 0.84243v7.5819c0 0.5054 0.337 0.8424 0.8424 0.8424h2.1061v2.4431c0 0.6739 0.8425 1.0952 1.3479 0.674l3.7067-3.0328h4.6334c0.5055 0 0.8424-0.3369 0.8424-0.8424v-7.5819c0-0.50546-0.4212-0.92676-0.8424-0.92676z" fill="#D5B26B"/>
 <g fill="#1B514A">
  <path d="m22.006 16.395c-0.1685 0-0.3369 0-0.5054-0.0842-0.4212-0.1685-0.7582-0.674-0.7582-1.1795v-2.0218h-1.6849c-0.6739 0-1.2636-0.5897-1.2636-1.2637v-7.5818c0-0.67395 0.5897-1.2636 1.2636-1.2636h11.794c0.6739 0 1.2636 0.5897 1.2636 1.2636v7.5818c0 0.674-0.5897 1.2637-1.2636 1.2637h-4.4649l-3.5382 2.9485c-0.337 0.2527-0.5897 0.337-0.8425 0.337zm-2.9485-12.468c-0.2527 0-0.4212 0.16848-0.4212 0.42121v7.5819c0 0.2527 0.1685 0.4212 0.4212 0.4212h2.1061c0.2527 0 0.4212 0.1685 0.4212 0.4212v2.443c0 0.2527 0.1685 0.3369 0.2528 0.4212 0.0842 0 0.2527 0.0843 0.4212-0.0842l3.7067-3.0328c0.0842-0.0842 0.1684-0.0842 0.2527-0.0842h4.6334c0.2527 0 0.4212-0.1685 0.4212-0.4212v-7.5819c0-0.25273-0.1685-0.42122-0.4212-0.42122h-11.794v-0.08422z"/>
  <path d="m48.543 30.042h-8.4243c-0.2527 0-0.4212-0.1684-0.4212-0.4212 0-0.2527 0.1685-0.4212 0.4212-0.4212h8.4243c0.2527 0 0.4212 0.1685 0.4212 0.4212 0 0.2528-0.2527 0.4212-0.4212 0.4212z"/>
  <path d="m46.016 32.148h-5.897c-0.2527 0-0.4212-0.1684-0.4212-0.4212 0-0.2527 0.1685-0.4212 0.4212-0.4212h5.897c0.2527 0 0.4212 0.1685 0.4212 0.4212 0 0.2528-0.2527 0.4212-0.4212 0.4212z"/>
  <path d="m46.016 27.936h-5.897c-0.2527 0-0.4212-0.1685-0.4212-0.4212 0-0.2528 0.1685-0.4212 0.4212-0.4212h5.897c0.2527 0 0.4212 0.1684 0.4212 0.4212 0 0.2527-0.2527 0.4212-0.4212 0.4212z"/>
  <path d="m14.846 24.903c-3.0328 0-5.4758-2.4431-5.4758-5.4758 0-3.0328 2.443-5.4758 5.4758-5.4758 3.0327 0 5.4758 2.443 5.4758 5.4758 0 3.0327-2.5273 5.4758-5.4758 5.4758zm0-10.109c-2.5273 0-4.6334 2.1061-4.6334 4.6334s2.1061 4.6333 4.6334 4.6333 4.6333-2.106 4.6333-4.6333-2.106-4.6334-4.6333-4.6334z"/>
 </g>
 <path d="m18.3 16.563 0.3369-0.337c-0.9266-1.0951-2.3588-1.8534-3.8751-1.8534-2.7801 0-5.0546 2.2746-5.0546 5.0546h0.50543c2.9485 0 5.8128-1.0108 8.0874-2.8642z" fill="#D5B26B"/>
 <g fill="#1B514A">
  <path d="m10.212 19.849h-0.50546c-0.25273 0-0.42122-0.1685-0.42122-0.4212 0-3.0328 2.4431-5.4758 5.4758-5.4758 1.6007 0 3.2013 0.7582 4.2122 1.9376 0.0842 0.0842 0.0842 0.1685 0.0842 0.337 0 0.0842-0.0842 0.2527-0.1685 0.2527l-0.3369 0.337c-2.2746 2.0218-5.3074 3.0327-8.3401 3.0327zm0-0.8424c2.8642 0 5.6443-1.0109 7.8346-2.8642-0.8424-0.8425-2.0218-1.348-3.2855-1.348-2.3588 0-4.3806 1.8533-4.5491 4.2122z"/>
  <path d="m6.4212 38.804c-0.25273 0-0.42122-0.1685-0.42122-0.4213v-7.4975c0-1.7691 1.0109-3.3698 2.5273-4.128l3.5382-1.7691c0.1685-0.0842 0.4213 0 0.5897 0.1685 0.0843 0.1685 0 0.4212-0.1685 0.5897l-3.5382 1.7691c-1.2636 0.674-2.1061 1.9376-2.1061 3.3698v7.4975c0 0.2528-0.25273 0.4213-0.42121 0.4213z"/>
  <path d="m9.791 38.803c-0.25273 0-0.42122-0.1685-0.42122-0.4213v-5.4758c0-0.2527 0.16849-0.4212 0.42122-0.4212s0.42123 0.1685 0.42123 0.4212v5.4758c0 0.2528-0.25275 0.4213-0.42123 0.4213z"/>
  <path d="m14.846 29.537c-0.1685 0-0.2527-0.0842-0.337-0.1685l-2.5273-3.7909c-0.0842-0.0843-0.0842-0.1686-0.0842-0.2528v-1.5163c0-0.2528 0.1685-0.4212 0.4212-0.4212s0.4212 0.1684 0.4212 0.4212v1.4321l2.1061 3.2013 2.1061-3.2013v-1.3479c0-0.2527 0.1685-0.4212 0.4212-0.4212s0.4212 0.1685 0.4212 0.4212v1.5164c0 0.0843 0 0.1684-0.0842 0.2527l-2.5273 3.7909c-0.0843 0.0843-0.2528 0.0843-0.337 0.0843z"/>
  <path d="m14.846 32.906c-0.2527 0-0.4212-0.1685-0.4212-0.4213v-3.3697c0-0.2527 0.1685-0.4212 0.4212-0.4212 0.2528 0 0.4212 0.1685 0.4212 0.4212v3.3697c0 0.2528-0.2527 0.4213-0.4212 0.4213z"/>
  <path d="m19.9 38.804c-0.2527 0-0.4212-0.1685-0.4212-0.4212v-7.8345c0-0.1685 0.0843-0.337 0.2528-0.4213 0.1685-0.0842 0.3369 0 0.4212 0.0843l4.8861 4.8861c0.5054 0.5055 1.3479 0.5055 1.7691 0l4.4649-4.4649-1.7691-1.7691-3.2855 3.2855c-0.1685 0.1685-0.4212 0.1685-0.5897 0l-3.2855-3.2855c-0.5897-0.5897-1.1794-1.011-1.9376-1.4322l-3.3697-1.7691c-0.1685-0.0842-0.2527-0.3369-0.1685-0.5897 0.0842-0.1684 0.337-0.2527 0.5897-0.1685l3.3697 1.7692c0.7582 0.4212 1.5164 0.9266 2.1061 1.6005l2.9485 2.9485 3.2855-3.2854c0.1685-0.1684 0.4212-0.1684 0.5897 0l2.3588 2.3588c0.0843 0.0842 0.0843 0.1685 0.0843 0.337s-0.0843 0.2527-0.0843 0.337l-4.8018 4.8018c-0.7582 0.7582-2.1904 0.7582-2.9486 0l-4.2121-4.2122v6.8237c0.1685 0.2527-0.0843 0.4212-0.2528 0.4212z"/>
  <path d="m53.598 35.097h-23.167c-0.2527 0-0.4212-0.1685-0.4212-0.4212s0.1685-0.4212 0.4212-0.4212h23.167c0.2527 0 0.4212-0.1685 0.4212-0.4213v-18.534c0-0.2527-0.1685-0.4212-0.4212-0.4212h-23.588c-0.2528 0-0.4212 0.1685-0.4212 0.4212v11.457c0 0.2527-0.1685 0.4212-0.4213 0.4212-0.2527 0-0.4212-0.1685-0.4212-0.4212v-11.457c0-0.6739 0.5897-1.2636 1.2637-1.2636h23.588c0.6739 0 1.2636 0.5897 1.2636 1.2636v18.534c0 0.674-0.5897 1.2637-1.2636 1.2637z"/>
  <path d="m33.126 29.958c-0.0842 0-0.2527 0-0.3369-0.0842-0.1685-0.1685-0.1685-0.4212 0-0.5897 0.5054-0.5055 0.5054-1.2636 0-1.7691-0.5055-0.5055-1.3479-0.5055-1.7691 0l-0.5898-0.5898c0.8425-0.8424 2.1904-0.8424 2.9486 0 0.8424 0.8425 0.8424 2.1904 0 2.9486-0.0843 0-0.1685 0.0842-0.2528 0.0842z"/>
  <path d="m29.167 7.2965h-8.4244c-0.2527 0-0.4212-0.16848-0.4212-0.42121s0.1685-0.42122 0.4212-0.42122h8.4244c0.2527 0 0.4212 0.16849 0.4212 0.42122s-0.2528 0.42121-0.4212 0.42121z"/>
  <path d="m29.167 9.8239h-8.4244c-0.2527 0-0.4212-0.16849-0.4212-0.42122s0.1685-0.42121 0.4212-0.42121h8.4244c0.2527 0 0.4212 0.16848 0.4212 0.42121s-0.2528 0.42122-0.4212 0.42122z"/>
 </g>
 <path d="m43.488 20.691h-3.3697v4.2121h3.3697v-4.2121z" fill="#D5B26B"/>
 <path d="m43.488 25.409h-3.3697c-0.2527 0-0.4212-0.1684-0.4212-0.4212v-4.2121c0-0.2528 0.1685-0.4213 0.4212-0.4213h3.3697c0.2527 0 0.4212 0.1685 0.4212 0.4213v4.2121c0 0.1685-0.2527 0.4212-0.4212 0.4212zm-2.9485-0.8424h2.5273v-3.3697h-2.5273v3.3697z" fill="#1B514A"/>
 <path d="m48.543 17.321h-3.3697v7.5819h3.3697v-7.5819z" fill="#D5B26B"/>
 <path d="m48.543 25.409h-3.3697c-0.2528 0-0.4212-0.1685-0.4212-0.4212v-7.5819c0-0.2527 0.1684-0.4212 0.4212-0.4212h3.3697c0.2527 0 0.4212 0.1685 0.4212 0.4212v7.5819c0 0.1685-0.2527 0.4212-0.4212 0.4212zm-2.9485-0.8424h2.5273v-6.7395h-2.5273v6.7395z" fill="#1B514A"/>
 <path d="m37.591 20.354h-5.0546c-0.2528 0-0.4212-0.1685-0.4212-0.4212v-2.5273c0-0.2527 0.1684-0.4212 0.4212-0.4212h5.0546c0.2527 0 0.4212 0.1685 0.4212 0.4212v2.5273c0 0.1685-0.2527 0.4212-0.4212 0.4212zm-4.6334-0.8424h4.2122v-1.6849h-4.2122v1.6849z" fill="#1B514A"/>
</svg>
