<svg version="1.1" viewBox="0 0 60 60" xmlns="http://www.w3.org/2000/svg" save-fill="">
 <path d="m17.539 26.073 2.2573-2.2573c0.3641-0.3641 0.5098-0.801 0.5098-1.3108v-3.204c0-1.0194 0.801-1.8204 1.8204-1.8204h3.204c0.5097 0 0.9466-0.2184 1.3107-0.5097l2.2573-2.2573c0.7282-0.7282 1.8933-0.7282 2.5487 0l2.2573 2.2573c0.3641 0.3641 0.801 0.5097 1.3107 0.5097h3.204c1.0195 0 1.8204 0.801 1.8204 1.8204v3.204c0 0.5098 0.2185 0.9467 0.5098 1.3108l2.2573 2.2573c0.7282 0.7282 0.7282 1.8933 0 2.5486l-2.2573 2.2574c-0.3641 0.364-0.5098 0.801-0.5098 1.3107v3.204c0 1.0195-0.8009 1.8205-1.8204 1.8205h-3.204c-0.5097 0-0.9466 0.2184-1.3107 0.5096l-2.2573 2.2574c-0.7282 0.7281-1.8933 0.7281-2.5487 0l-2.2573-2.2574c-0.3641-0.364-0.801-0.5096-1.3107-0.5096h-3.204c-1.0194 0-1.8204-0.801-1.8204-1.8205v-3.204c0-0.5097-0.2185-0.9467-0.5098-1.3107l-2.2573-2.2574c-0.6554-0.6553-0.6554-1.8204 0-2.5486z" fill="#D5B26B"/>
 <path d="m30.209 40.928c-0.5826 0-1.0923-0.2185-1.5292-0.6554l-2.2573-2.2573c-0.2913-0.2913-0.6554-0.4369-1.0195-0.4369h-3.204c-1.2379 0-2.1845-0.9467-2.1845-2.1846v-3.204c0-0.364-0.1456-0.7282-0.4369-1.0194l-2.2574-2.2574c-0.4369-0.4369-0.6553-0.9466-0.6553-1.5291s0.2184-1.1652 0.6553-1.5292l2.2574-2.2574c0.2913-0.2912 0.4369-0.6554 0.4369-1.0194v-3.2039c0-1.2379 0.9466-2.1846 2.1845-2.1846h3.204c0.3641 0 0.7282-0.1457 1.0195-0.437l2.2573-2.2573c0.801-0.801 2.2573-0.801 3.0583 0l2.2574 2.2573c0.2913 0.2913 0.6553 0.437 1.0194 0.437h3.204c1.2379 0 2.1845 0.9467 2.1845 2.1846v3.2039c0 0.364 0.1457 0.7282 0.4369 1.0194l2.2574 2.2574c0.4369 0.4369 0.6554 0.9467 0.6554 1.5292s-0.2185 1.1651-0.6554 1.5291l-2.2574 2.2574c-0.2912 0.2912-0.4369 0.6554-0.4369 1.0194v3.204c0 1.2379-0.9466 2.1846-2.1845 2.1846h-3.204c-0.3641 0-0.7281 0.1456-1.0194 0.4369l-2.2574 2.2573c-0.4369 0.4369-1.0194 0.6554-1.5291 0.6554zm-8.01-23.01c-0.801 0-1.4563 0.6554-1.4563 1.4564v3.2039c0 0.5825-0.2185 1.1651-0.6554 1.5292l-2.2573 2.2573c-0.2913 0.2913-0.4369 0.6554-0.4369 1.0195s0.1456 0.7281 0.4369 1.0194l2.2573 2.2574c0.4369 0.4369 0.6554 0.9466 0.6554 1.5291v3.204c0 0.801 0.6553 1.4564 1.4563 1.4564h3.204c0.5825 0 1.1651 0.2184 1.5292 0.6553l2.2573 2.2574c0.5826 0.5825 1.4564 0.5825 2.0389 0l2.2574-2.2574c0.4369-0.4369 0.9466-0.6553 1.5291-0.6553h3.204c0.801 0 1.4564-0.6554 1.4564-1.4564v-3.204c0-0.5825 0.2184-1.165 0.6553-1.5291l2.2574-2.2574c0.2912-0.2913 0.4369-0.6553 0.4369-1.0194s-0.1457-0.7282-0.4369-1.0195l-2.2574-2.2573c-0.4369-0.4369-0.6553-0.9467-0.6553-1.5292v-3.2039c0-0.801-0.6554-1.4564-1.4564-1.4564h-3.204c-0.5825 0-1.165-0.2185-1.5291-0.6554l-2.2574-2.2573c-0.5825-0.5825-1.5292-0.5825-2.0389 0l-2.2573 2.2573c-0.4369 0.4369-0.9467 0.6554-1.5292 0.6554h-3.204z" fill="#1B514A"/>
 <path d="m35.015 38.671c-0.0728 0-0.2185 0.0728-0.2913 0.0728l-2.2573 2.2573c-0.2913 0.2913-0.6554 0.5098-1.0195 0.7282l3.0584 7.4274 1.966-4.7332 4.7332 1.9662-3.204-7.7187h-2.9855z" fill="#D5B26B"/>
 <path d="m27.879 41.074-2.2573-2.2573c-0.0729-0.0728-0.1457-0.0728-0.2913-0.0728h-3.0584l-3.2039 7.7186 4.7331-1.966 1.9661 4.7331 3.0583-7.4274c-0.2912-0.2185-0.6553-0.4369-0.9466-0.7282z" fill="#D5B26B"/>
 <g fill="#1B514A">
  <path d="m34.506 49.593c-0.1456 0-0.2912-0.0728-0.364-0.2185l-3.0584-7.4273c-0.0728-0.2185 0-0.3642 0.2185-0.5098 0.2184-0.0728 0.3641 0 0.5097 0.2185l2.7671 6.6264 1.602-3.9322c0.0728-0.2185 0.2912-0.2912 0.5097-0.2184l3.9321 1.6019-2.8399-6.9176c-0.0728-0.2185 0-0.3641 0.2185-0.5097 0.2184-0.0728 0.3641-1e-4 0.5097 0.2184l3.204 7.7186c0.0728 0.1457 0 0.2913-0.0728 0.3641s-0.2913 0.1457-0.3641 0.0729l-4.4419-1.8204-1.8204 4.4418c-0.2185 0.1457-0.3641 0.2913-0.5098 0.2913z"/>
  <path d="m25.84 49.593c-0.1456 0-0.2913-0.0729-0.3641-0.2185l-1.8204-4.4419-4.4419 1.8205c-0.1456 0.0728-0.2913 0-0.3641-0.0728-0.0728-0.0729-0.1456-0.2913-0.0728-0.3641l3.204-7.7188c0.0728-0.2184 0.2912-0.2912 0.5097-0.2184 0.2184 0.0728 0.2913 0.2913 0.2184 0.5097l-2.8398 6.9177 3.9321-1.602c0.2185-0.0728 0.3641 0 0.5097 0.2184l1.602 3.9322 2.7671-6.6264c0.0728-0.2184 0.2913-0.2913 0.5097-0.2185 0.2185 0.0728 0.2913 0.2914 0.2185 0.5098l-3.0584 7.4274c-0.2184 0-0.3641 0.1457-0.5097 0.1457z"/>
  <path d="m30.21 35.03c-4.2235 0-7.6459-3.4225-7.6459-7.6459s3.4224-7.6458 7.6459-7.6458c4.2234 0 7.6458 3.4224 7.6458 7.6458s-3.4952 7.6459-7.6458 7.6459zm0-14.564c-3.7865 0-6.9177 3.1312-6.9177 6.9177s3.1312 6.9177 6.9177 6.9177 6.9177-3.1312 6.9177-6.9177-3.1312-6.9177-6.9177-6.9177z"/>
  <path d="m35.307 27.748c-0.2185 0-0.3641-0.1457-0.3641-0.3641 0-2.6214-2.1117-4.7332-4.7332-4.7332-0.2184 0-0.364-0.1456-0.364-0.364 0-0.2185 0.1456-0.3641 0.364-0.3641 2.9856 0 5.4614 2.4758 5.4614 5.4613 0 0.2184-0.2185 0.3641-0.3641 0.3641z"/>
  <path d="m41.496 13.185h-2.9127c-0.2185 0-0.3641-0.1456-0.3641-0.3641 0-0.2184 0.1456-0.3641 0.3641-0.3641h2.9127c0.2184 0 0.3641 0.1457 0.3641 0.3641 0 0.2185-0.1457 0.3641-0.3641 0.3641z"/>
  <path d="m40.04 14.641c-0.2184 0-0.3641-0.1457-0.3641-0.3641v-2.9127c0-0.2185 0.1457-0.3641 0.3641-0.3641 0.2185 0 0.3641 0.1456 0.3641 0.3641v2.9127c0 0.1456-0.1456 0.3641-0.3641 0.3641z"/>
  <path d="m45.865 16.825h-2.9127c-0.2184 0-0.3641-0.1456-0.3641-0.3641 0-0.2184 0.1457-0.3641 0.3641-0.3641h2.9127c0.2185 0 0.3641 0.1457 0.3641 0.3641 0 0.2185-0.1456 0.3641-0.3641 0.3641z"/>
  <path d="m44.409 18.282c-0.2185 0-0.3641-0.1456-0.3641-0.3641v-2.9127c0-0.2184 0.1456-0.3641 0.3641-0.3641 0.2184 0 0.3641 0.1457 0.3641 0.3641v2.9127c0 0.1457-0.1457 0.3641-0.3641 0.3641z"/>
  <path d="m16.01 33.938h-5.4613c-0.2185 0-0.3641-0.1456-0.3641-0.3641 0-0.2184 0.1456-0.364 0.3641-0.364h5.4613c0.2184 0 0.3641 0.1456 0.3641 0.364 0 0.2185-0.2185 0.3641-0.3641 0.3641z"/>
  <path d="m9.0923 33.938h-0.72817c-0.21845 0-0.36409-0.1456-0.36409-0.3641 0-0.2184 0.14564-0.364 0.36409-0.364h0.72817c0.21846 0 0.36409 0.1456 0.36409 0.364 0 0.2185-0.21845 0.3641-0.36409 0.3641z"/>
  <path d="m49.87 33.938h-5.4613c-0.2185 0-0.3641-0.1456-0.3641-0.3641 0-0.2184 0.1456-0.364 0.3641-0.364h5.4613c0.2184 0 0.3641 0.1456 0.3641 0.364 0 0.2185-0.2185 0.3641-0.3641 0.3641z"/>
  <path d="m52.054 33.938h-0.7282c-0.2184 0-0.364-0.1456-0.364-0.3641 0-0.2184 0.1456-0.364 0.364-0.364h0.7282c0.2185 0 0.3641 0.1456 0.3641 0.364 0 0.2185-0.2184 0.3641-0.3641 0.3641z"/>
 </g>
</svg>
