<svg width="60" height="60" viewBox="0 0 60 60" fill="none" xmlns="http://www.w3.org/2000/svg" save-fill="">
<path d="M21.1148 59.0001C20.8296 59.0001 20.6394 58.8099 20.6394 58.5247L18.8329 37.4165L12.8427 39.9837C10.3706 41.0296 8.84926 43.4067 8.84926 46.069V58.5247C8.84926 58.8099 8.65909 59.0001 8.37385 59.0001C8.0886 59.0001 7.89844 58.8099 7.89844 58.5247V46.069C7.89844 43.0263 9.70501 40.269 12.4624 39.0329L19.1181 36.1804C19.2132 36.0854 19.4034 36.0854 19.5935 36.1804C19.6886 36.2755 19.7837 36.3706 19.7837 36.5608L21.6853 58.3345C21.5902 58.7149 21.4001 58.905 21.1148 59.0001C21.1148 59.0001 21.1148 58.905 21.1148 59.0001Z" fill="#1B514A"/>
<path d="M34.9017 54.2459C34.6164 54.2459 34.4263 54.0557 34.4263 53.7705V50.918C34.4263 50.6328 34.6164 50.4426 34.9017 50.4426C35.1869 50.4426 35.3771 50.6328 35.3771 50.918V53.7705C35.3771 53.9607 35.0918 54.2459 34.9017 54.2459Z" fill="#1B514A"/>
<path d="M25.3935 35.2294C20.4492 35.2294 16.1706 31.9016 14.8394 27.1475C13.3181 27.0524 12.082 25.8163 12.082 24.295C12.082 22.7737 13.3181 21.5376 14.8394 21.4426C16.0755 16.6885 20.4492 13.3606 25.3935 13.3606C30.3378 13.3606 34.6165 16.6885 35.9476 21.4426C37.4689 21.5376 38.705 22.7737 38.705 24.295C38.705 25.8163 37.4689 27.0524 35.9476 27.1475C34.6165 31.9016 30.3378 35.2294 25.3935 35.2294ZM15.1247 26.1016C15.3148 26.1016 15.6001 26.1967 15.6952 26.4819C16.7411 31.0458 20.7345 34.1835 25.3935 34.1835C30.0525 34.1835 34.046 31.0458 35.0919 26.4819C35.187 26.2917 35.3771 26.1016 35.5673 26.1016C35.6624 26.1016 35.7575 26.1016 35.7575 26.1016C36.8034 26.1016 37.6591 25.2458 37.6591 24.1999C37.6591 23.154 36.8034 22.2983 35.7575 22.2983H35.6624C35.3771 22.2983 35.0919 22.2032 35.0919 21.918C34.046 17.354 30.0525 14.2163 25.3935 14.2163C20.7345 14.2163 16.7411 17.354 15.6952 21.918C15.6001 22.1081 15.4099 22.2983 15.2198 22.2983C15.1247 22.2983 15.0296 22.2983 15.0296 22.2983C13.9837 22.2983 13.1279 23.154 13.1279 24.1999C13.1279 25.2458 13.9837 26.1016 15.0296 26.1016C14.9345 26.1967 15.0296 26.1016 15.1247 26.1016C15.0296 26.1016 15.0296 26.1016 15.1247 26.1016Z" fill="#1B514A"/>
<path d="M15.8851 23.2492H15.4097V17.0688H18.2621V20.8721C18.2621 22.2033 17.1211 23.2492 15.8851 23.2492Z" fill="#D5B26B"/>
<path d="M15.8851 23.8196H15.4097C15.1245 23.8196 14.9343 23.6295 14.9343 23.3442V17.1639C14.9343 16.8786 15.1245 16.6885 15.4097 16.6885H18.2622C18.5474 16.6885 18.7376 16.8786 18.7376 17.1639V20.9672C18.7376 22.4885 17.4065 23.8196 15.8851 23.8196ZM15.8851 17.6393V22.8688C16.931 22.8688 17.7868 22.0131 17.7868 20.9672V17.6393H15.8851Z" fill="#1B514A"/>
<path d="M32.5244 17.0688V20.9672C32.5244 22.2983 33.5703 23.3442 34.9015 23.3442H35.3769V15.8328C34.6162 16.4983 33.5703 16.9737 32.5244 17.0688Z" fill="#D5B26B"/>
<path d="M35.3769 23.8198H34.9015C33.2851 23.8198 32.0491 22.5837 32.0491 20.9673V17.069C32.0491 16.7837 32.2393 16.5936 32.4294 16.5936C33.3802 16.4985 34.331 16.1182 34.9966 15.4526C35.0917 15.3575 35.3769 15.2624 35.472 15.3575C35.6622 15.4526 35.7573 15.6427 35.7573 15.8329V23.3444C35.8524 23.5345 35.5671 23.8198 35.3769 23.8198ZM32.9999 17.4493V20.8723C32.9999 21.9182 33.8556 22.7739 34.9015 22.7739V16.6886C34.331 17.069 33.6655 17.3542 32.9999 17.4493Z" fill="#1B514A"/>
<path d="M32.049 17.0688H15.4097C15.4097 13.1705 18.6425 9.93766 22.5408 9.93766H27.4851C29.5769 9.93766 31.5736 9.46225 33.4752 8.60652L36.8031 7.08521V12.3147C36.8031 14.977 34.6162 17.0688 32.049 17.0688Z" fill="#D5B26B"/>
<path d="M32.0491 17.6392H15.4097C15.1245 17.6392 14.9343 17.449 14.9343 17.1638C14.9343 12.9802 18.3573 9.5572 22.5409 9.5572H27.4852C29.4819 9.5572 31.4786 9.08179 33.2852 8.32114L36.613 6.79983C36.8032 6.70475 36.8983 6.70475 37.0884 6.79983C37.1835 6.89491 37.2786 7.08507 37.2786 7.18016V12.4097C37.2786 15.2621 34.9015 17.6392 32.0491 17.6392ZM15.8851 16.6884H32.0491C34.4261 16.6884 36.3278 14.7867 36.3278 12.4097V7.84573L33.6655 9.08179C31.7638 9.93753 29.577 10.4129 27.4852 10.4129H22.5409C19.0229 10.508 16.0753 13.1703 15.8851 16.6884Z" fill="#1B514A"/>
<path d="M27.7705 55.6721L25.3934 58.4295L23.0164 55.6721L24.4426 41.3147H26.3442L27.7705 55.6721Z" fill="#D5B26B"/>
<path d="M25.3935 59C25.2984 59 25.1082 58.9049 25.0132 58.8098L22.6361 56.0525C22.541 55.9574 22.541 55.8623 22.541 55.6721L23.9672 41.3148C23.9672 41.0295 24.1574 40.8394 24.4427 40.8394H26.3443C26.6295 40.8394 26.8197 41.0295 26.8197 41.3148L28.2459 55.6721C28.2459 55.7672 28.246 55.9574 28.1509 56.0525L25.7738 58.8098C25.5837 58.9049 25.4886 59 25.3935 59ZM23.4918 55.5771L25.3935 57.7639L27.2951 55.5771L25.964 41.8853H24.9181L23.4918 55.5771Z" fill="#1B514A"/>
<path d="M15.8853 59C15.6001 59 15.4099 58.8099 15.4099 58.5246V49.0164C15.4099 48.7312 15.6001 48.541 15.8853 48.541C16.1706 48.541 16.3607 48.7312 16.3607 49.0164V58.5246C16.3607 58.7148 16.0755 59 15.8853 59Z" fill="#1B514A"/>
<path d="M34.9017 59C34.6164 59 34.4263 58.8098 34.4263 58.5245V48.5409C34.4263 48.3508 34.5214 48.2557 34.6164 48.1606C34.7115 48.0655 34.9017 48.0655 35.0919 48.1606L41.7476 51.0131C43.0787 51.5836 44.6 51.4885 45.8361 50.6327C47.0722 49.8721 47.7377 48.5409 47.7377 47.0196V38.0819H41.082V43.7868C41.082 44.0721 40.8918 44.2623 40.6066 44.2623C40.3214 44.2623 40.1312 44.0721 40.1312 43.7868V37.6065C40.1312 37.3213 40.3214 37.1311 40.6066 37.1311H48.2132C48.4984 37.1311 48.6886 37.3213 48.6886 37.6065V47.0196C48.6886 48.8262 47.8328 50.4426 46.3115 51.3934C44.8853 52.3442 42.9837 52.5344 41.3673 51.8688L35.3771 49.3016V58.5245C35.3771 58.7147 35.0918 59 34.9017 59Z" fill="#1B514A"/>
<path d="M19.5936 41.8853C19.4985 41.8853 19.4985 41.8853 19.4034 41.8853C19.2132 41.7902 19.1181 41.6951 19.1181 41.505L18.7378 36.846C18.7378 36.6558 18.8329 36.4656 19.0231 36.3706L21.4001 35.3247C21.5903 35.2296 21.8755 35.3247 21.9706 35.5148L23.8722 38.3673C23.9673 38.5574 23.9673 38.8427 23.7772 39.0328L19.8788 41.8853C19.7837 41.7902 19.6886 41.8853 19.5936 41.8853ZM19.6886 36.941L19.9739 40.4591L22.8263 38.3673L21.4001 36.1804L19.6886 36.941Z" fill="#1B514A"/>
<path d="M31.0984 41.8852C31.0033 41.8852 30.9083 41.8852 30.8132 41.7901L26.9148 38.9376C26.7246 38.7475 26.6296 38.4622 26.8197 38.2721L28.7214 35.4196C28.8164 35.2294 29.1017 35.1344 29.2919 35.2294L31.6689 36.2753C31.8591 36.3704 31.9542 36.5606 31.9542 36.7508L31.5738 41.4098C31.5738 41.5999 31.4787 41.695 31.2886 41.7901C31.2886 41.7901 31.1935 41.8852 31.0984 41.8852ZM27.8656 38.3671L30.7181 40.4589L31.0033 36.9409L29.2919 36.1803L27.8656 38.3671Z" fill="#1B514A"/>
<path d="M26.3442 41.8853H24.4426C23.6819 41.8853 23.0164 41.2197 23.0164 40.4591V39.5083C23.0164 38.7476 23.6819 38.082 24.4426 38.082H26.3442C27.1049 38.082 27.7705 38.7476 27.7705 39.5083V40.4591C27.7705 41.2197 27.1049 41.8853 26.3442 41.8853ZM24.4426 39.0329C24.1573 39.0329 23.9672 39.223 23.9672 39.5083V40.4591C23.9672 40.7443 24.1573 40.9345 24.4426 40.9345H26.3442C26.6295 40.9345 26.8196 40.7443 26.8196 40.4591V39.5083C26.8196 39.223 26.6295 39.0329 26.3442 39.0329H24.4426Z" fill="#1B514A"/>
<path d="M27.0097 39.3181C26.9146 39.3181 26.7244 39.2231 26.6294 39.128C26.5343 39.0329 26.4392 38.9378 26.249 38.9378H24.3474C24.1572 38.9378 24.0621 39.0329 23.967 39.128C23.872 39.2231 23.6818 39.3181 23.5867 39.3181C23.3966 39.3181 23.3015 39.2231 23.2064 39.128L21.1146 35.8952C21.0195 35.8001 21.0195 35.705 21.0195 35.6099V33.9936C21.0195 33.8034 21.1146 33.7083 21.2097 33.6132C21.3048 33.5181 21.4949 33.5181 21.6851 33.5181C24.0621 34.469 26.6294 34.469 28.9113 33.5181C29.1015 33.4231 29.1966 33.5181 29.3867 33.6132C29.4818 33.7083 29.5769 33.8034 29.5769 33.9936V35.705C29.5769 35.8001 29.5769 35.8952 29.4818 35.9903L27.39 39.2231C27.2949 39.2231 27.1998 39.3181 27.0097 39.3181ZM24.4425 38.0821H26.3441C26.5343 38.0821 26.7244 38.1772 26.9146 38.1772L28.7211 35.5149V34.6591C26.5343 35.3247 24.2523 35.3247 22.0654 34.6591V35.5149L23.872 38.1772C23.9671 38.0821 24.1572 38.0821 24.4425 38.0821Z" fill="#1B514A"/>
<path d="M14.4591 34.754H7.32795C7.0427 34.754 6.85254 34.5639 6.85254 34.2786C6.85254 33.9934 7.0427 33.8032 7.32795 33.8032H14.4591C14.7443 33.8032 14.9345 33.9934 14.9345 34.2786C14.9345 34.5639 14.6493 34.754 14.4591 34.754Z" fill="#1B514A"/>
<path d="M5.42623 34.754H4.47541C4.19016 34.754 4 34.5639 4 34.2786C4 33.9934 4.19016 33.8032 4.47541 33.8032H5.42623C5.71148 33.8032 5.90164 33.9934 5.90164 34.2786C5.90164 34.5639 5.61639 34.754 5.42623 34.754Z" fill="#1B514A"/>
<path d="M52.0165 56.1476H44.8853C44.6001 56.1476 44.4099 55.9574 44.4099 55.6722C44.4099 55.3869 44.6001 55.1968 44.8853 55.1968H52.0165C52.3017 55.1968 52.4919 55.3869 52.4919 55.6722C52.4919 55.9574 52.2066 56.1476 52.0165 56.1476Z" fill="#1B514A"/>
<path d="M54.8689 56.1476H53.918C53.6328 56.1476 53.4426 55.9574 53.4426 55.6722C53.4426 55.3869 53.6328 55.1968 53.918 55.1968H54.8689C55.1541 55.1968 55.3443 55.3869 55.3443 55.6722C55.3443 55.9574 55.059 56.1476 54.8689 56.1476Z" fill="#1B514A"/>
<path d="M41.082 32.5671H39.1804C38.4197 32.5671 37.7542 31.9016 37.7542 31.1409V30.6655C37.7542 29.9048 38.4197 29.2393 39.1804 29.2393H41.082C41.8427 29.2393 42.5082 29.9048 42.5082 30.6655V31.1409C42.5082 31.9016 41.8427 32.5671 41.082 32.5671ZM39.1804 30.1901C38.8951 30.1901 38.705 30.3802 38.705 30.6655V31.1409C38.705 31.4261 38.8951 31.6163 39.1804 31.6163H41.082C41.3673 31.6163 41.5574 31.4261 41.5574 31.1409V30.6655C41.5574 30.3802 41.3673 30.1901 41.082 30.1901H39.1804Z" fill="#1B514A"/>
<path d="M48.2132 31.4261H47.7378C46.9771 31.4261 46.3115 30.7605 46.3115 29.9999V27.1474C46.3115 26.3868 46.9771 25.7212 47.7378 25.7212H48.2132C48.9738 25.7212 49.6394 26.3868 49.6394 27.1474V29.9999C49.6394 30.7605 48.9738 31.4261 48.2132 31.4261ZM47.7378 26.672C47.4525 26.672 47.2623 26.8622 47.2623 27.1474V29.9999C47.2623 30.2851 47.4525 30.4753 47.7378 30.4753H48.2132C48.4984 30.4753 48.6886 30.2851 48.6886 29.9999V27.1474C48.6886 26.8622 48.4984 26.672 48.2132 26.672H47.7378V26.672Z" fill="#1B514A"/>
<path d="M45.836 31.4261H45.3606C44.5999 31.4261 43.9343 30.7605 43.9343 29.9999V27.1474C43.9343 26.3868 44.5999 25.7212 45.3606 25.7212H45.836C46.5966 25.7212 47.2622 26.3868 47.2622 27.1474V29.9999C47.2622 30.7605 46.5966 31.4261 45.836 31.4261ZM45.3606 26.672C45.0753 26.672 44.8851 26.8622 44.8851 27.1474V29.9999C44.8851 30.2851 45.0753 30.4753 45.3606 30.4753H45.836C46.1212 30.4753 46.3114 30.2851 46.3114 29.9999V27.1474C46.3114 26.8622 46.1212 26.672 45.836 26.672H45.3606V26.672Z" fill="#1B514A"/>
<path d="M43.459 31.4261H42.9836C42.2229 31.4261 41.5574 30.7605 41.5574 29.9999V27.1474C41.5574 26.3868 42.2229 25.7212 42.9836 25.7212H43.459C44.2197 25.7212 44.8852 26.3868 44.8852 27.1474V29.9999C44.8852 30.7605 44.2197 31.4261 43.459 31.4261ZM42.9836 26.672C42.6984 26.672 42.5082 26.8622 42.5082 27.1474V29.9999C42.5082 30.2851 42.6984 30.4753 42.9836 30.4753H43.459C43.7443 30.4753 43.9344 30.2851 43.9344 29.9999V27.1474C43.9344 26.8622 43.7443 26.672 43.459 26.672H42.9836V26.672Z" fill="#1B514A"/>
<path d="M46.7869 36.1803C46.5017 36.1803 46.3115 35.9901 46.3115 35.7048C46.3115 35.4196 46.5017 35.2294 46.7869 35.2294C47.8328 35.2294 48.6886 34.3737 48.6886 33.3278V30.9508C48.6886 30.6655 48.8787 30.4753 49.164 30.4753C49.4492 30.4753 49.6394 30.6655 49.6394 30.9508V33.3278C49.6394 34.8491 48.3082 36.1803 46.7869 36.1803Z" fill="#1B514A"/>
<path d="M42.0329 36.1804C40.4165 36.1804 39.1804 34.9443 39.1804 33.3279V32.0919C39.1804 31.8066 39.3706 31.6165 39.6558 31.6165C39.9411 31.6165 40.1312 31.8066 40.1312 32.0919V33.3279C40.1312 34.3738 40.987 35.2296 42.0329 35.2296C42.3181 35.2296 42.5083 35.4197 42.5083 35.705C42.5083 35.9902 42.223 36.1804 42.0329 36.1804Z" fill="#1B514A"/>
<path d="M42.0329 31.4263C41.7476 31.4263 41.5575 31.2361 41.5575 30.9509V22.3935C41.5575 22.1083 41.3673 21.9181 41.0821 21.9181H40.6066C40.3214 21.9181 40.1312 22.1083 40.1312 22.3935V29.8099C40.1312 30.0952 39.9411 30.2853 39.6558 30.2853C39.3706 30.2853 39.1804 30.0952 39.1804 29.8099V22.3935C39.1804 21.6329 39.846 20.9673 40.6066 20.9673H41.0821C41.8427 20.9673 42.5083 21.6329 42.5083 22.3935V30.9509C42.5083 31.1411 42.223 31.4263 42.0329 31.4263Z" fill="#1B514A"/>
<path d="M29.6722 58.9999C29.6722 58.9999 29.5771 58.9048 29.6722 58.9999C29.3869 58.9999 29.1968 58.7146 29.1968 58.5245L31.0984 36.7507C31.0984 36.5605 31.1935 36.4655 31.2886 36.3704C31.3837 36.2753 31.5738 36.2753 31.764 36.3704L40.7968 40.2687C41.082 40.3638 41.1771 40.6491 41.082 40.9343C40.9869 41.2196 40.7017 41.3146 40.4165 41.2196L31.9542 37.6064L30.1476 58.7146C30.0525 58.8097 29.8624 58.9999 29.6722 58.9999Z" fill="#1B514A"/>
<path d="M52.4921 10.8886C52.4921 7.94109 49.8299 5.56404 46.6922 6.22961C44.8856 6.60994 43.4594 8.13125 43.079 9.93781C42.7938 11.5542 43.2692 13.0755 44.22 14.1214C44.8856 14.8821 45.361 15.8329 45.361 16.7837V17.069H50.1151V16.8788C50.1151 15.8329 50.5905 14.8821 51.2561 14.1214C52.0167 13.2657 52.4921 12.1247 52.4921 10.8886Z" fill="#D5B26B"/>
<path d="M50.1148 17.6392H45.3607C45.0754 17.6392 44.8853 17.4491 44.8853 17.1638V16.8786C44.8853 16.0228 44.505 15.1671 43.8394 14.5015C42.6984 13.2655 42.223 11.554 42.6033 9.93759C42.9836 7.94087 44.6 6.32448 46.5968 5.84907C48.2132 5.46874 49.8296 5.94415 50.9705 6.89497C52.2066 7.94087 52.8722 9.3671 52.8722 10.9835C52.8722 12.3146 52.3967 13.5507 51.541 14.5015C51.0656 14.9769 50.4951 15.8327 50.4951 16.8786V17.1638C50.5902 17.354 50.4 17.6392 50.1148 17.6392ZM45.8361 16.6884H49.6394C49.7344 15.6425 50.1148 14.6917 50.8755 13.836C51.6361 13.0753 52.0164 12.0294 52.0164 10.9835C52.0164 9.65235 51.4459 8.51136 50.4 7.65562C49.3541 6.79989 48.023 6.51464 46.7869 6.79989C45.1705 7.18021 43.8394 8.51136 43.5541 10.1278C43.2689 11.4589 43.6492 12.8851 44.6 13.836C45.3607 14.5966 45.8361 15.6425 45.8361 16.6884Z" fill="#1B514A"/>
<path d="M47.7377 22.3934C46.1213 22.3934 44.8853 21.1573 44.8853 19.5409V17.1639C44.8853 16.8786 45.0754 16.6885 45.3607 16.6885H50.1148C50.4 16.6885 50.5902 16.8786 50.5902 17.1639V19.5409C50.5902 21.0622 49.3541 22.3934 47.7377 22.3934ZM45.8361 17.6393V19.5409C45.8361 20.5868 46.6918 21.4426 47.7377 21.4426C48.7836 21.4426 49.6394 20.5868 49.6394 19.5409V17.6393H45.8361Z" fill="#1B514A"/>
<path d="M50.1148 20.0165H45.3607C45.0754 20.0165 44.8853 19.8263 44.8853 19.5411C44.8853 19.2558 45.0754 19.0657 45.3607 19.0657H50.1148C50.4 19.0657 50.5902 19.2558 50.5902 19.5411C50.5902 19.8263 50.4 20.0165 50.1148 20.0165Z" fill="#1B514A"/>
<path d="M47.7376 3.85246C47.4524 3.85246 47.2622 3.6623 47.2622 3.37705V1.47541C47.2622 1.19016 47.4524 1 47.7376 1C48.0229 1 48.213 1.19016 48.213 1.47541V3.37705C48.213 3.56721 48.0229 3.85246 47.7376 3.85246Z" fill="#1B514A"/>
<path d="M42.9835 5.46905C42.8884 5.46905 42.6982 5.46905 42.6032 5.37396L41.272 4.04282C41.0819 3.85265 41.0819 3.56741 41.272 3.37724C41.4622 3.18708 41.7474 3.18708 41.9376 3.37724L43.2687 4.70839C43.4589 4.89855 43.4589 5.1838 43.2687 5.37396C43.2687 5.37396 43.1736 5.46905 42.9835 5.46905Z" fill="#1B514A"/>
<path d="M52.4919 5.46905C52.3969 5.46905 52.2067 5.46905 52.1116 5.37396C51.9215 5.1838 51.9215 4.89855 52.1116 4.70839L53.4428 3.37724C53.6329 3.18708 53.9182 3.18708 54.1083 3.37724C54.2985 3.56741 54.2985 3.85265 54.1083 4.04282L52.7772 5.37396C52.7772 5.37396 52.6821 5.46905 52.4919 5.46905Z" fill="#1B514A"/>
<path d="M47.7376 17.6392C47.4524 17.6392 47.2622 17.4491 47.2622 17.1638V12.4097C47.2622 12.1245 47.4524 11.9343 47.7376 11.9343C48.0229 11.9343 48.213 12.1245 48.213 12.4097V17.1638C48.213 17.354 48.0229 17.6392 47.7376 17.6392Z" fill="#1B514A"/>
</svg>
