<svg fill="none" save-fill="" version="1.1" viewBox="0 0 265 200" xmlns="http://www.w3.org/2000/svg">
 <g clip-path="url(#clip0_198_3447)">
  <path d="m187.25 77.428h-22.573v14.436h22.573v-14.436z" fill="#006753"/>
  <path d="M152.075 100H129.503V114.436H152.075V100Z" fill="#006753"/>
  <path d="m253.23 82.152v-30.709h-17.06v-19.948h-11.549v19.948h-17.06v30.709h-9.449v-69.029h-19.16v-6.5617h-25.459v-6.5617h-25.197v6.5617h-23.885v6.5617h-20.734v68.766h-11.024v-30.709h-17.06v-19.948h-11.549v19.948h-17.06v30.709h-11.024v108.92h25.197v-38.583h17.323v38.583h67.716v-44.882h29.396v44.882h40.945v0.262h25.197v-38.583h17.323v38.583h25.197v-108.92h-11.024zm-228.21 13.123h9.9737v7.8744h-9.9737v-7.8744zm0.1312 22.047h9.9737v7.874h-9.9737v-7.874zm10.105 29.921h-9.9738v-7.874h9.9738v7.874zm26.116-71.128h-23.097v-4.7244h23.097v4.7244zm0-6.8242h-23.097v-4.7244h23.097v4.7244zm0-6.8241h-23.097v-4.7244h23.097v4.7244zm3.2808 32.808h9.9738v7.8744h-9.9738v-7.8744zm0.1312 22.047h9.9738v7.874h-9.9738v-7.874zm10.105 29.921h-9.9737v-7.874h9.9737v7.874zm40.813-13.123h-18.372v-8.137h18.372v8.137zm0-23.36h-18.372v-8.136h18.372v8.136zm0-23.359h-18.372v-8.1365h18.372v8.1365zm0-23.36h-18.372v-8.1365h18.372v8.1365zm0-23.36h-18.372v-8.1365h18.372v8.1365zm34.384 93.439h-18.373v-8.137h18.373v8.137zm0-23.36h-18.373v-8.136h18.373v8.136zm0-23.359h-18.373v-8.1365h18.373v8.1365zm0-23.36h-18.373v-8.1365h18.373v8.1365zm0-23.36h-18.373v-8.1365h18.373v8.1365zm34.383 93.439h-18.373v-8.137h18.373v8.137zm0-23.36h-18.373v-8.136h18.373v8.136zm0-23.359h-18.373v-8.1365h18.373v8.1365zm0-23.36h-18.373v-8.1365h18.373v8.1365zm0-23.36h-18.373v-8.1365h18.373v8.1365zm21.128 54.856h9.974v7.8739h-9.974v-7.8739zm0.132 22.047h9.973v7.874h-9.973v-7.874zm10.105 29.922h-9.974v-7.874h9.974v7.874zm26.115-71.129h-23.097v-4.7244h23.097v4.7244zm0-6.8241h-23.097v-4.7244h23.097v4.7244zm0-6.8241h-23.097v-4.7245h23.097v4.7245zm3.281 32.808h9.974v7.8739h-9.974v-7.8739zm0.131 22.047h9.974v7.874h-9.974v-7.874zm10.105 29.922h-9.973v-7.874h9.973v7.874z" fill="#F2F2F2"/>
  <g fill="#006753">
   <path d="m31.496 164.23c-0.0734 1.038-0.1884 2.2-0.366 3.42l3.2088-3.559 0.0177 0.06c-0.1962-0.856-0.5122-1.681-0.9386-2.449l0.0205 0.056-1.9424 2.472z"/>
   <path d="m31.509 164.05 1.8816-2.395c-0.4003-0.73-0.9793-1.347-1.683-1.793-0.0344-0.021-0.0691-0.04-0.1038-0.059 0.0103 0.283 0.0596 1.943-0.0948 4.247z"/>
   <path d="m29.811 173.43c-0.0826 0.252-0.168 0.499-0.2561 0.742l4.7256-2.771 0.0066 0.069c0.0988-0.431 0.181-0.861 0.2467-1.292l-4.7185 3.283-0.0043-0.031z"/>
   <path d="m30.468 171.11 4.2561-3.51 0.012 0.066c0.0151-1.161-0.1074-2.319-0.3649-3.451l-3.27 3.627c-0.1717 1.143-0.3828 2.232-0.6332 3.268z"/>
   <path d="m31.029 167.77-5.0927-5.683 0.0272-0.064c-0.4787 0.674-0.8881 1.395-1.2219 2.151l5.8115 6.188c0.1991-0.903 0.3546-1.778 0.4759-2.592z"/>
   <path d="m24.686 164.3h2e-4c0.0092-0.021 0.0172-0.044 0.0265-0.065l-0.0267 0.065z"/>
   <path d="m24.403 165-0.0262 0.065c0.0083-0.022 0.0179-0.043 0.0263-0.065h-1e-4z"/>
   <path d="m30.519 170.51-5.8327-6.21c-0.0986 0.226-0.1931 0.459-0.2835 0.697l5.9615 6.17c0.0542-0.22 0.1058-0.439 0.1547-0.657z"/>
   <path d="m34.546 170.1c0.1161-0.781 0.1794-1.569 0.1894-2.359l-4.3136 3.558c-0.1709 0.689-0.359 1.353-0.5642 1.989l4.6792-3.256 0.0092 0.068z"/>
   <path d="m23.629 170.54 4.7214 6.16c0.3879-0.749 0.7305-1.522 1.026-2.313l-5.7611-6.051c-0.0571 0.757-0.0634 1.516-0.0189 2.274l0.0326-0.07z"/>
   <path d="m31.517 159.79 0.0423-0.019c-1.034-0.553-2.1534-0.493-3.2263 0.067l3.0922 4.2c0.1665-2.493 0.0929-4.223 0.0918-4.248z"/>
   <path d="m29.401 174.59c-0.271 0.711-0.5805 1.407-0.9273 2.085l4.7492-2.457 0.0048 0.068c0.3578-0.604 0.6376-1.251 0.8327-1.926 0.0754-0.266 0.1443-0.532 0.2065-0.799l-4.782 2.804c-0.0279 0.075-0.0555 0.15-0.0839 0.225z"/>
   <path d="m31.413 164.23-3.1632-4.297 0.0297-0.061c-0.9054 0.524-1.6834 1.242-2.2781 2.102l5.0512 5.636c0.1748-1.206 0.288-2.354 0.3604-3.38z"/>
   <path d="m29.428 174.25c0.3521-0.961 0.6523-1.94 0.8992-2.933l-5.9763-6.185c-0.1422 0.386-0.2729 0.788-0.392 1.206-0.1652 0.598-0.2754 1.21-0.3294 1.829l5.7939 6.085 0.0046-2e-3z"/>
   <path d="m35.567 180.92c-0.7188 0.753-1.548 1.574-2.4632 2.4l4.7413-0.694-0.0245 0.057c0.3951-0.785 0.6777-1.621 0.8393-2.485l-0.0201 0.057-3.0728 0.665z"/>
   <path d="m38.517 177.69c-0.0135-0.037-0.0279-0.074-0.0423-0.111-0.1725 0.224-1.1935 1.534-2.7819 3.21l2.9765-0.644c0.1576-0.818 0.1052-1.662-0.1523-2.455z"/>
   <path d="m28.398 186.94c-0.2243 0.141-0.4477 0.277-0.6704 0.408l5.407 0.88-0.0393 0.058c0.3508-0.269 0.689-0.549 1.0144-0.838l-5.7286-0.481 0.0169-0.027z"/>
   <path d="m30.387 185.57 5.5168 0.011-0.0326 0.059c0.7518-0.885 1.3962-1.855 1.9198-2.891l-4.8316 0.708c-0.8613 0.77-1.7187 1.475-2.5724 2.113z"/>
   <path d="m28.527 186.86 5.6809 0.477-0.0362 0.058c0.5876-0.528 1.1389-1.094 1.6503-1.696l-5.5914-0.012c-0.5716 0.423-1.1395 0.814-1.7036 1.173z"/>
   <path d="m21.569 189.67c0.0403-0.04 0.0829-0.084 0.1248-0.128 1.1584-0.184 2.2904-0.508 3.3714-0.963l0.1544-4.094c0.0458-0.104 0.0903-0.209 0.1335-0.315l-0.1643 4.357c0.777-0.33 1.5335-0.706 2.2654-1.127l-0.5276-7.611c0.0407-0.021 0.0817-0.042 0.1239-0.065l0.5269 7.602h0.0051c0.8839-0.515 1.7395-1.077 2.5629-1.685l-0.5745-7.489c0.0407-0.03 0.0812-0.059 0.122-0.09l0.5744 7.49c0.1823-0.135 0.3616-0.271 0.5382-0.408l-0.4739-7.582c0.0406-0.033 0.0811-0.066 0.1216-0.1l0.4743 7.588c0.7293-0.569 1.4067-1.143 2.0197-1.693l-0.2981-7.625 0.0619-0.032c-0.2117 0.055-0.4269 0.121-0.6438 0.192 0.408-0.466 0.7751-0.966 1.097-1.495l-4.7946 2.48c-0.3319 0.631-0.7052 1.239-1.1174 1.82-0.0857 0.081-0.1714 0.162-0.2559 0.246l0.0063 0.091c-0.0391 0.052-0.078 0.104-0.1176 0.154l-0.0085-0.123c-0.0605 0.063-0.1196 0.128-0.1794 0.192 0.6072-0.758 1.1401-1.573 1.5913-2.433l-4.6869-6.115c0.032 0.547 0.0854 1.097 0.1541 1.643-0.4351-0.708-0.9636-1.353-1.5711-1.92l0.0369 0.047-1.0832 2.952c0.2512 1.01 0.5008 2.15 0.7091 3.365l1.9249-4.316c0.0088 0.068 0.0181 0.135 0.0273 0.202l-1.9202 4.305c0.1899 1.141 0.326 2.242 0.408 3.305l2.3048-3.621c0.0132 0.052 0.0263 0.105 0.0395 0.156l-2.3296 3.659c0.0507 0.709 0.0768 1.398 0.0785 2.067l2.8173-3.717c0.015 0.049 0.0297 0.096 0.0443 0.143l-2.8471 3.756-0.0139-0.029c-8e-4 0.265-0.0056 0.527-0.0143 0.785l3.1779-3.578c0.0168 0.05 0.0325 0.096 0.047 0.138l-3.2329 3.64c-0.0033 0.08-0.0063 0.16-0.0103 0.239-0.0379 0.761-0.1171 1.519-0.2373 2.27l0.3067-0.31c-0.0581 0.12-0.1147 0.239-0.1697 0.356l-0.1745 0.177c-0.0201 0.115-0.0429 0.227-0.0649 0.34-0.0643 0.142-0.1264 0.28-0.1861 0.414 0.0576-0.258 0.1114-0.518 0.1573-0.78l-6.3474-4.366c1.656 4.237 4.7744 8.267 4.974 8.522 0.1621-0.302 0.3093-0.614 0.4445-0.932 0.0393-4e-3 0.0786-7e-3 0.1178-0.011-0.0162 0.039-0.033 0.077-0.0496 0.116-0.0198 2e-3 -0.0398 5e-3 -0.0596 7e-3 0.0154 4e-3 0.0339 9e-3 0.0506 0.014-0.0953 0.222-0.1939 0.441-0.2998 0.651 0.1385-0.124 0.3496-0.321 0.6019-0.571 1.4925 0.381 5.5135 1.196 8.9564-8e-3l-5.275-1.147c-1.1289 0.478-2.3129 0.813-3.5248 0.998zm3.7067-6.674 0.1265-0.128-0.0072 0.192-0.1265 0.128 0.0072-0.192z"/>
   <path d="m38.412 177.52 0.0447 0.012c-0.4441-1.085-1.344-1.753-2.5276-2.006l-0.2973 5.207c1.7182-1.814 2.7652-3.193 2.7802-3.213z"/>
   <path d="m27.347 187.57c-0.6626 0.375-1.3451 0.714-2.0445 1.014l5.225 1.137-0.0399 0.056c0.6612-0.238 1.2896-0.558 1.8702-0.953 0.2275-0.156 0.4503-0.317 0.6685-0.483l-5.4714-0.891c-0.0693 0.04-0.1387 0.081-0.2079 0.12z"/>
   <path d="m33.07 183.24c0.9042-0.818 1.7234-1.63 2.4337-2.374l0.3041-5.326 0.0618-0.029c-1.0313-0.174-2.0884-0.117-3.0953 0.166l0.2957 7.563z"/>
   <path d="m22.144 170.39c-0.6065-0.571-1.348-0.979-2.155-1.186-0.0391-9e-3 -0.078-0.016-0.1169-0.024 0.0972 0.266 0.6572 1.83 1.2226 4.069l1.0493-2.859z"/>
   <path d="m21.789 176.94-6.5997-3.83 0.0061-0.069c-0.247 0.789-0.4135 1.601-0.4972 2.423l7.4394 4.088c-0.0898-0.92-0.2122-1.8-0.3486-2.612z"/>
   <path d="m14.685 175.6h2e-4c0.0022-0.023 0.0027-0.047 0.0051-0.07l-0.0053 0.07z"/>
   <path d="m14.631 176.35-0.0048 0.07c1e-3 -0.024 0.0039-0.046 5e-3 -0.07h-2e-4z"/>
   <path d="m22.152 179.71-7.4667-4.103c-0.0239 0.245-0.0419 0.496-0.0541 0.751l7.5767 4.025c-0.0165-0.226-0.0352-0.451-0.0559-0.673z"/>
   <path d="m22.263 183.74-7.3492-3.973c0.1795 0.737 0.4082 1.461 0.6846 2.167l0.0096-0.076 6.3942 4.399c0.1372-0.833 0.2243-1.673 0.2608-2.517z"/>
   <path d="m19.788 169.2 0.0344-0.031c-1.1541-0.206-2.2004 0.197-3.0476 1.061l4.239 3.038c-0.6122-2.422-1.217-4.045-1.2258-4.068z"/>
   <path d="m21.059 173.45-4.3362-3.108 0.0093-0.068c-0.6991 0.778-1.2171 1.701-1.5168 2.704l6.5459 3.798c-0.2067-1.201-0.4538-2.328-0.7022-3.326z"/>
   <path d="m22.27 183.6c0.038-1.022 0.0209-2.046-0.0512-3.066l-7.5954-4.035c-0.0159 0.411-0.016 0.834-2e-4 1.267 0.0279 0.621 0.1123 1.237 0.2521 1.842l7.3912 3.996 0.0035-4e-3z"/>
   <path d="m256.17 163.44c-0.073 1.038-0.188 2.199-0.366 3.42l3.209-3.559 0.018 0.06c-0.196-0.857-0.512-1.681-0.939-2.45l0.021 0.057-1.943 2.472z"/>
   <path d="m256.18 163.26 1.881-2.395c-0.4-0.73-0.979-1.348-1.683-1.793-0.034-0.021-0.069-0.04-0.103-0.059 0.01 0.282 0.059 1.943-0.095 4.247z"/>
   <path d="m254.48 172.65c-0.082 0.252-0.168 0.499-0.256 0.742l4.726-2.771 6e-3 0.07c0.099-0.431 0.181-0.862 0.247-1.293l-4.719 3.284-4e-3 -0.032z"/>
   <path d="m255.14 170.32 4.256-3.51 0.012 0.065c0.015-1.16-0.107-2.318-0.365-3.45l-3.27 3.626c-0.171 1.143-0.382 2.233-0.633 3.269z"/>
   <path d="m255.7 166.98-5.092-5.682 0.027-0.064c-0.479 0.674-0.888 1.394-1.222 2.151l5.812 6.187c0.199-0.903 0.354-1.777 0.475-2.592z"/>
   <path d="m249.36 163.52h1e-3c9e-3 -0.021 0.017-0.044 0.026-0.065l-0.027 0.065z"/>
   <path d="m255.19 169.73-5.832-6.21c-0.099 0.226-0.193 0.458-0.284 0.697l5.962 6.17c0.054-0.22 0.105-0.439 0.154-0.657z"/>
   <path d="m249.08 164.21-0.027 0.065c9e-3 -0.023 0.018-0.043 0.027-0.065z"/>
   <path d="m259.22 169.31c0.116-0.781 0.18-1.569 0.19-2.358l-4.314 3.557c-0.171 0.69-0.359 1.353-0.564 1.99l4.679-3.257 9e-3 0.068z"/>
   <path d="m248.3 169.75 4.721 6.16c0.388-0.75 0.731-1.522 1.026-2.313l-5.761-6.051c-0.057 0.757-0.063 1.516-0.019 2.273l0.033-0.069z"/>
   <path d="m256.19 159.01 0.042-0.019c-1.034-0.552-2.153-0.493-3.226 0.067l3.092 4.2c0.167-2.492 0.093-4.223 0.092-4.248z"/>
   <path d="m254.07 173.8c-0.271 0.712-0.581 1.408-0.928 2.086l4.75-2.457 4e-3 0.068c0.358-0.604 0.638-1.252 0.833-1.927 0.076-0.265 0.144-0.531 0.207-0.798l-4.782 2.804c-0.028 0.075-0.056 0.15-0.084 0.224z"/>
   <path d="m256.08 163.44-3.163-4.296 0.03-0.061c-0.905 0.523-1.683 1.241-2.278 2.102l5.051 5.636c0.175-1.207 0.288-2.355 0.36-3.381z"/>
   <path d="m254.1 173.46c0.352-0.96 0.652-1.939 0.899-2.932l-5.976-6.186c-0.143 0.387-0.273 0.789-0.392 1.206-0.166 0.599-0.276 1.211-0.33 1.829l5.794 6.086 5e-3 -3e-3z"/>
   <path d="m260.24 180.14c-0.719 0.753-1.548 1.574-2.463 2.401l4.741-0.694-0.024 0.057c0.395-0.785 0.677-1.622 0.839-2.485l-0.02 0.056-3.073 0.665z"/>
   <path d="m263.19 176.9c-0.014-0.038-0.028-0.075-0.042-0.112-0.173 0.225-1.194 1.535-2.782 3.211l2.976-0.644c0.158-0.818 0.105-1.663-0.152-2.455z"/>
   <path d="m253.07 186.15c-0.224 0.141-0.447 0.277-0.67 0.407l5.407 0.881-0.039 0.057c0.35-0.269 0.689-0.548 1.014-0.838l-5.729-0.48 0.017-0.027z"/>
   <path d="m255.06 184.78 5.517 0.011-0.033 0.058c0.752-0.884 1.396-1.854 1.92-2.89l-4.832 0.707c-0.861 0.771-1.718 1.475-2.572 2.114z"/>
   <path d="m253.2 186.07 5.681 0.476-0.036 0.058c0.587-0.527 1.139-1.094 1.65-1.696l-5.591-0.011c-0.572 0.422-1.14 0.813-1.704 1.173z"/>
   <path d="m246.24 188.88c0.04-0.041 0.083-0.085 0.125-0.128 1.158-0.185 2.29-0.508 3.371-0.963l0.155-4.095c0.045-0.104 0.09-0.209 0.133-0.314l-0.164 4.357c0.777-0.33 1.533-0.707 2.265-1.127l-0.527-7.611c0.04-0.021 0.081-0.043 0.124-0.065l0.526 7.601 6e-3 1e-3c0.884-0.515 1.739-1.078 2.562-1.685l-0.574-7.49c0.041-0.03 0.081-0.059 0.122-0.089l0.574 7.489c0.183-0.135 0.362-0.271 0.539-0.407l-0.474-7.582c0.04-0.033 0.081-0.067 0.121-0.1l0.475 7.587c0.729-0.568 1.406-1.143 2.019-1.693l-0.298-7.624 0.062-0.032c-0.212 0.055-0.427 0.12-0.644 0.192 0.408-0.466 0.775-0.967 1.097-1.496l-4.794 2.481c-0.332 0.63-0.706 1.238-1.118 1.819-0.085 0.081-0.171 0.162-0.256 0.247l7e-3 0.091c-0.039 0.051-0.078 0.103-0.118 0.154l-8e-3 -0.123c-0.061 0.062-0.12 0.128-0.18 0.191 0.607-0.758 1.14-1.572 1.591-2.432l-4.686-6.115c0.032 0.546 0.085 1.097 0.154 1.642-0.435-0.707-0.964-1.353-1.571-1.919l0.036 0.047-1.083 2.951c0.251 1.01 0.501 2.151 0.709 3.366l1.925-4.316c9e-3 0.067 0.018 0.134 0.028 0.201l-1.921 4.306c0.19 1.14 0.326 2.241 0.408 3.304l2.305-3.62c0.013 0.052 0.026 0.104 0.04 0.155l-2.33 3.659c0.051 0.709 0.077 1.398 0.079 2.067l2.817-3.717c0.015 0.049 0.03 0.096 0.044 0.143l-2.847 3.757-0.014-0.029c-1e-3 0.265-5e-3 0.527-0.014 0.785l3.178-3.578c0.017 0.049 0.032 0.095 0.047 0.137l-3.233 3.64c-3e-3 0.08-6e-3 0.16-0.01 0.24-0.038 0.76-0.117 1.518-0.238 2.27l0.307-0.311c-0.058 0.121-0.115 0.24-0.17 0.357l-0.174 0.177c-0.02 0.114-0.043 0.227-0.065 0.34-0.064 0.141-0.127 0.279-0.186 0.414 0.057-0.259 0.111-0.518 0.157-0.78l-6.347-4.367c1.656 4.237 4.774 8.267 4.974 8.523 0.162-0.303 0.309-0.614 0.444-0.932 0.039-4e-3 0.079-8e-3 0.118-0.012-0.016 0.039-0.033 0.078-0.05 0.116-0.019 3e-3 -0.039 6e-3 -0.059 8e-3 0.015 4e-3 0.034 9e-3 0.05 0.014-0.095 0.222-0.194 0.44-0.299 0.651 0.138-0.125 0.349-0.321 0.601-0.571 1.493 0.381 5.514 1.196 8.957-8e-3l-5.275-1.148c-1.129 0.478-2.313 0.814-3.525 0.999zm3.707-6.675 0.126-0.128-7e-3 0.192-0.126 0.128 7e-3 -0.192z"/>
   <path d="m263.08 176.73 0.045 0.013c-0.444-1.085-1.344-1.753-2.528-2.006l-0.297 5.207c1.718-1.814 2.765-3.194 2.78-3.214z"/>
   <path d="m252.02 186.78c-0.662 0.375-1.345 0.714-2.044 1.015l5.225 1.137-0.04 0.055c0.661-0.237 1.289-0.557 1.87-0.952 0.227-0.157 0.45-0.318 0.668-0.484l-5.471-0.89c-0.069 0.04-0.139 0.08-0.208 0.119z"/>
   <path d="m257.74 182.46c0.905-0.817 1.724-1.629 2.434-2.373l0.304-5.327 0.062-0.028c-1.031-0.174-2.088-0.117-3.095 0.166l0.295 7.562z"/>
   <path d="m246.82 169.6c-0.606-0.571-1.348-0.978-2.155-1.185-0.039-9e-3 -0.078-0.017-0.117-0.024 0.098 0.266 0.658 1.829 1.223 4.068l1.049-2.859z"/>
   <path d="m246.46 176.15-6.6-3.83 6e-3 -0.069c-0.247 0.789-0.413 1.6-0.497 2.423l7.44 4.088c-0.09-0.92-0.213-1.8-0.349-2.612z"/>
   <path d="m239.3 175.57-5e-3 0.07c1e-3 -0.024 4e-3 -0.046 5e-3 -0.07z"/>
   <path d="m239.36 174.82c2e-3 -0.023 3e-3 -0.048 5e-3 -0.07l-5e-3 0.07z"/>
   <path d="m246.82 178.92-7.467-4.103c-0.024 0.245-0.042 0.495-0.054 0.75l7.577 4.025c-0.017-0.226-0.035-0.45-0.056-0.672z"/>
   <path d="m246.94 182.96-7.349-3.974c0.179 0.737 0.408 1.461 0.685 2.168l9e-3 -0.076 6.394 4.399c0.138-0.833 0.225-1.674 0.261-2.517z"/>
   <path d="m244.46 168.42 0.034-0.032c-1.154-0.205-2.2 0.197-3.047 1.061l4.239 3.039c-0.612-2.422-1.217-4.045-1.226-4.068z"/>
   <path d="m245.73 172.66-4.336-3.109 9e-3 -0.067c-0.699 0.778-1.217 1.701-1.517 2.703l6.546 3.799c-0.207-1.202-0.454-2.328-0.702-3.326z"/>
   <path d="m246.94 182.81c0.038-1.022 0.021-2.046-0.051-3.067l-7.596-4.035c-0.016 0.412-0.016 0.834 0 1.268 0.028 0.62 0.112 1.237 0.252 1.841l7.391 3.997 4e-3 -4e-3z"/>
  </g>
  <path d="m15.961 190.81h248.29v3.552c0 1.494-0.594 2.927-1.65 3.984-1.057 1.056-2.49 1.65-3.984 1.65h-237.03c-1.4942 0-2.9271-0.594-3.9837-1.65-1.0565-1.057-1.6501-2.49-1.6501-3.984v-3.552z" fill="#2F2E41"/>
  <path d="m264.26 187.93h-248.29v4.986h248.29v-4.986z" fill="#3F3D56"/>
  <g fill="#F2F2F2">
   <path d="m208.39 17.316 2.852 1.8084-1.731-3.148c0.49-0.3912 1.097-0.6078 1.724-0.6155 0.015 0 0.031 2e-4 0.046 4e-4 0.198 0.0032 0.396-0.0114 0.592-0.0437l0.966 0.6128-0.414-0.7532c0.684-0.2388 1.276-0.6879 1.69-1.2831l1.73 1.0969-1.093-1.9867c1.012-1.2142 2.375-1.9588 3.876-1.9588 1.798 0 3.401 1.0698 4.435 2.7365 0.306 0.4987 0.738 0.9076 1.253 1.1852 0.515 0.2777 1.094 0.4141 1.679 0.3955 0.032-0.0012 0.064-0.0018 0.096-0.0018 1.986 0 3.596 2.2515 3.596 5.0287 0 2.7773-1.61 5.0287-3.596 5.0287-0.436-0.0016-0.866-0.1092-1.252-0.3135-0.676-0.3285-1.415-0.5063-2.166-0.5209-0.752-0.0147-1.498 0.134-2.186 0.4358-0.581 0.2613-1.211 0.3972-1.849 0.3986-0.637 0.0015-1.268-0.1314-1.851-0.39-0.682-0.2961-1.421-0.4419-2.165-0.4275s-1.477 0.1886-2.148 0.5109c-0.382 0.1999-0.807 0.3051-1.239 0.3066-1.986 0-3.595-2.2514-3.595-5.0287-0.012-1.0713 0.246-2.1282 0.75-3.0736z"/>
   <path d="m63.306 32.085 1.814 1.1503-1.1013-2.0024c0.3119-0.249 0.6979-0.3867 1.0969-0.3916 0.0098 0 0.0195 1e-4 0.0292 3e-4 0.126 2e-3 0.252-0.0073 0.3764-0.0278l0.6147 0.3898-0.2635-0.4792c0.4355-0.1518 0.812-0.4375 1.0754-0.8161l1.1004 0.6977-0.6952-1.2638c0.2927-0.3776 0.6658-0.6853 1.0922-0.9008s0.8954-0.3334 1.373-0.3452c1.1442 0 2.1634 0.6805 2.8214 1.7407 0.1945 0.3172 0.4695 0.5774 0.797 0.754 0.3276 0.1766 0.696 0.2634 1.0679 0.2516 0.0205-8e-4 0.041-0.0012 0.0616-0.0012 1.2631 0 2.2871 1.4322 2.2871 3.1989s-1.024 3.1989-2.2871 3.1989c-0.2778-0.0011-0.5512-0.0695-0.7967-0.1995-0.43-0.209-0.9002-0.322-1.3782-0.3314-0.478-0.0093-0.9523 0.0853-1.3901 0.2773-0.3699 0.1662-0.7706 0.2526-1.1762 0.2536-0.4055 9e-4 -0.8066-0.0836-1.1773-0.2482-0.4344-0.1883-0.9043-0.281-1.3777-0.2719-0.4734 0.0092-0.9393 0.12-1.3661 0.325-0.2433 0.1272-0.5136 0.1941-0.7882 0.1951-1.2632 0-2.2872-1.4322-2.2872-3.1989-0.0073-0.6815 0.1569-1.3539 0.4776-1.9552z"/>
   <path d="m14.488 38.252 1.814 1.1503-1.1014-2.0025c0.3119-0.2489 0.6979-0.3867 1.097-0.3915 0.0097 0 0.0194 1e-4 0.0291 3e-4 0.1261 2e-3 0.2521-0.0073 0.3764-0.0279l0.6148 0.3899-0.2636-0.4792c0.4356-0.1519 0.812-0.4375 1.0755-0.8162l1.1003 0.6978-0.6951-1.2638c0.2927-0.3776 0.6658-0.6853 1.0922-0.9008 0.4263-0.2155 0.8953-0.3334 1.3729-0.3452 1.1442 0 2.1635 0.6804 2.8215 1.7407 0.1945 0.3172 0.4695 0.5773 0.797 0.7539s0.696 0.2634 1.0679 0.2516c0.0204-7e-4 0.0409-0.0011 0.0615-0.0011 1.2632 0 2.2872 1.4322 2.2872 3.1989s-1.024 3.1988-2.2872 3.1988c-0.2778-1e-3 -0.5511-0.0694-0.7966-0.1994-0.43-0.209-0.9002-0.3221-1.3782-0.3314s-0.9523 0.0853-1.3901 0.2773c-0.3699 0.1662-0.7707 0.2526-1.1762 0.2535-0.4055 1e-3 -0.8067-0.0836-1.1773-0.2481-0.4345-0.1883-0.9043-0.2811-1.3777-0.2719-0.4734 0.0091-0.9393 0.12-1.3661 0.3249-0.2434 0.1272-0.5137 0.1941-0.7883 0.1951-1.2631 0-2.2871-1.4322-2.2871-3.1988-0.0074-0.6815 0.1569-1.3539 0.4776-1.9552z"/>
  </g>
  <path d="m79.979 156.66-0.3168 0.317s0.1056 3.485 0.2112 4.224c0.1056 0.74 0.5281 2.007 0.2112 2.957-0.3168 0.951-0.4224 1.69-0.3168 1.796 0.1056 0.105-0.1056 0.528-0.1056 0.528l0.8449-0.528 1.3729-3.169-0.6336-3.379-1.2674-2.746z" fill="#006753"/>
  <path d="m79.979 156.66-0.3168 0.317s0.1056 3.485 0.2112 4.224c0.1056 0.74 0.5281 2.007 0.2112 2.957-0.3168 0.951-0.4224 1.69-0.3168 1.796 0.1056 0.105-0.1056 0.528-0.1056 0.528l0.8449-0.528 1.3729-3.169-0.6336-3.379-1.2674-2.746z" fill="#000" opacity=".1"/>
  <path d="m85.576 189.5s0-1.162-0.2113-1.373c-0.2112-0.212-0.528-0.951-0.9505-0.951-0.4224 0-1.9009 0.423-1.9009 0.528 0.012 0.33-0.0607 0.657-0.2112 0.951-0.2113 0.317-1.373 1.584-0.2113 1.795 0.3863 0.064 0.7813 0.05 1.162-0.041 0.3808-0.091 0.7397-0.256 1.0558-0.487 0.1057-0.106 0.5281-0.211 0.6337-0.106 0.1056 0.106 0.6337-0.316 0.6337-0.316z" fill="#006753"/>
  <path d="m88.533 187.6 0.6337 1.161s0.2112 1.056 0.528 1.162h0.3168s0.3169 1.162 1.0561 1.056c0.7393-0.106 1.5842-0.528 1.5842-0.739s0-0.845-0.3169-1.056c-0.4442-0.363-0.8673-0.751-1.2673-1.162l-0.528-0.528-2.0066 0.106z" fill="#006753"/>
  <path d="m80.428 148.92c-0.2032 0.104-0.3786 0.255-0.5114 0.441-0.1327 0.185-0.219 0.4-0.2514 0.626-0.0588 0.754 0.6866 1.464 0.4468 2.182-0.1362 0.407-0.5602 0.671-0.6822 1.082-0.0643 0.329-0.0161 0.669 0.1368 0.967 0.1667 0.408 0.3697 0.8 0.6065 1.172 0.4452 0.699 1.0246 1.362 1.1436 2.182 0.033 0.144 0.0315 0.293-0.0043 0.436-0.0359 0.142-0.105 0.275-0.2018 0.385 0.2143-0.162 0.4595-0.278 0.7206-0.342 1.0794-0.361 2.0821-0.919 2.9571-1.647 0.3179-0.224 0.5572-0.542 0.6838-0.909 0.1612-0.649-0.3313-1.298-0.284-1.965 0.0302-0.427 0.2764-0.803 0.4158-1.208 0.1212-0.402 0.1598-0.825 0.1135-1.243s-0.1766-0.822-0.383-1.188c-0.1709-0.354-0.412-0.67-0.7088-0.928s-0.643-0.453-1.0175-0.573c-0.5761-0.135-1.1771-0.117-1.7445 0.05-0.4958 0.103-0.9777 0.264-1.4356 0.48z" fill="#2F2E41"/>
  <path d="m81.023 154.77c0.2326-0.432 0.577-0.793 0.9971-1.047 0.4202-0.253 0.9007-0.389 1.3914-0.394 1.6897 0 1.3729-0.105 1.3729-0.105l-0.5281 2.112-1.056 1.056-2.1773-1.622z" fill="#006753"/>
  <path d="m81.458 152.54s0.9505 1.585 0.3168 2.218c-0.6336 0.634-0.3168 1.268-0.2112 1.373 0.1056 0.106 3.0627 0.317 3.0627 0.317l0.1056-1.479 0.3168-1.267s-1.6897-0.317-1.4785-1.056-2.1122-0.106-2.1122-0.106z" fill="#FBBEBE"/>
  <path d="m81.458 152.54s0.9505 1.585 0.3168 2.218c-0.6336 0.634-0.3168 1.268-0.2112 1.373 0.1056 0.106 3.0627 0.317 3.0627 0.317l0.1056-1.479 0.3168-1.267s-1.6897-0.317-1.4785-1.056-2.1122-0.106-2.1122-0.106z" fill="#000" opacity=".1"/>
  <g fill="#FBBEBE">
   <path d="m88.85 167.54c-0.1131 0.362-0.2543 0.716-0.4225 1.056-0.1056 0.106-0.4224-0.739-0.4224-0.739l0.3168-0.739 0.5281 0.422z"/>
   <path d="m87.636 162.73 0.4224 2.429h-6.3365l0.3168-2.429h5.5973z"/>
   <path d="m82.619 153.38c1.1082 0 2.0065-0.898 2.0065-2.006s-0.8983-2.007-2.0065-2.007-2.0066 0.899-2.0066 2.007 0.8984 2.006 2.0066 2.006z"/>
  </g>
  <path d="m83.042 155.5s-1.1617 0.106-1.1617-0.105-0.1056-0.845-0.3168-0.739c-0.2112 0.105-1.5841 0.211-1.4785 0.528 0.1056 0.316 0.3168 0.95 0.1056 0.95-0.0913 0.019-0.1779 0.056-0.2544 0.109-0.0766 0.053-0.1415 0.121-0.1909 0.2s-0.0822 0.168-0.0964 0.26-0.0096 0.186 0.0136 0.276c0.1057 0.528 1.2674 3.696 1.2674 3.696s0.1056 1.056 0.4224 1.373c0.1289 0.166 0.1988 0.371 0.1988 0.581s-0.0699 0.415-0.1988 0.581c-0.2112 0.211 0.528 0.422 0.8449 0.845 0.3168 0.422 2.7458 0.105 2.8514 0 0.1056-0.106 2.6402-0.106 2.8515-0.317 0.2112-0.211-0.1056-0.845-0.1056-0.845s-0.1057-0.95 0-1.267c0.1056-0.317-0.4225-5.492-0.7393-5.809s0.9505-1.267 0.9505-1.267-0.2112-0.845-1.5842-0.95c0 0-0.4224-0.634-0.8448-0.634-0.4225 0-1.3397 0.491-1.3397 0.491s-0.2445 1.41-0.5613 1.515c-0.2505 0.123-0.4678 0.304-0.6337 0.528z" fill="#006753"/>
  <path d="m87.266 154.23 0.7393 0.317s2.1122 6.548 1.901 7.815c-0.2113 1.267-0.7393 5.597-1.0561 5.597-0.3169 0-0.9505-0.633-0.9505-0.633v-1.056c0-0.212-0.3169-0.845-0.1056-0.845 0.2112 0 0.528-0.212 0.3168-0.423s-0.4224-0.528-0.2112-0.845c0.2112-0.316 0.3168-0.422 0.2112-0.739s-0.3168-0.634-0.1056-0.845-0.5281-1.267-0.5281-1.267l-1.1617-4.647 0.2113-1.901 0.7392-0.528z" fill="#006753"/>
  <g fill="#2F2E41">
   <path d="m87.688 164.26s-4.0131-0.317-4.5412-0.317c-0.528 0-1.7127-0.497-1.7127-0.497s-3.0397 3.032-1.9836 7.995c1.0561 4.964 1.2673 11.089 1.901 12.885 0.4306 1.28 0.7833 2.585 1.0561 3.907 0 0 1.0561-1.901 3.0626 0.212 0 0 0.2113-1.585-0.1056-2.218-0.3168-0.634-0.7392-4.013-0.7392-4.013s-0.7393-5.386-0.7393-6.02-0.4224-6.02-0.3168-6.125c0.1056-0.106 0.6336 4.118 0.7392 4.858 0.1057 0.739 0.4225 6.442 0.7393 7.075 0.3168 0.634 1.7954 5.703 2.6402 6.02 0.8449 0.317 3.6964-0.106 3.5907-0.317-0.1056-0.211-0.8448-1.373-1.056-1.69l-0.8449-1.267-2.0066-6.864 0.9505-8.344s0.528-5.386-0.6337-5.28z"/>
   <path d="m83.842 151.11h-2.5733c-0.1091 0-0.2147-0.039-0.2977-0.11s-0.138-0.169-0.155-0.277l-0.2557-1.62h4.0131l-0.3588 1.704c-0.018 0.086-0.0648 0.163-0.1327 0.218-0.0678 0.055-0.1526 0.085-0.2399 0.085z"/>
   <path d="m216.46 150.61h4.06v5.8c-0.533 0-1.061-0.105-1.554-0.309-0.492-0.204-0.94-0.503-1.317-0.88s-0.676-0.825-0.88-1.318c-0.204-0.492-0.309-1.02-0.309-1.553v-1.74z"/>
  </g>
  <path d="m214.09 184.59-0.29 1.45h2.03l0.097-1.45h-1.837z" fill="#A0616A"/>
  <path d="m214.09 185.75s-0.386-0.29-0.58-0.096c-0.193 0.193-0.87 3.963-0.966 4.06-0.097 0.096-2.997 1.546-2.32 1.643 0.676 0.097 3.286 0.193 3.673 0s1.45-2.03 1.45-2.03v1.643h0.193s0.194-1.74 0.677-2.223-0.387-2.127-0.387-2.127 0.194-1.063 0.097-1.063-1.837 0.193-1.837 0.193z" fill="#006753"/>
  <path d="m220.09 183.58-0.29 1.45h2.03l0.097-1.45h-1.837z" fill="#A0616A"/>
  <path d="m217.77 174.15s0.966 2.9 1.16 3.19c0.193 0.29 0.87 5.704 0.87 5.704s-0.677 1.063 0.193 1.16c0.87 0.096 0.483-0.194 1.063 0 0.158 0.059 0.327 0.081 0.495 0.065 0.168-0.017 0.329-0.072 0.472-0.162 0 0 0.29-0.58 0.097-0.773-0.194-0.194 0.193-5.22 0.193-5.22l-0.58-1.74-0.483-5.511s0.58-1.45 0.29-1.836c-0.29-0.387-1.257 0.29-1.257 0.29l-2.513 4.833z" fill="#2F2E41"/>
  <path d="m216.51 166.61s-0.29 3.093-0.483 3.287c-0.193 0.193-2.32 5.606-2.32 5.606s-0.58 0.677-0.387 3.191c0.194 2.513 0.677 5.026 0.677 5.026s-0.387 1.45 0.29 1.45 0.967-0.386 1.257-0.096 0.483 0 0.58-0.194c0.096-0.193 0.483-0.87 0.483-1.063s0.387-5.123 0.387-5.123 3.19-7.057 3.48-7.444 1.933-2.513 1.836-3.963l-5.8-0.677z" fill="#2F2E41"/>
  <path d="m218.93 153.56c1.121 0 2.03-0.909 2.03-2.03s-0.909-2.03-2.03-2.03c-1.122 0-2.03 0.909-2.03 2.03s0.908 2.03 2.03 2.03z" fill="#A0616A"/>
  <path d="m218.54 153.27s0.773 1.74 0.87 2.223c0.097 0.484 1.933-0.966 1.933-0.966s-0.966-1.644-0.676-2.417l-2.127 1.16z" fill="#A0616A"/>
  <path d="m221.63 154.24s-1.45-1.064-2.514 1.16c-1.063 2.223-1.353 2.126-1.353 2.126s-1.257 0.387-0.87 3.094c0.386 2.706-1.257 6.283-0.58 6.476 0.676 0.194 6.96 1.257 6.96 0.484 0-0.774-0.58-3.77-0.097-5.607 0.484-1.837-0.676-8.217-1.546-7.733z" fill="#3F3D56"/>
  <path d="m220.18 154.72s-1.16 1.74-1.063 3.093c0.096 1.354 0.096 2.224 0.096 2.224s-1.933 9.28-1.546 9.28c0.386 0 1.546 0.483 1.643 0.193s2.514-6.187 2.514-6.187 0.58-5.896-0.097-7.25c-0.677-1.353-1.547-1.353-1.547-1.353z" fill="#3F3D56"/>
  <path d="m217.86 169.03s-0.966 3.287 0.387 3.383c1.353 0.097 0.58-3.19 0.58-3.19l-0.967-0.193z" fill="#A0616A"/>
  <path d="m220.44 184.27s-0.338-0.254-0.508-0.084c-0.169 0.169-0.762 3.47-0.846 3.555-0.085 0.085-2.625 1.355-2.032 1.439 0.593 0.085 2.878 0.17 3.217 0 0.339-0.169 1.27-1.777 1.27-1.777v1.439h0.169s0.169-1.524 0.593-1.947c0.423-0.424-0.339-1.863-0.339-1.863s0.169-0.931 0.085-0.931c-0.085 0-1.609 0.169-1.609 0.169z" fill="#006753"/>
  <path d="m217.92 150.2c0.065-0.079 0.149-0.139 0.245-0.173 0.089-0.016 0.181-9e-3 0.266 0.023 0.607 0.176 1.132 0.559 1.487 1.081 0.069 0.133 0.173 0.245 0.3 0.324 0.083 0.025 0.164 0.056 0.242 0.092 0.226 0.15 0.092 0.496-0.038 0.734-0.333 0.611-0.487 1.304-0.444 1.998-2e-3 0.121 0.033 0.24 0.102 0.339 0.11 0.101 0.253 0.159 0.402 0.161 0.469 0.058 0.942 0.084 1.414 0.075 0.463-8e-3 0.977-0.074 1.276-0.426 0.323-0.379 0.272-0.96 0.062-1.411-0.209-0.451-0.55-0.828-0.792-1.263-0.23-0.459-0.411-0.941-0.541-1.437-0.168-0.634-0.438-1.236-0.799-1.783-0.183-0.273-0.42-0.505-0.696-0.682s-0.586-0.295-0.909-0.347c-0.878-0.098-1.688 0.443-2.394 0.974-0.793 0.597-1.636 1.335-1.7 2.326-0.051 0.802 0.43 1.527 0.682 2.291 0.388 1.178 0.226 2.459 0.059 3.688 0.716-0.429 1.525-1.024 1.478-1.857-0.031-0.562-0.455-1.01-0.719-1.508-0.726-1.367 0.102-2.283 1.017-3.219z" fill="#2F2E41"/>
  <g fill="#3F3D56">
   <path d="m246.47 160.08c0.614-1.072 0.931-2.289 0.919-3.525 0-3.185-1.972-5.767-4.406-5.767-2.433 0-4.406 2.582-4.406 5.767-0.012 1.236 0.306 2.453 0.92 3.525-0.603 1.077-0.92 2.29-0.92 3.525 0 1.234 0.317 2.447 0.92 3.524-0.603 1.077-0.92 2.291-0.92 3.525s0.317 2.448 0.92 3.525c-0.603 1.076-0.92 2.29-0.92 3.524s0.317 2.448 0.92 3.525c-0.614 1.072-0.932 2.289-0.92 3.524 0 3.186 1.973 5.768 4.406 5.768 2.434 0 4.406-2.582 4.406-5.768 0.012-1.235-0.305-2.452-0.919-3.524 0.602-1.077 0.919-2.291 0.919-3.525s-0.317-2.448-0.919-3.524c0.602-1.077 0.919-2.291 0.919-3.525s-0.317-2.448-0.919-3.525c0.602-1.077 0.919-2.29 0.919-3.524 0-1.235-0.317-2.448-0.919-3.525z"/>
   <path d="m242.98 155.28c2.433 0 4.406-2.583 4.406-5.768s-1.973-5.768-4.406-5.768-4.406 2.583-4.406 5.768 1.973 5.768 4.406 5.768z"/>
   <path d="m242.98 148.22c2.433 0 4.406-2.582 4.406-5.767 0-3.186-1.973-5.768-4.406-5.768s-4.406 2.582-4.406 5.768c0 3.185 1.973 5.767 4.406 5.767z"/>
  </g>
  <path d="m259.48 94.217c0.602-0.7663 1.15-1.5733 1.641-2.4152l-11.577-1.9013 12.521 0.0931c1.201-2.6133 1.856-5.4441 1.925-8.3194 0.07-2.8752-0.449-5.7343-1.522-8.4024l-16.798 8.7138 15.491-11.387c-1.451-2.508-3.403-4.6902-5.735-6.4108-2.331-1.7206-4.992-2.9427-7.816-3.5901-2.825-0.6474-5.752-0.7063-8.6-0.173s-5.556 1.6474-7.955 3.2728-4.437 3.7274-5.988 6.175c-1.551 2.4475-2.582 5.1883-3.027 8.0514-0.446 2.8632-0.297 5.7874 0.437 8.5906 0.733 2.8032 2.037 5.4252 3.828 7.7028-0.938 1.1927-1.745 2.483-2.407 3.8487l15.027 7.8071-16.023-5.378c-1.125 3.326-1.403 6.88-0.809 10.34 0.594 3.461 2.042 6.718 4.212 9.478-2.448 3.113-3.972 6.852-4.395 10.79-0.424 3.938 0.269 7.915 1.999 11.478 1.731 3.562 4.429 6.566 7.786 8.667 3.357 2.102 7.237 3.216 11.198 3.216 3.96 0 7.841-1.114 11.197-3.216 3.357-2.101 6.055-5.105 7.786-8.667 1.73-3.563 2.423-7.54 1.999-11.478-0.423-3.938-1.946-7.677-4.395-10.79 2.926-3.72 4.516-8.315 4.516-13.048 0-4.732-1.59-9.3278-4.516-13.048z" fill="#F2F2F2"/>
  <path d="m221.78 107.26c-8e-3 4.734 1.584 9.332 4.516 13.048-2.448 3.113-3.972 6.852-4.395 10.79-0.424 3.938 0.269 7.915 1.999 11.478 1.731 3.562 4.429 6.566 7.786 8.667 3.357 2.102 7.237 3.216 11.198 3.216 3.96 0 7.841-1.114 11.197-3.216 3.357-2.101 6.055-5.105 7.786-8.667 1.73-3.563 2.423-7.54 1.999-11.478-0.423-3.938-1.946-7.677-4.395-10.79 2.829-3.59-37.691-15.416-37.691-13.048z" fill="#F2F2F2"/>
  <path d="m259.48 94.217c0.602-0.7663 1.15-1.5733 1.641-2.4152l-11.577-1.9013 12.521 0.0931c1.201-2.6133 1.856-5.4441 1.925-8.3194 0.07-2.8752-0.449-5.7343-1.522-8.4024l-16.798 8.7138 15.491-11.387c-1.451-2.508-3.403-4.6902-5.735-6.4108-2.331-1.7206-4.992-2.9427-7.816-3.5901-2.825-0.6474-5.752-0.7063-8.6-0.173s-5.556 1.6474-7.955 3.2728-4.437 3.7274-5.988 6.175c-1.551 2.4475-2.582 5.1883-3.027 8.0514-0.446 2.8632-0.297 5.7874 0.437 8.5906 0.733 2.8032 2.037 5.4252 3.828 7.7028-0.938 1.1927-1.745 2.483-2.407 3.8487l15.027 7.8071-16.023-5.378c-1.125 3.326-1.403 6.88-0.809 10.34 0.594 3.461 2.042 6.718 4.212 9.478-2.448 3.113-3.972 6.852-4.395 10.79-0.424 3.938 0.269 7.915 1.999 11.478 1.731 3.562 4.429 6.566 7.786 8.667 3.357 2.102 7.237 3.216 11.198 3.216 3.96 0 7.841-1.114 11.197-3.216 3.357-2.101 6.055-5.105 7.786-8.667 1.73-3.563 2.423-7.54 1.999-11.478-0.423-3.938-1.946-7.677-4.395-10.79 2.926-3.72 4.516-8.315 4.516-13.048 0-4.732-1.59-9.3278-4.516-13.048z" fill="#57B894"/>
  <path d="m221.78 107.26c-8e-3 4.734 1.584 9.332 4.516 13.048-2.448 3.113-3.972 6.852-4.395 10.79-0.424 3.938 0.269 7.915 1.999 11.478 1.731 3.562 4.429 6.566 7.786 8.667 3.357 2.102 7.237 3.216 11.198 3.216 3.96 0 7.841-1.114 11.197-3.216 3.357-2.101 6.055-5.105 7.786-8.667 1.73-3.563 2.423-7.54 1.999-11.478-0.423-3.938-1.946-7.677-4.395-10.79 2.829-3.59-37.691-15.416-37.691-13.048z" fill="#000" opacity=".1"/>
  <g fill="#3F3D56">
   <path d="m24.684 160.08c0.6143-1.072 0.9317-2.289 0.9195-3.525 0-3.185-1.9725-5.767-4.4058-5.767-2.4332 0-4.4058 2.582-4.4058 5.767-0.0121 1.236 0.3053 2.453 0.9196 3.525-0.603 1.077-0.9196 2.29-0.9196 3.525 0 1.234 0.3166 2.447 0.9196 3.524-0.603 1.077-0.9196 2.291-0.9196 3.525s0.3166 2.448 0.9196 3.525c-0.603 1.076-0.9196 2.29-0.9196 3.524s0.3166 2.448 0.9196 3.525c-0.6143 1.072-0.9317 2.289-0.9196 3.524 0 3.186 1.9726 5.768 4.4058 5.768 2.4333 0 4.4058-2.582 4.4058-5.768 0.0122-1.235-0.3052-2.452-0.9195-3.524 0.6029-1.077 0.9195-2.291 0.9195-3.525s-0.3166-2.448-0.9195-3.524c0.6029-1.077 0.9195-2.291 0.9195-3.525s-0.3166-2.448-0.9195-3.525c0.6029-1.077 0.9195-2.29 0.9195-3.524 0-1.235-0.3166-2.448-0.9195-3.525z"/>
   <path d="m21.198 155.28c2.4332 0 4.4058-2.583 4.4058-5.768s-1.9726-5.768-4.4058-5.768c-2.4333 0-4.4058 2.583-4.4058 5.768s1.9725 5.768 4.4058 5.768z"/>
   <path d="m21.198 148.22c2.4332 0 4.4058-2.582 4.4058-5.767 0-3.186-1.9726-5.768-4.4058-5.768-2.4333 0-4.4058 2.582-4.4058 5.768 0 3.185 1.9725 5.767 4.4058 5.767z"/>
  </g>
  <path d="m37.691 94.217c0.6019-0.7663 1.1502-1.5733 1.6408-2.4152l-11.577-1.9013 12.52 0.0931c1.2011-2.6133 1.8563-5.4441 1.9256-8.3194 0.0693-2.8752-0.4488-5.7343-1.5226-8.4024l-16.798 8.7138 15.491-11.387c-1.4513-2.508-3.4035-4.6902-5.735-6.4108s-4.9923-2.9427-7.8167-3.5901-5.7518-0.7063-8.5999-0.173c-2.8482 0.5333-5.556 1.6474-7.9548 3.2728s-4.4372 3.7274-5.9882 6.175c-1.551 2.4475-2.5814 5.1883-3.027 8.0514-0.44561 2.8632-0.29688 5.7874 0.43694 8.5906s2.037 5.4252 3.8283 7.7028c-0.93823 1.1927-1.7452 2.483-2.4068 3.8487l15.027 7.8071-16.023-5.378c-1.1251 3.326-1.4031 6.88-0.80897 10.34 0.59415 3.461 2.0417 6.718 4.2118 9.478-2.4485 3.113-3.9716 6.852-4.3953 10.79s0.26933 7.915 1.9997 11.478c1.7303 3.562 4.4282 6.566 7.7852 8.667 3.357 2.102 7.2375 3.216 11.198 3.216s7.841-1.114 11.198-3.216c3.357-2.101 6.0549-5.105 7.7852-8.667 1.7303-3.563 2.4233-7.54 1.9997-11.478-0.4237-3.938-1.9468-7.677-4.3953-10.79 2.9258-3.72 4.5163-8.315 4.5163-13.048 0-4.732-1.5905-9.3278-4.5163-13.048z" fill="#F2F2F2"/>
  <path d="m2.4912e-5 107.26c-0.0072866 4.734 1.5841 9.332 4.5163 13.048-2.4485 3.113-3.9716 6.852-4.3953 10.79s0.26933 7.915 1.9997 11.478c1.7303 3.562 4.4282 6.566 7.7852 8.667 3.357 2.102 7.2375 3.216 11.198 3.216s7.841-1.114 11.198-3.216c3.3569-2.101 6.0548-5.105 7.7851-8.667 1.7304-3.563 2.4233-7.54 1.9997-11.478s-1.9468-7.677-4.3953-10.79c2.8286-3.59-37.691-15.416-37.691-13.048z" fill="#F2F2F2"/>
  <path d="m37.691 94.217c0.6019-0.7663 1.1502-1.5733 1.6408-2.4152l-11.577-1.9013 12.52 0.0931c1.2011-2.6133 1.8563-5.4441 1.9256-8.3194 0.0693-2.8752-0.4488-5.7343-1.5226-8.4024l-16.798 8.7138 15.491-11.387c-1.4513-2.508-3.4035-4.6902-5.735-6.4108s-4.9923-2.9427-7.8167-3.5901-5.7518-0.7063-8.5999-0.173c-2.8482 0.5333-5.556 1.6474-7.9548 3.2728s-4.4372 3.7274-5.9882 6.175c-1.551 2.4475-2.5814 5.1883-3.027 8.0514-0.44561 2.8632-0.29688 5.7874 0.43694 8.5906s2.037 5.4252 3.8283 7.7028c-0.93823 1.1927-1.7452 2.483-2.4068 3.8487l15.027 7.8071-16.023-5.378c-1.1251 3.326-1.4031 6.88-0.80897 10.34 0.59415 3.461 2.0417 6.718 4.2118 9.478-2.4485 3.113-3.9716 6.852-4.3953 10.79s0.26933 7.915 1.9997 11.478c1.7303 3.562 4.4282 6.566 7.7852 8.667 3.357 2.102 7.2375 3.216 11.198 3.216s7.841-1.114 11.198-3.216c3.357-2.101 6.0549-5.105 7.7852-8.667 1.7303-3.563 2.4233-7.54 1.9997-11.478-0.4237-3.938-1.9468-7.677-4.3953-10.79 2.9258-3.72 4.5163-8.315 4.5163-13.048 0-4.732-1.5905-9.3278-4.5163-13.048z" fill="#57B894"/>
  <path d="m2.4912e-5 107.26c-0.0072866 4.734 1.5841 9.332 4.5163 13.048-2.4485 3.113-3.9716 6.852-4.3953 10.79s0.26933 7.915 1.9997 11.478c1.7303 3.562 4.4282 6.566 7.7852 8.667 3.357 2.102 7.2375 3.216 11.198 3.216s7.841-1.114 11.198-3.216c3.3569-2.101 6.0548-5.105 7.7851-8.667 1.7304-3.563 2.4233-7.54 1.9997-11.478s-1.9468-7.677-4.3953-10.79c2.8286-3.59-37.691-15.416-37.691-13.048z" fill="#000" opacity=".1"/>
  <path d="m152.09 93.059-10.471 10.472-4.962-4.9614-1.931 1.9314 6.886 6.886 12.41-12.396-1.932-1.9315z" fill="#D5B26B"/>
  <path d="m185.42 69.175-10.471 10.471-4.961-4.9612-1.932 1.9315 6.887 6.8864 12.409-12.397-1.932-1.9315z" fill="#D5B26B"/>
 </g>
 <defs>
  <clipPath id="clip0_198_3447">
   <rect width="264.26" height="200" fill="#fff"/>
  </clipPath>
 </defs>
</svg>
