<svg width="556" height="361" viewBox="0 0 556 361" fill="none" xmlns="http://www.w3.org/2000/svg">
<path opacity="0.4" d="M309.242 165.06H97.8735V292.6H309.242V165.06Z" fill="url(#paint0_linear_198_4674)"/>
<path opacity="0.4" d="M359.574 120.633H229.087L424.818 233.615L229.087 346.598H359.574L555.306 233.615L359.574 120.633Z" fill="url(#paint1_linear_198_4674)"/>
<path d="M461.598 286.16C461.598 288.48 461.574 291.076 461.574 293.107C461.574 295.426 461.574 297.856 461.598 299.801C461.574 300.397 462.497 300.471 462.786 299.948C463.032 298.183 463.494 296.029 463.358 294.103C463.943 291.569 464.928 288.308 464.688 286.314C464.121 286.493 462.158 285.988 461.598 286.16Z" fill="#006250"/>
<path d="M464.399 295.703C464.066 295.254 461.907 292.252 460.743 291.845C461.137 290.209 462.227 288 461.907 286.247H459.433C459.433 286.247 457.968 291.439 458.904 292.676C459.617 293.611 462.51 295.826 463.685 296.577C464.282 296.823 464.596 296.054 464.399 295.703Z" fill="#006250"/>
<path d="M464.467 295.832C464.823 295.592 465.383 296.005 465.525 296.46C465.531 296.657 465.383 296.989 465.383 296.989C465.383 296.989 464.787 298.312 464.59 298.54C464.387 298.767 463.568 299.087 463.174 298.749C462.891 298.38 463.451 298.164 463.556 297.795C463.691 297.321 463.63 296.946 463.765 296.589C463.87 296.3 464.467 295.832 464.467 295.832Z" fill="#006250"/>
<path d="M465.488 296.376C465.495 296.376 465.495 296.376 465.488 296.376C465.495 296.579 465.353 296.911 465.353 296.911C465.353 296.911 464.756 298.234 464.559 298.461C464.356 298.689 463.538 299.009 463.144 298.67C463.125 298.652 463.113 298.627 463.107 298.609C463.119 298.658 463.138 298.701 463.181 298.757C463.575 299.095 464.393 298.769 464.596 298.547C464.799 298.32 465.39 296.997 465.39 296.997C465.39 296.997 465.538 296.665 465.532 296.468C465.513 296.431 465.507 296.406 465.488 296.376Z" fill="#000A1C"/>
<path d="M463.49 296.134C463.663 296.017 464.382 295.752 464.382 295.752C464.382 295.752 464.444 295.832 464.542 295.875C464.555 295.875 464.561 295.882 464.573 295.888C464.752 295.888 465.072 296.054 464.875 296.411C464.493 297.1 463.601 297.075 463.699 296.749C463.767 296.528 463.583 296.269 463.49 296.134Z" fill="#00654F"/>
<path d="M463.686 296.928C463.661 296.818 463.624 296.584 463.908 296.541C464.203 296.498 464.529 296.633 464.504 296.805C464.443 297.168 463.711 297.039 463.686 296.928Z" fill="#006250"/>
<path d="M463.661 297.42C463.753 297.389 464.011 297.358 464.227 297.457C464.288 297.481 464.362 297.457 464.387 297.395C464.411 297.334 464.387 297.26 464.325 297.235C464.054 297.112 463.734 297.143 463.587 297.192C463.525 297.21 463.488 297.284 463.507 297.346C463.525 297.407 463.593 297.444 463.661 297.42Z" fill="white"/>
<path d="M463.531 297.85C463.624 297.82 463.882 297.789 464.097 297.887C464.159 297.918 464.233 297.887 464.257 297.826C464.288 297.764 464.257 297.69 464.196 297.666C463.925 297.543 463.605 297.573 463.457 297.623C463.39 297.641 463.359 297.715 463.377 297.777C463.396 297.838 463.464 297.869 463.531 297.85Z" fill="white"/>
<path d="M459.611 278.876C459.648 280.882 459.827 281.786 459.642 282.475C459.414 283.01 458.977 283.921 458.664 284.813L459.322 284.998C459.562 284.407 460.43 283.293 460.405 283.281C461.057 282.069 460.756 279.343 460.984 278.002C461.082 276.944 459.58 277.258 459.611 278.876Z" fill="#00654F"/>
<path d="M464.829 286.314C464.682 284.973 463.937 283.884 463.888 282.973C463.783 281.171 465.045 277.565 464.799 277.368C464.626 277.233 464.466 277.116 464.312 277.018C463.777 277.073 463.143 277.135 463.408 279.362C463.709 281.891 462.134 281.755 462.288 282.789C462.417 283.669 464.411 284.548 463.9 289.003C464.14 289.2 464.362 289.391 464.565 289.569C464.682 288.732 464.959 287.52 464.829 286.314Z" fill="#00654F"/>
<path d="M462.608 274.803C462.583 274.391 461.168 275.215 461.199 275.763C461.223 276.206 461.285 276.655 461.119 276.71C460.706 277.005 461.476 277.498 463.617 276.716C463.174 276.63 462.682 276.144 462.608 274.803Z" fill="#00654F"/>
<path d="M463.888 282.98C463.783 281.177 465.045 277.571 464.799 277.375C463.962 276.704 463.433 276.575 462.085 276.612C460.737 276.642 460.104 276.919 459.833 277.848C459.574 278.722 459.39 278.987 459.18 279.842C459.082 280.223 459.39 281.392 459.464 282.623C459.556 284.105 459.58 285.422 459.297 286.61C459.507 286.696 458.393 289.434 458.817 289.575C461.063 290.338 463.457 291.302 464.616 291.882C464.739 291.039 464.965 287.526 464.836 286.32C464.682 284.973 463.937 283.884 463.888 282.98Z" fill="#006753"/>
<path d="M462.682 300.079C463.107 300.147 463.23 300.836 463.014 301.26C462.885 301.408 462.547 301.549 462.547 301.549C462.547 301.549 461.205 302.097 460.904 302.121C460.602 302.146 459.931 302.035 459.876 301.519C459.925 301.205 460.19 301.119 460.516 300.922C460.941 300.669 461.304 300.306 461.642 300.14C461.931 300.005 462.682 300.079 462.682 300.079Z" fill="#006250"/>
<path d="M460.916 301.985C461.224 301.96 462.608 301.394 462.608 301.394C462.608 301.394 462.928 301.259 463.07 301.111C463.057 301.16 463.039 301.216 463.014 301.259C462.885 301.407 462.547 301.548 462.547 301.548C462.547 301.548 461.205 302.096 460.904 302.12C460.602 302.145 459.931 302.034 459.876 301.517C459.876 301.505 459.882 301.499 459.882 301.487C460.03 301.911 460.633 302.009 460.916 301.985Z" fill="#000A1C"/>
<path d="M461.765 299.628C461.974 299.659 462.67 299.967 462.67 299.967C462.67 299.967 462.657 300.065 462.706 300.164C462.713 300.17 462.719 300.182 462.725 300.194C462.854 300.318 462.983 300.539 462.596 300.656C461.839 300.896 461.199 300.385 461.494 300.219C461.691 300.102 461.74 299.788 461.765 299.628Z" fill="#00654F"/>
<path d="M461.365 300.318C461.42 300.244 461.549 300.041 461.783 300.207C462.023 300.379 462.079 300.588 462.048 300.754C462.017 300.927 461.525 300.797 461.506 300.773C461.488 300.748 461.365 300.318 461.365 300.318Z" fill="#006250"/>
<path d="M461.137 300.533C461.236 300.576 461.476 300.737 461.587 300.971C461.618 301.038 461.698 301.069 461.766 301.032C461.834 301.001 461.864 300.921 461.834 300.854C461.692 300.558 461.402 300.348 461.242 300.281C461.174 300.25 461.094 300.281 461.063 300.355C461.032 300.422 461.069 300.502 461.137 300.533Z" fill="white"/>
<path d="M460.719 300.798C460.818 300.841 461.058 301.001 461.169 301.235C461.2 301.303 461.28 301.334 461.354 301.297C461.422 301.266 461.453 301.186 461.416 301.118C461.274 300.822 460.984 300.613 460.824 300.545C460.756 300.514 460.676 300.551 460.645 300.619C460.614 300.693 460.651 300.767 460.719 300.798Z" fill="white"/>
<path d="M471.451 300.188H462.054L460.903 302.126H471.451V300.188Z" fill="url(#paint2_linear_198_4674)"/>
<path d="M474.214 297.635H464.817L463.667 298.866H474.214V297.635Z" fill="url(#paint3_linear_198_4674)"/>
<path d="M466.177 282.5C466.109 281.534 465.439 278.851 464.866 277.768C464.62 277.307 464.343 277.135 463.986 276.932C463.186 277.03 463.199 277.805 463.26 278.131C463.353 278.58 463.863 279.491 463.876 279.522C464.522 280.728 464.842 281.983 464.977 282.66C465.162 283.57 465.199 285.453 465.205 286.394C465.205 286.431 465.199 286.468 465.199 286.505C465.186 286.653 464.817 286.696 464.743 286.93C464.669 287.163 464.503 287.649 464.651 287.668C464.774 287.68 464.829 287.249 464.885 287.317C465.033 287.52 464.78 287.889 464.608 287.957C464.436 288.025 464.399 288.166 464.559 288.178C464.719 288.191 465.439 288.228 465.703 287.686C465.949 287.176 465.949 286.579 465.949 286.511C465.949 286.517 466.239 283.324 466.177 282.5Z" fill="#00654F"/>
<path d="M462.946 274.231L462.522 273.16H459.814V274.791C459.814 275.689 460.417 276.421 461.168 276.421C461.894 276.421 462.479 275.732 462.516 274.871L462.706 274.877L462.946 274.231Z" fill="#00654F"/>
<path d="M462.282 275.701C462.048 276.113 461.666 276.39 461.223 276.409C461.217 276.544 461.193 276.642 461.137 276.686C461.211 276.686 461.291 276.679 461.365 276.655C461.82 276.55 462.146 276.181 462.282 275.701Z" fill="#227166"/>
<path d="M461.346 272.028C461.34 272.028 461.328 272.028 461.322 272.028C459.845 272.065 459.734 273.166 459.814 273.351C460.282 273.517 460.577 273.203 460.873 273.228C461.014 273.24 461.593 273.32 461.826 273.621C462.085 273.948 461.999 274.477 462.245 274.464C462.349 274.458 462.38 274.108 462.54 274.101C462.669 274.095 462.805 274.218 462.786 274.415C462.768 274.686 462.509 274.852 462.546 274.981C462.608 275.197 463.149 274.809 463.137 274.04C463.131 273.271 462.62 271.979 461.346 272.028Z" fill="#006250"/>
<path d="M461.709 272.053C463.359 272.434 463.223 273.677 463.833 274.083C464.196 274.323 465.002 273.868 465.476 274.686C466.023 275.627 465.137 275.972 465.716 276.372C466.294 276.772 466.737 277.99 465.777 278.734C464.817 279.485 463.611 278.827 463.746 277.731C463.845 276.944 463.611 276.538 462.946 276.79C462.448 276.981 462.263 276.587 462.485 276.083C461.383 276.193 462.54 274.089 460.873 273.222C460.934 272.797 461.709 272.053 461.709 272.053Z" fill="#006250"/>
<path d="M458.657 284.813C458.392 285.182 458.072 285.293 458.011 285.724C457.949 286.154 457.863 286.468 458.011 286.542C458.158 286.616 458.559 286.616 458.657 286.308C458.743 286.044 458.749 285.865 459.014 285.644C459.266 285.434 459.297 285.256 459.316 284.998C459.112 284.942 458.657 284.813 458.657 284.813Z" fill="#00654F"/>
<path d="M294.331 233.615L163.843 158.298V82.9676L294.331 158.298V233.615Z" fill="#B0D1BF"/>
<path d="M229.087 45.3164L163.843 82.9817L294.331 158.299L163.843 233.615L229.087 271.281L424.819 158.299L229.087 45.3164ZM268.773 120.941L242.67 105.88L268.773 90.8194L294.876 105.88L268.773 120.941ZM313.908 146.996L287.805 131.936L313.908 116.875L339.997 131.936L313.908 146.996Z" fill="#CEDFE2"/>
<path d="M424.818 233.615L229.087 346.597V271.281L424.818 158.298V233.615Z" fill="#4E9376"/>
<path d="M313.907 146.996L287.804 131.936V123.623L313.907 138.683V146.996Z" fill="#B0D1BF"/>
<path d="M339.998 131.936L313.908 146.996V138.683L339.998 123.623V131.936Z" fill="#4E9376"/>
<path d="M328.329 116.931H313.908L339.955 131.963L313.908 146.996H328.329L354.362 131.963L328.329 116.931Z" fill="url(#paint4_linear_198_4674)"/>
<path d="M287.804 123.623L313.907 138.683L339.997 123.623L313.907 108.548L287.804 123.623Z" fill="white"/>
<path d="M283.193 90.8753H268.772L294.82 105.908L268.772 120.94H283.193L309.241 105.908L283.193 90.8753Z" fill="url(#paint5_linear_198_4674)"/>
<path d="M268.772 120.955L242.683 105.88V97.5674L268.772 112.628V120.955Z" fill="#B0D1BF"/>
<path d="M294.875 105.88L268.772 120.955V112.628L294.875 97.5674V105.88Z" fill="#4E9376"/>
<path d="M242.683 97.5673L268.772 112.628L294.875 97.5673L268.772 82.5068L242.683 97.5673Z" fill="white"/>
<path d="M251.879 280.837L244.193 285.266V276.394L251.879 271.965V280.837Z" fill="#006550"/>
<path d="M274.558 267.746L266.872 272.175V263.303L274.558 258.875V267.746Z" fill="#006550"/>
<path d="M297.238 254.641L289.552 259.084V250.213L297.238 245.784V254.641Z" fill="#006550"/>
<path d="M319.916 241.565L312.231 245.994V237.122L319.916 232.693V241.565Z" fill="#006550"/>
<path d="M342.61 228.46L334.911 232.903V224.031L342.61 219.589V228.46Z" fill="#006550"/>
<path d="M365.29 215.369L357.591 219.812V210.941L365.29 206.498V215.369Z" fill="#006550"/>
<path d="M387.955 202.279L380.27 206.721V197.85L387.955 193.407V202.279Z" fill="#006550"/>
<path d="M410.648 189.188L402.949 193.631L402.963 184.759L410.648 180.317V189.188Z" fill="#006550"/>
<path d="M251.879 300.997L244.193 305.425V296.554L251.879 292.125V300.997Z" fill="#006550"/>
<path d="M274.558 287.906L266.872 292.335V283.463L274.558 279.035V287.906Z" fill="#006550"/>
<path d="M297.238 274.815L289.552 279.244V270.373L297.238 265.944V274.815Z" fill="#006550"/>
<path d="M319.916 261.725L312.231 266.154V257.282L319.916 252.853V261.725Z" fill="#006550"/>
<path d="M342.61 248.634L334.911 253.063V244.191L342.61 239.749V248.634Z" fill="#006550"/>
<path d="M365.29 235.529L357.591 239.972V231.1L365.29 226.658V235.529Z" fill="#006550"/>
<path d="M387.955 222.439L380.27 226.881V218.01L387.955 213.567V222.439Z" fill="#006550"/>
<path d="M410.648 209.348L402.949 213.791V204.919L410.648 200.477V209.348Z" fill="#006550"/>
<path d="M251.879 321.157L244.193 325.599V316.714L251.879 312.285V321.157Z" fill="#006550"/>
<path d="M274.558 308.066L266.872 312.509V303.623L274.558 299.195V308.066Z" fill="#006550"/>
<path d="M297.238 294.975L289.552 299.404V290.533L297.238 286.104V294.975Z" fill="#006550"/>
<path d="M319.916 281.885L312.231 286.313V277.442L319.916 273.013V281.885Z" fill="#006550"/>
<path d="M342.61 268.794L334.911 273.223V264.351L342.61 259.922V268.794Z" fill="#006550"/>
<path d="M365.29 255.703L357.591 260.132V251.261L365.29 246.818V255.703Z" fill="#006550"/>
<path d="M387.955 242.599L380.27 247.041V238.17L387.955 233.741V242.599Z" fill="#006550"/>
<path d="M410.648 229.508L402.963 233.951L402.949 225.079L410.648 220.636V229.508Z" fill="#006550"/>
<path d="M267.012 165.829L274.138 169.95L274.697 169.629V161.386L267.012 156.957V165.829Z" fill="#006550"/>
<path d="M244.318 152.738L252.018 157.167V148.295L244.318 143.853V152.738Z" fill="#006550"/>
<path d="M221.639 139.633L229.338 144.076L229.324 135.205L221.639 130.762V139.633Z" fill="#006550"/>
<path d="M198.974 126.543L206.659 130.986L206.645 122.114L198.974 117.671V126.543Z" fill="#006550"/>
<path d="M176.279 113.452L183.979 117.895L183.965 109.023L176.279 104.581V113.452Z" fill="#006550"/>
<path d="M244.318 172.898L252.018 177.327V168.455L244.318 164.013V172.898Z" fill="#006550"/>
<path d="M221.639 159.793L229.338 164.236V155.364L221.639 150.922V159.793Z" fill="#006550"/>
<path d="M198.974 146.717L206.659 151.145V142.274L198.974 137.831V146.717Z" fill="#006550"/>
<path d="M176.279 133.626L183.979 138.055V129.183L176.279 124.741V133.626Z" fill="#006550"/>
<path d="M246.904 185.668L244.318 184.187V187.162L246.904 185.668Z" fill="#006550"/>
<path d="M221.639 179.967L229.338 184.396V175.525L221.639 171.096V179.967Z" fill="#006550"/>
<path d="M198.974 166.863L206.659 171.305V162.434L198.974 158.005V166.863Z" fill="#006550"/>
<path d="M176.279 153.772L183.965 158.215L183.979 149.343L176.279 144.9V153.772Z" fill="#006550"/>
<path d="M97.8735 292.6V141.953L195.732 85.4686V236.116L97.8735 292.6Z" fill="#4E9376"/>
<path d="M424.819 158.298L294.331 158.298L163.843 233.615L229.087 271.281L424.819 158.298Z" fill="#CEDFE2"/>
<path d="M125.121 256.653L115.856 262.004V152.515L125.121 147.15V256.653Z" fill="#006550"/>
<path d="M152.482 240.866L143.204 246.217V136.714L152.482 131.363V240.866Z" fill="#006550"/>
<path d="M179.829 224.377L170.564 229.728V120.225L179.829 114.874V224.377Z" fill="#006550"/>
<path d="M229.087 346.597L163.843 308.932V233.615L229.087 271.281V346.597Z" fill="#B0D1BF"/>
<path d="M203.445 279.188L211.145 283.631V274.759L203.445 270.331V279.188Z" fill="#006550"/>
<path d="M180.766 266.098L188.466 270.54L188.452 261.669L180.766 257.226V266.098Z" fill="#006550"/>
<path d="M203.459 299.362L211.145 303.791V294.919L203.445 290.491L203.459 299.362Z" fill="#006550"/>
<path d="M180.766 286.271L188.466 290.7V281.829L180.766 277.4V286.271Z" fill="#006550"/>
<path d="M203.445 319.522L211.145 323.965V315.079L203.459 310.651L203.445 319.522Z" fill="#006550"/>
<path d="M180.766 306.431L188.466 310.86V301.989L180.766 297.546V306.431Z" fill="#006550"/>
<path d="M148.129 358H117.386V360.072H148.129V358Z" fill="url(#paint6_linear_198_4674)"/>
<path d="M117.298 360L116.092 359.299V345.732L117.298 346.427V360Z" fill="#0A6B60"/>
<path d="M117.298 360L118.504 359.299V345.732L117.298 346.427V360Z" fill="#004443"/>
<path d="M130.547 342.521L117.298 322.875C117.298 322.875 103.846 342.81 103.759 342.957C103.206 343.856 102.929 344.797 102.929 345.738C102.929 347.861 104.332 349.984 107.138 351.602C112.75 354.844 121.846 354.844 127.458 351.602C130.264 349.984 131.667 347.861 131.667 345.738C131.667 344.637 131.292 343.548 130.547 342.521Z" fill="url(#paint7_linear_198_4674)"/>
<path d="M128.91 334.571L117.298 317.357L105.692 334.571C105.039 335.47 104.707 336.43 104.707 337.383C104.707 339.241 105.938 341.105 108.393 342.521C113.316 345.363 121.286 345.363 126.203 342.521C128.658 341.099 129.895 339.241 129.895 337.383C129.889 336.43 129.563 335.47 128.91 334.571Z" fill="url(#paint8_linear_198_4674)"/>
<path d="M127.428 328.013C127.366 327.902 117.298 312.988 117.298 312.988C117.298 312.988 107.23 327.908 107.163 328.013C106.75 328.683 106.547 329.385 106.547 330.092C106.547 331.68 107.594 333.267 109.692 334.479C113.895 336.903 120.701 336.903 124.898 334.479C126.997 333.267 128.049 331.68 128.049 330.092C128.049 329.391 127.84 328.69 127.428 328.013Z" fill="url(#paint9_linear_198_4674)"/>
<path d="M309.241 158.298H294.331L192 217.367H309.241V158.298Z" fill="url(#paint10_linear_198_4674)"/>
<path d="M0 236.116V85.4686L97.8729 141.953V292.6L0 236.116Z" fill="#B0D1BF"/>
<path d="M179.424 76.0521L114.18 113.717L48.9364 76.0521L114.18 38.3868L97.8728 28.9704L0 85.4685L97.8728 141.952L195.732 85.4685L179.424 76.0521Z" fill="#CEDFE2"/>
<path d="M114.18 113.718H146.795L195.732 85.4686L179.424 76.0522L114.18 113.718Z" fill="#B0D1BF"/>
<path d="M114.18 113.717V76.0521L179.424 38.3867V76.0521L114.18 113.717Z" fill="#4E9376"/>
<path d="M113.318 0L178.561 37.6514L113.318 75.3167L48.0737 37.6514L113.318 0Z" fill="#CEDFE2"/>
<path d="M48.9365 76.0521V38.3867L114.18 76.0521V113.717L48.9365 76.0521Z" fill="#B0D1BF"/>
<path d="M70.6099 256.653L79.8885 262.004V152.515L70.6099 147.15V256.653Z" fill="#006550"/>
<path d="M43.2627 240.866L52.5275 246.217V136.714L43.2627 131.363V240.866Z" fill="#006550"/>
<path d="M15.9028 225.079L25.1816 230.43V120.926L15.9028 115.576V225.079Z" fill="#006550"/>
<path d="M52.5224 316.181H21.7515V318.255H52.5224V316.181Z" fill="url(#paint11_linear_198_4674)"/>
<path d="M20.2412 299.124L21.7513 299.996V318.255L20.2412 317.384V299.124Z" fill="#0A6B60"/>
<path d="M23.2558 299.124L21.7515 299.996V318.255L23.2558 317.384V299.124Z" fill="#004443"/>
<path d="M7.35205 290.624C7.35205 282.677 13.7969 276.228 21.746 276.228C29.6952 276.228 36.14 282.671 36.14 290.624C36.14 298.572 29.6952 305.015 21.746 305.015C13.8026 305.015 7.35205 298.572 7.35205 290.624Z" fill="url(#paint12_radial_198_4674)"/>
<path d="M469.49 139.732H438.719V141.806H469.49V139.732Z" fill="url(#paint13_linear_198_4674)"/>
<path d="M437.208 122.675L438.719 123.546V141.806L437.208 140.934V122.675Z" fill="#0A6B60"/>
<path d="M440.223 122.675L438.719 123.546V141.806L440.223 140.934V122.675Z" fill="#004443"/>
<path d="M424.319 114.175C424.319 106.227 430.764 99.7781 438.713 99.7781C446.663 99.7781 453.107 106.221 453.107 114.175C453.107 122.122 446.663 128.565 438.713 128.565C430.77 128.565 424.319 122.122 424.319 114.175Z" fill="url(#paint14_radial_198_4674)"/>
<defs>
<linearGradient id="paint0_linear_198_4674" x1="97.875" y1="228.822" x2="309.242" y2="228.822" gradientUnits="userSpaceOnUse">
<stop stop-color="#005F4F"/>
<stop offset="0.1707" stop-color="#337F72"/>
<stop offset="0.4755" stop-color="#8AB5AE" stop-opacity="0.24"/>
<stop offset="0.7248" stop-color="#C9DDDA" stop-opacity="0.05"/>
<stop offset="0.9058" stop-color="#F0F6F5" stop-opacity="0.08"/>
<stop offset="1" stop-color="white" stop-opacity="0"/>
</linearGradient>
<linearGradient id="paint1_linear_198_4674" x1="229.089" y1="233.601" x2="555.306" y2="233.601" gradientUnits="userSpaceOnUse">
<stop stop-color="#005F4F"/>
<stop offset="0.1707" stop-color="#337F72"/>
<stop offset="0.4755" stop-color="#8AB5AE" stop-opacity="0.24"/>
<stop offset="0.7248" stop-color="#C9DDDA" stop-opacity="0.05"/>
<stop offset="0.9058" stop-color="#F0F6F5" stop-opacity="0.08"/>
<stop offset="1" stop-color="white" stop-opacity="0"/>
</linearGradient>
<linearGradient id="paint2_linear_198_4674" x1="460.903" y1="301.157" x2="471.451" y2="301.157" gradientUnits="userSpaceOnUse">
<stop stop-color="#005F4F"/>
<stop offset="0.1707" stop-color="#337F72"/>
<stop offset="0.4755" stop-color="#8AB5AE" stop-opacity="0.24"/>
<stop offset="0.7248" stop-color="#C9DDDA" stop-opacity="0.05"/>
<stop offset="0.9058" stop-color="#F0F6F5" stop-opacity="0.08"/>
<stop offset="1" stop-color="white" stop-opacity="0"/>
</linearGradient>
<linearGradient id="paint3_linear_198_4674" x1="463.667" y1="298.25" x2="474.214" y2="298.25" gradientUnits="userSpaceOnUse">
<stop stop-color="#005F4F"/>
<stop offset="0.1707" stop-color="#337F72"/>
<stop offset="0.4755" stop-color="#8AB5AE" stop-opacity="0.24"/>
<stop offset="0.7248" stop-color="#C9DDDA" stop-opacity="0.05"/>
<stop offset="0.9058" stop-color="#F0F6F5" stop-opacity="0.08"/>
<stop offset="1" stop-color="white" stop-opacity="0"/>
</linearGradient>
<linearGradient id="paint4_linear_198_4674" x1="313.908" y1="131.961" x2="354.363" y2="131.961" gradientUnits="userSpaceOnUse">
<stop stop-color="#005F4F"/>
<stop offset="0.1707" stop-color="#337F72"/>
<stop offset="0.4755" stop-color="#8AB5AE" stop-opacity="0.24"/>
<stop offset="0.7248" stop-color="#C9DDDA" stop-opacity="0.05"/>
<stop offset="0.9058" stop-color="#F0F6F5" stop-opacity="0.08"/>
<stop offset="1" stop-color="white" stop-opacity="0"/>
</linearGradient>
<linearGradient id="paint5_linear_198_4674" x1="268.773" y1="105.906" x2="309.241" y2="105.906" gradientUnits="userSpaceOnUse">
<stop stop-color="#005F4F"/>
<stop offset="0.1707" stop-color="#337F72"/>
<stop offset="0.4755" stop-color="#8AB5AE" stop-opacity="0.24"/>
<stop offset="0.7248" stop-color="#C9DDDA" stop-opacity="0.05"/>
<stop offset="0.9058" stop-color="#F0F6F5" stop-opacity="0.08"/>
<stop offset="1" stop-color="white" stop-opacity="0"/>
</linearGradient>
<linearGradient id="paint6_linear_198_4674" x1="117.386" y1="359.036" x2="148.129" y2="359.036" gradientUnits="userSpaceOnUse">
<stop stop-color="#005F4F"/>
<stop offset="0.1707" stop-color="#337F72"/>
<stop offset="0.4755" stop-color="#8AB5AE" stop-opacity="0.24"/>
<stop offset="0.7248" stop-color="#C9DDDA" stop-opacity="0.05"/>
<stop offset="0.9058" stop-color="#F0F6F5" stop-opacity="0.08"/>
<stop offset="1" stop-color="white" stop-opacity="0"/>
</linearGradient>
<linearGradient id="paint7_linear_198_4674" x1="103.524" y1="348.117" x2="126.243" y2="334.998" gradientUnits="userSpaceOnUse">
<stop stop-color="#006550"/>
<stop offset="0.3716" stop-color="#00574B"/>
<stop offset="1" stop-color="#004443"/>
</linearGradient>
<linearGradient id="paint8_linear_198_4674" x1="105.229" y1="339.477" x2="125.139" y2="327.979" gradientUnits="userSpaceOnUse">
<stop stop-color="#006550"/>
<stop offset="1" stop-color="#004443"/>
</linearGradient>
<linearGradient id="paint9_linear_198_4674" x1="106.546" y1="324.644" x2="128.05" y2="324.644" gradientUnits="userSpaceOnUse">
<stop stop-color="#006550"/>
<stop offset="1" stop-color="#0A6B60"/>
</linearGradient>
<linearGradient id="paint10_linear_198_4674" x1="192.001" y1="187.829" x2="309.241" y2="187.829" gradientUnits="userSpaceOnUse">
<stop stop-color="#005F4F"/>
<stop offset="0.1707" stop-color="#337F72"/>
<stop offset="0.4755" stop-color="#8AB5AE" stop-opacity="0.24"/>
<stop offset="0.7248" stop-color="#C9DDDA" stop-opacity="0.05"/>
<stop offset="0.9058" stop-color="#F0F6F5" stop-opacity="0.08"/>
<stop offset="1" stop-color="white" stop-opacity="0"/>
</linearGradient>
<linearGradient id="paint11_linear_198_4674" x1="21.7517" y1="317.218" x2="52.5224" y2="317.218" gradientUnits="userSpaceOnUse">
<stop stop-color="#005F4F"/>
<stop offset="0.1707" stop-color="#337F72"/>
<stop offset="0.4755" stop-color="#8AB5AE" stop-opacity="0.24"/>
<stop offset="0.7248" stop-color="#C9DDDA" stop-opacity="0.05"/>
<stop offset="0.9058" stop-color="#F0F6F5" stop-opacity="0.08"/>
<stop offset="1" stop-color="white" stop-opacity="0"/>
</linearGradient>
<radialGradient id="paint12_radial_198_4674" cx="0" cy="0" r="1" gradientUnits="userSpaceOnUse" gradientTransform="translate(14.1201 285.11) scale(23.4395 23.4344)">
<stop stop-color="#006550"/>
<stop offset="1" stop-color="#0A6B60"/>
</radialGradient>
<linearGradient id="paint13_linear_198_4674" x1="438.719" y1="140.768" x2="469.49" y2="140.768" gradientUnits="userSpaceOnUse">
<stop stop-color="#005F4F"/>
<stop offset="0.1707" stop-color="#337F72"/>
<stop offset="0.4755" stop-color="#8AB5AE" stop-opacity="0.24"/>
<stop offset="0.7248" stop-color="#C9DDDA" stop-opacity="0.05"/>
<stop offset="0.9058" stop-color="#F0F6F5" stop-opacity="0.08"/>
<stop offset="1" stop-color="white" stop-opacity="0"/>
</linearGradient>
<radialGradient id="paint14_radial_198_4674" cx="0" cy="0" r="1" gradientUnits="userSpaceOnUse" gradientTransform="translate(431.087 108.661) scale(23.4395 23.4344)">
<stop stop-color="#006550"/>
<stop offset="1" stop-color="#0A6B60"/>
</radialGradient>
</defs>
</svg>
