<svg fill="none" version="1.1" viewBox="0 0 247 200" xmlns="http://www.w3.org/2000/svg" save-fill="">
 <g clip-path="url(#clip0_112_698)">
  <path d="m219 97c0.022 13.652-2.822 27.157-8.348 39.64-0.179 0.403-0.36 0.804-0.543 1.202-0.09 0.201-0.183 0.399-0.276 0.599-0.093 0.198-0.186 0.398-0.281 0.596-0.122 0.257-0.245 0.511-0.369 0.765-0.154 0.32-0.311 0.638-0.472 0.956-0.019 0.044-0.041 0.088-0.066 0.132-0.134 0.269-0.269 0.537-0.408 0.806-0.029 0.059-0.059 0.118-0.09 0.174-0.159 0.313-0.323 0.625-0.489 0.936v2e-3c-0.176 0.33-0.353 0.659-0.531 0.988-0.439 0.811-0.892 1.615-1.356 2.412-0.139 0.237-0.276 0.474-0.418 0.708-0.129 0.22-0.259 0.438-0.391 0.655-0.09 0.152-0.181 0.301-0.274 0.45-0.146 0.242-0.295 0.484-0.447 0.726-2e-3 2e-3 -2e-3 2e-3 -2e-3 5e-3 -0.335 0.537-0.677 1.073-1.022 1.603h-2e-3c-0.159 0.247-0.32 0.491-0.482 0.736v2e-3c-0.486 0.733-0.982 1.459-1.488 2.178v2e-3l-5e-3 2e-3v3e-3l-5e-3 5e-3c-0.401 0.574-0.81 1.144-1.227 1.708v2e-3c-0.266 0.362-0.535 0.724-0.806 1.081-0.222 0.293-0.447 0.585-0.675 0.877-0.046 0.064-0.095 0.125-0.146 0.188v3e-3c-0.061 0.08-0.122 0.159-0.188 0.239v3e-3c-0.966 1.234-1.96 2.444-2.984 3.629h-3e-3c-0.054 0.066-0.11 0.129-0.166 0.193-0.054 0.063-0.112 0.127-0.169 0.193h-2e-3c-0.086 0.1-0.174 0.2-0.262 0.301-0.085 0.1-0.176 0.2-0.266 0.3v3e-3c-5.337 6.022-11.395 11.365-18.036 15.909-0.885 0.609-1.781 1.201-2.688 1.777-0.225 0.144-0.45 0.286-0.677 0.428-0.069 0.046-0.137 0.088-0.205 0.129-0.12 0.076-0.242 0.152-0.365 0.228-0.119 0.073-0.241 0.149-0.364 0.222-0.486 0.298-0.977 0.591-1.468 0.88-0.123 0.073-0.247 0.144-0.372 0.217-0.122 0.071-0.247 0.142-0.371 0.213-2e-3 2e-3 -4e-3 5e-3 -7e-3 6e-3 -2e-3 2e-3 -5e-3 3e-3 -8e-3 4e-3l-5e-3 2e-3 -5e-3 5e-3h-2e-3c-0.616 0.354-1.234 0.704-1.86 1.041-1.119 0.611-2.25 1.2-3.392 1.767-0.284 0.142-0.57 0.281-0.856 0.42-0.237 0.115-0.476 0.23-0.713 0.342-0.066 0.032-0.13 0.064-0.196 0.093-0.198 0.093-0.396 0.186-0.594 0.276-0.215 0.103-0.432 0.201-0.647 0.299-0.242 0.11-0.482 0.217-0.724 0.325-0.909 0.405-1.828 0.796-2.749 1.173-3.291 1.347-6.655 2.511-10.076 3.485-0.159 0.046-0.32 0.093-0.481 0.137-1.464 0.41-2.939 0.786-4.424 1.126-2.593 0.597-5.21 1.086-7.85 1.469-5e-3 0-0.012 2e-3 -0.017 2e-3 -0.315 0.047-0.633 0.091-0.948 0.135-0.027 5e-3 -0.056 0.01-0.086 0.012-2e-3 3e-3 -4e-3 3e-3 -9e-3 0 0 0 0 3e-3 -3e-3 0-0.349 0.046-0.699 0.093-1.051 0.137-0.024 5e-3 -0.049 7e-3 -0.073 0.01-0.327 0.039-0.657 0.078-0.987 0.115-0.355 0.039-0.709 0.075-1.066 0.112-0.271 0.027-0.542 0.054-0.814 0.078-0.024 5e-3 -0.048 8e-3 -0.073 8e-3 -0.247 0.022-0.494 0.044-0.74 0.063-0.01 0-0.022 3e-3 -0.032 3e-3 -0.215 0.019-0.43 0.034-0.645 0.051-2.53 0.2-5.084 0.3-7.662 0.298-2.798 0-5.568-0.117-8.309-0.349-0.01 0-0.02-3e-3 -0.03-3e-3 -0.584-0.049-1.167-0.103-1.749-0.161-0.154-0.015-0.306-0.032-0.46-0.047-0.029-2e-3 -0.058-5e-3 -0.088-9e-3 -0.046-5e-3 -0.093-0.01-0.142-0.015-0.024-3e-3 -0.051-5e-3 -0.075-0.01-0.203-0.022-0.406-0.044-0.611-0.068-0.228-0.027-0.457-0.054-0.685-0.083-0.227-0.027-0.457-0.057-0.684-0.088-0.049-5e-3 -0.1-0.01-0.149-0.02-0.166-0.019-0.332-0.041-0.496-0.066-0.081-0.01-0.159-0.022-0.237-0.034-0.159-0.022-0.315-0.044-0.474-0.069-5e-3 0-0.012-2e-3 -0.017-2e-3 -4.991-0.721-9.9174-1.831-14.734-3.321h-0.0025c-0.2615-0.081-0.523-0.164-0.7845-0.247-0.0782-0.022-0.1564-0.047-0.2346-0.073-0.6794-0.218-1.3547-0.443-2.026-0.675-0.9262-0.318-1.8459-0.65-2.7591-0.997-0.2493-0.095-0.4961-0.191-0.7454-0.286-0.4961-0.195-0.9898-0.391-1.481-0.591-0.8383-0.343-1.6708-0.695-2.4977-1.059h-0.0024v-2e-3c-0.7723-0.34-1.5388-0.69-2.2997-1.051-0.0225-7e-3 -0.0439-0.016-0.0635-0.029-0.0025 0-0.0025-3e-3 -0.0049-3e-3 -0.1687-0.078-0.3373-0.159-0.5059-0.239l-0.0049-3e-3c-4.1919-2.009-8.2339-4.317-12.095-6.906-1.2391-0.829-2.4569-1.685-3.6536-2.569-0.9653-0.711-1.9168-1.44-2.8545-2.187-4.6705-3.712-8.9929-7.842-12.914-12.339h-0.0024v-3e-3c-0.2762-0.315-0.545-0.628-0.8187-0.945v-3e-3c-0.0391-0.044-0.0758-0.088-0.1124-0.132-0.1736-0.203-0.3422-0.403-0.5108-0.608v-3e-3c-0.2297-0.271-0.4546-0.543-0.6745-0.816-0.0489-0.059-0.0953-0.115-0.1418-0.173h-0.0024v-3e-3c-0.1809-0.22-0.3593-0.442-0.5352-0.665-0.0905-0.11-0.1784-0.222-0.2664-0.334h-0.0024v-3e-3c-0.5328-0.672-1.055-1.351-1.5666-2.036v-2e-3c-0.1417-0.188-0.281-0.376-0.4179-0.567h-0.0024c-0.655-0.885-1.2928-1.78-1.9136-2.686v-2e-3c-0.2346-0.34-0.4668-0.682-0.6965-1.027-0.2297-0.344-0.457-0.69-0.6818-1.036h-0.0025c-0.2322-0.357-0.4619-0.715-0.6892-1.075-0.0122-0.02-0.0244-0.037-0.0342-0.054-0.2248-0.354-0.4464-0.711-0.6647-1.071-0.176-0.285-0.3495-0.569-0.5181-0.855-0.1173-0.193-0.2322-0.384-0.3446-0.579-0.0416-0.066-0.0782-0.132-0.1149-0.196-0.259-0.442-0.5132-0.884-0.7673-1.329-0.2958-0.523-0.589-1.051-0.875-1.579-0.1173-0.217-0.2346-0.437-0.3494-0.657-0.0416-0.071-0.0782-0.142-0.1149-0.215-0.1368-0.259-0.2737-0.518-0.4081-0.78-0.1344-0.259-0.2688-0.52-0.4008-0.782-0.132-0.261-0.264-0.523-0.3935-0.787-0.0977-0.198-0.1955-0.398-0.2908-0.596-0.0099-0.017-0.0189-0.034-0.0269-0.051-0.044-0.093-0.0904-0.184-0.132-0.277-0.0097-0.014-0.0171-0.03-0.022-0.046-0.1002-0.205-0.1979-0.408-0.2932-0.613-0.1271-0.264-0.2493-0.531-0.3715-0.797-0.088-0.186-0.1711-0.374-0.2566-0.562-0.1222-0.264-0.2419-0.531-0.3592-0.799-0.1247-0.277-0.2444-0.555-0.3642-0.834-0.0318-0.071-0.0611-0.139-0.0904-0.21-0.0562-0.127-0.11-0.254-0.1638-0.381-0.1442-0.337-0.2859-0.68-0.4252-1.019-0.1589-0.384-0.3136-0.769-0.4643-1.154-0.1442-0.359-0.2844-0.719-0.4204-1.08l-0.0513-0.132v-2e-3c-2.1235-5.581-3.7302-11.345-4.7998-17.22v-3e-3c-0.6099-3.354-1.0439-6.737-1.3001-10.137-0.0147-0.186-0.0269-0.371-0.0391-0.557-0.1613-2.3-0.2404-4.6084-0.2371-6.926 0-1.0289 0.0163-2.0529 0.0489-3.072 0.6336-21.306 8.2287-41.818 21.624-58.399 0.589-0.7307 1.1885-1.4525 1.7987-2.1653 17.972-21.032 44.694-34.364 74.529-34.364 34.882 0 65.508 18.224 82.872 45.671 0.904 1.4224 1.77 2.8708 2.596 4.3453 8.242 14.647 12.559 31.176 12.532 47.983z" fill="#F2F2F2"/>
  <g fill="#fff">
   <path d="m196.86 36.431c-1.281 14.114-4.93 28.996-10.654 43.356-7.077 17.757-16.747 33.398-27.964 45.231l-0.623-0.542c11.163-11.776 20.789-27.348 27.837-45.032 6.37-15.981 10.158-32.611 10.961-48.086l0.796 0.1332c-0.085 1.6343-0.202 3.281-0.353 4.9401z"/>
   <path d="m201.96 118.4c-15.755 25.066-34.869 42.975-53.822 50.428l-0.384-0.703c18.822-7.402 37.824-25.219 53.507-50.17l0.699 0.445z"/>
   <path d="m196.48 54.003c-1.28 14.114-4.93 28.996-10.653 43.356-7.078 17.757-16.748 33.398-27.965 45.231l-0.622-0.543c11.162-11.776 20.788-27.348 27.836-45.032 6.37-15.981 10.159-32.611 10.962-48.086l0.795 0.1331c-0.084 1.6344-0.202 3.2811-0.353 4.9401z"/>
   <path d="m19.608 90.238h-10.337c-0.22085 5e-4 -0.43895-0.0491-0.63792-0.1449-0.19897-0.0959-0.37366-0.2355-0.51096-0.4085-0.13564-0.1686-0.23133-0.3657-0.2799-0.5765-0.04857-0.2109-0.04875-0.43-5.4e-4 -0.6409 0.98452-4.3441 0.92267-8.86-0.18045-13.176-0.06977-0.2842-0.0529-0.5827 0.04845-0.8572 0.10134-0.2744 0.28251-0.5123 0.5202-0.6829 5.3154-3.8229 9.5014-3.712 12.442 0.3303 0.1326 0.1842 0.2206 0.3967 0.2573 0.6207 0.7856 4.7233 0.8291 9.5403 0.1288 14.277-0.0486 0.3496-0.2223 0.6697-0.4889 0.9011-0.2665 0.2313-0.6079 0.3583-0.9608 0.3573z"/>
   <path d="m16.403 79.886h-3.556c-0.1966 0-0.3852-0.0781-0.5243-0.2172-0.139-0.139-0.2171-0.3276-0.2171-0.5242 0-0.1967 0.0781-0.3853 0.2171-0.5243 0.1391-0.1391 0.3277-0.2172 0.5243-0.2172h3.556c0.1964 4e-4 0.3846 0.0787 0.5233 0.2177s0.2166 0.3274 0.2166 0.5238c0 0.1963-0.0779 0.3847-0.2166 0.5237s-0.3269 0.2173-0.5233 0.2177z"/>
   <path d="m16.403 82.486h-3.556c-0.1966 0-0.3852-0.0781-0.5243-0.2171-0.139-0.1391-0.2171-0.3277-0.2171-0.5243s0.0781-0.3852 0.2171-0.5243c0.1391-0.139 0.3277-0.2171 0.5243-0.2171h3.556c0.1964 4e-4 0.3846 0.0787 0.5233 0.2177s0.2166 0.3273 0.2166 0.5237-0.0779 0.3847-0.2166 0.5237-0.3269 0.2173-0.5233 0.2177z"/>
   <path d="m16.403 85.086h-3.556c-0.1966 0-0.3852-0.0781-0.5243-0.2171-0.139-0.1391-0.2171-0.3276-0.2171-0.5243 0-0.1966 0.0781-0.3852 0.2171-0.5242 0.1391-0.1391 0.3277-0.2172 0.5243-0.2172h3.556c0.1964 4e-4 0.3846 0.0787 0.5233 0.2177s0.2166 0.3273 0.2166 0.5237-0.0779 0.3847-0.2166 0.5237-0.3269 0.2173-0.5233 0.2177z"/>
   <path d="m207.48 136.39h-10.338c-0.22 0-0.439-0.049-0.638-0.145s-0.373-0.235-0.51-0.408c-0.136-0.169-0.232-0.366-0.28-0.577-0.049-0.211-0.049-0.43-1e-3 -0.641 0.985-4.344 0.923-8.86-0.18-13.175-0.07-0.285-0.053-0.583 0.048-0.858 0.101-0.274 0.283-0.512 0.52-0.682 5.316-3.823 9.502-3.712 12.442 0.33 0.133 0.184 0.221 0.396 0.257 0.62 0.786 4.724 0.83 9.541 0.129 14.278-0.048 0.349-0.222 0.669-0.489 0.901-0.266 0.231-0.607 0.358-0.96 0.357z"/>
   <path d="m204.27 126.04h-3.556c-0.197 0-0.385-0.079-0.524-0.218-0.138-0.139-0.216-0.327-0.216-0.523 0-0.197 0.078-0.385 0.216-0.524 0.139-0.139 0.327-0.217 0.524-0.218h3.556c0.196 0 0.385 0.078 0.524 0.217s0.217 0.328 0.217 0.525c0 0.196-0.078 0.385-0.217 0.524s-0.328 0.217-0.524 0.217z"/>
   <path d="m204.27 128.64h-3.556c-0.197 0-0.385-0.078-0.524-0.217-0.138-0.139-0.216-0.328-0.216-0.524s0.078-0.385 0.216-0.524c0.139-0.139 0.327-0.217 0.524-0.218h3.556c0.196 0 0.385 0.079 0.524 0.218s0.217 0.327 0.217 0.524-0.078 0.385-0.217 0.524-0.328 0.217-0.524 0.217z"/>
   <path d="m204.27 131.24h-3.556c-0.197-1e-3 -0.385-0.079-0.524-0.218-0.138-0.139-0.216-0.328-0.216-0.524s0.078-0.385 0.216-0.524c0.139-0.139 0.327-0.217 0.524-0.217h3.556c0.196 0 0.385 0.078 0.524 0.217s0.217 0.327 0.217 0.524-0.078 0.385-0.217 0.524-0.328 0.218-0.524 0.218z"/>
   <path d="m246.59 199.61c0 0.051-0.01 0.102-0.029 0.149s-0.048 0.089-0.084 0.125-0.079 0.065-0.126 0.084-0.097 0.029-0.148 0.029h-245.82c-0.10258 0-0.20096-0.041-0.2735-0.113-0.072537-0.073-0.11329-0.171-0.11329-0.274 0-0.102 0.040755-0.201 0.11329-0.273 0.072536-0.073 0.17091-0.113 0.2735-0.113h245.82c0.051-1e-3 0.102 9e-3 0.149 0.029 0.047 0.019 0.089 0.048 0.125 0.084 0.036 0.035 0.065 0.078 0.084 0.125s0.029 0.098 0.029 0.148z"/>
   <path d="m64.845 175.93-0.6447-8.967c-4.2233-2.111-8.8981-3.159-13.618-3.054 6.6409 5.134 6.109 15.393 10.708 22.414 1.4513 2.179 3.3742 4.004 5.6264 5.338 2.2521 1.335 4.7758 2.146 7.3839 2.373l5.5268 3.179c0.6322-4.178 0.3511-8.444-0.8242-12.504-1.1752-4.059-3.2165-7.816-5.9833-11.01-1.5699-1.777-3.3574-3.349-5.3201-4.679-1.2081 3.468-2.8545 6.91-2.8545 6.91z"/>
   <path d="m181.75 177.23 0.645-8.968c4.223-2.111 8.898-3.159 13.618-3.054-6.64 5.134-6.109 15.393-10.708 22.415-1.451 2.178-3.374 4.003-5.626 5.337-2.252 1.335-4.776 2.146-7.384 2.373l-5.527 3.179c-0.632-4.178-0.351-8.444 0.824-12.504 1.176-4.059 3.217-7.816 5.984-11.01 1.57-1.777 3.357-3.349 5.32-4.679 1.208 3.468 2.854 6.911 2.854 6.911z"/>
  </g>
  <path d="m120.37 76.038c3.411 0 6.176-2.7649 6.176-6.1756 0-3.4106-2.765-6.1755-6.176-6.1755-3.41 0-6.175 2.7649-6.175 6.1755 0 3.4107 2.765 6.1756 6.175 6.1756z" fill="#006753"/>
  <path d="m123.54 67.289c-0.092-0.0887-0.216-0.1381-0.344-0.1381-0.129 0-0.252 0.0494-0.345 0.1381-1.31 1.0451-2.487 2.2472-3.504 3.5795-0.25-0.4832-0.5-0.9663-0.749-1.4494-0.289-0.5577-1.13-0.065-0.842 0.4921 0.365 0.7067 0.73 1.4133 1.095 2.12 0.044 0.0721 0.106 0.1317 0.18 0.1731s0.157 0.0631 0.241 0.0631c0.085 0 0.168-0.0217 0.242-0.0631 0.073-0.0414 0.135-0.101 0.179-0.1731 1.084-1.5265 2.379-2.891 3.847-4.0527 0.091-0.0918 0.142-0.2157 0.142-0.3448s-0.051-0.2529-0.142-0.3447z" fill="#fff"/>
  <path d="m92.738 87.375-9.3127-14.625 10.784-5.7752 2.8304 11.158 19.943 10.776c0.787-0.2834 1.64-0.3315 2.454-0.1386 0.814 0.193 1.555 0.6186 2.131 1.2251 0.577 0.6065 0.964 1.3677 1.116 2.1906 0.151 0.823 0.06 1.6722-0.263 2.4442-0.323 0.7719-0.864 1.4332-1.556 1.9032-0.692 0.4701-1.506 0.7286-2.343 0.7439-0.837 0.0154-1.66-0.213-2.369-0.6573s-1.273-1.0853-1.624-1.8449l-21.79-7.4005z" fill="#FFB8B8"/>
  <path d="m76.621 55.208c-2.9261 4.2961 7.4724 19.912 7.4724 19.912 0.5066-1.092 5.349 11.17 6.1601 10.446 2.3051-2.0586 5.9136-7.793 7.9194-8.0486 1.1471-0.1462-2.6603-8.2813-2.6603-8.2813s-1.7401-4.8038-4.1013-10.94c-0.6354-1.7473-1.7025-3.3053-3.102-4.5292s-3.0859-2.0737-4.9023-2.4705c0 0-3.86-0.3843-6.786 3.9118z" fill="#D5B26B"/>
  <path d="m76.764 195.18h4.4226l2.104-17.059h-6.5276l1e-3 17.059z" fill="#FFB8B8"/>
  <path d="m75.636 193.73h1.2449l4.8602-1.977 2.6049 1.977h4e-4c1.4721 0 2.8839 0.584 3.9248 1.625 1.041 1.041 1.6258 2.453 1.6259 3.925v0.181h-14.261l-3e-4 -5.731z" fill="#2F2E41"/>
  <path d="m97.311 195.18h4.4227l2.104-17.059h-6.5273l6e-4 17.059z" fill="#FFB8B8"/>
  <path d="m96.183 193.73h1.2449l4.86-1.977 2.605 1.977c1.473 0 2.884 0.584 3.925 1.625s1.626 2.453 1.626 3.925v0.181h-14.261l-3e-4 -5.731z" fill="#2F2E41"/>
  <path d="m99.226 101.91-28.768 0.719c-5.4636 2.968-5.5466 9.39-3.7564 17.016 0 0-0.6044 4.533 0.6043 5.741 1.2087 1.209 1.813 1.209 1.2087 3.324s2.5886 5.57 2.2008 5.958-1.2943 2.503-1.2943 2.503l3.0216 17.223s2.1152 29.915 2.7196 30.519c0.6043 0.605 1.2086 0 0.6043 1.511s-1.2087 0.907-0.6043 1.511c0.5353 0.577 1.0396 1.182 1.5108 1.813h7.3055s0.5508-3.022 0.5508-3.324 0.6044-2.115 0.6044-2.417-0.5342-0.837-0.5342-0.837c-0.1846-0.614-0.3093-1.245-0.3723-1.883 0-0.604-1.813-23.871-1.813-23.871l3.6259-30.217 8.7629 29.613s0 25.986 0.6043 26.59c0.6043 0.605 0.6043 0.303 0.3022 1.511-0.3022 1.209-1.5109 0.907-0.6044 1.813 0.9065 0.907 1.2087-0.604 0.9065 0.907l-0.3021 1.511 9.0652 0.129s1.208-2.547 0.604-3.453c-0.604-0.907-0.568-0.659 0.169-2.143 0.738-1.483 1.04-1.785 0.738-2.088-0.303-0.302-0.303-1.909-0.303-1.909l-1.51-28.912s-0.303-30.518-0.303-31.425c-0.022-0.466 0.064-0.932 0.251-1.359v-1.231l-1.157-4.36-4.0383-10.483z" fill="#2F2E41"/>
  <path d="m81.945 42.096c4.9364 0 8.9382-4.0017 8.9382-8.9382s-4.0018-8.9383-8.9382-8.9383c-4.9365 0-8.9383 4.0018-8.9383 8.9383s4.0018 8.9382 8.9383 8.9382z" fill="#FFB8B8"/>
  <path d="m86.414 48.004c1.9256 1.1448 3.0775 3.2482 3.7388 5.3886 1.2242 3.9627 1.9611 8.0597 2.1944 12.201l0.6984 12.397 8.6497 26.397c-7.4964 6.343-35.675 1.442-35.675 1.442s-0.865-0.288 0-1.153c0.8649-0.866 1.707-0.099 0.842-0.964-0.8649-0.865-0.2687 0.099 0.0197-0.766 0.2883-0.865 0-0.289-0.2883-0.577-0.2884-0.289 2.232-2.8835 2.232-2.8835l-2.3066-15.152-2.8833-30.563c3.46-4.325 10.418-6.8745 10.418-6.8745l1.798-3.2364 8.9899 0.7192 1.5718 3.6251z" fill="#D5B26B"/>
  <path d="m89.313 28.409c0.6947 0.5181 1.2093 1.2411 1.4715 2.0671 0.1008-1.3499 0.1072-2.7052 0.0192-4.056-0.1053-0.9492-0.7736-1.1627-1.5474-1.4101-0.6988-0.2235-1.4891-0.476-1.7018-1.3975-2.8097-2.7333-7.7007-2.5954-11.048-1.642-1.8418 0.5246-2.9016 1.1987-2.9965 1.5936l-0.0196 0.0813-0.0748 0.0374c-1.4198 0.7099-1.6962 2.9515-1.6779 4.707 0.0346 3.3075 1.1766 7.0639 1.8199 7.3691 0.0341 0.0161 0.0427 0.0098 0.0574-0.0025 0.9687-0.7741 2.1506 0.0588 2.67 0.5117 0.3063-2.0557 1.2927-3.9494 2.8015-5.3787s3.4531-2.3117 5.5223-2.5064c0.6758-0.0653 1.3462-0.1777 2.0063-0.3364 0.3348-0.0866 0.679-0.1318 1.0248-0.1345 0.5954-0.0091 1.1793 0.1643 1.6732 0.4969z" fill="#2F2E41"/>
  <path d="m144.8 109.04 17.194-17.46 4.53-13.964-7.29-2.9486c-3.611 3.6426-7.328 14.794-7.328 14.794l-11.736 15.75c-0.093 0.035-0.187 0.072-0.279 0.116-0.54 0.255-1.005 0.645-1.351 1.132-0.345 0.488-0.559 1.056-0.621 1.651-0.061 0.594 0.031 1.194 0.27 1.742 0.238 0.548 0.613 1.025 1.09 1.386 0.476 0.36 1.038 0.592 1.63 0.672s1.195 6e-3 1.75-0.215 1.044-0.581 1.419-1.046 0.624-1.019 0.722-1.609z" fill="#FFB8B8"/>
  <path d="m157.25 76.26 9.219 2.6669 0.034-0.0067c3.389-0.6579 6.069-6.2894 7.721-10.898 0.544-1.52 0.49-3.1896-0.151-4.6713-0.64-1.4818-1.819-2.665-3.299-3.3106-1.095-0.4689-2.298-0.6223-3.476-0.4428-1.177 0.1795-2.28 0.6847-3.185 1.4585l-4.597 3.958-2.266 11.246z" fill="#006753"/>
  <path d="m149.36 194.66h-4.958l-2.358-19.123h7.317l-1e-3 19.123z" fill="#FFB8B8"/>
  <path d="m150.62 193.04h-1.395l-5.449-2.216-2.92 2.215c-1.65 0-3.233 0.656-4.4 1.823s-1.822 2.749-1.822 4.399v0.203h15.986v-6.424z" fill="#2F2E41"/>
  <path d="m171.36 194.66h-4.958l-2.358-19.123h7.317l-1e-3 19.123z" fill="#FFB8B8"/>
  <path d="m172.62 193.04h-1.395l-5.448-2.216-2.921 2.215c-1.65 0-3.233 0.656-4.4 1.823s-1.822 2.749-1.822 4.399v0.203h15.986v-6.424z" fill="#2F2E41"/>
  <path d="m178.92 112.29s0.579 6.947-0.868 13.605-1.447 25.408-1.447 25.408l-3.184 36.537-9.553-0.869-2.605-61.076-9.263 20.552 0.869 2.894-1.157 0.724s0.867 5.645 0.288 5.645c-0.578 0-2.026 0.868-2.026 0.868l1.158 29.814-9.842-0.289-3.473-41.972 3.763-24.025 0.289-4.632 1.303 0.054 0.663-1.935 1.218-3.329 33.867 2.026z" fill="#2F2E41"/>
  <path d="m179.42 113.75 0.051-0.072c2.756-3.857-1.388-13.127-2.013-14.47l2.632-0.8542-0.593-5.0389-0.28-2.2464 2.011-2.012 6e-3 -0.0502 1.158-10.131 1.683-6.729c0.635-2.5439 0.581-5.2106-0.156-7.7267-0.737-2.516-2.13-4.7906-4.037-6.5903l-3.891-3.669-4.729-6.9975h-7.627l-2.614 4.9392c-2.536 0.586-4.785 2.0427-6.357 4.1165-1.571 2.0738-2.365 4.6333-2.244 7.2325l0.593 12.954-2.32 16.129-2e-3 2.9189-2.611 2.9017 0.57 2.8508-1.987 0.851-0.877 4.095c-0.363 0.479-2.76 3.675-2.76 4.548 0 0.131 0.097 0.258 0.305 0.399 1.633 1.106 10.661 3.361 14.656 1.762 4.256-1.702 21.174 0.851 21.345 0.877l0.088 0.013z" fill="#006753"/>
  <path d="m166.46 44.9c5.579 0 10.101-4.522 10.101-10.1 0-5.5781-4.522-10.1-10.101-10.1-5.578 0-10.1 4.522-10.1 10.1 0 5.5782 4.522 10.1 10.1 10.1z" fill="#FFB8B8"/>
  <path d="m165.49 45.064c1.564-0.016 3.124-0.1656 4.663-0.4471 1.523-0.3509 4.884-2.9498 5.8-4.4852 0.681-1.1407 1.089-2.9052 1.312-4.1845 0.301-1.693 0.243-3.4303-0.17-5.0995s-1.172-3.233-2.228-4.5901c-0.407-0.5685-0.961-1.0165-1.601-1.2965-0.057-0.0205-0.115-0.0384-0.174-0.0536-0.929-0.2189-1.771-0.7104-2.418-1.4114-0.126-0.1419-0.262-0.2746-0.407-0.397-0.726-0.5815-1.579-0.9829-2.491-1.1713-1.471-0.3535-3.577 0.0895-6.257 1.3177-1.347 0.6171-2.842 0.445-3.994 0.226-0.064-0.0107-0.131-0.0044-0.192 0.0184s-0.116 0.0613-0.158 0.1117c-0.475 0.4701-1.111 0.7429-1.78 0.7633-0.409 0.0286-0.824 0.6067-1.324 1.3594-0.113 0.1709-0.246 0.3703-0.342 0.492l-0.019-0.2285-0.225 0.2613c-0.354 0.4107-0.598 0.9043-0.71 1.4347-0.111 0.5305-0.087 1.0805 0.071 1.599 0.159 0.5184 0.445 0.9884 0.834 1.3662s0.867 0.651 1.39 0.7943c0.414 0.099 0.838 0.1553 1.264 0.1682 0.259 0.0165 0.526 0.0336 0.783 0.0714 0.824 0.1467 1.596 0.5048 2.241 1.0391 0.645 0.5344 1.14 1.2268 1.437 2.0097 0.071 0.1809 0.181 0.3433 0.324 0.4746s0.314 0.228 0.501 0.2826c0.186 0.0546 0.382 0.0658 0.573 0.0325 0.192-0.0333 0.372-0.11 0.529-0.2243 0.261-0.2142 0.57-0.3621 0.9-0.4311 0.331-0.069 0.673-0.0571 0.998 0.0347 0.282 0.1477 0.505 0.3879 0.631 0.6804 0.153 0.3257 0.399 0.5984 0.708 0.7835 1.051 0.5082 1.184 2.8767 0.862 4.8622-0.31 1.9139-0.984 3.31-1.64 3.3951-0.505 0.0654-0.562 0.1029-0.596 0.1933l-0.031 0.081 0.059 0.0735c0.282 0.0942 0.581 0.1263 0.877 0.0943z" fill="#2F2E41"/>
  <path d="m157.11 77.341-4.855-6.1859c-4.945 1.3618-13.719 9.183-13.719 9.183l-18.021 7.82c-0.601-0.101-1.219-0.0419-1.79 0.1715-0.571 0.2135-1.076 0.5736-1.464 1.0443-0.388 0.4706-0.645 1.0352-0.745 1.6367-0.101 0.6016-0.041 1.219 0.173 1.7901 0.214 0.571 0.575 1.0756 1.046 1.4629s1.036 0.6437 1.638 0.7433 1.219 0.039 1.79-0.1758 1.075-0.5762 1.461-1.0477l23.606-6.5857 10.88-9.8567z" fill="#FFB8B8"/>
  <path d="m155.95 78.755 7.66-8.5394 0.425-6.0508c0.079-1.1881-0.175-2.3748-0.735-3.4258s-1.403-1.9244-2.433-2.5217c-1.402-0.8002-3.055-1.0381-4.626-0.6658-1.571 0.3724-2.942 1.3273-3.835 2.6716-2.707 4.0794-5.619 9.5948-4.12 12.704l0.015 0.0315 7.649 5.7959z" fill="#006753"/>
  <path d="m85.346 110.85-19.91-10.197c-1.4161-0.7252-1.8852-2.649-1.0457-4.2883l12.982-25.347c0.8396-1.6394 2.6748-2.383 4.091-1.6577l19.909 10.197c1.416 0.7253 1.885 2.6491 1.046 4.2884l-12.982 25.347c-0.8396 1.639-2.6748 2.383-4.091 1.658z" fill="#fff"/>
  <path d="m81.944 106.16-13.527-6.9275c-1.3263-0.6792-1.7657-2.4809-0.9794-4.0162l10.785-21.058c0.7863-1.5353 2.5051-2.2317 3.8314-1.5524l16.338 8.3673c1.3264 0.6793 1.7659 2.4808 0.9793 4.0162l-5.8588 11.44c-3.5025 6.8388-5.6601 12.757-11.568 9.7308z" fill="#fff"/>
  <g fill="#006753">
   <path d="m88.632 94.664-11.981-6.1361c-0.1465-0.1044-0.2505-0.2579-0.2931-0.4327-0.0427-0.1748-0.021-0.359 0.061-0.5191s0.2188-0.2854 0.3856-0.3529c0.1667-0.0676 0.3521-0.0729 0.5224-0.015l11.981 6.136c0.1465 0.1044 0.2506 0.258 0.2932 0.4328 0.0426 0.1747 0.0209 0.359-0.061 0.5191-0.082 0.1601-0.2189 0.2854-0.3856 0.3529-0.1667 0.0676-0.3522 0.0729-0.5225 0.015z"/>
   <path d="m78.05 92.536-2.7342-1.4004c-0.1465-0.1044-0.2506-0.258-0.2932-0.4327-0.0426-0.1748-0.0209-0.359 0.0611-0.5191 0.082-0.1602 0.2188-0.2854 0.3855-0.353 0.1668-0.0675 0.3522-0.0729 0.5225-0.015l2.7343 1.4003c0.1464 0.1044 0.2505 0.258 0.2931 0.4328 0.0426 0.1747 0.021 0.359-0.061 0.5191s-0.2189 0.2854-0.3856 0.3529c-0.1667 0.0676-0.3522 0.0729-0.5225 0.0151z"/>
   <path d="m81.558 97.624-7.5769-3.8804c-0.1465-0.1044-0.2505-0.258-0.2931-0.4328s-0.021-0.359 0.061-0.5191 0.2189-0.2854 0.3856-0.353c0.1667-0.0675 0.3522-0.0728 0.5225-0.015l7.5768 3.8805c0.1465 0.1044 0.2506 0.258 0.2932 0.4327 0.0426 0.1748 0.0209 0.3591-0.0611 0.5192s-0.2188 0.2854-0.3855 0.3529c-0.1668 0.0676-0.3522 0.0729-0.5225 0.015z"/>
   <path d="m93.374 85.407-11.981-6.1361c-0.1465-0.1044-0.2505-0.258-0.2931-0.4327-0.0427-0.1748-0.021-0.3591 0.061-0.5192s0.2189-0.2853 0.3856-0.3529c0.1667-0.0675 0.3521-0.0729 0.5225-0.015l11.981 6.1361c0.1465 0.1044 0.2506 0.258 0.2932 0.4327 0.0426 0.1748 0.021 0.3591-0.061 0.5192s-0.2189 0.2853-0.3856 0.3529c-0.1667 0.0675-0.3522 0.0729-0.5225 0.015z"/>
   <path d="m82.791 83.279-2.7342-1.4003c-0.1465-0.1044-0.2506-0.258-0.2932-0.4328s-0.0209-0.359 0.0611-0.5191 0.2188-0.2854 0.3855-0.353c0.1668-0.0675 0.3522-0.0728 0.5225-0.015l2.7342 1.4004c0.1465 0.1043 0.2506 0.2579 0.2932 0.4327s0.0209 0.359-0.0611 0.5191-0.2188 0.2854-0.3855 0.353c-0.1667 0.0675-0.3522 0.0729-0.5225 0.015z"/>
   <path d="m86.299 88.366-7.5769-3.8804c-0.1465-0.1044-0.2505-0.258-0.2931-0.4328-0.0426-0.1747-0.021-0.359 0.061-0.5191s0.2189-0.2854 0.3856-0.3529c0.1667-0.0676 0.3522-0.0729 0.5225-0.015l7.5768 3.8804c0.1465 0.1044 0.2506 0.258 0.2932 0.4327 0.0426 0.1748 0.0209 0.3591-0.0611 0.5192s-0.2188 0.2854-0.3855 0.3529c-0.1667 0.0676-0.3522 0.0729-0.5225 0.015z"/>
  </g>
  <path d="m68.848 88.785-4.4979-16.745 12.02-2.2753-0.6464 11.494 15.793 16.261c0.836-0.0342 1.664 0.1756 2.3829 0.6039 0.7188 0.4282 1.2976 1.0564 1.6656 1.8078 0.3681 0.7511 0.5095 1.5941 0.4071 2.4241-0.1024 0.831-0.4442 1.613-0.9838 2.253-0.5395 0.64-1.2535 1.108-2.0549 1.349s-1.6555 0.243-2.4582 7e-3 -1.5194-0.701-2.0626-1.337c-0.5431-0.637-0.8894-1.418-0.9965-2.248l-18.567-13.594z" fill="#FFB8B8"/>
  <path d="m63.12 53.266c-4.0798 3.2208 1.1566 21.237 1.1566 21.237 0.8108-0.8897 1.7529 12.26 2.7439 11.812 2.8164-1.2725 7.9786-5.6608 9.9687-5.3031 1.1381 0.2046-0.0543-8.6979-0.0543-8.6979s-0.2193-5.1045-0.6315-11.667c-0.0821-1.8573-0.6328-3.6637-1.6009-5.2509-0.968-1.5873-2.3219-2.9038-3.9356-3.8271 0 0-3.5671-1.5242-7.6469 1.6966z" fill="#D5B26B"/>
  <g fill="#fff">
   <path d="m131 125.95-10.865-5.131c-0.232-0.109-0.437-0.269-0.598-0.468-0.162-0.2-0.276-0.433-0.334-0.683-0.059-0.245-0.062-0.499-8e-3 -0.745 0.053-0.246 0.162-0.476 0.317-0.674 3.147-4.022 5.308-8.726 6.31-13.734 0.075-0.383 0.282-0.729 0.584-0.977 0.301-0.248 0.68-0.384 1.071-0.385 5.541 0.019 9.682 2.042 12.308 6.013 0.139 0.207 0.23 0.441 0.269 0.686 0.039 0.246 0.023 0.497-0.045 0.736-1.521 5.241-3.834 10.218-6.861 14.759-0.224 0.343-0.566 0.593-0.961 0.704s-0.817 0.075-1.187-0.101z"/>
   <path d="m134.2 118.76-8.307-3.923c-0.207-0.097-0.366-0.273-0.443-0.488-0.078-0.215-0.066-0.452 0.032-0.659 0.097-0.206 0.273-0.366 0.488-0.443s0.452-0.066 0.659 0.032l8.307 3.923c0.102 0.048 0.194 0.116 0.27 0.2s0.135 0.182 0.173 0.288c0.038 0.107 0.055 0.22 0.05 0.333-6e-3 0.113-0.033 0.224-0.082 0.326-0.048 0.102-0.116 0.194-0.2 0.27s-0.182 0.135-0.288 0.173c-0.107 0.038-0.22 0.055-0.333 0.05-0.113-6e-3 -0.224-0.034-0.326-0.082z"/>
   <path d="m135.49 116.02-8.308-3.922c-0.206-0.098-0.366-0.274-0.443-0.489s-0.066-0.452 0.032-0.659c0.098-0.206 0.273-0.366 0.488-0.443 0.216-0.077 0.453-0.065 0.659 0.032l8.307 3.923c0.207 0.097 0.367 0.273 0.444 0.488s0.065 0.452-0.032 0.659c-0.098 0.207-0.274 0.366-0.489 0.443s-0.452 0.066-0.658-0.032z"/>
   <path d="m124.39 30.233-0.773 0.0847c-3.448-13.549-10.131-22.935-19.327-27.145-11.69-5.351-26.146-1.7577-40.705 10.118-14.632 11.936-27.586 30.791-36.474 53.091l-0.7504-0.3434c8.9272-22.398 21.947-41.343 36.662-53.346 14.788-12.064 29.539-15.683 41.536-10.192 9.46 4.3301 16.318 13.92 19.832 27.732z"/>
   <path d="m39.079 47.878c-2.0223 4.2601-3.9457 8.6735-5.7171 13.118-10.193 25.574-15.358 51.692-14.936 75.532l-0.7967-0.085c-0.4225-23.929 4.7578-50.137 14.983-75.791 1.7765-4.4566 3.7054-8.8825 5.7334-13.155l0.734 0.3804z"/>
   <path d="m38.697 65.45c-2.0222 4.26-3.9457 8.6735-5.717 13.118-10.193 25.574-15.359 51.692-14.936 75.532l-0.7966-0.085c-0.4226-23.928 4.7578-50.136 14.983-75.79 1.7764-4.4567 3.7053-8.8826 5.7334-13.155l0.7339 0.3804z"/>
   <path d="m17.285 71.841c0.8806-1.3237 0.3594-3.2185-1.1643-4.2322-1.5236-1.0137-3.4727-0.7624-4.3533 0.5613-0.8807 1.3237-0.3594 3.2185 1.1642 4.2322 1.5237 1.0137 3.4727 0.7624 4.3534-0.5613z"/>
   <path d="m204.81 119.64c0.88-1.323 0.359-3.218-1.164-4.232-1.524-1.014-3.473-0.762-4.354 0.561-0.88 1.324-0.359 3.219 1.164 4.233 1.524 1.013 3.473 0.762 4.354-0.562z"/>
  </g>
 </g>
 <defs>
  <clipPath id="clip0_112_698">
   <rect width="246.59" height="200" fill="#fff"/>
  </clipPath>
 </defs>
</svg>
