<svg fill="none" version="1.1" viewBox="0 0 234 146" xmlns="http://www.w3.org/2000/svg">
 <path d="m130.36 69.717h-88.626v53.477h88.626v-53.477z" fill="url(#paint0_linear_18_951)" opacity=".4"/>
 <path d="m151.46 51.089h-54.713l82.07 47.373-82.07 47.373h54.713l82.07-47.373-82.07-47.373z" fill="url(#paint1_linear_18_951)" opacity=".4"/>
 <path d="m124.11 98.462-54.714-31.58v-31.586l54.714 31.586v31.58z" fill="#B0D1BF"/>
 <path d="m96.75 19.508-27.357 15.793 54.714 31.58-54.714 31.58 27.357 15.793 82.07-47.373-82.07-47.373zm16.64 31.709-10.945-6.3149 10.945-6.3149 10.945 6.3149-10.945 6.3149zm18.925 10.925-10.945-6.3148 10.945-6.3149 10.94 6.3149-10.94 6.3148z" fill="#CEDFE2"/>
 <path d="m178.82 98.462-82.07 47.373v-31.58l82.07-47.374v31.58z" fill="#4E9376"/>
 <path d="m132.32 62.142-10.945-6.3149v-3.4854l10.945 6.3148v3.4855z" fill="#B0D1BF"/>
 <path d="m143.26 55.828-10.94 6.3149v-3.4855l10.94-6.3148v3.4854z" fill="#4E9376"/>
 <path d="m138.36 49.536h-6.047l10.922 6.3031-10.922 6.3032h6.047l10.916-6.3032-10.916-6.3031z" fill="url(#paint2_linear_18_951)"/>
 <path d="m121.37 52.342 10.945 6.3149 10.94-6.3149-10.94-6.3207-10.945 6.3207z" fill="#fff"/>
 <path d="m119.44 38.611h-6.047l10.922 6.3032-10.922 6.3031h6.047l10.921-6.3031-10.921-6.3032z" fill="url(#paint3_linear_18_951)"/>
 <path d="m113.39 51.223-10.939-6.3207v-3.4855l10.939 6.3149v3.4913z" fill="#B0D1BF"/>
 <path d="m124.34 44.903-10.945 6.3207v-3.4913l10.945-6.3149v3.4855z" fill="#4E9376"/>
 <path d="m102.45 41.417 10.939 6.3149 10.945-6.3149-10.945-6.3148-10.939 6.3148z" fill="#fff"/>
 <g fill="#006550">
  <path d="m106.31 118.26-3.223 1.857v-3.72l3.223-1.857v3.72z"/>
  <path d="m115.82 112.77-3.223 1.857v-3.72l3.223-1.857v3.72z"/>
  <path d="m125.32 107.28-3.222 1.863v-3.72l3.222-1.857v3.714z"/>
  <path d="m134.84 101.8-3.223 1.857v-3.7198l3.223-1.857v3.7198z"/>
  <path d="m144.35 96.3-3.228 1.8628v-3.7198l3.228-1.8628v3.7198z"/>
  <path d="m153.86 90.811-3.229 1.8628v-3.7197l3.229-1.8628v3.7197z"/>
  <path d="m163.36 85.322-3.222 1.8629v-3.7198l3.222-1.8628v3.7197z"/>
  <path d="m172.88 79.834-3.229 1.8628 6e-3 -3.7198 3.223-1.8628v3.7198z"/>
  <path d="m106.31 126.72-3.223 1.857v-3.72l3.223-1.857v3.72z"/>
  <path d="m115.82 121.23-3.223 1.857v-3.72l3.223-1.857v3.72z"/>
  <path d="m125.32 115.74-3.222 1.857v-3.72l3.222-1.857v3.72z"/>
  <path d="m134.84 110.25-3.223 1.857v-3.72l3.223-1.857v3.72z"/>
  <path d="m144.35 104.76-3.228 1.857v-3.72l3.228-1.863v3.726z"/>
  <path d="m153.86 99.264-3.229 1.8627v-3.7197l3.229-1.8628v3.7198z"/>
  <path d="m163.36 93.775-3.222 1.8628v-3.7198l3.222-1.8628v3.7198z"/>
  <path d="m172.88 88.286-3.229 1.8629v-3.7199l3.229-1.8628v3.7198z"/>
  <path d="m106.31 135.17-3.223 1.862v-3.725l3.223-1.857v3.72z"/>
  <path d="m115.82 129.68-3.223 1.863v-3.726l3.223-1.857v3.72z"/>
  <path d="m125.32 124.19-3.222 1.857v-3.72l3.222-1.857v3.72z"/>
  <path d="m134.84 118.7-3.223 1.857v-3.72l3.223-1.857v3.72z"/>
  <path d="m144.35 113.21-3.228 1.857v-3.72l3.228-1.857v3.72z"/>
  <path d="m153.86 107.72-3.229 1.857v-3.72l3.229-1.862v3.725z"/>
  <path d="m163.36 102.23-3.222 1.863v-3.72l3.222-1.8565v3.7135z"/>
  <path d="m172.88 96.74-3.223 1.8628-6e-3 -3.7198 3.229-1.8628v3.7198z"/>
  <path d="m112.65 70.039 2.988 1.7281 0.235-0.1347v-3.4562l-3.223-1.8569v3.7197z"/>
  <path d="m103.14 64.55 3.228 1.8569v-3.7198l-3.228-1.8628v3.7257z"/>
  <path d="m93.627 59.055 3.2285 1.8629-0.0059-3.7198-3.2226-1.8629v3.7198z"/>
  <path d="m84.123 53.566 3.2225 1.8629-0.0059-3.7199-3.2166-1.8629v3.7199z"/>
  <path d="m74.608 48.078 3.2284 1.8628-0.0059-3.7197-3.2225-1.8628v3.7197z"/>
  <path d="m103.14 73.003 3.228 1.857v-3.7198l-3.228-1.8628v3.7256z"/>
  <path d="m93.627 67.508 3.2285 1.8628v-3.7199l-3.2285-1.8628v3.7199z"/>
  <path d="m84.123 62.025 3.2225 1.857v-3.7199l-3.2225-1.8628v3.7257z"/>
  <path d="m74.608 56.536 3.2284 1.857v-3.7198l-3.2284-1.8628v3.7256z"/>
  <path d="m104.22 78.357-1.084-0.6209v1.2477l1.084-0.6268z"/>
  <path d="m93.627 75.967 3.2285 1.857v-3.7198l-3.2285-1.857v3.7198z"/>
  <path d="m84.123 70.472 3.2225 1.8628v-3.7198l-3.2225-1.8569v3.7139z"/>
  <path d="m74.608 64.984 3.2225 1.8628 0.0059-3.7198-3.2284-1.8628v3.7198z"/>
 </g>
 <path d="m41.732 123.19v-63.166l41.032-23.684v63.166l-41.032 23.684z" fill="#4E9376"/>
 <path d="m178.82 66.882h-54.713l-54.714 31.58 27.357 15.793 82.07-47.373z" fill="#CEDFE2"/>
 <g fill="#006550">
  <path d="m53.158 108.12-3.8848 2.244v-45.909l3.8848-2.2494v45.914z"/>
  <path d="m64.63 101.5-3.8905 2.244v-45.915l3.8905-2.2436v45.914z"/>
  <path d="m76.096 94.588-3.8846 2.2436v-45.915l3.8846-2.2437v45.915z"/>
 </g>
 <path d="m96.75 145.84-27.357-15.793v-31.58l27.357 15.793v31.58z" fill="#B0D1BF"/>
 <g fill="#006550">
  <path d="m85.998 117.57 3.2285 1.863v-3.72l-3.2285-1.857v3.714z"/>
  <path d="m76.489 112.08 3.2284 1.862-0.0058-3.719-3.2226-1.863v3.72z"/>
  <path d="m86.004 126.03 3.2226 1.857v-3.72l-3.2285-1.857 0.0059 3.72z"/>
  <path d="m76.489 120.54 3.2284 1.857v-3.72l-3.2284-1.856v3.719z"/>
  <path d="m85.998 134.48 3.2285 1.863v-3.726l-3.2226-1.856-0.0059 3.719z"/>
  <path d="m76.489 128.99 3.2284 1.857v-3.719l-3.2284-1.863v3.725z"/>
 </g>
 <path d="m130.36 66.882h-6.252l-42.907 24.767h49.159v-24.767z" fill="url(#paint4_linear_18_951)"/>
 <path d="m0.6944 99.51v-63.166l41.038 23.684v63.166l-41.038-23.684z" fill="#B0D1BF"/>
 <path d="m75.927 32.396-27.357 15.793-27.357-15.793 27.357-15.793-6.8377-3.9482-41.038 23.69 41.038 23.684 41.032-23.684-6.8377-3.9483z" fill="#CEDFE2"/>
 <path d="m48.57 48.189h13.675l20.519-11.845-6.8377-3.9482-27.357 15.793z" fill="#B0D1BF"/>
 <path d="m48.57 48.189v-15.793l27.357-15.793v15.793l-27.357 15.793z" fill="#4E9376"/>
 <path d="m48.208 0.50732 27.357 15.787-27.357 15.793-27.357-15.793 27.357-15.787z" fill="#CEDFE2"/>
 <path d="m21.213 32.396v-15.793l27.357 15.793v15.793l-27.357-15.793z" fill="#B0D1BF"/>
 <g fill="#006550">
  <path d="m30.301 108.12 3.8905 2.244v-45.909l-3.8905-2.2494v45.914z"/>
  <path d="m18.835 101.5 3.8847 2.244v-45.915l-3.8847-2.2436v45.914z"/>
  <path d="m7.3621 94.882 3.8906 2.2436v-45.915l-3.8906-2.2436v45.915z"/>
 </g>
 <defs>
  <linearGradient id="paint0_linear_18_951" x1="41.731" x2="130.36" y1="96.456" y2="96.456" gradientUnits="userSpaceOnUse">
   <stop stop-color="#007A5D" offset="0"/>
   <stop stop-color="#49A08C" offset=".2148"/>
   <stop stop-color="#8AC2B5" offset=".426"/>
   <stop stop-color="#BCDCD5" offset=".6159"/>
   <stop stop-color="#E1EFEC" offset=".7809"/>
   <stop stop-color="#F7FBFA" offset=".9145"/>
   <stop stop-color="#fff" offset="1"/>
  </linearGradient>
  <linearGradient id="paint1_linear_18_951" x1="96.751" x2="233.53" y1="98.456" y2="98.456" gradientUnits="userSpaceOnUse">
   <stop stop-color="#005F4F" offset="0"/>
   <stop stop-color="#337F72" offset=".1707"/>
   <stop stop-color="#8AB5AE" stop-opacity=".24" offset=".4755"/>
   <stop stop-color="#C9DDDA" stop-opacity=".05" offset=".7248"/>
   <stop stop-color="#F0F6F5" stop-opacity=".08" offset=".9058"/>
   <stop stop-color="#fff" stop-opacity="0" offset="1"/>
  </linearGradient>
  <linearGradient id="paint2_linear_18_951" x1="132.32" x2="149.28" y1="55.838" y2="55.838" gradientUnits="userSpaceOnUse">
   <stop stop-color="#005F4F" offset="0"/>
   <stop stop-color="#337F72" offset=".1707"/>
   <stop stop-color="#8AB5AE" stop-opacity=".24" offset=".4755"/>
   <stop stop-color="#C9DDDA" stop-opacity=".05" offset=".7248"/>
   <stop stop-color="#F0F6F5" stop-opacity=".08" offset=".9058"/>
   <stop stop-color="#fff" stop-opacity="0" offset="1"/>
  </linearGradient>
  <linearGradient id="paint3_linear_18_951" x1="113.39" x2="130.36" y1="44.913" y2="44.913" gradientUnits="userSpaceOnUse">
   <stop stop-color="#005F4F" offset="0"/>
   <stop stop-color="#337F72" offset=".1707"/>
   <stop stop-color="#8AB5AE" stop-opacity=".24" offset=".4755"/>
   <stop stop-color="#C9DDDA" stop-opacity=".05" offset=".7248"/>
   <stop stop-color="#F0F6F5" stop-opacity=".08" offset=".9058"/>
   <stop stop-color="#fff" stop-opacity="0" offset="1"/>
  </linearGradient>
  <linearGradient id="paint4_linear_18_951" x1="81.2" x2="130.36" y1="79.264" y2="79.264" gradientUnits="userSpaceOnUse">
   <stop stop-color="#005F4F" offset="0"/>
   <stop stop-color="#337F72" offset=".1707"/>
   <stop stop-color="#8AB5AE" stop-opacity=".24" offset=".4755"/>
   <stop stop-color="#C9DDDA" stop-opacity=".05" offset=".7248"/>
   <stop stop-color="#F0F6F5" stop-opacity=".08" offset=".9058"/>
   <stop stop-color="#fff" stop-opacity="0" offset="1"/>
  </linearGradient>
 </defs>
</svg>
