<svg fill="none" save-fill="" version="1.1" viewBox="0 0 232 200" xmlns="http://www.w3.org/2000/svg">
 <g clip-path="url(#clip0_112_47)">
  <g fill="#F2F2F2">
   <path d="m182.56 16.516c-0.259-0.1731-0.522-0.3373-0.782-0.5045-7.511-4.802-15.561-8.7031-23.984-11.623l-1.954 26.935h-12.382v-30.867c-0.779-0.16122-1.564-0.31348-2.35-0.45678v31.324h-14.714c-8.101 0-15.869-3.2168-21.597-8.9428-5.7281-5.7261-8.946-13.492-8.946-21.59v-3e-5c-0.7884 0.17018-1.5708 0.35229-2.3533 0.54635v29.987h-11.985l-1.8606-25.685c-8.6564 3.3188-16.874 7.6831-24.471 12.996-0.1314 0.0895-0.2628 0.1821-0.3913 0.2716-0.66 0.4628-1.311 0.9345-1.9591 1.4122v102.76h35.321l-0.6242-8.643-3.4344-47.455h69.164l-3.434 47.455-0.624 8.643h34.929v-105.52c-0.519-0.3523-1.042-0.6986-1.568-1.039zm-89.062 42.627h-9.9718l-1.8427-25.467h11.814v25.467zm47.61 0h-16.748v-0.5046c0-0.2425-0.048-0.4827-0.141-0.7067-0.093-0.2241-0.229-0.4276-0.401-0.599-0.171-0.1714-0.375-0.3072-0.599-0.3998-0.225-0.0925-0.465-0.1399-0.708-0.1395h-7.281c-0.242-1e-4 -0.482 0.0475-0.706 0.1402s-0.428 0.2286-0.599 0.4c-0.171 0.1713-0.307 0.3747-0.4 0.5986s-0.14 0.4639-0.14 0.7062v0.5046h-17.534v-25.467h45.257v25.467zm2.35 0v-25.467h12.212l-1.842 25.467h-10.37z"/>
   <path d="m220.92 186.76 0.233-5.247c2.434-1.3 5.148-1.987 7.908-2.001-3.798 3.104-3.324 9.087-5.898 13.261-0.813 1.296-1.908 2.392-3.202 3.208-1.295 0.815-2.756 1.329-4.276 1.503l-3.178 1.945c-0.436-2.43-0.34-4.926 0.282-7.316 0.621-2.389 1.754-4.616 3.319-6.526 0.889-1.062 1.908-2.009 3.034-2.817 0.761 2.006 1.778 3.99 1.778 3.99z"/>
   <path d="m50.411 181.01-7.6694-2.321c-1.0058-4.085-0.999-8.354 0.0201-12.436 3.1583 6.78 12.182 8.332 17.383 13.708 1.6093 1.69 2.8177 3.719 3.5357 5.939 0.7179 2.219 0.9271 4.572 0.6119 6.883l1.6787 5.428c-3.7571-0.271-7.4107-1.353-10.709-3.172-3.2985-1.818-6.1634-4.33-8.3973-7.362-1.2363-1.714-2.2519-3.576-3.0228-5.543 3.2528-0.369 6.569-1.124 6.569-1.124z"/>
  </g>
  <path d="m214.96 198.57c-1e-3 0.159-0.065 0.311-0.177 0.424-0.055 0.056-0.121 0.099-0.193 0.129s-0.149 0.045-0.228 0.045h-2.401c-0.078 0-0.156-0.015-0.229-0.045-0.072-0.03-0.138-0.074-0.194-0.13-0.055-0.055-0.099-0.121-0.129-0.194-0.03-0.072-0.045-0.15-0.045-0.229v-72.59c0-1.6-0.538-2.899-1.198-2.902h-179.93c-0.6629 3e-3 -1.1975 1.302-1.2005 2.902v72.146c-5e-4 0.148-0.0561 0.291-0.1559 0.401-0.0999 0.109-0.237 0.178-0.3847 0.193-0.4838 0.047-0.9676 0.089-1.4484 0.128-0.012 0-0.0239 3e-3 -0.0358 3e-3 -0.2629 0.024-0.5257 0.042-0.7885 0.063h-3e-3c-0.1373-0.248-0.2687-0.502-0.4031-0.756-0.0431-0.086-0.0656-0.181-0.0657-0.277v-75.665c0-0.442 0.0179-0.887 0.0477-1.326 0.0427-0.603 0.1174-1.203 0.224-1.797 0.5047-2.774 1.6456-4.652 2.9417-4.658h182.47c0.189 2e-3 0.376 0.041 0.549 0.117 0.255 0.112 0.485 0.274 0.678 0.474 0.262 0.273 0.486 0.579 0.666 0.911 0.639 1.126 1.096 2.803 1.257 4.756 0 0.018 3e-3 0.036 3e-3 0.054 0.042 0.483 0.063 0.976 0.06 1.469l0.042 6.398 0.027 3.815 0.08 11.972 0.03 4.251 0.132 49.918z" fill="#E6E6E6"/>
  <path d="m230.84 199.91-82.352 0.092c-0.094 0-0.184-0.038-0.251-0.104-0.066-0.067-0.104-0.157-0.104-0.252 0-0.094 0.038-0.184 0.104-0.251 0.067-0.066 0.157-0.104 0.251-0.104l82.352-0.092c0.094 1e-3 0.184 0.038 0.251 0.105 0.066 0.066 0.104 0.157 0.104 0.251s-0.038 0.184-0.104 0.251c-0.067 0.066-0.157 0.104-0.251 0.104z" fill="#CACACA"/>
  <path d="m128.62 93.226h-14.585c-0.207 4e-4 -0.404 0.0826-0.55 0.2286-0.146 0.1461-0.228 0.344-0.227 0.5502v23.034h16.141v-23.034c0-0.1023-0.02-0.2036-0.059-0.2981s-0.097-0.1804-0.169-0.2527-0.158-0.1297-0.253-0.1688c-0.094-0.0391-0.196-0.0592-0.298-0.0592zm-7.244 13.088c-0.456-2e-3 -0.893-0.185-1.215-0.507-0.323-0.322-0.505-0.759-0.507-1.215v-2.657c0-0.456 0.182-0.894 0.505-1.217s0.761-0.504 1.217-0.504c0.457 0 0.895 0.181 1.218 0.504s0.505 0.761 0.505 1.217v2.657c-2e-3 0.456-0.185 0.893-0.507 1.215-0.323 0.322-0.759 0.505-1.216 0.507z" fill="#2F2E41"/>
  <path d="m152.77 57.28h-62.347c-0.5357 8e-4 -1.0491 0.2139-1.4279 0.5926-0.3788 0.3786-0.592 0.8919-0.5928 1.4274v42.059c5e-4 0.536 0.2136 1.049 0.5924 1.428 0.3789 0.378 0.8925 0.591 1.4283 0.592h62.347c0.536-1e-3 1.05-0.214 1.429-0.592 0.378-0.379 0.591-0.892 0.592-1.428v-42.059c-1e-3 -0.5355-0.214-1.0488-0.593-1.4274-0.379-0.3787-0.892-0.5918-1.428-0.5926z" fill="#D5B26B"/>
  <path d="m152.25 58.739h-61.306c-0.2868 6e-4 -0.5617 0.115-0.7643 0.3179-0.2025 0.203-0.3163 0.478-0.3164 0.7647v41.016c5e-4 0.286 0.1145 0.561 0.3171 0.763 0.2025 0.203 0.4771 0.317 0.7636 0.317h61.306c0.286 0 0.561-0.114 0.763-0.317 0.203-0.202 0.317-0.477 0.317-0.763v-41.016c0-0.2867-0.113-0.5617-0.316-0.7647-0.203-0.2029-0.477-0.3173-0.764-0.3179z" fill="#fff"/>
  <path d="m113.21 116.3v2.222c0 0.115 0.046 0.226 0.127 0.307 0.082 0.081 0.192 0.127 0.307 0.127h15.373c0.115 0 0.225-0.046 0.306-0.127 0.082-0.082 0.128-0.192 0.128-0.307v-2.222h-16.241z" fill="#D5B26B"/>
  <path d="m140.31 119.73h-36.474c-0.1 0-0.198-0.023-0.289-0.065-0.09-0.043-0.169-0.106-0.232-0.183-0.063-0.078-0.108-0.168-0.131-0.265-0.024-0.097-0.025-0.198-5e-3 -0.296l0.566-2.687c0.033-0.151 0.115-0.285 0.235-0.382 0.119-0.097 0.268-0.15 0.422-0.151h35.342c0.154 1e-3 0.302 0.054 0.422 0.151 0.119 0.097 0.202 0.231 0.234 0.382l0.566 2.687c0.021 0.098 0.019 0.199-4e-3 0.296-0.024 0.097-0.069 0.187-0.131 0.265-0.063 0.077-0.143 0.14-0.233 0.183-0.09 0.042-0.189 0.065-0.288 0.065z" fill="#2F2E41"/>
  <g fill="#D5B26B">
   <path d="m105.64 116.19h-0.831c-0.081 0-0.146 0.065-0.146 0.146v0.382c0 0.081 0.065 0.146 0.146 0.146h0.831c0.081 0 0.146-0.065 0.146-0.146v-0.382c0-0.081-0.065-0.146-0.146-0.146z"/>
   <path d="m107.88 116.19h-0.832c-0.08 0-0.146 0.065-0.146 0.146v0.382c0 0.081 0.066 0.146 0.146 0.146h0.832c0.081 0 0.146-0.065 0.146-0.146v-0.382c0-0.081-0.065-0.146-0.146-0.146z"/>
   <path d="m110.13 116.19h-0.832c-0.081 0-0.146 0.065-0.146 0.146v0.382c0 0.081 0.065 0.146 0.146 0.146h0.832c0.08 0 0.146-0.065 0.146-0.146v-0.382c0-0.081-0.066-0.146-0.146-0.146z"/>
   <path d="m112.38 116.19h-0.831c-0.081 0-0.146 0.065-0.146 0.146v0.382c0 0.081 0.065 0.146 0.146 0.146h0.831c0.081 0 0.146-0.065 0.146-0.146v-0.382c0-0.081-0.065-0.146-0.146-0.146z"/>
   <path d="m114.62 116.19h-0.832c-0.08 0-0.145 0.065-0.145 0.146v0.382c0 0.081 0.065 0.146 0.145 0.146h0.832c0.081 0 0.146-0.065 0.146-0.146v-0.382c0-0.081-0.065-0.146-0.146-0.146z"/>
   <path d="m116.87 116.19h-0.832c-0.08 0-0.146 0.065-0.146 0.146v0.382c0 0.081 0.066 0.146 0.146 0.146h0.832c0.08 0 0.146-0.065 0.146-0.146v-0.382c0-0.081-0.066-0.146-0.146-0.146z"/>
   <path d="m119.12 116.19h-0.832c-0.081 0-0.146 0.065-0.146 0.146v0.382c0 0.081 0.065 0.146 0.146 0.146h0.832c0.08 0 0.145-0.065 0.145-0.146v-0.382c0-0.081-0.065-0.146-0.145-0.146z"/>
   <path d="m121.36 116.19h-0.831c-0.081 0-0.146 0.065-0.146 0.146v0.382c0 0.081 0.065 0.146 0.146 0.146h0.831c0.081 0 0.146-0.065 0.146-0.146v-0.382c0-0.081-0.065-0.146-0.146-0.146z"/>
   <path d="m123.61 116.19h-0.832c-0.08 0-0.146 0.065-0.146 0.146v0.382c0 0.081 0.066 0.146 0.146 0.146h0.832c0.08 0 0.146-0.065 0.146-0.146v-0.382c0-0.081-0.066-0.146-0.146-0.146z"/>
   <path d="m125.86 116.19h-0.832c-0.081 0-0.146 0.065-0.146 0.146v0.382c0 0.081 0.065 0.146 0.146 0.146h0.832c0.08 0 0.145-0.065 0.145-0.146v-0.382c0-0.081-0.065-0.146-0.145-0.146z"/>
   <path d="m128.1 116.19h-0.831c-0.081 0-0.146 0.065-0.146 0.146v0.382c0 0.081 0.065 0.146 0.146 0.146h0.831c0.081 0 0.146-0.065 0.146-0.146v-0.382c0-0.081-0.065-0.146-0.146-0.146z"/>
   <path d="m130.35 116.19h-0.832c-0.08 0-0.145 0.065-0.145 0.146v0.382c0 0.081 0.065 0.146 0.145 0.146h0.832c0.081 0 0.146-0.065 0.146-0.146v-0.382c0-0.081-0.065-0.146-0.146-0.146z"/>
   <path d="m132.6 116.19h-0.832c-0.08 0-0.146 0.065-0.146 0.146v0.382c0 0.081 0.066 0.146 0.146 0.146h0.832c0.08 0 0.146-0.065 0.146-0.146v-0.382c0-0.081-0.066-0.146-0.146-0.146z"/>
   <path d="m134.84 116.19h-0.831c-0.081 0-0.146 0.065-0.146 0.146v0.382c0 0.081 0.065 0.146 0.146 0.146h0.831c0.081 0 0.146-0.065 0.146-0.146v-0.382c0-0.081-0.065-0.146-0.146-0.146z"/>
   <path d="m137.09 116.19h-0.832c-0.08 0-0.145 0.065-0.145 0.146v0.382c0 0.081 0.065 0.146 0.145 0.146h0.832c0.081 0 0.146-0.065 0.146-0.146v-0.382c0-0.081-0.065-0.146-0.146-0.146z"/>
   <path d="m139.34 116.19h-0.832c-0.08 0-0.146 0.065-0.146 0.146v0.382c0 0.081 0.066 0.146 0.146 0.146h0.832c0.08 0 0.146-0.065 0.146-0.146v-0.382c0-0.081-0.066-0.146-0.146-0.146z"/>
   <path d="m105.61 117.31h-0.832c-0.08 0-0.146 0.065-0.146 0.146v0.382c0 0.081 0.066 0.146 0.146 0.146h0.832c0.08 0 0.146-0.065 0.146-0.146v-0.382c0-0.081-0.066-0.146-0.146-0.146z"/>
   <path d="m107.86 117.31h-0.832c-0.081 0-0.146 0.065-0.146 0.146v0.382c0 0.081 0.065 0.146 0.146 0.146h0.832c0.08 0 0.145-0.065 0.145-0.146v-0.382c0-0.081-0.065-0.146-0.145-0.146z"/>
   <path d="m110.1 117.31h-0.831c-0.081 0-0.146 0.065-0.146 0.146v0.382c0 0.081 0.065 0.146 0.146 0.146h0.831c0.081 0 0.146-0.065 0.146-0.146v-0.382c0-0.081-0.065-0.146-0.146-0.146z"/>
   <path d="m112.35 117.31h-0.832c-0.08 0-0.146 0.065-0.146 0.146v0.382c0 0.081 0.066 0.146 0.146 0.146h0.832c0.08 0 0.146-0.065 0.146-0.146v-0.382c0-0.081-0.066-0.146-0.146-0.146z"/>
   <path d="m114.6 117.31h-0.832c-0.081 0-0.146 0.065-0.146 0.146v0.382c0 0.081 0.065 0.146 0.146 0.146h0.832c0.08 0 0.145-0.065 0.145-0.146v-0.382c0-0.081-0.065-0.146-0.145-0.146z"/>
   <path d="m116.84 117.31h-0.831c-0.081 0-0.146 0.065-0.146 0.146v0.382c0 0.081 0.065 0.146 0.146 0.146h0.831c0.081 0 0.146-0.065 0.146-0.146v-0.382c0-0.081-0.065-0.146-0.146-0.146z"/>
   <path d="m119.09 117.31h-0.832c-0.08 0-0.145 0.065-0.145 0.146v0.382c0 0.081 0.065 0.146 0.145 0.146h0.832c0.081 0 0.146-0.065 0.146-0.146v-0.382c0-0.081-0.065-0.146-0.146-0.146z"/>
   <path d="m121.34 117.31h-0.832c-0.08 0-0.146 0.065-0.146 0.146v0.382c0 0.081 0.066 0.146 0.146 0.146h0.832c0.08 0 0.146-0.065 0.146-0.146v-0.382c0-0.081-0.066-0.146-0.146-0.146z"/>
   <path d="m123.58 117.31h-0.831c-0.081 0-0.146 0.065-0.146 0.146v0.382c0 0.081 0.065 0.146 0.146 0.146h0.831c0.081 0 0.146-0.065 0.146-0.146v-0.382c0-0.081-0.065-0.146-0.146-0.146z"/>
   <path d="m125.83 117.31h-0.832c-0.08 0-0.145 0.065-0.145 0.146v0.382c0 0.081 0.065 0.146 0.145 0.146h0.832c0.081 0 0.146-0.065 0.146-0.146v-0.382c0-0.081-0.065-0.146-0.146-0.146z"/>
   <path d="m128.08 117.31h-0.832c-0.08 0-0.146 0.065-0.146 0.146v0.382c0 0.081 0.066 0.146 0.146 0.146h0.832c0.08 0 0.146-0.065 0.146-0.146v-0.382c0-0.081-0.066-0.146-0.146-0.146z"/>
   <path d="m130.32 117.31h-0.832c-0.081 0-0.146 0.065-0.146 0.146v0.382c0 0.081 0.065 0.146 0.146 0.146h0.832c0.08 0 0.145-0.065 0.145-0.146v-0.382c0-0.081-0.065-0.146-0.145-0.146z"/>
   <path d="m132.57 117.31h-0.831c-0.081 0-0.146 0.065-0.146 0.146v0.382c0 0.081 0.065 0.146 0.146 0.146h0.831c0.081 0 0.146-0.065 0.146-0.146v-0.382c0-0.081-0.065-0.146-0.146-0.146z"/>
   <path d="m134.82 117.31h-0.832c-0.08 0-0.146 0.065-0.146 0.146v0.382c0 0.081 0.066 0.146 0.146 0.146h0.832c0.08 0 0.146-0.065 0.146-0.146v-0.382c0-0.081-0.066-0.146-0.146-0.146z"/>
   <path d="m137.06 117.31h-0.832c-0.081 0-0.146 0.065-0.146 0.146v0.382c0 0.081 0.065 0.146 0.146 0.146h0.832c0.08 0 0.145-0.065 0.145-0.146v-0.382c0-0.081-0.065-0.146-0.145-0.146z"/>
   <path d="m139.31 117.31h-0.831c-0.081 0-0.146 0.065-0.146 0.146v0.382c0 0.081 0.065 0.146 0.146 0.146h0.831c0.081 0 0.146-0.065 0.146-0.146v-0.382c0-0.081-0.065-0.146-0.146-0.146z"/>
   <path d="m124.26 118.66h-8.695c-0.08 0-0.146 0.065-0.146 0.145v0.383c0 0.08 0.066 0.146 0.146 0.146h8.695c0.081 0 0.146-0.066 0.146-0.146v-0.383c0-0.08-0.065-0.145-0.146-0.145z"/>
  </g>
  <path d="m149.17 64.39h-57.363c-0.0597-0.0012-0.1165-0.0258-0.1583-0.0684-0.0417-0.0426-0.0651-0.0999-0.0651-0.1596s0.0234-0.117 0.0651-0.1596c0.0418-0.0426 0.0986-0.0672 0.1583-0.0685h57.363c0.06 0.0013 0.117 0.0259 0.158 0.0685 0.042 0.0426 0.066 0.0999 0.066 0.1596s-0.024 0.117-0.066 0.1596c-0.041 0.0426-0.098 0.0672-0.158 0.0684z" fill="#CACACA"/>
  <g fill="#D5B26B">
   <path d="m95.709 62.77c0.7384 0 1.3369-0.6117 1.3369-1.3663 0-0.7545-0.5985-1.3662-1.3369-1.3662-0.7383 0-1.3368 0.6117-1.3368 1.3662 0 0.7546 0.5985 1.3663 1.3368 1.3663z"/>
   <path d="m100.33 62.77c0.738 0 1.337-0.6117 1.337-1.3663 0-0.7545-0.599-1.3662-1.337-1.3662-0.7386 0-1.3372 0.6117-1.3372 1.3662 0 0.7546 0.5986 1.3663 1.3372 1.3663z"/>
   <path d="m104.95 62.77c0.738 0 1.337-0.6117 1.337-1.3663 0-0.7545-0.599-1.3662-1.337-1.3662s-1.337 0.6117-1.337 1.3662c0 0.7546 0.599 1.3663 1.337 1.3663z"/>
   <path d="m146.39 60.376h-3.281c-0.065 0.0013-0.127 0.028-0.173 0.0745-0.045 0.0464-0.071 0.1088-0.071 0.1738s0.026 0.1275 0.071 0.1739c0.046 0.0464 0.108 0.0732 0.173 0.0745h3.281c0.065-0.0013 0.126-0.0281 0.172-0.0745s0.071-0.1089 0.071-0.1739-0.025-0.1274-0.071-0.1738c-0.046-0.0465-0.107-0.0732-0.172-0.0745z"/>
   <path d="m146.39 61.308h-3.281c-0.065 0.0013-0.127 0.0281-0.173 0.0745-0.045 0.0464-0.071 0.1088-0.071 0.1739 0 0.065 0.026 0.1274 0.071 0.1738 0.046 0.0465 0.108 0.0732 0.173 0.0745h3.281c0.065-0.0013 0.126-0.028 0.172-0.0745 0.046-0.0464 0.071-0.1088 0.071-0.1738 0-0.0651-0.025-0.1275-0.071-0.1739s-0.107-0.0732-0.172-0.0745z"/>
   <path d="m146.39 62.239h-3.281c-0.065 0.0013-0.127 0.028-0.173 0.0744-0.045 0.0464-0.071 0.1089-0.071 0.1739s0.026 0.1274 0.071 0.1739c0.046 0.0464 0.108 0.0731 0.173 0.0744h3.281c0.065-0.0013 0.126-0.028 0.172-0.0744 0.046-0.0465 0.071-0.1089 0.071-0.1739s-0.025-0.1275-0.071-0.1739-0.107-0.0731-0.172-0.0744z"/>
  </g>
  <path d="m125.07 77.713h-7.168c-0.539 0-0.975 0.4363-0.975 0.9746 0 0.5382 0.436 0.9745 0.975 0.9745h7.168c0.538 0 0.974-0.4363 0.974-0.9745 0-0.5383-0.436-0.9746-0.974-0.9746z" fill="#006753"/>
  <path d="m129.7 81.611h-16.429c-0.538 0-0.975 0.4363-0.975 0.9746 0 0.5382 0.437 0.9745 0.975 0.9745h16.429c0.538 0 0.975-0.4363 0.975-0.9745 0-0.5383-0.437-0.9746-0.975-0.9746z" fill="#E6E6E6"/>
  <path d="m129.7 85.509h-16.429c-0.538 0-0.975 0.4363-0.975 0.9745s0.437 0.9746 0.975 0.9746h16.429c0.538 0 0.975-0.4364 0.975-0.9746s-0.437-0.9745-0.975-0.9745z" fill="#E6E6E6"/>
  <g fill="#D5B26B">
   <path d="m92.365 122.66h-17.919c-0.6336 0-1.2413 0.252-1.6894 0.7-0.448 0.448-0.6997 1.055-0.6997 1.689 0 0.633 0.2517 1.241 0.6997 1.689 0.4481 0.448 1.0558 0.699 1.6894 0.699h6.5703v18.51h4.7784v-18.51h6.5702c0.6337 0 1.2414-0.251 1.6894-0.699 0.4481-0.448 0.6998-1.056 0.6998-1.689 0-0.634-0.2517-1.241-0.6998-1.689-0.448-0.448-1.0557-0.7-1.6894-0.7z"/>
   <path d="m104.19 156.2h-47.928c-4.6463-0.017-9.1315-1.705-12.636-4.754-3.5047-3.05-5.7949-7.258-6.4523-11.856l-1.6965-6.239c-3.5115-12.927-8.8602-25.284-15.882-36.693-3.2097-5.2108-4.8617-10.255-1.1095-15.111 0.032-0.0413 0.0634-0.0821 0.0943-0.1223 3.0095-3.9159 17.989-4.7636 22.872-4.9285 0.1929-0.0065 0.3866-0.0098 0.5809-0.0097h29.811c0.1946 0 0.3882 0.0032 0.5809 0.0097 2.6324 0.0768 5.195 0.8644 7.4158 2.2795 2.2207 1.4151 4.0169 3.4047 5.1979 5.7579 1.2602 2.4024 1.8463 5.1012 1.6962 7.8097-0.1502 2.7086-1.031 5.3261-2.5491 7.5746-10.472 15.725-13.678 25.585-10.395 31.97 3.175 6.177 12.908 9.334 30.629 9.938 4.762 0.162 6.948 3.869 6.963 7.244 0.015 3.289-2.086 6.92-6.735 7.12-0.151 7e-3 -0.303 0.01-0.456 0.01z"/>
   <path d="m64.406 198.75h17.919c0.6336 0 1.2413-0.252 1.6894-0.7s0.6998-1.055 0.6998-1.689c0-0.633-0.2517-1.241-0.6998-1.689s-1.0558-0.699-1.6894-0.699h-6.5702v-40.305h-4.7784v40.305h-6.5703c-0.6336 0-1.2413 0.251-1.6894 0.699-0.448 0.448-0.6997 1.056-0.6997 1.689 0 0.634 0.2517 1.241 0.6997 1.689 0.4481 0.448 1.0558 0.7 1.6894 0.7z"/>
  </g>
  <path d="m62.974 77.984 0.3756 2.2818c0.1777 1.1065 0.8212 8.9225 0.3445 9.855-0.042-1.741-3.2852-4.4783-5.3865-3.8533l-3.2978 0.7325-2.0467 0.4552-1.6659 0.3652-4.8408 1.0572c-0.0085-0.0561-0.0146-0.1158-0.0231-0.172-0.0114-0.0708-0.0228-0.1416-0.0372-0.2118-0.0901-0.4538-0.2545-0.8897-0.4866-1.2901-0.0246 0.5363-0.1829 1.0579-0.4607 1.5174-0.0075 0.0119-0.0141 0.0245-0.0197 0.0376-0.086 0.1391-0.1809 0.2725-0.284 0.3994-0.0048 0.0033-0.0092 0.0072-0.0129 0.0117 0 0-0.9946-15.85-0.8904-15.996 0.0762-0.104 0.1531-0.205 0.2335-0.3037 0.0798-0.1017 0.1573-0.1998 0.2406-0.2991 0.0106-0.0095 0.0197-0.0206 0.0267-0.0329 0.2334-0.2761 0.4804-0.5402 0.7404-0.7914 0.0764-0.0736 0.1557-0.1477 0.235-0.2218 1.2111-1.1202 2.658-1.9546 4.2344-2.4417 0.1778-0.0546 0.3626-0.1046 0.5504-0.1552 0.1855-0.0471 0.3745-0.0919 0.5646-0.1308l0.0644-0.0131c0.0907-0.0186 0.1849-0.0348 0.2762-0.0504 0.1147-0.0205 0.23-0.038 0.343-0.0519 1.4667-0.2112 2.9607-0.1273 4.3945 0.2469 0.0029-6e-4 0.0035 0.0023 0.0064 0.0017 1.1968 0.3127 2.3343 0.8191 3.3674 1.4992 1.787 1.1795 2.4825 3.1033 2.9765 5.2635 0.1732 0.7416 0.3189 1.5133 0.4782 2.2913z" fill="#2F2E41"/>
  <path d="m80.624 182.5 3.0868 1.676 8.1716-11.295-4.5561-2.474-6.7023 12.093z" fill="#FFB6B6"/>
  <path d="m82.11 178.47 5.6038 1.754-0.8919 2.347 3.8426 5.576c0.1899 0.275 0.2867 0.604 0.2763 0.938-0.0103 0.334-0.1272 0.656-0.3337 0.919-0.2065 0.264-0.4917 0.454-0.814 0.543-0.3223 0.09-0.6648 0.074-0.9775-0.045l-6.5236-2.477-0.2422-2.749-1.3213 2.155-2.4596-0.934 3.8411-8.027z" fill="#2F2E41"/>
  <path d="m98.109 131.98c-0.4927 0.12-1.0057 0.131-1.5029 0.031s-0.9665-0.307-1.3748-0.608-0.7456-0.687-0.9884-1.132c-0.2427-0.445-0.3849-0.938-0.4164-1.444l-26.329-9.469 4.832-4.204 24.99 9.947c0.8538 4e-3 1.6766 0.32 2.3127 0.889 0.6362 0.569 1.0412 1.352 1.1382 2.2 0.098 0.848-0.12 1.702-0.61 2.401-0.4907 0.698-1.2205 1.193-2.0513 1.389z" fill="#FFB6B6"/>
  <path d="m60.142 95.898s-4.4345 0.0977-4.8287 5.1591c-0.3943 5.061 9.2816 17.579 10.781 19.643 1.4991 2.065 18.151 4.606 18.151 4.606l5.6606-4.108c-5.9479-3.853-11.376-6.808-15.019-6.675l-14.744-18.625z" fill="#006753"/>
  <path d="m54.703 118.23 1.0806 4.641s0.0106 4.28 0.7688 5.069c0.7529 0.786 17.308-0.791 17.308-0.791s-1.7553-6.897-1.7319-12.115l-17.426 3.196z" fill="#FFB6B6"/>
  <path d="m89.677 177.6-5.973-3.284c-0.1136-7.77 4.5613-18.284 10.106-29.298-12.401 2.132-24.1 2.815-34.219 0.236-1.6612-0.438-3.0831-1.513-3.9584-2.991s-1.1336-3.241-0.7192-4.908c0.0394-0.163 0.0849-0.325 0.1366-0.486 1.2111-3.693-1.5045-6.009 0.9932-10.072 6.5692-2.242 12.81-2.876 18.516-0.895l3.5756 7.903 17.722-2.293c0.8562-0.102 1.7243-0.034 2.5541 0.201 0.8297 0.234 1.6053 0.631 2.2803 1.166 0.676 0.536 1.239 1.199 1.657 1.953s0.683 1.584 0.779 2.44c0.024 0.193 0.039 0.386 0.046 0.58-3.5831 16.794-7.6012 31.906-13.497 39.748z" fill="#2F2E41"/>
  <path d="m55.524 86.156c4.0083-0.82 6.5928-4.7329 5.7726-8.7399s-4.7344-6.5907-8.7427-5.7707c-4.0082 0.8199-6.5927 4.7328-5.7725 8.7398s4.7344 6.5907 8.7426 5.7708z" fill="#FFB6B6"/>
  <path d="m52.298 88.844 6.8274-0.403c0.2879-0.017 0.5739 0.0562 0.8182 0.2095 0.2444 0.1532 0.4348 0.3788 0.5447 0.6453l1.9294 4.6758 8.0188 6.6259s3.1748 4.038 3.1822 9.255c0.0074 5.216 1.1264 17.289 1.1264 17.289s-4.6335-6.52-7.4934-4.786c-0.4866 0.295-0.6577 0.898-1.1674 1.203-0.2542 0.152-0.8415 4e-3 -1.0982 0.157-3.941 2.338-8.0509 4.623-8.4349 4.223-0.754-0.787-1.6687-4.806-1.6687-4.806l-6.2495-22.955c-0.3389-1.2081-0.4062-2.4759-0.1971-3.7127s0.6894-2.4121 1.4064-3.4415c0.4366-0.6145 0.894-1.0717 1.3191-1.1473 0.9546-0.2032 0.4468-2.3418 1.1366-3.032z" fill="#006753"/>
  <path d="m110.38 192.22 2.882-2.003-6.529-12.313-4.253 2.956 7.9 11.36z" fill="#FFB6B6"/>
  <path d="m110.81 183.96-4.517 4.036c-7.1816-8-12.611-19.22-17.212-31.961-12.055-3.529-21.146-9.222-29.083-15.98-2.6924-2.278-4.7107-5.204-2.4144-7.978 0.1073-0.13 0.2194-0.255 0.3362-0.376 2.7113-2.786 9.5868-2.255 13.614-4.807l8.9957 9.612-0.5659 2.577 16.897 5.722c0.813 0.285 1.5615 0.728 2.2024 1.303 0.6409 0.576 1.1613 1.272 1.5313 2.05 0.371 0.778 0.583 1.621 0.626 2.481s-0.086 1.72-0.377 2.531c-0.063 0.183-0.134 0.363-0.213 0.54l10.18 30.25z" fill="#2F2E41"/>
  <path d="m108.7 191.41 4.613-3.632 1.434 2.062 6.773-0.021c0.334-1e-3 0.66 0.105 0.93 0.302 0.27 0.198 0.47 0.476 0.571 0.795 0.1 0.319 0.096 0.662-0.012 0.978-0.108 0.317-0.314 0.59-0.589 0.781l-5.73 3.982-2.406-1.353 1.032 2.307-2.16 1.502-4.456-7.703z" fill="#2F2E41"/>
  <path d="m62.379 146.7c-0.4668-0.198-0.8845-0.496-1.2236-0.873s-0.5915-0.824-0.7393-1.309c-0.1477-0.485-0.1874-0.996-0.1161-1.498 0.0714-0.502 0.2519-0.982 0.5289-1.407l-15.456-23.317 6.387-0.485 14.097 22.901c0.6826 0.512 1.1535 1.257 1.3234 2.094 0.1699 0.836 0.027 1.706-0.4016 2.444-0.4287 0.738-1.1133 1.293-1.9241 1.56-0.8108 0.268-1.6915 0.228-2.4752-0.11z" fill="#FFB6B6"/>
  <path d="m53.492 95.086s-3.6146-2.5699-6.9551 1.2533c-3.3406 3.8234-3.0616 19.64-3.093 22.191-0.0099 0.799 1.1439 2.523 2.7335 4.513 0.7137 0.894 1.5152 1.842 2.3386 2.784 0.4766 0.545 0.066 1.68 0.5445 2.209 0.4759 0.527 1.8409 0.45 2.2935 0.939 2.1486 2.321 3.894 4.088 3.894 4.088l6.9944 0.086c0.0789-5.198-3.4818-9.837-8.0562-14.322l-0.6942-23.742z" fill="#006753"/>
  <path d="m63.298 75.304c-0.2741 0.1353-0.5401 0.2659-0.8013 0.3894-1.0483 0.5151-2.1316 0.9557-3.2419 1.3184-0.1848-0.5024-0.4666-0.9635-0.8295-1.3571 0.0929 0.5435 0.0456 1.1018-0.1375 1.6219-1.6806 0.4161-3.4447 0.348-5.0883-0.1964 1.0748 1.9895 1.869 6.1818 1.8112 9.9206-0.0252 1.9768-0.2929 3.8264-0.8774 5.1558l-0.751-2.2843c-0.0697-0.8159-0.2096-1.6244-0.4184-2.4163-0.5036-2.2221-0.9738-0.7364-1.6659 0.3652l-4.8408 1.0572c-0.0084-0.0562-0.0146-0.1158-0.023-0.172-0.0115-0.0708-0.0229-0.1416-0.0373-0.2118-0.0901-0.4539-0.2545-0.8897-0.4866-1.2901-0.0245 0.5363-0.1829 1.0579-0.4606 1.5174-0.0076 0.0119-0.0142 0.0245-0.0198 0.0375-0.0859 0.1391-0.1808 0.2726-0.284 0.3994-0.0048 0.0034-0.0091 0.0073-0.0129 0.0118-3.1253 0.4181-5.3162-15.694-0.8898-15.994 0.1287-0.0087 0.1531-0.205 0.2329-0.3067 0.0798-0.1016 0.1573-0.1998 0.2406-0.2991 0.0107-0.0094 0.0197-0.0205 0.0268-0.0329 0.2366-0.2739 0.4814-0.5373 0.7403-0.7914 0.0764-0.0735 0.1557-0.1476 0.2351-0.2218 1.2148-1.1147 2.6608-1.9474 4.2349-2.4387 0.1778-0.0546 0.3621-0.1076 0.5498-0.1582 0.1855-0.0471 0.3745-0.0918 0.5647-0.1307l0.0643-0.0132c0.0907-0.0185 0.185-0.0348 0.2763-0.0504 0.1146-0.0204 0.23-0.0379 0.343-0.0519 0.4242 0.2138 0.7871 0.5317 1.0548 0.924l3.0926-0.6326c0.082-0.0168 0.1645-0.0306 0.2476-0.0415l0.0059-0.0012c3.861-0.6466 6.3435 2.4567 7.1452 6.3732z" fill="#2F2E41"/>
  <path d="m46.442 72.455c-0.6622 0.4778-1.3588 0.9701-2.1669 1.0885-0.808 0.1184-1.754-0.2721-1.9776-1.0573-0.2734-0.9601 0.5938-1.8343 1.3732-2.4582l2.4716-1.9785c0.4526-0.4013 0.9636-0.7315 1.5154-0.9795 0.2771-0.1219 0.5782-0.1799 0.8808-0.1698 0.3027 0.0101 0.5992 0.0881 0.8676 0.2283 0.2656 0.1793 0.4809 0.4236 0.6254 0.7097 0.1444 0.286 0.2132 0.6043 0.1998 0.9244-0.0353 0.6417-0.2471 1.2611-0.6122 1.7901-0.4588 0.7149-1.0575 1.3296-1.7602 1.8071s-1.4948 0.8079-2.3286 0.9714" fill="#2F2E41"/>
  <path d="m65.188 123.86h-17.919c-0.6336 0-1.2413 0.251-1.6894 0.699-0.448 0.448-0.6997 1.056-0.6997 1.689s0.2517 1.241 0.6997 1.689c0.4481 0.448 1.0558 0.699 1.6894 0.699h6.5703v18.511h4.7784v-18.511h6.5702c0.6337 0 1.2414-0.251 1.6894-0.699 0.4481-0.448 0.6998-1.056 0.6998-1.689s-0.2517-1.241-0.6998-1.689c-0.448-0.448-1.0557-0.699-1.6894-0.699z" fill="#D5B26B"/>
  <path d="m131.39 199.61-131.03 0.091c-0.094131 0-0.18431-0.037-0.25078-0.104-0.066465-0.067-0.10379-0.157-0.10379-0.251s0.037326-0.184 0.10379-0.251c0.066465-0.067 0.15664-0.104 0.25078-0.105l131.03-0.091c0.094 0 0.185 0.038 0.251 0.104 0.067 0.067 0.104 0.157 0.104 0.251s-0.037 0.185-0.104 0.251c-0.066 0.067-0.157 0.104-0.251 0.105z" fill="#CACACA"/>
  <path d="m169.52 159.96 2.917 3.178 13.649-9.735-4.305-4.69-12.261 11.247z" fill="#FFB6B6"/>
  <path d="m175.56 164.46v-3e-3l-0.295-3.174-0.135-0.063-0.785-0.373-3.707-1.752-0.077-0.084-0.744-0.812-4.118 3.78 5.579 6.078 3.825 4.168 0.129-0.119c0.524-0.48 0.948-1.059 1.249-1.704 0.3-0.644 0.47-1.341 0.501-2.051 0.03-0.71-0.08-1.42-0.324-2.087-0.243-0.668-0.617-1.281-1.098-1.804z" fill="#2F2E41"/>
  <path d="m154.41 191.66 4.128 1.253 6.802-15.321-6.093-1.85-4.837 15.918z" fill="#FFB6B6"/>
  <path d="m165.1 195.09c-0.333-0.628-0.788-1.184-1.337-1.635-0.55-0.451-1.184-0.788-1.865-0.992l-1.873-2.582-0.146 0.011-4.948 0.454-0.111-0.033-1.051-0.319-1.625 5.347 13.311 4.042 0.051-0.17c0.207-0.68 0.278-1.394 0.209-2.102-0.07-0.707-0.279-1.394-0.615-2.021z" fill="#2F2E41"/>
  <path d="m188.45 111.44s26.356 25.439 9.694 33.313h-5.15s-1.547-5.496-5.09-10.131c-0.487-0.637-2.31-0.508-2.816-1.128-3.091-3.788-6.441-7.041-8.756-6.911l0.554 17.576 0.896 6.27c0.47 3.241-12.807 31.54-12.807 31.54l-8.345-3.279s8.695-23.308 8.797-26.669l-6.968-36.947 29.991-3.634z" fill="#2F2E41"/>
  <path d="m190.64 112.7c-0.135 0.191-0.31 0.35-0.514 0.465-0.336 0.19-0.7 0.325-1.078 0.4-5.934 1.347-25.319 4.138-30.352 2.807-0.618-0.161-1.021-0.388-1.152-0.687-0.421-0.943-0.368-4.929-0.12-9.742 0.045-0.901 1.039-1.877 1.099-2.821 0.042-0.707-0.851-1.373-0.803-2.093 0.328-4.8661 0.752-9.8251 1.036-12.96 0.179-2.0152 0.302-3.2751 0.302-3.2751l-3.061-19.296 0.143-0.2358 0.161-0.0806 9.871-4.8844 0.537-1.3733c0.156-0.3954 0.427-0.7351 0.777-0.9751 0.351-0.24 0.766-0.3694 1.191-0.3714l6.502-0.0268c0.337-0.0019 0.67 0.0768 0.971 0.2294 0.3 0.1527 0.56 0.3749 0.758 0.6483l1.762 2.4392 11.647 7.4638-0.045 0.1373-5.465 16.626-0.027 1.2957v3e-3l-0.203 10.42 0.565 1.4122-0.636 2.3171s0.292 2.707 1.86 4.72c1.422 1.827 3.232 3.732 4.05 5.278v3e-3c0.454 0.854 0.606 1.594 0.224 2.156z" fill="#006753"/>
  <path d="m199.41 143.24-1.409 1.78s-12.956 9.061-13.401 9.908l-2.048 1.937-4.954-5.294 2.576-3.229c2.062-2.583 4.726-4.622 7.759-5.938l3.948-3.502 7.529 4.338z" fill="#2F2E41"/>
  <path d="m191.17 117.81-2.359-22.83-0.623-9.3963 6.604-1.1937s-0.262 6.7186 0.603 10.509c0.854 3.7406 0.114 22.41 0.061 22.909 0.485 0.434 0.827 1.004 0.98 1.636 0.154 0.632 0.112 1.296-0.12 1.904-0.232 0.607-0.643 1.13-1.179 1.499s-1.171 0.567-1.821 0.567c-0.651 1e-3 -1.286-0.197-1.822-0.565-0.537-0.369-0.948-0.891-1.181-1.499-0.232-0.607-0.275-1.271-0.122-1.903s0.495-1.203 0.979-1.637z" fill="#FFB6B6"/>
  <path d="m197.62 99.71-8.488 1.7563-0.743-2.9578-0.865-0.9176-1.729-9.0532-2.48-5.3031 0.645-18.135 6.299 3.34 8e-3 6e-3c0.964 1.0455 1.628 2.542 2.732 4.0436 3.479 4.7317 3.865 16.229 3.76 22.527-2e-3 0.1033 0.102 0.2125 0.227 0.3273 0.592 0.5436 0.979 1.275 1.094 2.0705 0.116 0.7956-0.047 1.6066-0.46 2.2962z" fill="#006753"/>
  <path d="m152.74 118.7 2.359-22.831 0.623-9.3963-6.604-1.1937s0.262 6.7186-0.603 10.509c-0.854 3.7406-0.114 22.409-0.061 22.909-0.485 0.433-0.827 1.004-0.98 1.636-0.154 0.632-0.112 1.296 0.12 1.903 0.232 0.608 0.643 1.131 1.179 1.5 0.535 0.369 1.171 0.567 1.821 0.567 0.651 0 1.286-0.197 1.822-0.565 0.536-0.369 0.948-0.892 1.18-1.499 0.233-0.607 0.276-1.271 0.123-1.903s-0.495-1.203-0.979-1.637z" fill="#FFB6B6"/>
  <path d="m160.6 84.129-1.84 3.935-0.642 1.3703-1.729 9.0521-0.863 0.9166-0.744 2.9589-0.349-0.072-6.302-1.305-1.836-0.379c-0.414-0.6893-0.577-1.5005-0.462-2.2964s0.502-1.5275 1.095-2.0712c0.125-0.1134 0.23-0.2239 0.227-0.3284-0.105-6.2965 0.28-17.794 3.76-22.526 1.105-1.5017 1.768-2.9975 2.732-4.0424 3e-3 -3e-3 3e-3 -6e-3 6e-3 -6e-3l2.348-3.8423 0.143-0.2359 0.161-0.0806 4.295 18.952z" fill="#006753"/>
  <path d="m171.74 55.696c4.778 0 8.651-3.8718 8.651-8.6478s-3.873-8.6478-8.651-8.6478c-4.777 0-8.65 3.8718-8.65 8.6478s3.873 8.6478 8.65 8.6478z" fill="#FFB6B6"/>
  <path d="m181.47 43.254c-0.03-1.4749-0.197-3.3617-1.23-4.8665-0.872-1.2658-2.631-2.269-4.271-1.7674 0.019-0.3277-0.054-0.6542-0.21-0.943s-0.389-0.5287-0.674-0.6931c-0.621-0.3791-1.368-0.4478-2.028-0.5105-1.663-0.1552-3.386-0.3165-5.071 3e-3 -1.89 0.3583-3.437 1.3315-4.24 2.672l-0.018 0.0418-0.165 0.7942c-0.022 0.1065-0.066 0.207-0.131 0.2946-0.064 0.0876-0.147 0.1603-0.242 0.2129-0.095 0.0535-0.201 0.0852-0.31 0.0929-0.109 0.0078-0.218-0.0087-0.32-0.0481-0.112-0.0418-0.232-0.0537-0.349-0.0347-0.118 0.019-0.229 0.0683-0.321 0.1431-0.093 0.0747-0.164 0.1724-0.207 0.2832-0.044 0.1109-0.057 0.2311-0.04 0.3488l0.045 0.3165-0.475-0.0896c-0.119-0.023-0.242-0.0139-0.357 0.0266-0.114 0.0404-0.216 0.1107-0.294 0.2035s-0.13 0.2048-0.151 0.3244c-0.02 0.1197-8e-3 0.2426 0.034 0.3561l0.132 0.3613c-0.098 0.0013-0.195 0.0223-0.285 0.0618s-0.171 0.0967-0.238 0.1681c-0.096 0.1041-0.156 0.2359-0.172 0.3765s0.013 0.2826 0.083 0.4057c0.532 0.9082 1.286 1.6663 2.192 2.2033 0.407 0.2452 0.846 0.4331 1.305 0.5583 0.095 0.0269 0.194 0.0507 0.295 0.0716 3.667 0.79 7.448 0.9033 11.155 0.3344-0.218 0.7312-0.302 1.4959-0.248 2.2571 0.12 0.9524 0.678 1.7376 1.425 2.0003 0.169 0.0572 0.343 0.0992 0.519 0.1254 0.17 0.0274 0.336 0.0683 0.499 0.1224 0.24 0.0879 0.453 0.2378 0.617 0.4343 0.163 0.1965 0.272 0.4327 0.315 0.6848s0.019 0.511-0.07 0.7507c-0.09 0.2397-0.24 0.4515-0.438 0.6141 0 0 0.783 0.6479 0.881 0.6151 0.385-0.1699 0.706-0.456 0.92-0.8181 1.49-2.1436 2.21-4.9978 2.138-8.4878z" fill="#2F2E41"/>
 </g>
 <defs>
  <clipPath id="clip0_112_47">
   <rect width="231.19" height="200" fill="#fff"/>
  </clipPath>
 </defs>
</svg>
