<svg fill="none" save-fill="" version="1.1" viewBox="0 0 351 200" xmlns="http://www.w3.org/2000/svg">
 <g clip-path="url(#clip0_198_4601)">
  <g fill="#F0F0F0">
   <path d="m57.542 90.937v-56.207c0-0.8027 0.3189-1.5725 0.8864-2.1401 0.5676-0.5676 1.3374-0.8864 2.1401-0.8864s1.5725 0.3188 2.1401 0.8864 0.8864 1.3374 0.8864 2.1401v56.207c0 0.8027-0.3188 1.5725-0.8864 2.1401-0.5676 0.5675-1.3374 0.8864-2.1401 0.8864s-1.5725-0.3189-2.1401-0.8864c-0.5675-0.5676-0.8864-1.3374-0.8864-2.1401z"/>
   <path d="m50.3 90.937v-56.207c0-0.8027 0.3189-1.5725 0.8865-2.1401 0.5675-0.5676 1.3373-0.8864 2.14-0.8864s1.5725 0.3188 2.1401 0.8864 0.8864 1.3374 0.8864 2.1401v56.207c0 0.8027-0.3188 1.5725-0.8864 2.1401-0.5676 0.5675-1.3374 0.8864-2.1401 0.8864s-1.5725-0.3189-2.14-0.8864c-0.5676-0.5676-0.8865-1.3374-0.8865-2.1401z"/>
   <path d="m43.058 90.937v-56.207c0-0.8027 0.3189-1.5725 0.8865-2.1401s1.3374-0.8864 2.14-0.8864c0.8027 0 1.5725 0.3188 2.1401 0.8864s0.8865 1.3374 0.8865 2.1401v56.207c0 0.8027-0.3189 1.5725-0.8865 2.1401-0.5676 0.5675-1.3374 0.8864-2.1401 0.8864-0.8026 0-1.5724-0.3189-2.14-0.8864-0.5676-0.5676-0.8865-1.3374-0.8865-2.1401z"/>
  </g>
  <path d="m316.48 180.71c-1.219 1e-3 -2.429-0.209-3.576-0.621l-0.177-0.064 0.082-0.391c-2.055-4.151-1.337-9.838 1.838-14.513 2.887-4.251 7.277-7.341 11.149-10.068 0.492-0.345 1.075-0.536 1.676-0.548 0.601-0.011 1.192 0.157 1.696 0.484s0.899 0.797 1.134 1.35 0.299 1.164 0.184 1.754l-1.384 7.105c-1 5.126-2.189 9.977-5.715 13.002-1.937 1.621-4.382 2.509-6.907 2.51z" fill="#E6E6E6"/>
  <path d="m325.55 192.99c-1.341-8e-3 -2.659-0.351-3.834-0.998-1.176-0.647-2.171-1.577-2.895-2.706l-0.1-0.156 0.239-0.211c0.619-3.38 3.534-6.392 7.446-7.687 3.557-1.178 7.483-0.985 10.944-0.816 0.457 0.023 0.898 0.18 1.266 0.453s0.646 0.649 0.8 1.08 0.176 0.899 0.064 1.343-0.353 0.845-0.693 1.151l-3.895 3.516c-2.83 2.554-5.652 4.86-9.057 5.025-0.095 4e-3 -0.19 6e-3 -0.285 6e-3z" fill="#E6E6E6"/>
  <path d="m313.47 196.75c-0.575-4.283-1.167-8.621-0.763-12.949 0.358-3.845 1.505-7.599 3.841-10.678 1.234-1.626 2.742-3.023 4.458-4.129 0.445-0.288 0.856 0.434 0.412 0.72-2.974 1.931-5.26 4.751-6.534 8.06-1.422 3.698-1.651 7.73-1.406 11.659 0.149 2.377 0.463 4.737 0.779 7.095 0.026 0.105 0.011 0.217-0.042 0.312s-0.14 0.167-0.243 0.201c-0.052 0.014-0.106 0.018-0.16 0.01-0.053-7e-3 -0.105-0.024-0.152-0.051-0.046-0.027-0.087-0.063-0.12-0.106s-0.057-0.092-0.07-0.144z" fill="#F2F2F2"/>
  <path d="m311.84 199.21c2.769-5.008 5.979-10.573 11.717-12.351 1.593-0.493 3.267-0.67 4.928-0.521 0.523 0.047 0.392 0.871-0.13 0.825-2.79-0.234-5.573 0.519-7.864 2.127-2.218 1.543-3.944 3.688-5.406 5.963-0.895 1.394-1.697 2.846-2.499 4.297-0.256 0.463-1.005 0.129-0.746-0.34z" fill="#F2F2F2"/>
  <path d="m310.6 199.14 2.796 0.064-16.854-90.033-2.795 0.526 4.401 23.356h-14.179l4.401-23.356-2.795-0.526-16.713 90.033 2.655-0.064 8.786-46.631h21.511l8.786 46.631zm-29.645-50.09 2.363-12.538h15.482l2.362 12.538h-20.207z" fill="#CACACA"/>
  <g fill="#F0F0F0">
   <path d="m188.55 92.371v-29.567c0-0.8779 1.358-1.592 3.026-1.592 1.669 0 3.027 0.7141 3.027 1.592v29.567c0 0.8778-1.358 1.592-3.027 1.592-1.668 0-3.026-0.7142-3.026-1.592z"/>
   <path d="m181.3 92.371v-29.567c0-0.8779 1.357-1.592 3.026-1.592s3.027 0.7141 3.027 1.592v29.567c0 0.8778-1.358 1.592-3.027 1.592s-3.026-0.7142-3.026-1.592z"/>
   <path d="m174.06 92.371v-29.567c0-0.8779 1.358-1.592 3.027-1.592 1.668 0 3.026 0.7141 3.026 1.592v29.567c0 0.8778-1.358 1.592-3.026 1.592-1.669 0-3.027-0.7142-3.027-1.592z"/>
  </g>
  <path d="m234.99 70.628c-0.014-0.0898-0.046-0.1759-0.095-0.2525s-0.113-0.142-0.189-0.1921l-22.817-15.063c0.344-0.1435 0.631-0.3954 0.819-0.7174 0.228-0.3976 0.289-0.8691 0.171-1.3118-0.119-0.4426-0.408-0.8203-0.804-1.0507l-1.872-1.0809c-0.398-0.2279-0.869-0.2893-1.312-0.1707s-0.82 0.4076-1.051 0.8038c-0.124 0.2177-0.199 0.4602-0.219 0.7103l-16.47-10.873c-0.553-1.3396-1.392-2.5425-2.457-3.5249-1.066-0.9824-2.333-1.7206-3.713-2.1633v-4.7941h-6.053v4.7941c-2.008 0.6422-3.761 1.9059-5.004 3.6087s-1.913 3.7566-1.914 5.865v1.2971h6.053c0 1.032 0.41 2.0218 1.14 2.7516 0.73 0.7297 1.72 1.1397 2.752 1.1397s2.021-0.41 2.751-1.1397c0.73-0.7298 1.14-1.7196 1.14-2.7516h6.053v-1.2971c-1e-3 -0.6217-0.059-1.2421-0.175-1.853l41.666 27.507-17.308 21.043c-0.134-6e-4 -0.268-0.0019-0.403-0.0019-1.381 0-2.719 0.0327-3.994 0.0889 0.077-0.2137 0.11-0.4406 0.099-0.6675-0.026-0.4575-0.231-0.8865-0.571-1.1933-0.341-0.3067-0.789-0.4663-1.246-0.4438l-2.159 0.1125c-0.458 0.0252-0.887 0.2305-1.194 0.5709-0.306 0.3405-0.466 0.7885-0.443 1.2462 0.015 0.2704 0.096 0.5331 0.234 0.7661-3.818 0.4057-6.291 0.965-6.291 1.2495 0 0.4662 6.642 0.0223 14.956 1e-3 0.038 0.1081 0.104 0.2041 0.192 0.2782 0.087 0.0741 0.193 0.1236 0.306 0.1434s0.229 0.0092 0.336-0.0306c0.108-0.0399 0.203-0.1077 0.275-0.1963l0.161-0.1946c8.289 0.0231 14.904 0.4641 14.904-0.0011 0-0.4387-5.881-1.5299-13.501-1.7049l17.106-20.798c0.058-0.0702 0.1-0.1518 0.125-0.2394 0.024-0.0876 0.029-0.1793 0.016-0.2692z" fill="#ccc"/>
  <path d="m235.61 199.35h-53.274c-1.077-2e-3 -2.109-0.43-2.87-1.191-0.761-0.762-1.189-1.794-1.191-2.87v-87.43c-1e-3 -0.962-0.383-1.885-1.064-2.565-0.68-0.68-1.602-1.063-2.564-1.064h-124.61c-0.9619 1e-3 -1.8842 0.384-2.5644 1.064s-1.0629 1.603-1.064 2.565v87.43c-0.0012 1.076-0.4294 2.108-1.1907 2.87-0.7613 0.761-1.7934 1.189-2.87 1.191h-1.8228c-1.0766-2e-3 -2.1088-0.43-2.87-1.191-0.7613-0.762-1.1895-1.794-1.1907-2.87v-92.14c0.0028-2.579 1.0287-5.0514 2.8524-6.8752 1.8238-1.8237 4.2965-2.8496 6.8757-2.8525h183.75c2.58 3e-3 5.052 1.0288 6.876 2.8526 1.824 1.8237 2.85 4.2961 2.853 6.8751v92.14c-2e-3 1.076-0.43 2.108-1.191 2.87-0.762 0.761-1.794 1.189-2.87 1.191z" fill="#E4E4E4"/>
  <path d="m239.46 116.12h-60.963v2.594h60.963v-2.594z" fill="#fff"/>
  <path d="m239.46 151.14h-60.963v2.594h60.963v-2.594z" fill="#fff"/>
  <path d="m128.03 92.996-1.752-0.7377-1.202-8.7834h-16.006l-1.303 8.7475-1.568 0.7838c-0.075 0.0375-0.135 0.0992-0.17 0.1752-0.036 0.0759-0.045 0.1616-0.025 0.2432 0.019 0.0816 0.065 0.1543 0.131 0.2064 0.066 0.052 0.147 0.0803 0.231 0.0803h21.519c0.086 0 0.17-0.0297 0.236-0.0841 0.067-0.0544 0.112-0.1302 0.129-0.2144 0.017-0.0843 5e-3 -0.1718-0.036-0.2477-0.04-0.076-0.105-0.1357-0.184-0.1691z" fill="#E6E6E6"/>
  <path d="m156.48 84.644h-78.626c-0.4126-9e-4 -0.8079-0.1654-1.0993-0.4574-0.2913-0.2921-0.455-0.6878-0.455-1.1003v-11.087h81.735v11.087c0 0.4125-0.163 0.8082-0.455 1.1002-0.291 0.2921-0.687 0.4566-1.099 0.4575z" fill="#ccc"/>
  <path d="m158.11 77.239h-81.888v-47.44c5e-4 -0.4979 0.1986-0.9752 0.5506-1.3272 0.3521-0.3521 0.8294-0.5501 1.3272-0.5506h78.132c0.498 5e-4 0.976 0.1985 1.328 0.5506 0.352 0.352 0.55 0.8293 0.55 1.3272v47.44z" fill="#3F3D56"/>
  <path d="m153.22 73.796h-72.107c-0.3838-4e-4 -0.7518-0.1531-1.0232-0.4245s-0.4241-0.6394-0.4245-1.0232v-39.536c4e-4 -0.3838 0.1531-0.7518 0.4245-1.0232s0.6394-0.4241 1.0232-0.4245h72.107c0.383 4e-4 0.751 0.1531 1.023 0.4245 0.271 0.2714 0.424 0.6394 0.424 1.0232v39.536c0 0.3838-0.153 0.7518-0.424 1.0232-0.272 0.2714-0.64 0.4241-1.023 0.4245z" fill="#fff"/>
  <path d="m234.05 35.903c0.689-0.0994 1.392-0.0463 2.06 0.1555 0.667 0.2017 1.281 0.5473 1.8 1.0123 0.519 0.4651 0.93 1.0382 1.204 1.6792 0.273 0.6409 0.403 1.3341 0.38 2.0306l15.809 6.0852-7.163 5.1175-13.914-6.5632c-1.168-0.1167-2.252-0.6576-3.047-1.5202-0.796-0.8626-1.247-1.987-1.269-3.1601-0.021-1.1731 0.388-2.3135 1.151-3.2049s1.826-1.4721 2.989-1.6319z" fill="#FFB8B8"/>
  <path d="m294.08 32.915 2.675 4.8626c-0.646 3.0842-2.317 5.8591-4.74 7.8737-4.095 3.4535-25.505 16.316-25.505 16.316l-27.031-13.57 4.729-6.2836 21.221 7.1119c7.872-7.4336 17.372-12.925 27.742-16.038l0.909-0.2728z" fill="#D5B26B"/>
  <path d="m289.11 113.38c11.651 0 21.095-3.078 21.095-6.874s-9.444-6.8737-21.095-6.8737c-11.65 0-21.095 3.0777-21.095 6.8737s9.445 6.874 21.095 6.874z" fill="#CACACA"/>
  <path d="m241.78 193.31-5.601-1.548 3.306-22.344 8.268 2.286-5.973 21.606z" fill="#FFB8B8"/>
  <path d="m241.71 199.14-18.062-4.993 0.064-0.228c0.515-1.865 1.75-3.448 3.433-4.402s3.675-1.2 5.54-0.685l11.032 3.049-2.007 7.259z" fill="#2F2E41"/>
  <path d="m225.54 193.38-5.317-2.348 6.525-21.623 7.847 3.465-9.055 20.506z" fill="#FFB8B8"/>
  <g fill="#2F2E41">
   <path d="m224.62 199.14-17.143-7.569 0.096-0.217c0.782-1.77 2.234-3.156 4.038-3.855s3.811-0.653 5.581 0.129l10.47 4.623-3.042 6.889z"/>
   <path d="m305.53 89.7s2.818 8.7307-14.472 19.772l-22.267 22.188-23.137 55.345-13.735-6.158 2.694-7.191 1.807-4.825 0.925-2.469 0.992-2.646 14.705-39.253 12.352-21.628 0.359-11.736 3.038-8.2726 22.043-7.8218 14.696 14.695z"/>
   <path d="m294.28 90.133s2.818 8.7307-14.472 19.772l-22.267 22.188-23.136 55.344-13.736-6.158 2.694-7.191 1.808-4.825 0.924-2.469 0.992-2.646 14.705-39.253 4.136-7.241c5.456-9.554 12.086-18.387 19.736-26.294l4.054-4.1912 0.433-6.4854 9.434-5.2459 14.695 14.695z"/>
  </g>
  <path d="m280.96 47.391 6.917-14.7 12.073-1.6468s9.426 12.01 6.951 28.886c-0.928 6.3284-1.684 12.629-1.729 18.159-0.012 1.4715 1.275 2.1286 1.297 3.4589 0.021 1.3068-2.44 3.4355-1.73 4.3236 1.016 1.224 1.621 2.7366 1.73 4.3236-0.857 2.0391-26.787-9.0078-37.686-7.3684l12.177-35.435z" fill="#D5B26B"/>
  <path d="m298.11 23.644c3.082-5.1837 1.377-11.884-3.806-14.965-5.184-3.0814-11.884-1.3772-14.966 3.8066-3.081 5.1837-1.377 11.884 3.807 14.965 5.183 3.0814 11.884 1.3771 14.965-3.8066z" fill="#FFB8B8"/>
  <path d="m295.7 14.144c-0.02 0.2873-0.049 0.6678-0.083 1.0983-0.034 1.1785 0.299 2.3385 0.951 3.3205 0.611 1.0331-0.118 7.2726-0.118 7.2726 17.886-12.468 3.753-24.993-1.775-23.88 0.115-1.5855-4.393-0.95741-4.393-0.95741-1.718-2.6754-5.483 0.87596-5.483 0.87596l0.726-1.2223c-2.923 0.74353-5.812 9.7779-5.812 9.7779 0.991 3.8976 16.103 2.1288 15.987 3.7143z" fill="#2F2E41"/>
  <path d="m226.32 53.174c6.146-8.1754 11.005-17.243 14.408-26.889 0.197-0.577 0.183-1.2052-0.04-1.7727-0.222-0.5676-0.639-1.0378-1.176-1.3268l-21.032-11.27c-0.341-0.1837-0.718-0.2873-1.105-0.303-0.386-0.0157-0.771 0.057-1.125 0.2125-0.36 0.1567-0.681 0.3936-0.936 0.6927s-0.439 0.6524-0.537 1.0332c-2.448 9.2947-7.049 17.883-13.432 25.069-0.263 0.2925-0.455 0.6411-0.563 1.0193s-0.128 0.7759-0.058 1.163c0.066 0.3809 0.219 0.7415 0.446 1.0545s0.522 0.5701 0.864 0.7516l21.032 11.27c0.538 0.2869 1.16 0.3735 1.756 0.2445s1.127-0.4652 1.498-0.9489z" fill="#ccc"/>
  <path d="m224.88 52.096c-0.113 0.1412-0.272 0.2385-0.449 0.2751s-0.362 0.0102-0.522-0.0747l-21.032-11.27c-0.102-0.0532-0.191-0.1294-0.258-0.2225-0.068-0.0931-0.113-0.2007-0.133-0.3143-0.022-0.1198-0.015-0.2432 0.018-0.3603 0.034-0.1171 0.095-0.2248 0.177-0.3147 6.571-7.398 11.308-16.239 13.828-25.808 0.029-0.1183 0.085-0.2281 0.164-0.321 0.079-0.093 0.178-0.1664 0.29-0.2146 0.105-0.0471 0.22-0.0692 0.335-0.0644s0.228 0.0362 0.329 0.0918l21.032 11.27c0.159 0.0861 0.284 0.2251 0.351 0.3931 0.068 0.168 0.075 0.3543 0.02 0.5268-3.342 9.4729-8.114 18.378-14.15 26.408z" fill="#fff"/>
  <g fill="#006753">
   <path d="m217.53 24.206 14.506 8.5028c1.444 0.846 2.751-1.3953 1.31-2.2399l-14.507-8.5029c-1.443-0.846-2.75 1.3953-1.309 2.24z"/>
   <path d="m214.93 28.962 14.507 8.5028c1.443 0.846 2.75-1.3953 1.309-2.2399l-14.506-8.5029c-1.444-0.846-2.751 1.3953-1.31 2.24z"/>
   <path d="m211.91 34.15 14.507 8.5029c1.443 0.846 2.75-1.3954 1.309-2.24l-14.507-8.5029c-1.443-0.846-2.75 1.3954-1.309 2.24z"/>
   <path d="m208.88 38.474 14.507 8.5028c1.443 0.846 2.75-1.3953 1.309-2.24l-14.506-8.5028c-1.444-0.846-2.751 1.3953-1.31 2.2399v1e-4z"/>
   <path d="m275.01 88.488 5.446 12.246c0.131 0.294 0.188 0.615 0.164 0.935s-0.128 0.63-0.302 0.9c-0.204 0.323-0.5 0.578-0.849 0.734-0.349 0.155-0.737 0.204-1.114 0.139-0.128-0.02-0.254-0.053-0.375-0.1-0.481-0.186-0.87-0.555-1.079-1.027l-5.447-12.246c-0.103-0.2335-0.16-0.4851-0.167-0.7405-6e-3 -0.2554 0.037-0.5096 0.129-0.7481 0.185-0.4817 0.554-0.8701 1.026-1.0797 0.471-0.2097 1.007-0.2235 1.488-0.0384 0.482 0.1852 0.87 0.5541 1.08 1.0255z"/>
  </g>
  <path d="m280.02 99.748 1.091 2.4722 0.558 3.504c0.037 0.23-4e-3 0.467-0.115 0.672-0.111 0.206-0.288 0.368-0.501 0.463s-0.452 0.117-0.679 0.062c-0.228-0.055-0.43-0.183-0.577-0.365l-2.257-2.809-1.076-2.418 3.556-1.5812z" fill="#3F3D56"/>
  <path d="m270.24 85.081 0.781 4.903c0.025 0.1605 0.087 0.313 0.181 0.4457s0.217 0.2421 0.36 0.3196 0.301 0.1212 0.464 0.1276c0.162 0.0064 0.324-0.0246 0.473-0.0907l0.773-0.344 1.494 3.3579c0.046 0.1046 0.133 0.1864 0.24 0.2274 0.106 0.041 0.225 0.0379 0.33-0.0086 0.105-0.0466 0.187-0.1327 0.228-0.2396s0.038-0.2258-8e-3 -0.3305l-1.494-3.358 0.774-0.3441c0.257-0.1142 0.457-0.3254 0.559-0.5873 0.101-0.2619 0.094-0.5533-0.019-0.8103-0.038-0.0851-0.087-0.1648-0.146-0.2372l-3.118-3.8635c-0.146-0.1818-0.349-0.3101-0.576-0.3648-0.227-0.0548-0.466-0.033-0.68 0.0619-0.213 0.095-0.389 0.2577-0.501 0.463-0.111 0.2054-0.152 0.4417-0.115 0.6725z" fill="#3F3D56"/>
  <path d="m272.5 93.931c0.123-0.686 0.395-1.3367 0.796-1.9064 0.402-0.5696 0.923-1.0443 1.528-1.3907 0.604-0.3463 1.278-0.5558 1.972-0.6138 0.695-0.0579 1.393 0.0371 2.047 0.2784l10.751-13.091 2.604 8.4091-10.609 11.142c-0.478 1.0715-1.332 1.9303-2.402 2.4137-1.069 0.4835-2.278 0.558-3.398 0.2095-1.121-0.3486-2.074-1.096-2.68-2.1007-0.606-1.0046-0.823-2.1967-0.609-3.3503z" fill="#FFB8B8"/>
  <path d="m286.04 93.08-4.735-6.8397 13.446-17.928-6.927-14.843 0.505-17.656 5.724-1.0574 0.071 0.0357c2.783 1.6018 4.934 4.1073 6.096 7.1005 1.428 3.5697 4.615 16.97 6.388 24.64 0.349 1.4863 0.31 3.0371-0.11 4.5045-0.421 1.4675-1.211 2.8027-2.294 3.8786l-18.164 18.164z" fill="#D5B26B"/>
  <path d="m152.72 60.031c-0.04 0.3322-0.053 0.667-0.04 1.0013l-24.243 17.638-6.661-2.9476-5.762 9.4702 11.284 6.364c0.911 0.5141 1.965 0.7187 3.003 0.5829 1.038-0.1357 2.003-0.6044 2.752-1.3356l24.4-23.833c1.249 0.3174 2.565 0.247 3.773-0.2018 1.208-0.4489 2.251-1.2548 2.99-2.3107s1.138-2.3116 1.146-3.6003c8e-3 -1.2886-0.377-2.549-1.103-3.6136-0.727-1.0645-1.76-1.8828-2.962-2.3459-1.203-0.4631-2.518-0.5491-3.771-0.2465-1.252 0.3025-2.383 0.9792-3.242 1.9401-0.858 0.9609-1.404 2.1605-1.564 3.4391z" fill="#FFB8B8"/>
  <path d="m127.65 79.315-7.07 11.781c-0.201 0.3352-0.472 0.6231-0.795 0.8441-0.322 0.221-0.689 0.3699-1.074 0.4366-0.385 0.0666-0.78 0.0495-1.158-0.0503-0.378-0.0997-0.73-0.2798-1.032-0.5279l-10.586-8.6936c-1.708-1.0391-2.935-2.7134-3.412-4.6557-0.476-1.9423-0.163-3.9943 0.871-5.7061s2.705-2.9437 4.646-3.4258c1.941-0.482 3.994-0.1748 5.708 0.8543l12.612 5.2312c0.361 0.1499 0.686 0.3758 0.952 0.6624 0.265 0.2866 0.466 0.6272 0.589 0.9984 0.122 0.3713 0.163 0.7646 0.12 1.1531-0.044 0.3885-0.17 0.7632-0.371 1.0984z" fill="#006753"/>
  <g fill="#CACACA">
   <path d="m97.356 181.71h13.858v-22.965h-13.858v22.965z"/>
   <path d="m110.52 170.9-1.779 2.621 33.26 22.569 1.779-2.621-33.26-22.569z"/>
   <path d="m98.051 170.9-33.26 22.569 1.7787 2.621 33.26-22.569-1.7787-2.621z"/>
   <path d="m142.89 199.14c2.405 0 4.355-1.95 4.355-4.355s-1.95-4.355-4.355-4.355c-2.406 0-4.356 1.95-4.356 4.355s1.95 4.355 4.356 4.355z"/>
   <path d="m104.09 199.14c2.406 0 4.356-1.95 4.356-4.355s-1.95-4.355-4.356-4.355c-2.405 0-4.3551 1.95-4.3551 4.355s1.9501 4.355 4.3551 4.355z"/>
   <path d="m65.681 199.14c2.4055 0 4.3555-1.95 4.3555-4.355s-1.95-4.355-4.3555-4.355c-2.4054 0-4.3554 1.95-4.3554 4.355s1.95 4.355 4.3554 4.355z"/>
   <path d="m105.67 172.21h-3.168v22.569h3.168v-22.569z"/>
   <path d="m101.32 169.04h5.939v-30.488h-5.939v30.488z"/>
  </g>
  <path d="m87.26 143.31v-7.127c0.0014-1.312 0.5234-2.57 1.4512-3.498 0.9279-0.928 2.1859-1.45 3.4981-1.451h26.529c1.312 1e-3 2.57 0.523 3.498 1.451s1.45 2.186 1.451 3.498v7.127c-1e-3 1.313-0.523 2.571-1.451 3.499-0.928 0.927-2.186 1.449-3.498 1.451h-26.529c-1.3122-2e-3 -2.5702-0.524-3.4981-1.451-0.9278-0.928-1.4498-2.186-1.4512-3.499z" fill="#3F3D56"/>
  <path d="m135.17 192.02 7.336-1e-3 3.491-19.028h-10.828l1e-3 19.029z" fill="#FFB8B8"/>
  <path d="m133.3 199.14 23.657-1e-3v-0.299c0-1.209-0.238-2.406-0.701-3.523-0.463-1.118-1.141-2.133-1.996-2.988s-1.87-1.533-2.987-1.996c-1.117-0.462-2.315-0.701-3.524-0.701h-1e-3l-14.448 1e-3v9.507z" fill="#2F2E41"/>
  <path d="m146.15 180.22 14.626-32.799c1.221-2.765 1.356-5.888 0.378-8.747-0.978-2.86-2.997-5.246-5.655-6.684l-31.726-17.012-14.477-1.231-13.354-1.214-0.0963 0.163c-0.1231 0.208-2.9944 5.167-1.0535 10.605 1.4722 4.125 5.3013 7.347 11.381 9.576 14.192 5.204 30.586 9.651 36.976 11.322 0.282 0.072 0.546 0.203 0.774 0.385 0.228 0.181 0.415 0.409 0.549 0.668 0.134 0.256 0.214 0.537 0.234 0.825s-0.02 0.578-0.117 0.85l-13.588 30.529c-0.142 0.387-0.193 0.802-0.149 1.212 0.043 0.41 0.18 0.804 0.401 1.153 0.22 0.349 0.517 0.642 0.869 0.858 0.352 0.215 0.748 0.347 1.159 0.385l10.153 0.739c0.086 9e-3 0.172 0.013 0.257 0.013 0.52-1e-3 1.029-0.151 1.465-0.435 0.436-0.283 0.781-0.686 0.993-1.161z" fill="#2F2E41"/>
  <path d="m130.39 192.02 7.336-1e-3 3.491-19.028h-10.828l1e-3 19.029z" fill="#FFB8B8"/>
  <path d="m128.52 199.14 23.657-1e-3v-0.299c0-1.209-0.238-2.406-0.701-3.523-0.463-1.118-1.141-2.133-1.996-2.988s-1.87-1.533-2.987-1.996c-1.117-0.462-2.315-0.701-3.524-0.701h-1e-3l-14.448 1e-3v9.507z" fill="#2F2E41"/>
  <path d="m140.76 182.02 14.626-32.799c1.221-2.764 1.357-5.887 0.379-8.747-0.978-2.859-2.998-5.246-5.656-6.683l-31.725-17.013-14.477-1.231-10.46-0.907 0.0015-0.144c-0.1232 0.208-2.9944 5.168-1.0536 10.606 1.4722 4.125 2.3093 7.346 8.3899 9.576 14.191 5.204 30.585 9.651 36.975 11.321 0.282 0.072 0.546 0.204 0.774 0.385 0.228 0.182 0.415 0.409 0.549 0.668 0.134 0.256 0.214 0.537 0.234 0.825 0.02 0.289-0.019 0.578-0.116 0.85l-13.589 30.529c-0.142 0.388-0.193 0.802-0.149 1.212 0.043 0.41 0.181 0.805 0.401 1.154 0.22 0.348 0.518 0.642 0.869 0.857 0.352 0.216 0.748 0.347 1.159 0.386l10.153 0.739c0.086 8e-3 0.172 0.012 0.258 0.012 0.52 0 1.028-0.151 1.465-0.434 0.436-0.283 0.78-0.687 0.992-1.162z" fill="#2F2E41"/>
  <path d="m131.59 40.745c1.878-7.8974-3.001-15.822-10.899-17.7-7.897-1.8782-15.822 3.0014-17.7 10.899s3.002 15.822 10.899 17.7 15.822-3.0015 17.7-10.899z" fill="#FFB8B8"/>
  <path d="m167.95 93.816c6.146-8.1754 11.005-17.243 14.407-26.889 0.197-0.5769 0.183-1.2051-0.039-1.7727-0.223-0.5676-0.64-1.0378-1.177-1.3268l-21.032-11.27c-0.34-0.1837-0.718-0.2873-1.104-0.303-0.387-0.0157-0.771 0.057-1.126 0.2125-0.36 0.1567-0.68 0.3936-0.935 0.6927-0.256 0.2991-0.439 0.6525-0.537 1.0332-2.448 9.2947-7.05 17.883-13.433 25.069-0.263 0.2925-0.455 0.6411-0.563 1.0192-0.107 0.3782-0.127 0.776-0.058 1.163 0.066 0.3809 0.219 0.7416 0.446 1.0546s0.523 0.57 0.864 0.7515l21.032 11.27c0.538 0.2868 1.161 0.3735 1.757 0.2445s1.126-0.4653 1.498-0.949z" fill="#ccc"/>
  <path d="m166.52 92.738c-0.113 0.1412-0.272 0.2385-0.449 0.2751s-0.361 0.0102-0.521-0.0746l-21.033-11.27c-0.102-0.0533-0.19-0.1294-0.258-0.2226-0.068-0.0931-0.113-0.2007-0.132-0.3142-0.022-0.1199-0.016-0.2432 0.018-0.3604 0.033-0.1171 0.094-0.2248 0.176-0.3146 6.571-7.3981 11.308-16.239 13.828-25.808 0.029-0.1182 0.086-0.2281 0.164-0.321 0.079-0.0929 0.178-0.1664 0.29-0.2146 0.105-0.0471 0.22-0.0691 0.335-0.0644 0.116 0.0048 0.228 0.0362 0.329 0.0919l21.032 11.27c0.16 0.0861 0.284 0.2251 0.352 0.3931 0.067 0.1679 0.074 0.3542 0.019 0.5267-3.342 9.4729-8.113 18.378-14.15 26.408z" fill="#fff"/>
  <g fill="#ccc">
   <path d="m159.16 64.848 14.507 8.5029c1.443 0.846 2.75-1.3953 1.309-2.24l-14.507-8.5029c-1.443-0.846-2.75 1.3954-1.309 2.24z"/>
   <path d="m156.56 69.604 14.506 8.5029c1.444 0.846 2.751-1.3953 1.31-2.24l-14.507-8.5029c-1.443-0.846-2.75 1.3954-1.309 2.24z"/>
   <path d="m154.53 74.341 13.193 7.8321c1.312 0.7793 2.716-0.8318 1.406-1.6098l-13.194-7.8321c-1.312-0.7792-2.716 0.8318-1.405 1.6098z"/>
   <path d="m150.51 79.116 14.507 8.5028c1.443 0.846 2.75-1.3953 1.309-2.24l-14.507-8.5028c-1.443-0.846-2.75 1.3953-1.309 2.24z"/>
  </g>
  <path d="m125.76 116.17-29.086-0.174-8e-3 -0.207c-0.5545-14.594 1.229-27.814 5.4532-40.415 0.059-0.4717 0.124-0.9758 0.187-1.4707 0.722-5.6375 1.294-10.114 6.655-11.78-0.446-0.5939-0.71-1.3054-0.757-2.047-0.034-0.4928 0.031-0.9874 0.19-1.455 0.159-0.4677 0.41-0.8989 0.737-1.2687 0.314-0.3572 0.695-0.6484 1.122-0.8568 0.427-0.2083 0.891-0.3296 1.366-0.3567l10.353-0.3526c0.544-0.0037 1.073 0.1758 1.503 0.5096 0.788 0.5856 1.342 1.4326 1.562 2.3894 0.221 0.9568 0.094 1.9609-0.359 2.8323-0.122 0.2428-0.168 0.3534-0.186 0.4016 0.368 1.9283 1.46 4.2189 2.616 6.6429 1.654 3.4707 3.53 7.4041 4.012 11.612 0.26 2.2721 0.152 4.5715-0.321 6.8092-0.215 1.2058-0.265 2.4355-0.147 3.6548 0.094 1.808 0.183 3.515-0.838 5.1659-0.261 0.4476-0.559 0.9247-0.909 1.4533l-1.437 3.4364-1.708 15.476z" fill="#006753"/>
  <path d="m82.112 136.6v-59.433c0.0022-1.9367 0.7725-3.7934 2.1419-5.1628 1.3695-1.3695 3.2262-2.1398 5.1629-2.1419h2.0203c1.9367 0.0021 3.7934 0.7724 5.1628 2.1419 1.3695 1.3694 2.1398 3.2261 2.142 5.1628v59.433c-0.0022 1.936-0.7725 3.793-2.142 5.163-1.3694 1.369-3.2261 2.139-5.1628 2.142h-2.0203c-1.9367-3e-3 -3.7934-0.773-5.1629-2.142-1.3694-1.37-2.1397-3.227-2.1419-5.163z" fill="#3F3D56"/>
  <path d="m160.11 83.095c-0.209 0.2614-0.397 0.5388-0.562 0.8297l-29.901 2.1833-4.101-6.0192-9.893 5.0018 6.224 11.361c0.503 0.9179 1.29 1.6479 2.243 2.0803 0.953 0.4325 2.021 0.5442 3.043 0.3183l33.304-7.3626c0.893 0.9288 2.048 1.5637 3.311 1.8201s2.574 0.1223 3.759-0.3846c1.185-0.5068 2.187-1.3624 2.874-2.4528 0.686-1.0905 1.025-2.3641 0.97-3.6516s-0.5-2.5278-1.277-3.5559-1.849-1.7953-3.072-2.1995c-1.224-0.4043-2.542-0.4264-3.778-0.0635-1.237 0.3629-2.333 1.0936-3.144 2.095z" fill="#FFB8B8"/>
  <path d="m128.64 86.241-12.223 6.2742c-0.348 0.1785-0.73 0.2799-1.121 0.2974s-0.78-0.0494-1.143-0.1961c-0.362-0.1467-0.688-0.3698-0.957-0.654-0.268-0.2843-0.472-0.623-0.598-0.9932l-4.401-12.971c-0.903-1.7807-1.064-3.8464-0.447-5.7452 0.616-1.8989 1.96-3.4763 3.736-4.3874-5.419 2.7812 5.866-5.1189 10.173 3.272l7.951 11.1c0.227 0.3179 0.384 0.6811 0.458 1.0648 0.075 0.3838 0.066 0.7791-0.026 1.159-0.093 0.38-0.265 0.7356-0.507 1.0427s-0.547 0.5585-0.895 0.737z" fill="#006753"/>
  <path d="m110.65 51.64c-0.885 0-1.861-0.4265-2.962-1.2904-3.238-2.5429-5.553-6.078-6.589-10.063s-0.736-8.2 0.854-11.998c0.8-1.9114 2.297-4.5094 4.882-6.0319 1.859-1.094 4.042-1.4892 5.943-1.7738 1.645-0.2466 3.311-0.4429 4.952-0.5827 1.96-0.1676 4.224-0.2808 6.289 0.5037 1.513 0.5751 2.801 1.5906 4.046 2.5727 0.434 0.3419 0.883 0.6962 1.333 1.0239 1.089 0.8497 2.345 1.4599 3.687 1.7906 0.283 0.0587 0.55 0.1774 0.783 0.3483 0.233 0.1708 0.427 0.3897 0.568 0.6418 0.145 0.2563 0.232 0.5406 0.257 0.8337 0.025 0.293-0.013 0.588-0.112 0.8649-0.195 0.5447-0.37 1.0358-0.015 1.5678 0.131 0.1874 0.307 0.3397 0.511 0.4437 0.204 0.1039 0.43 0.1563 0.659 0.1525 0.121-2e-3 0.24 0.0262 0.347 0.0821s0.199 0.1377 0.266 0.2379c0.069 0.0993 0.112 0.2139 0.126 0.3337s-2e-3 0.2413-0.046 0.3537l-0.057 0.1465c0.153 0.0142 0.299 0.0651 0.427 0.1485 0.128 0.0833 0.234 0.1965 0.309 0.3299 0.111 0.1899 0.154 0.4119 0.121 0.6295-0.032 0.2176-0.138 0.4176-0.299 0.5671-1.312 1.2485-2.947 2.1044-4.72 2.4704-1.214 0.2381-2.463 0.2352-3.675-0.0084l-0.195-0.038 0.024-0.2162c-4.905-1.7493-9.332 1.2194-11.856 4.6132l-0.365-0.2301c0.063-0.1265 0.099-0.2643 0.107-0.4052s-0.012-0.282-0.06-0.4147c-0.051-0.1593-0.133-0.307-0.241-0.4347-0.108-0.1276-0.24-0.2328-0.389-0.3093-0.3-0.124-0.631-0.1562-0.95-0.0926-0.319 0.0637-0.611 0.2203-0.841 0.4502-0.235 0.2455-0.415 0.537-0.53 0.8561-0.116 0.319-0.163 0.6586-0.14 0.9971 0.066 0.7174 0.249 1.4192 0.541 2.0778 0.118 0.3149 0.241 0.6409 0.341 0.9694 0.559 1.8661 0.41 3.8727-0.418 5.6359-0.382 0.8043-1.073 1.8299-2.195 2.1478-0.234 0.066-0.475 0.0993-0.718 0.0989z" fill="#2F2E41"/>
  <path d="m349.56 200h-349.04c-0.13628 0-0.26683-0.055-0.36306-0.151-0.096223-0.097-0.15026-0.227-0.15026-0.364 0-0.136 0.054037-0.267 0.15026-0.363 0.096222-0.097 0.22678-0.151 0.36306-0.152h349.04c0.137 0 0.268 0.055 0.364 0.151 0.097 0.097 0.151 0.228 0.151 0.364 0 0.137-0.054 0.268-0.151 0.364-0.096 0.097-0.227 0.151-0.364 0.151z" fill="#CACACA"/>
 </g>
 <defs>
  <clipPath id="clip0_198_4601">
   <rect width="350.07" height="200" fill="#fff"/>
  </clipPath>
 </defs>
</svg>
