<svg fill="none" save-fill="" version="1.1" viewBox="0 0 257 200" xmlns="http://www.w3.org/2000/svg">
 <g clip-path="url(#clip0_112_170)">
  <path d="m226.41 186c-0.018-0.083-1.83-8.342 1.869-15.201 3.699-6.86 11.595-9.885 11.674-9.914l0.361-0.136 0.085 0.376c0.019 0.083 1.83 8.342-1.869 15.201-3.699 6.86-11.594 9.885-11.674 9.915l-0.361 0.135-0.085-0.376zm13.409-24.333c-1.582 0.68-7.823 3.658-10.947 9.451-3.125 5.794-2.182 12.646-1.882 14.34 1.581-0.679 7.821-3.651 10.948-9.451 3.124-5.794 2.182-12.645 1.881-14.34z" fill="#D5B26B"/>
  <path d="m214 96c0.02 12.538-2.592 24.94-7.667 36.404-0.164 0.37-0.33 0.738-0.498 1.104-0.083 0.184-0.169 0.366-0.254 0.55-0.085 0.182-0.17 0.366-0.258 0.548-0.112 0.235-0.224 0.469-0.339 0.702-0.141 0.294-0.285 0.586-0.433 0.878-0.018 0.04-0.038 0.081-0.061 0.121-0.123 0.247-0.246 0.494-0.374 0.741-0.027 0.053-0.054 0.107-0.083 0.159-0.146 0.287-0.297 0.575-0.449 0.86v2e-3c-0.162 0.303-0.324 0.605-0.487 0.907-0.404 0.745-0.82 1.483-1.246 2.215-0.128 0.217-0.254 0.435-0.384 0.651-0.119 0.202-0.238 0.401-0.359 0.601-0.083 0.139-0.166 0.276-0.251 0.413-0.135 0.222-0.272 0.444-0.411 0.667-2e-3 2e-3 -2e-3 2e-3 -2e-3 4e-3 -0.308 0.494-0.622 0.985-0.938 1.472h-3e-3c-0.146 0.227-0.294 0.452-0.442 0.676v2e-3c-0.446 0.674-0.902 1.34-1.367 2v2e-3c-1e-3 0-3e-3 1e-3 -4e-3 3e-3v2e-3l-5e-3 4e-3c-0.368 0.528-0.743 1.051-1.126 1.569v2e-3c-0.245 0.333-0.492 0.665-0.741 0.992-0.204 0.27-0.411 0.538-0.619 0.806-0.043 0.058-0.088 0.115-0.135 0.173v2e-3c-0.056 0.074-0.112 0.146-0.173 0.22v2e-3c-0.886 1.134-1.8 2.245-2.74 3.333h-2e-3c-0.05 0.061-0.101 0.119-0.153 0.178-0.049 0.058-0.103 0.116-0.155 0.177h-2e-3c-0.079 0.092-0.16 0.184-0.24 0.276-0.079 0.092-0.162 0.184-0.245 0.276v2e-3c-4.902 5.531-10.465 10.438-16.564 14.611-0.812 0.559-1.635 1.103-2.468 1.632-0.207 0.132-0.413 0.262-0.622 0.393-0.063 0.042-0.126 0.08-0.189 0.119-0.11 0.069-0.222 0.139-0.334 0.208-0.11 0.068-0.222 0.137-0.334 0.205-0.447 0.273-0.898 0.543-1.349 0.808-0.113 0.067-0.227 0.132-0.341 0.199-0.113 0.065-0.227 0.13-0.342 0.196-1e-3 2e-3 -3e-3 4e-3 -5e-3 5e-3 -3e-3 2e-3 -5e-3 3e-3 -8e-3 4e-3l-5e-3 2e-3 -4e-3 4e-3h-2e-3c-0.566 0.326-1.134 0.647-1.708 0.956-1.028 0.561-2.067 1.102-3.115 1.623-0.261 0.13-0.523 0.258-0.786 0.386-0.218 0.106-0.438 0.211-0.655 0.314-0.061 0.03-0.119 0.059-0.18 0.086-0.182 0.085-0.364 0.17-0.545 0.253-0.198 0.095-0.398 0.184-0.595 0.274-0.222 0.101-0.442 0.2-0.664 0.299-0.835 0.372-1.679 0.731-2.525 1.077-3.023 1.238-6.112 2.306-9.254 3.2-0.146 0.043-0.294 0.086-0.442 0.126-1.344 0.377-2.699 0.722-4.062 1.035-2.382 0.547-4.785 0.997-7.209 1.349-5e-3 0-0.012 2e-3 -0.016 2e-3 -0.29 0.042-0.581 0.083-0.871 0.123-0.025 5e-3 -0.052 9e-3 -0.078 0.011-3e-3 3e-3 -5e-3 3e-3 -9e-3 0 0 0 0 3e-3 -3e-3 0-0.321 0.043-0.642 0.086-0.965 0.126-0.022 5e-3 -0.045 7e-3 -0.067 9e-3 -0.301 0.036-0.604 0.072-0.907 0.106-0.325 0.036-0.651 0.069-0.978 0.103-0.25 0.025-0.499 0.049-0.748 0.072-0.022 4e-3 -0.045 6e-3 -0.067 6e-3 -0.227 0.021-0.453 0.041-0.68 0.059-9e-3 0-0.02 2e-3 -0.029 2e-3 -0.198 0.018-0.395 0.031-0.593 0.047-2.323 0.184-4.668 0.275-7.036 0.274-2.57 0-5.113-0.107-7.631-0.321-9e-3 0-0.018-2e-3 -0.027-2e-3 -0.536-0.045-1.072-0.094-1.607-0.148-0.141-0.014-0.28-0.03-0.422-0.043-0.027-2e-3 -0.054-4e-3 -0.081-9e-3 -0.042-4e-3 -0.085-9e-3 -0.13-0.013-0.022-3e-3 -0.047-5e-3 -0.069-9e-3 -0.187-0.021-0.373-0.041-0.561-0.063-0.209-0.025-0.42-0.05-0.629-0.077-0.209-0.024-0.42-0.051-0.628-0.08-0.045-5e-3 -0.092-9e-3 -0.137-0.018-0.153-0.018-0.305-0.038-0.456-0.061-0.074-9e-3 -0.146-0.02-0.218-0.031-0.145-0.021-0.289-0.041-0.435-0.063-4e-3 0-0.011-2e-3 -0.016-2e-3 -4.583-0.662-9.107-1.682-13.531-3.051h-0.0022c-0.2401-0.074-0.4803-0.15-0.7204-0.226-0.0719-0.02-0.1437-0.043-0.2155-0.068-0.6239-0.199-1.2441-0.406-1.8606-0.619-0.8506-0.292-1.6953-0.597-2.5339-0.916-0.2289-0.087-0.4556-0.175-0.6846-0.262-0.4556-0.18-0.9089-0.359-1.3601-0.543-0.7698-0.315-1.5344-0.639-2.2937-0.972h-0.0023v-3e-3c-0.7092-0.311-1.4132-0.633-2.1119-0.965-0.0207-6e-3 -0.0403-0.015-0.0584-0.027-0.0022 0-0.0022-2e-3 -0.0045-2e-3 -0.1548-0.072-0.3097-0.146-0.4646-0.22l-0.0044-2e-3c-3.8497-1.845-7.5618-3.965-11.108-6.343-1.1379-0.76-2.2564-1.547-3.3554-2.358-0.8865-0.654-1.7603-1.323-2.6214-2.009-4.2893-3.409-8.2588-7.202-11.859-11.332h-0.0022v-2e-3c-0.2536-0.29-0.5005-0.577-0.7519-0.869v-2e-3c-0.0359-0.041-0.0695-0.081-0.1032-0.121-0.1594-0.187-0.3142-0.371-0.4691-0.559v-2e-3c-0.211-0.25-0.4174-0.499-0.6194-0.75-0.0449-0.054-0.0876-0.106-0.1302-0.159h-0.0023v-3e-3c-0.166-0.202-0.3299-0.406-0.4915-0.61-0.083-0.101-0.1638-0.204-0.2446-0.308h-0.0023v-2e-3c-0.4892-0.617-0.9688-1.24-1.4386-1.869v-3e-3c-0.1302-0.173-0.2581-0.345-0.3838-0.52h-0.0022c-0.6015-0.813-1.1873-1.635-1.7574-2.467v-2e-3c-0.2155-0.312-0.4287-0.626-0.6396-0.943-0.211-0.316-0.4197-0.634-0.6262-0.952h-0.0023c-0.2132-0.327-0.4242-0.656-0.6329-0.987-0.0112-0.018-0.0224-0.034-0.0314-0.049-0.2065-0.326-0.41-0.654-0.6105-0.983-0.1616-0.263-0.3209-0.523-0.4758-0.786-0.1077-0.177-0.2132-0.352-0.3164-0.532-0.0382-0.061-0.0719-0.121-0.1055-0.179-0.2379-0.407-0.4714-0.813-0.7048-1.221-0.2715-0.481-0.5409-0.965-0.8035-1.45-0.1077-0.2-0.2154-0.402-0.3209-0.604-0.0382-0.065-0.0718-0.13-0.1055-0.198-0.1257-0.237-0.2514-0.475-0.3748-0.715-0.1234-0.238-0.2469-0.479-0.3681-0.719s-0.2424-0.48-0.3613-0.722c-0.0898-0.182-0.1796-0.366-0.2671-0.548-0.0091-0.015-0.0174-0.031-0.0247-0.047-0.0404-0.085-0.083-0.168-0.1212-0.254-9e-3 -0.013-0.0158-0.027-0.0202-0.042-0.092-0.189-0.1818-0.375-0.2693-0.564-0.1167-0.242-0.2289-0.487-0.3412-0.731-0.0808-0.171-0.1571-0.344-0.2356-0.517-0.1122-0.242-0.2222-0.487-0.33-0.734-0.1144-0.253-0.2244-0.509-0.3344-0.765-0.0291-0.065-0.0561-0.128-0.083-0.193-0.0516-0.117-0.101-0.233-0.1504-0.35-0.1324-0.31-0.2626-0.624-0.3905-0.936-0.1459-0.352-0.2881-0.705-0.4265-1.059-0.1324-0.33-0.2611-0.661-0.386-0.992l-0.0471-0.122v-2e-3c-1.9502-5.125-3.4257-10.419-4.408-15.814v-2e-3c-0.5601-3.08-0.9586-6.188-1.194-9.31-0.0135-0.17-0.0247-0.341-0.0359-0.511-0.1481-2.112-0.2207-4.2326-0.2177-6.361 0-0.9449 0.015-1.8853 0.0449-2.8212 0.5819-19.567 7.5569-38.404 19.858-53.632 0.5409-0.6711 1.0915-1.3339 1.6519-1.9885 16.505-19.315 41.045-31.558 68.445-31.558 32.034 0 60.161 16.736 76.107 41.943 0.831 1.3063 1.625 2.6364 2.384 3.9906 7.569 13.452 11.534 28.631 11.509 44.066z" fill="#F2F2F2"/>
  <path d="m124.18 34.589c-15.538 4.0873-32.755 6.5736-50.262 7.2544-2.5656 0.1397-5.1373 0.1222-7.7008-0.0524-5.6334-0.4738-10.459-2.2444-15.833-3.212-2.5836-0.4638-5.4614-0.803-8.0624-1.3042 0.601-0.7456 1.2128-1.4821 1.8354-2.2095 5.6085 0.4738 11.304 2.0249 16.98 2.7456 9.6484 1.227 20.459-0.1421 27.773-3.5187 3.5486-1.6384 6.2668-3.6832 9.803-5.3291 0.4809-0.2469 1.0019-0.4065 1.539-0.4714 1.119-0.1022 2.102 0.3492 2.902 0.7532 5.933 2.995 14.547 5.4289 22.542 4.0897 0.596 0.4664-0.537 0.9975-1.517 1.2544z" fill="#fff"/>
  <path d="m205.86 84.112c-15.539 4.0873-32.756 6.5736-50.262 7.2544-2.566 0.1398-5.137 0.1223-7.701-0.0524-5.633-0.4738-10.459-2.2444-15.833-3.2119-2.583-0.4639-5.461-0.803-8.062-1.3043 0.601-0.7456 1.213-1.4821 1.835-2.2095 5.609 0.4739 11.305 2.025 16.98 2.7457 9.649 1.2269 20.459-0.1422 27.774-3.5187 3.548-1.6384 6.266-3.6833 9.803-5.3292 0.481-0.2469 1.001-0.4065 1.538-0.4713 1.12-0.1023 2.102 0.3491 2.903 0.7531 5.933 2.995 14.546 5.4289 22.541 4.0898 0.596 0.4663-0.536 0.9975-1.516 1.2543z" fill="#fff"/>
  <path d="m235.7 173.92c-6.647 3.999-9.207 11.942-9.207 11.942s8.217 1.46 14.864-2.539 9.207-11.942 9.207-11.942-8.217-1.46-14.864 2.539z" fill="#D0CDE1"/>
  <path d="m91.286 149.86c-0.7905 0-1.5889-0.013-2.3727-0.037l0.0178-0.569c1.1254 0.035 2.2739 0.045 3.4046 0.029l0.0078 0.57c-0.352 4e-3 -0.7045 7e-3 -1.0575 7e-3zm4.4857-0.132-0.0334-0.569c1.1271-0.066 2.2686-0.16 3.3929-0.278l0.0596 0.567c-1.133 0.119-2.2831 0.213-3.4191 0.28zm-10.284-0.089c-1.1365-0.087-2.285-0.201-3.4137-0.34l0.0695-0.565c1.1201 0.137 2.2597 0.251 3.3876 0.337l-0.0434 0.568zm17.105-0.626-0.085-0.564c1.12-0.17 2.248-0.367 3.353-0.586l0.111 0.558c-1.113 0.221-2.25 0.42-3.379 0.592zm-23.912-0.209c-1.1227-0.19-2.256-0.409-3.3684-0.65l0.1209-0.557c1.1039 0.239 2.2284 0.456 3.3427 0.645l-0.0952 0.562zm30.64-1.129-0.137-0.553c1.099-0.272 2.204-0.572 3.285-0.893l0.162 0.547c-1.089 0.323-2.203 0.626-3.31 0.899zm-37.344-0.326c-1.1013-0.293-2.2096-0.615-3.2941-0.958l0.1717-0.544c1.0763 0.341 2.1761 0.66 3.2688 0.951l-0.1464 0.551zm43.92-1.624-0.187-0.539c1.066-0.37 2.139-0.771 3.189-1.191l0.211 0.529c-1.057 0.423-2.138 0.827-3.213 1.201zm-50.468-0.447c-1.0696-0.393-2.1459-0.817-3.1987-1.261l0.2212-0.525c1.0447 0.44 2.1127 0.861 3.1742 1.252l-0.1967 0.534zm56.83-2.099-0.236-0.519c1.025-0.465 2.054-0.962 3.061-1.476l0.259 0.507c-1.014 0.518-2.052 1.019-3.084 1.488zm6.097-3.116-0.282-0.495c0.982-0.561 1.963-1.15 2.914-1.752l0.304 0.482c-0.958 0.606-1.946 1.2-2.936 1.765zm5.79-3.663-0.326-0.467c0.925-0.646 1.848-1.323 2.743-2.012l0.348 0.452c-0.903 0.694-1.833 1.376-2.765 2.027zm-86.844-0.803c-0.9197-0.668-1.8384-1.367-2.7308-2.08l0.3556-0.445c0.8856 0.707 1.7973 1.401 2.7099 2.064l-0.3347 0.461zm92.279-3.375-0.368-0.435c0.863-0.728 1.721-1.486 2.551-2.254l0.387 0.419c-0.837 0.773-1.701 1.537-2.57 2.27zm-97.643-0.907c-0.8565-0.75-1.7074-1.53-2.529-2.319l0.3945-0.411c0.8155 0.783 1.6599 1.557 2.5098 2.301l-0.3753 0.429zm102.68-3.75-0.406-0.4c0.795-0.805 1.581-1.639 2.336-2.477l0.424 0.381c-0.761 0.845-1.553 1.685-2.354 2.496zm-107.63-1c-0.7859-0.826-1.562-1.681-2.3068-2.539l0.4305-0.373c0.739 0.852 1.5091 1.699 2.2891 2.519l-0.4128 0.393zm112.22-4.097-0.44-0.362c0.718-0.873 1.425-1.775 2.102-2.68l0.456 0.341c-0.682 0.912-1.394 1.821-2.118 2.701zm-116.71-1.082c-0.7057-0.891-1.4006-1.812-2.0654-2.736l0.4624-0.333c0.6598 0.917 1.3494 1.831 2.0498 2.716l-0.4468 0.353zm120.82-4.415-0.471-0.32c0.635-0.935 1.257-1.898 1.849-2.862l0.486 0.298c-0.597 0.971-1.224 1.942-1.864 2.884zm-124.83-1.148c-0.6208-0.951-1.2285-1.931-1.8062-2.911l0.4908-0.29c0.5734 0.973 1.1764 1.945 1.7926 2.89l-0.4772 0.311zm128.42-4.703-0.499-0.276c0.547-0.99 1.079-2.006 1.58-3.022l0.511 0.253c-0.505 1.023-1.041 2.047-1.592 3.045zm3.043-6.16-0.522-0.229c0.454-1.037 0.89-2.099 1.296-3.156l0.532 0.204c-0.409 1.066-0.849 2.136-1.306 3.181zm-137.86-1.23c-0.4368-1.048-0.8551-2.121-1.2432-3.188l0.5355-0.195c0.3851 1.06 0.8002 2.124 1.2335 3.164l-0.5258 0.219zm140.33-5.1894-0.541-0.1792c0.355-1.0714 0.691-2.1665 0.997-3.2551l0.549 0.1541c-0.309 1.097-0.647 2.2007-1.005 3.2802zm-142.67-1.2486c-0.339-1.0859-0.6576-2.1952-0.9468-3.2975l0.5512-0.1447c0.2869 1.094 0.6031 2.1949 0.9395 3.2725l-0.5439 0.1697zm144.52-5.3547-0.555-0.129c0.255-1.0982 0.488-2.2197 0.693-3.3328l0.56 0.1029c-0.206 1.1221-0.441 2.2519-0.698 3.3589zm-146.26-1.2803c-0.2376-1.1129-0.4526-2.2466-0.639-3.3704l0.562-0.0935c0.1851 1.1154 0.3985 2.2405 0.6343 3.3448l-0.5573 0.1191zm147.51-5.4654-0.565-0.0773c0.153-1.116 0.282-2.2539 0.385-3.3823l0.567 0.0511c-0.103 1.1374-0.233 2.284-0.387 3.4085zm-148.63-1.3009c-0.1343-1.1279-0.2447-2.2767-0.328-3.4144l0.5684-0.0417c0.0825 1.1293 0.1921 2.2692 0.3255 3.3887l-0.5659 0.0674zm149.25-5.5297-0.569-0.0256c0.051-1.129 0.076-2.2741 0.076-3.4034h0.57c0 1.1379-0.026 2.2917-0.077 3.429zm-149.75-1.3109c-0.0195-0.6986-0.0294-1.4114-0.0295-2.1181 0-0.4385 0.0037-0.8761 0.0112-1.3129l0.5698 0.01c-0.0075 0.4334-0.0112 0.8677-0.0112 1.3029 1e-4 0.7014 0.01 1.4089 0.0292 2.1025l-0.5695 0.0156zm0.6868-6.8227-0.5687-0.0356c0.0711-1.1385 0.1693-2.2883 0.2915-3.4178l0.5665 0.0614c-0.1214 1.1209-0.2187 2.262-0.2893 3.392zm148.2-3.4762c-0.114-1.1233-0.271-1.671-0.436-2.7894l0.564-0.0832c0.166 1.1269 0.309 1.9872 0.424 3.119l-0.552-0.2464zm-147.47-3.2909-0.5631-0.0871c0.1746-1.1272 0.3774-2.2633 0.6029-3.3772l0.5584 0.113c-0.2237 1.1053-0.425 2.2328-0.5982 3.3513zm146.46-2.8534c-0.217-1.1115-0.463-2.2304-0.729-3.3255l0.554-0.1346c0.268 1.1034 0.515 2.2309 0.734 3.3507l-0.559 0.1094zm-145.11-3.8181-0.5527-0.1385c0.2767-1.1036 0.5831-2.2163 0.9109-3.3075l0.5456 0.1639c-0.3251 1.0828-0.6292 2.1871-0.9038 3.2821zm143.5-2.7958c-0.318-1.0849-0.665-2.1762-1.032-3.244l0.538-0.1853c0.37 1.076 0.72 2.1759 1.041 3.269l-0.547 0.1603zm-141.54-3.7322-0.5375-0.1889c0.3787-1.0771 0.7875-2.1594 1.2151-3.2168l0.5284 0.2137c-0.4245 1.0492-0.8302 2.1232-1.206 3.192zm139.32-2.705c-0.416-1.0486-0.861-2.101-1.323-3.128l0.519-0.234c0.466 1.035 0.915 2.0954 1.334 3.152l-0.53 0.21zm-136.77-3.6189-0.5177-0.2379c0.4759-1.0364 0.9824-2.0757 1.5054-3.0889l0.5064 0.2612c-0.5192 1.0056-1.0218 2.037-1.4941 3.0656zm133.98-2.5743c-0.51-1.0059-1.05-2.0139-1.606-2.9956l0.496-0.2807c0.56 0.9894 1.104 2.005 1.618 3.0187l-0.508 0.2576zm-130.85-3.4841-0.4939-0.2843c0.5684-0.987 1.1678-1.975 1.7817-2.9362l0.4802 0.3066c-0.6091 0.954-1.2041 1.9344-1.768 2.9139zm127.5-2.4316c-0.602-0.9585-1.233-1.9134-1.874-2.8382l0.468-0.3246c0.646 0.9318 1.282 1.8939 1.888 2.8598l-0.482 0.303zm-123.84-3.3116-0.4658-0.3283c0.6569-0.9316 1.3437-1.8601 2.0417-2.7599l0.4502 0.3492c-0.6926 0.8931-1.3744 1.8145-2.0261 2.739zm119.96-2.2769c-0.687-0.8994-1.402-1.7934-2.126-2.6573l0.437-0.366c0.729 0.8706 1.45 1.7713 2.142 2.6775l-0.453 0.3458zm-115.79-3.1051-0.4337-0.3695c0.7371-0.8658 1.5054-1.7276 2.2835-2.5614l0.4165 0.3887c-0.7721 0.8275-1.5345 1.6829-2.2663 2.5422zm111.41-2.1106c-0.765-0.8331-1.559-1.6589-2.359-2.454l0.401-0.4043c0.807 0.8015 1.607 1.6333 2.378 2.4727l-0.42 0.3856zm-106.77-2.8672-0.3984-0.4073c0.8148-0.7971 1.6579-1.5852 2.5058-2.3422l0.3795 0.4251c-0.8415 0.7512-1.6782 1.5333-2.4869 2.3244zm101.94-1.9315c-0.839-0.7608-1.705-1.5112-2.574-2.2302l0.363-0.439c0.876 0.7244 1.749 1.4805 2.594 2.2471l-0.383 0.4221zm-96.865-2.6016-0.3597-0.4419c0.8812-0.7176 1.792-1.4254 2.7071-2.1037l0.3394 0.4577c-0.9083 0.6732-1.8122 1.3756-2.6868 2.0879zm5.4649-4.0505-0.318-0.4727c0.9432-0.6346 1.9142-1.256 2.8861-1.8474l0.2961 0.4869c-0.9645 0.5868-1.9281 1.2036-2.8642 1.8332zm5.8084-3.5331-0.2735-0.49996c0.9979-0.54601 2.021-1.0757 3.041-1.5747l0.2504 0.51192c-1.0122 0.4951-2.0275 1.0208-3.0179 1.5628zm68.766-1.3202c-1.014-0.50511-2.052-0.9931-3.087-1.4504l0.231-0.5211c1.042 0.46073 2.089 0.95248 3.11 1.4615l-0.254 0.50998zm-62.662-1.665-0.2265-0.52278c1.0428-0.45197 2.1095-0.88544 3.1703-1.2884l0.2023 0.53279c-1.0528 0.39981-2.1113 0.82993-3.1461 1.2784zm56.424-1.0924c-1.055-0.40911-2.135-0.79946-3.21-1.16l0.182-0.5403c1.083 0.3635 2.171 0.75676 3.234 1.1692l-0.206 0.53112zm-50.069-1.321-0.1775-0.54142c1.0829-0.35501 2.1877-0.68929 3.2836-0.99325l0.1523 0.54893c-1.0876 0.30173-2.1839 0.63338-3.2584 0.98574zm43.608-0.84718c-1.087-0.3098-2.196-0.59832-3.295-0.85748l0.131-0.55449c1.108 0.26111 2.225 0.55185 3.32 0.86387l-0.156 0.5481zm-37.049-0.97308-0.1268-0.55547c1.1101-0.25359 2.2409-0.48466 3.3609-0.68664l0.1012 0.56061c-1.1116 0.2006-2.2337 0.42985-3.3353 0.6815zm30.424-0.58885c-1.11-0.20826-2.24-0.39354-3.36-0.55074l0.079-0.56423c1.129 0.15845 2.268 0.34513 3.386 0.55491l-0.105 0.56006zm-23.725-0.62002-0.0754-0.56478c1.1279-0.15052 2.275-0.27711 3.4093-0.37588l0.0495 0.56757c-1.1257 0.09821-2.2638 0.22368-3.3834 0.37309zm16.984-0.3269c-1.1223-0.10573-2.2647-0.18724-3.3957-0.24191l0.0278-0.56924c1.1393 0.055228 2.2903 0.1373 3.4213 0.24387l-0.0534 0.56728zm-10.203-0.26473-0.024-0.56922c1.0472-0.04368 2.1145-0.065935 3.1726-0.066214l0.2579 4.1516e-4 -0.0017 0.56979-0.2562-4.15e-4c-1.05 2.65e-4 -2.1095 0.02238-3.1486 0.065644z" fill="#D5B26B"/>
  <path d="m256.98 185.84h-208.83v0.57h208.83v-0.57z" fill="#D5B26B"/>
  <g fill="#2F2E41">
   <path d="m170.37 90.035 2.849 44.159s6.837 17.379 6.552 33.903c0 0-2.564 6.552-0.57 7.692 1.995 1.139 3.134 1.994 1.995 2.849-1.14 0.855-1.995 2.849-1.14 3.419 0.855 0.569 1.14 1.424 0.855 1.424h-8.547s1.709-4.273-0.855-5.413-1.139-3.989-1.139-3.989l-19.089-55.839-15.099 51.281s2.564 1.71 0.57 2.564c-1.995 0.855-2.849-0.854-1.995 0.855 0.855 1.709-0.285 2.564-0.285 2.849s-8.546-0.855-8.546-0.855 4.273-3.703 2.279-4.558c-1.995-0.855-2.849-1.71-2.279-2.279 0.569-0.57 2.849-5.983 2.849-5.983s1.139-20.513 1.424-21.368c0.285-0.854 0-4.843 0-6.837s-0.285-9.971 0.57-11.966c0.855-1.994 1.709-26.495 6.268-29.344 4.558-2.8489 33.333-2.564 33.333-2.564z"/>
   <path d="m134.19 174.36s5.698 11.681 1.709 13.106c-3.989 1.424-9.117 0.285-10.256 1.994-1.14 1.709-13.675 3.704-13.96-0.57-0.285-4.273 13.675-12.25 13.675-12.25l1.818-2.929 7.014 0.649z"/>
   <path d="m180.34 182.91s5.698 11.681 1.709 13.106c-3.988 1.424-9.116 0.285-10.256 1.994s-13.675 3.704-13.96-0.57c-0.285-4.273 13.675-12.25 13.675-12.25l1.819-2.929 7.013 0.649z"/>
  </g>
  <path d="m153.99 36.332c5.192 0 9.402-4.2092 9.402-9.4016 0-5.1923-4.21-9.4016-9.402-9.4016s-9.402 4.2093-9.402 9.4016c0 5.1924 4.21 9.4016 9.402 9.4016z" fill="#FFB6B6"/>
  <path d="m160.4 31.916-1.139 8.2621-8.547 6.5526-2.279-3.1339v-10.826l11.965-0.8547z" fill="#FFB6B6"/>
  <path d="m147.01 42.457s8.832 0.8547 13.39-2.2792l9.117 53.846s-32.193 2.5641-33.618 0.8547v-16.809l5.698-27.35 5.413-8.262z" fill="#D5B26B"/>
  <path d="m159.62 37.603 3.063 2.5744s12.536 1.9942 11.681 5.413l-3.419 40.455 1.14 13.675s-9.686-2.5641-17.094 0c-7.407 2.5638-1.522-55.1-1.522-55.1s6.791-6.1735 6.151-7.0178z" fill="#D0CDE1"/>
  <path d="m148.44 40.722s-9.117 6.5784-10.257 10.852c-1.139 4.2734-4.843 49.287-4.843 49.287s1.709-0.855 2.564 0.57c0.855 1.424 13.96-58.456 12.536-60.709z" fill="#D0CDE1"/>
  <path d="m144.59 26.52s-1.018-1.5267-0.626-3.1708c0.233-0.9334 0.326-1.8967 0.274-2.8576 0 0 0.822-2.6619 1.644-4.1494s0.43-2.1139 3.014-2.5836c2.584-0.4698 1.527-3.8363 8.338-0.1957 0.23 0.3208 0.549 0.5664 0.919 0.7057 0.369 0.1394 0.771 0.1662 1.156 0.0771 1.409-0.274 1.918 1.6833 1.918 1.6833s0.939-0.548 1.292 0.2349c0.352 0.7829 2.864-0.4699 2.864 4.8147 0 5.2847-2.859 10.005-2.859 10.005s0.21-8.8894-4.448-9.7897c-4.659-0.9004-9.669-3.5231-10.883-0.1566-0.655 1.8895-1.529 3.6959-2.603 5.3825z" fill="#2F2E41"/>
  <path d="m162.63 28.634c0.508 0 0.919-0.5485 0.919-1.2252 0-0.6766-0.411-1.2251-0.919-1.2251-0.507 0-0.918 0.5485-0.918 1.2251 0 0.6767 0.411 1.2252 0.918 1.2252z" fill="#FFB6B6"/>
  <g fill="#D0CDE1">
   <path d="m124.02 115.51c-2.254-1.356-4.973-1.253-6.006-1.149 0.394 0.961 1.574 3.411 3.829 4.768 2.26 1.359 4.974 1.252 6.006 1.149-0.393-0.96-1.574-3.412-3.829-4.768z"/>
   <path d="m134.61 142.41h-14.089c-0.841 0-1.648 0.334-2.242 0.928-0.595 0.595-0.929 1.401-0.929 2.242s0.334 1.647 0.929 2.241c0.594 0.595 1.401 0.929 2.242 0.929h14.089c0.841-1e-3 1.646-0.335 2.24-0.93 0.594-0.594 0.928-1.4 0.928-2.24s-0.334-1.646-0.928-2.241c-0.594-0.594-1.399-0.929-2.24-0.929z"/>
   <path d="m198.41 108.95h-78.997c-0.919 0-1.829 0.181-2.678 0.533s-1.621 0.867-2.271 1.517c-0.649 0.65-1.165 1.421-1.516 2.27-0.352 0.849-0.533 1.759-0.533 2.678v38.489c0 1.856 0.737 3.636 2.049 4.948 1.313 1.313 3.093 2.05 4.949 2.05h78.997c0.919 0 1.829-0.181 2.678-0.533 0.849-0.351 1.621-0.867 2.27-1.517 0.65-0.649 1.166-1.421 1.517-2.27 0.352-0.849 0.533-1.759 0.533-2.678v-38.489c0-0.919-0.181-1.829-0.533-2.678-0.351-0.849-0.867-1.62-1.517-2.27-0.649-0.65-1.421-1.165-2.27-1.517s-1.759-0.533-2.678-0.533zm-80.952 4.774c0.156-0.028 3.855-0.658 6.918 1.185s4.24 5.406 4.288 5.557l0.124 0.384-0.397 0.071c-0.567 0.088-1.141 0.13-1.714 0.126-1.392 0-3.407-0.23-5.205-1.312-3.062-1.842-4.239-5.406-4.288-5.556l-0.123-0.385 0.397-0.07zm17.148 35.735h-14.089c-1.028 0-2.014-0.409-2.74-1.135-0.727-0.727-1.135-1.712-1.135-2.74s0.408-2.013 1.135-2.74c0.726-0.727 1.712-1.135 2.74-1.135h14.089c1.028 0 2.014 0.408 2.74 1.135 0.727 0.727 1.135 1.712 1.135 2.74s-0.408 2.013-1.135 2.74c-0.726 0.726-1.712 1.135-2.74 1.135zm64.109-0.705c-3e-3 1.12-0.449 2.193-1.241 2.985s-1.866 1.239-2.986 1.242h-10.567c-1.12-3e-3 -2.193-0.45-2.985-1.242s-1.239-1.865-1.242-2.985v-6.34c3e-3 -1.12 0.45-2.194 1.242-2.986s1.865-1.238 2.985-1.241h10.567c1.12 3e-3 2.194 0.449 2.986 1.241s1.238 1.866 1.241 2.986v6.34z"/>
   <path d="m187.27 147.52h-4.579c-0.327 0-0.64 0.13-0.872 0.361-0.231 0.231-0.361 0.545-0.361 0.872s0.13 0.641 0.361 0.872c0.232 0.231 0.545 0.361 0.872 0.361h4.579c0.327 0 0.641-0.13 0.872-0.361s0.361-0.545 0.361-0.872-0.13-0.641-0.361-0.872-0.545-0.361-0.872-0.361zm0 1.761h-4.579c-0.069 1e-3 -0.138-0.013-0.202-0.039-0.065-0.027-0.123-0.066-0.172-0.115s-0.089-0.107-0.115-0.172c-0.027-0.064-0.04-0.132-0.04-0.202 0-0.069 0.013-0.138 0.04-0.202 0.026-0.065 0.066-0.123 0.115-0.172s0.107-0.088 0.172-0.114c0.064-0.027 0.133-0.041 0.202-0.04h4.579c0.07-1e-3 0.139 0.013 0.203 0.04 0.064 0.026 0.123 0.065 0.172 0.114s0.088 0.107 0.115 0.172c0.026 0.064 0.04 0.133 0.04 0.202 0 0.07-0.014 0.138-0.04 0.202-0.027 0.065-0.066 0.123-0.115 0.172s-0.108 0.088-0.172 0.115c-0.064 0.026-0.133 0.04-0.203 0.039z"/>
   <path d="m195.72 147.52h-4.579c-0.162 0-0.323 0.032-0.472 0.093-0.15 0.062-0.286 0.153-0.401 0.268-0.115 0.114-0.206 0.25-0.268 0.4-0.062 0.149-0.094 0.31-0.094 0.472s0.032 0.323 0.094 0.472c0.062 0.15 0.153 0.286 0.268 0.4 0.115 0.115 0.251 0.206 0.401 0.268 0.149 0.061 0.31 0.093 0.472 0.093h4.579c0.327 0 0.641-0.13 0.872-0.361s0.361-0.545 0.361-0.872-0.13-0.641-0.361-0.872-0.545-0.361-0.872-0.361zm0 1.761h-4.579c-0.069 1e-3 -0.138-0.013-0.203-0.039-0.064-0.027-0.122-0.066-0.171-0.115-0.05-0.049-0.089-0.107-0.115-0.171-0.027-0.065-0.041-0.133-0.041-0.203 0-0.069 0.014-0.138 0.041-0.202 0.026-0.065 0.065-0.123 0.115-0.172 0.049-0.049 0.107-0.088 0.171-0.114 0.065-0.027 0.134-0.041 0.203-0.04h4.579c0.14 0 0.274 0.056 0.373 0.155s0.154 0.233 0.154 0.373-0.055 0.274-0.154 0.373-0.233 0.155-0.373 0.155z"/>
   <path d="m187.27 144.35h-4.579c-0.327 0-0.64 0.13-0.872 0.361-0.231 0.231-0.361 0.545-0.361 0.872s0.13 0.64 0.361 0.872c0.232 0.231 0.545 0.361 0.872 0.361h4.579c0.162 0 0.323-0.032 0.473-0.094 0.149-0.061 0.286-0.152 0.4-0.267 0.115-0.114 0.206-0.25 0.268-0.4s0.094-0.31 0.094-0.472-0.032-0.323-0.094-0.472c-0.062-0.15-0.153-0.286-0.268-0.401-0.114-0.114-0.251-0.205-0.4-0.267-0.15-0.062-0.311-0.093-0.473-0.093zm0 1.761h-4.579c-0.14 0-0.274-0.055-0.373-0.155-0.1-0.099-0.155-0.233-0.155-0.373s0.055-0.275 0.155-0.374c0.099-0.099 0.233-0.155 0.373-0.155h4.579c0.14 0 0.275 0.056 0.374 0.155s0.155 0.234 0.155 0.374-0.056 0.274-0.155 0.373c-0.099 0.1-0.234 0.155-0.374 0.155z"/>
   <path d="m195.72 144.35h-4.579c-0.162 0-0.323 0.031-0.472 0.093-0.15 0.062-0.286 0.153-0.401 0.267-0.115 0.115-0.206 0.251-0.268 0.401-0.062 0.149-0.094 0.31-0.094 0.472s0.032 0.322 0.094 0.472 0.153 0.286 0.268 0.4c0.115 0.115 0.251 0.206 0.401 0.267 0.149 0.062 0.31 0.094 0.472 0.094h4.579c0.327 0 0.641-0.13 0.872-0.361 0.231-0.232 0.361-0.545 0.361-0.872s-0.13-0.641-0.361-0.872-0.545-0.361-0.872-0.361zm0 1.761h-4.579c-0.14 0-0.275-0.055-0.374-0.155-0.099-0.099-0.154-0.233-0.154-0.373s0.055-0.275 0.154-0.374 0.234-0.155 0.374-0.155h4.579c0.14 0 0.275 0.056 0.374 0.155s0.155 0.234 0.155 0.374-0.056 0.274-0.155 0.373c-0.099 0.1-0.234 0.155-0.374 0.155z"/>
   <path d="m187.27 141.18h-4.579c-0.327 0-0.64 0.13-0.872 0.361-0.231 0.231-0.361 0.545-0.361 0.872s0.13 0.64 0.361 0.871c0.232 0.232 0.545 0.362 0.872 0.362h4.579c0.327 0 0.641-0.13 0.872-0.362 0.231-0.231 0.361-0.544 0.361-0.871s-0.13-0.641-0.361-0.872-0.545-0.361-0.872-0.361zm0 1.761h-4.579c-0.14 0-0.274-0.056-0.373-0.155-0.1-0.099-0.155-0.233-0.155-0.373s0.055-0.275 0.155-0.374c0.099-0.099 0.233-0.155 0.373-0.155h4.579c0.14 0 0.275 0.056 0.374 0.155s0.155 0.234 0.155 0.374-0.056 0.274-0.155 0.373-0.234 0.155-0.374 0.155z"/>
   <path d="m195.72 141.18h-4.579c-0.162 0-0.323 0.031-0.472 0.093-0.15 0.062-0.286 0.153-0.401 0.267-0.115 0.115-0.206 0.251-0.268 0.4-0.062 0.15-0.094 0.311-0.094 0.473s0.032 0.322 0.094 0.472 0.153 0.286 0.268 0.4c0.115 0.115 0.251 0.205 0.401 0.267 0.149 0.062 0.31 0.094 0.472 0.094h4.579c0.327-1e-3 0.64-0.131 0.871-0.362s0.36-0.545 0.36-0.871c0-0.327-0.129-0.64-0.36-0.871-0.231-0.232-0.544-0.362-0.871-0.362zm0 1.761h-4.579c-0.14 0-0.275-0.056-0.374-0.155s-0.154-0.233-0.154-0.373 0.055-0.275 0.154-0.374 0.234-0.155 0.374-0.155h4.579c0.14 0 0.275 0.056 0.374 0.155s0.155 0.234 0.155 0.374-0.056 0.274-0.155 0.373-0.234 0.155-0.374 0.155z"/>
  </g>
  <path d="m173.5 100.29-2.042 6.664s-0.522 12.424-7.359 10.715c-6.838-1.71 1.994-16.239 1.994-16.239l1.994-3.1342 5.413 1.9942z" fill="#FFB6B6"/>
  <path d="m134.76 100.29-2.042 6.664s-0.522 12.424-7.359 10.715c-6.838-1.71 1.994-16.239 1.994-16.239l1.994-3.1342 5.413 1.9942z" fill="#FFB6B6"/>
  <path d="m172.08 43.596s4.558-1.1396 5.983 6.5527c1.424 7.6922 3.134 29.629 3.134 29.629l-6.838 23.076s-6.837-3.7035-8.262-3.1337l5.381-20.034-4.526-20.421s3.988-15.669 5.128-15.669z" fill="#D0CDE1"/>
  <path d="m165.45 59.656 5.983 19.943-5.983 20.228 3.419-20.228-3.419-19.943z" fill="#000" opacity=".15"/>
  <path d="m138.18 59.266-10.256 40.455s5.41 1.7857 7.404 3.2097l2.852-43.665z" fill="#D0CDE1"/>
  <path d="m30.587 160.93c15.734 0 28.49-12.755 28.49-28.49 0-15.734-12.755-28.489-28.49-28.489-15.734 0-28.49 12.755-28.49 28.489 0 15.735 12.755 28.49 28.49 28.49z" fill="#D5B26B"/>
  <path d="m30.587 156.94c13.532 0 24.501-10.969 24.501-24.501 0-13.531-10.97-24.501-24.501-24.501-13.532 0-24.501 10.97-24.501 24.501 0 13.532 10.97 24.501 24.501 24.501z" fill="#000" opacity=".1"/>
  <path d="m29.413 146.9v-3.566c-1.8026-0.035-3.6675-0.671-4.7552-1.553l0.7458-2.366c1.2927 0.969 2.8603 1.501 4.4756 1.518 2.2067 0 3.6986-1.447 3.6986-3.46 0-1.942-1.2122-3.142-3.5121-4.202-3.1702-1.412-5.1283-3.036-5.1283-6.108 0-2.93 1.8338-5.155 4.6932-5.684v-3.566h1.927v3.424c1.4368 0.02 2.8384 0.449 4.0405 1.236l-0.7772 2.331c-1.1528-0.79-2.5189-1.208-3.916-1.201-2.3931 0-3.2945 1.624-3.2945 3.037 0 1.835 1.1499 2.753 3.854 4.025 3.2012 1.483 4.8174 3.319 4.8174 6.461 0 2.789-1.7094 5.402-4.9107 6.002v3.672h-1.9581z" fill="#fff"/>
  <g fill="#D5B26B">
   <path d="m60.683 190.4c-20.116 3-40.567 3-60.683 0v-6.838c20.138 2.697 40.545 2.697 60.683 0v6.838z"/>
   <path d="m60.683 179.85c-20.116 3-40.567 3-60.683 0v-6.838c20.138 2.697 40.545 2.697 60.683 0v6.838z"/>
   <path d="m60.683 169.31c-20.116 3-40.567 3-60.683 0v-6.837c20.138 2.697 40.545 2.697 60.683 0v6.837z"/>
  </g>
 </g>
 <defs>
  <clipPath id="clip0_112_170">
   <rect width="256.98" height="200" fill="#fff"/>
  </clipPath>
 </defs>
</svg>
