<svg fill="none" save-fill="" version="1.1" viewBox="0 0 275 200" xmlns="http://www.w3.org/2000/svg">
 <g clip-path="url(#clip0_198_4423)">
  <path d="m270.25 159.8c-6.81 14.051-20.643 23.447-34.974 29.643-11.474 4.928-23.602 8.165-36.006 9.608-2.376 0.282-4.759 0.501-7.15 0.657-6.11 0.398-12.239 0.391-18.348-0.021-3.675-0.244-7.336-0.635-10.985-1.171-12.679-1.85-25.04-5.449-36.73-10.696-3.373-1.519-6.679-3.178-9.916-4.976-5.406-2.997-10.587-6.384-15.5-10.136-1.0865-0.831-2.1598-1.68-3.2195-2.546l-0.4358-0.357c-0.8332-0.687-1.6586-1.389-2.497-2.071-1.3934-1.167-2.8725-2.228-4.4248-3.174-0.1051-0.061-0.2102-0.123-0.3179-0.182-0.2871-0.166-0.5794-0.323-0.8768-0.471-0.6126-0.309-1.2407-0.587-1.8817-0.831-2.961-1.128-6.1322-1.538-9.347-1.469-0.5333 0-1.0665 0.036-1.6023 0.072-0.7486 0.051-1.4997 0.128-2.2483 0.225l-0.2769 0.039c-2.3854 0.337-4.7439 0.844-7.0577 1.515-3.5737 1.025-7.0833 2.307-10.616 3.463-1.4998 0.495-3.0021 0.967-4.5172 1.39l-0.3332 0.092c-2.1549 0.606-4.3485 1.065-6.5655 1.374-5.0382 0.644-10.155 0.232-15.026-1.21l-0.1692-0.048-0.3128-0.093-0.4281-0.133c-0.7179-0.226-1.4297-0.473-2.1356-0.741l-0.4281-0.164c-0.6836-0.263-1.3527-0.546-2.0073-0.849l-0.4281-0.194c-0.6837-0.318-1.3528-0.654-2.0074-1.008-0.2358-0.123-0.4691-0.256-0.6999-0.382-0.6973-0.39-1.3809-0.798-2.0509-1.225-0.7109-0.453-1.4065-0.926-2.0868-1.418-0.3144-0.226-0.6255-0.457-0.9331-0.695-1.7734-1.356-3.4341-2.854-4.9658-4.478-0.0846-0.085-0.1641-0.172-0.2436-0.257-0.4076-0.441-0.8075-0.889-1.1946-1.348-0.14357-0.17-0.28713-0.339-0.42813-0.513-0.45975-0.561-0.90326-1.134-1.3305-1.72-0.06409-0.085-0.12562-0.172-0.18715-0.257-1.7516-2.422-3.2038-5.048-4.3249-7.819-0.03589-0.084-0.06922-0.172-0.09999-0.256-0.34181-0.88-0.65373-1.775-0.93573-2.684-0.11536-0.38-0.2256-0.769-0.32302-1.149-0.03332-0.113-0.06409-0.228-0.09229-0.341-1.4151-5.571-1.5766-11.362-1.5766-17.12v-2.012c0.041018-9.314 0.18458-18.787 1.5587-27.972 0-0.0641 0.01794-0.1282 0.0282-0.1897 0.45991-3.0923 1.0855-6.1577 1.874-9.183 0.82529-3.1743 1.88-6.2845 3.1558-9.306 3.161-7.4346 7.7576-14.2 12.862-20.471 6.1528-7.5448 13.203-14.508 21.055-20.253 1.128-0.8254 2.2714-1.627 3.4302-2.4046l0.5358-0.3513c0.1871-0.1256 0.3743-0.2563 0.5614-0.3666 0.3845-0.2563 0.7691-0.4973 1.1588-0.7409l0.4358-0.2717 0.8306-0.5127 0.2564-0.1462 0.4435-0.2563 0.4384-0.2564c0.5127-0.3025 1.0314-0.5982 1.5561-0.887 2.2406-1.2494 4.5342-2.391 6.8808-3.425 0.6922-0.306 1.3887-0.6008 2.0894-0.8845 3.1813-1.2957 6.4494-2.3673 9.7803-3.2071 1.2305-0.3111 2.4688-0.5845 3.7147-0.8204 1.4698-0.2837 2.9473-0.5187 4.4325-0.705 2.3634-0.2973 4.7404-0.4745 7.1218-0.5307 16.746-0.4076 33.66 5.0427 46.784 15.49 5.23 4.1633 9.929 9.0932 15.803 12.285 5.127 2.7789 11.129 3.93 16.62 1.7432 4.537-1.8073 7.491-2.7046 12.587-2.4303 10.546 0.594 20.943 2.7683 30.843 6.4501 0.4 0.1461 0.8 0.2974 1.198 0.4487 25.818 9.8828 48.017 29.508 59.548 54.726 0.304 0.666 0.601 1.338 0.89 2.015 6.878 16.061 9.359 34.891 1.769 50.55z" fill="#D3D3D3" opacity=".1"/>
  <g fill="#006753">
   <path d="m51.317 71.113v97.203l-0.3333 0.092c-2.1548 0.606-4.3484 1.065-6.5655 1.374-5.0382 0.644-10.155 0.232-15.026-1.21l-0.1692-0.048-0.3127-0.093-0.4282-0.133c-0.7178-0.226-1.4296-0.473-2.1355-0.741l-0.4281-0.164c-0.6836-0.263-1.3528-0.546-2.0073-0.849l-0.4282-0.194c-0.6836-0.318-1.3527-0.654-2.0073-1.008-0.2359-0.123-0.4691-0.256-0.6999-0.382-0.6973-0.39-1.3809-0.798-2.0509-1.225-0.711-0.453-1.4066-0.926-2.0868-1.418-0.3145-0.226-0.6255-0.457-0.9332-0.695-1.7734-1.356-3.4341-2.854-4.9657-4.478-0.0846-0.085-0.1641-0.172-0.2436-0.257-0.4076-0.441-0.80753-0.889-1.1946-1.348-0.14356-0.169-0.28713-0.339-0.42813-0.513-0.45974-0.561-0.90325-1.134-1.3305-1.72-0.06409-0.085-0.12562-0.172-0.18715-0.257-1.7516-2.422-3.2038-5.047-4.3249-7.819-0.03589-0.084-0.06922-0.171-0.09998-0.256-0.34182-0.88-0.65373-1.775-0.93573-2.684-0.11536-0.38-0.2256-0.769-0.32302-1.149-0.03333-0.112-0.06409-0.228-0.09229-0.341-1.4151-5.57-1.5766-11.362-1.5766-17.12v-2.012c0.041018-9.314 0.18458-18.786 1.5587-27.972 0-0.0641 0.01795-0.1282 0.0282-0.1897 0.45991-3.0923 1.0855-6.1577 1.874-9.183h26.18v-13.21h5.2195v-10.611h11.234v10.611h5.2196z" opacity=".1"/>
   <path d="m270.25 159.8c-6.809 14.051-20.643 23.447-34.973 29.643-11.474 4.928-23.603 8.165-36.007 9.608-2.375 0.282-4.759 0.501-7.15 0.657-6.11 0.398-12.239 0.391-18.348-0.021-3.674-0.244-7.336-0.635-10.985-1.171-12.679-1.85-25.04-5.45-36.729-10.696-3.374-1.519-6.679-3.178-9.917-4.976-5.406-2.997-10.587-6.385-15.499-10.137-1.0873-0.83-2.1606-1.679-3.2202-2.545l-0.4358-0.357c-0.8332-0.687-1.6587-1.389-2.497-2.071-1.3934-1.167-2.8726-2.228-4.4249-3.174-0.1051-0.061-0.2102-0.123-0.3179-0.182-0.2871-0.166-0.5794-0.323-0.8767-0.472-0.6127-0.308-1.2407-0.586-1.8818-0.83v-39.765h47.578v8.852h20.881v-64.752h24.578v25.893h12.157v-15.331h10.044v-16.377h4.615v-9.5367c0.4 0.1461 0.799 0.2974 1.197 0.4486v9.0881h4.491v16.387h10.037v15.331h14.8v58.407h23.524v-42.477h7.581c6.888 16.067 9.37 34.897 1.779 50.556z" opacity=".1"/>
   <path d="m173.78 77.155h-10.985v10.985h10.985v-10.985z" opacity=".1"/>
   <path d="m173.78 99.926h-10.985v10.985h10.985v-10.985z" opacity=".1"/>
   <path d="m173.78 122.7h-10.985v10.986h10.985v-10.986z" opacity=".1"/>
   <path d="m173.78 145.47h-10.985v10.986h10.985v-10.986z" opacity=".1"/>
   <path d="m173.78 168.24h-10.985v10.985h10.985v-10.985z" opacity=".1"/>
   <path d="m173.78 191.01v8.676c-3.674-0.245-7.336-0.635-10.985-1.172v-7.504h10.985z" opacity=".1"/>
   <path d="m129.06 137.51h-38.452v4.976h38.452v-4.976z" opacity=".1"/>
   <path d="m129.06 152.62h-38.452v4.976h38.452v-4.976z" opacity=".1"/>
   <path d="m129.06 167.73v4.973h-28.416c-1.0866-0.83-2.1599-1.679-3.2196-2.545l-0.4358-0.357c-0.8332-0.687-1.6587-1.389-2.497-2.071h34.568z" opacity=".1"/>
   <path d="m129.06 182.84v4.976h-2.999c-3.374-1.519-6.68-3.178-9.917-4.976h12.916z" opacity=".1"/>
   <path d="m199.28 106.9h-7.15v7.15h7.15v-7.15z" opacity=".1"/>
   <path d="m44.433 73.579h-7.15v7.15h7.15v-7.15z" opacity=".1"/>
   <path d="m44.433 90.192h-7.15v7.15h7.15v-7.15z" opacity=".1"/>
   <path d="m44.433 106.8h-7.15v7.15h7.15v-7.15z" opacity=".1"/>
   <path d="m44.433 123.41h-7.15v7.15h7.15v-7.15z" opacity=".1"/>
   <path d="m44.433 140.03h-7.15v7.15h7.15v-7.15z" opacity=".1"/>
   <path d="m44.433 156.64h-7.15v7.15h7.15v-7.15z" opacity=".1"/>
   <path d="m226.58 106.9h-7.15v7.15h7.15v-7.15z" opacity=".1"/>
   <path d="m199.28 124.54h-7.15v7.15h7.15v-7.15z" opacity=".1"/>
   <path d="m226.58 124.54h-7.15v7.15h7.15v-7.15z" opacity=".1"/>
   <path d="m199.28 142.18h-7.15v7.15h7.15v-7.15z" opacity=".1"/>
   <path d="m226.58 142.18h-7.15v7.15h7.15v-7.15z" opacity=".1"/>
   <path d="m199.28 159.82h-7.15v7.15h7.15v-7.15z" opacity=".1"/>
   <path d="m226.58 159.82h-7.15v7.15h7.15v-7.15z" opacity=".1"/>
   <path d="m199.28 177.46h-7.15v7.15h7.15v-7.15z" opacity=".1"/>
   <path d="m226.58 177.46h-7.15v7.15h7.15v-7.15z" opacity=".1"/>
   <path d="m192.13 199.71v-4.612h7.15v3.955l-7.15 0.657z" opacity=".1"/>
   <path d="m1.564 93.509v4.1018h27.346v-4.1018h-27.346zm2.4355 3.8454h-2.0073v-3.5891h2.0073v3.5891zm2.4355 0h-2.0073v-3.5891h2.0073v3.5891zm2.4355 0h-2.0073v-3.5891h2.0073v3.5891zm2.4354 0h-2.0073v-3.5891h2.0073v3.5891zm2.4355 0h-2.0074v-3.5891h2.0074v3.5891zm2.4354 0h-2.0073v-3.5891h2.0073v3.5891zm2.4355 0h-2.0073v-3.5891h2.0073v3.5891zm2.4354 0h-2.0073v-3.5891h2.0073v3.5891zm2.4355 0h-2.0073v-3.5891h2.0073v3.5891zm2.4355 0h-2.0074v-3.5891h2.0074v3.5891zm2.5636 0h-2.1355v-3.5891h2.1355v3.5891z" opacity=".1"/>
   <path d="m1.564 105.42v4.089h27.346v-4.089h-27.346zm2.4355 3.832h-2.0073v-3.576h2.0073v3.576zm2.4355 0h-2.0073v-3.576h2.0073v3.576zm2.4355 0h-2.0073v-3.576h2.0073v3.576zm2.4354 0h-2.0073v-3.576h2.0073v3.576zm2.4355 0h-2.0074v-3.576h2.0074v3.576zm2.4354 0h-2.0073v-3.576h2.0073v3.576zm2.4355 0h-2.0073v-3.576h2.0073v3.576zm2.4354 0h-2.0073v-3.576h2.0073v3.576zm2.4355 0h-2.0073v-3.576h2.0073v3.576zm2.4355 0h-2.0074v-3.576h2.0074v3.576zm2.5636 0h-2.1355v-3.576h2.1355v3.576z" opacity=".1"/>
   <path d="m1.564 117.33v4.089h27.346v-4.089h-27.346zm2.4355 3.832h-2.0073v-3.576h2.0073v3.576zm2.4355 0h-2.0073v-3.576h2.0073v3.576zm2.4355 0h-2.0073v-3.576h2.0073v3.576zm2.4354 0h-2.0073v-3.576h2.0073v3.576zm2.4355 0h-2.0074v-3.576h2.0074v3.576zm2.4354 0h-2.0073v-3.576h2.0073v3.576zm2.4355 0h-2.0073v-3.576h2.0073v3.576zm2.4354 0h-2.0073v-3.576h2.0073v3.576zm2.4355 0h-2.0073v-3.576h2.0073v3.576zm2.4355 0h-2.0074v-3.576h2.0074v3.576zm2.5636 0h-2.1355v-3.576h2.1355v3.576z" opacity=".1"/>
   <path d="m1.564 129.22v4.102h27.346v-4.102h-27.346zm2.4355 3.846h-2.0073v-3.589h2.0073v3.589zm2.4355 0h-2.0073v-3.589h2.0073v3.589zm2.4355 0h-2.0073v-3.589h2.0073v3.589zm2.4354 0h-2.0073v-3.589h2.0073v3.589zm2.4355 0h-2.0074v-3.589h2.0074v3.589zm2.4354 0h-2.0073v-3.589h2.0073v3.589zm2.4355 0h-2.0073v-3.589h2.0073v3.589zm2.4354 0h-2.0073v-3.589h2.0073v3.589zm2.4355 0h-2.0073v-3.589h2.0073v3.589zm2.4355 0h-2.0074v-3.589h2.0074v3.589zm2.5636 0h-2.1355v-3.589h2.1355v3.589z" opacity=".1"/>
   <path d="m1.669 141.14c0.09741 0.384 0.20765 0.769 0.32301 1.148v-0.892h2.0073v3.589h-1.0716c0.03077 0.085 0.0641 0.172 0.09999 0.257h25.893v-4.102h-27.252zm4.7658 3.845h-2.0073v-3.589h2.0073v3.589zm2.4355 0h-2.0073v-3.589h2.0073v3.589zm2.4355 0h-2.0074v-3.589h2.0074v3.589zm2.4354 0h-2.0073v-3.589h2.0073v3.589zm2.4355 0h-2.0073v-3.589h2.0073v3.589zm2.4355 0h-2.0074v-3.589h2.0074v3.589zm2.4354 0h-2.0073v-3.589h2.0073v3.589zm2.4355 0h-2.0074v-3.589h2.0074v3.589zm2.4354 0h-2.0073v-3.589h2.0073v3.589zm2.5637 0h-2.1355v-3.589h2.1355v3.589z" opacity=".1"/>
   <path d="m7.3525 153.05c0.06153 0.085 0.12305 0.172 0.18714 0.256h1.3305v1.721c0.14101 0.171 0.28457 0.341 0.42813 0.512v-2.23h2.0074v3.589h-0.8127c0.0795 0.085 0.1589 0.172 0.2435 0.256h18.174v-4.101l-21.558-3e-3zm6.3886 3.845h-2.0073v-3.589h2.0073v3.589zm2.4355 0h-2.0073v-3.589h2.0073v3.589zm2.4355 0h-2.0074v-3.589h2.0074v3.589zm2.4354 0h-2.0073v-3.589h2.0073v3.589zm2.4355 0h-2.0074v-3.589h2.0074v3.589zm2.4354 0h-2.0073v-3.589h2.0073v3.589zm2.5637 0h-2.1355v-3.589h2.1355v3.589z" opacity=".1"/>
   <path d="m20.776 164.96c0.2307 0.131 0.464 0.257 0.6999 0.382v-0.125h2.0073v1.133l0.4281 0.195v-1.328h2.0073v2.176l0.4282 0.164v-2.34h2.1355v3.076l0.4281 0.133v-3.466h-8.1344z" opacity=".1"/>
   <path d="m105.1 58s-6.1116-0.3692-5.3835 3.9121c-0.0373 0.2176-0.0049 0.4414 0.0928 0.6394 0.0976 0.198 0.2557 0.3601 0.4507 0.463 0 0 0-0.3179 0.626-0.2103 0.219 0.0361 0.442 0.0464 0.664 0.0308 0.299-0.0197 0.585-0.1368 0.812-0.3333 0 0 1.718-0.7101 2.387-3.5173 0 0 0.492-0.6127 0.474-0.7691l-1.025 0.441s0.354 0.7434 0.077 1.3613c0 0-0.034-1.3331-0.234-1.3024-0.038 0-0.535 0.2564-0.535 0.2564s0.607 1.2972 0.148 2.238c0 0 0.175-1.5945-0.336-2.1432l-0.743 0.4282s0.71 1.3382 0.228 2.4303c0 0 0.126-1.6741-0.379-2.3252l-0.659 0.5127s0.666 1.3177 0.256 2.2252c0 0-0.054-1.9509-0.402-2.0996-0.25 0.2109-0.473 0.452-0.664 0.7178 0 0 0.456 0.9563 0.174 1.4613 0 0-0.174-1.2972-0.318-1.3049 0 0-0.572 0.8614-0.63 1.4511 0.026-0.5471 0.196-1.0775 0.492-1.5382-0.331 0.0624-0.635 0.2202-0.877 0.4537 0 0 0.0897-0.6076 1.025-0.6614 0 0 0.475-0.6512 0.603-0.6922 0 0-0.926-0.0769-1.487 0.1718 0 0 0.495-0.5743 1.656-0.3128l0.649-0.5306s-1.218-0.1667-1.733 0.0179c0 0 0.592-0.5127 1.907-0.1384l0.708-0.423c-0.544-0.1191-1.101-0.1673-1.657-0.1436 0 0 0.652-0.3512 1.864 0.0308l0.513-0.2282s-0.769-0.1487-0.982-0.1718c-0.213-0.023-0.236-0.0846-0.236-0.0846 0.482-0.0803 0.976-0.0252 1.428 0.159 0 0 1.064-0.4051 1.046-0.4717z" opacity=".1"/>
   <path d="m89.056 78.835s-2.0894 5.7528 2.2226 6.2783c0.1975 0.0972 0.4206 0.1294 0.6375 0.0921 0.2168-0.0373 0.4164-0.1422 0.57-0.2997 0 0-0.2999-0.1-0.0231-0.6614 0.097-0.1995 0.171-0.4093 0.2205-0.6256 0.0648-0.2937 0.0325-0.6005-0.0923-0.8742 0 0-0.1923-1.8483-2.6944-3.2865 0 0-0.446-0.6486-0.6024-0.6743l0.1282 1.1152s0.8126-0.1282 1.3279 0.3128c0 0-1.2818-0.3461-1.3151-0.1462 0 0.0385 0.0948 0.5871 0.0948 0.5871s1.4152-0.2153 2.1868 0.4922c0 0-1.4818-0.6204-2.1509-0.2845l0.2 0.8152s1.4843-0.2974 2.3944 0.4717c0 0-1.5689-0.5922-2.338-0.2948l0.3051 0.7691s1.4535-0.2564 2.2073 0.382c0 0-1.8869-0.5128-2.1253-0.2102 0.1313 0.2985 0.2983 0.5799 0.4973 0.8383 0 0 1.0486-0.1641 1.4511 0.2563 0 0-1.2947-0.2025-1.3408-0.0692 0 0 0.664 0.7947 1.2126 1.0255-0.5152-0.1824-0.9739-0.4961-1.3305-0.9101-0.034 0.3352 0.0311 0.673 0.1871 0.9716 0 0-0.5589-0.2564-0.3461-1.1665 0 0-0.4922-0.6383-0.4922-0.7691 0 0-0.3384 0.864-0.2564 1.4741 0 0-0.4101-0.6383 0.1692-1.6766l-0.323-0.7691s-0.5127 1.1203-0.4768 1.669c0 0-0.3179-0.7153 0.4102-1.8715l-0.2026-0.7973c-0.2683 0.4843-0.4725 1.0013-0.6075 1.5382 0 0-0.1539-0.7255 0.5563-1.7792l-0.0744-0.5486s-0.3589 0.6871-0.4435 0.8947c-0.0846 0.2077-0.1487 0.2-0.1487 0.2 0.0591-0.4848 0.2517-0.9437 0.5563-1.3254 0 0-0.082-1.1434-0.1512-1.1434z" opacity=".1"/>
   <path d="m129.57 73.984s-2.087 5.7631 2.223 6.2758c0.198 0.0971 0.422 0.129 0.639 0.0912 0.217-0.0377 0.417-0.1432 0.571-0.3014 0 0-0.303-0.1-0.023-0.6588 0.098-0.1998 0.171-0.4107 0.218-0.6281 0.065-0.2935 0.034-0.6003-0.09-0.8742 0 0-0.192-1.8484-2.694-3.2866 0 0-0.449-0.6461-0.605-0.6717l0.13 1.1126s0.813-0.1256 1.328 0.3153c0 0-1.282-0.346-1.317-0.1486 0 0.041 0.094 0.587 0.094 0.587s1.415-0.2127 2.19 0.4923c0 0-1.482-0.6179-2.154-0.2846l0.203 0.8178s1.484-0.3 2.394 0.4717c0 0-1.571-0.5948-2.34-0.2974l0.305 0.7691s1.453-0.2564 2.207 0.382c0 0-1.884-0.5127-2.125-0.2077 0.135 0.2997 0.307 0.5813 0.512 0.8383 0 0 1.046-0.1666 1.451 0.2564 0 0-1.294-0.2025-1.34-0.0666 0 0 0.661 0.7921 1.21 1.0254-0.515-0.1815-0.973-0.4954-1.328-0.9101-0.034 0.3349 0.03 0.6725 0.184 0.9716 0 0-0.556-0.2563-0.343-1.1639 0 0-0.492-0.6409-0.495-0.769 0 0-0.336 0.8665-0.256 1.4741 0 0-0.411-0.6358 0.169-1.6767l-0.323-0.7691s-0.513 1.1203-0.477 1.6664c0 0-0.318-0.7127 0.41-1.8689l-0.205-0.7999c-0.268 0.4843-0.472 1.0014-0.607 1.5382 0 0-0.152-0.7255 0.558-1.7791l-0.074-0.5487s-0.359 0.6871-0.446 0.8948c-0.087 0.2076-0.149 0.1999-0.149 0.1999 0.061-0.4848 0.254-0.9435 0.559-1.3254 0 0-0.092-1.1408-0.164-1.1434z" opacity=".1"/>
   <path d="m71.656 121.02s-2.0894 5.755 2.2226 6.281c0.1977 0.097 0.421 0.129 0.638 0.091s0.4164-0.143 0.5695-0.301c0 0-0.2999-0.1-0.0231-0.659 0.0986-0.2 0.1726-0.411 0.2205-0.628 0.0662-0.294 0.0338-0.601-0.0923-0.875 0 0-0.1922-1.848-2.6944-3.284 0 0-0.446-0.648-0.6024-0.674l0.1282 1.113s0.8152-0.126 1.3279 0.315c0 0-1.2818-0.346-1.3151-0.149 0 0.041 0.0948 0.587 0.0948 0.587s1.4152-0.212 2.1868 0.493c0 0-1.4818-0.618-2.1509-0.285l0.2 0.818s1.4843-0.3 2.3944 0.472c0 0-1.5689-0.595-2.338-0.298l0.3051 0.769s1.4536-0.256 2.2073 0.382c0 0-1.8843-0.512-2.1253-0.207 0.1313 0.298 0.2983 0.58 0.4973 0.838 0 0 1.0486-0.167 1.4536 0.256 0 0-1.2972-0.202-1.3433-0.066 0 0 0.664 0.792 1.2126 1.025-0.5153-0.181-0.9741-0.494-1.3305-0.907-0.034 0.334 0.0311 0.671 0.1871 0.969 0 0-0.5589-0.257-0.3461-1.164 0 0-0.4896-0.641-0.4922-0.769 0 0-0.3384 0.866-0.2564 1.474 0 0-0.4102-0.636 0.1692-1.677l-0.323-0.769s-0.5127 1.12-0.4743 1.666c0 0-0.3179-0.712 0.4102-1.868l-0.2051-0.798c-0.2688 0.484-0.473 1.001-0.6076 1.538 0 0-0.1538-0.728 0.5563-1.779l-0.0743-0.551s-0.3589 0.687-0.4435 0.895c-0.0846 0.207-0.1487 0.2-0.1487 0.2 0.0593-0.485 0.2528-0.944 0.5589-1.326 0 0-0.0846-1.148-0.1538-1.148z" opacity=".1"/>
   <path d="m63.366 66.778s-2.0868 5.7528 2.2227 6.2784c0.1979 0.0969 0.4213 0.129 0.6385 0.0918 0.2173-0.0373 0.4172-0.1421 0.5715-0.2995 0 0-0.3025-0.1-0.0231-0.6614 0.0967-0.2002 0.1698-0.411 0.2179-0.6281 0.0657-0.2926 0.0342-0.5986-0.0897-0.8716 0 0-0.1923-1.8484-2.697-3.2866 0 0-0.446-0.6486-0.6024-0.6743l0.1307 1.1152s0.8127-0.1282 1.3254 0.3128c0 0-1.2818-0.3461-1.3151-0.1461 0 0.0384 0.0948 0.587 0.0948 0.587s1.4152-0.2153 2.1894 0.4923c0 0-1.4818-0.6204-2.1535-0.2846l0.2 0.8152s1.4843-0.2999 2.397 0.4717c0 0-1.5715-0.5947-2.3406-0.2948l0.3051 0.7691s1.4536-0.2564 2.2073 0.3846c0 0-1.8843-0.5128-2.1253-0.2103 0.1313 0.2985 0.2983 0.58 0.4974 0.8384 0 0 1.0485-0.1641 1.4535 0.2563 0 0-1.2946-0.2025-1.3407-0.0692 0 0 0.6614 0.7947 1.21 1.0254-0.5149-0.1829-0.9734-0.4965-1.3305-0.91-0.034 0.3352 0.0311 0.673 0.1871 0.9716 0 0-0.5589-0.2564-0.3435-1.1665 0 0-0.4922-0.6383-0.4948-0.7691 0 0-0.3358 0.864-0.2564 1.4741 0 0-0.4127-0.6383 0.1692-1.6766l-0.3255-0.7691s-0.5128 1.1203-0.4743 1.6689c0 0-0.3179-0.7152 0.4102-1.8714l-0.2051-0.7973c-0.2683 0.4842-0.4726 1.0013-0.6076 1.5382 0 0-0.1513-0.7255 0.5563-1.7792l-0.0718-0.5486s-0.3615 0.687-0.4461 0.8921-0.1486 0.2026-0.1486 0.2026c0.0592-0.4853 0.2528-0.9443 0.5588-1.3254 0 0-0.0794-1.146-0.1512-1.146z" opacity=".1"/>
   <path d="m78.86 98.105s1.6125 5.8966 5.4374 3.8456c0.2174-0.035 0.4183-0.137 0.5739-0.293 0.1556-0.155 0.2581-0.356 0.2926-0.574 0 0-0.3025 0.093-0.3973-0.525-0.0362-0.219-0.0981-0.434-0.1846-0.6385-0.1136-0.2783-0.3166-0.511-0.5768-0.6614 0 0-1.2229-1.3998-4.1018-1.1331 0 0-0.7384-0.2692-0.8819-0.2l0.7485 0.8332s0.5922-0.5717 1.2665-0.5128c0 0-1.2536 0.4615-1.1613 0.6384 0.0205 0.0359 0.4153 0.4256 0.4153 0.4256s1.0254-0.9922 2.0714-0.8614c0 0-1.5664 0.3486-1.9202 1.0101l0.6332 0.5509s1.0409-1.0996 2.2304-0.997c0 0-1.6279 0.4204-2.0842 1.107l0.6973 0.459s1.0254-1.0533 2.0252-0.9584c0 0-1.8304 0.6744-1.8586 1.0534 0.28 0.169 0.5797 0.302 0.8922 0.398 0 0 0.7691-0.739 1.3305-0.634 0 0-1.1767 0.582-1.1357 0.718 0 0 0.9998 0.257 1.5766 0.134-0.5252 0.148-1.0802 0.157-1.6099 0.025 0.1649 0.294 0.4128 0.532 0.7127 0.685 0 0-0.6051 0.11-0.9537-0.754 0 0-0.7691-0.238-0.8511-0.346 0 0 0.2256 0.902 0.6409 1.353 0 0-0.7025-0.284-0.8281-1.469l-0.7101-0.443s0.2333 1.207 0.5717 1.636c0 0-0.6717-0.4-0.7435-1.764l-0.6255-0.5335c0.0609 0.5535 0.1936 1.0965 0.3948 1.6155 0 0-0.5409-0.513-0.5691-1.7744l-0.3769-0.4076s0.1026 0.7691 0.1513 0.987c0.0487 0.218 0 0.256 0 0.256-0.231-0.4303-0.3375-0.9168-0.3077-1.4045 0 0-0.7255-0.8845-0.7844-0.8461z" opacity=".1"/>
   <path d="m122.61 103.37s1.613 5.897 5.435 3.846c0.218-0.034 0.42-0.136 0.576-0.292s0.259-0.357 0.293-0.575c0 0-0.305 0.092-0.399-0.513-0.035-0.219-0.096-0.433-0.183-0.638-0.115-0.278-0.319-0.51-0.579-0.661 0 0-1.223-1.4-4.102-1.131 0 0-0.738-0.272-0.879-0.202l0.746 0.833s0.592-0.572 1.266-0.513c0 0-1.253 0.461-1.158 0.638 0.018 0.036 0.415 0.426 0.415 0.426s1.025-0.992 2.071-0.861c0 0-1.569 0.348-1.922 1.01l0.635 0.551s1.026-1.1 2.228-0.997c0 0-1.625 0.42-2.081 1.107l0.697 0.459s1.025-1.054 2.023-0.959c0 0-1.831 0.674-1.857 1.054 0.28 0.168 0.578 0.302 0.89 0.397 0 0 0.769-0.738 1.331-0.633 0 0-1.175 0.582-1.136 0.718 0 0 1 0.256 1.579 0.133-0.526 0.149-1.082 0.158-1.612 0.026 0.165 0.292 0.413 0.53 0.712 0.684 0 0-0.605 0.11-0.953-0.754 0 0-0.769-0.238-0.849-0.346 0 0 0.223 0.903 0.638 1.354 0 0-0.702-0.285-0.828-1.469l-0.71-0.449s0.233 1.208 0.574 1.636c0 0-0.671-0.4-0.743-1.764l-0.628-0.533c0.061 0.553 0.194 1.096 0.397 1.615 0 0-0.543-0.513-0.571-1.774l-0.377-0.408s0.102 0.769 0.151 0.987 0 0.257 0 0.257c-0.231-0.431-0.337-0.917-0.308-1.405 0 0-0.723-0.892-0.782-0.854z" opacity=".1"/>
  </g>
  <path d="m106.19 162.59s13.3-4.478 10.547-20.347l-16.895-4.387-3.9224 13.021 10.27 11.713z" fill="#CED7E7"/>
  <path d="m95.924 150.87 10.267 11.713s13.3-4.478 10.547-20.347l-20.814 8.634z" fill="#000" opacity=".1"/>
  <path d="m40.036 33.638s1.7946 2.92 4.248 1.4613c2.4534-1.4588 0.1-5.4888 0.1-5.4888s-4.6992-0.6435-4.348 4.0275z" fill="#D5B26B"/>
  <path d="m44.284 35.099c-0.2894 0.1873-0.614 0.3134-0.9539 0.3707-0.3399 0.0574-0.6879 0.0446-1.0227-0.0374-0.8998-0.2282-1.592-0.9203-1.9638-1.3741-0.1109-0.1329-0.2136-0.2725-0.3076-0.4179-0.1256-1.6663 0.3922-2.6585 1.1101-3.243 0.987-0.8024 2.3534-0.8357 2.943-0.8101 0.182 0 0.2872 0.0256 0.2872 0.0256l0.0487 0.0821c0.0692 0.1307 0.2204 0.4204 0.3819 0.8075 0.5487 1.269 1.2024 3.5686-0.5229 4.5966z" fill="#000" opacity=".1"/>
  <path d="m107.5 141.49 9.229 0.746 17.177 0.141-13.534 16.663s-4.294 0.234-5.178 0.839c-0.885 0.605-13.303 0.282-13.303 0.282l-2.0048-8.542 7.6138-10.129z" fill="#FFB6B6"/>
  <path d="m107.5 141.49 9.229 0.746 17.177 0.141-13.534 16.663s-4.294 0.234-5.178 0.839c-0.885 0.605-13.303 0.282-13.303 0.282l-2.0048-8.542 7.6138-10.129z" fill="#000" opacity=".05"/>
  <path d="m98.167 96.69 2.1458 3.6407 0.467 6.347s1.494 5.412 2.615 6.999c1.12 1.587 1.586 5.789 1.586 5.789s0.467 3.92 1.026 4.758 1.307 6.922 1.307 6.922 4.948 9.893 9.427 11.105c0 0-22.214 7.281-10.547 20.348 0 0-8.3062 2.051-10.267-0.279-1.9612-2.331-7.0936-36.868-7.0936-36.868l1.5869-29.123 7.7473 0.3614z" fill="#CED7E7"/>
  <path d="m98.167 96.69 2.1458 3.6407 0.467 6.347s1.494 5.412 2.615 6.999c1.12 1.587 1.586 5.789 1.586 5.789s0.467 3.92 1.026 4.758 1.307 6.922 1.307 6.922 4.948 9.893 9.427 11.105c0 0-22.214 7.281-10.547 20.348 0 0-8.3062 2.051-10.267-0.279-1.9612-2.331-7.0936-36.868-7.0936-36.868l1.5869-29.123 7.7473 0.3614z" fill="#000" opacity=".05"/>
  <path d="m71.216 61.212c-0.6234 3.2337-0.4384 6.5712 0.5384 9.7162l-3.4558 9.8931s-26.321-14.654-24.08-18.202c1.269-2.0124 1.4305-7.3371 1.3279-11.567-0.0743-3.2148-0.3025-5.7939-0.3025-5.7939s32.302 3.1764 28.003 10.549c-0.9729 1.6758-1.6592 3.5023-2.0304 5.4042z" fill="#FFB6B6"/>
  <path d="m73.246 55.808c-0.9729 1.6758-1.6591 3.5023-2.0304 5.4042-4.7937 1.5335-9.9705 1.3594-14.65-0.4928-4.6798-1.8522-8.5736-5.2681-11.019-9.6669-0.0744-3.2148-0.3025-5.7939-0.3025-5.7939s32.294 3.1764 28.003 10.549z" fill="#000" opacity=".1"/>
  <path d="m86.313 39.939c0.0022 3.4221-0.8031 6.7965-2.3505 9.8488s-3.7932 5.6964-6.5548 7.7174-5.9612 3.3618-9.3386 3.9134c-3.3774 0.5517-6.8372 0.2986-10.098-0.7386-3.2612-1.0373-6.2315-2.8294-8.6697-5.2307-2.4382-2.4014-4.2753-5.3441-5.362-8.5891-1.0868-3.245-1.3925-6.7006-0.8923-10.086 0.5001-3.3854 1.7921-6.605 3.7708-9.3971 0.3076-0.4324 0.6315-0.8545 0.9716-1.2664 1.938-2.3554 4.3495-4.277 7.0782-5.64 1.4805-0.7407 3.0419-1.3068 4.653-1.6869 2.9091-0.6892 5.9289-0.7724 8.8716-0.2444 2.9426 0.5279 5.7451 1.6557 8.2332 3.3132 2.488 1.6576 4.6084 3.8093 6.2292 6.3214 1.6208 2.5122 2.7074 5.3309 3.192 8.281 0.1811 1.1524 0.2703 2.3174 0.2667 3.484z" fill="#FFB6B6"/>
  <path d="m94.898 129.36c-0.3256 1.739 0.082 4.915 0.6999 8.148 0.0256 0.141 0.0538 0.282 0.082 0.423s0.0692 0.359 0.1051 0.535c0.2846 1.39 0.5948 2.767 0.8973 4.018s0.5742 2.322 0.805 3.204c0.3486 1.32 0.587 2.151 0.587 2.151s0.0308 0.815 0.0718 2.113c0.0231 0.748 0.0487 1.661 0.0744 2.668 0 0.293 0.0179 0.59 0.0256 0.898 0.0128 0.535 0.0256 1.092 0.0384 1.661 0 0.184 1e-4 0.369 0.0129 0.556 0 0.613 0.023 1.238 0.0333 1.861 0.0128 0.857 0.0231 1.713 0.0282 2.543v3.195c-0.0282 1.987-0.1077 3.486-0.2769 3.92-0.0589 0.148-0.1128 0.31-0.1641 0.479-0.2222 0.796-0.3834 1.607-0.4819 2.428l-0.4358-0.357c-0.8332-0.687-1.6587-1.389-2.497-2.071-1.3934-1.167-2.8725-2.228-4.4249-3.174-0.1051-0.061-0.2102-0.123-0.3179-0.182-0.2871-0.166-0.5793-0.323-0.8767-0.472-0.6127-0.308-1.2407-0.586-1.8817-0.83-2.961-1.128-6.1323-1.538-9.3471-1.469-1.2818 0.49-2.115 0.841-2.115 0.841l-1.6305 0.492-0.2717 0.082c-1.7664 0.538-4.2505 1.302-5.1452 1.62-1.4459 0.513-14 3.125-14 3.125-1.1469 0.313-2.3185 0.528-3.5019 0.641-2.1549 0.606-4.3484 1.065-6.5655 1.374-5.0382 0.644-10.155 0.232-15.026-1.21-0.1454 9e-3 -0.2912 5e-3 -0.4358-0.013 0.0897 0 0.1769-0.02 0.2563-0.035l-0.3127-0.093-0.4282-0.133c-0.7178-0.226-1.4296-0.473-2.1355-0.741l-0.4281-0.164c-0.6836-0.263-1.3528-0.546-2.0073-0.849l-0.4282-0.194c-0.6836-0.318-1.3527-0.654-2.0073-1.008-0.2359-0.123-0.4691-0.256-0.6999-0.382-0.6973-0.39-1.3809-0.798-2.0509-1.225-0.1128-0.967-0.1718-1.613-0.1718-1.613l-0.9998-4.978-0.0512-0.257-0.7179-3.589-0.0512-0.256-1.5613-7.809-0.0513-0.256-0.7178-3.59-0.0513-0.256-1.5817-7.804-0.0513-0.256-0.7178-3.589-0.0513-0.256-1.5689-7.82-0.0513-0.256-0.71784-3.576-0.05127-0.257-0.28456-1.41-0.42813-2.135s-1.3664-1.954-2.9046-4.263l-0.17176-0.257c-0.43839-0.648-0.88959-1.323-1.328-1.984-0.14613-0.218-0.28713-0.433-0.42813-0.646-0.21363-0.323-0.42044-0.638-0.6204-0.946l-0.13844-0.213-0.0282-0.043c-2.2099-3.42-0.73064-4.907-0.73064-4.907s0.92804-1.2565 2.1253-2.9177c0.05897-0.0846 0.1205-0.1692 0.18459-0.2564 0.51273-0.7178 1.0767-1.5023 1.6305-2.2867l0.42813-0.6102c0.16151-0.2282 0.32046-0.4563 0.47427-0.6819 0.06153-0.0846 0.1205-0.1718 0.1769-0.2564 1.1818-1.7074 2.156-3.1968 2.356-3.725 0.31275-0.8331 2.3072-3.2968 4.2942-5.458 1.5663-1.7073 3.125-3.225 3.8249-3.589 1.5869-0.8384 2.2406-3.5481 2.2406-3.5481s3.4533-1.2101 3.9198-2.1432c0.4666-0.9332 7.0013-5.1273 7.0013-5.1273s2.6432-1.7023 3.7122-2.7277c0.1513-0.1341 0.2833-0.2886 0.3922-0.4589 0.3718-0.6666 2.7995-1.2152 3.7865-1.4126 0.2564-0.0513 0.4154-0.0795 0.4154-0.0795 0.3984-0.724 0.9021-1.3849 1.4946-1.9612 0.4024-0.3563 0.9049-1.5843 1.3279-2.7738 0.4589-1.2972 0.8153-2.5457 0.8153-2.5457 0.7485-2.5201 2.2406-1.774 2.2406-1.774-0.0021 0.3442 0.0306 0.6877 0.0974 1.0254 0.623 3.0764 4.007 4.3582 5.7836 5.7964 1.9612 1.5843 5.0401 5.6939 7.4679 6.5322 2.0099 0.6947 4.3402 3.3148 5.0785 4.189l0.0564 0.0666c0.1231 0.1436 0.1846 0.2256 0.1846 0.2256s1.3767-0.0718 2.215-0.0872h0.3051c0.1705-0.0171 0.3325-0.0829 0.4666-0.1897 0.8332-0.5665 2.074-2.2278 2.6149-2.6098 0.6511-0.4691 1.3074-8.0293 1.3074-8.0293l0.0334-0.0154c2.3252-1.0895 4.8196 9.8162 4.8196 9.8162s4.3864 1.3075 4.7607 2.2406c0.0718 0.1846 0.4025 0.5128 0.8998 0.9101 2.2646 1.7307 4.6749 3.2618 7.2039 4.5761 0.0564 0.0282 0.1102 0.0564 0.1666 0.0795 0.0508 0.0274 0.103 0.0522 0.1564 0.0744 0.0948 0.0461 0.1871 0.0871 0.2743 0.1256 0.1384 0.0615 0.2666 0.1128 0.3845 0.1538l0.1539 0.0538c0.3674 0.1223 0.7134 0.3013 1.0254 0.5307 0.0923 0.0667 0.1846 0.1359 0.2743 0.2102 0.3491 0.2906 0.6702 0.6133 0.9588 0.964 0.0436 0.0512 0.0846 0.1051 0.1257 0.1563 0.1948 0.2436 0.3691 0.4846 0.5127 0.7076 0.2356 0.3441 0.4505 0.7019 0.6435 1.0716 0 0 3.8249 6.5347 5.0401 7.2782 1.2151 0.7434 1.9615 8.3088 1.9615 8.3088l-4.1022 15.205s-0.1922 3.845-0.5511 7.768c-0.2 2.199-0.4538 4.437-0.7563 6.047z" fill="#CED7E7"/>
  <path d="m64.004 74.476s-2.7508 1.492-4.8991 1.633c-0.2813 0.0131-0.5631-0.0032-0.8409-0.0487-2.2509-0.3409-5.5529-2.1919-5.5529-2.1919l3.8737-4.248 4.712 2.3355 1.733 1.6126 0.9742 0.9075z" fill="#63667E"/>
  <path d="m86.036 36.455c-0.0975 0.1378-0.2082 0.2658-0.3307 0.382-1.3485 1.2818-3.7429 0.7511-5.5811 0.4537-1.5972-0.2611-3.1576-0.7121-4.6479-1.3433-1.2972-0.5538-2.8533-1.2306-4.0197-0.4358-0.4487 0.3025-0.7563 0.787-1.2229 1.0536s-1.0613 0.2846-1.6125 0.2923c-1.7946 0-3.5891 0.0205-5.3401-0.3846-2.6123-0.6101-5.3144-2.1457-7.7986-1.1331-1.9432 0.7896-2.9969 2.9046-3.5224 4.9376-0.2564 0.9972-0.4461 2.0509-1.0255 2.8969s-1.6997 1.4459-2.6534 1.0485c-1.4074-0.5871-1.6151-2.9764-3.3122-3.0969-1.8638-0.1307-1.8407 1.7946-1.2972 3.1867 0.805 2.0509 1.8586 4.1018 1.9048 6.2399-2.0031-3.5877-2.9495-7.6691-2.73-11.772 0.2196-4.1031 1.5963-8.0602 3.9708-11.414 0.4132-0.2559 0.7366-0.634 0.9255-1.0819 0.019-0.0605 0.0344-0.1222 0.0461-0.1846 0.141-0.7152-0.2564-1.4664-0.2794-2.2149-0.0898-1.8279 1.8894-3.1021 3.7044-3.3328 1.2075-0.1538 2.4432-0.0359 3.6532-0.0743 0.6095-0.0135 1.2157-0.0943 1.8074-0.241 1.0208-0.3059 1.9767-0.7969 2.82-1.4485 2.9091-0.6891 5.9289-0.7723 8.8715-0.2444 2.9426 0.528 5.7452 1.6558 8.2332 3.3133 2.4881 1.6575 4.6085 3.8092 6.2293 6.3214 1.6208 2.5121 2.7073 5.3309 3.192 8.2809l0.0154-0.0051z" fill="#000" opacity=".1"/>
  <path d="m86.474 34.945c-0.1278 0.5071-0.3941 0.9686-0.7691 1.3331-1.3485 1.2818-3.7429 0.7486-5.5811 0.4512-1.5973-0.2554-3.1579-0.7031-4.6479-1.3331-1.2972-0.5512-2.8533-1.228-4.0198-0.4333-0.4486 0.3026-0.7562 0.7871-1.2228 1.0537s-1.0614 0.2846-1.6125 0.2897c-1.7946 0.0128-3.5891 0.0231-5.3401-0.382-2.6124-0.6127-5.3144-2.1458-7.7986-1.1357-1.9432 0.7896-2.9969 2.9072-3.5225 4.9402-0.2563 0.9972-0.446 2.0509-1.0254 2.8943-0.5794 0.8435-1.6997 1.4485-2.6534 1.0511-1.4074-0.5871-1.6151-2.9764-3.3122-3.0969-1.8638-0.1307-1.8407 1.7946-1.2972 3.1866 0.9537 2.4278 2.2509 4.8428 1.8253 7.4167-0.423 0-1.1229-0.0154-1.5382-0.0257 0.323-0.5512-0.2922-1.2075-0.9049-1.3946-0.6128-0.1872-1.328-0.1846-1.7946-0.6307-0.4666-0.446-0.4691-1.1357-0.4204-1.7535 0.1063-1.3205 0.4294-2.6145 0.9562-3.8301 0.3358-0.7691 0.7691-1.6023 0.5127-2.4072-0.1538-0.3649-0.3391-0.7157-0.5537-1.0486-0.5333-1.0254-0.4076-2.3072 0.0487-3.366 0.1948-0.4512 0.3358-0.8768 0.4973-1.2819 0.204-0.5757 0.4992-1.115 0.8742-1.5971 0.5871-0.7306 1.1614-1.8304 0.5128-2.5098-0.1641-0.1718 0.164-0.2897 0.0589-0.5127-0.0185-0.0381-0.0315-0.0787-0.0384-0.1205-0.0302-0.2701 0.0351-0.5422 0.1846-0.7691 0.0302-0.059 0.0636-0.1163 0.0999-0.1718 0.0295-0.0586 0.0629-0.1151 0.1-0.1692 0.5677-0.9478 1.3222-1.7703 2.2176-2.4175 0.5563-0.4025 1.2075-0.7896 1.4279-1.4408 0.2564-0.7691-0.1948-1.5869-0.2333-2.3995-0.0897-1.8279 1.8894-3.102 3.7045-3.3328 1.8151-0.2307 3.6968 0.1513 5.4657-0.3179 2.5098-0.6614 4.2736-2.8764 6.5527-4.1197 1.2467-0.6667 2.6294-1.0396 4.0423-1.0902 1.4129-0.0507 2.8187 0.2222 4.11 0.7979 2.6611 1.2152 4.6684 3.6711 7.4474 4.5941 0.9845 0.3281 2.0509 0.4589 2.938 1.0023 1.0254 0.6307 1.6484 1.7331 2.1816 2.8201 0.8127 1.6484 0.9768 3.3045 1.5382 5.0503 0.4461 1.3844 1.0639 3.1943 1.1152 4.7889 0.0288 0.4762-0.0135 0.954-0.1256 1.4177z" fill="#896363"/>
  <g fill="#000" opacity=".1">
   <path d="m44.02 31.733c0.041-0.164 0.0451-0.3352 0.0118-0.501-0.0332-0.1658-0.1029-0.3222-0.2041-0.4578 0.0667 0.2-0.223 0.3154-0.064 0.482 0.1266 0.1331 0.2151 0.2978 0.2563 0.4768z" opacity=".1"/>
   <path d="m43.82 30.187c-0.0302 0.0895-0.0483 0.1826-0.0538 0.2769 0.0487-0.0821 0.1154-0.1667 0.0538-0.2769z" opacity=".1"/>
   <path d="m85.777 35.653c-1.351 1.2818-3.7429 0.7511-5.5862 0.4512-1.5962-0.257-3.1552-0.7073-4.6427-1.3408-1.2998-0.5538-2.8534-1.2306-4.0224-0.4358-0.4461 0.3025-0.7537 0.787-1.2228 1.0536-0.4692 0.2666-1.0614 0.2846-1.6126 0.2897-1.7945 0-3.5891 0.0231-5.3426-0.3845-2.6098-0.6102-5.3119-2.1407-7.796-1.1332-1.9433 0.7922-2.9969 2.9072-3.5225 4.9402-0.2563 0.9972-0.4435 2.0509-1.0254 2.8969-0.582 0.846-1.7023 1.4459-2.6534 1.0511-1.4075-0.5897-1.6151-2.9764-3.3122-3.0969-1.3254-0.0949-1.6946 0.8537-1.6049 1.9073 0.0769-0.8049 0.5128-1.4253 1.6049-1.3484 1.6971 0.1205 1.9047 2.5098 3.3122 3.0968 0.9511 0.3974 2.074-0.1999 2.6534-1.051 0.5793-0.8512 0.7691-1.8997 1.0254-2.8944 0.5256-2.033 1.5792-4.1505 3.5225-4.9401 2.4841-1.0101 5.1862 0.5127 7.796 1.1331 1.7433 0.4076 3.5532 0.3948 5.3426 0.382 0.5512 0 1.1332-0.0154 1.6126-0.2872 0.4794-0.2717 0.769-0.7511 1.2228-1.0562 1.169-0.7921 2.7226-0.1153 4.0224 0.4358 1.4878 0.6333 3.0467 1.0843 4.6427 1.3434 1.8433 0.2974 4.2352 0.8332 5.5862-0.4538 0.7332-0.6998 0.9537-1.7125 0.905-2.82-0.041 0.8793-0.2974 1.6766-0.905 2.2612z" opacity=".1"/>
   <path d="m47.594 22.87c-0.0142 0.1277-0.0193 0.2562-0.0154 0.3846 0.0257 0.5332 0.2282 1.0665 0.2923 1.5869 0.0948-0.6384-0.2-1.3049-0.2769-1.9715z" opacity=".1"/>
   <path d="m42.385 41.059c0.0212 0.0766 0.0375 0.1545 0.0488 0.2333 0.0415-0.2645 0.0249-0.5348-0.0488-0.7922-0.1528-0.3662-0.3381-0.718-0.5537-1.0511-0.1926-0.3792-0.3068-0.7934-0.3358-1.2177-0.0522 0.6125 0.064 1.2277 0.3358 1.7791 0.2161 0.332 0.4014 0.6829 0.5537 1.0486z" opacity=".1"/>
   <path d="m45.566 50.54-1.4997-0.0231c0.0349 0.0906 0.049 0.188 0.041 0.2847-8e-3 0.0968-0.0378 0.1906-0.0872 0.2742 0.423 0 1.1255 0.0154 1.5382 0.0256 0.0717-0.4387 0.0966-0.8839 0.0744-1.3279-0.0059 0.2566-0.0281 0.5127-0.0667 0.7665z" opacity=".1"/>
   <path d="m43.113 49.122c-0.6127-0.1846-1.3254-0.1871-1.7817-0.6358-0.2686-0.2938-0.4201-0.676-0.4256-1.0741-0.0384 0.5896 0 1.2254 0.4256 1.6356 0.4563 0.4486 1.169 0.4512 1.7817 0.6358 0.1994 0.058 0.3848 0.1561 0.5448 0.2883 0.16 0.1323 0.2913 0.2959 0.3858 0.4808 0.259-0.5307-0.3358-1.1537-0.9306-1.3306z" opacity=".1"/>
  </g>
  <path d="m89.754 164.38c-0.2871-0.166-0.5794-0.323-0.8768-0.471-0.6126-0.309-1.2407-0.587-1.8817-0.831-2.961-1.128-6.1322-1.538-9.347-1.469-1.2818 0.49-2.115 0.841-2.115 0.841l-1.6305 0.492-0.2718 0.082c-0.0179-0.179-0.0384-0.359-0.0564-0.541-0.0179-0.182-0.0384-0.356-0.0589-0.536-0.5743-5.437-1.0255-11.023-1.0255-11.023v-5.387l-0.0307-14.215-0.2564-4.686-0.1205-2.074-0.0231-0.395-0.0461-0.81-0.0256-0.482c-0.0566-0.153-0.1046-0.309-0.1436-0.467-0.018-0.064-0.0359-0.136-0.0513-0.21-0.0641-0.256-0.1333-0.587-0.2051-0.946-0.4691-2.358-1.0562-6.335-1.0921-7.142-0.0461-1.077-0.9793-7.517-0.9793-7.517-0.0949-3.545-3.0764-10.221-3.8275-11.48-0.7512-1.2588-1.5895-8.8215-1.3075-9.2291 0.1462-0.2179 0.241-1.5074 0.3-2.697 0-0.1358 0.0128-0.2692 0.0179-0.3999 0.0385-0.9306 0.0564-1.7074 0.0564-1.7074l2.9328-0.5794 0.7871-0.1538 0.0615-0.0128 0.0256 0.0513c0.0846 0.1563 0.3487 0.6563 0.6589 1.3125 0.0359 0.0693 0.0692 0.1436 0.1051 0.218 0.0154 0.0358 0.0333 0.0717 0.0513 0.1076 0.5742 1.2562 1.2382 2.9098 1.21 3.8609-0.0461 1.6817 1.8689 5.7425 1.8689 5.7425 0.1846 0.9332 4.2454 10.218 4.2454 10.218s3.3148 9.101 3.1276 10.596c-0.1871 1.494 1.5869 11.388 1.5869 11.388l1.8202 10.175c0.8845 2.004 2.0509 6.624 2.0509 6.624l0.4435 2.62 0.0846 0.5 1.1819 6.991 0.5794 3.425s0.2435 1.82 0.6127 3.846c0.0307 0.182 0.0666 0.366 0.1025 0.551 0.2274 1.333 0.5504 2.648 0.9665 3.935 0.2063 0.616 0.3716 1.246 0.4948 1.884z" fill="#000" opacity=".1"/>
  <path d="m90.071 164.56c-0.1051-0.061-0.2102-0.123-0.3179-0.182-0.2871-0.166-0.5794-0.323-0.8768-0.472-0.6126-0.308-1.2407-0.586-1.8817-0.83-2.961-1.128-6.1322-1.538-9.347-1.469-1.2818 0.49-2.115 0.841-2.115 0.841l-1.6305 0.492c-0.0205-0.179-0.0384-0.359-0.0589-0.541-0.0206-0.182-0.0359-0.328-0.0513-0.492-0.5743-5.425-1.0255-10.985-1.0255-10.985v-5.433l-0.0307-14.179-0.2564-4.476-0.0513-0.928-0.0359-0.629-0.0461-0.83-0.0462-0.844-0.0333-0.607v-0.133c0-0.013 0-0.029-0.0179-0.044-0.0487-0.138-0.1077-0.349-0.1718-0.615l-0.0308-0.128c-0.0128-0.059-0.0282-0.124-0.041-0.188-0.4819-2.186-1.1895-6.901-1.228-7.785-0.0461-1.077-0.9793-7.517-0.9793-7.517-0.0948-3.546-3.0763-10.221-3.8275-11.48-0.7511-1.2588-1.5869-8.8215-1.3074-9.2291 0.1615-0.2564 0.2563-1.8125 0.3179-3.0969v-0.2974c0.0333-0.7921 0.0461-1.41 0.0461-1.41l2.7277-0.5383 0.6922-0.1359 0.1077-0.0205 0.2563-0.0513s0.3359 0.6204 0.7384 1.4741l0.0512 0.1077c0.5871 1.2664 1.2818 2.9892 1.2613 3.9685-0.0461 1.6817 1.8689 5.7425 1.8689 5.7425 0.1846 0.9332 4.2454 10.219 4.2454 10.219s3.3148 9.101 3.1277 10.596c-0.1872 1.494 1.5869 11.387 1.5869 11.387l1.8201 10.175c0.8845 2.005 2.0509 6.625 2.0509 6.625l0.4128 2.44 0.0846 0.495 0.9306 5.517 0.8588 5.084s0.2564 1.812 0.6102 3.845c0.0333 0.185 0.0666 0.37 0.1025 0.557 0.2271 1.339 0.5501 2.66 0.9665 3.953 0.2273 0.67 0.4089 1.354 0.5435 2.048z" fill="#63667E"/>
  <path d="m87.759 32.894s-0.9793 1.2613-1.8638 1.2613-4.3274-0.141-6.122-0.6999c-1.7945-0.5588-10.593-0.9818-10.593-0.9818s-12.459 0.0461-12.88-0.3743c-0.4204-0.4205-7.7473-2.6611-8.4933-2.5201-0.1564 0.0308-0.5384 0.0974-1.0486 0.182l-0.5845 0.0949c-0.8844 0.141-1.9894 0.3051-2.9994 0.4255-1.2485 0.1462-2.3458 0.2205-2.6944 0.0923v-1.0741s1.4459-2.1022 1.5382-2.7047c0.0923-0.6024 1.3074-9.3368 4.4812-12.462 1.3112-2.5065 3.4331-4.4946 6.0194-5.6401 4.2941-1.8689 8.5882-3.4532 8.5882-3.4532l0.7512-0.10768 2.4226-0.35891c0.0737-0.07331 0.1534-0.1402 0.2385-0.19996 0.6716-0.51273 2.7072-1.6279 5.3605 0.76909l0.4692 0.74859s8.1652 1.9125 11.944 8.5856 3.9685 13.208 4.2479 16.194c0 0-0.1871 0.8409 0.1872 1.1665 0.1355 0.1197 0.2647 0.2463 0.3871 0.3794 0.0333 0.0333 0.0666 0.0666 0.0974 0.1025 0.1077 0.1077 0.2077 0.2205 0.2897 0.3128 0.0098 0.0072 0.0184 0.0159 0.0256 0.0256 0.0201 0.0243 0.0415 0.0474 0.0641 0.0693l0.1667 0.1666z" fill="#D5B26B"/>
  <g fill="#000">
   <path d="m87.758 32.894s-0.9793 1.2613-1.8638 1.2613c-0.8844 0-4.3274-0.141-6.122-0.6999-1.7945-0.5589-10.593-0.9819-10.593-0.9819s-12.459 0.0462-12.88-0.3743c-0.4204-0.4204-7.7473-2.661-8.4933-2.52-0.1564 0.0307-0.5384 0.0974-1.0486 0.182l-0.1333-0.8204-0.0333-0.2025s14.141-3.0328 23.568-1.4433c9.4265 1.5894 16.382 3.3583 16.382 3.3583s-0.1871 0.8409 0.1872 1.1665c0.1355 0.1197 0.2647 0.2463 0.3871 0.3794 0.0333 0.0333 0.0667 0.0667 0.0974 0.1026 0.1077 0.1076 0.2077 0.2204 0.2897 0.3127 0.0098 0.0072 0.0184 0.0159 0.0256 0.0257 0.0201 0.0242 0.0415 0.0473 0.0641 0.0692l0.1667 0.1846z" opacity=".05"/>
   <path d="m86.474 34.945c-1.7458 0.1359-4.9632-0.2897-6.3706-0.4973-0.3999-0.059-0.7922-0.1308-1.187-0.2179-1.51-0.3282-6.1527-1.2485-8.9727-0.823-3.4071 0.5128-13.021-0.4204-13.021-0.4204s-5.9271-1.2126-8.3087-2.1919c-0.8742-0.3615-2.3355-0.4743-3.7891-0.2948-0.3707 0.0462-0.7387 0.1121-1.1024 0.1974-1.9842 0.4691-3.6583 1.5382-3.3686 3.3609-0.1109-0.1329-0.2136-0.2725-0.3076-0.4179-0.1257-1.6663 0.3922-2.6585 1.11-3.243l0.1692-0.0692c0.8769-0.2492 1.7693-0.4401 2.6713-0.5717 0.141-0.0231 0.2872-0.0436 0.4359-0.0615 2.5508-0.3435 6.2399-0.4205 9.3521 1.1459 0 0 2.8918 1.3562 4.853 1.3562s17.92 0.141 21.655 1.2126c0.7436 0.2148 1.5019 0.3751 2.2688 0.4794 1.3618 0.1756 2.7456 0.0451 4.0506-0.382 0.0267 0.4837-0.02 0.9686-0.1385 1.4382z" opacity=".1"/>
   <path d="m87.759 32.894s-0.9793 1.2613-1.8638 1.2613-4.3274-0.141-6.122-0.6999c-1.7945-0.5589-10.593-0.9819-10.593-0.9819s-12.459 0.0462-12.88-0.3743c-0.4204-0.4204-7.7473-2.661-8.4933-2.52-0.1564 0.0307-0.5384 0.0974-1.0486 0.182l-0.5845 0.0949c-1.0152-0.0052-2.0257 0.1381-2.9994 0.4255-1.2485 0.1461-2.3458 0.2205-2.6944 0.0923v-0.2128c0.2688-0.156 0.549-0.2914 0.8383-0.405 1.73-0.4845 3.5114-0.7616 5.3067-0.8255 2.2381-0.0821 4.8556 0.1794 7.1552 1.3382 0 0 2.8917 1.3562 4.8529 1.3562s17.92 0.1384 21.655 1.2126c0.744 0.2128 1.5022 0.3721 2.2688 0.4768 1.6823 0.212 3.3906-0.0333 4.9453-0.7101 0.0098 0.0072 0.0184 0.0158 0.0256 0.0256 0.0201 0.0243 0.0415 0.0474 0.0641 0.0692l0.1667 0.1949z" opacity=".1"/>
  </g>
  <path d="m40.39 34.014s-3.1277-2.3816 0.9332-3.9685c0 0 7.0936-2.1919 12.462 0.5127 0 0 2.8918 1.351 4.853 1.351s17.92 0.141 21.655 1.2152c0.7439 0.2131 1.5021 0.3725 2.2688 0.4768 1.9872 0.241 4.0002-0.1415 5.7605-1.0946 0.2564-0.141 0.4871-0.2128 0.5563-0.1308 0.2333 0.282 0.0487 1.9151-2.0047 2.2407-1.6023 0.2563-5.2427-0.2282-6.7732-0.4512-0.3973-0.059-0.7921-0.1334-1.1844-0.218-1.51-0.3281-6.1527-1.2485-8.9856-0.8229-3.4045 0.5127-13.021-0.4204-13.021-0.4204s-5.9246-1.2126-8.3062-2.1945-9.1009-0.1359-8.2139 3.5045z" fill="#D5B26B"/>
  <g fill="#000">
   <path d="m66.757 8.9907c-0.2564-0.36917-3.5507-3.0072-4.894-4.0736l2.4226-0.35891c0.0737-0.07331 0.1534-0.14021 0.2384-0.19996 1.7613 1.8484 2.233 4.6325 2.233 4.6325z" opacity=".1"/>
   <path d="m56.072 23.139-1.0742 1.5869 4.107-0.1384 0.0923-1.7741-3.1251 0.3256z" opacity=".1"/>
   <path d="m81.131 25.054 0.4666 1.4459 2.6149 0.4204-1.1203-1.7279-1.9612-0.1384z" opacity=".1"/>
   <path d="m36.237 73.594c0.2795 0.4666 9.4727 12.562 11.9 12.226 2.4278-0.3359-11.9-12.226-11.9-12.226z" opacity=".1"/>
   <path d="m67.039 84.649s2.2406 2.1484 1.9124 2.9867c-0.3281 0.8383-1.9124-2.9867-1.9124-2.9867z" opacity=".1"/>
   <path d="m42.585 99.398s-1.9611 9.1934-0.9331 9.4854 0.9331-9.4854 0.9331-9.4854z" opacity=".1"/>
   <path d="m67.785 135.1c0.3255 0.933 3.0327 7.001 3.6403 7.327 0.6076 0.325-3.6403-7.327-3.6403-7.327z" opacity=".1"/>
   <path d="m99.241 110.18c-0.0948 0.325-2.4277 2.24-1.915 2.94s1.915-2.94 1.915-2.94z" opacity=".1"/>
   <path d="m81.131 127.21c-0.0462 0.236-0.5127 5.128 0.3743 6.069 0.887 0.94-0.3743-6.069-0.3743-6.069z" opacity=".1"/>
   <path d="m105.04 152.62c-0.677 0.377-1.376 0.741-2.089 1.09-0.769 0.374-1.538 0.73-2.323 1.066-0.313 0.136-0.625 0.27-0.9355 0.398-0.4717 0.195-0.9383 0.382-1.3997 0.561-1.4023 0.549-2.7534 1.026-3.9557 1.428-0.4666 0.156-0.9127 0.3-1.328 0.433-2.0919 0.664-3.4814 1.026-3.4814 1.026-0.3174-0.068-0.6423-0.095-0.9665-0.08h-0.2769c-0.4342 0.032-0.8663 0.087-1.2946 0.164-2.8636 0.513-6.909 1.951-9.3471 2.892-1.2818 0.49-2.115 0.841-2.115 0.841l-1.6304 0.492-0.2718 0.082c-1.7663 0.539-4.2505 1.303-5.1452 1.621-1.4459 0.512-14 3.125-14 3.125-1.1469 0.313-2.3185 0.527-3.5019 0.641-2.9162 0.267-5.8474 0.334-8.7728 0.2-2.9379 0.189-7.6909-0.457-10.457-0.893l-0.4409-0.069c-1.0691-0.174-1.7484-0.3-1.7484-0.3l0.3589-0.495 7.3602-10.154 0.0436-0.062 6.8577-9.457 0.2564-0.344 0.6229-0.858s0.3743-0.513 1.8151-0.546h0.5563c1.2102 0.097 2.4042 0.341 3.5558 0.725l0.3333 0.1c4.9657 1.423 12.641 1.067 12.641 1.067s4.776-0.77 8.5292-1.231l0.2795-0.036c1.2264-0.173 2.4613-0.28 3.6993-0.32 2.2868 0.046 7.2346-1.167 7.2346-1.167 1.0639-0.228 1.5125-0.42 2.1124-0.848 0.0795-0.057 0.1641-0.118 0.2564-0.185 0.2564-0.192 0.5512-0.428 0.9306-0.72 0.6922-0.531 1.6638-1.251 3.1917-2.261 0.1333-0.088 0.2743-0.175 0.4256-0.257 0.1512-0.082 0.3435-0.192 0.5281-0.284 1.4797-0.701 3.0398-1.218 4.6453-1.539 1.3318-0.286 2.6832-0.472 4.0429-0.556h0.2029c3.845-0.205 7.773 0.454 10.07 2.615 0.401 0.38 0.751 0.811 1.04 1.282 0.141 0.224 0.266 0.457 0.375 0.697 0.209 0.459 0.365 0.941 0.464 1.436 0.019 0.092 0.034 0.184 0.046 0.277v0.082c0 0.074 0.015 0.148 0.02 0.223 0.205 3.068-2.979 5.842-7.014 8.098z" opacity=".1"/>
  </g>
  <path d="m29.564 166.79s8.3062 1.538 12.646 1.259c0 0 7.9806 0.42 12.275-0.839 0 0 12.562-2.614 14-3.127s7.0474-2.195 7.0474-2.195 10.921-4.573 14-3.827c0 0 24.175-6.253 22.447-14.7s-16.987-6.532-21.791-3.361c-4.8043 3.171-4.1019 3.502-6.486 4.015 0 0-4.9479 1.212-7.2346 1.166-2.2868-0.046-12.508 1.587-12.508 1.587s-8.0268 0.374-12.972-1.166c-4.9452-1.541-5.9271-0.188-5.9271-0.188l-15.497 21.376z" fill="#FFB6B6"/>
  <path d="m47.576 144.86c0.0012 0.01 0.0012 0.02 0 0.03-0.0179 0.191-0.0673 0.377-0.1462 0.552-0.9844 2.415-6.5732 8.929-6.5732 8.929-0.2547 0.774-0.5622 1.529-0.9203 2.261-0.7701 1.564-1.657 3.068-2.6534 4.499-1.4768 2.141-3.0892 4.185-4.8273 6.12h-0.0128c-0.2212 0.164-0.4514 0.315-0.6896 0.453-0.6025 0.359-1.5075 0.803-2.3612 0.857-0.1453 8e-3 -0.2912 4e-3 -0.4358-0.013 0.0897 0 0.1769-0.021 0.2564-0.036l-0.3128-0.092-0.4281-0.134c-0.7178-0.225-1.4297-0.472-2.1355-0.741l-0.4281-0.164c-0.6837-0.263-1.3528-0.546-2.0074-0.848l-0.4281-0.195c-0.6836-0.318-1.3528-0.654-2.0073-1.008-0.2359-0.123-0.4692-0.256-0.6999-0.382-0.6973-0.389-1.381-0.798-2.0509-1.225-0.711-0.453-1.4066-0.925-2.0868-1.418-0.5128-0.951-0.9358-1.794-1.1665-2.248-0.4204-0.843-0.4563-2.051-0.405-2.925 0-0.09 0-0.174 0.0153-0.256 0.0436-0.549 0.1103-0.926 0.1103-0.926-0.3799-0.508-0.7226-1.042-1.0255-1.6-0.174-0.276-0.273-0.593-0.2871-0.92 0.0116-0.131-6e-4 -0.263-0.0359-0.39-0.1974-0.81-1.046-2.202-1.8304-3.076-0.5846-0.644-0.6204-3.048-0.564-4.753 0.0333-1.026 0.0974-1.779 0.0974-1.779-0.1149-0.074-0.2009-0.186-0.2436-0.316-0.2061-0.561-0.3455-1.144-0.4153-1.738 0-0.084-0.0231-0.169-0.0359-0.256-0.164-1.177-0.2384-2.359-0.2384-2.359-1.8971-1.381-2.7995-3.537-3.2199-5.46l-0.05384-0.257c-0.2309-1.181-0.32892-2.385-0.29225-3.589v-0.32s0.25124-5.556 0.95367-7.724c0.0282-0.093 0.05897-0.177 0.08973-0.257 0.05175-0.136 0.11884-0.266 0.19996-0.387 0.25637-0.341 0.43839-0.984 0.58964-1.746 0.10511-0.528 0.19228-1.115 0.25637-1.699 0.05896-0.487 0.10511-0.972 0.141-1.421 0.09998-1.199 0.13074-2.135 0.13074-2.135l-0.47427-2.338c-0.13075-0.639-0.23073-1.282-0.29995-1.925 0-0.085-0.02051-0.17-0.03076-0.257-0.1199-1.188-0.14134-2.384-0.06409-3.576 0-0.087 0-0.172 0.01538-0.256 0.20017-2.715 0.90985-5.368 2.0919-7.8196l0.1282-0.2563c0.1709-0.3419 0.3504-0.6777 0.5384-1.0076 0.1359-0.2435 0.2794-0.4845 0.4281-0.7229 0.3942-0.6384 0.8221-1.2554 1.2818-1.8484 0.0667-0.0872 0.1359-0.1718 0.2051-0.2564 0.8-0.9917 1.689-1.9082 2.656-2.7379 2.5892-2.2253 4.9657-3.1918 7.1243-3.2661 9.4393-0.3333 14.733 16.361 15.59 19.286 0.0821 0.282 0.1231 0.436 0.1231 0.436s3.8249 3.827 2.7046 5.507c-0.2172 0.369-0.3494 0.783-0.3871 1.21-0.3076 2.258 0.5743 5.978 0.5743 5.978s0.3127 1.026 1.2254 3.481l0.2692 0.718c0.5717 1.538 0.705 4.12 0.3768 6.432-0.3153 2.215-1.0562 4.174-2.2432 4.677-2.4277 1.025-1.774 2.05-1.2151 2.894 0.3321 0.605 0.6092 1.238 0.828 1.892 0.3512 0.946 0.6768 1.941 0.7999 2.328 0.0359 0.107 0.0538 0.166 0.0538 0.166 0.3401-0.131 0.6933-0.226 1.0537-0.282 0.4589-0.064 0.9126-0.018 0.9998 0.375 0.0461 0.21 0.3102 0.458 0.6819 0.707 1.1024 0.759 3.1431 1.554 3.1431 1.554z" fill="#000" opacity=".1"/>
  <path d="m47.017 144.86c-0.0157 0.195-0.0651 0.386-0.1461 0.564-0.9794 2.417-6.5732 8.947-6.5732 8.947-0.2559 0.773-0.5634 1.529-0.9204 2.261-0.6186 1.263-1.3183 2.485-2.0945 3.658-1.607 2.425-3.3874 4.729-5.3272 6.897l-0.059 0.064s-0.2256 0.171-0.5845 0.392c-0.6413 0.409-1.348 0.706-2.0894 0.877l-0.3127-0.093-0.4281-0.133c-0.7179-0.226-1.4297-0.473-2.1356-0.741l-0.4281-0.164c-0.6836-0.263-1.3527-0.546-2.0073-0.849l-0.4282-0.194c-0.6836-0.318-1.3527-0.654-2.0073-1.008-0.2358-0.123-0.4691-0.256-0.6999-0.382-0.6973-0.39-1.3809-0.798-2.0509-1.225-0.711-0.453-1.4066-0.926-2.0868-1.418-0.3144-0.226-0.6255-0.457-0.9331-0.695-0.3461-0.656-0.623-1.21-0.7948-1.553-0.4204-0.844-0.4563-2.051-0.405-2.925 0-0.09 0-0.175 0.0154-0.257 0.0435-0.548 0.1102-0.925 0.1102-0.925s-0.2077-0.28-0.4589-0.659c-0.141-0.21-0.2923-0.454-0.4281-0.695-0.2564-0.451-0.4564-0.907-0.4179-1.166 0.0052-0.045 0.0052-0.089 0-0.134-0.0039-0.086-0.0167-0.172-0.0385-0.256-0.1974-0.81-1.0485-2.202-1.833-3.076-0.5845-0.644-0.6204-3.049-0.5665-4.753v-0.257c0.0359-0.884 0.0897-1.523 0.0897-1.523-0.2897-0.125-0.5127-1.056-0.6563-2.05l-0.0384-0.257c-0.1641-1.176-0.2385-2.358-0.2385-2.358-1.8971-1.382-2.7995-3.538-3.2173-5.461-0.29112-1.347-0.40318-2.726-0.33327-4.102v-0.064s0.22047-5.583 0.92291-7.755c0.0282-0.092 0.05896-0.177 0.08972-0.256 0.06152-0.133 0.13807-0.259 0.22817-0.374 0.38967-0.544 0.6486-1.851 0.8178-3.19l0.03076-0.256c0.21278-1.795 0.27175-3.556 0.27175-3.556l-0.47684-2.338c-0.12989-0.641-0.22987-1.283-0.29995-1.925-0.01281-0.085-0.0205-0.172-0.03076-0.256-0.11988-1.189-0.14131-2.385-0.06409-3.577 0-0.087 0-0.172 0.01795-0.256 0.19895-2.715 0.90869-5.368 2.0919-7.8193 0.0411-0.0871 0.0821-0.1717 0.1282-0.2563 0.3296-0.6659 0.696-1.3129 1.0973-1.9381 0.1384-0.2179 0.2794-0.4333 0.4281-0.6461 0.2333-0.3384 0.4768-0.6716 0.7306-0.9947l0.2051-0.2563c0.7931-0.988 1.6744-1.9018 2.6329-2.7303 2.82-2.4175 5.3836-3.3507 7.6909-3.2661 9.0881 0.3256 14.19 16.42 15.028 19.286 0.082 0.282 0.123 0.436 0.123 0.436s3.8276 3.827 2.7072 5.507c-0.2172 0.369-0.3494 0.783-0.3871 1.21-0.3102 2.258 0.5743 5.978 0.5743 5.978s0.3128 1.026 1.2254 3.481c0.0821 0.229 0.1718 0.467 0.2564 0.718 0.5717 1.539 0.705 4.12 0.3768 6.432-0.3153 2.218-1.0536 4.174-2.2432 4.677-2.4252 1.025-1.774 2.051-1.2126 2.894 0.3321 0.605 0.6093 1.238 0.8281 1.892 0.4435 1.207 0.8511 2.494 0.8511 2.494 0.1678-0.064 0.339-0.12 0.5128-0.166 0.3566-0.118 0.7343-0.157 1.1075-0.116 0.1032 8e-3 0.2013 0.049 0.2801 0.116 0.0787 0.067 0.1341 0.158 0.1582 0.259 0.0693 0.307 0.5999 0.689 1.2434 1.051 0.8355 0.454 1.6976 0.858 2.5816 1.21z" fill="#CED7E7"/>
  <g fill="#000">
   <path d="m13.275 120.21c0.887-0.046 10.408-3.733 12.37-2.474s14.1 9.426 14.1 9.426-7.6063-9.939-14.233-12.272-12.236 5.32-12.236 5.32z" opacity=".1"/>
   <path d="m26.962 135.24s9.5214 1.912 10.967 3.22l-10.967-3.22z" opacity=".1"/>
   <path d="m25.129 149.48c-0.1384 0.141-3.5891 7.886-3.3122 7.886s3.2199-4.615 3.2199-4.615l0.0923-3.271z" opacity=".1"/>
   <path d="m31.617 140.18s-2.7994 0.982-2.4739 1.074c0.3256 0.093 2.3791-0.653 2.4739-1.074z" opacity=".1"/>
   <path d="m28.818 151.9c0.4666 0.979 1.9586 3.92 2.2867 3.453 0.3282-0.466-2.2867-3.453-2.2867-3.453z" opacity=".1"/>
   <path d="m63.766 74.279-0.3999 0.5691s-3.1763-2.238-4.4812-3.3583c-1.3049-1.1204-4.3864 4.0121-6.8142 5.4118s-6.5322 1.774-6.5322 1.774-3.1738-3.1737-3.0763-4.1018c0.0974-0.928-1.4921-1.2126-1.5869-1.8663-0.0949-0.6537-0.6538-2.5201-1.3998-3.4532-0.3948-0.4923-0.4512-2.033-0.4153-3.3738 0.2564-0.0513 0.4153-0.0795 0.4153-0.0795 0.3985-0.724 0.9022-1.3849 1.4946-1.9612 0.8409-0.746 2.1458-5.3195 2.1458-5.3195 0.746-2.5201 2.2381-1.7741 2.2381-1.7741 0 3.8276 3.9223 5.2273 5.881 6.8142 1.9586 1.5869 5.0401 5.6939 7.4678 6.5347 1.992 0.6794 4.3223 3.3071 5.0632 4.1839z" opacity=".1"/>
  </g>
  <path d="m63.765 73.718-0.4 0.5717s-3.1891-2.2329-4.494-3.3609-4.3864 4.0121-6.8142 5.4118c-2.4278 1.3998-6.5321 1.7766-6.5321 1.7766s-3.1738-3.1763-3.0764-4.1018-1.4921-1.2126-1.5869-1.8689c-0.0949-0.6563-0.6537-2.5201-1.3998-3.4532-0.3948-0.4922-0.4512-2.033-0.4153-3.3738l0.4153-0.0769c0.3985-0.724 0.9022-1.385 1.4946-1.9612 0.8409-0.7486 2.1458-5.3195 2.1458-5.3195 0.746-2.5201 2.2381-1.7766 2.2381-1.7766 0 3.8275 3.9223 5.2298 5.881 6.8167 1.9586 1.5869 5.0401 5.6913 7.4679 6.5322 2.0047 0.6896 4.3351 3.3071 5.076 4.1838z" fill="#CED7E7"/>
  <path d="m64.004 74.476s-2.7508 1.492-4.8992 1.633c-0.2812 0.0131-0.563-0.0032-0.8408-0.0487 0 0 2.3713-1.7715 4.5735-2.133l1.1665 0.5487z" fill="#000" opacity=".1"/>
  <path d="m69.606 82.083s-3.4686-1.351-4.6146 0.6819c0.0385-0.9331 0.0538-1.7074 0.0538-1.7074l3.7814-0.7485s0.3641 0.6742 0.7896 1.5817c-0.0102 0.1205-0.0102 0.1923-0.0102 0.1923z" fill="#000" opacity=".1"/>
  <path d="m58.264 76.061s4.1556-2.4944 6.1527-2.2842c2.0945 0.2179 6.1528 0.3717 6.1528 0.3717s-1.3998 3.1738-1.2126 3.8275c0.1871 0.6538 0.2332 3.8276 0.2332 3.8276s-4.1992-1.6331-4.8991 1.3997c0 0-2.2867-3.4071-3.8275-4.4351-1.0224-0.7386-1.903-1.6557-2.5995-2.7072z" fill="#63667E"/>
  <path d="m81.739 78.958c-1.2126 0-5.5067-2.7098-6.4399-4.4812-0.9331-1.7715-2.2406 0.1845-3.4532 0.8408-0.7691 0.4205-3.8173-0.4589-5.4605-1.0972 0.8331-0.5666 2.679-2.1612 3.2199-2.5432 0.6512-0.4691 1.3075-8.0293 1.3075-8.0293 2.3329-1.2126 4.8529 9.8008 4.8529 9.8008s4.389 1.3075 4.7607 2.2407c0.0718 0.1845 0.4025 0.5127 0.8999 0.91 0.5127 1.2921 0.7947 2.3586 0.3127 2.3586z" fill="#000" opacity=".1"/>
  <path d="m81.739 78.396c-1.2126 0-5.5067-2.7072-6.4398-4.4787-0.9332-1.7715-2.2406 0.1846-3.4533 0.8383-0.769 0.4205-3.2122-0.3922-4.8555-1.0254 0.8332-0.564 2.074-2.2253 2.6149-2.6098 0.6512-0.4666 1.3075-8.0268 1.3075-8.0268 2.3329-1.2126 4.853 9.8008 4.853 9.8008s4.3889 1.3075 4.7606 2.2406c0.0718 0.1846 0.4025 0.5128 0.8999 0.9101 0.5127 1.2844 0.7947 2.3509 0.3127 2.3509z" fill="#CED7E7"/>
  <path d="m98.323 160.17 40.585-33.84c0.405-0.343 0.921-0.525 1.451-0.513l15.141 0.397s1.049 0.769-0.489 2.451l-38.286 31.418c-0.414 0.338-0.927 0.531-1.461 0.548l-16.556 0.549c-0.1189 3e-3 -0.236-0.03-0.335-0.096s-0.1749-0.161-0.2172-0.272c-0.0424-0.111-0.0489-0.233-0.0189-0.348 0.0301-0.115 0.0953-0.218 0.1865-0.294z" fill="#006753"/>
  <path d="m117.96 156s8.865 12.696 18.715 0.887c9.849-11.808 7.001-18.012 4.014-18.34-2.986-0.328-19.791 12.6-22.729 17.453z" fill="#FFB6B6"/>
  <g fill="#006753">
   <path d="m177.75 14.015s11.426-22.175 24.931-10.739c0 0 2.948 1.0742 2.725 4.1916 0 0-1.136-0.62297-2.038 1.7587-0.331 0.84506-0.762 1.648-1.282 2.3919-0.691 1.005-1.69 1.7588-2.845 2.1483 0 0-6.061 4.5403-17.287 1.0383 0 0-3.174 0.4564-3.687 0.0615l3.689-2.6969s1.875 2.7815 4.615 3.0994c0 0-4.615-2.8969-4.086-3.525 0.107-0.1281 2.02-1.3408 2.02-1.3408s3.279 4.8223 7.529 5.1786c0 0-5.955-2.7149-6.809-5.64l2.992-1.6689s3.215 5.2682 8.042 5.8579c0 0-6.127-3.0533-7.363-6.1784l3.166-1.2357s3.238 5.076 7.255 5.5401c0 0-6.721-4.2429-6.511-5.7759 0 0 2.976-0.95881 3.889-0.83319 0 0 2.407 3.5891 4.766 3.6532 0 0-4.192-3.3122-3.915-3.8224 0 0 4.209-0.21791 6.409 0.79986 0 0-3.128-1.7407-6.409-1.4587 0 0 1.484-1.7458 3.42-2.1304 0 0-2.32-0.95367-4.44 2.1945 0 0-3.274 0.29994-3.679 0.66398 0 0 1.656-3.4045 3.694-4.853 0 0-3.038 0.5358-4.543 5.1504l-3.209 1.1716s1.951-4.6146 3.671-6.0399c0 0-3.015 1.0255-4.456 6.4091l-2.953 1.6048s1.376-4.1018 2.948-6.104c0 0-2.592 1.5536-3.779 6.5937l-1.846 1.2998s1.059-2.979 1.441-3.807c0.382-0.82806 0.19-0.99982 0.19-0.99982-1.283 1.517-2.12 3.3602-2.418 5.3247 0 0-3.625 2.9225-3.837 2.7174z" opacity=".1"/>
   <path d="m225 25.875s5.164-10.021 11.265-4.853c0 0 1.333 0.4845 1.231 1.8919 0 0-0.513-0.2794-0.921 0.7973-0.147 0.3814-0.34 0.7438-0.574 1.0793-0.312 0.453-0.761 0.7937-1.282 0.9717 0 0-2.74 2.0509-7.814 0.4691 0 0-1.433 0.2051-1.664 0.0282l1.667-1.2203s0.846 1.2588 2.087 1.3998c0 0-2.082-1.3075-1.846-1.5921 0.046-0.0564 0.91-0.605 0.91-0.605s1.482 2.1791 3.404 2.3406c0 0-2.691-1.228-3.076-2.5636l1.354-0.7512s1.451 2.3817 3.632 2.6483c0 0-2.768-1.3793-3.332-2.7918l1.43-0.5589s1.461 2.2944 3.276 2.5047c0 0-3.038-1.9176-2.94-2.6098 0 0 1.343-0.4333 1.756-0.3769 0 0 1.087 1.6228 2.153 1.6484 0 0-1.894-1.4946-1.768-1.7253 0 0 1.902-0.0974 2.891 0.3615 0 0-1.412-0.7871-2.891-0.6589 0.408-0.4641 0.942-0.7991 1.538-0.9639 0 0-1.049-0.4307-2.008 0.9921 0 0-1.479 0.1359-1.661 0.3 0 0 0.749-1.5382 1.669-2.1919 0 0-1.374 0.2409-2.051 2.3278l-1.435 0.5383s0.879-2.0842 1.658-2.7303c0 0-1.364 0.4641-2.015 2.8944l-1.333 0.7229s0.62-1.856 1.331-2.7584c0 0-1.172 0.7024-1.705 2.9789l-0.836 0.5871s0.479-1.3459 0.651-1.7202 0.085-0.4512 0.085-0.4512c-0.58 0.6878-0.958 1.5228-1.092 2.4124 0 0-1.654 1.3202-1.744 1.228z" opacity=".1"/>
   <path d="m169.06 37.534s5.163-10.021 11.28-4.853c0 0 1.33 0.4845 1.23 1.8945 0 0-0.513-0.282-0.92 0.7948-0.149 0.3809-0.342 0.7432-0.574 1.0793-0.316 0.4551-0.77 0.796-1.295 0.9716 0 0-2.738 2.0509-7.811 0.4691 0 0-1.434 0.2077-1.664 0.0282l1.666-1.2203s0.846 1.2588 2.084 1.4023c0 0-2.081-1.31-1.845-1.5945 0.048-0.0564 0.912-0.6051 0.912-0.6051s1.482 2.1791 3.402 2.3406c0 0-2.689-1.2279-3.076-2.5636l1.353-0.7486s1.454 2.3791 3.636 2.6457c0 0-2.769-1.3792-3.333-2.7918l1.43-0.5589s1.464 2.2945 3.279 2.5047c0 0-3.038-1.9176-2.943-2.6098 0 0 1.346-0.4333 1.759-0.3769 0 0 1.087 1.6228 2.153 1.651 0 0-1.894-1.4971-1.769-1.7279 0 0 1.9-0.0974 2.892 0.3615 0 0-1.415-0.787-2.894-0.6588 0.408-0.4641 0.942-0.7991 1.538-0.964 0 0-1.046-0.4307-2.005 0.9922 0 0-1.479 0.1358-1.661 0.2999 0 0 0.746-1.5382 1.669-2.1919 0 0-1.374 0.241-2.051 2.3278l-1.454 0.5383s0.882-2.0842 1.659-2.7277c0 0-1.361 0.4615-2.012 2.8918l-1.336 0.723s0.623-1.8561 1.333-2.7585c0 0-1.171 0.7024-1.707 2.9789l-0.836 0.5871s0.479-1.3459 0.651-1.7202 0.087-0.4512 0.087-0.4512c-0.581 0.6871-0.959 1.5225-1.092 2.4124 0 0-1.646 1.3203-1.735 1.228z" opacity=".1"/>
  </g>
 </g>
 <defs>
  <clipPath id="clip0_198_4423">
   <rect width="274.91" height="200" fill="#fff"/>
  </clipPath>
 </defs>
</svg>
