<svg fill="none" save-fill="" version="1.1" viewBox="0 0 298 200" xmlns="http://www.w3.org/2000/svg">
 <g clip-path="url(#clip0_198_4173)">
  <path d="m238.65 26.098 0.954-7.6473c0.168-1.3461 0.599-2.6461 1.269-3.8256 0.669-1.1796 1.565-2.2156 2.636-3.0489 1.07-0.8332 2.294-1.4475 3.602-1.8076s2.674-0.45901 4.02-0.29107c1.346 0.16793 2.646 0.59944 3.825 1.2698 1.179 0.6703 2.215 1.5665 3.048 2.6372 0.832 1.0707 1.446 2.2951 1.806 3.603 0.359 1.308 0.458 2.674 0.289 4.02l-0.954 7.6473c-0.046 0.3649-0.235 0.6967-0.525 0.9225-0.29 0.2259-0.658 0.3274-1.023 0.2823l-17.742-2.2134c-0.365-0.046-0.697-0.2348-0.923-0.525-0.225-0.2903-0.327-0.6583-0.282-1.0233z" fill="#2F2E41"/>
  <path d="m247.14 28.38c4.181 0 7.571-3.3897 7.571-7.5712s-3.39-7.5713-7.571-7.5713c-4.182 0-7.572 3.3898-7.572 7.5713s3.39 7.5712 7.572 7.5712z" fill="#FFB8B8"/>
  <path d="m237.1 18.76c0.271-2.1489 1.383-4.1026 3.092-5.4327s3.876-1.9279 6.026-1.6622l1.529 0.1909c2.149 0.2705 4.103 1.3824 5.433 3.0917 1.33 1.7092 1.928 3.8763 1.662 6.0257l-0.019 0.153-3.232-0.4033-0.718-3.2245-0.605 3.0595-1.671-0.2084-0.362-1.627-0.305 1.5437-10.849-1.3535 0.019-0.1529z" fill="#2F2E41"/>
  <path d="m210.11 47.817c0.231 0.4543 0.56 0.8524 0.962 1.1661 0.401 0.3138 0.867 0.5356 1.364 0.6499s1.013 0.1182 1.512 0.0115c0.498-0.1067 0.967-0.3214 1.374-0.629l6.877 4.0284 3.467-3.5819-9.791-5.5525c-0.562-0.6489-1.343-1.069-2.194-1.1808-0.851-0.1119-1.714 0.0924-2.424 0.574-0.711 0.4817-1.22 1.2073-1.431 2.0393-0.212 0.832-0.111 1.7126 0.284 2.475z" fill="#FFB8B8"/>
  <path d="m232.65 55.055c-5.072 0-13.998-2.2707-14.492-2.3976l-0.157-0.0399 1.405-7.1128 13.634 2.6928 7.406-10.43 8.504-0.8645-0.237 0.3124c-0.111 0.1455-11.072 14.575-12.778 16.996-0.431 0.6107-1.66 0.8438-3.285 0.8438z" fill="#3F3D56"/>
  <path d="m234.01 81.751-0.203-0.0969c-0.044-0.0207-4.353-2.1169-6.585-6.2092-2.222-4.0729 8.178-21.35 8.905-22.549l0.011-5.4869 3.741-10.101 4.771-2.6966-4.096 9.5579-6.544 37.582z" fill="#3F3D56"/>
  <path d="m229.23 140.72-4.559-1e-3 -2.17-17.588 6.73 1e-3 -1e-3 17.588z" fill="#FFB8B8"/>
  <path d="m230.4 145.14-14.703-1e-3v-0.186c0-1.518 0.603-2.973 1.677-4.046 1.073-1.073 2.528-1.676 4.046-1.677h1e-3l8.98 1e-3 -1e-3 5.909z" fill="#2F2E41"/>
  <path d="m278.21 136.73-4.333 1.42-7.538-16.038 6.395-2.095 5.476 16.713z" fill="#FFB8B8"/>
  <path d="m280.69 140.57-13.972 4.578-0.058-0.177c-0.472-1.442-0.352-3.013 0.333-4.367 0.686-1.354 1.881-2.381 3.324-2.853l8.534-2.796 1.839 5.615z" fill="#2F2E41"/>
  <path d="m269.38 133.85-12.999-21.701-10.973-23.185-9.875 20.48-3.922 26.525-13.757 0.191 0.054-0.215 21.052-83.649 16.488 2.4632-0.75 10.883 0.447 0.6357c3.724 5.2911 7.575 10.762 5.366 16.659l6.262 18.592 13.86 30.957-11.253 1.364z" fill="#2F2E41"/>
  <path d="m239.72 70.427c-2.389 0-5.115-2.7279-3.701-7.3853l-0.092-0.0663 3.397-15.006c-2.964-4.2391 0.944-7.7376 1.31-8.0501l1.865-3.3578 8.231-5.22 4.165 34.602-0.062 0.0589c-3.008 2.8778-13.109 4.4249-15.113 4.4249z" fill="#006753"/>
  <path d="m256.57 78.235c-0.327 0.0051-0.653-0.0294-0.972-0.1029-0.32-0.0802-0.838-0.4878-1.639-3.0952-3.184-10.365-6.943-41.554-4.212-44.606l0.063-0.0699 4.483 0.7472c0.373-0.275 2.329-1.6403 4.134-1.4029 0.371 0.0467 0.729 0.1692 1.052 0.3597 0.322 0.1906 0.602 0.4452 0.822 0.7482l0.031 0.0404 1.428 20.321 5.233 23.914-0.125 0.0569c-0.305 0.1386-6.839 3.0886-10.298 3.0886z" fill="#3F3D56"/>
  <path d="m253.56 70.292c0.509-0.017 1.009-0.1455 1.464-0.3765 0.454-0.231 0.852-0.5589 1.167-0.9605 0.314-0.4016 0.536-0.8672 0.651-1.364 0.114-0.4968 0.119-1.0127 0.013-1.5114l6.563-4.5207-1.774-4.6588-9.18 6.5144c-0.826 0.234-1.537 0.7628-1.999 1.4862-0.462 0.7235-0.643 1.5913-0.508 2.4391 0.135 0.8477 0.577 1.6165 1.241 2.1606s1.504 0.8258 2.362 0.7916z" fill="#FFB8B8"/>
  <path d="m261.25 65.182-5.846-4.2874 8.218-11.206-6.307-11.129 2.822-8.0683 0.182 0.3475c0.085 0.1618 8.507 16.206 9.977 18.778 1.528 2.6747-8.515 14.922-8.943 15.442l-0.103 0.1245z" fill="#3F3D56"/>
  <path d="m203.85 89.076-107.43 3.6413c-2.6552 0.087-5.2364-0.8828-7.1775-2.6966-1.941-1.8138-3.0834-4.3234-3.1764-6.9784l-1.7692-52.196c-0.087-2.6552 0.8828-5.2364 2.6966-7.1775 1.8138-1.941 4.3234-3.0833 6.9784-3.1763l107.43-3.6413c2.655-0.087 5.236 0.8828 7.177 2.6965 1.941 1.8138 3.084 4.3235 3.177 6.9784l1.769 52.196c0.087 2.6551-0.883 5.2364-2.697 7.1774-1.814 1.9411-4.323 3.0834-6.978 3.1764z" fill="#fff"/>
  <path d="m213.52 78.722 9e-3 0.2762c0.086 2.5364-0.84 5.003-2.573 6.8571s-4.132 2.9438-6.668 3.0293l-107.96 3.6595c-2.536 0.0857-5.0022-0.8394-6.8562-2.5718-1.854-1.7325-2.9439-4.1304-3.0301-6.6663l-0.0094-0.2762 127.09-4.3078z" fill="#F2F2F2"/>
  <path d="m107.47 36.744c-7.737 2.1915-14.944-3.5737-16.356-9.1008l0.5399-0.1156c6.5269-1.6765 14.027 2.7754 15.816 9.2164z" fill="#006753"/>
  <g fill="#3F3D56">
   <path d="m183.96 74.058c-1.743 0.0591-3.147-0.4123-4.173-1.4011-2.318-2.2351-2.329-6.6942-2.337-10.277-3e-3 -1.0424-5e-3 -2.027-0.064-2.8498l-1e-3 -0.0125c-0.047-1.6099 0.544-3.1733 1.643-4.3504 1.1-1.1771 2.619-1.8729 4.228-1.9362l14.45-0.4897c1.741-0.059 3.143 0.4116 4.168 1.3991 2.318 2.2332 2.331 6.6912 2.34 10.273 3e-3 1.0445 6e-3 2.0313 0.066 2.8555 0.049 1.6123-0.541 3.1787-1.641 4.3584s-2.621 1.8773-4.233 1.9409l-14.446 0.4897zm-5.968-14.565c0.06 0.8425 0.062 1.835 0.065 2.8857 8e-3 3.4683 0.019 7.7849 2.152 9.8414 0.915 0.8826 2.136 1.2854 3.73 1.2314l14.445-0.4896c1.45-0.0569 2.818-0.6833 3.809-1.7432 0.99-1.06 1.522-2.4679 1.48-3.9179-0.06-0.8328-0.063-1.8297-0.066-2.8853-9e-3 -3.4675-0.021-7.7829-2.154-9.8375-0.915-0.8813-2.134-1.2836-3.726-1.2296l-14.449 0.4898c-1.448 0.0572-2.815 0.6829-3.805 1.7415-0.989 1.0586-1.522 2.4647-1.481 3.9133z"/>
   <path d="m104.29 37.411c-2.534 0.0705-5.0374-0.5714-7.2249-1.8529-3.2036-1.8432-5.6784-4.8853-6.4586-7.9387l-0.0783-0.306 0.8428-0.1805c6.6242-1.6993 14.334 2.7917 16.178 9.4278l0.081 0.291-0.291 0.0824c-0.993 0.2819-2.017 0.442-3.049 0.4769zm-13.011-9.6373c0.8239 2.7974 3.1301 5.5553 6.0892 7.258 2.8631 1.6983 6.2791 2.2006 9.5101 1.3981-1.903-6.1763-9.1366-10.31-15.362-8.7071l-0.2375 0.051z"/>
   <path d="m97.043 72.183c-0.9129 0.0649-1.8263-0.1201-2.6421-0.535s-1.5032-1.0441-1.9885-1.8202c-0.5627-0.9249-0.8778-1.9792-0.9148-3.0612-0.037-1.0821 0.2053-2.1554 0.7035-3.1166 0.4408-0.8233 1.101-1.5085 1.9073-1.9796s1.7272-0.7098 2.6609-0.6896l19.254-0.6526c0.929-0.081 1.863 0.0962 2.698 0.5121s1.54 1.0544 2.035 1.845c0.562 0.9251 0.877 1.9793 0.913 3.0612 0.037 1.0819-0.206 2.155-0.704 3.1159-0.907 1.6792-2.529 2.6146-4.567 2.6638l-19.254 0.6527c-0.0337 0.0015-0.0673 0.0029-0.1009 0.0041zm-0.3477-10.593c-0.8111-0.0053-1.6083 0.2105-2.3059 0.6242-0.6976 0.4136-1.2693 1.0096-1.6537 1.7238-0.4489 0.8659-0.6671 1.8329-0.6338 2.8077 0.0334 0.9748 0.3172 1.9246 0.8242 2.7579 0.4397 0.6983 1.0642 1.2612 1.8042 1.6263 0.7401 0.3651 1.5668 0.518 2.3885 0.442l19.263-0.6529c0.825 0.0207 1.64-0.1874 2.355-0.6013s1.301-1.0175 1.693-1.744c0.45-0.8657 0.668-1.8324 0.635-2.8071s-0.316-1.9245-0.823-2.7579c-0.441-0.6981-1.065-1.2611-1.805-1.6271-0.741-0.3659-1.567-0.5205-2.39-0.4468l-19.263 0.6529c-0.0294 6e-4 -0.059 0.0013-0.0882 0.0023z"/>
  </g>
  <g fill="#D5B26B">
   <path d="m188.44 60.28-6.069 0.2057c-0.402 0.0131-0.793-0.1339-1.087-0.4088-0.294-0.2748-0.466-0.6551-0.48-1.0572-0.013-0.4021 0.133-0.7931 0.408-1.0872 0.274-0.2942 0.654-0.4673 1.056-0.4815l6.069-0.2057c0.403-0.0136 0.794 0.1332 1.088 0.4081 0.295 0.2749 0.468 0.6554 0.481 1.0578 0.014 0.4024-0.133 0.7938-0.408 1.088s-0.655 0.4672-1.058 0.4808z"/>
   <path d="m188.6 65.135-6.069 0.2057c-0.2 0.0071-0.399-0.0253-0.585-0.0951-0.187-0.0699-0.359-0.176-0.505-0.3121s-0.263-0.2997-0.346-0.4813c-0.082-0.1817-0.128-0.3779-0.135-0.5773-7e-3 -0.1995 0.026-0.3983 0.096-0.5851s0.176-0.358 0.313-0.5037c0.136-0.1457 0.3-0.2631 0.481-0.3455 0.182-0.0823 0.378-0.1281 0.578-0.1345l6.069-0.2058c0.2-7e-3 0.399 0.0253 0.586 0.0952 0.186 0.0699 0.358 0.1759 0.504 0.3121 0.146 0.1361 0.263 0.2997 0.346 0.4813 0.082 0.1817 0.128 0.3778 0.135 0.5773 7e-3 0.1994-0.026 0.3982-0.096 0.5851-0.07 0.1868-0.176 0.3579-0.313 0.5037-0.136 0.1457-0.3 0.2631-0.481 0.3454-0.182 0.0824-0.378 0.1281-0.578 0.1346z"/>
   <path d="m188.77 69.991-6.069 0.2057c-0.402 0.0137-0.794-0.1331-1.088-0.408s-0.467-0.6554-0.481-1.0579c-0.013-0.4024 0.133-0.7937 0.408-1.0879s0.656-0.4672 1.058-0.4808l6.07-0.2058c0.199-0.0067 0.397 0.0259 0.584 0.0959s0.358 0.1761 0.504 0.3122c0.145 0.1361 0.263 0.2996 0.345 0.4811 0.083 0.1815 0.129 0.3775 0.135 0.5767 7e-3 0.1993-0.025 0.3979-0.096 0.5846-0.07 0.1867-0.176 0.3578-0.312 0.5034-0.136 0.1457-0.299 0.2631-0.481 0.3456-0.181 0.0825-0.377 0.1284-0.577 0.1352z"/>
   <path d="m199.06 59.92-6.07 0.2057c-0.199 7e-3 -0.398-0.0253-0.585-0.0952-0.187-0.0698-0.358-0.1759-0.504-0.312-0.146-0.1362-0.264-0.2998-0.346-0.4814-0.083-0.1816-0.129-0.3778-0.136-0.5772-6e-3 -0.1995 0.026-0.3983 0.096-0.5851 0.071-0.1869 0.177-0.358 0.313-0.5037s0.3-0.2631 0.482-0.3455 0.378-0.1281 0.577-0.1346l6.07-0.2057c0.199-0.0067 0.398 0.0258 0.584 0.0958 0.187 0.07 0.358 0.1761 0.504 0.3123 0.145 0.1361 0.263 0.2996 0.345 0.4811 0.083 0.1815 0.129 0.3774 0.136 0.5767 6e-3 0.1993-0.026 0.3979-0.096 0.5846s-0.176 0.3577-0.313 0.5034c-0.136 0.1457-0.299 0.2631-0.481 0.3456-0.181 0.0825-0.377 0.1284-0.576 0.1352z"/>
   <path d="m199.22 64.775-6.069 0.2057c-0.403 0.0137-0.794-0.1331-1.088-0.408-0.295-0.2749-0.468-0.6555-0.481-1.0579-0.014-0.4024 0.133-0.7938 0.408-1.088s0.655-0.4671 1.058-0.4807l6.069-0.2058c0.2-7e-3 0.398 0.0253 0.585 0.0952s0.359 0.1759 0.504 0.3121c0.146 0.1361 0.264 0.2997 0.347 0.4813 0.082 0.1817 0.128 0.3778 0.135 0.5773 7e-3 0.1994-0.026 0.3982-0.096 0.5851-0.07 0.1868-0.176 0.358-0.313 0.5037-0.136 0.1457-0.3 0.2631-0.482 0.3455-0.181 0.0823-0.378 0.128-0.577 0.1345z"/>
   <path d="m199.39 69.631-6.069 0.2057c-0.2 0.0071-0.398-0.0253-0.585-0.0951-0.187-0.0699-0.359-0.1759-0.505-0.3121-0.145-0.1361-0.263-0.2997-0.346-0.4813-0.082-0.1817-0.128-0.3778-0.135-0.5773-7e-3 -0.1994 0.026-0.3982 0.096-0.5851 0.07-0.1868 0.176-0.3579 0.313-0.5037 0.136-0.1457 0.3-0.2631 0.482-0.3454 0.181-0.0824 0.378-0.1281 0.577-0.1346l6.069-0.2057c0.2-0.0068 0.398 0.0258 0.585 0.0958s0.358 0.1761 0.503 0.3122c0.146 0.1361 0.263 0.2996 0.346 0.4811 0.082 0.1815 0.128 0.3775 0.135 0.5768 7e-3 0.1992-0.026 0.3979-0.096 0.5845-0.07 0.1867-0.176 0.3578-0.312 0.5034-0.136 0.1457-0.3 0.2632-0.481 0.3456-0.182 0.0825-0.378 0.1285-0.577 0.1352z"/>
  </g>
  <path d="m212.14 37.888-127.09 4.3079 0.0206 0.607 127.09-4.3079-0.021-0.607z" fill="#3F3D56"/>
  <path d="m203.85 89.076-107.43 3.6413c-2.6552 0.087-5.2364-0.8828-7.1775-2.6966-1.941-1.8138-3.0834-4.3234-3.1764-6.9784l-1.7692-52.196c-0.087-2.6552 0.8828-5.2364 2.6966-7.1775 1.8138-1.941 4.3234-3.0833 6.9784-3.1763l107.43-3.6413c2.655-0.087 5.236 0.8828 7.177 2.6965 1.941 1.8138 3.084 4.3235 3.177 6.9784l1.769 52.196c0.087 2.6551-0.883 5.2364-2.697 7.1774-1.814 1.9411-4.323 3.0834-6.978 3.1764zm-109.86-67.977c-2.4941 0.0873-4.8516 1.1604-6.5555 2.9838-1.7038 1.8235-2.6148 4.2483-2.5331 6.7425l1.7692 52.196c0.0873 2.4941 1.1605 4.8516 2.9839 6.5555 1.8234 1.7038 4.2482 2.6148 6.7424 2.5331l107.43-3.6412c2.494-0.0874 4.852-1.1605 6.556-2.9839s2.615-4.2483 2.533-6.7425l-1.769-52.196c-0.088-2.494-1.161-4.8516-2.984-6.5555-1.824-1.7038-4.248-2.6148-6.743-2.5331l-107.43 3.6413z" fill="#3F3D56"/>
  <path d="m49.926 76.161c-0.0253-0.5339-0.1674-1.0557-0.4162-1.5288-0.2488-0.473-0.5982-0.8858-1.0238-1.2091-0.4256-0.3234-0.9169-0.5495-1.4393-0.6625s-1.0632-0.11-1.5843 0.0087l-4.8348-6.8136-4.8572 1.9282 6.9628 9.5262c0.2574 0.8623 0.8221 1.6002 1.5872 2.0739s1.6774 0.6503 2.564 0.4964c0.8866-0.154 1.6859-0.6278 2.2465-1.3318 0.5606-0.7039 0.8435-1.589 0.7951-2.4876z" fill="#A0616A"/>
  <path d="m40.503 75.656-14.629-18.979 5.4815-17.227c0.4017-4.3312 3.112-5.5407 3.2273-5.5901l0.1759-0.0754 4.7699 12.72-3.5022 9.3393 8.5961 14.457-4.1192 5.3547z" fill="#D5B26B"/>
  <path d="m91.308 17.152c-0.5303 0.0665-1.0396 0.2485-1.492 0.5331s-0.8369 0.6649-1.1264 1.1142-0.477 0.9566-0.5492 1.4862c-0.0723 0.5296-0.0275 1.0686 0.1311 1.579l-6.4194 5.3471 2.298 4.6936 8.9593-7.6785c0.8398-0.3233 1.5319-0.9434 1.945-1.7428 0.4132-0.7995 0.5187-1.7227 0.2967-2.5947-0.2221-0.872-0.7563-1.6323-1.5015-2.1368-0.7451-0.5045-1.6494-0.7181-2.5416-0.6004z" fill="#A0616A"/>
  <path d="m91.534 26.585-17.791 16.053-17.6-4.1331c-4.3493-0.0656-5.7646-2.6743-5.8228-2.7854l-0.0889-0.1696 12.313-5.739 9.5821 2.7696 13.75-9.6881 5.6572 3.6928z" fill="#D5B26B"/>
  <path d="m60.717 140.7h4.78l2.2737-18.437h-7.0548l0.0011 18.437z" fill="#A0616A"/>
  <path d="m74.716 145.14-15.023 1e-3 -3e-4 -5.805h9.8773c1.3647 0 2.6735 0.542 3.6385 1.507s1.5072 2.274 1.5073 3.638v0.659z" fill="#2F2E41"/>
  <path d="m41.613 140.7h4.78l2.2737-18.437h-7.0548l0.0011 18.437z" fill="#A0616A"/>
  <path d="m55.611 145.14-15.023 1e-3 -3e-4 -5.805h9.8773c0.6757 0 1.3448 0.133 1.9691 0.391 0.6243 0.259 1.1916 0.638 1.6694 1.116 0.4779 0.478 0.8569 1.045 1.1155 1.669s0.3918 1.294 0.3918 1.969v0.659z" fill="#2F2E41"/>
  <path d="m39.913 73.407 0.3899 27.293 0.3896 35.87 8.5779-0.78 4.2887-49.516 5.4586 49.516h8.8555l0.8918-49.906-3.1192-10.917-25.733-1.5595z" fill="#2F2E41"/>
  <path d="m56.701 77.072c-9.333 8e-4 -17.924-4.2234-18.04-4.2814l-0.0963-0.0481-0.7832-18.796c-0.2271-0.6642-4.6993-13.77-5.4568-17.936-0.7674-4.2206 10.355-7.9247 11.706-8.3579l0.3065-3.3952 12.464-1.3431 1.5797 4.3444 4.4716 1.6767c0.5069 0.1902 0.9264 0.5598 1.1791 1.0387 0.2526 0.4788 0.3208 1.0338 0.1917 1.5596l-2.4852 10.106 6.0696 33.437-1.3067 0.0565c-3.0919 1.3343-6.4323 1.9953-9.7994 1.9389z" fill="#D5B26B"/>
  <path d="m51.058 20.764c4.9563 0 8.9741-4.0178 8.9741-8.9741 0-4.9562-4.0178-8.974-8.9741-8.974-4.9562 0-8.974 4.0178-8.974 8.974 0 4.9563 4.0178 8.9741 8.974 8.9741z" fill="#A0616A"/>
  <path d="m43.788 20.477c1.7102 1.8218 4.8864 0.8438 5.1092-1.645 0.0175-0.1932 0.0162-0.3877-0.0038-0.5807-0.115-1.1024-0.7519-2.1033-0.5993-3.2673 0.0345-0.2897 0.1424-0.5658 0.3135-0.8021 1.3629-1.8249 4.562 0.8163 5.8482-0.8358 0.7887-1.013-0.1384-2.608 0.4669-3.7402 0.7987-1.4944 3.1647-0.75719 4.6484-1.5756 1.6508-0.91055 1.5521-3.4434 0.4654-4.9839-1.3252-1.8788-3.6488-2.8813-5.9435-3.0258-2.2946-0.14448-4.5734 0.47581-6.7157 1.3107-2.434 0.94856-4.8477 2.2595-6.3455 4.3997-1.8216 2.6028-1.9969 6.1019-1.0859 9.1453 0.5542 1.8514 2.4455 4.113 3.8421 5.6007z" fill="#2F2E41"/>
  <path d="m297.02 145.63h-296.65c-0.096655 0-0.18935-0.039-0.2577-0.107s-0.10674-0.161-0.10674-0.258c0-0.096 0.038396-0.189 0.10674-0.257 0.068346-0.069 0.16104-0.107 0.2577-0.107h296.65c0.097 0 0.189 0.038 0.258 0.107 0.068 0.068 0.106 0.161 0.106 0.257 0 0.097-0.038 0.19-0.106 0.258-0.069 0.068-0.161 0.107-0.258 0.107z" fill="#CACACA"/>
  <path d="m165.43 195.83 4.305-1e-3 2.049-16.607-6.355 1e-3 1e-3 16.607z" fill="#FFB8B8"/>
  <path d="m164.33 194.42 8.479-1e-3c1.433 0 2.808 0.57 3.821 1.583s1.583 2.388 1.583 3.821v0.175l-13.883 1e-3v-5.579z" fill="#2F2E41"/>
  <path d="m125.39 195.83 4.306-1e-3 2.048-16.607-6.354 1e-3v16.607z" fill="#FFB8B8"/>
  <path d="m124.3 194.42 8.479-1e-3c1.433 0 2.808 0.57 3.821 1.583s1.583 2.388 1.583 3.821v0.175l-13.883 1e-3v-5.579z" fill="#2F2E41"/>
  <path d="m167.14 111.55s3.614 9.809 3.098 13.939 3.614 33.042 3.098 35.623c-0.517 2.581 0.516 15.488 0 17.553-0.517 2.065 1.449 4.532 0.416 6.597-1.032 2.065-2.481 6.31-2.481 6.31l-6.712-0.517-1.032-5.678s-3.098-0.517-2.582-3.614c0.517-3.098-2.581-23.749-2.581-23.749l-8.777-28.911-12.39 26.33s-0.516 18.586-2.065 20.651 1.549 7.744 0 9.809-3.098 5.679-3.098 5.679h-7.744v-4.13s-4.646-2.582 0-10.326l3.14-46.506 3.097-21.167 36.613 2.107z" fill="#2F2E41"/>
  <path d="m147.9 46.635c5.326 0 9.643-4.3171 9.643-9.6426s-4.317-9.6427-9.643-9.6427c-5.325 0-9.642 4.3172-9.642 9.6427s4.317 9.6426 9.642 9.6426z" fill="#FFB8B8"/>
  <path d="m156.1 36.327c-0.68 1.7384-1.361 3.4769-2.041 5.2153-0.837 2.1371-1.795 4.4236-3.755 5.6163-2.421 1.4726-5.654 0.7545-7.996-0.8406-2.106-1.4348-3.723-3.4797-4.633-5.8601s-1.07-4.9824-0.458-7.4564c0.611-2.474 1.966-4.7015 3.88-6.3833 1.915-1.6818 4.299-2.7375 6.831-3.0251l0.097 1.7456 2.142-1.7955c0.158 0.2719 0.376 0.5042 0.637 0.6798 0.261 0.1755 0.559 0.2895 0.87 0.3336 0.312 0.044 0.629 0.0169 0.929-0.0793 0.299-0.0962 0.573-0.2591 0.801-0.4763-0.563 1.1663 0.087 2.5888 1.024 3.4823 1.152 1.0975 4.448 2.4166 4.311 4.3787-0.091 1.3094-2.108 3.1081-2.639 4.465z" fill="#2F2E41"/>
  <path d="m121.36 125.82c-0.333-0.496-0.552-1.059-0.643-1.649-0.092-0.589-0.053-1.192 0.114-1.765s0.457-1.103 0.851-1.552c0.394-0.448 0.881-0.805 1.427-1.045l-0.192-9.329 5.64-1.499 0.087 13.177c0.342 0.945 0.326 1.982-0.045 2.916-0.372 0.934-1.073 1.699-1.971 2.15-0.897 0.452-1.93 0.558-2.901 0.299s-1.813-0.865-2.367-1.703z" fill="#FFB8B8"/>
  <path d="m140.74 52.595s7.472-3.7361 14.529-1.2454c7.057 2.4908 10.793 5.3967 10.793 5.3967l-4.566 24.077 6.227 32.38s-31.965-2.491-34.871 0-2.906-2.906-2.906-2.906l2.491-30.719-4.566-19.511 12.869-7.4723z" fill="#3F3D56"/>
  <path d="m172.27 126.37c-0.458-0.382-0.827-0.861-1.08-1.401-0.253-0.541-0.385-1.13-0.386-1.727 0-0.597 0.13-1.187 0.382-1.728 0.251-0.541 0.619-1.021 1.076-1.405l-2.804-8.898 4.992-3.023 3.783 12.622c0.594 0.811 0.87 1.811 0.776 2.812-0.095 1-0.553 1.931-1.288 2.617-0.735 0.685-1.696 1.077-2.7 1.101-1.005 0.024-1.984-0.321-2.751-0.97z" fill="#FFB8B8"/>
  <path d="m163.15 56.746h2.906s4.566 2.9059 4.566 7.0572 6.643 52.721 6.643 52.721l-7.058 1.246-6.227-34.041-4.566-9.1328 3.736-17.85z" fill="#3F3D56"/>
  <path d="m135.76 60.067h-7.887s-2.491 2.4908-3.737 8.3025c-1.245 5.8118-2.49 28.644-2.49 28.644l0.83 20.757h6.227l0.83-26.984 4.151-17.435 2.076-13.284z" fill="#3F3D56"/>
 </g>
 <defs>
  <clipPath id="clip0_198_4173">
   <rect width="297.38" height="200" fill="#fff"/>
  </clipPath>
 </defs>
</svg>
