<svg fill="none" save-fill="" version="1.1" viewBox="0 0 296 200" xmlns="http://www.w3.org/2000/svg">
 <g clip-path="url(#clip0_198_2891)">
  <path d="m19.902 150.71c-1.4043 0-2.8115 0.058-4.1857 0.175l-0.2 0.017c-9.1154 0.806-15.783 5.48-15.509 10.874l0.053012 0.976c0.034959 0.616 0.072206 1.279 0.10286 2.014 0.016605 0.363 0.51148 0.641 1.1272 0.641h224.22c15.808-0.096 31.559-0.216 46.813-0.359 2.861 6e-3 5.72-0.142 8.565-0.444 4.239-0.501 7.181-1.496 8.995-3.04h1e-3c2.256-1.915 2.327-4.326 2.191-7.05-0.278-5.501-0.554-11.28-0.829-17.041-0.243-5.078-0.485-10.142-0.727-14.99-0.149-2.877-0.482-5.417-3.044-7.358-2.777-2.099-7.842-3.163-15.054-3.163-0.087 0-0.174 0-0.262 1e-3 -22.602 0.08-44.997 7.852-55.727 19.339-1.236 1.322-2.387 2.738-3.5 4.108-1.646 2.024-3.347 4.115-5.376 5.986-1.1 1.027-2.288 1.953-3.552 2.768-0.087 0.061-0.187 0.125-0.292 0.186-0.241 0.158-0.494 0.309-0.739 0.444-1.44 0.832-2.957 1.521-4.529 2.059l-0.159 0.054c-0.12 0.042-0.249 0.085-0.379 0.124-0.908 0.292-1.852 0.544-2.797 0.748-4.09 0.901-8.741 1.117-13.822 0.641-4.667-0.448-9.274-1.387-13.744-2.8-4.706-1.488-9.111-3.342-13.37-5.135-1.872-0.788-3.807-1.602-5.74-2.374-0.363-0.145-0.72-0.287-1.083-0.429-2.36-0.92-4.501-1.68-6.542-2.323-5.059-1.599-10.296-2.569-15.592-2.888-5.621-0.308-10.575 0.273-14.72 1.721-1.142 0.398-2.255 0.878-3.329 1.435-4.91 2.55-7.9365 6.312-10.863 9.951-3.6407 4.526-7.4056 9.207-14.84 11.634-8.5781 2.802-21.099 1.638-29.958-0.387-2.7852-0.637-5.5669-1.369-8.2572-2.078-1.0865-0.286-2.1738-0.57-3.2619-0.852-2.1382-0.552-3.8881-0.975-5.507-1.332l-0.5121-0.114c-0.2848-0.062-0.5699-0.124-0.8601-0.183-1.923-0.404-3.7136-0.721-5.4769-0.971l-0.4172-0.061c-0.8364-0.11-1.6184-0.202-2.3857-0.279l-0.3064-0.03c-1.5028-0.143-3.0582-0.215-4.6164-0.215z" fill="#F2F2F2"/>
  <path d="m251.76 156.73c6.309-5.685 15.693-8.544 23.564-5.356-8.074 4.483-14.303 11.677-17.583 20.311-1.253 3.334-2.3 7.172-5.382 8.957-1.918 1.111-4.304 1.165-6.454 0.629-2.151-0.536-4.122-1.611-6.066-2.675l-0.553-0.013c2.483-8.121 6.165-16.168 12.474-21.853z" fill="#E6E6E6"/>
  <g fill="#fff">
   <path d="m275.28 151.55c-6.971 0.901-13.482 3.975-18.606 8.787-1.122 1.016-2.076 2.203-2.828 3.516-0.691 1.304-1.021 2.768-0.955 4.242 0.034 1.375 0.228 2.778-0.073 4.137-0.164 0.694-0.473 1.345-0.907 1.911-0.433 0.566-0.982 1.034-1.609 1.373-1.54 0.885-3.307 1.164-5.044 1.377-1.929 0.237-3.936 0.452-5.606 1.534-0.202 0.131-0.394-0.191-0.192-0.322 2.905-1.882 6.581-1.197 9.705-2.453 1.457-0.587 2.747-1.616 3.203-3.171 0.399-1.361 0.201-2.808 0.154-4.2-0.086-1.436 0.182-2.872 0.779-4.182 0.683-1.347 1.59-2.569 2.683-3.612 2.422-2.388 5.204-4.38 8.246-5.903 3.461-1.758 7.197-2.911 11.047-3.409 0.238-0.03 0.24 0.344 3e-3 0.375z"/>
   <path d="m258.23 158.69c-0.69-0.969-1.014-2.152-0.912-3.338 0.101-1.186 0.621-2.297 1.466-3.135 0.171-0.169 0.442 0.089 0.27 0.258-0.788 0.78-1.272 1.815-1.364 2.919-0.092 1.105 0.213 2.206 0.862 3.105 0.14 0.195-0.182 0.386-0.322 0.191z"/>
   <path d="m252.78 167.4c2.396 0.424 4.864-0.07 6.911-1.384 0.203-0.131 0.395 0.191 0.192 0.321-2.133 1.364-4.702 1.873-7.194 1.426-0.238-0.043-0.145-0.406 0.091-0.363z"/>
   <path d="m267.72 153.32c0.189 0.431 0.482 0.808 0.853 1.098 0.37 0.289 0.807 0.482 1.271 0.561 0.238 0.04 0.145 0.402-0.092 0.363-0.512-0.09-0.994-0.303-1.404-0.622s-0.736-0.734-0.95-1.208c-0.023-0.043-0.03-0.093-0.018-0.141 0.012-0.047 0.042-0.089 0.083-0.115 0.043-0.025 0.094-0.033 0.142-0.021s0.089 0.043 0.115 0.085z"/>
  </g>
  <path d="m283.99 178.79c-0.149-0.021-0.298-0.041-0.45-0.06-2.008-0.266-4.035-0.369-6.06-0.308-0.156 3e-3 -0.315 7e-3 -0.471 0.014-4.877 0.201-9.675 1.305-14.149 3.257-1.779 0.778-3.497 1.691-5.138 2.73-2.266 1.435-4.609 3.171-7.143 3.756-0.263 0.064-0.531 0.112-0.8 0.143l-10.468-9.064c-0.013-0.032-0.029-0.063-0.042-0.095l-0.435-0.343c0.081-0.06 0.166-0.119 0.247-0.179 0.047-0.035 0.096-0.067 0.143-0.102 0.032-0.023 0.064-0.045 0.091-0.067 0.011-8e-3 0.022-0.015 0.03-0.02 0.028-0.022 0.056-0.04 0.081-0.06 0.475-0.336 0.954-0.67 1.435-1.001 2e-3 -2e-3 2e-3 -2e-3 7e-3 -3e-3 3.645-2.557 7.581-4.673 11.725-6.303 0.124-0.047 0.251-0.096 0.38-0.139 1.866-0.694 3.786-1.234 5.74-1.615 1.071-0.205 2.151-0.356 3.237-0.452 2.807-0.243 5.634-0.043 8.379 0.593 5.47 1.269 10.474 4.273 13.438 8.958 0.076 0.12 0.149 0.238 0.223 0.36z" fill="#E6E6E6"/>
  <g fill="#fff">
   <path d="m283.85 178.9c-6.109-3.478-13.159-4.942-20.147-4.186-1.508 0.136-2.984 0.509-4.375 1.105-1.337 0.624-2.482 1.595-3.316 2.812-0.801 1.118-1.491 2.355-2.55 3.26-0.548 0.455-1.187 0.788-1.874 0.979s-1.406 0.234-2.111 0.127c-1.763-0.22-3.342-1.061-4.857-1.937-1.683-0.972-3.415-2.009-5.4-2.151-0.24-0.017-0.199-0.389 0.041-0.372 3.452 0.246 5.975 3.006 9.226 3.884 1.516 0.409 3.166 0.364 4.467-0.603 1.138-0.846 1.85-2.121 2.651-3.261 0.796-1.198 1.874-2.184 3.14-2.87 1.356-0.664 2.816-1.094 4.316-1.269 3.372-0.448 6.793-0.363 10.138 0.252 3.822 0.68 7.5 2.009 10.873 3.929 0.209 0.119-0.015 0.419-0.222 0.301z"/>
   <path d="m265.94 174.34c0.032-1.19 0.486-2.329 1.281-3.215s1.879-1.461 3.058-1.621c0.239-0.032 0.299 0.338 0.06 0.37-1.098 0.147-2.108 0.682-2.847 1.509-0.738 0.826-1.157 1.889-1.18 2.997-6e-3 0.241-0.378 0.199-0.372-0.04z"/>
   <path d="m256.34 178.01c1.657 1.781 3.925 2.872 6.351 3.056 0.24 0.018 0.2 0.39-0.04 0.372-2.525-0.196-4.882-1.336-6.603-3.193-0.164-0.178 0.129-0.411 0.292-0.235z"/>
   <path d="m276.75 175.77c-0.108 0.458-0.101 0.935 0.021 1.389 0.121 0.455 0.354 0.872 0.677 1.214 0.166 0.175-0.127 0.409-0.292 0.235-0.355-0.38-0.611-0.841-0.747-1.343-0.135-0.501-0.146-1.029-0.031-1.535 7e-3 -0.049 0.032-0.093 0.07-0.124 0.039-0.031 0.087-0.046 0.136-0.042 0.05 5e-3 0.095 0.03 0.126 0.069 0.031 0.038 0.045 0.088 0.04 0.137z"/>
  </g>
  <path d="m86.598 162.38c5.166-7.836 14.408-13.504 23.713-12.284-7.389 7.041-12.049 16.469-13.156 26.615-0.4128 3.914-0.4642 8.311-3.2642 11.078-1.7422 1.721-4.279 2.443-6.728 2.468-2.4491 0.024-4.8563-0.577-7.2316-1.174l-0.5951 0.14c0.3965-9.377 2.0957-19.007 7.2618-26.843z" fill="#E6E6E6"/>
  <g fill="#fff">
   <path d="m110.31 150.3c-7.205 2.903-13.313 8.003-17.455 14.575-0.9169 1.399-1.6075 2.933-2.0464 4.547-0.3768 1.586-0.322 3.244 0.1587 4.802 0.419 1.462 1.0169 2.908 1.0734 4.446 0.0172 0.787-0.1322 1.57-0.4385 2.296-0.3064 0.725-0.7627 1.378-1.339 1.915-1.4013 1.376-3.2133 2.166-5.0121 2.877-1.9972 0.79-4.0843 1.578-5.5691 3.2-0.1799 0.196-0.4742-0.095-0.2946-0.291 2.5833-2.821 6.7054-3.111 9.6967-5.324 1.3958-1.032 2.4889-2.492 2.5444-4.283 0.0484-1.566-0.5668-3.058-1.0039-4.534-0.4912-1.512-0.6046-3.122-0.3302-4.689 0.3554-1.631 0.9857-3.19 1.8641-4.61 1.9264-3.227 4.3483-6.132 7.1771-8.607 3.2128-2.843 6.8878-5.116 10.867-6.719 0.247-0.1 0.353 0.3 0.108 0.399z"/>
   <path d="m94.066 162.68c-1.0083-0.845-1.6835-2.02-1.905-3.317-0.2216-1.296 0.025-2.629 0.6956-3.761 0.1365-0.228 0.4979-0.027 0.3613 0.202-0.6264 1.052-0.856 2.294-0.6472 3.501s0.8421 2.299 1.7856 3.08c0.2049 0.17-0.0866 0.464-0.2903 0.295z"/>
   <path d="m90.659 173.51c2.6804-0.212 5.1822-1.427 7.0066-3.402 0.1806-0.196 0.475 0.094 0.2946 0.29-1.9023 2.052-4.5084 3.311-7.2982 3.526-0.2659 0.02-0.2675-0.394-3e-3 -0.414z"/>
   <path d="m102.72 154.3c0.322 0.408 0.741 0.73 1.218 0.936 0.477 0.207 0.998 0.292 1.516 0.247 0.265-0.024 0.267 0.39 3e-3 0.414-0.573 0.046-1.148-0.048-1.675-0.275-0.528-0.227-0.992-0.58-1.352-1.027-0.037-0.04-0.059-0.092-0.059-0.146s0.02-0.107 0.057-0.147c0.039-0.039 0.091-0.061 0.146-0.061 0.054 0 0.107 0.021 0.146 0.059z"/>
  </g>
  <path d="m127.21 177.01c-0.165 0.019-0.33 0.039-0.498 0.061-2.222 0.274-4.418 0.728-6.566 1.357-0.167 0.046-0.336 0.095-0.501 0.146-5.16 1.571-9.984 4.087-14.226 7.419-1.687 1.328-3.27 2.781-4.736 4.349-2.0248 2.165-4.0479 4.674-6.5947 6.005-0.2641 0.142-0.5368 0.267-0.8164 0.375l-13.717-6.781c-0.0234-0.032-0.0486-0.06-0.0722-0.091l-0.56-0.245c0.0699-0.087 0.1444-0.174 0.2143-0.261 0.0404-0.05 0.0838-0.098 0.1242-0.148 0.0279-0.033 0.056-0.066 0.0793-0.098 0.0092-0.011 0.0186-0.022 0.0263-0.029 0.0233-0.032 0.0482-0.058 0.07-0.087 0.4146-0.492 0.8334-0.982 1.2564-1.47 0.0016-3e-3 0.0016-3e-3 0.0062-4e-3 3.2325-3.71 6.8031-7.183 10.787-10.004 0.1199-0.084 0.2412-0.172 0.3674-0.254 1.8029-1.262 3.706-2.373 5.6901-3.325 1.0881-0.517 2.2017-0.979 3.3366-1.384 2.934-1.04 6.014-1.613 9.126-1.696 6.204-0.165 12.391 1.656 16.865 5.842 0.114 0.107 0.225 0.213 0.338 0.323z" fill="#E6E6E6"/>
  <g fill="#fff">
   <path d="m127.09 177.17c-7.501-2.021-15.448-1.626-22.712 1.127-1.574 0.565-3.05 1.375-4.372 2.399-1.2559 1.04-2.2104 2.397-2.7644 3.93-0.5453 1.419-0.9387 2.934-1.8195 4.196-0.4604 0.639-1.0508 1.174-1.7324 1.569s-1.439 0.641-2.2225 0.723c-1.9471 0.255-3.8695-0.205-5.7339-0.721-2.07-0.572-4.211-1.199-6.3729-0.798-0.2619 0.049-0.322-0.361-0.0604-0.409 3.7613-0.698 7.2272 1.553 10.948 1.587 1.7361 0.016 3.4875-0.491 4.61-1.888 0.9816-1.221 1.3887-2.783 1.9284-4.224 0.5185-1.504 1.3974-2.858 2.5597-3.943 1.2662-1.089 2.7072-1.954 4.2632-2.559 3.482-1.417 7.165-2.278 10.913-2.551 4.277-0.336 8.58 0.063 12.723 1.178 0.256 0.069 0.1 0.452-0.155 0.384z"/>
   <path d="m106.67 177.28c-0.297-1.281-0.128-2.627 0.476-3.795 0.603-1.169 1.603-2.085 2.819-2.584 0.247-0.101 0.414 0.278 0.168 0.378-1.134 0.463-2.065 1.317-2.625 2.406s-0.712 2.343-0.429 3.535c0.061 0.259-0.348 0.318-0.409 0.06z"/>
   <path d="m97.425 183.87c2.2681 1.444 4.9976 1.98 7.6426 1.501 0.262-0.047 0.323 0.362 0.061 0.41-2.754 0.493-5.5933-0.071-7.9502-1.579-0.2246-0.144 0.0232-0.475 0.2466-0.332z"/>
   <path d="m118.62 175.79c0.012 0.52 0.152 1.028 0.409 1.481 0.256 0.452 0.621 0.833 1.062 1.109 0.226 0.141-0.022 0.472-0.247 0.332-0.485-0.307-0.887-0.729-1.172-1.228s-0.443-1.06-0.461-1.634c-6e-3 -0.054 9e-3 -0.108 0.041-0.152 0.032-0.043 0.08-0.073 0.134-0.082 0.054-8e-3 0.109 6e-3 0.153 0.038 0.044 0.033 0.073 0.082 0.081 0.136z"/>
  </g>
  <path d="m123.36 103.64c0.343-0.341 0.606-0.753 0.773-1.207 0.166-0.454 0.231-0.939 0.189-1.421-0.041-0.482-0.188-0.949-0.429-1.3677-0.241-0.419-0.571-0.78-0.967-1.0576l5.399-26.13-5.825 1.8377-4.344 25.278c-0.422 0.6959-0.575 1.5229-0.428 2.3239 0.147 0.8 0.582 1.52 1.224 2.021 0.641 0.501 1.444 0.75 2.257 0.698 0.812-0.051 1.577-0.398 2.151-0.976z" fill="#FFB6B6"/>
  <path d="m135.84 33.793-3.608-2.7237s-3.183-0.2254-3.747 5.5148c-0.563 5.7402-4.093 27.771-4.093 27.771l-5.521 25.573 7.643 1.6776 5.913-27.598 5.92-19.04-2.507-11.176z" fill="#E6E6E6"/>
  <path d="m133.1 81.112-17.309-13.458c-0.269-0.2102-0.445-0.5186-0.487-0.8578-0.042-0.3391 0.051-0.6813 0.261-0.9513l11.776-15.146c0.21-0.2696 0.519-0.4448 0.858-0.4872 0.339-0.0425 0.681 0.0513 0.951 0.2608l17.309 13.458c0.269 0.2101 0.444 0.5186 0.487 0.8577 0.042 0.3392-0.052 0.6813-0.261 0.9514l-11.776 15.145c-0.21 0.2696-0.519 0.4448-0.858 0.4873-0.339 0.0424-0.681-0.0514-0.951-0.2609z" fill="#3F3D56"/>
  <path d="m133 79.719-15.84-12.316c-0.239-0.1866-0.395-0.4605-0.432-0.7616-0.038-0.3011 0.045-0.6049 0.231-0.8447l10.676-13.73c0.187-0.2394 0.461-0.395 0.762-0.4327s0.605 0.0456 0.844 0.2317l15.84 12.316c0.24 0.1865 0.395 0.4604 0.433 0.7615 0.038 0.3012-0.046 0.6049-0.232 0.8447l-10.675 13.73c-0.187 0.2393-0.461 0.3949-0.762 0.4326s-0.605-0.0456-0.845-0.2316z" fill="#fff"/>
  <g fill="#E4E4E4">
   <path d="m119.24 67.053c-0.06-0.0466-0.098-0.1151-0.108-0.1904-9e-3 -0.0753 0.012-0.1512 0.058-0.2111l5.386-6.9265c0.046-0.0599 0.115-0.0988 0.19-0.1082 0.037-0.0047 0.075-2e-3 0.111 8e-3 0.037 0.0099 0.071 0.0269 0.1 0.05 0.03 0.0231 0.055 0.0517 0.073 0.0844 0.019 0.0327 0.031 0.0687 0.036 0.106 4e-3 0.0372 1e-3 0.0751-8e-3 0.1113-0.01 0.0363-0.027 0.0702-0.051 0.0998l-5.385 6.9264c-0.047 0.0599-0.115 0.0988-0.191 0.1082-0.075 0.0094-0.151-0.0114-0.211-0.0579z"/>
   <path d="m120.13 67.747c-0.059-0.0466-0.098-0.1151-0.108-0.1904-9e-3 -0.0753 0.012-0.1512 0.058-0.2112l5.386-6.9264c0.046-0.0599 0.115-0.0988 0.19-0.1082 0.075-0.0095 0.151 0.0114 0.211 0.058s0.099 0.1151 0.109 0.1904c9e-3 0.0753-0.012 0.1512-0.058 0.2111l-5.386 6.9265c-0.047 0.0598-0.115 0.0987-0.19 0.1081-0.076 0.0094-0.152-0.0114-0.212-0.0579z"/>
   <path d="m124.07 64.517c-0.06-0.0466-0.098-0.1151-0.108-0.1904-9e-3 -0.0753 0.012-0.1512 0.058-0.2111l2.335-3.0025c0.023-0.0297 0.051-0.0546 0.084-0.0733 0.033-0.0186 0.069-0.0306 0.106-0.0353s0.075-2e-3 0.111 0.0079c0.037 0.01 0.071 0.027 0.1 0.0501 0.03 0.0231 0.055 0.0518 0.074 0.0845 0.018 0.0327 0.03 0.0688 0.035 0.1061 4e-3 0.0373 2e-3 0.0752-8e-3 0.1115-0.01 0.0362-0.027 0.0702-0.051 0.0998l-2.334 3.0025c-0.047 0.0598-0.115 0.0987-0.191 0.1081-0.075 0.0094-0.151-0.0114-0.211-0.0579z"/>
   <path d="m125.28 70.409c-0.06-0.0466-0.099-0.1151-0.108-0.1904-0.01-0.0752 0.011-0.1512 0.058-0.2111l8.502-10.935c0.023-0.0296 0.052-0.0545 0.084-0.073 0.033-0.0186 0.069-0.0306 0.106-0.0352 0.038-0.0047 0.075-2e-3 0.112 8e-3 0.036 0.0099 0.07 0.0269 0.099 0.05 0.03 0.0231 0.055 0.0517 0.074 0.0844 0.018 0.0327 0.03 0.0687 0.035 0.1059 4e-3 0.0373 2e-3 0.0752-8e-3 0.1114s-0.027 0.0702-0.05 0.0998l-8.503 10.935c-0.046 0.0598-0.115 0.0987-0.19 0.1081s-0.151-0.0114-0.211-0.0579z"/>
   <path d="m126.17 71.103c-0.059-0.0466-0.098-0.1151-0.108-0.1904-9e-3 -0.0752 0.012-0.1512 0.058-0.2111l8.502-10.935c0.024-0.0296 0.052-0.0545 0.085-0.0731 0.033-0.0185 0.069-0.0305 0.106-0.0352 0.037-0.0046 0.075-0.0019 0.111 8e-3 0.036 0.01 0.07 0.027 0.1 0.0501 0.03 0.023 0.055 0.0517 0.073 0.0844 0.019 0.0327 0.031 0.0687 0.035 0.1059 5e-3 0.0373 2e-3 0.0752-8e-3 0.1114s-0.027 0.0702-0.05 0.0998l-8.502 10.935c-0.047 0.0598-0.115 0.0987-0.19 0.1081-0.076 0.0095-0.152-0.0114-0.212-0.0579z"/>
   <path d="m128.2 72.679c-0.06-0.0467-0.099-0.1152-0.108-0.1904-0.01-0.0753 0.011-0.1512 0.058-0.2112l8.502-10.935c0.023-0.0297 0.052-0.0545 0.084-0.0731 0.033-0.0186 0.069-0.0305 0.106-0.0352s0.075-2e-3 0.112 8e-3c0.036 0.01 0.07 0.027 0.099 0.05 0.03 0.0231 0.055 0.0518 0.073 0.0844 0.019 0.0327 0.031 0.0687 0.036 0.106 4e-3 0.0373 2e-3 0.0751-8e-3 0.1114-0.01 0.0362-0.027 0.0701-0.05 0.0998l-8.503 10.935c-0.046 0.0598-0.115 0.0987-0.19 0.1082-0.075 0.0094-0.151-0.0114-0.211-0.0579z"/>
   <path d="m129.09 73.373c-0.059-0.0467-0.098-0.1151-0.108-0.1904-9e-3 -0.0753 0.012-0.1513 0.058-0.2112l8.502-10.935c0.023-0.0297 0.052-0.0545 0.085-0.0731 0.032-0.0186 0.068-0.0306 0.106-0.0352 0.037-0.0047 0.075-2e-3 0.111 8e-3 0.036 0.0099 0.07 0.0269 0.1 0.05s0.054 0.0518 0.073 0.0844c0.019 0.0327 0.031 0.0687 0.035 0.106 5e-3 0.0373 2e-3 0.0751-8e-3 0.1113-0.01 0.0363-0.027 0.0702-0.05 0.0999l-8.502 10.935c-0.047 0.0598-0.115 0.0987-0.19 0.1082-0.076 0.0094-0.152-0.0114-0.212-0.0579z"/>
   <path d="m131.11 74.948c-0.06-0.0466-0.098-0.1151-0.108-0.1904-9e-3 -0.0753 0.012-0.1512 0.058-0.2111l8.502-10.935c0.023-0.0297 0.052-0.0545 0.085-0.0731 0.032-0.0185 0.068-0.0305 0.106-0.0352 0.037-0.0046 0.075-0.0019 0.111 8e-3 0.036 0.01 0.07 0.027 0.1 0.0501 0.029 0.023 0.054 0.0517 0.073 0.0844 0.018 0.0326 0.03 0.0686 0.035 0.1059s2e-3 0.0751-8e-3 0.1114c-0.01 0.0362-0.027 0.0701-0.05 0.0998l-8.502 10.935c-0.047 0.0599-0.115 0.0988-0.191 0.1082-0.075 0.0094-0.151-0.0114-0.211-0.0579z"/>
   <path d="m132.01 75.642c-0.059-0.0467-0.098-0.1151-0.108-0.1904-9e-3 -0.0753 0.012-0.1513 0.058-0.2112l8.502-10.935c0.047-0.0596 0.115-0.0983 0.191-0.1076 0.075-0.0093 0.151 0.0116 0.21 0.0581 0.06 0.0465 0.099 0.1148 0.109 0.1899 9e-3 0.0751-0.012 0.151-0.058 0.2109l-8.502 10.935c-0.047 0.0599-0.115 0.0988-0.19 0.1082-0.076 0.0094-0.152-0.0114-0.212-0.0579z"/>
  </g>
  <path d="m117.8 88.341c0.065 0 0.118-0.0526 0.118-0.1175s-0.053-0.1175-0.118-0.1175-0.117 0.0526-0.117 0.1175 0.052 0.1175 0.117 0.1175z" fill="#fff"/>
  <path d="m134.92 7.3863c-0.413 2.2202-1.091 4.383-2.019 6.4422-5.311 11.236 9.815 7.5737 15.22 7.5737 5.91 0 11.565 3.1077 10.701-10.701-0.369-5.8985-4.791-10.701-10.701-10.701-5.048 0-12.146 2.2438-13.201 7.3863z" fill="#2F2E41"/>
  <path d="m153.63 172.18h-5.035l-2.396-19.422h7.431v19.422z" fill="#FFB6B6"/>
  <path d="m156.28 180.9h-3.611l-0.645-3.41-1.651 3.41h-9.577c-0.459 0-0.906-0.147-1.276-0.419s-0.643-0.655-0.78-1.093c-0.136-0.439-0.129-0.909 0.021-1.343 0.149-0.434 0.434-0.809 0.812-1.07l7.648-5.282v-3.447l8.044 0.481 1.015 12.173z" fill="#2F2E41"/>
  <path d="m183.54 165.82-4.041 3.004-13.512-14.155 5.963-4.435 11.59 15.586z" fill="#FFB6B6"/>
  <path d="m190.88 171.24-2.897 2.154-2.552-2.351 0.71 3.721-7.686 5.715c-0.368 0.274-0.814 0.423-1.274 0.425-0.459 3e-3 -0.906-0.142-1.278-0.412-0.371-0.27-0.646-0.652-0.785-1.089-0.138-0.438-0.134-0.908 0.014-1.343l2.985-8.803-2.057-2.765 6.742-4.415 8.078 9.163z" fill="#2F2E41"/>
  <path d="m137.14 82.792 23.903-3.723-4.754-14.3h-19.149v18.023z" fill="#FFB6B6"/>
  <path d="m159.49 71.972s9.554 8.2541 5.145 31.784l-5.381 23.056 14.662 25.455-7.455 4.067-18.069-25.113-8.268-19.394-4.373-33.99 23.739-5.8653z" fill="#2F2E41"/>
  <path d="m144.68 117.35-0.575 8.899 1.682 26.353 8.351 2.876 1.582-27.002-11.04-11.126z" fill="#2F2E41"/>
  <path d="m142.11 24.364 9.24 0.3605 3.682 6.1125 8.402 1.6401-5.016 25.373 0.922 14.442-8.365-0.051c-6.029-0.0368-11.859 2.1535-16.373 6.1508l0.251-18.747-3.599-13.994 0.809-14.674 6.759-0.8448 3.288-5.7681z" fill="#E6E6E6"/>
  <path d="m147.23 21.4c4.803 0 8.696-3.8933 8.696-8.6959 0-4.8025-3.893-8.6958-8.696-8.6958s-8.696 3.8933-8.696 8.6958c0 4.8026 3.893 8.6959 8.696 8.6959z" fill="#FFB6B6"/>
  <path d="m141.33 3.8395c1.524-0.92895 3.27-1.4315 5.054-1.455 1.785-0.02352 3.543 0.4328 5.09 1.3213 1.548 0.88846 2.829 2.1764 3.708 3.7292 0.88 1.5528 1.326 3.3134 1.292 5.0977-4.431 1.1125-9.086 1.9638-13.811 0.2661l-1.116-2.7312-0.658 2.7332c-1.439 0.5882-2.882 1.0858-4.324-0.0057-0.059-1.7793 0.35-3.5428 1.186-5.1144 0.837-1.5716 2.071-2.8961 3.579-3.8412z" fill="#2F2E41"/>
  <path d="m161.83 89.824 1.172 10.638c0.082 0.265 0.246 0.498 0.47 0.663 0.223 0.165 0.494 0.254 0.771 0.254h5.404c0.277 0 0.548-0.089 0.771-0.254 0.224-0.165 0.388-0.398 0.47-0.663l0.971-8.1537c0.28 0.1374 0.589 0.2063 0.901 0.2011s0.619-0.0845 0.894-0.2312c0.276-0.1467 0.512-0.3567 0.691-0.6128 0.178-0.256 0.293-0.5507 0.336-0.86 0.042-0.3092 0.011-0.6241-0.092-0.9187s-0.275-0.5606-0.501-0.776c-0.226-0.2155-0.499-0.3742-0.799-0.4632-0.299-0.089-0.615-0.1058-0.922-0.0489-0.121-0.1431-0.272-0.258-0.442-0.3366-0.17-0.0787-0.355-0.1192-0.543-0.1188h-8.311c-0.203 0-0.403 0.0477-0.585 0.1393-0.181 0.0915-0.339 0.2244-0.459 0.3878-0.121 0.1635-0.202 0.353-0.236 0.5533-0.034 0.2004-0.021 0.4059 0.039 0.6001zm10.199 1.9332 0.594-1.9332c0.069-0.223 0.076-0.4607 0.02-0.6873 0.025-0.0014 0.049-0.0076 0.075-0.0076 0.373 0 0.732 0.1484 0.996 0.4124 0.264 0.2641 0.412 0.6222 0.412 0.9956 0 0.3735-0.148 0.7316-0.412 0.9957-0.264 0.264-0.623 0.4124-0.996 0.4124-0.242-0.0015-0.48-0.0663-0.689-0.188z" fill="#006753"/>
  <path d="m169.98 101.39c-0.341-0.343-0.603-0.756-0.767-1.211-0.164-0.4549-0.226-0.9402-0.182-1.4218 0.044-0.4815 0.193-0.9476 0.436-1.3654 0.244-0.4177 0.576-0.777 0.973-1.0526l-5.266-26.157 5.815 1.8672 4.216 25.3c0.418 0.6982 0.566 1.5257 0.416 2.3257-0.151 0.8005-0.59 1.5165-1.234 2.0145s-1.448 0.743-2.261 0.688c-0.812-0.056-1.575-0.407-2.146-0.988z" fill="#FFB6B6"/>
  <path d="m159.83 35.201 3.608-2.7237s3.183-0.2254 3.747 5.5149c0.564 5.7402 4.094 27.771 4.094 27.771l5.521 25.573-7.643 1.6776-5.914-27.598-5.92-19.04 2.507-11.176z" fill="#E6E6E6"/>
  <path d="m128.69 59.011c1.128 0 2.042-0.9144 2.042-2.0425 0-1.128-0.914-2.0425-2.042-2.0425-1.129 0-2.043 0.9145-2.043 2.0425 0 1.1281 0.914 2.0425 2.043 2.0425z" fill="#006753"/>
  <path d="m63.555 195.87h4.2566l2.0252-16.419-6.2825 1e-3 7e-4 16.418z" fill="#FFB6B6"/>
  <path d="m62.469 194.48h1.1982l4.6776-1.902 2.5071 1.902h3e-4c1.4168 0 2.7756 0.563 3.7774 1.565 1.0019 1.001 1.5648 2.36 1.5649 3.777v0.174h-13.725l-3e-4 -5.516z" fill="#2F2E41"/>
  <path d="m80.05 193.19 4.1523 0.938 5.5918-15.569-6.1283-1.384-3.6158 16.015z" fill="#FFB6B6"/>
  <path d="m79.297 191.6 1.1687 0.264 4.9818-0.826 2.0265 2.408h3e-4c1.382 0.312 2.5834 1.161 3.34 2.358 0.7565 1.198 1.0063 2.648 0.6943 4.03l-0.0383 0.169-13.388-3.023 1.2148-5.38z" fill="#2F2E41"/>
  <path d="m55.762 111.42 3.8492 43.126s-1.4423 25.89 3.2116 35.001h6.7493l3.3418-37.366 0.4196-25.08 14.47 21.159-9.2163 40.676 8.3068 0.743 14.956-44.143-16.431-41.44-29.657 7.324z" fill="#2F2E41"/>
  <path d="m59.794 42.743c5.4824 0 9.9267-4.4444 9.9267-9.9268s-4.4443-9.9267-9.9267-9.9267-9.9268 4.4443-9.9268 9.9267 4.4444 9.9268 9.9268 9.9268z" fill="#FFB8B8"/>
  <path d="m77.244 52.203-8.1438-3.4942-3.9644-4.205-9.9038 1.5972-2.6277 4.5055-8.5063 7.9096 9.9661 45.062-0.3017 9.842s6.3786 2.871 34.041-3.74c0.3318-0.079-0.3626-0.427-0.3626-0.427l-10.197-57.05z" fill="#3F3D56"/>
  <path d="m49.471 38.449c-0.0692-0.0944-0.1377-0.1896-0.2055-0.2856-0.0273 0.0576-0.049 0.1172-0.0802 0.1735l0.2857 0.1121z" fill="#2F2E41"/>
  <path d="m69.668 25.556c-0.6636-1.4455-1.8467-2.5885-3.3142-3.2017-1.4546-0.5867-3.0803-0.5853-4.5338 0.0039-1.3124-0.8291-2.7705-1.4864-4.3061-1.5678-1.5357-0.0815-3.1593 0.4882-4.1056 1.7423-0.2113 0.331-0.4513 0.6429-0.7173 0.9319-0.7607 0.7044-1.9167 0.6028-2.9278 0.4588 0.4535 0.3886 0.9071 0.7773 1.3608 1.166-0.5489 0.1434-1.0979 0.2868-1.647 0.4302 0.6407 0.3886 1.2813 0.7771 1.9219 1.1657-1.8598 1.1162-2.7051 3.5526-2.4818 5.7654 0.2112 2.095 1.2226 4.0107 2.4317 5.7134 0.4824-1.0178 0.3784-2.2357 0.3705-3.3821-0.0083-1.2112 0.2059-2.5866 1.1765-3.2636 0.6548-0.4566 1.4967-0.477 2.2862-0.4727 3.9824 0.0219 7.9604 0.2702 11.915 0.7439 0.5365 0.0232 1.0597 0.1749 1.5254 0.4424 0.8745 0.5966 1.0448 1.8277 1.1327 2.9078 0.462-1.7834 0.6881-3.6196 0.6725-5.4618 0.0389-1.4121-0.2198-2.8165-0.7593-4.122z" fill="#2F2E41"/>
  <path d="m72.759 141.65c8.629 0 15.624-6.995 15.624-15.624s-6.9951-15.624-15.624-15.624-15.624 6.995-15.624 15.624 6.9951 15.624 15.624 15.624z" fill="#fff"/>
  <path d="m72.759 110.06c-0.8032 0-1.6052 0.06-2.3992 0.181-0.4062 0.059-0.8019 0.135-1.1944 0.229-2.8824 0.664-5.5235 2.116-7.6286 4.194s-3.5915 4.7-4.2933 7.574c-0.7018 2.873-0.5914 5.885 0.3189 8.7 0.9102 2.814 2.5845 5.32 4.8361 7.238 0.2674 0.226 0.5381 0.445 0.8194 0.653 2.027 1.511 4.3838 2.52 6.8767 2.942 2.4928 0.423 5.0503 0.247 7.462-0.512s4.6087-2.08 6.4101-3.854c1.8015-1.774 3.1559-3.951 3.9518-6.351s1.0105-4.954 0.6262-7.453-1.3565-4.871-2.8367-6.921c-1.4801-2.05-3.4258-3.719-5.6771-4.87-2.2512-1.151-4.7436-1.751-7.2719-1.75zm0 31.248c-3.2484 4e-3 -6.4123-1.034-9.0273-2.961-0.2846-0.209-0.5589-0.424-0.8263-0.653-2.1936-1.851-3.8213-4.282-4.6964-7.015-0.875-2.734-0.9619-5.658-0.2507-8.439 0.7111-2.78 2.1915-5.304 4.2714-7.281 2.0799-1.978 4.6751-3.329 7.4879-3.899 0.3887-0.08 0.7776-0.142 1.1735-0.191 0.6196-0.077 1.2435-0.115 1.8679-0.115 4.0516 0 7.9374 1.61 10.802 4.475 2.865 2.865 4.4745 6.751 4.4745 10.802 0 4.052-1.6095 7.938-4.4745 10.803-2.8649 2.865-6.7507 4.474-10.802 4.474z" fill="#3F3D56"/>
  <g fill="#006753">
   <path d="m65.096 122.9h15.327c0.5615 0 1.0167-0.455 1.0167-1.016v-0.05c0-0.562-0.4552-1.017-1.0167-1.017h-15.327c-0.5614 0-1.0166 0.455-1.0166 1.017v0.05c0 0.561 0.4552 1.016 1.0166 1.016z"/>
   <path d="m65.096 127.07h15.327c0.5615 0 1.0167-0.455 1.0167-1.017v-0.05c0-0.561-0.4552-1.016-1.0167-1.016h-15.327c-0.5614 0-1.0166 0.455-1.0166 1.016v0.05c0 0.562 0.4552 1.017 1.0166 1.017z"/>
   <path d="m65.096 131.24h15.327c0.5615 0 1.0167-0.455 1.0167-1.016v-0.05c0-0.562-0.4552-1.017-1.0167-1.017h-15.327c-0.5614 0-1.0166 0.455-1.0166 1.017v0.05c0 0.561 0.4552 1.016 1.0166 1.016z"/>
  </g>
  <path d="m247.56 195.34h-4.463l-2.124-17.216h6.588l-1e-3 17.216z" fill="#FFB6B6"/>
  <path d="m226.44 195.34h-4.463l-2.124-17.216h6.588l-1e-3 17.216z" fill="#FFB6B6"/>
  <g fill="#2F2E41">
   <path d="m226.6 200-13.725-1e-3v-0.173c0-1.417 0.563-2.776 1.565-3.777 1.002-1.002 2.36-1.565 3.777-1.565h1e-3l2.507-1.902 4.677 1.902h1.198v5.516z"/>
   <path d="m248.29 200-13.726-1e-3v-0.173c1e-3 -1.417 0.563-2.776 1.565-3.777 1.002-1.002 2.361-1.565 3.778-1.565l2.507-1.902 4.678 1.902h1.198v5.516z"/>
   <path d="m222.06 93.456-6.784 41.304 1.846 6.155-2.422 4.36 3.557 38.283-1.444 3.179 4.035 2.488h8.21l0.435-34.658 2.028-5.088v-2.805l4.129-21.134 0.76 29.597 1.201 5.096-1.009 3.629 1.318 2.542 3.501 23.576h9.206l-0.712-5.485c0.801-0.406 1.446-1.067 1.831-1.879s0.49-1.729 0.297-2.606l-0.528-2.405 1.201-7.108 2.188-39.657-0.617-31.998-10.769-8.2349-21.458 2.8493z"/>
  </g>
  <path d="m237.62 40.416c4.724 0 8.553-3.8292 8.553-8.5529 0-4.7236-3.829-8.5529-8.553-8.5529s-8.553 3.8293-8.553 8.5529c0 4.7237 3.829 8.5529 8.553 8.5529z" fill="#FFB6B6"/>
  <path d="m218.93 109.85c0.372-0.384 0.655-0.846 0.83-1.352 0.174-0.506 0.236-1.044 0.18-1.576s-0.228-1.046-0.504-1.505c-0.276-0.458-0.649-0.851-1.093-1.15l3.326-12.577-6.407 2.1553-2.176 11.613c-0.453 0.78-0.604 1.698-0.425 2.581s0.676 1.67 1.396 2.211 1.614 0.8 2.512 0.726 1.738-0.474 2.361-1.126z" fill="#FFB6B6"/>
  <path d="m222.43 49.46-1.376-0.2854-1.173 0.6495s-3.276 4.3688-3.276 8.3734c0 4.0047-4.005 42.596-4.005 42.596l7.281 3.276 5.825-30.217-3.276-24.392z" fill="#E6E6E6"/>
  <path d="m245.1 25.593s2.237-4.2765-2.685-4.6652c0 0-4.195-3.806-8.472-0.6958 0 0-2.332 0-3.608 2.6396 0 0-1.834-0.6958-2.238 1.1663 0 0-1.342 3.8877 0 7.3866 1.343 3.4989 1.789 3.8877 1.789 3.8877s-2.206-7.3357 3.163-7.7245c5.37-0.3887 11.378-3.7442 11.825 0.5323 0.448 4.2764 1.121 5.3301 1.121 5.3301s4.25-6.1077-0.895-7.8571z" fill="#2F2E41"/>
  <path d="m276.35 145.27c-0.646 1e-3 -1.269-0.237-1.75-0.668l-25.884-23.041c-0.521-0.465-0.837-1.118-0.878-1.816-0.04-0.698 0.198-1.383 0.662-1.906l16.581-18.627c0.466-0.5217 1.119-0.8374 1.817-0.878s1.383 0.1973 1.906 0.6616l25.884 23.041c0.522 0.465 0.838 1.118 0.879 1.817 0.041 0.698-0.198 1.383-0.663 1.905l-16.581 18.628c-0.23 0.259-0.509 0.47-0.82 0.621-0.312 0.151-0.651 0.239-0.997 0.258-0.052 3e-3 -0.104 5e-3 -0.156 5e-3z" fill="#fff"/>
  <path d="m276.35 145.44c-0.687 1e-3 -1.35-0.252-1.862-0.71l-25.883-23.041c-0.556-0.495-0.892-1.19-0.935-1.933s0.21-1.472 0.704-2.029l16.582-18.627c0.495-0.555 1.19-0.8909 1.933-0.9341s1.472 0.2099 2.029 0.7037l25.884 23.042c0.555 0.494 0.892 1.19 0.935 1.933s-0.211 1.472-0.705 2.028l-16.582 18.628c-0.244 0.276-0.541 0.501-0.873 0.661-0.332 0.161-0.692 0.254-1.06 0.275-0.056 2e-3 -0.111 4e-3 -0.167 4e-3zm-9.297-46.602c-0.301-6e-4 -0.598 0.0625-0.872 0.1853s-0.519 0.3025-0.719 0.527l-16.581 18.628c-0.375 0.422-0.567 0.975-0.534 1.538 0.032 0.564 0.287 1.091 0.708 1.467l25.884 23.041c0.209 0.186 0.452 0.328 0.716 0.42s0.544 0.131 0.823 0.115 0.552-0.088 0.803-0.209c0.252-0.122 0.477-0.292 0.663-0.501l16.581-18.628c0.376-0.421 0.568-0.974 0.535-1.538-0.032-0.563-0.288-1.091-0.709-1.466l-25.884-23.041c-0.389-0.347-0.893-0.5384-1.414-0.5376z" fill="#3F3D56"/>
  <g fill="#006753">
   <path d="m285.73 127.63c-0.28 1e-3 -0.549-0.102-0.758-0.288l-20.318-18.086c-0.112-0.1-0.204-0.22-0.27-0.355s-0.104-0.282-0.113-0.432 0.012-0.3 0.061-0.442c0.049-0.141 0.126-0.272 0.226-0.384 0.099-0.113 0.22-0.204 0.356-0.269 0.135-0.065 0.282-0.103 0.432-0.112 0.149-8e-3 0.3 0.013 0.441 0.063 0.142 0.049 0.272 0.126 0.384 0.227l20.318 18.086c0.173 0.154 0.295 0.356 0.35 0.581s0.04 0.461-0.042 0.677c-0.083 0.216-0.229 0.402-0.419 0.533-0.191 0.132-0.417 0.202-0.648 0.201z"/>
   <path d="m281.86 131.99c-0.279 0-0.549-0.102-0.758-0.288l-20.317-18.087c-0.112-0.099-0.203-0.22-0.269-0.355-0.065-0.135-0.103-0.281-0.112-0.431-8e-3 -0.149 0.012-0.299 0.062-0.44 0.049-0.142 0.126-0.272 0.225-0.384 0.1-0.112 0.22-0.203 0.355-0.268 0.135-0.066 0.282-0.104 0.431-0.112 0.15-9e-3 0.299 0.012 0.441 0.061 0.141 0.049 0.272 0.126 0.384 0.225l20.318 18.087c0.173 0.154 0.295 0.356 0.349 0.581 0.055 0.225 0.041 0.461-0.042 0.677-0.082 0.216-0.228 0.402-0.419 0.533-0.19 0.131-0.416 0.201-0.648 0.201z"/>
   <path d="m277.98 136.34c-0.279 1e-3 -0.549-0.102-0.758-0.289l-20.318-18.086c-0.112-0.099-0.203-0.22-0.269-0.355-0.065-0.135-0.103-0.281-0.112-0.431-9e-3 -0.149 0.012-0.299 0.061-0.441s0.126-0.272 0.226-0.384c0.099-0.112 0.22-0.203 0.355-0.269 0.135-0.065 0.282-0.103 0.431-0.112 0.15-8e-3 0.3 0.013 0.442 0.062 0.141 0.05 0.272 0.126 0.383 0.226l20.318 18.087c0.173 0.153 0.295 0.356 0.35 0.581 0.055 0.224 0.04 0.46-0.042 0.677-0.082 0.216-0.228 0.402-0.419 0.533-0.19 0.131-0.416 0.201-0.648 0.201z"/>
  </g>
  <path d="m254.75 110.59c-0.261-0.468-0.416-0.987-0.454-1.521-0.039-0.533 0.04-1.069 0.231-1.569s0.489-0.952 0.874-1.324c0.384-0.373 0.846-0.656 1.352-0.831l0.022-13.009 5.637 3.7314-0.885 11.782c0.237 0.87 0.147 1.796-0.253 2.603s-1.083 1.44-1.918 1.778c-0.836 0.337-1.766 0.357-2.615 0.055-0.849-0.303-1.557-0.906-1.991-1.695z" fill="#FFB6B6"/>
  <path d="m255.27 53.025 2.519-2.4276 1.85 1.3354s1.82 2.1843 3.276 8.7375c1.457 6.5531 0 42.596 0 42.596l-8.009-1.093 1.092-18.931-3.276-16.019 2.548-14.198z" fill="#E6E6E6"/>
  <path d="m258.99 51.189-8.485-4.0532-5.761-5.3435-10.505-0.0786-3.389 4.4054-8.947 3.039 1.492 30.849-1.017 2.3722s0.708 0.6398 1.032 0.9977c0.323 0.3578-0.447 3.3537-0.447 3.3537l-0.435 3.2593 1.205 0.8613-1.567 1.8509-0.389 2.9177s27.353-6.7985 32.521 4.4638c0.273 0.595-0.399-5.2204-0.399-5.2204l-0.672-4.2573 0.667-3.8213 1.016-1.0166-1.705-1.7051 1.093-8.0904 4.692-24.784z" fill="#D5B26B"/>
  <path d="m66.559 119.58c0.2106-0.535 0.3014-1.109 0.266-1.683-0.0354-0.573-0.1962-1.132-0.4709-1.637-0.2748-0.505-0.6568-0.943-1.1193-1.284s-0.9941-0.577-1.5575-0.69l-1.8849-13.841-5.4653 4.777 2.6279 12.412c-0.1278 0.959 0.1007 1.931 0.6421 2.733s1.3581 1.377 2.2954 1.617 1.93 0.128 2.7901-0.315 1.5277-1.187 1.8764-2.089z" fill="#FFB8B8"/>
  <path d="m45.147 58.263-1.4814 0.2838-0.8954 1.1273s-1.4485 5.6818 0.2016 9.6525c1.6502 3.9707 13.581 43.884 13.581 43.884l8.5695 0.249-6.6756-32.361-13.3-22.835z" fill="#3F3D56"/>
  <path d="m78.93 117.55c-0.3948-0.417-0.6932-0.916-0.8742-1.462-0.181-0.545-0.2402-1.124-0.1735-1.694 0.0668-0.571 0.2578-1.12 0.5598-1.609 0.3019-0.489 0.7074-0.906 1.1879-1.221l-3.4117-13.546 6.8524 2.395 2.1892 12.496c0.4762 0.842 0.6268 1.83 0.4235 2.776-0.2034 0.946-0.7467 1.784-1.527 2.356-0.7802 0.572-1.7432 0.838-2.7065 0.748-0.9632-0.091-1.8599-0.531-2.5199-1.239z" fill="#FFB8B8"/>
  <path d="m75.936 52.67 1.4803-0.289 1.2512 0.7121s3.4626 4.732 3.4119 9.0316 3.7607 45.783 3.7607 45.783l-7.859 3.426-5.8716-32.516 3.8265-26.147z" fill="#3F3D56"/>
 </g>
 <defs>
  <clipPath id="clip0_198_2891">
   <rect width="295.74" height="200" fill="#fff"/>
  </clipPath>
 </defs>
</svg>
