<svg width="32" height="32" viewBox="0 0 32 32" fill="none" xmlns="http://www.w3.org/2000/svg">
<path fill-rule="evenodd" clip-rule="evenodd" d="M16 9.33325C12.3181 9.33325 9.33337 12.318 9.33337 15.9999C9.33337 19.6818 12.3181 22.6666 16 22.6666C19.6819 22.6666 22.6667 19.6818 22.6667 15.9999C22.6667 12.318 19.6819 9.33325 16 9.33325ZM12 15.9999C12 18.2091 13.7909 19.9999 16 19.9999C18.2092 19.9999 20 18.2091 20 15.9999C20 13.7908 18.2092 11.9999 16 11.9999C13.7909 11.9999 12 13.7908 12 15.9999Z" fill="#D5B26B"/>
<path d="M24 6.66658C23.2637 6.66658 22.6667 7.26354 22.6667 7.99992C22.6667 8.7363 23.2637 9.33325 24 9.33325C24.7364 9.33325 25.3334 8.7363 25.3334 7.99992C25.3334 7.26354 24.7364 6.66658 24 6.66658Z" fill="#D5B26B"/>
<path fill-rule="evenodd" clip-rule="evenodd" d="M6.66671 1.33325C3.72119 1.33325 1.33337 3.72107 1.33337 6.66658V25.3333C1.33337 28.2788 3.72119 30.6666 6.66671 30.6666H25.3334C28.2789 30.6666 30.6667 28.2788 30.6667 25.3333V6.66658C30.6667 3.72107 28.2789 1.33325 25.3334 1.33325H6.66671ZM25.3334 3.99992H6.66671C5.19395 3.99992 4.00004 5.19383 4.00004 6.66658V25.3333C4.00004 26.806 5.19395 27.9999 6.66671 27.9999H25.3334C26.8061 27.9999 28 26.806 28 25.3333V6.66658C28 5.19383 26.8061 3.99992 25.3334 3.99992Z" fill="#D5B26B"/>
</svg>
