<svg width="33" height="32" viewBox="0 0 33 32" fill="none" xmlns="http://www.w3.org/2000/svg">
<g clip-path="url(#clip0_4_8371)">
<path fill-rule="evenodd" clip-rule="evenodd" d="M31.08 20.6376L28.0393 19.3174C29.9301 12.6057 26.0206 5.63843 19.3089 3.74756C12.5972 1.85669 5.62138 5.77471 3.73902 12.4865C1.85667 19.1982 5.76617 26.1655 12.4779 28.0563C14.5902 28.6525 16.8218 28.6866 18.9512 28.15L20.2117 31.2163C11.7539 33.5841 2.97245 28.6611 0.59609 20.2032C-1.78027 11.7454 3.15132 2.97248 11.6006 0.596113C20.0499 -1.78025 28.8399 3.15134 31.2163 11.6006C32.0425 14.5647 31.9999 17.6991 31.08 20.6376ZM22.554 15.9019C22.5711 12.2054 19.59 9.19021 15.8934 9.16465C12.1968 9.14762 9.18167 12.1287 9.15611 15.8253C9.13908 19.5219 12.1202 22.537 15.8167 22.5626C16.0893 22.5626 16.3533 22.5455 16.6259 22.52L17.8354 25.467C12.5631 26.5317 7.41856 23.1247 6.34536 17.8524C5.27216 12.5801 8.69617 7.41858 13.9685 6.3539C19.2408 5.28922 24.3853 8.69619 25.4585 13.9685C25.7225 15.2802 25.714 16.6259 25.4415 17.9376C25.4244 18.0143 25.4074 18.0824 25.3903 18.1505L22.4859 16.8814C22.52 16.5578 22.554 16.2341 22.554 15.9019ZM30.6201 21.6257L25.7651 23.6784L32.0169 29.8876L31.2844 30.6116L30.6286 31.2589L29.8876 31.9999L23.6017 25.7566L21.5064 30.6116L14.9395 15.0672L30.6201 21.6257Z" fill="#86BF8B"/>
</g>
<defs>
<clipPath id="clip0_4_8371">
<rect width="32.0085" height="32" fill="white"/>
</clipPath>
</defs>
</svg>
