<svg fill="none" save-fill="" version="1.1" viewBox="0 0 207 200" xmlns="http://www.w3.org/2000/svg">
 <g clip-path="url(#clip0_198_4273)">
  <path d="m188.7 199.8v-20.057s7.817 14.22 0 20.057z" fill="#F1F1F1"/>
  <path d="m189.19 199.8-14.775-13.564s15.761 3.858 14.775 13.564z" fill="#F1F1F1"/>
  <path d="m137.07 88.499-78.405 45.825c-0.2744 0.16-0.601 0.204-0.9083 0.124-0.3072-0.081-0.57-0.28-0.7306-0.554l-50.42-86.267c-0.15997-0.2744-0.20455-0.6011-0.12398-0.9083 0.08058-0.3073 0.27975-0.57 0.5538-0.7306l78.405-45.825c0.2744-0.15997 0.6011-0.20455 0.9083-0.12397 0.3073 0.080578 0.57 0.27974 0.7306 0.55379l50.42 86.266c0.16 0.2744 0.205 0.601 0.124 0.9083-0.081 0.3072-0.28 0.57-0.554 0.7306z" fill="#fff"/>
  <path d="m137.07 88.499-78.405 45.825c-0.2744 0.16-0.601 0.204-0.9083 0.124-0.3072-0.081-0.57-0.28-0.7306-0.554l-50.42-86.267c-0.15997-0.2744-0.20455-0.6011-0.12398-0.9083 0.08058-0.3073 0.27975-0.57 0.5538-0.7306l78.405-45.825c0.2744-0.15997 0.6011-0.20455 0.9083-0.12397 0.3073 0.080578 0.57 0.27974 0.7306 0.55379l50.42 86.266c0.16 0.2744 0.205 0.601 0.124 0.9083-0.081 0.3072-0.28 0.57-0.554 0.7306zm-129.79-42.096c-0.16444 0.0964-0.28394 0.254-0.33229 0.4384-0.04834 0.1843-0.02159 0.3803 0.0744 0.545l50.42 86.266c0.0963 0.164 0.254 0.284 0.4383 0.332 0.1844 0.049 0.3804 0.022 0.545-0.074l78.405-45.825c0.165-0.0963 0.284-0.254 0.333-0.4383 0.048-0.1844 0.021-0.3804-0.075-0.545l-50.419-86.266c-0.0964-0.16444-0.254-0.28394-0.4384-0.33229-0.1843-0.048348-0.3803-0.021592-0.545 0.074398l-78.405 45.825z" fill="#3F3D56"/>
  <path d="m57.681 54.993-19.446 11.366c-0.2744 0.16-0.6011 0.2046-0.9083 0.124-0.3073-0.0806-0.57-0.2797-0.7306-0.5538l-11.366-19.446c-0.16-0.2744-0.2046-0.6011-0.124-0.9084 0.0806-0.3072 0.2798-0.57 0.5538-0.7305l19.446-11.366c0.2744-0.16 0.601-0.2046 0.9083-0.124 0.3072 0.0806 0.57 0.2797 0.7306 0.5538l11.366 19.446c0.16 0.2745 0.2046 0.6011 0.124 0.9084-0.0806 0.3072-0.2797 0.57-0.5538 0.7306zm-31.779-9.7356c-0.1644 0.0964-0.2839 0.254-0.3323 0.4383-0.0483 0.1844-0.0215 0.3804 0.0744 0.5451l11.366 19.446c0.0964 0.1644 0.254 0.2839 0.4384 0.3323 0.1843 0.0483 0.3803 0.0216 0.545-0.0744l19.446-11.366c0.1645-0.0963 0.284-0.254 0.3323-0.4383 0.0484-0.1844 0.0216-0.3804-0.0744-0.545l-11.366-19.446c-0.0963-0.1644-0.254-0.2839-0.4383-0.3323-0.1844-0.0483-0.3804-0.0216-0.545 0.0744l-19.446 11.366z" fill="#F2F2F2"/>
  <path d="m53.486 60.637-19.446 11.366c-0.2469 0.144-0.5409 0.1841-0.8175 0.1116-0.2765-0.0725-0.513-0.2517-0.6575-0.4984l-11.366-19.446c-0.1439-0.247-0.1841-0.541-0.1116-0.8175 0.0726-0.2765 0.2518-0.513 0.4985-0.6575l19.446-11.366c0.247-0.144 0.541-0.1841 0.8175-0.1116s0.513 0.2518 0.6575 0.4984l11.366 19.446c0.144 0.2469 0.1841 0.5409 0.1116 0.8174-0.0725 0.2766-0.2518 0.513-0.4984 0.6576z" fill="#006753"/>
  <g fill="#ccc">
   <path d="m100.42 45.971-60.821 35.548c-0.2469 0.1443-0.541 0.1847-0.8177 0.1121-0.2766-0.0725-0.5131-0.252-0.6574-0.4989s-0.1846-0.541-0.112-0.8176c0.0725-0.2767 0.252-0.5131 0.4989-0.6574l60.821-35.548c0.1222-0.0714 0.2574-0.1181 0.3977-0.1373 0.1403-0.0193 0.2827-0.0107 0.4197 0.0252 0.137 0.036 0.266 0.0985 0.379 0.1841 0.112 0.0856 0.207 0.1926 0.279 0.3149 0.071 0.1222 0.118 0.2573 0.137 0.3976s0.011 0.283-0.025 0.42c-0.036 0.1369-0.099 0.2655-0.184 0.3783-0.086 0.1128-0.193 0.2076-0.315 0.2791z"/>
   <path d="m89.483 60.969-46.133 26.963c-0.1222 0.0714-0.2574 0.1181-0.3977 0.1373-0.1402 0.0193-0.2829 0.0107-0.4199-0.0252-0.2766-0.0726-0.5131-0.252-0.6574-0.4989s-0.1846-0.5411-0.1121-0.8177c0.0726-0.2766 0.252-0.5131 0.4989-0.6574l46.133-26.963c0.1222-0.0714 0.2573-0.1181 0.3976-0.1373 0.1403-0.0193 0.283-0.0107 0.42 0.0252 0.137 0.036 0.2655 0.0985 0.3783 0.1841s0.2076 0.1926 0.2791 0.3148c0.0714 0.1223 0.1181 0.2574 0.1373 0.3977 0.0193 0.1403 0.0107 0.283-0.0252 0.42-0.036 0.137-0.0985 0.2655-0.1841 0.3783s-0.1926 0.2076-0.3148 0.2791z"/>
   <path d="m86.432 22.508-26.894 15.718c-0.2469 0.1443-0.541 0.1846-0.8176 0.1121-0.2767-0.0726-0.5131-0.252-0.6574-0.4989s-0.1847-0.5411-0.1121-0.8177c0.0725-0.2766 0.252-0.5131 0.4989-0.6574l26.894-15.718c0.2469-0.1443 0.541-0.1846 0.8176-0.1121 0.137 0.0359 0.2656 0.0985 0.3784 0.1841s0.2076 0.1926 0.279 0.3148c0.0715 0.1223 0.1182 0.2574 0.1374 0.3977s0.0106 0.283-0.0253 0.4199c-0.0359 0.137-0.0985 0.2656-0.1841 0.3784-0.0856 0.1127-0.1925 0.2076-0.3148 0.279z"/>
   <path d="m83.469 32.844-20.182 11.796c-0.1222 0.0715-0.2574 0.1182-0.3976 0.1374-0.1403 0.0192-0.283 0.0106-0.42-0.0253s-0.2655-0.0985-0.3783-0.1841-0.2077-0.1926-0.2791-0.3148c-0.0715-0.1223-0.1181-0.2574-0.1374-0.3977-0.0192-0.1403-0.0106-0.283 0.0253-0.4199 0.0359-0.137 0.0985-0.2656 0.1841-0.3784s0.1926-0.2076 0.3148-0.279l20.182-11.796c0.2469-0.1443 0.541-0.1846 0.8176-0.1121 0.2767 0.0726 0.5131 0.252 0.6574 0.4989s0.1847 0.541 0.1121 0.8177c-0.0725 0.2766-0.252 0.513-0.4989 0.6574z"/>
   <path d="m107.92 58.797-60.821 35.548c-0.2469 0.1443-0.541 0.1846-0.8176 0.1121-0.2766-0.0726-0.5131-0.252-0.6574-0.4989s-0.1846-0.541-0.1121-0.8177c0.0726-0.2766 0.2521-0.5131 0.499-0.6574l60.821-35.548c0.247-0.1443 0.541-0.1846 0.818-0.1121 0.276 0.0726 0.513 0.252 0.657 0.4989 0.145 0.2469 0.185 0.541 0.112 0.8177-0.072 0.2766-0.252 0.513-0.499 0.6573v1e-4z"/>
   <path d="m96.979 73.795-46.133 26.963c-0.1223 0.071-0.2574 0.118-0.3977 0.137s-0.283 0.011-0.4199-0.025c-0.137-0.036-0.2656-0.099-0.3784-0.184-0.1128-0.086-0.2076-0.193-0.279-0.315-0.0715-0.122-0.1182-0.257-0.1374-0.3976-0.0192-0.1403-0.0106-0.283 0.0253-0.42s0.0985-0.2655 0.1841-0.3783 0.1925-0.2076 0.3148-0.2791l46.133-26.963c0.1222-0.0715 0.2573-0.1181 0.3976-0.1374 0.1403-0.0192 0.283-0.0106 0.42 0.0253s0.2655 0.0985 0.3783 0.1841 0.2076 0.1926 0.2791 0.3148c0.0714 0.1223 0.1181 0.2574 0.1373 0.3977 0.0193 0.1403 0.0107 0.283-0.0252 0.42-0.036 0.1369-0.0985 0.2655-0.1841 0.3783s-0.1926 0.2076-0.3149 0.279z"/>
   <path d="m115.42 71.623-60.82 35.548c-0.1222 0.071-0.2573 0.118-0.3976 0.137s-0.283 0.011-0.42-0.025-0.2655-0.098-0.3783-0.184-0.2076-0.193-0.2791-0.315c-0.0714-0.122-0.1181-0.257-0.1373-0.398-0.0193-0.14-0.0107-0.283 0.0252-0.42 0.036-0.137 0.0985-0.265 0.1841-0.378s0.1926-0.208 0.3149-0.279l60.821-35.548c0.123-0.0715 0.258-0.1182 0.398-0.1374s0.283-0.0106 0.42 0.0253 0.265 0.0985 0.378 0.1841 0.208 0.1925 0.279 0.3148c0.072 0.1222 0.118 0.2574 0.138 0.3977 0.019 0.1403 0.01 0.283-0.026 0.4199-0.036 0.137-0.098 0.2655-0.184 0.3783-0.085 0.1128-0.192 0.2077-0.315 0.2791z"/>
   <path d="m119.16 78.036-60.821 35.548c-0.1223 0.071-0.2574 0.118-0.3977 0.137-0.1403 0.02-0.283 0.011-0.4199-0.025-0.137-0.036-0.2656-0.098-0.3784-0.184s-0.2076-0.193-0.279-0.315c-0.0715-0.122-0.1182-0.257-0.1374-0.398-0.0192-0.14-0.0106-0.283 0.0253-0.42 0.0359-0.136 0.0985-0.265 0.1841-0.378s0.1925-0.207 0.3148-0.279l60.821-35.548c0.123-0.0714 0.258-0.1181 0.398-0.1373s0.283-0.0107 0.42 0.0253c0.137 0.0359 0.265 0.0984 0.378 0.184s0.208 0.1926 0.279 0.3149c0.072 0.1222 0.118 0.2574 0.138 0.3976 0.019 0.1403 0.01 0.283-0.026 0.42-0.035 0.137-0.098 0.2655-0.184 0.3783-0.085 0.1128-0.192 0.2077-0.314 0.2791z"/>
  </g>
  <path d="m99.496 103c0.8454-0.995 1.6054-2.059 2.2734-3.1806 0.6-1.0117 1.188-2.0934 1.32-3.2799 0.068-0.5052 0.015-1.0193-0.154-1.5003-0.168-0.4811-0.448-0.9156-0.816-1.2682-0.356-0.328-0.807-0.5343-1.288-0.5889-0.48-0.0547-0.9662 0.0451-1.3865 0.2849-0.4254 0.2441-0.7768 0.5987-1.0171 1.0263s-0.3605 0.9121-0.3479 1.4024c0.0345 0.5399 0.1905 1.0649 0.4563 1.5361 0.2657 0.4711 0.6344 0.8762 1.0786 1.1849 1.7976 1.3025 4.6056 1.2344 6.5216 0.2433 2.158-1.1164 3.273-4.0373 1.577-6.0368-0.352-0.4158-0.939 0.0489-0.851 0.4975 0.112 0.606 0.452 1.1463 0.949 1.5106s1.114 0.525 1.725 0.4495c0.612-0.0756 1.172-0.3819 1.565-0.8562s0.591-1.0809 0.552-1.696l-0.762 0.4455c0.934 0.414 1.961 0.5745 2.978 0.4655 1.016-0.109 1.985-0.4838 2.811-1.0865 0.408-0.2966 0.773-0.6491 1.083-1.047 0.373-0.4867 1-0.8012 1.507-1.1519l3.658-2.5269c0.538-0.3717 0.026-1.2575-0.516-0.8828l-3.312 2.2886c-0.552 0.3814-1.108 0.7581-1.657 1.1443-0.392 0.2761-0.633 0.7218-0.99 1.0497-0.675 0.6077-1.51 1.0108-2.406 1.1624-0.896 0.1515-1.816 0.0453-2.654-0.3064-0.078-0.042-0.166-0.0632-0.255-0.0616-0.088 0.0016-0.175 0.0259-0.251 0.0706-0.077 0.0447-0.141 0.1084-0.185 0.1848-0.045 0.0764-0.07 0.1631-0.072 0.2517 0.041 0.367-0.065 0.735-0.295 1.024s-0.565 0.4756-0.931 0.519c-0.367 0.0434-0.736-0.0598-1.027-0.2871s-0.48-0.5604-0.526-0.9266l-0.852 0.4975c1.094 1.2898 0.366 3.2681-0.894 4.1336-1.409 0.9679-3.492 1.1359-5.08 0.5343-0.39-0.1341-0.748-0.3471-1.0515-0.6257-0.3036-0.2786-0.5466-0.6168-0.7136-0.9936-0.1549-0.3403-0.1991-0.7206-0.1263-1.0873 0.0727-0.3668 0.2586-0.7014 0.5316-0.9569 0.2366-0.2337 0.5548-0.3663 0.8868-0.3699 0.333-0.0035 0.654 0.1223 0.895 0.3509 0.263 0.2685 0.456 0.5976 0.562 0.9582 0.106 0.3607 0.122 0.7418 0.046 1.11-0.164 1.0243-0.731 1.9689-1.257 2.8438-0.602 0.9972-1.2821 1.9442-2.0346 2.8332-0.4217 0.499 0.306 1.218 0.7322 0.714z" fill="#006753"/>
  <path d="m108.57 127.31c0.088 0.091 0.169 0.188 0.242 0.292l11.326-0.278 1.321-2.414 3.904 1.518-1.923 4.501c-0.156 0.364-0.425 0.667-0.768 0.865-0.342 0.198-0.739 0.279-1.132 0.232l-12.796-1.546c-0.302 0.382-0.713 0.663-1.178 0.806-0.466 0.143-0.964 0.14-1.428-7e-3s-0.873-0.432-1.171-0.817-0.472-0.851-0.499-1.337c-0.027-0.487 0.095-0.969 0.35-1.385 0.254-0.415 0.629-0.743 1.074-0.94 0.446-0.197 0.94-0.253 1.419-0.162 0.478 0.091 0.917 0.325 1.259 0.672z" fill="#FFB7B7"/>
  <path d="m145.49 196.09h-3.724l-1.771-14.364h5.496l-1e-3 14.364z" fill="#FFB7B7"/>
  <path d="m146.44 199.7h-12.007v-0.152c0-1.24 0.492-2.428 1.369-3.305 0.876-0.876 2.065-1.369 3.304-1.369h7.334v4.826z" fill="#2F2E41"/>
  <path d="m111.68 196.01-3.424-1.463 4.013-13.905 5.054 2.159-5.643 13.209z" fill="#FFB7B7"/>
  <path d="m111.13 199.7-11.043-4.717 0.06-0.14c0.487-1.14 1.407-2.039 2.557-2.501s2.437-0.448 3.577 0.039l6.744 2.881-1.895 4.438z" fill="#2F2E41"/>
  <path d="m127.39 130.42-0.269 4.364 7.871 0.842 8.237 0.882-2.425-6.627-13.414 0.539z" fill="#FFB7B7"/>
  <path d="m126.88 134.84-3.058-21.318 5.301-1.737 1.556-2.135 7.576 0.448 1.112 2.492 4.04 1.908-0.621 11.529 0.453 9.645-16.359-0.832z" fill="#D5B26B"/>
  <path d="m124.95 129.13-5.391-2.157 0.023-0.096c0.023-0.097 2.317-9.685 2.622-11.226 0.317-1.606 1.477-2.049 1.526-2.067l0.036-0.014 2.134 0.65 0.937 7.362-1.887 7.548z" fill="#D5B26B"/>
  <path d="m114.45 193.49-7.177-1.472 11.471-31.651 3.925-10.795s2.49-8.656 3.615-12.005l0.679-4.495 16.07 1.779s4.489 6.592 3.125 17.336l0.617 40.383-7.177 0.368-6.011-40.728-10.55 22.327s-3.325 9.527-5.704 11.592l-2.883 7.361z" fill="#2F2E41"/>
  <path d="m136.59 136.35c0.126-3e-3 0.253 4e-3 0.378 0.021l7.497-8.494-0.872-2.61 3.768-1.831 1.993 4.471c0.161 0.361 0.2 0.765 0.112 1.15-0.088 0.386-0.298 0.733-0.6 0.988l-9.834 8.333c0.075 0.481 2e-3 0.973-0.21 1.412-0.211 0.438-0.552 0.802-0.975 1.042-0.424 0.241-0.91 0.346-1.395 0.303s-0.946-0.232-1.321-0.543c-0.374-0.311-0.645-0.729-0.777-1.198-0.131-0.469-0.117-0.966 0.041-1.427 0.159-0.46 0.454-0.862 0.846-1.151s0.862-0.451 1.349-0.466z" fill="#FFB7B7"/>
  <path d="m143.87 128.7-3.128-7.357 1.22-5.124 1.314-1.66c0.097-0.041 0.2-0.062 0.305-0.061s0.208 0.023 0.303 0.066c0.485 0.196 0.898 0.793 1.227 1.778l2.931 8.348-4.172 4.01z" fill="#D5B26B"/>
  <path d="m127.64 106.93v-5.546c0-1.9712 0.783-3.8615 2.177-5.2552s3.284-2.1767 5.255-2.1767 3.861 0.783 5.255 2.1767 2.177 3.284 2.177 5.2552v5.546c-1e-3 0.265-0.106 0.518-0.293 0.706-0.187 0.187-0.441 0.292-0.706 0.292h-12.867c-0.264 0-0.518-0.105-0.705-0.292-0.187-0.188-0.293-0.441-0.293-0.706z" fill="#2F2E41"/>
  <path d="m133.55 107.8c3.01 0 5.449-2.439 5.449-5.449 0-3.0089-2.439-5.4483-5.449-5.4483-3.009 0-5.448 2.4394-5.448 5.4483 0 3.01 2.439 5.449 5.448 5.449z" fill="#FFB7B7"/>
  <path d="m125.88 101.83c2e-3 -1.559 0.622-3.0533 1.724-4.1554s2.597-1.7221 4.155-1.7238h1.109c1.559 0.0017 3.053 0.6217 4.155 1.7238 1.103 1.1021 1.723 2.5964 1.724 4.1554v0.111h-2.344l-0.799-2.2392-0.16 2.2392h-1.212l-0.403-1.13-0.081 1.13h-7.868v-0.111z" fill="#2F2E41"/>
  <path d="m133.01 108.55c-0.11-0.149-0.176-0.326-0.189-0.511-0.014-0.185 0.024-0.37 0.111-0.533 1.176-2.236 2.821-6.367 0.637-8.915l-0.157-0.183h6.342v9.521l-5.761 1.017c-0.059 0.01-0.118 0.015-0.177 0.016-0.157 0-0.312-0.038-0.452-0.109-0.141-0.072-0.262-0.176-0.354-0.303z" fill="#2F2E41"/>
  <path d="m59.03 192.96 3.3654 1.202 6.2408-12.408-4.9671-1.775-4.6391 12.981z" fill="#FFB7B7"/>
  <path d="m57.005 195.91 1.5586-4.361 6.6279 2.369c1.1194 0.401 2.0338 1.23 2.5427 2.305 0.5088 1.075 0.5706 2.308 0.1717 3.428l-0.0491 0.137-10.852-3.878z" fill="#2F2E41"/>
  <path d="m80.915 196.28h3.5739l1.7004-13.785h-5.2748l5e-4 13.785z" fill="#FFB7B7"/>
  <path d="m80.003 195.12 7.0384-1e-3h3e-4c0.589 0 1.1723 0.116 1.7165 0.342 0.5442 0.225 1.0387 0.555 1.4552 0.972 0.4165 0.416 0.7469 0.911 0.9723 1.455s0.3415 1.128 0.3415 1.717v0.145l-11.524 1e-3 -2e-4 -4.631z" fill="#2F2E41"/>
  <path d="m72.77 108.22 1.5543-3.071s5.7904 1.45 6.3167 4.806l-7.871-1.735z" fill="#F1F1F1"/>
  <path d="m66.356 143.33 4.2269 23.587-11.224 19.849 6.705 2.624 11.369-19.241 1.4576-5.247 0.8744 27.403 6.0471-0.184 2.7723-25.587-4.4467-23.787-17.782 0.583z" fill="#2F2E41"/>
  <path d="m74.38 148.91c-6.2097 0-10.152-1.188-10.241-1.207l-0.143-0.03 3.2344-14.996 0.1456-13.832c0-5.862 3.8579-10.184 4.3933-10.582 0.0901-0.356 0.2568-0.688 0.4885-0.973 0.2316-0.285 0.5227-0.515 0.8527-0.676 1.2869-0.584 2.8594 0.117 2.9256 0.147l4.7199 1.77 0.0222 0.065c0.0568 0.168 6.2736 20.577 6.2736 20.577s-0.3763 17.832-0.5074 18.416c0 0-8.7146 1.321-12.165 1.321z" fill="#3F3D56"/>
  <path d="m79.151 104.18c3.5232 0 6.3793-2.857 6.3793-6.3798 0-3.5231-2.8561-6.3792-6.3793-6.3792-3.5231 0-6.3792 2.8561-6.3792 6.3792 0 3.5228 2.8561 6.3798 6.3792 6.3798z" fill="#FFB7B7"/>
  <path d="m72.039 119.98 11.16 15.571 1.6481-7.271-12.809-8.3z" fill="#000" opacity=".2"/>
  <path d="m107.03 130.57c-0.314 0.248-0.678 0.425-1.068 0.517-0.389 0.092-0.794 0.098-1.186 0.016-0.392-0.081-0.761-0.247-1.082-0.486-0.321-0.24-0.585-0.547-0.774-0.899l-9.6065 1.537 2.0811-4.607 8.8034-0.754c0.613-0.278 1.308-0.323 1.951-0.124 0.644 0.199 1.192 0.628 1.542 1.204 0.349 0.576 0.474 1.261 0.353 1.923-0.122 0.663-0.483 1.258-1.014 1.673z" fill="#FFB7B7"/>
  <path d="m95.889 126.39 3.4516-0.339 0.9567 4.815-4.3435 0.077-0.0648-4.553z" fill="#F1F1F1"/>
  <path d="m98.718 132.54-16.904-1.505-8.5357-13.575-0.0263-0.12c-0.2422-1.109-0.0726-2.268 0.4772-3.261 0.5499-0.993 1.4423-1.752 2.5107-2.135 1.0685-0.384 2.2398-0.365 3.2955 0.052 1.0556 0.418 1.9233 1.205 2.4411 2.215l5.0106 9.774 10.112 1.528 1.6189 7.027z" fill="#3F3D56"/>
  <path d="m73.718 103.34 5.2948 0.19c0.3228 0.012 1.1987-3.472 1.3134-4.1942 0.0906-0.4704 0.3494-0.8917 0.7279-1.1853 0.3786-0.2936 0.8511-0.4394 1.3293-0.41 0.3963 0.0374 1.3958-0.7031 2.4271-1.5799 1.958-1.6646 1.8562-4.7911-0.2947-6.1977-0.0588-0.0384-0.1165-0.0735-0.1731-0.1053-1.3569-0.7595-2.9442-1.0145-4.499-1.0339-1.4095-0.0177-2.859 0.1597-4.1008 0.8269-2.2262 1.196-3.4109 3.8098-3.515 6.3348s0.7054 4.9936 1.624 7.3486" fill="#2F2E41"/>
  <path d="m206.45 200h-206.17c-0.073535 0-0.14406-0.029-0.19605-0.081-0.051996-0.052-0.081208-0.123-0.081208-0.196 0-0.074 0.029211-0.144 0.081208-0.196 0.051996-0.052 0.12252-0.081 0.19605-0.081h206.28c0.074 0 0.144 0.029 0.196 0.081s0.081 0.122 0.081 0.196c0 0.153-0.234 0.277-0.387 0.277z" fill="#CBCBCB"/>
 </g>
 <defs>
  <clipPath id="clip0_198_4273">
   <rect width="206.84" height="200" fill="#fff"/>
  </clipPath>
 </defs>
</svg>
