<svg fill="none" save-fill="" version="1.1" viewBox="0 0 352 200" xmlns="http://www.w3.org/2000/svg">
 <g clip-path="url(#clip0_198_3949)">
  <path d="m351.32 132.23c0.019 10.163-2.756 20.137-8.021 28.83 0 10.632-4.957 20.269-12.997 27.292-2.012 1.758-4.178 3.332-6.473 4.701-0.092 0.059-0.187 0.114-0.283 0.169-0.172 0.102-0.344 0.203-0.519 0.307l-0.162 0.096c-7.611 4.241-16.188 6.443-24.9 6.393h-231.27c-15.948 0-30.384-5.552-40.844-14.525-10.46-8.974-16.906-21.393-16.906-35.089-5.8571-9.019-8.9642-19.547-8.9427-30.301 0-30.446 24.334-55.127 54.356-55.127 1.0625 0 2.1159 0.0368 3.1631 0.0952 18.837-32.122 61.328-54.522 110.69-54.522 30.348 0 58.088 8.4605 79.336 22.44 8.049-4.55 17.14-6.936 26.386-6.9251 30.015 0 54.356 24.681 54.356 55.127-5e-3 1.9264-0.107 3.8513-0.307 5.7673 7.235 5.1218 13.133 11.908 17.195 19.787 4.062 7.88 6.169 16.62 6.144 25.485z" fill="#BCBCBC" opacity=".1"/>
  <path d="m126.83 149.64c66.485 0 120.38-1.444 120.38-3.224 0-1.781-53.897-3.225-120.38-3.225-66.485 0-120.38 1.444-120.38 3.225 0 1.78 53.897 3.224 120.38 3.224z" fill="#006753" opacity=".1"/>
  <g opacity=".7">
   <path d="m81.995 122.61h-38.387v21.189h38.387v-21.189z" fill="#65617D" opacity=".7"/>
   <path d="m68.79 126.3h-11.67v2.457h11.67v-2.457z" fill="#000" opacity=".1"/>
   <path d="m67.331 126.6h-8.7523v1.842h8.7523v-1.842z" fill="#000" opacity=".1"/>
   <path d="m121 122.61h-38.387v21.189h38.387v-21.189z" fill="#65617D" opacity=".7"/>
   <path d="m107.79 126.3h-11.669v2.457h11.669v-2.457z" fill="#000" opacity=".1"/>
   <path d="m106.33 126.6h-8.7519v1.842h8.7519v-1.842z" fill="#000" opacity=".1"/>
   <path d="m81.995 100.81h-38.387v21.189h38.387v-21.189z" fill="#65617D" opacity=".7"/>
   <path d="m68.79 104.49h-11.67v2.457h11.67v-2.457z" fill="#000" opacity=".1"/>
   <path d="m67.331 104.8h-8.7523v1.843h8.7523v-1.843z" fill="#000" opacity=".1"/>
   <path d="m121 100.81h-38.387v21.189h38.387v-21.189z" fill="#65617D" opacity=".7"/>
   <path d="m107.79 104.49h-11.669v2.457h11.669v-2.457z" fill="#000" opacity=".1"/>
   <path d="m106.33 104.8h-8.7519v1.843h8.7519v-1.843z" fill="#000" opacity=".1"/>
   <path d="m81.995 78.697h-38.387v21.19h38.387v-21.19z" fill="#65617D" opacity=".7"/>
   <path d="m68.79 82.382h-11.67v2.4568h11.67v-2.4568z" fill="#000" opacity=".1"/>
   <path d="m67.331 82.689h-8.7523v1.8425h8.7523v-1.8425z" fill="#000" opacity=".1"/>
   <path d="m121 78.697h-38.387v21.19h38.387v-21.19z" fill="#65617D" opacity=".7"/>
   <path d="m107.79 82.382h-11.669v2.4568h11.669v-2.4568z" fill="#000" opacity=".1"/>
   <path d="m106.33 82.689h-8.7519v1.8425h8.7519v-1.8425z" fill="#000" opacity=".1"/>
   <path d="m121 56.586h-38.387v21.19h38.387v-21.19z" fill="#65617D" opacity=".7"/>
   <path d="m107.79 60.271h-11.669v2.4567h11.669v-2.4567z" fill="#000" opacity=".1"/>
   <path d="m106.33 60.578h-8.7519v1.8426h8.7519v-1.8426z" fill="#000" opacity=".1"/>
  </g>
  <g opacity=".7">
   <path d="m160 122.3h-38.387v21.19h38.387v-21.19z" fill="#65617D" opacity=".7"/>
   <path d="m146.79 125.99h-11.669v2.456h11.669v-2.456z" fill="#000" opacity=".1"/>
   <path d="m145.33 126.3h-8.752v1.842h8.752v-1.842z" fill="#000" opacity=".1"/>
   <path d="m199 122.3h-38.387v21.19h38.387v-21.19z" fill="#65617D" opacity=".7"/>
   <path d="m185.79 125.99h-11.67v2.456h11.67v-2.456z" fill="#000" opacity=".1"/>
   <path d="m184.34 126.3h-8.752v1.842h8.752v-1.842z" fill="#000" opacity=".1"/>
   <path d="m160 100.5h-38.387v21.189h38.387v-21.189z" fill="#65617D" opacity=".7"/>
   <path d="m146.79 104.19h-11.669v2.456h11.669v-2.456z" fill="#000" opacity=".1"/>
   <path d="m145.33 104.49h-8.752v1.842h8.752v-1.842z" fill="#000" opacity=".1"/>
   <path d="m199 100.5h-38.387v21.189h38.387v-21.189z" fill="#65617D" opacity=".7"/>
   <path d="m185.79 104.19h-11.67v2.456h11.67v-2.456z" fill="#000" opacity=".1"/>
   <path d="m184.34 104.49h-8.752v1.842h8.752v-1.842z" fill="#000" opacity=".1"/>
   <path d="m160 78.39h-38.387v21.19h38.387v-21.19z" fill="#65617D" opacity=".7"/>
   <path d="m146.79 82.075h-11.669v2.4568h11.669v-2.4568z" fill="#000" opacity=".1"/>
   <path d="m145.33 82.382h-8.752v1.8426h8.752v-1.8426z" fill="#000" opacity=".1"/>
   <path d="m199 78.39h-38.387v21.19h38.387v-21.19z" fill="#65617D" opacity=".7"/>
   <path d="m185.79 82.075h-11.67v2.4568h11.67v-2.4568z" fill="#000" opacity=".1"/>
   <path d="m184.34 82.382h-8.752v1.8426h8.752v-1.8426z" fill="#000" opacity=".1"/>
   <path d="m199 56.279h-38.387v21.19h38.387v-21.19z" fill="#65617D" opacity=".7"/>
   <path d="m185.79 59.964h-11.67v2.4568h11.67v-2.4568z" fill="#000" opacity=".1"/>
   <path d="m184.34 60.271h-8.752v1.8426h8.752v-1.8426z" fill="#000" opacity=".1"/>
  </g>
  <g fill="#006753">
   <path d="m269.72 0.03379s-25.855-1.5601-22.815 16.559c0 0-0.614 3.203 2.297 4.6555 0 0 0.046-1.342 2.654-0.8844 0.928 0.1539 1.871 0.1992 2.81 0.1351 1.268-0.0875 2.473-0.5856 3.433-1.4188 0 0 7.269-3.0034 10.094-14.882 0 0 2.092-2.5919 2.009-3.2583l-4.364 1.8641s1.492 3.1478 0.307 5.7642c0 0-0.141-5.6506-0.98-5.5278-0.169 0.02764-2.266 1.0902-2.266 1.0902s2.564 5.4817 0.629 9.4678c0 0 0.734-6.7562-1.431-9.0717l-3.071 1.7934s2.998 5.6628 0.965 10.285c0 0 0.522-7.0878-1.613-9.8486l-2.782 2.1712s2.816 5.583 1.1 9.4156c0 0-0.225-8.2517-1.702-8.8751 0 0-2.435 2.1497-2.807 3.028 0 0 1.929 4.0537 0.731 6.1911 0 0-0.734-5.4971-1.336-5.5278 0 0-2.426 3.6422-2.678 6.142 0 0 0.105-3.7159 2.092-6.489 0 0-2.346 0.4023-3.716 1.9255 0 0 0.378-2.5765 4.315-2.8007 0 0 2.005-2.7639 2.539-2.9328 0 0-3.912-0.32552-6.286 0.72475 0 0 2.088-2.4291 7.005-1.3236l2.748-2.2449s-5.153-0.70325-7.339 0.07371c0 0 2.515-2.1497 8.08-0.58042l2.997-1.775s-4.395-0.94586-7.011-0.61419c0 0 2.764-1.4894 7.889 0.12591l2.15-0.96121s-3.219-0.63262-4.161-0.73397c-0.943-0.10134-0.992-0.3593-0.992-0.3593 2.039-0.34 4.132-0.10717 6.046 0.67254 0 0 4.539-1.689 4.46-1.9746z" opacity=".1"/>
   <path d="m237.83 4.6433s-11.669-0.70633-10.303 7.484c0 0-0.273 1.4464 1.035 2.1036 0 0 0.022-0.6142 1.201-0.4023 0.419 0.0705 0.845 0.0911 1.268 0.0614 0.573-0.0389 1.118-0.2643 1.551-0.6418 0 0 3.286-1.3543 4.564-6.7224 0 0 0.942-1.1731 0.906-1.4741l-1.972 0.84144s0.676 1.4249 0.144 2.6073c0 0-0.064-2.5551-0.442-2.4936-0.077 0-1.026 0.49136-1.026 0.49136s1.161 2.4783 0.286 4.2809c0 0 0.332-3.0525-0.648-4.0997l-1.388 0.81073s1.357 2.5581 0.436 4.6464c0 0 0.236-3.203-0.728-4.4498l-1.256 0.97964s1.272 2.5243 0.498 4.2564c0 0-0.102-3.7313-0.771-4.0107 0 0-1.1 0.97043-1.269 1.3696 0 0 0.873 1.8426 0.332 2.7946 0 0-0.331-2.4844-0.614-2.4936 0 0-1.093 1.646-1.21 2.7639 0.055-1.0433 0.381-2.0542 0.946-2.9328-0.633 0.1198-1.217 0.4219-1.68 0.8691 0 0 0.172-1.1609 1.95-1.2653 0 0 0.921-1.2468 1.149-1.3236 0 0-1.769-0.1474-2.841 0.3286 0 0 0.943-1.0994 3.166-0.59884l1.229-1.0134s-2.328-0.3071-3.317 0.03378c0 0 1.136-0.97043 3.651-0.2641l1.352-0.80767s-1.984-0.42994-3.17-0.27332c0 0 1.25-0.67561 3.566 0.05528l0.967-0.433s-1.456-0.28868-1.882-0.33167c-0.427-0.04299-0.449-0.16276-0.449-0.16276 0.922-0.15336 1.868-0.04703 2.733 0.3071 0 0 2.073-0.7616 2.036-0.89058z" opacity=".1"/>
   <path d="m68.848 198c6.8198 0 12.348-0.935 12.348-2.088 0-1.154-5.5286-2.089-12.348-2.089s-12.348 0.935-12.348 2.089c0 1.153 5.5286 2.088 12.348 2.088z"/>
  </g>
  <path d="m73.955 192.5c0.5638-0.459 0.9741-1.08 1.1762-1.778 0.1535-0.704-0.1474-1.536-0.823-1.809-0.7555-0.289-1.5632 0.236-2.1743 0.765-0.6111 0.528-1.3144 1.133-2.1128 1.019 0.4115-0.374 0.7193-0.848 0.8936-1.375 0.1744-0.528 0.2093-1.092 0.1014-1.638-0.035-0.225-0.1305-0.438-0.2764-0.614-0.4207-0.448-1.1793-0.258-1.6829 0.095-1.5969 1.124-2.0422 3.296-2.0514 5.246-0.1597-0.704-0.0246-1.438-0.0276-2.15-0.0031-0.712-0.2027-1.535-0.8139-1.913-0.3768-0.203-0.8006-0.303-1.2283-0.289-0.7156-0.028-1.5171 0.046-2.0054 0.571-0.6142 0.651-0.4514 1.745 0.0768 2.457 0.5282 0.713 1.3359 1.17 2.079 1.665 0.5945 0.354 1.1015 0.838 1.4833 1.415 0.046 0.081 0.0831 0.166 0.1106 0.255h4.502c1.0069-0.513 1.9397-1.159 2.7731-1.922z" fill="#D5B26B"/>
  <path d="m220.3 105.03c-0.025-0.232-0.108-0.455-0.242-0.647s-0.313-0.348-0.523-0.452c-0.176-0.075-0.365-0.114-0.557-0.114-0.192-1e-3 -0.381 0.037-0.558 0.112-0.176 0.074-0.336 0.184-0.469 0.321-0.134 0.138-0.238 0.301-0.307 0.479l-6.821 14.351-1.535 56.506h2.456l0.922-56.38 7.505-13.285c0.136-0.276 0.181-0.588 0.129-0.891z" fill="#3F3D56"/>
  <path d="m330.3 188.35c-2.012 1.758-4.179 3.332-6.473 4.701-0.036 0.051-0.076 0.098-0.12 0.142-0.244 0.206-0.533 0.352-0.845 0.423-7.61 4.242-16.187 6.444-24.899 6.394h-168.85c-19.347-1.99-31.152-4.628-31.152-7.524 0-2.245 7.0881-4.336 19.292-6.086 1.265-0.185 2.584-0.363 3.958-0.535 0.846-0.106 1.711-0.209 2.595-0.307l1.502-0.175c1.114-0.127 2.257-0.251 3.43-0.371h0.095l1.229-0.123c1.038-0.108 2.097-0.209 3.178-0.307l0.786-0.071 2.006-0.178c1.302-0.117 2.633-0.228 3.992-0.335 1.128-0.088 2.275-0.176 3.439-0.264 11.811-0.875 25.428-1.535 40.245-1.962l4.232-0.145 1.425-0.03 3.01-0.068 1.207-0.024 1.268-0.025 0.903-0.015 4.238-0.068 2.177-0.031h0.445c5.149-0.061 10.395-0.093 15.736-0.095 10.558 0 20.797 0.126 30.553 0.366 5.602 0.135 11.032 0.307 16.292 0.516h0.049c15.164 0.595 28.738 1.474 39.971 2.564l0.206 0.021c2.884 0.28 5.614 0.578 8.175 0.885 2.411 0.288 4.674 0.592 6.775 0.903 0.728 0.107 1.434 0.218 2.122 0.325l0.175 0.031c2.911 0.47 5.466 0.949 7.631 1.468z" fill="#006753" opacity=".1"/>
  <path d="m323.83 193.05c-0.035 0.051-0.075 0.098-0.119 0.142-0.244 0.206-0.534 0.352-0.845 0.423-0.621 0.175-1.26 0.278-1.904 0.308h-0.193c-0.368 0.012-0.736-1e-3 -1.103-0.037-0.267-0.039-0.537-0.057-0.807-0.053h-0.037c-0.393 0.056-0.779 0.151-1.152 0.286-0.831 0.228-1.687 0.35-2.549 0.362h-0.307c-0.964 0-1.941-0.033-2.908-0.027h-0.47c-1.658 0.043-3.307 0.307-4.966 0.335h-0.531c-1.625-0.04-3.286-0.387-4.579-1.37-0.261-0.173-0.472-0.41-0.614-0.688-0.11-0.294-0.147-0.61-0.108-0.921 0.031-0.556 0.139-1.161 0.556-1.536 0.263-0.201 0.564-0.346 0.885-0.427 0.562-0.181 1.127-0.356 1.689-0.531s1.204-0.362 1.809-0.54l0.116-0.037 0.338-0.102 0.218-0.073c0.264-0.085 0.518-0.201 0.756-0.344 0.313-0.199 0.578-0.464 0.777-0.777 0.033-0.056 0.07-0.114 0.101-0.172 0.031-0.059 0-0.095-0.022-0.145-0.052-0.383-0.092-0.776-0.159-1.151-0.865-0.201-1.653-0.646-2.27-1.284-0.53-0.525-0.976-1.129-1.323-1.79-0.765-1.437-1.158-3.044-1.729-4.57-0.875-2.321-2.15-4.465-3.434-6.59-1.173-1.959-2.352-3.925-3.685-5.777-0.887-1.228-1.842-2.398-2.721-3.629-2.484-3.437-4.267-7.329-5.245-11.455-0.15-0.792-0.362-1.57-0.636-2.328-0.528-1.29-1.495-2.34-2.244-3.519-0.806-1.271-1.358-2.687-1.625-4.168-0.154-0.841-0.411-1.75-1.25-1.842l-0.089 0.175c-1.738 3.378-3.522 6.817-6.142 9.575-0.419 0.405-0.802 0.846-1.145 1.318-0.276 0.456-0.522 0.93-0.737 1.418-0.415 0.877-0.965 1.682-1.631 2.386-0.198 0.201-0.414 0.383-0.645 0.544-0.307 0.223-0.648 0.394-1.01 0.507-0.143 0.043-0.289 0.076-0.436 0.098 0 0.037 0.015 0.071 0.018 0.108 3e-3 0.036 0.018 0.079 0.025 0.119 0.451 2.457 0.258 4.989-0.562 7.349-0.022 0.074-0.046 0.144-0.074 0.218-0.127 0.344-0.265 0.682-0.415 1.014-0.374 0.813-0.82 1.593-1.17 2.419-0.058 0.142-0.116 0.283-0.169 0.424-1.228 3.289-0.921 6.962-1.081 10.497-0.014 0.773-0.105 1.542-0.273 2.297-0.209 0.851-0.543 1.729-0.728 2.607-0.168 0.659-0.181 1.347-0.04 2.012l-0.073 0.027c-0.329 0.123-0.664 0.234-0.998 0.338v0.046c0.119 0.688 0.236 1.376 0.356 2.061 0.101 0.589 0.221 1.228 0.632 1.646 0.112 0.092 0.215 0.195 0.308 0.307 0.242 0.381 0.027 0.884 0.073 1.336 0.068 0.639 0.657 1.182 0.565 1.818-0.041 0.19-0.128 0.367-0.254 0.516-0.125 0.148-0.284 0.264-0.464 0.338-0.152 0.068-0.31 0.119-0.473 0.15l-0.102 0.022c-0.184 0.033-0.368 0.052-0.552 0.07-2.288 0.227-4.607 0.455-6.873 0.068-0.449-0.077-0.894-0.178-1.348-0.215-0.575-0.026-1.15-2e-3 -1.72 0.07-4.204 0.398-8.433 0.481-12.649 0.246-1.097-0.061-2.356-0.239-2.936-1.176-0.482-0.777-0.307-1.781-0.065-2.669 0.07-0.326 0.195-0.638 0.372-0.921 0.02-0.031 0.042-0.06 0.067-0.086 0.565-0.703 1.628-0.746 2.543-0.719l2.991 0.089c0.295 0.024 0.591 1e-3 0.879-0.067 0.485-0.141 0.853-0.528 1.308-0.746 0.571-0.274 1.29-0.308 1.701-0.774l0.052-0.068c0.073-0.099 0.141-0.201 0.203-0.307 0-0.021 0.028-0.043 0.043-0.064 0.011-0.02 0.024-0.038 0.037-0.056 0.378-0.497 1.038-0.663 1.575-0.979 0.082-0.048 0.159-0.102 0.231-0.163l0.061-0.055c-0.579-0.413-1.083-0.921-1.492-1.502-0.158-0.17-0.275-0.374-0.341-0.596-0.038-0.167-0.025-0.341 0.036-0.5 0.014-0.04 0.03-0.078 0.05-0.114l0.015-0.031c0.209-0.411 0.639-0.783 0.875-1.204 9e-3 -0.013 0.016-0.027 0.022-0.043 0.325-0.614 0.39-1.566-0.092-2.06 0.245-4.045 1.357-7.985 1.603-12.041 0.098-1.607 0.058-3.219 0.132-4.831 0.073-1.612 0.245-3.175 0.427-4.757 0.405-3.615 1.388-7.155 1.249-10.785-0.011-0.339 3e-3 -0.678 0.043-1.014-1e-3 -0.024-1e-3 -0.049 0-0.073 0.099-0.744 0.331-1.464 0.685-2.126 0.445-0.747 0.95-1.458 1.508-2.125 1.889-2.456 4.158-4.913 4.831-7.935 0.347-1.56 1.114-2.988 1.879-4.392 0.452-0.835 0.921-1.692 1.643-2.306 0.391-0.27 0.754-0.579 1.084-0.921 0.504-0.651 0.522-1.551 0.82-2.325 0.154-0.402 0.39-0.771 0.507-1.185 0-0.043 0.021-0.083 0.031-0.126 0.068-0.419 0.104-0.842 0.107-1.265 0-0.123 0.018-0.243 0.034-0.363 0.179-1.214 0.532-2.396 1.047-3.51 0.064-0.141 0.126-0.285 0.187-0.427-1.417-0.826-2.666-1.911-3.685-3.197-0.345-0.416-0.645-0.868-0.893-1.348-0.633-1.256-0.777-2.687-1.075-4.063-0.713-3.279-2.343-6.369-2.571-9.7223-0.067-1.0227 0-2.0791-0.356-3.0464-0.098-0.2616-0.214-0.516-0.347-0.7616-0.055-0.1045-0.107-0.2089-0.163-0.3071l-0.061-0.1167-0.157-0.3071-0.252 0.1965c-6.282 4.9194-12.878 9.4247-19.746 13.488l-0.59 0.35c-0.307 0.148-0.574 0.367-0.78 0.639-0.024 0.04-0.046 0.08-0.067 0.12-0.141 0.291-0.178 0.614-0.307 0.921-0.277 0.703-0.986 1.152-1.711 1.36-1.311 0.338-2.702 0.158-3.885-0.5-0.15-0.077-0.307-0.157-0.442-0.246-0.359 0.199-0.738 0.361-1.13 0.482-1.228 0.356-2.515 0.341-3.786 0.338-1.272-3e-3 -2.571 0-3.775 0.418-0.804 0.273-1.584 0.724-2.42 0.767-0.096 7e-3 -0.192 7e-3 -0.288 0-0.476-0.054-0.94-0.19-1.37-0.402l-0.252-0.113c-0.13-0.062-0.257-0.131-0.38-0.206-0.135-0.083-0.26-0.181-0.372-0.292-0.163-0.163-0.281-0.365-0.344-0.587-0.042-0.16-0.042-0.328 0-0.488 0.012-0.072 0.049-0.137 0.104-0.184 0.055-0.032 0.118-0.048 0.182-0.046 0.352-4e-3 0.703 0.026 1.05 0.089 0.203 0.028 0.409 0.039 0.614 0.034h0.111c0.181-0.02 0.356-0.076 0.514-0.166 0.159-0.09 0.297-0.211 0.407-0.356 0.034-0.045 0.06-0.095 0.08-0.148 0.037-0.086 0.056-0.179 0.055-0.273 2e-3 -0.024 2e-3 -0.047 0-0.071-0.129-0.058-0.258-0.116-0.381-0.187-0.064-0.034-0.126-0.071-0.187-0.108l-0.037-0.024c-0.11-0.075-0.213-0.16-0.307-0.255-0.06-0.059-0.112-0.125-0.157-0.197-0.081-0.111-0.143-0.236-0.181-0.368-0.253-0.053-0.515-0.046-0.765 0.021-0.334 0.093-0.672 0.289-1.004 0.357-0.167 0.042-0.343 0.034-0.506-0.022-0.48-0.172-0.648-0.755-0.75-1.256-0.018-0.095-0.04-0.193-0.055-0.292-0.035-0.188-0.035-0.382 0-0.571 0.148-0.429 0.432-0.798 0.808-1.053l1.007-0.845 0.074-0.061c0-0.083-0.034-0.166-0.046-0.249-0.036-0.19-0.036-0.384 0-0.574 0.148-0.428 0.431-0.797 0.807-1.05l2.23-1.8767c0.417-0.3501 0.872-0.7186 1.415-0.7555 0.808-0.0552 1.453 0.6142 2.058 1.1516 0.762 0.6756 1.686 1.2286 2.702 1.2956 0.484 0.023 0.968-0.044 1.428-0.196l0.261-0.086c-0.055-0.114-0.11-0.227-0.162-0.341-0.089-0.187-0.178-0.3777-0.264-0.5681 1.308-0.083 2.496-0.8016 3.488-1.6614 0.992-0.8599 1.843-1.8764 2.844-2.7209 1.081-0.9213 2.322-1.6061 3.418-2.4936 2.549-2.0668 4.241-5.104 6.968-6.9251 0.946-0.6357 2.039-1.1424 2.684-2.0882 0.2-0.3071 0.35-0.6142 0.556-0.9213 0.654-0.9213 1.775-1.3451 2.699-1.9839 0.925-0.6387 1.729-1.5754 2.482-2.4752 0.534-0.6418 1.071-1.2836 1.581-1.9439 0.47-0.8752 0.866-1.7904 1.357-2.6533 0.417-0.729 0.904-1.416 1.453-2.0514 0.126-0.2457 0.255-0.4914 0.393-0.7309 0.138-0.2396 0.24-0.4023 0.369-0.6142 0.089-0.1382 0.181-0.2702 0.276-0.4054-0.279-0.4944-0.547-0.9213-0.672-1.1086l-0.062-0.0829c-0.271-0.2886-0.56-0.5594-0.866-0.8107-0.321-0.0487-0.639-0.1164-0.952-0.2027-1.895-0.5195-3.567-1.6477-4.758-3.211s-1.835-3.4747-1.832-5.44c-2e-3 -0.0091-2e-3 -0.0184 0-0.0276 1e-3 -1.4074 0.336-2.7945 0.976-4.0475 0.129-0.2519 0.267-0.4945 0.418-0.7309-0.14-0.0443-0.277-0.0998-0.408-0.1659-0.225-0.1104-0.42-0.2712-0.572-0.4698-0.125-0.1769-0.206-0.3812-0.236-0.5958-0.052-0.5061 0.024-1.0172 0.221-1.4863 0.084-0.2259 0.179-0.4473 0.286-0.6634 8e-3 -0.0126 0.015-0.026 0.021-0.0399 1.373-2.7639 4.299-4.4621 7.223-4.5819 3.154-0.1259 6.225 1.3543 8.712 3.4733 0.743 0.609 1.407 1.3073 1.978 2.079 1.299 1.8058 1.886 4.1151 2.058 6.403 0.064 0.7076 0.052 1.4202-0.037 2.1251-0.033 0.2512-0.084 0.4997-0.154 0.7432-0.04 0.1443-0.092 0.2887-0.147 0.433s-0.089 0.2088-0.138 0.3071v0.0154c-0.046 0.0982-0.099 0.1904-0.151 0.2825l-0.028 0.0399-0.039 0.0645c0.024 0.0584 0.052 0.1198 0.079 0.1781 0.028 0.0584 0.053 0.1136 0.083 0.1689h0.037c0.614 0.0492 1.183 0.1351 1.809 0.1843 0.295 0.014 0.587 0.0593 0.872 0.1351 0.614 0.1843 1.078 0.6326 1.594 0.995 1.278 0.9029 2.85 1.3236 4.106 2.2572 1.842 1.3758 2.764 3.6483 3.882 5.6843 1.474 2.727 3.875 5.0487 4.935 7.9661 0.479 1.3246 0.96 2.6472 1.443 3.9677 0.943 2.5888 1.886 5.1899 3.166 7.6314 1.781 3.3965 4.192 6.449 5.62 10.018 0.142 0.357 0.408 0.652 0.749 0.829 1.946 2.748 3.676 5.642 5.175 8.657 0.789 1.594 1.535 3.249 1.766 5.015 0.179 1.572 0.049 3.164-0.384 4.686-0.245 0.904-0.546 1.793-0.9 2.66-0.138 0.303-0.241 0.622-0.307 0.949v0.101c-0.061 0.59 0.163 1.173 0.224 1.763 0.052 0.474-2e-3 0.955-0.156 1.406-0.025 0.071-0.053 0.142-0.08 0.212-0.191 0.359-0.352 0.733-0.482 1.118-0.012 0.047-0.02 0.094-0.025 0.141-0.101 0.667 0.163 1.339 0.307 2.006 0.541 2.407 0.442 4.913 0.307 7.37-0.07 1.228 0.921 2.214 1.751 3.12 1.535 1.698 2.736 3.685 3.894 5.663 0.631 1.004 1.163 2.067 1.587 3.175 0.439 1.266 0.615 2.604 0.857 3.916 0.783 4.053 3.341 7.634 4.035 11.697 0.322 1.861 1.143 3.599 2.374 5.03 0.371 0.384 0.713 0.794 1.023 1.229 0.214 0.346 0.384 0.717 0.507 1.105 0.302 0.903 0.444 1.852 0.42 2.804-0.048 0.456-0.022 0.916 0.077 1.364 0.289 0.942 1.321 1.461 1.747 2.349 0.427 0.887 0.132 2.024 0.308 3.031 0.137 0.812 0.576 1.542 1.228 2.045-0.246 0.215-0.504 0.412-0.768 0.614 0.245 0.19 0.459 0.416 0.636 0.67 0.121 0.17 0.224 0.352 0.307 0.543 0.405 0.943 0.418 2.064 0.749 3.071 0.142 0.418 0.341 0.86 0.218 1.284-0.052 0.121-0.087 0.25-0.104 0.381 0 0.276 0.289 0.457 0.399 0.709 0.04 0.127 0.047 0.262 0.019 0.392-0.028 0.129-0.09 0.25-0.179 0.348z" fill="url(#paint0_linear_198_3949)"/>
  <path d="m258.83 73.283c1.879-0.5067 3.553-1.5662 5.193-2.6134l5.715-3.6391c-1.551-0.1229-2.89-1.2284-3.685-2.5674-0.796-1.3389-1.124-2.8959-1.395-4.4252-2.456 0.9581-4.585 2.5827-6.568 4.2993-0.787 0.6787-2.457 1.7044-2.7 2.7639-0.242 1.0595 1.305 1.9194 1.904 2.6288 0.206 0.2364 2.144 3.3842 1.536 3.5531z" fill="#FBBEBE"/>
  <path d="m258.83 73.283c1.879-0.5067 3.553-1.5662 5.193-2.6134l5.715-3.6391c-1.551-0.1229-2.89-1.2284-3.685-2.5674-0.796-1.3389-1.124-2.8959-1.395-4.4252-2.456 0.9581-4.585 2.5827-6.568 4.2993-0.787 0.6787-2.457 1.7044-2.7 2.7639-0.242 1.0595 1.305 1.9194 1.904 2.6288 0.206 0.2364 2.144 3.3842 1.536 3.5531z" fill="#000" opacity=".1"/>
  <path d="m227.6 103.34c-1.007 0.516-2.079 1.044-3.206 0.971-1.013-0.065-1.938-0.615-2.699-1.287-0.615-0.534-1.247-1.201-2.055-1.146-0.54 0.037-0.995 0.403-1.413 0.75l-2.226 1.864c-0.375 0.252-0.658 0.618-0.808 1.044-0.044 0.289-0.026 0.584 0.053 0.866 0.101 0.497 0.27 1.078 0.749 1.247s1.001-0.194 1.508-0.332c0.309-0.079 0.634-0.073 0.941 0.017 0.306 0.09 0.583 0.262 0.8 0.496 0.181 0.178 0.29 0.416 0.307 0.669 0 0.556-0.614 0.922-1.179 0.949-0.565 0.028-1.106-0.156-1.665-0.122-0.033-5e-3 -0.068-2e-3 -0.1 7e-3 -0.033 9e-3 -0.064 0.025-0.09 0.046-0.027 0.021-0.049 0.047-0.065 0.077-0.017 0.03-0.027 0.063-0.03 0.097-0.035 0.194-0.02 0.393 0.043 0.58 0.062 0.187 0.171 0.355 0.316 0.488 0.292 0.267 0.632 0.475 1.001 0.615 0.43 0.212 0.893 0.347 1.37 0.399 0.943 0.061 1.809-0.461 2.702-0.765 1.204-0.405 2.5-0.417 3.771-0.414 1.272 3e-3 2.562 0.021 3.781-0.335s2.377-1.146 2.853-2.322c0.056-0.109 0.074-0.235 0.052-0.356-0.048-0.129-0.139-0.238-0.258-0.307-1.714-1.268-2.408-2.81-4.336-3.722l-0.117-0.074z" fill="#FBBEBE"/>
  <path d="m227.6 103.34c-1.007 0.516-2.079 1.044-3.206 0.971-1.013-0.065-1.938-0.615-2.699-1.287-0.615-0.534-1.247-1.201-2.055-1.146-0.54 0.037-0.995 0.403-1.413 0.75l-2.226 1.864c-0.375 0.252-0.658 0.618-0.808 1.044-0.044 0.289-0.026 0.584 0.053 0.866 0.101 0.497 0.27 1.078 0.749 1.247s1.001-0.194 1.508-0.332c0.309-0.079 0.634-0.073 0.941 0.017 0.306 0.09 0.583 0.262 0.8 0.496 0.181 0.178 0.29 0.416 0.307 0.669 0 0.556-0.614 0.922-1.179 0.949-0.565 0.028-1.106-0.156-1.665-0.122-0.033-5e-3 -0.068-2e-3 -0.1 7e-3 -0.033 9e-3 -0.064 0.025-0.09 0.046-0.027 0.021-0.049 0.047-0.065 0.077-0.017 0.03-0.027 0.063-0.03 0.097-0.035 0.194-0.02 0.393 0.043 0.58 0.062 0.187 0.171 0.355 0.316 0.488 0.292 0.267 0.632 0.475 1.001 0.615 0.43 0.212 0.893 0.347 1.37 0.399 0.943 0.061 1.809-0.461 2.702-0.765 1.204-0.405 2.5-0.417 3.771-0.414 1.272 3e-3 2.562 0.021 3.781-0.335s2.377-1.146 2.853-2.322c0.056-0.109 0.074-0.235 0.052-0.356-0.048-0.129-0.139-0.238-0.258-0.307-1.714-1.268-2.408-2.81-4.336-3.722l-0.117-0.074z" fill="#000" opacity=".1"/>
  <path d="m263.57 70.589c-0.476-0.3075-1.017-0.5015-1.58-0.567-0.564-0.0655-1.135-7e-4 -1.669 0.1893-1.07 0.3854-2.03 1.0251-2.798 1.8641-0.766 0.7815-1.43 1.6577-1.974 2.6072-0.522 0.9213-0.922 1.8856-1.444 2.8038-0.921 1.643-2.125 3.0925-3.335 4.5297-0.752 0.8937-1.514 1.7996-2.478 2.4568s-2.042 1.0595-2.696 1.9715c-0.206 0.2887-0.353 0.6142-0.556 0.906-0.642 0.9397-1.732 1.4433-2.681 2.0729-2.721 1.8119-4.413 4.8276-6.956 6.882-1.096 0.8845-2.334 1.5785-3.412 2.4814-1.004 0.8383-1.842 1.843-2.843 2.702-1.002 0.86-2.178 1.57-3.483 1.65 0.872 1.943 1.913 3.851 3.409 5.365 1.495 1.514 3.737 2.481 5.779 1.888 0.725-0.209 1.435-0.651 1.711-1.351 0.087-0.36 0.208-0.711 0.362-1.047 0.206-0.271 0.472-0.488 0.777-0.636 8.198-4.785 16.013-10.199 23.374-16.193 1.974-1.6092 3.933-3.0494 5.96-4.6064 0.727-0.5155 1.399-1.1041 2.006-1.7566 0.845-1.0094 1.373-2.2462 1.517-3.5549s-0.101-2.6308-0.707-3.8001c-0.543-0.8945-1.166-1.7384-1.861-2.5213-1.263-1.6453-2.752-3.1049-4.422-4.3362z" fill="#006753"/>
  <path d="m263.57 70.589c-0.476-0.3075-1.017-0.5015-1.58-0.567-0.564-0.0655-1.135-7e-4 -1.669 0.1893-1.07 0.3854-2.03 1.0251-2.798 1.8641-0.766 0.7815-1.43 1.6577-1.974 2.6072-0.522 0.9213-0.922 1.8856-1.444 2.8038-0.921 1.643-2.125 3.0925-3.335 4.5297-0.752 0.8937-1.514 1.7996-2.478 2.4568s-2.042 1.0595-2.696 1.9715c-0.206 0.2887-0.353 0.6142-0.556 0.906-0.642 0.9397-1.732 1.4433-2.681 2.0729-2.721 1.8119-4.413 4.8276-6.956 6.882-1.096 0.8845-2.334 1.5785-3.412 2.4814-1.004 0.8383-1.842 1.843-2.843 2.702-1.002 0.86-2.178 1.57-3.483 1.65 0.872 1.943 1.913 3.851 3.409 5.365 1.495 1.514 3.737 2.481 5.779 1.888 0.725-0.209 1.435-0.651 1.711-1.351 0.087-0.36 0.208-0.711 0.362-1.047 0.206-0.271 0.472-0.488 0.777-0.636 8.198-4.785 16.013-10.199 23.374-16.193 1.974-1.6092 3.933-3.0494 5.96-4.6064 0.727-0.5155 1.399-1.1041 2.006-1.7566 0.845-1.0094 1.373-2.2462 1.517-3.5549s-0.101-2.6308-0.707-3.8001c-0.543-0.8945-1.166-1.7384-1.861-2.5213-1.263-1.6453-2.752-3.1049-4.422-4.3362z" fill="#000" opacity=".1"/>
  <path d="m250.37 184.51c-0.537 0.307-1.198 0.479-1.575 0.977-0.123 0.159-0.206 0.347-0.338 0.5-0.409 0.479-1.133 0.501-1.702 0.774-0.454 0.215-0.823 0.614-1.305 0.74-0.288 0.069-0.586 0.092-0.881 0.068l-2.985-0.089c-0.946-0.028-2.055 0.021-2.604 0.792-0.179 0.282-0.306 0.594-0.375 0.921-0.23 0.882-0.418 1.88 0.065 2.654 0.577 0.921 1.842 1.108 2.932 1.17 4.212 0.233 8.435 0.151 12.634-0.246 0.568-0.073 1.142-0.096 1.714-0.071 0.454 0.037 0.9 0.139 1.348 0.215 2.263 0.384 4.579 0.16 6.864-0.067 0.386-0.019 0.766-0.1 1.127-0.24 0.179-0.073 0.338-0.189 0.462-0.337 0.125-0.148 0.212-0.324 0.253-0.513 0.095-0.633-0.497-1.17-0.562-1.806-0.046-0.449 0.169-0.949-0.077-1.33-0.091-0.112-0.194-0.215-0.307-0.307-0.411-0.427-0.531-1.05-0.632-1.634l-0.538-3.154c-0.015-0.222-0.106-0.432-0.258-0.595-0.113-0.082-0.243-0.135-0.38-0.157-2.341-0.528-4.739-0.046-7.064 0.249-1.196 0.175-2.406 0.236-3.614 0.181-0.522-0.034-0.725-0.095-1.115 0.246-0.39 0.34-0.599 0.773-1.087 1.059z" fill="#3F3D56"/>
  <path d="m306.88 188.31c-0.411 0.229-0.851 0.402-1.308 0.513-1.206 0.352-2.41 0.719-3.612 1.102-0.32 0.079-0.62 0.224-0.881 0.424-0.418 0.368-0.525 0.97-0.556 1.535-0.04 0.312-3e-3 0.628 0.107 0.922 0.144 0.275 0.356 0.51 0.615 0.681 1.375 1.042 3.172 1.364 4.898 1.364s3.439-0.292 5.165-0.338c2.085-0.055 4.226 0.24 6.231-0.344 0.383-0.141 0.781-0.238 1.186-0.288 0.269-5e-3 0.538 0.013 0.804 0.052 1.076 0.106 2.162 7e-3 3.2-0.292 0.313-0.069 0.604-0.214 0.848-0.421 0.12-0.104 0.207-0.243 0.247-0.398 0.041-0.154 0.034-0.317-0.02-0.468-0.111-0.248-0.393-0.43-0.396-0.703 0.014-0.131 0.048-0.26 0.101-0.381 0.126-0.42-0.077-0.86-0.218-1.274-0.396-1.186-0.332-2.549-1.041-3.578s-2.012-1.452-3.249-1.615c-1.006-0.142-2.029-0.113-3.025 0.086-1.121 0.239-2.168 0.74-3.268 1.059-1.275 0.367-2.608 0.493-3.93 0.372-0.879-0.074-0.578 0.064-0.876 0.801-0.211 0.492-0.568 0.907-1.022 1.189z" fill="#3F3D56"/>
  <path d="m257.81 69.023c4.919 0 8.906-3.9872 8.906-8.9058 0-4.9185-3.987-8.9058-8.906-8.9058-4.918 0-8.906 3.9873-8.906 8.9058 0 4.9186 3.988 8.9058 8.906 8.9058z" fill="#FBBEBE"/>
  <path d="m322.37 185.12c-2.764 2.374-6.495 3.412-10.134 3.449-1.536 0.015-3.129-0.151-4.438-0.946-0.092-0.504-0.129-1.047-0.221-1.551-1.588-0.331-2.819-1.624-3.587-3.055-0.767-1.431-1.157-3.022-1.729-4.539-0.872-2.31-2.149-4.438-3.427-6.551-1.173-1.947-2.349-3.9-3.685-5.739-0.884-1.229-1.843-2.383-2.718-3.609-2.479-3.411-4.259-7.279-5.236-11.381-0.149-0.786-0.362-1.56-0.636-2.312-0.528-1.284-1.495-2.328-2.241-3.498-0.805-1.263-1.357-2.67-1.625-4.143-0.15-0.835-0.408-1.738-1.247-1.824-1.762 3.424-3.559 6.904-6.225 9.689-0.418 0.402-0.802 0.84-1.145 1.308-0.275 0.455-0.521 0.927-0.737 1.413-0.414 0.871-0.963 1.672-1.628 2.371-0.557 0.596-1.291 0.996-2.094 1.142 0.592 2.951 0.24 6.013-1.007 8.752-0.372 0.811-0.817 1.585-1.167 2.405-1.431 3.378-1.1 7.189-1.25 10.853-0.013 0.767-0.104 1.532-0.27 2.281-0.372 1.499-1.14 3.093-0.768 4.592-3.851 1.471-8.129 1.378-12.207 0.758-0.798-0.073-1.572-0.308-2.276-0.691-0.578-0.409-1.083-0.914-1.492-1.492-0.158-0.169-0.275-0.372-0.341-0.593-0.16-0.7 0.614-1.228 0.973-1.843 0.36-0.614 0.424-1.587-0.07-2.091 0.245-4.02 1.357-7.945 1.603-11.977 0.098-1.597 0.058-3.2 0.132-4.8 0.073-1.6 0.245-3.157 0.424-4.729 0.405-3.59 1.388-7.109 1.249-10.718-0.042-1.11 0.214-2.212 0.741-3.19 0.443-0.744 0.947-1.451 1.504-2.113 1.886-2.436 4.152-4.877 4.825-7.883 0.347-1.551 1.115-2.97 1.876-4.364 0.452-0.833 0.921-1.683 1.64-2.294 0.391-0.271 0.754-0.579 1.084-0.922 0.504-0.648 0.522-1.535 0.82-2.309 0.154-0.399 0.39-0.768 0.504-1.179 0.093-0.455 0.14-0.918 0.138-1.382 0.098-1.487 0.669-2.924 1.271-4.284-1.415-0.82-2.665-1.897-3.685-3.176-0.342-0.415-0.641-0.865-0.89-1.342-0.633-1.246-0.777-2.668-1.075-4.035-0.71-3.261-2.34-6.329-2.568-9.6611-0.067-1.0165 0-2.0668-0.353-3.028-0.163-0.4068-0.354-0.8018-0.571-1.1823-0.214-0.3738-0.377-0.7745-0.485-1.1915-0.197-0.906 0.073-1.8426 0-2.7639-0.074-0.8138-0.421-1.5754-0.593-2.3708-0.175-1.0349-0.205-2.0892-0.089-3.1324 0.077-1.2284 0.344-2.4967 0.24-3.7097-0.17-2.0073 0.086-4.0276 0.75-5.9294 0.664-1.9017 1.722-3.6421 3.104-5.1077l0.07-0.0706c0.587-0.6142 1.229-1.1578 1.757-1.8088 0.718-0.8722 1.228-1.8979 1.987-2.7455 0.331-0.3777 0.706-0.7155 1.035-1.0963 0.301-0.3994 0.635-0.7733 0.998-1.1179 0.183-0.1704 0.406-0.2934 0.648-0.3581 0.242-0.0648 0.496-0.0694 0.74-0.0134 0.061 0.458 0.205 0.9011 0.424 1.3082 0.638 0.0491 1.206 0.1382 1.842 0.1873 0.295 0.014 0.587 0.0593 0.872 0.1351 0.599 0.1812 1.078 0.6142 1.591 0.9858 1.278 0.8998 2.847 1.3175 4.103 2.2449 1.843 1.3666 2.764 3.6238 3.875 5.6475 1.471 2.7117 3.87 5.018 4.914 7.917l1.44 3.9431c0.943 2.5735 1.886 5.1562 3.163 7.5822 1.779 3.3781 4.186 6.4214 5.614 9.9563 0.143 0.354 0.407 0.646 0.746 0.823 1.945 2.727 3.673 5.602 5.169 8.599 0.789 1.584 1.535 3.23 1.763 4.984 0.334 2.478-0.341 4.984-1.281 7.299-0.152 0.332-0.255 0.684-0.307 1.045-0.062 0.586 0.163 1.163 0.224 1.75 0.059 0.548-0.022 1.102-0.236 1.609-0.191 0.357-0.353 0.729-0.483 1.112-0.165 0.706 0.129 1.425 0.289 2.131 0.541 2.392 0.442 4.871 0.307 7.321-0.07 1.229 0.922 2.202 1.748 3.102 1.535 1.686 2.733 3.658 3.891 5.626 0.629 0.998 1.16 2.056 1.584 3.157 0.439 1.256 0.614 2.586 0.857 3.891 0.78 4.026 3.335 7.585 4.029 11.624 0.321 1.85 1.141 3.577 2.371 4.996 0.37 0.384 0.712 0.794 1.022 1.228 0.213 0.345 0.382 0.714 0.504 1.1 0.302 0.897 0.444 1.839 0.421 2.785-0.049 0.453-0.023 0.91 0.077 1.355 0.288 0.936 1.32 1.452 1.744 2.333 0.424 0.882 0.132 2.012 0.307 3.013 0.132 0.809 0.566 1.537 1.213 2.039z" fill="#006753"/>
  <path d="m229.45 100.58c-1.007 0.516-2.079 1.044-3.206 0.971-1.013-0.065-1.938-0.614-2.699-1.287-0.614-0.5343-1.247-1.2007-2.055-1.1455-0.54 0.0369-0.995 0.4023-1.412 0.7493l-2.227 1.8642c-0.374 0.252-0.658 0.618-0.807 1.044-0.044 0.289-0.027 0.584 0.052 0.866 0.101 0.498 0.27 1.078 0.749 1.247s1.001-0.194 1.508-0.332c0.31-0.079 0.635-0.073 0.941 0.017 0.307 0.09 0.583 0.262 0.8 0.496 0.181 0.178 0.291 0.416 0.307 0.67 0 0.555-0.614 0.921-1.179 0.948-0.565 0.028-1.105-0.156-1.664-0.122-0.034-5e-3 -0.068-2e-3 -0.101 7e-3s-0.063 0.025-0.09 0.046-0.049 0.048-0.065 0.077c-0.016 0.03-0.027 0.063-0.03 0.097-0.035 0.194-0.02 0.393 0.043 0.58s0.171 0.355 0.316 0.489c0.292 0.266 0.632 0.474 1.001 0.614 0.43 0.212 0.894 0.347 1.37 0.399 0.943 0.061 1.809-0.461 2.703-0.765 1.203-0.405 2.499-0.417 3.771-0.414 1.271 3e-3 2.561 0.021 3.78-0.335s2.377-1.145 2.853-2.322c0.056-0.109 0.075-0.235 0.052-0.356-0.047-0.129-0.139-0.238-0.258-0.307-1.713-1.268-2.407-2.81-4.336-3.722l-0.117-0.074z" fill="#FBBEBE"/>
  <path d="m253.48 54.645c-0.532 0.086-0.983 0.4453-1.487 0.6449-0.338 0.1314-0.7 0.1894-1.062 0.1703-0.362-0.019-0.716-0.1148-1.038-0.2808-0.225-0.1093-0.422-0.269-0.575-0.4668-0.411-0.5712-0.267-1.4004-0.015-2.0698 1.192-3.1662 4.373-5.1255 7.524-5.2514s6.216 1.3451 8.7 3.4487c0.739 0.607 1.402 1.3009 1.975 2.0668 1.296 1.7965 1.882 4.0905 2.054 6.363 0.103 0.9536 0.04 1.9179-0.187 2.8499-0.109 0.4529-0.309 0.8791-0.586 1.2532-0.278 0.3741-0.628 0.6884-1.03 0.9241-0.878 0.4483-1.931 0.3071-2.819-0.1229-0.887-0.4299-1.649-1.1086-2.41-1.7565-0.345-0.3327-0.754-0.5928-1.201-0.7647-0.223-0.0795-0.465-0.0928-0.695-0.0383-0.231 0.0545-0.44 0.1744-0.604 0.3454-0.412 0.4944-0.307 1.3051-0.682 1.8426-0.375 0.5374-1.155 0.6142-1.812 0.6142s-1.323-0.0553-1.717-0.5774c-0.359-0.4729-0.307-1.1639-0.171-1.7597 0.135-0.5957 0.365-1.1853 0.307-1.7965-0.126-1.2284-1.201-1.9838-1.536-3.1139-0.218-0.7401 0.261-1.0534 0.212-1.7228-0.037-0.5897-0.669-0.8783-1.145-0.8016z" fill="#3F3D56"/>
  <path d="m281.45 139.35v0.077c-1.762 3.424-3.559 6.904-6.224 9.689-0.419 0.402-0.803 0.84-1.146 1.308-0.275 0.455-0.521 0.927-0.737 1.413-0.413 0.871-0.963 1.672-1.628 2.371l-2.223 1.111 7.063-36.851 4.895 20.882z" fill="#000" opacity=".1"/>
  <path d="m271.19 83.573c-0.607 0.6526-1.279 1.2412-2.005 1.7566-2.027 1.5355-3.993 2.985-5.961 4.6065-1.587 1.2918-3.196 2.5571-4.828 3.7957-0.214-0.3738-0.377-0.7745-0.485-1.1915-0.197-0.906 0.074-1.8426 0-2.7639-0.074-0.8138-0.421-1.5754-0.593-2.3708-0.175-1.0349-0.205-2.0892-0.089-3.1324 0.077-1.2284 0.344-2.4967 0.24-3.7097-0.17-2.0121 0.087-4.0373 0.754-5.9431 0.668-1.9058 1.73-3.649 3.118-5.1155l0.071-0.0706c0.33-0.1922 0.68-0.3486 1.044-0.4668 0.536-0.1878 1.107-0.25 1.67-0.1818 0.564 0.0681 1.104 0.2648 1.579 0.5749 1.67 1.2312 3.159 2.6909 4.422 4.3362 0.695 0.7829 1.318 1.6267 1.861 2.5213 0.607 1.1681 0.855 2.4895 0.713 3.7982-0.142 1.3086-0.668 2.546-1.511 3.5567z" fill="#000" opacity=".1"/>
  <path d="m265.41 67.825c-0.477-0.3075-1.017-0.5015-1.581-0.567-0.563-0.0655-1.134-7e-4 -1.668 0.1893-1.07 0.3854-2.03 1.0251-2.798 1.8641-0.766 0.7815-1.43 1.6577-1.974 2.6072-0.523 0.9213-0.922 1.8856-1.444 2.8038-0.921 1.643-2.125 3.0925-3.335 4.5297-0.752 0.8936-1.514 1.7996-2.478 2.4568s-2.042 1.0595-2.697 1.9715c-0.205 0.2887-0.353 0.6142-0.555 0.906-0.642 0.9397-1.732 1.4433-2.681 2.0729-2.721 1.8118-4.413 4.8275-6.956 6.882-1.096 0.8845-2.334 1.5785-3.412 2.4814-1.004 0.8383-1.842 1.8425-2.844 2.7024-1.001 0.8599-2.177 1.5695-3.482 1.6495 0.872 1.944 1.913 3.851 3.409 5.365 1.495 1.514 3.737 2.481 5.779 1.888 0.725-0.209 1.434-0.651 1.711-1.351 0.087-0.36 0.208-0.711 0.362-1.047 0.205-0.27 0.472-0.488 0.777-0.636 8.198-4.7852 16.013-10.199 23.373-16.193 1.975-1.6092 3.934-3.0495 5.961-4.6064 0.727-0.5155 1.399-1.1041 2.005-1.7566 0.846-1.0094 1.374-2.2463 1.518-3.5549 0.144-1.3087-0.102-2.6308-0.707-3.8001-0.543-0.8946-1.166-1.7384-1.861-2.5213-1.264-1.6453-2.752-3.1049-4.422-4.3362z" fill="#006753"/>
  <g fill="#000" opacity=".1">
   <path d="m258.14 63.179c-0.614 0-1.324-0.0553-1.717-0.5774-0.356-0.4729-0.307-1.1639-0.172-1.7597 0.136-0.5957 0.366-1.1853 0.307-1.7965-0.125-1.2284-1.2-1.9838-1.535-3.1139-0.218-0.7401 0.261-1.0534 0.212-1.7229-0.043-0.5804-0.673-0.869-1.149-0.7923-0.531 0.086-0.982 0.4453-1.486 0.6449-0.338 0.1314-0.7 0.1894-1.062 0.1704-0.362-0.0191-0.716-0.1148-1.039-0.2809-0.224-0.1093-0.421-0.269-0.574-0.4668-0.411-0.5712-0.267-1.4004-0.015-2.0698 0-0.0246 0.021-0.0461 0.031-0.0707-0.257 0.4109-0.473 0.846-0.645 1.2991-0.252 0.6694-0.397 1.4986 0.015 2.0698 0.153 0.1978 0.349 0.3575 0.574 0.4668 0.323 0.166 0.677 0.2618 1.039 0.2808 0.362 0.0191 0.724-0.039 1.062-0.1703 0.503-0.1996 0.955-0.5589 1.486-0.6449 0.476-0.0768 1.106 0.2119 1.149 0.7923 0.049 0.6695-0.43 0.9827-0.212 1.7228 0.328 1.1302 1.403 1.8979 1.535 3.114 0.062 0.6142-0.162 1.2038-0.307 1.7965-0.144 0.5927-0.184 1.2868 0.172 1.7597 0.393 0.5221 1.097 0.5712 1.717 0.5773 0.62 0.0062 1.419-0.0368 1.812-0.6142 0.169-0.2899 0.281-0.6101 0.328-0.9427-0.417 0.2978-1.001 0.3347-1.526 0.3286z" opacity=".1"/>
   <path d="m268.36 63.069c-0.878 0.4484-1.931 0.3071-2.819-0.1228-0.887-0.43-1.649-1.1086-2.41-1.7566-0.345-0.3327-0.754-0.5927-1.201-0.7647-0.223-0.0795-0.465-0.0928-0.695-0.0383s-0.44 0.1745-0.604 0.3454c-0.209 0.3083-0.34 0.6622-0.384 1.0319 0.16-0.0941 0.338-0.153 0.522-0.1726s0.371 5e-4 0.547 0.0589c0.447 0.172 0.855 0.432 1.2 0.7647 0.762 0.648 1.536 1.3297 2.411 1.7566s1.941 0.5712 2.819 0.1228c0.777-0.4546 1.343-1.1973 1.576-2.0667-0.253 0.3498-0.581 0.6376-0.962 0.8414z" opacity=".1"/>
  </g>
  <path d="m191.94 195.09c5.088 0 9.212-4.124 9.212-9.212 0-5.089-4.124-9.213-9.212-9.213-5.089 0-9.213 4.124-9.213 9.213 0 5.088 4.124 9.212 9.213 9.212z" fill="#3F3D56"/>
  <path d="m191.94 195.09c5.088 0 9.212-4.124 9.212-9.212 0-5.089-4.124-9.213-9.212-9.213-5.089 0-9.213 4.124-9.213 9.213 0 5.088 4.124 9.212 9.213 9.212z" fill="#000" opacity=".1"/>
  <path d="m191.94 191.71c3.223 0 5.835-2.612 5.835-5.834 0-3.223-2.612-5.835-5.835-5.835-3.222 0-5.834 2.612-5.834 5.835 0 3.222 2.612 5.834 5.834 5.834z" fill="#65617D"/>
  <path d="m191.94 191.71c3.223 0 5.835-2.612 5.835-5.834 0-3.223-2.612-5.835-5.835-5.835-3.222 0-5.834 2.612-5.834 5.835 0 3.222 2.612 5.834 5.834 5.834z" fill="#000" opacity=".1"/>
  <path d="m184.87 171.44 6.043 13.666c0.09 0.205 0.237 0.379 0.423 0.504 0.186 0.124 0.404 0.192 0.628 0.197 0.223 4e-3 0.444-0.055 0.635-0.172 0.191-0.116 0.344-0.285 0.442-0.486l7.183-14.63-15.354 0.921z" fill="#3F3D56"/>
  <path d="m184.87 171.44 6.043 13.666c0.09 0.205 0.237 0.379 0.423 0.504 0.186 0.124 0.404 0.192 0.628 0.197 0.223 4e-3 0.444-0.055 0.635-0.172 0.191-0.116 0.344-0.285 0.442-0.486l7.183-14.63-15.354 0.921z" fill="#000" opacity=".1"/>
  <path d="m134.51 195.09c5.088 0 9.213-4.124 9.213-9.212 0-5.089-4.125-9.213-9.213-9.213s-9.213 4.124-9.213 9.213c0 5.088 4.125 9.212 9.213 9.212z" fill="#3F3D56"/>
  <path d="m134.51 195.09c5.088 0 9.213-4.124 9.213-9.212 0-5.089-4.125-9.213-9.213-9.213s-9.213 4.124-9.213 9.213c0 5.088 4.125 9.212 9.213 9.212z" fill="#000" opacity=".1"/>
  <path d="m134.51 191.71c3.222 0 5.835-2.612 5.835-5.834 0-3.223-2.613-5.835-5.835-5.835-3.223 0-5.835 2.612-5.835 5.835 0 3.222 2.612 5.834 5.835 5.834z" fill="#65617D"/>
  <path d="m134.51 191.71c3.222 0 5.835-2.612 5.835-5.834 0-3.223-2.613-5.835-5.835-5.835-3.223 0-5.835 2.612-5.835 5.835 0 3.222 2.612 5.834 5.835 5.834z" fill="#000" opacity=".1"/>
  <path d="m127.44 171.44 6.044 13.666c0.09 0.205 0.237 0.379 0.423 0.504 0.186 0.124 0.404 0.192 0.627 0.197 0.224 4e-3 0.444-0.055 0.635-0.172 0.191-0.116 0.345-0.285 0.443-0.486l7.183-14.63-15.355 0.921z" fill="#3F3D56"/>
  <path d="m127.44 171.44 6.044 13.666c0.09 0.205 0.237 0.379 0.423 0.504 0.186 0.124 0.404 0.192 0.627 0.197 0.224 4e-3 0.444-0.055 0.635-0.172 0.191-0.116 0.345-0.285 0.443-0.486l7.183-14.63-15.355 0.921z" fill="#000" opacity=".1"/>
  <path d="m221.83 105.64c-0.025-0.233-0.108-0.456-0.242-0.648-0.133-0.192-0.313-0.347-0.522-0.452-0.176-0.075-0.366-0.114-0.558-0.114-0.191-1e-3 -0.381 0.038-0.557 0.112-0.177 0.075-0.337 0.184-0.47 0.321-0.133 0.138-0.238 0.301-0.307 0.48l-5.285 13.122-1.536 58.962h2.457l0.921-58.836 5.97-12.057c0.136-0.276 0.181-0.587 0.129-0.89z" fill="#3F3D56"/>
  <path d="m113.16 172.82 8.292-5.221 89.518-0.768 2.304 5.989h-100.11z" fill="#D5B26B"/>
  <path d="m113.16 178.35v-5.528l101.74-0.983-0.098 3.747h-99.794v2.764h-1.843z" fill="#3F3D56"/>
  <path d="m126.06 198.31c5.089 0 9.213-4.125 9.213-9.213s-4.124-9.213-9.213-9.213c-5.088 0-9.212 4.125-9.212 9.213s4.124 9.213 9.212 9.213z" fill="#3F3D56"/>
  <path d="m126.06 194.93c3.223 0 5.835-2.612 5.835-5.835 0-3.222-2.612-5.835-5.835-5.835-3.222 0-5.834 2.613-5.834 5.835 0 3.223 2.612 5.835 5.834 5.835z" fill="#65617D"/>
  <path d="m119 174.66 6.044 13.666c0.09 0.205 0.236 0.38 0.422 0.504 0.187 0.124 0.404 0.193 0.628 0.197 0.224 5e-3 0.444-0.055 0.635-0.171 0.191-0.117 0.345-0.286 0.443-0.487l7.183-14.63-15.355 0.921z" fill="#3F3D56"/>
  <path d="m197.62 198.31c5.088 0 9.213-4.125 9.213-9.213s-4.125-9.213-9.213-9.213-9.213 4.125-9.213 9.213 4.125 9.213 9.213 9.213z" fill="#3F3D56"/>
  <path d="m197.62 194.93c3.223 0 5.835-2.612 5.835-5.835 0-3.222-2.612-5.835-5.835-5.835-3.222 0-5.835 2.613-5.835 5.835 0 3.223 2.613 5.835 5.835 5.835z" fill="#65617D"/>
  <path d="m190.55 174.66 6.043 13.666c0.09 0.205 0.237 0.38 0.423 0.504s0.404 0.193 0.628 0.197c0.223 5e-3 0.444-0.055 0.635-0.171 0.191-0.117 0.344-0.286 0.443-0.487l7.183-14.63-15.355 0.921z" fill="#3F3D56"/>
  <path d="m163.07 148.72h-38.387v21.189h38.387v-21.189z" fill="#65617D"/>
  <path d="m149.86 152.4h-11.67v2.457h11.67v-2.457z" fill="#000" opacity=".1"/>
  <path d="m148.4 152.71h-8.753v1.843h8.753v-1.843z" fill="#000" opacity=".1"/>
  <path d="m202.07 148.72h-38.387v21.189h38.387v-21.189z" fill="#65617D"/>
  <path d="m188.86 152.4h-11.67v2.457h11.67v-2.457z" fill="#000" opacity=".1"/>
  <path d="m187.41 152.71h-8.752v1.843h8.752v-1.843z" fill="#000" opacity=".1"/>
  <path d="m163.07 126.91h-38.387v21.19h38.387v-21.19z" fill="#65617D"/>
  <path d="m149.86 130.6h-11.67v2.457h11.67v-2.457z" fill="#000" opacity=".1"/>
  <path d="m148.4 130.9h-8.753v1.843h8.753v-1.843z" fill="#000" opacity=".1"/>
  <path d="m202.07 126.91h-38.387v21.19h38.387v-21.19z" fill="#65617D"/>
  <path d="m188.86 130.6h-11.67v2.457h11.67v-2.457z" fill="#000" opacity=".1"/>
  <path d="m187.41 130.9h-8.752v1.843h8.752v-1.843z" fill="#000" opacity=".1"/>
  <path d="m163.07 104.8h-38.387v21.19h38.387v-21.19z" fill="#65617D"/>
  <path d="m149.86 108.48h-11.67v2.457h11.67v-2.457z" fill="#000" opacity=".1"/>
  <path d="m148.4 108.79h-8.753v1.843h8.753v-1.843z" fill="#000" opacity=".1"/>
  <path d="m202.07 104.8h-38.387v21.19h38.387v-21.19z" fill="#65617D"/>
  <path d="m188.86 108.48h-11.67v2.457h11.67v-2.457z" fill="#000" opacity=".1"/>
  <path d="m187.41 108.79h-8.752v1.843h8.752v-1.843z" fill="#000" opacity=".1"/>
  <path d="m202.07 82.689h-38.387v21.19h38.387v-21.19z" fill="#65617D"/>
  <path d="m188.86 86.374h-11.67v2.4568h11.67v-2.4568z" fill="#000" opacity=".1"/>
  <path d="m187.41 86.681h-8.752v1.8425h8.752v-1.8425z" fill="#000" opacity=".1"/>
 </g>
 <defs>
  <linearGradient id="paint0_linear_198_3949" x1="269.58" x2="269.58" y1="194.82" y2="46.452" gradientUnits="userSpaceOnUse">
   <stop stop-color="#808080" stop-opacity=".25" offset="0"/>
   <stop stop-color="#808080" stop-opacity=".12" offset=".54"/>
   <stop stop-color="#808080" stop-opacity=".1" offset="1"/>
  </linearGradient>
  <clipPath id="clip0_198_3949">
   <rect width="351.32" height="200" fill="#fff"/>
  </clipPath>
 </defs>
</svg>
