<svg width="120" height="14" viewBox="0 0 120 14" fill="none" xmlns="http://www.w3.org/2000/svg">
<path fill-rule="evenodd" clip-rule="evenodd" d="M17.9766 3.62141L11.3967 13.937H9.30297L2.00502 3.56896V13.937H0V0.0026895H3.6483L11.0996 11.234L18.0654 0.0026895H22.1386V13.937H17.9779V13.738C17.9779 10.3653 17.9779 6.99404 17.9779 3.62141H17.9766ZM97.3558 0.00134475H110.549C112.133 0.00134475 114.032 0.115648 115.463 0.845847C116.404 1.32592 117.074 2.16505 117.398 3.16419C117.709 4.12031 117.69 5.19073 117.306 6.12399C117.103 6.61751 116.804 7.06128 116.412 7.42436C115.717 8.06984 114.764 8.41678 113.836 8.62522C115.756 10.2793 117.675 11.9333 119.595 13.586L120 13.9356H114.993L114.94 13.8939C113.348 12.6487 111.812 11.3362 110.291 10.0049C109.5 9.31373 108.613 8.93048 107.553 8.93048H101.467V7.21727H109.082C111.212 7.21727 112.553 6.10113 112.553 4.91237C112.553 3.82984 111.607 2.24708 109.082 2.24708H97.3544V0.00134475H97.3558ZM88.896 9.40517H78.6745C78.3746 9.40517 78.0183 9.41862 77.7561 9.58134C77.627 9.66068 77.5194 9.77229 77.4226 9.88794C77.276 10.0614 77.1415 10.2537 77.0084 10.4379L77.007 10.4406L77.0057 10.4433C76.141 11.5622 75.3207 12.7133 74.4883 13.8549L74.4292 13.937H71.7235L82.0283 0.0026895H87.0698L97.3558 13.937H92.2215L88.896 9.40652V9.40517ZM79.1775 7.51042H87.4705L83.3327 1.88668L79.1775 7.51042ZM61.4012 3.62141L54.8214 13.937H52.7276L45.4296 3.56896V13.937H43.4246V0.0026895H47.0729L54.5242 11.234L61.49 0.0026895H65.5632V13.937H61.4026V13.738C61.4026 10.3653 61.4026 6.99404 61.4026 3.62141H61.4012ZM34.8613 0.00134475V13.9356H30.7006V13.7366C30.7006 9.22363 30.7006 4.712 30.7006 0.199023V0H34.8613V0.00134475Z" fill="#1B514A"/>
</svg>
