<svg fill="none" save-fill="" version="1.1" viewBox="0 0 244 200" xmlns="http://www.w3.org/2000/svg">
 <g clip-path="url(#clip0_198_3618)">
  <path d="m32.831 189.47c-0.2796 0.013-0.5563-0.061-0.7927-0.21-0.2364-0.15-0.4211-0.369-0.529-0.627-0.108-0.258-0.134-0.543-0.0745-0.817 0.0596-0.273 0.2017-0.522 0.4071-0.711 0.0344-0.137 0.0591-0.235 0.0935-0.372-0.0123-0.03-0.0247-0.06-0.0371-0.089-0.2816-0.666-0.7535-1.233-1.3563-1.631-0.6029-0.397-1.3098-0.608-2.0321-0.605-0.7223 2e-3 -1.4276 0.218-2.0275 0.621-0.5999 0.402-1.0675 0.972-1.3442 1.64-1.1056 2.663-2.5133 5.33-2.8599 8.146-0.1526 1.244-0.0883 2.506 0.1903 3.728-2.5968-5.664-3.9453-11.821-3.954-18.053-5e-4 -1.564 0.0863-3.126 0.2602-4.68 0.1438-1.274 0.3432-2.539 0.5982-3.795 1.3919-6.814 4.3802-13.201 8.7197-18.636 2.1003-1.146 3.7989-2.908 4.8668-5.049 0.3868-0.77 0.6602-1.591 0.8117-2.439-0.2369 0.031-0.4777 0.05-0.7146 0.066-0.0738 4e-3 -0.1515 8e-3 -0.2253 0.011l-0.0278 2e-3c-0.2604 0.011-0.5187-0.052-0.7436-0.184-0.225-0.132-0.4071-0.326-0.5244-0.558-0.1173-0.233-0.1649-0.495-0.1369-0.754 0.0279-0.259 0.1301-0.505 0.2944-0.707 0.1023-0.126 0.2047-0.252 0.3071-0.378 0.1554-0.194 0.3146-0.384 0.47-0.578 0.0179-0.019 0.0347-0.038 0.0505-0.059 0.1786-0.221 0.3573-0.438 0.536-0.66-0.3262-0.506-0.7648-0.93-1.2818-1.239-1.7905-1.049-4.2608-0.322-5.5542 1.297-1.2973 1.62-1.542 3.892-1.0914 5.916 0.443 1.722 1.1759 3.356 2.1673 4.832-0.0971 0.124-0.1981 0.244-0.2952 0.369-1.775 2.282-3.3221 4.733-4.619 7.317 0.3154-2.895-0.0611-5.823-1.0984-8.545-1.0512-2.536-3.0217-4.672-4.7569-6.864-2.0843-2.634-6.3584-1.484-6.7256 1.854-0.00355 0.032-0.00702 0.065-0.01041 0.097 0.25772 0.145 0.51002 0.3 0.75692 0.463 0.3101 0.207 0.5504 0.503 0.6894 0.849s0.1702 0.726 0.0895 1.09c-0.0807 0.365-0.2695 0.696-0.5416 0.951-0.2722 0.255-0.615 0.422-0.98363 0.479l-0.03775 5e-3c0.09181 0.929 0.25408 1.85 0.48548 2.754 0.6705 2.525 1.8552 4.884 3.4801 6.929 1.6248 2.045 3.6546 3.732 5.9621 4.956 0.1515 0.078 0.2991 0.156 0.4506 0.23-1.303 3.692-2.1204 7.539-2.4315 11.442-0.1761 2.303-0.1657 4.616 0.0311 6.918l-0.0116-0.082c-0.4972-2.559-1.8623-4.868-3.8647-6.537-2.9741-2.443-7.1759-3.343-10.384-5.306-0.34098-0.219-0.73747-0.336-1.1427-0.337-0.40521-1e-3 -0.80225 0.114-1.1443 0.331s-0.61484 0.528-0.78619 0.895-0.23411 0.776-0.18088 1.178c0.004298 0.028 0.008679 0.057 0.013128 0.085 0.47829 0.195 0.94397 0.419 1.3943 0.672 0.25775 0.146 0.51005 0.3 0.7569 0.463 0.31012 0.207 0.55041 0.503 0.68939 0.849 0.13899 0.347 0.17019 0.727 0.08952 1.091-0.08068 0.364-0.26946 0.695-0.54162 0.95s-0.615 0.422-0.9836 0.479l-0.03778 6e-3c-0.02719 4e-3 -0.05049 7e-3 -0.07764 0.011 0.81723 1.952 1.9642 3.748 3.3908 5.31 1.7623 1.891 3.8922 3.402 6.2592 4.44 2.367 1.039 4.9212 1.583 7.506 1.6h0.0038c0.7017 3.049 1.7183 6.016 3.0335 8.855h10.836c0.0389-0.12 0.0738-0.244 0.1088-0.365-1.003 0.063-2.01 3e-3 -2.9985-0.179 0.804-0.986 1.608-1.98 2.412-2.967 0.0179-0.018 0.0348-0.038 0.0505-0.058 0.4078-0.505 0.8195-1.006 1.2274-1.511l2e-4 -1e-3c0.0217-1.548-0.1559-3.092-0.5285-4.594h-3e-4z" fill="#F2F2F2"/>
  <path d="m210.75 189.47c0.28 0.013 0.557-0.061 0.793-0.21 0.236-0.15 0.421-0.369 0.529-0.627s0.134-0.543 0.074-0.817c-0.059-0.273-0.201-0.522-0.407-0.711-0.034-0.137-0.059-0.235-0.093-0.372 0.012-0.03 0.025-0.06 0.037-0.089 0.282-0.666 0.753-1.233 1.356-1.631 0.603-0.397 1.31-0.608 2.032-0.605 0.723 2e-3 1.428 0.218 2.028 0.621 0.6 0.402 1.067 0.972 1.344 1.64 1.106 2.663 2.513 5.33 2.86 8.146 0.153 1.244 0.088 2.506-0.19 3.728 2.596-5.664 3.945-11.821 3.954-18.053 0-1.564-0.087-3.126-0.261-4.68-0.143-1.274-0.343-2.539-0.598-3.795-1.392-6.814-4.38-13.201-8.719-18.636-2.101-1.146-3.799-2.908-4.867-5.049-0.387-0.77-0.66-1.591-0.812-2.439 0.237 0.031 0.478 0.05 0.715 0.066 0.074 4e-3 0.151 8e-3 0.225 0.011l0.028 2e-3c0.26 0.011 0.518-0.052 0.743-0.184s0.407-0.326 0.525-0.558c0.117-0.233 0.165-0.495 0.137-0.754s-0.13-0.505-0.295-0.707c-0.102-0.126-0.204-0.252-0.307-0.378-0.155-0.194-0.314-0.384-0.47-0.578-0.018-0.019-0.035-0.038-0.05-0.059-0.179-0.221-0.358-0.438-0.536-0.66 0.326-0.506 0.765-0.93 1.281-1.239 1.791-1.049 4.261-0.322 5.555 1.297 1.297 1.62 1.542 3.892 1.091 5.916-0.443 1.722-1.176 3.356-2.167 4.832 0.097 0.124 0.198 0.244 0.295 0.369 1.775 2.282 3.322 4.733 4.619 7.317-0.315-2.895 0.061-5.823 1.098-8.545 1.052-2.536 3.022-4.672 4.757-6.864 2.085-2.634 6.359-1.484 6.726 1.854 3e-3 0.032 7e-3 0.065 0.01 0.097-0.257 0.145-0.51 0.3-0.757 0.463-0.31 0.207-0.55 0.503-0.689 0.849s-0.17 0.726-0.089 1.09c0.08 0.365 0.269 0.696 0.541 0.951s0.615 0.422 0.984 0.479l0.037 5e-3c-0.091 0.929-0.254 1.85-0.485 2.754-0.67 2.525-1.855 4.884-3.48 6.929s-3.655 3.732-5.962 4.956c-0.152 0.078-0.299 0.156-0.451 0.23 1.303 3.692 2.121 7.539 2.432 11.442 0.176 2.303 0.165 4.616-0.031 6.918l0.011-0.082c0.497-2.559 1.863-4.868 3.865-6.537 2.974-2.443 7.176-3.343 10.384-5.306 0.341-0.219 0.738-0.336 1.143-0.337s0.802 0.114 1.144 0.331 0.615 0.528 0.786 0.895c0.172 0.367 0.235 0.776 0.181 1.178-4e-3 0.028-8e-3 0.057-0.013 0.085-0.478 0.195-0.944 0.419-1.394 0.672-0.258 0.146-0.51 0.3-0.757 0.463-0.31 0.207-0.55 0.503-0.689 0.849-0.139 0.347-0.171 0.727-0.09 1.091s0.269 0.695 0.542 0.95c0.272 0.255 0.615 0.422 0.983 0.479l0.038 6e-3c0.027 4e-3 0.05 7e-3 0.078 0.011-0.818 1.952-1.965 3.748-3.391 5.31-1.762 1.891-3.892 3.402-6.259 4.44-2.367 1.039-4.921 1.583-7.506 1.6h-4e-3c-0.702 3.049-1.718 6.016-3.034 8.855h-10.836c-0.039-0.12-0.074-0.245-0.109-0.365 1.003 0.063 2.01 3e-3 2.999-0.179-0.804-0.986-1.608-1.98-2.412-2.967-0.018-0.018-0.035-0.038-0.051-0.058-0.408-0.505-0.819-1.006-1.227-1.511v-1e-3c-0.022-1.548 0.155-3.092 0.528-4.594z" fill="#F2F2F2"/>
  <path d="m76.565 194.3h2.6235l1.2486-10.12h-3.8721v10.12z" fill="#FFB6B6"/>
  <path d="m75.709 192.5 4.1915-0.25v1.796l3.985 2.752c0.1969 0.136 0.3451 0.331 0.4231 0.557s0.0817 0.471 0.0105 0.7c-0.0712 0.228-0.2135 0.428-0.4062 0.569-0.1927 0.142-0.4256 0.219-0.6648 0.219h-4.9902l-0.8601-1.777-0.3358 1.777h-1.8815l0.5285-6.343z" fill="#2F2E41"/>
  <path d="m43.683 192.07 2.4376 0.97 4.9024-8.94-3.5975-1.432-3.7425 9.402z" fill="#FFB6B6"/>
  <path d="m43.552 190.08 3.9868 1.318-0.6641 1.668 2.6845 4.031c0.1327 0.199 0.1982 0.435 0.187 0.674-0.0111 0.239-0.0984 0.468-0.249 0.654s-0.3566 0.319-0.5881 0.379c-0.2314 0.061-0.4761 0.045-0.6984-0.043l-4.6363-1.846-0.1422-1.968-0.969 1.526-1.7481-0.696 2.8369-5.697z" fill="#2F2E41"/>
  <path d="m71.277 164.19-4.375-20.416-6.8316 22.684-10.818 21.511-0.0573 0.114-3.4266-1.845c-0.4836-8.734 0.6649-16.919 4.8657-24.076l1.9892-19.644c0.061-0.671 1.5448-16.429 6.2432-19.224l1.376-3.137 13.686-3.38 0.0498 0.056c1.316 1.479 2.1853 3.301 2.5069 5.255l4.0893 24.773 0.0024 0.014-1.0965 17.282 1.4998 25.497h-5.4269c-3.3574-6.317-4.7828-14.805-4.2764-25.464z" fill="#2F2E41"/>
  <g fill="#E6E6E6">
   <path d="m138.12 80.876c0 5.8027 8.616 15.993 10.506 10.507 2.314-6.7167 7.25-10.974 10.507-10.507 5.744 0.8252-4.704-10.507-10.507-10.507-2.786 0-5.459 1.107-7.429 3.0773-1.97 1.9704-3.077 4.6428-3.077 7.4293z"/>
   <path d="m135.91 47.972c-1.363 5.6404 4.704 10.507 10.506 10.507 1.38 0 2.746-0.2718 4.021-0.7998s2.433-1.3019 3.409-2.2775c0.975-0.9757 1.749-2.1339 2.277-3.4086 0.528-1.2748 0.8-2.641 0.8-4.0207 0-5.8027-7.821-5.3629-10.507-10.507-3.074-5.8885-7.577-1.6178-10.506 10.507z"/>
   <path d="m87.356 47.531c0 2.7865 1.1069 5.4589 3.0773 7.4293 1.9703 1.9704 4.6427 3.0773 7.4293 3.0773 5.8024 0 10.675-4.7064 10.506-10.507-0.353-12.151-5.06-16.912-10.506-10.507-3.7587 4.4207-10.507 4.704-10.507 10.507z"/>
   <path d="m86.473 80.876c-4.9033-2.1196 3.6125 8.7432 10.507 10.507 5.622 1.438 10.507-4.704 10.507-10.507 0-1.3797-0.272-2.7459-0.8-4.0207-0.528-1.2747-1.302-2.4329-2.278-3.4086-0.975-0.9756-2.134-1.7495-3.408-2.2775-1.275-0.528-2.6413-0.7998-4.021-0.7998-5.8027 0-5.1804 12.809-10.507 10.507z"/>
  </g>
  <path d="m204.7 13.024h-171.58c-0.1784-0.0038-0.3483-0.0773-0.4732-0.2049-0.1248-0.1275-0.1948-0.2989-0.1948-0.4774s0.07-0.3499 0.1948-0.4774c0.1249-0.1276 0.2948-0.2011 0.4732-0.2049h171.58c0.179 0.0038 0.349 0.0773 0.474 0.2049 0.124 0.1275 0.194 0.2989 0.194 0.4774s-0.07 0.3499-0.194 0.4774c-0.125 0.1276-0.295 0.2011-0.474 0.2049z" fill="#CACACA"/>
  <g fill="#3F3D56">
   <path d="m44.8 8.1758c2.2084 0 3.9987-1.8302 3.9987-4.0879s-1.7903-4.0879-3.9987-4.0879c-2.2085 0-3.9988 1.8302-3.9988 4.0879s1.7903 4.0879 3.9988 4.0879z"/>
   <path d="m58.614 8.1758c2.2085 0 3.9988-1.8302 3.9988-4.0879s-1.7903-4.0879-3.9988-4.0879c-2.2084 0-3.9988 1.8302-3.9988 4.0879s1.7904 4.0879 3.9988 4.0879z"/>
   <path d="m72.428 8.1758c2.2084 0 3.9988-1.8302 3.9988-4.0879s-1.7904-4.0879-3.9988-4.0879c-2.2085 0-3.9988 1.8302-3.9988 4.0879s1.7903 4.0879 3.9988 4.0879z"/>
   <path d="m196.38 1.0132h-9.813c-0.194 0.00385-0.38 0.08383-0.516 0.22275s-0.212 0.32571-0.212 0.52026 0.076 0.38133 0.212 0.52025 0.322 0.2189 0.516 0.22275h9.813c0.194-0.00385 0.38-0.08383 0.516-0.22275s0.212-0.3257 0.212-0.52025-0.076-0.38134-0.212-0.52026-0.322-0.2189-0.516-0.22275z"/>
   <path d="m196.38 3.8022h-9.813c-0.194 0.00387-0.38 0.08385-0.516 0.22277s-0.212 0.32569-0.212 0.52022c0 0.19454 0.076 0.38131 0.212 0.52023s0.322 0.2189 0.516 0.22277h9.813c0.194-0.00387 0.38-0.08385 0.516-0.22277s0.212-0.32569 0.212-0.52023c0-0.19453-0.076-0.3813-0.212-0.52022s-0.322-0.2189-0.516-0.22277z"/>
   <path d="m196.38 6.5876h-9.813c-0.194 0.00387-0.38 0.08385-0.516 0.22277s-0.212 0.32569-0.212 0.52023c0 0.19453 0.076 0.3813 0.212 0.52022s0.322 0.21891 0.516 0.22278h9.813c0.194-0.00387 0.38-0.08386 0.516-0.22278s0.212-0.32569 0.212-0.52022c0-0.19454-0.076-0.38131-0.212-0.52023s-0.322-0.2189-0.516-0.22277z"/>
  </g>
  <path d="m147.45 43.204h-14.054c-0.292 0-0.581 0.0575-0.851 0.1693s-0.515 0.2756-0.722 0.4821c-0.206 0.2066-0.37 0.4517-0.482 0.7216-0.112 0.2698-0.169 0.559-0.169 0.8511v14.054c0 0.5899 0.234 1.1556 0.651 1.5727s0.983 0.6515 1.573 0.6515h14.054c0.59 0 1.155-0.2344 1.573-0.6515 0.417-0.4171 0.651-0.9828 0.651-1.5727v-14.054c0-0.5899-0.234-1.1556-0.651-1.5727-0.418-0.4171-0.983-0.6514-1.573-0.6514zm-2.639 4.7447h-1.612c-1.1 0-1.314 0.521-1.314 1.2903v1.6311h2.624l-0.341 2.5611h-2.288v6.6782c-0.979 0.1836-1.983 0.1813-2.961-7e-3v-6.6712h-2.098v-2.5611h2.137v-1.8939c0-2.2642 1.573-3.5009 3.599-3.5009 0.973 0 2.015 0.0731 2.254 0.1071v2.3663z" fill="#006753"/>
  <path d="m112.29 43.204h-14.054c-0.5899 0-1.1556 0.2343-1.5727 0.6514s-0.6514 0.9828-0.6515 1.5727v14.054c1e-4 0.5899 0.2344 1.1556 0.6515 1.5727s0.9828 0.6515 1.5727 0.6515h14.054c0.589 0 1.155-0.2344 1.572-0.6515s0.652-0.9828 0.652-1.5727v-14.054c0-0.5899-0.235-1.1556-0.652-1.5727s-0.983-0.6514-1.572-0.6514zm-7.027 14.185c-0.976 0-1.93-0.2894-2.741-0.8315-0.812-0.5421-1.444-1.3127-1.818-2.2143-0.373-0.9015-0.471-1.8935-0.28-2.8506 0.19-0.9571 0.66-1.8362 1.35-2.5262 0.69-0.6901 1.569-1.16 2.526-1.3503 0.957-0.1904 1.949-0.0927 2.851 0.2807 0.901 0.3735 1.672 1.0058 2.214 1.8172s0.832 1.7653 0.832 2.7411c0 1.3086-0.52 2.5635-1.446 3.4888-0.925 0.9253-2.18 1.4451-3.488 1.4451zm5.55-9.8677c-0.244 0-0.482-0.0724-0.685-0.2079-0.203-0.1356-0.361-0.3282-0.454-0.5536-0.094-0.2254-0.118-0.4734-0.071-0.7126 0.048-0.2393 0.166-0.4591 0.338-0.6316 0.173-0.1725 0.392-0.29 0.632-0.3376 0.239-0.0476 0.487-0.0232 0.712 0.0702 0.226 0.0934 0.418 0.2515 0.554 0.4543 0.135 0.2029 0.208 0.4413 0.208 0.6853 0 0.3271-0.13 0.6408-0.362 0.8722-0.231 0.2313-0.545 0.3612-0.872 0.3613z" fill="#006753"/>
  <path d="m150.83 76.398c0.4 0.0028 0.796 0.0935 1.158 0.2656 0.362 0.1722 0.681 0.4215 0.936 0.7306 0.256 0.3091 0.44 0.6704 0.54 1.0584 0.101 0.388 0.115 0.7933 0.042 1.1873l5.251 3.4167-1.299 3.6973-7.347-4.9291c-0.654-0.1668-1.224-0.5677-1.602-1.1266s-0.538-1.2371-0.449-1.906c0.089-0.669 0.419-1.2821 0.93-1.7234 0.51-0.4413 1.165-0.6799 1.84-0.6708z" fill="#FFB6B6"/>
  <path d="m152.7 85.382 3.747-4.3271 4.843 2.2459 9.896 7.8754c1.297 0.1516 11.141 1.422 10.96 5.0372-4e-3 0.4225-0.1 0.839-0.281 1.221-0.18 0.3819-0.441 0.7203-0.765 0.9917-1.554 1.2825-4.247 0.9186-4.347 0.9037l-6.443-0.3224c-0.337 0.0813-3.834 0.8846-5.685-0.265-0.561-0.3489-11.925-13.36-11.925-13.36z" fill="#3F3D56"/>
  <path d="m163.51 195.9h-3.07l-1.46-11.84h4.53v11.84z" fill="#FFB6B6"/>
  <path d="m164.29 198.88h-9.897v-0.125c0-1.022 0.406-2.002 1.128-2.724 0.723-0.723 1.703-1.129 2.724-1.129h1e-3l1.807-1.371 3.374 1.372h0.864l-1e-3 3.977z" fill="#2F2E41"/>
  <path d="m197.2 193.5-2.959 0.818-4.559-11.024 4.366-1.206 3.152 11.412z" fill="#FFB6B6"/>
  <path d="m198.75 196.16-9.54 2.635-0.033-0.12c-0.272-0.985-0.142-2.038 0.362-2.926 0.504-0.889 1.34-1.541 2.325-1.813l1.378-1.804 3.616 0.424 0.833-0.23 1.059 3.834z" fill="#2F2E41"/>
  <path d="m163.65 124.25 23.194 1.184 8e-3 0.021c1.389 3.859 1.713 8.021 0.939 12.049l0.71 5.917 3.55 18.461 4.733 23.667s6.154 1.657-1.893 4.497-6.39 1.183-5.207-0.947c1.184-2.13-5.798-26.152-5.798-26.152l-8.521-19.171-8.283 19.881-0.947 22.01s2.485 2.959-4.615 4.142-6.745-1.065-5.088-2.722c1.656-1.656 3.076-23.667 3.076-23.667l1.657-20.827s-0.473-12.071 2.485-18.343z" fill="#2F2E41"/>
  <path d="m186.32 97.212-1.865-4.8913-6.005-5.915-7.606-0.597-5.589 5.0047-1.581 4.9785c2.073 9.5997 2.031 18.441-0.907 27.006-0.208 0.592-0.285 1.223-0.225 1.848 0.06 0.624 0.255 1.229 0.573 1.77 0.318 0.542 0.75 1.008 1.266 1.365s1.104 0.598 1.722 0.705c8.617 1.448 24.661 3.619 23.556-0.514-1.462-5.468-6.548-17.235-4.664-23.458 0.686-2.162 1.117-4.397 1.286-6.6583l0.039-0.6433z" fill="#3F3D56"/>
  <path d="m173.37 83.9c3.749 0 6.788-3.0391 6.788-6.788s-3.039-6.788-6.788-6.788c-3.748 0-6.788 3.0391-6.788 6.788s3.04 6.788 6.788 6.788z" fill="#FFB6B6"/>
  <path d="m171.52 83.544 5.174-0.2639c0.663-0.0338 1.387-0.0924 1.869-0.5486 0.26-0.2818 0.459-0.6133 0.587-0.9744 0.478-1.1111 0.956-2.2222 1.423-3.3385 0.644-1.5441 1.278-3.1745 1.113-4.8397-0.039-0.7604-0.358-1.4796-0.895-2.0188-0.275-0.2597-0.627-0.4213-1.003-0.4594s-0.754 0.0494-1.075 0.2489c-0.08-0.5267-0.278-1.0284-0.581-1.4671-0.302-0.4387-0.7-0.803-1.163-1.0652-0.937-0.5173-2.006-0.744-3.072-0.6512-1.546 0.0997-3.022 0.6816-4.221 1.6638-0.337 0.311-0.697 0.5962-1.077 0.8534-0.191 0.1277-0.406 0.2151-0.632 0.257-0.226 0.0418-0.458 0.0371-0.682-0.0139-0.222-0.0593-0.415-0.197-0.543-0.3876-0.129-0.1905-0.184-0.4211-0.155-0.6491-0.365 0.2724-0.615 0.6709-0.701 1.1176-0.087 0.4467-4e-3 0.9096 0.233 1.2984-0.269 0.1125-0.562 0.1537-0.851 0.1195-0.29-0.0342-0.565-0.1426-0.8-0.3147-0.252 0.1249-0.474 0.3009-0.654 0.5169s-0.312 0.4671-0.39 0.7373c-0.077 0.2702-0.096 0.5536-0.058 0.8318 0.039 0.2783 0.136 0.5454 0.284 0.7843 0.148 0.2388 0.344 0.4441 0.576 0.6027 0.232 0.1587 0.494 0.2671 0.77 0.3184 0.277 0.0513 0.561 0.0444 0.834-0.0203 0.273-0.0648 0.53-0.1859 0.754-0.3557 0.314 0.4399 0.197 1.0376 0.156 1.5765s0.104 1.2086 0.623 1.3576c0.703 0.2013 1.272-0.7444 2.002-0.7343 0.18 0.0147 0.354 0.0736 0.506 0.1715s0.278 0.2319 0.366 0.3899c0.172 0.3176 0.29 0.6618 0.348 1.0182l0.935 4.2093" fill="#2F2E41"/>
  <path d="m136.86 94.344c-2.585 0.0017-5.114-0.748-7.281-2.1579l-1.09-0.7086 1.292 0.1433c0.339 0.0376 0.704 0.0596 1.084 0.0651 1.742 0.0013 3.447-0.4999 4.911-1.4434-0.87-0.1885-1.676-0.601-2.337-1.1965-0.662-0.5955-1.157-1.3534-1.436-2.1989l-0.162-0.4987 0.515 0.1009c0.234 0.0462 0.471 0.0729 0.709 0.0798-0.816-0.4194-1.5-1.0549-1.978-1.8371-0.479-0.7821-0.733-1.6806-0.735-2.5975v-0.5282l0.46 0.2033c0.273 0.1535 0.561 0.2763 0.861 0.3662-0.709-0.7955-1.149-1.7941-1.258-2.854s0.118-2.1273 0.65-3.0505l0.225-0.3875 0.282 0.3478c2.053 2.5405 4.995 4.2057 8.23 4.6583 0.088 0.0127 0.179 6e-3 0.265-0.0196 0.085-0.0257 0.165-0.0696 0.232-0.1288 0.069-0.0598 0.124-0.1336 0.162-0.2166 0.037-0.0829 0.057-0.1729 0.057-0.2641-8e-3 -0.9858 0.278-1.9515 0.822-2.7741 0.543-0.8226 1.319-1.4648 2.229-1.8446 0.91-0.3799 1.912-0.4803 2.879-0.2883 0.967 0.1919 1.855 0.6674 2.551 1.3659 0.952-0.2077 1.864-0.5662 2.703-1.0618l0.708-0.4192-0.258 0.7812c-0.239 0.7247-0.64 1.3853-1.172 1.9318 0.472-0.123 0.934-0.2834 1.381-0.4797l0.959-0.4216-0.578 0.8739c-0.612 0.9272-1.377 1.744-2.262 2.4157v0.4457c0 6.6844-5.084 13.598-13.593 13.598h-0.027z" fill="#006753"/>
  <path d="m142.96 89.585c0.401-0.0165 0.8 0.055 1.17 0.2095 0.369 0.1545 0.701 0.3882 0.97 0.6846 0.27 0.2964 0.472 0.6484 0.591 1.0311s0.152 0.7868 0.098 1.184l5.41 3.1596-1.119 3.7556-7.576-4.5693c-0.661-0.1351-1.25-0.508-1.654-1.0481-0.405-0.54-0.597-1.2097-0.541-1.8821s0.357-1.3009 0.846-1.7662c0.488-0.4654 1.131-0.7353 1.805-0.7587z" fill="#FFB6B6"/>
  <path d="m149.33 101.38-4.04-4.3722 2.8-4.1874 3.019 2.5327 3.3 0.7897 4.657 1.7657c0.649-1.1338 5.679-9.6905 8.933-8.1059 0.387 0.1698 0.733 0.4214 1.013 0.7374 0.281 0.316 0.489 0.689 0.612 1.0933 0.57 1.9323-0.821 4.2663-0.874 4.353l-2.824 5.7997c-0.057 0.342-0.69 3.874-2.474 5.125-0.252 0.185-0.539 0.315-0.844 0.382s-0.621 0.071-0.927 0.01c-5.543-1.049-9.448-2.67-11.441-4.732-0.352-0.358-0.657-0.758-0.91-1.191z" fill="#3F3D56"/>
  <path d="m77.46 84.472c-0.6219-1.3377 0.3652-2.8311 0.7174-4.2711 0.6572-2.6871-1.1948-5.5964-3.705-6.5275s-5.395-0.1529-7.5513 1.4764c-2.1139 1.5972-3.5999 2.3497-5.056 4.6064-0.4883 0.7568-1.0054 3.1064-1.0977 4.0127-0.0925 0.9064 0.3764 1.945 1.2314 2.1437-0.0819 0.1617-0.1179 0.3428-0.104 0.5235 0.0138 0.1808 0.077 0.3542 0.1826 0.5016 0.1056 0.1473 0.2496 0.2628 0.4164 0.334 0.1667 0.0711 0.3497 0.0952 0.5291 0.0695 1.6364-0.316 4.6418 0.5529 4.6418 0.5529 2.8022 0.1604 5.6043 0.3208 8.4064 0.4812 0.718 0.0411 1.4631 0.0784 2.1082-0.3182 0.1784-0.1045 0.3321-0.2464 0.4506-0.4159 0.1184-0.1696 0.1988-0.3627 0.2355-0.5662 0.164-1.0614-0.9767-1.6807-1.4054-2.603z" fill="#2F2E41"/>
  <path d="m79.577 96.176-0.6131 4.0811-0.9724 6.467-0.1648 2.395-1.2101 17.56-3.3327 2.564c-1.9296 1.484-4.3382 2.206-6.7661 2.028-2.428-0.178-4.7053-1.244-6.3976-2.994l-4.047-1.949c2.1689-2.133 1.7656-12.022 1.7656-12.022l-0.0243-19.424 5.4858-1.8448 1.8071-3.5573h6.4825l1.6207 3.7815 2.9414 1.3451 1.3398 0.6159 2.0852 0.9534z" fill="#D5B26B"/>
  <path d="m68.616 87.655c3.0271 0 5.481-2.4539 5.481-5.481s-2.4539-5.481-5.481-5.481-5.481 2.4539-5.481 5.481 2.4539 5.481 5.481 5.481z" fill="#FFB6B6"/>
  <path d="m65.485 80.455c-1.448 0.0024-2.8613-0.4435-4.0458-1.2764l-0.0396-0.0277c0-0.7001 0.1379-1.3934 0.4058-2.0402 0.268-0.6468 0.6607-1.2345 1.1557-1.7296 0.4951-0.4951 1.0828-0.8878 1.7296-1.1557 0.6469-0.2679 1.3401-0.4058 2.0403-0.4058h2.1762c0.6955 8e-4 1.384 0.1387 2.0262 0.406 0.6421 0.2672 1.2252 0.6584 1.7159 1.1513 0.4908 0.4929 0.8794 1.0777 1.1439 1.721 0.2644 0.6433 0.3993 1.3324 0.397 2.0279-0.0045 0.3175-0.1327 0.6207-0.3574 0.845s-0.5281 0.352-0.8456 0.356l-7.3771 0.1271c-0.0417 8e-4 -0.0835 0.0011-0.1251 0.0011z" fill="#2F2E41"/>
  <path d="m81.529 107.44-4.9648 0.04-0.3649 8.837-4.0339 4.939c-0.4907 0.082-0.949 0.299-1.3244 0.626-0.3753 0.327-0.653 0.751-0.8024 1.225-0.1494 0.475-0.1647 0.982-0.0442 1.465 0.1205 0.482 0.3721 0.923 0.7271 1.271 0.3549 0.349 0.7993 0.593 1.2842 0.705 0.4848 0.112 0.9912 0.088 1.4632-0.07 0.472-0.157 0.8912-0.442 1.2114-0.823s0.5288-0.843 0.6028-1.335l5.557-7.704 0.6889-9.176z" fill="#FFB6B6"/>
  <path d="m55.35 107.71-5.0894-2.379-5.5573 6.88-6.182 1.564c-0.4434-0.226-0.9406-0.325-1.4367-0.287-0.4961 0.039-0.9718 0.214-1.3746 0.507-0.4028 0.292-0.717 0.69-0.9078 1.149-0.1908 0.46-0.2509 0.963-0.1737 1.455 0.0773 0.492 0.289 0.952 0.6116 1.331 0.3227 0.379 0.7438 0.661 1.2168 0.816 0.473 0.154 0.9796 0.175 1.4637 0.06s0.9269-0.362 1.2795-0.713l9.0525-2.877 7.0974-7.506z" fill="#FFB6B6"/>
  <path d="m71.359 87.232 1.8977-2.3674c0.2049-0.2074 0.3383-0.4748 0.3807-0.7633 0.01-0.2894-0.2627-0.5992-0.5377-0.5085-0.2552 0.0841-1.726-3.6007-1.9947-3.5999-0.2785 8e-4 -0.3695-0.3706-0.373-0.6491-0.0134-1.0555 0.8446 0.0779 1.1282-0.9388s1.3892-0.1426 2.3421-0.5966c0.9529-0.4541 2.2476-0.2479 2.8366 0.628 0.4368 0.6494 0.4206 1.4932 0.3626 2.2737-0.1345 1.8111-0.407 3.6094-0.8151 5.379-0.1003 0.4348-0.2495 0.9205-0.6501 1.1169-0.2205 0.0873-0.4581 0.1228-0.6945 0.1037l-2.9218-0.0144" fill="#2F2E41"/>
  <path d="m75.912 77.055c1.4918 0 2.7011-1.2093 2.7011-2.7011s-1.2093-2.7011-2.7011-2.7011c-1.4917 0-2.7011 1.2093-2.7011 2.7011s1.2094 2.7011 2.7011 2.7011z" fill="#2F2E41"/>
  <path d="m81.986 107.36c-0.2917 0.508-0.9129 0.711-1.4801 0.867-0.7672 0.214-0.9913 0.43-1.7584 0.643-0.3053 0.087-0.6132 0.173-0.9211 0.251-0.5055 0.136-1.0187 0.242-1.5369 0.316-0.4349 0.062-0.9481 0.062-1.2317-0.275-0.1881-0.29-0.264-0.639-0.2134-0.981 0.1108-4.148 0.2224-8.2973 0.3349-12.446l0.235 0.081c0.1058-0.0698 0.2159-0.1329 0.3296-0.189 0.5407-0.2755 1.1408-0.4137 1.7475-0.4025 0.3472 0.0028 0.6921 0.0565 1.0237 0.1594 0.5149 0.1634 0.9879 0.437 1.3863 0.8018 0.3983 0.3647 0.7125 0.8119 0.9205 1.3104 0.2694 0.7525 0.3976 1.5482 0.3781 2.3472 0.0027 0.1216 0.0027 0.2429 0.0054 0.3649 0.0162 1.037-0.5105 2.074-0.4943 3.111-0.0123 0.292 0.0279 0.584 0.1189 0.862 0.108 0.276 0.3187 0.505 0.3997 0.791 0.0811 0.284-0.0513 0.673-0.3457 0.695 0.208-0.023 0.418 0.013 0.6069 0.103s0.3493 0.23 0.4634 0.406c0.1141 0.175 0.1774 0.378 0.183 0.587s-0.0467 0.416-0.1513 0.597z" fill="#D5B26B"/>
  <path d="m57.837 94.906c0.5402 0.0325 1.0665 0.1839 1.5414 0.4432 0.4749 0.2594 0.8867 0.6204 1.206 1.0573 0.3193 0.4368 0.5383 0.9388 0.6412 1.47 0.103 0.5312 0.0874 1.0786-0.0456 1.6032-0.2824 0.8758-0.7262 1.6918-1.3086 2.4048l-1.8154 2.527c-0.1842 0.226-0.3259 0.484-0.4182 0.761-0.0764 0.287-0.0462 0.597-0.1508 0.875-0.1047 0.277-0.4416 0.51-0.6918 0.351 0.1802 0.106 0.3276 0.26 0.4259 0.445 0.0982 0.184 0.1436 0.392 0.1309 0.601-0.0126 0.209-0.0826 0.41-0.2024 0.582-0.1198 0.171-0.2847 0.306-0.4763 0.39-0.5387 0.235-1.1575 0.025-1.7065-0.185l-2.2294-0.853c-0.7929-0.283-1.5655-0.62-2.3125-1.008-0.3859-0.212-0.7978-0.517-0.8252-0.956-0.0214-0.343 0.2678-0.605 0.4128-0.916 1.8157-3.887 4.4857-6.9802 7.8019-9.6159l0.0226 0.0234z" fill="#D5B26B"/>
  <path d="m60.445 118.31c0-2.174-1.6019-3.925-3.6056-3.925-2.6836-0.129-5.4136-0.175-8.2054-0.175h-0.8705c-2.7866 0-5.5269 0.046-8.2053 0.175-1.9728 0-3.5748 1.756-3.5748 3.935-0.1236 1.726-0.1751 3.446-0.17 5.151 0.0052 1.705 0.0464 3.446 0.1649 5.151 0 2.179 1.6019 3.946 3.5747 3.946 2.8124 0.128 5.702 0.185 8.6381 0.185 2.936 0 5.8205-0.051 8.6432-0.185 1.9779 0 3.6056-1.767 3.6056-3.946 0.1133-1.725 0.17-3.446 0.1648-5.177-0.0052-1.73-0.0463-3.44-0.1597-5.151v0.016zm-14.592 9.926v-9.509l7.0156 4.749-7.0156 4.76z" fill="#006753"/>
  <path d="m243.21 199.88-242.76 0.116c-0.11904 0-0.2331-0.048-0.31715-0.132-0.084055-0.084-0.13125-0.199-0.13125-0.318s0.047193-0.233 0.13125-0.317c0.084055-0.084 0.19811-0.132 0.31715-0.132l242.76-0.116c0.119 0 0.233 0.047 0.317 0.132 0.085 0.084 0.132 0.198 0.132 0.317s-0.047 0.234-0.132 0.318c-0.084 0.084-0.198 0.132-0.317 0.132z" fill="#CACACA"/>
 </g>
 <defs>
  <clipPath id="clip0_198_3618">
   <rect width="243.66" height="200" fill="#fff"/>
  </clipPath>
 </defs>
</svg>
