<svg fill="none" save-fill="" version="1.1" viewBox="0 0 239 200" xmlns="http://www.w3.org/2000/svg">
 <g clip-path="url(#clip0_112_205)">
  <path d="m203 96c0.02 12.538-2.592 24.94-7.667 36.404-0.164 0.37-0.33 0.738-0.498 1.104-0.083 0.184-0.169 0.366-0.254 0.55-0.085 0.182-0.17 0.366-0.258 0.548-0.112 0.235-0.224 0.469-0.339 0.702-0.141 0.294-0.285 0.586-0.433 0.878-0.018 0.04-0.038 0.081-0.061 0.121-0.123 0.247-0.246 0.494-0.374 0.741-0.027 0.053-0.054 0.107-0.083 0.159-0.146 0.287-0.297 0.575-0.449 0.86v2e-3c-0.162 0.303-0.324 0.605-0.487 0.907-0.404 0.745-0.82 1.483-1.246 2.215-0.128 0.217-0.254 0.435-0.384 0.651-0.119 0.202-0.238 0.401-0.359 0.601-0.083 0.139-0.166 0.276-0.251 0.413-0.135 0.222-0.272 0.444-0.411 0.667-2e-3 2e-3 -2e-3 2e-3 -2e-3 4e-3 -0.308 0.494-0.622 0.985-0.938 1.472h-3e-3c-0.146 0.227-0.294 0.452-0.442 0.676v2e-3c-0.446 0.674-0.902 1.34-1.367 2v2e-3c-1e-3 0-3e-3 1e-3 -4e-3 3e-3v2e-3l-5e-3 4e-3c-0.368 0.528-0.743 1.051-1.126 1.569v2e-3c-0.245 0.333-0.492 0.665-0.741 0.992-0.204 0.27-0.411 0.538-0.619 0.806-0.043 0.058-0.088 0.115-0.135 0.173v2e-3c-0.056 0.074-0.112 0.146-0.173 0.22v2e-3c-0.886 1.134-1.8 2.245-2.74 3.333h-2e-3c-0.05 0.061-0.101 0.119-0.153 0.178-0.049 0.058-0.103 0.116-0.155 0.177h-2e-3c-0.079 0.092-0.16 0.184-0.24 0.276-0.079 0.092-0.162 0.184-0.245 0.276v2e-3c-4.902 5.531-10.465 10.438-16.564 14.611-0.812 0.559-1.635 1.103-2.468 1.632-0.207 0.132-0.413 0.262-0.622 0.393-0.063 0.042-0.126 0.08-0.189 0.119-0.11 0.069-0.222 0.139-0.334 0.208-0.11 0.068-0.222 0.137-0.334 0.205-0.447 0.273-0.898 0.543-1.349 0.808-0.113 0.067-0.227 0.132-0.341 0.199-0.113 0.065-0.227 0.13-0.342 0.196-1e-3 2e-3 -3e-3 4e-3 -5e-3 5e-3 -3e-3 2e-3 -5e-3 3e-3 -8e-3 4e-3l-5e-3 2e-3 -4e-3 4e-3h-2e-3c-0.566 0.326-1.134 0.647-1.708 0.956-1.028 0.561-2.067 1.102-3.115 1.623-0.261 0.13-0.523 0.258-0.786 0.386-0.218 0.106-0.438 0.211-0.655 0.314-0.061 0.03-0.119 0.059-0.18 0.086-0.182 0.085-0.364 0.17-0.545 0.253-0.198 0.095-0.398 0.184-0.595 0.274-0.222 0.101-0.442 0.2-0.664 0.299-0.835 0.372-1.679 0.731-2.525 1.077-3.023 1.238-6.112 2.306-9.254 3.2-0.146 0.043-0.294 0.086-0.442 0.126-1.344 0.377-2.699 0.722-4.062 1.035-2.382 0.547-4.785 0.997-7.209 1.349-5e-3 0-0.012 2e-3 -0.016 2e-3 -0.29 0.042-0.581 0.083-0.871 0.123-0.025 5e-3 -0.052 9e-3 -0.078 0.012-3e-3 2e-3 -5e-3 2e-3 -9e-3 0 0 0 0 2e-3 -3e-3 0-0.321 0.042-0.642 0.085-0.965 0.125-0.022 5e-3 -0.045 7e-3 -0.067 9e-3 -0.301 0.036-0.604 0.072-0.907 0.106-0.325 0.036-0.651 0.069-0.978 0.103-0.25 0.025-0.499 0.049-0.748 0.072-0.022 4e-3 -0.045 6e-3 -0.067 6e-3 -0.227 0.021-0.453 0.041-0.68 0.059-9e-3 0-0.02 2e-3 -0.029 2e-3 -0.198 0.018-0.395 0.031-0.593 0.047-2.323 0.184-4.668 0.275-7.036 0.274-2.57 0-5.113-0.107-7.631-0.321-9e-3 0-0.018-2e-3 -0.027-2e-3 -0.536-0.045-1.072-0.094-1.607-0.148-0.141-0.014-0.28-0.03-0.422-0.043-0.027-2e-3 -0.054-4e-3 -0.081-9e-3 -0.042-4e-3 -0.085-9e-3 -0.13-0.013-0.022-3e-3 -0.047-5e-3 -0.069-9e-3 -0.187-0.021-0.373-0.041-0.561-0.063-0.209-0.025-0.42-0.05-0.629-0.077-0.209-0.024-0.42-0.051-0.628-0.08-0.045-5e-3 -0.092-9e-3 -0.137-0.018-0.153-0.018-0.305-0.038-0.456-0.061-0.074-9e-3 -0.146-0.02-0.218-0.031-0.145-0.021-0.289-0.041-0.4349-0.063-0.0045 0-0.0112-2e-3 -0.0157-2e-3 -4.5832-0.662-9.1075-1.682-13.532-3.051h-0.0022c-0.2401-0.074-0.4803-0.15-0.7204-0.226-0.0719-0.02-0.1437-0.043-0.2155-0.068-0.6239-0.199-1.2441-0.406-1.8606-0.619-0.8506-0.292-1.6953-0.597-2.5339-0.916-0.2289-0.087-0.4556-0.175-0.6846-0.262-0.4556-0.18-0.9089-0.359-1.36-0.543-0.7699-0.315-1.5345-0.639-2.2938-0.972h-0.0023v-3e-3c-0.7092-0.311-1.4132-0.633-2.1119-0.965-0.0207-6e-3 -0.0403-0.015-0.0584-0.027-0.0022 0-0.0022-2e-3 -0.0045-2e-3 -0.1548-0.072-0.3097-0.146-0.4646-0.22l-0.0044-2e-3c-3.8497-1.845-7.5618-3.965-11.108-6.343-1.1379-0.76-2.2564-1.547-3.3554-2.358-0.8865-0.654-1.7603-1.323-2.6214-2.009-4.2893-3.409-8.2588-7.202-11.859-11.332h-0.0022v-2e-3c-0.2536-0.29-0.5005-0.577-0.7519-0.869v-2e-3c-0.0359-0.041-0.0695-0.081-0.1032-0.121-0.1594-0.187-0.3142-0.371-0.4691-0.559v-2e-3c-0.211-0.25-0.4174-0.499-0.6194-0.75-0.0449-0.054-0.0876-0.106-0.1302-0.159h-0.0023v-3e-3c-0.166-0.202-0.3299-0.406-0.4915-0.61-0.083-0.101-0.1638-0.204-0.2446-0.308h-0.0023v-2e-3c-0.4892-0.617-0.9688-1.24-1.4386-1.869v-3e-3c-0.1302-0.173-0.2581-0.345-0.3838-0.52h-0.0022c-0.6015-0.813-1.1873-1.635-1.7574-2.467v-2e-3c-0.2155-0.312-0.4287-0.626-0.6396-0.943-0.211-0.316-0.4197-0.634-0.6262-0.952h-0.0023c-0.2132-0.327-0.4242-0.656-0.6329-0.987-0.0112-0.018-0.0224-0.034-0.0314-0.049-0.2065-0.326-0.41-0.654-0.6105-0.983-0.1616-0.263-0.3209-0.523-0.4758-0.786-0.1077-0.177-0.2132-0.352-0.3164-0.532-0.0382-0.061-0.0719-0.121-0.1055-0.179-0.2379-0.407-0.4714-0.813-0.7048-1.221-0.2715-0.481-0.5409-0.965-0.8035-1.45-0.1077-0.2-0.2154-0.402-0.3209-0.604-0.0382-0.065-0.0718-0.13-0.1055-0.198-0.1257-0.237-0.2514-0.475-0.3748-0.715-0.1234-0.238-0.2469-0.479-0.3681-0.719s-0.2424-0.48-0.3613-0.722c-0.0898-0.182-0.1796-0.366-0.2671-0.548-0.0091-0.015-0.0174-0.031-0.0247-0.047-0.0404-0.085-0.083-0.168-0.1212-0.254-9e-3 -0.013-0.0158-0.027-0.0202-0.042-0.092-0.189-0.1818-0.375-0.2693-0.564-0.1167-0.242-0.2289-0.487-0.3412-0.731-0.0808-0.171-0.1571-0.344-0.2356-0.517-0.1122-0.242-0.2222-0.487-0.33-0.734-0.1144-0.253-0.2244-0.509-0.3344-0.765-0.0291-0.065-0.0561-0.128-0.083-0.193-0.0516-0.117-0.101-0.233-0.1504-0.35-0.1324-0.31-0.2626-0.624-0.3905-0.936-0.1459-0.352-0.2881-0.705-0.4265-1.059-0.1324-0.33-0.2611-0.661-0.386-0.992l-0.0471-0.122v-2e-3c-1.9502-5.125-3.4257-10.419-4.408-15.814v-2e-3c-0.5601-3.08-0.9586-6.188-1.194-9.31-0.0135-0.17-0.0247-0.341-0.0359-0.511-0.1481-2.112-0.2207-4.2326-0.2177-6.361 0-0.9449 0.015-1.8853 0.0449-2.8212 0.5819-19.567 7.5569-38.404 19.858-53.632 0.5409-0.6711 1.0915-1.3339 1.6519-1.9885 16.505-19.315 41.045-31.558 68.445-31.558 32.034 0 60.161 16.736 76.107 41.943 0.831 1.3063 1.625 2.6364 2.384 3.9906 7.569 13.452 11.534 28.631 11.509 44.066z" fill="#F2F2F2"/>
  <path d="m155.23 197.76-44.671-80.541c-0.013-0.197-0.074-0.388-0.178-0.556s-0.248-0.307-0.419-0.407c-0.195-0.112-0.419-0.166-0.645-0.155-7e-3 -1e-3 -0.014-1e-3 -0.022-1e-3 -7e-3 0-0.014 0-0.021 1e-3 -0.306-0.015-0.605 0.09-0.836 0.291-0.23 0.201-0.374 0.484-0.401 0.789l-47.345 80.579c-0.079 0.136-0.1302 0.287-0.1509 0.443-0.0206 0.157-0.0103 0.316 0.0305 0.468s0.1112 0.295 0.2072 0.42c0.096 0.126 0.2157 0.231 0.3523 0.309 0.1366 0.079 0.2874 0.13 0.4438 0.151s0.3153 0.01 0.4677-0.031c0.1523-0.041 0.2951-0.111 0.4202-0.207s0.2301-0.216 0.3089-0.353l46.491-79.126 43.887 79.126c0.079 0.137 0.184 0.257 0.309 0.353s0.268 0.166 0.42 0.207c0.153 0.041 0.312 0.052 0.468 0.031s0.307-0.072 0.444-0.151c0.136-0.078 0.256-0.183 0.352-0.309 0.096-0.125 0.167-0.268 0.207-0.42 0.041-0.152 0.052-0.311 0.031-0.468-0.021-0.156-0.072-0.307-0.151-0.443z" fill="#D5B26B"/>
  <path d="m101.9 183.94 5.049-1.159-2.065-20.026-7.4523 1.709 4.4683 19.476z" fill="#FFB6B6"/>
  <path d="m105.8 174.27-7.1858 1.648-2.2975-4.49-0.1301-0.159c-1.0192-1.251-1.5849-2.81-1.6051-4.424l-5.9724-15.798-0.4883-0.233c-0.3778-0.179-0.7129-0.437-0.983-0.757-0.27-0.32-0.4688-0.693-0.583-1.095-0.1143-0.403-0.1413-0.825-0.0794-1.239s0.2114-0.809 0.4385-1.161l-0.6323-1.672-17.841 0.033-0.0178-5e-3 -21.908-6.146 2.3004-13.713 6.1628 3.877c2.0307-0.132 36.818-2.268 40.032 5.528 2.8618 6.942 6.9861 18.803 9.9411 27.53 0.148 0.392 0.331 0.77 0.547 1.128 0.46 0.708 0.73 1.523 0.784 2.365 0.035 0.367 0.105 0.729 0.209 1.083 1.228 3.672-0.643 7.603-0.662 7.642l-0.028 0.058z" fill="#2F2E41"/>
  <path d="m100.19 182.27 1.642-0.377 5.811-4.077 4.034 1.818c1.941-0.445 3.98-0.101 5.668 0.957 1.687 1.058 2.886 2.743 3.331 4.684l0.055 0.238-18.806 4.315-1.735-7.558z" fill="#2F2E41"/>
  <path d="m25.639 182.72c0.5133-5.587 3.7864-11.182 9.0361-13.164-1.9093 5.796-1.707 12.08 0.5711 17.741 0.8865 2.18 2.0995 4.513 1.4037 6.761-0.4329 1.399-1.5666 2.495-2.8507 3.199-1.2841 0.703-2.7227 1.065-4.1433 1.42l-0.2741 0.242c-2.4357-5.055-4.2562-10.611-3.7428-16.199z" fill="#F0F0F0"/>
  <g fill="#fff">
   <path d="m34.731 169.66c-2.9798 3.563-4.7612 7.974-5.0913 12.607-0.0888 0.996-0.02 1.999 0.2038 2.974 0.2487 0.943 0.7453 1.801 1.438 2.487 0.6331 0.652 1.3562 1.246 1.8198 2.041 0.2312 0.41 0.3731 0.864 0.4163 1.334 0.0432 0.469-0.0132 0.941-0.1656 1.387-0.3507 1.12-1.0831 2.048-1.8308 2.93-0.8302 0.98-1.708 1.984-2.0334 3.258-0.0394 0.154-0.2766 0.084-0.2372-0.07 0.5661-2.216 2.6573-3.532 3.6101-5.542 0.4446-0.938 0.6093-2.016 0.1334-2.975-0.4162-0.84-1.1613-1.453-1.808-2.107-0.6857-0.659-1.1995-1.476-1.4967-2.379-0.2727-0.96-0.3801-1.96-0.3175-2.956 0.1053-2.245 0.5628-4.459 1.3558-6.562 0.8918-2.405 2.1885-4.64 3.8338-6.607 0.1019-0.122 0.2707 0.059 0.1695 0.18z"/>
   <path d="m29.658 180.77c-0.7698-0.161-1.4573-0.591-1.9397-1.212-0.4825-0.621-0.7285-1.393-0.6941-2.179 0.0017-0.032 0.0157-0.062 0.0392-0.084 0.0235-0.021 0.0545-0.033 0.0866-0.033 0.032 1e-3 0.0626 0.014 0.0853 0.036 0.0227 0.023 0.0356 0.054 0.0362 0.086-0.0334 0.731 0.1959 1.451 0.6463 2.028 0.4505 0.577 1.0925 0.975 1.8102 1.12 0.1559 0.032 0.085 0.269-0.07 0.238z"/>
   <path d="m30.917 187.44c1.3531-0.868 2.3293-2.214 2.7339-3.77 0.04-0.154 0.2772-0.084 0.2373 0.07-0.4242 1.619-1.4429 3.017-2.8529 3.918-0.1345 0.085-0.252-0.132-0.1183-0.218z"/>
   <path d="m31.856 173.91c0.2849 0.124 0.5961 0.176 0.9059 0.15 0.3097-0.026 0.6082-0.128 0.8687-0.297 0.1333-0.088 0.2507 0.13 0.1183 0.217-0.2887 0.186-0.6185 0.298-0.9606 0.327-0.3422 0.03-0.6863-0.026-1.0023-0.16-0.0308-0.01-0.0566-0.032-0.0721-0.06-0.0156-0.029-0.0197-0.062-0.0115-0.094 0.0094-0.031 0.0309-0.057 0.0596-0.073 0.0288-0.016 0.0625-0.019 0.094-0.01z"/>
  </g>
  <path d="m51.173 178.98c-0.0817 0.056-0.1634 0.113-0.2451 0.172-1.0943 0.771-2.124 1.63-3.0792 2.568-0.075 0.071-0.15 0.144-0.2228 0.218-2.2771 2.284-4.1105 4.97-5.4069 7.923-0.5148 1.176-0.9394 2.389-1.2701 3.629-0.4567 1.712-0.8156 3.605-1.7828 5.025-0.0993 0.15-0.2077 0.292-0.3246 0.428l-9.1438 0.294c-0.0211-0.01-0.0422-0.017-0.0634-0.027l-0.3646 0.028c0.0126-0.065 0.0271-0.132 0.0397-0.197 0.0071-0.038 0.0163-0.076 0.0234-0.114 0.0054-0.025 0.011-0.05 0.0144-0.073 0.0018-9e-3 0.0036-0.017 0.0055-0.024 0.0034-0.023 0.0091-0.044 0.0126-0.065 0.0798-0.376 0.1623-0.753 0.2477-1.129-1e-4 -2e-3 -1e-4 -2e-3 0.0019-4e-3 0.6229-2.876 1.5848-5.667 2.8654-8.316 0.0392-0.079 0.0784-0.159 0.1218-0.238 0.5947-1.173 1.2843-2.296 2.062-3.357 0.4277-0.58 0.8844-1.138 1.3685-1.671 1.2534-1.376 2.7154-2.547 4.3325-3.468 3.2239-1.837 6.9994-2.622 10.538-1.677 0.0905 0.024 0.1791 0.048 0.2697 0.075z" fill="#F0F0F0"/>
  <g fill="#fff">
   <path d="m51.156 179.09c-4.5242 1.051-8.6023 3.5-11.655 7.001-0.6705 0.741-1.22 1.584-1.6281 2.497-0.3688 0.903-0.4893 1.887-0.3489 2.852 0.1128 0.901 0.3326 1.811 0.2242 2.725-0.0624 0.466-0.2229 0.915-0.4707 1.315-0.2479 0.401-0.5776 0.744-0.9676 1.009-0.9546 0.683-2.0978 0.983-3.226 1.237-1.2526 0.282-2.5581 0.555-3.5847 1.376-0.1244 0.1-0.2715-0.099-0.1473-0.198 1.7861-1.429 4.2479-1.22 6.2189-2.251 0.9197-0.482 1.7-1.243 1.8979-2.296 0.173-0.92-0.0529-1.858-0.175-2.771-0.1507-0.939-0.0693-1.9 0.2373-2.8 0.3603-0.931 0.8763-1.794 1.5261-2.551 1.4355-1.729 3.134-3.222 5.0332-4.423 2.16-1.384 4.5406-2.387 7.039-2.968 0.1546-0.035 0.1805 0.211 0.0269 0.246z"/>
   <path d="m40.418 184.91c-0.5178-0.591-0.8082-1.348-0.8196-2.134-0.0113-0.787 0.2573-1.552 0.7577-2.158 0.1017-0.123 0.2967 0.03 0.1949 0.152-0.4671 0.564-0.7172 1.277-0.7052 2.009 0.0121 0.732 0.2855 1.436 0.7709 1.984 0.1053 0.119-0.094 0.266-0.1987 0.148v-1e-3z"/>
   <path d="m37.407 190.99c1.603 0.121 3.1929-0.366 4.4527-1.364 0.1247-0.099 0.2718 0.099 0.1472 0.198-1.3129 1.037-2.9684 1.541-4.6362 1.41-0.159-0.012-0.1218-0.257 0.0363-0.244z"/>
   <path d="m46.303 180.76c0.1526 0.271 0.3701 0.499 0.6329 0.665s0.5627 0.264 0.8727 0.286c0.1591 0.01 0.1217 0.255-0.0363 0.244-0.3425-0.025-0.6736-0.133-0.9643-0.316-0.2908-0.183-0.5324-0.434-0.7037-0.732-0.0185-0.026-0.0261-0.059-0.0214-0.091 0.0048-0.032 0.0216-0.061 0.0471-0.082 0.0264-0.019 0.0594-0.027 0.0918-0.022 0.0324 4e-3 0.0615 0.022 0.0812 0.048z"/>
  </g>
  <path d="m175.24 182.72c-0.513-5.587-3.786-11.182-9.036-13.164 1.909 5.796 1.707 12.08-0.571 17.741-0.887 2.18-2.1 4.513-1.404 6.761 0.433 1.399 1.567 2.495 2.851 3.199 1.284 0.703 2.723 1.065 4.143 1.42l0.274 0.242c2.436-5.055 4.257-10.611 3.743-16.199z" fill="#F0F0F0"/>
  <g fill="#fff">
   <path d="m166.15 169.66c2.98 3.563 4.761 7.974 5.091 12.607 0.089 0.996 0.02 1.999-0.203 2.974-0.249 0.943-0.746 1.801-1.438 2.487-0.633 0.652-1.357 1.246-1.82 2.041-0.231 0.41-0.373 0.864-0.416 1.334-0.044 0.469 0.013 0.941 0.165 1.387 0.351 1.12 1.083 2.048 1.831 2.93 0.83 0.98 1.708 1.984 2.033 3.258 0.04 0.154 0.277 0.084 0.238-0.07-0.567-2.216-2.658-3.532-3.611-5.542-0.444-0.938-0.609-2.016-0.133-2.975 0.416-0.84 1.161-1.453 1.808-2.107 0.686-0.659 1.2-1.476 1.497-2.379 0.272-0.96 0.38-1.96 0.317-2.956-0.105-2.245-0.563-4.459-1.356-6.562-0.891-2.405-2.188-4.64-3.833-6.607-0.102-0.122-0.271 0.059-0.17 0.18z"/>
   <path d="m171.22 180.77c0.77-0.161 1.457-0.591 1.94-1.212 0.482-0.621 0.728-1.393 0.694-2.179-2e-3 -0.032-0.016-0.062-0.04-0.084-0.023-0.021-0.054-0.033-0.086-0.033-0.032 1e-3 -0.063 0.014-0.085 0.037-0.023 0.022-0.036 0.053-0.037 0.085 0.034 0.731-0.196 1.451-0.646 2.028-0.45 0.578-1.092 0.975-1.81 1.12-0.156 0.032-0.085 0.269 0.07 0.238z"/>
   <path d="m169.96 187.44c-1.353-0.868-2.329-2.214-2.734-3.77-0.04-0.154-0.277-0.084-0.237 0.07 0.424 1.619 1.443 3.017 2.853 3.918 0.134 0.085 0.252-0.132 0.118-0.218z"/>
   <path d="m169.02 173.91c-0.285 0.124-0.597 0.176-0.906 0.15-0.31-0.026-0.609-0.128-0.869-0.297-0.133-0.088-0.251 0.13-0.118 0.217 0.288 0.186 0.618 0.298 0.96 0.327 0.342 0.03 0.687-0.026 1.002-0.16 0.031-0.01 0.057-0.032 0.073-0.06 0.015-0.029 0.019-0.062 0.011-0.094-9e-3 -0.031-0.031-0.057-0.059-0.073-0.029-0.016-0.063-0.019-0.094-0.01z"/>
  </g>
  <path d="m149.7 178.98c0.082 0.056 0.163 0.113 0.245 0.172 1.094 0.771 2.124 1.63 3.079 2.568 0.075 0.071 0.15 0.144 0.223 0.218 2.277 2.284 4.11 4.97 5.407 7.923 0.515 1.176 0.939 2.389 1.27 3.629 0.457 1.712 0.815 3.605 1.783 5.025 0.099 0.15 0.207 0.292 0.324 0.428l9.144 0.294c0.021-0.01 0.042-0.017 0.064-0.027l0.364 0.028c-0.013-0.065-0.027-0.132-0.04-0.197-7e-3 -0.038-0.016-0.076-0.023-0.114-5e-3 -0.025-0.011-0.05-0.014-0.073-2e-3 -9e-3 -4e-3 -0.017-6e-3 -0.024-3e-3 -0.023-9e-3 -0.044-0.012-0.065-0.08-0.376-0.163-0.753-0.248-1.129 0-2e-3 0-2e-3 -2e-3 -4e-3 -0.623-2.876-1.585-5.667-2.865-8.316-0.04-0.079-0.079-0.159-0.122-0.238-0.595-1.173-1.285-2.296-2.062-3.357-0.428-0.58-0.885-1.138-1.369-1.671-1.253-1.376-2.715-2.547-4.332-3.468-3.224-1.837-7-2.622-10.538-1.677-0.091 0.024-0.18 0.048-0.27 0.075z" fill="#F0F0F0"/>
  <g fill="#fff">
   <path d="m149.72 179.09c4.525 1.051 8.603 3.5 11.656 7.001 0.67 0.741 1.22 1.584 1.628 2.497 0.369 0.903 0.489 1.887 0.349 2.852-0.113 0.901-0.333 1.811-0.225 2.725 0.063 0.466 0.223 0.915 0.471 1.315 0.248 0.401 0.578 0.744 0.968 1.009 0.954 0.683 2.098 0.983 3.226 1.237 1.252 0.282 2.558 0.555 3.584 1.376 0.125 0.1 0.272-0.099 0.148-0.198-1.786-1.429-4.248-1.22-6.219-2.251-0.92-0.482-1.7-1.243-1.898-2.296-0.173-0.92 0.053-1.858 0.175-2.771 0.151-0.939 0.069-1.9-0.237-2.8-0.361-0.931-0.877-1.794-1.526-2.551-1.436-1.729-3.135-3.222-5.034-4.423-2.16-1.384-4.54-2.387-7.039-2.968-0.154-0.035-0.18 0.211-0.027 0.246z"/>
   <path d="m160.46 184.91c0.518-0.591 0.808-1.348 0.82-2.134 0.011-0.787-0.257-1.552-0.758-2.158-0.102-0.123-0.297 0.03-0.195 0.152 0.467 0.564 0.717 1.277 0.705 2.009s-0.285 1.436-0.77 1.984c-0.106 0.119 0.093 0.266 0.198 0.148v-1e-3z"/>
   <path d="m163.47 190.99c-1.603 0.121-3.193-0.366-4.452-1.364-0.125-0.099-0.272 0.099-0.148 0.198 1.313 1.037 2.969 1.541 4.636 1.41 0.159-0.012 0.122-0.257-0.036-0.244z"/>
   <path d="m154.58 180.76c-0.153 0.271-0.37 0.499-0.633 0.665s-0.563 0.264-0.873 0.286c-0.159 0.01-0.121 0.255 0.037 0.244 0.342-0.025 0.673-0.133 0.964-0.316s0.532-0.434 0.704-0.732c0.018-0.026 0.026-0.059 0.021-0.091s-0.022-0.061-0.047-0.082c-0.026-0.019-0.059-0.027-0.092-0.022-0.032 4e-3 -0.061 0.022-0.081 0.048z"/>
  </g>
  <path d="m238.46 199.68c0 0.084-0.034 0.164-0.093 0.224-0.06 0.059-0.14 0.093-0.225 0.093h-237.83c-0.084215 0-0.16498-0.033-0.22453-0.093-0.059549-0.059-0.093003-0.14-0.093003-0.224 0-0.085 0.033454-0.165 0.093003-0.225 0.059548-0.06 0.14032-0.093 0.22453-0.093h237.83c0.085 0 0.165 0.034 0.225 0.093 0.059 0.06 0.093 0.14 0.093 0.225z" fill="#D5B26B"/>
  <path d="m153.19 76.848c0.664 0 1.201-0.5376 1.201-1.2008s-0.537-1.2007-1.201-1.2007c-0.663 0-1.2 0.5375-1.2 1.2007s0.537 1.2008 1.2 1.2008z" fill="#D5B26B"/>
  <path d="m138.16 84.896 16.188-10.17c0.146-0.092 0.31-0.1534 0.48-0.1804 0.171-0.0271 0.346-0.0192 0.513 0.0231 0.168 0.0423 0.326 0.1182 0.463 0.223 0.138 0.1048 0.253 0.2364 0.338 0.3869 0.085 0.1504 0.139 0.3166 0.158 0.4885 0.02 0.1719 4e-3 0.3459-0.046 0.5115s-0.133 0.3194-0.244 0.452c-0.111 0.1327-0.247 0.2415-0.402 0.3198l-17.042 8.6628c-0.095 0.0481-0.204 0.0579-0.306 0.0273-0.101-0.0306-0.187-0.0993-0.24-0.1916-0.052-0.0924-0.067-0.2013-0.041-0.3043 0.026-0.1029 0.091-0.1919 0.181-0.2484z" fill="#E4E4E4"/>
  <path d="m105.68 106.8c-0.127-0.189-0.194-0.413-0.191-0.642 4e-3 -0.228 0.077-0.45 0.21-0.636 0.274-0.367 0.638-0.656 1.058-0.839 0.866-0.441 1.799-0.736 2.761-0.873 0.731-0.104 1.53-0.137 2.097-0.61 0.563-0.47 0.877-1.348 1.607-1.422 0.706-0.07 1.249 0.702 1.957 0.75 0.872 0.059 1.443-0.962 2.292-1.171 0.568-0.14 1.153 0.107 1.686 0.349l3.198 1.451 1.64 0.744c0.572 0.259 1.218 0.609 1.326 1.229 0.149 0.851-0.798 1.452-1.607 1.754-5.78 2.133-12.131 2.134-17.911 2e-3" fill="#006753"/>
  <g fill="#D5B26B">
   <path d="m110.5 122.48c23.21 0 42.026-2.688 42.026-6.004s-18.816-6.004-42.026-6.004-42.026 2.688-42.026 6.004 18.816 6.004 42.026 6.004z"/>
   <path d="m195.75 153.7h-28.819c-1.326 0-2.401 1.075-2.401 2.402 0 1.326 1.075 2.401 2.401 2.401h28.819c1.326 0 2.401-1.075 2.401-2.401 0-1.327-1.075-2.402-2.401-2.402z"/>
   <path d="m209.72 110.88-9.518 45.215 2.479 11.573 4.68 21.84v9.817c0 0.013-1e-3 0.027-3e-3 0.04-1e-3 0.217-0.041 0.432-0.117 0.635h-3.763c-0.076-0.203-0.115-0.418-0.117-0.635-2e-3 -0.013-3e-3 -0.027-3e-3 -0.04v-9.395l-4.248-19.823-0.859-4.003-1.662-7.757-0.481-2.246v-3e-3l0.475-2.252 0.366-1.737 8.854-42.051c0.053-0.257 0.157-0.501 0.305-0.719 0.149-0.217 0.338-0.403 0.558-0.547 0.22-0.143 0.467-0.243 0.725-0.291 0.259-0.049 0.524-0.046 0.781 8e-3 0.258 0.054 0.502 0.158 0.719 0.306 0.217 0.149 0.403 0.339 0.546 0.559 0.144 0.22 0.243 0.466 0.291 0.725 0.049 0.258 0.046 0.524-8e-3 0.781z"/>
   <path d="m168.94 156.1v43.227c1e-3 0.013 0 0.027-2e-3 0.04-2e-3 0.217-0.042 0.432-0.118 0.635h-3.762c-0.076-0.203-0.116-0.418-0.117-0.635-3e-3 -0.013-3e-3 -0.027-3e-3 -0.04v-43.227c0-0.531 0.211-1.04 0.586-1.415 0.375-0.376 0.884-0.586 1.415-0.586s1.04 0.21 1.415 0.586c0.376 0.375 0.586 0.884 0.586 1.415z"/>
   <path d="m171.74 148.89h19.213c1.91 0 3.743 0.759 5.094 2.11 1.351 1.352 2.11 3.184 2.11 5.095h-33.621c0-1.911 0.759-3.743 2.11-5.095 1.351-1.351 3.184-2.11 5.094-2.11z"/>
   <path d="m200.56 170.11h-33.621c-0.53 0-1.039-0.211-1.415-0.587-0.375-0.375-0.586-0.884-0.586-1.415 0-0.53 0.211-1.039 0.586-1.415 0.376-0.375 0.885-0.586 1.415-0.586h33.621c0.531 0 1.04 0.211 1.416 0.586 0.375 0.376 0.586 0.885 0.586 1.415 0 0.531-0.211 1.04-0.586 1.415-0.376 0.376-0.885 0.587-1.416 0.587z"/>
   <path d="m44.167 158.57h33.912c1.3263 0 2.4015-1.075 2.4015-2.401v-0.728c0-1.327-1.0752-2.402-2.4015-2.402h-33.912c-1.3264 0-2.4015 1.075-2.4015 2.402v0.728c0 1.326 1.0751 2.401 2.4015 2.401z"/>
   <path d="m43.817 155.84-0.6138 2.53-2.2521 9.264-0.9712 4.003-4.5096 18.566v8.056c0.0012 0.394-0.1159 0.78-0.3361 1.107-0.1732 0.265-0.4087 0.483-0.6857 0.635h-1.9587c-0.2771-0.152-0.5126-0.37-0.6857-0.635-0.2203-0.327-0.3374-0.713-0.3363-1.107v-8.536l5.0112-20.627 3.2341-13.32-10.967-52.099c-0.0543-0.258-0.0574-0.523-9e-3 -0.781 0.0483-0.259 0.1471-0.505 0.2906-0.725 0.1436-0.22 0.3292-0.41 0.5461-0.558s0.4609-0.253 0.7181-0.307 0.5226-0.056 0.7808-8e-3c0.2583 0.049 0.5045 0.148 0.7245 0.292 0.2199 0.143 0.4094 0.329 0.5575 0.546 0.1482 0.217 0.2521 0.462 0.3058 0.719l10.137 48.145 0.467 2.22 0.5442 2.588 0.0081 0.032z"/>
   <path d="m79.717 155.81v42.451c0.0012 0.394-0.1159 0.78-0.3363 1.107-0.1731 0.264-0.4086 0.483-0.6857 0.635h-1.9612c-0.2758-0.153-0.5102-0.371-0.6831-0.635-0.2203-0.327-0.3374-0.713-0.3362-1.107v-42.451c0-0.531 0.2109-1.04 0.5862-1.415 0.3753-0.376 0.8843-0.586 1.4151-0.586 0.5307 0 1.0398 0.21 1.4151 0.586 0.3753 0.375 0.5861 0.884 0.5861 1.415z"/>
   <path d="m80.48 155.81h-38.715v-1.092c0-0.946 0.1864-1.883 0.5484-2.757 0.3621-0.874 0.8928-1.668 1.5618-2.337s1.4632-1.2 2.3373-1.562 1.8109-0.548 2.757-0.548h24.306c1.9108 0 3.7433 0.759 5.0944 2.11s2.1101 3.183 2.1101 5.094v1.092z"/>
   <path d="m77.715 171.64h-38.715c-0.5307 0-1.0397-0.211-1.4151-0.586-0.3753-0.376-0.5861-0.885-0.5861-1.416 0-0.53 0.2108-1.039 0.5861-1.415 0.3754-0.375 0.8844-0.586 1.4151-0.586h38.715c0.5307 0 1.0398 0.211 1.4151 0.586 0.3753 0.376 0.5861 0.885 0.5861 1.415 0 0.531-0.2108 1.04-0.5861 1.416-0.3753 0.375-0.8844 0.586-1.4151 0.586z"/>
  </g>
  <g fill="#FFB6B6">
   <path d="m127.47 189.09-4.206-2.012 5.778-17.581 6.208 2.969-7.78 16.624z"/>
   <path d="m155.98 187.5-4.523 1.116-6.553-17.304 6.675-1.647 4.401 17.835z"/>
   <path d="m138.64 112.68c0.6 0.975 1.557 1.676 2.667 1.954 1.11 0.279 2.285 0.112 3.273-0.464 0.199-0.12 0.388-0.256 0.564-0.408l13.298 7.631-0.577-7.833-12.54-6.046c-0.682-0.686-1.573-1.125-2.532-1.25s-1.932 0.072-2.767 0.559c-0.481 0.289-0.899 0.671-1.23 1.124s-0.568 0.967-0.697 1.513-0.148 1.112-0.055 1.665 0.296 1.082 0.596 1.555z"/>
  </g>
  <path d="m152.72 118.52 2.351 1.432 10.557 6.438c0.693 0.434 1.465 0.727 2.272 0.862s1.632 0.11 2.429-0.074 1.55-0.523 2.216-0.998 1.231-1.077 1.665-1.771c0.781-1.288 1.058-2.82 0.776-4.299l-4.692-23.442c-0.174-0.9203-0.544-1.7923-1.085-2.5564s-1.241-1.4022-2.052-1.8709-1.713-0.7568-2.645-0.8446c-0.933-0.0878-1.873 0.0267-2.757 0.3358-1.486 0.5221-2.717 1.5907-3.443 2.9883-0.726 1.3977-0.892 3.0194-0.465 4.5352l4.907 16.636-7.521-3.506-2.513 6.135z" fill="#E6E6E6"/>
  <path d="m147.17 182.65-7.238-14.516 1e-3 -0.033 0.715-26.624c9e-3 -0.237 0.028-0.474 0.057-0.708 0.126-1.068 0.464-2.1 0.993-3.035 0.529-0.936 1.239-1.757 2.088-2.416 0.814-0.636 1.746-1.105 2.743-1.377 0.997-0.273 2.037-0.344 3.062-0.21l20.696 2.678 0.717-2.935 0.134-0.049 19.83-7.267 0.114 0.186c2.597 4.226 4.412 12.667 4.907 15.153l7e-3 0.036c0.011 0.052 0.017 0.084 0.019 0.093 1.021 4.243-3.197 11.272-7.399 12.328-8.851 2.256-16.767 0.496-25.933-1.542-3.286-0.731-6.683-1.486-10.425-2.139l0.112 2.202c0.091 1.695 0.443 3.365 1.044 4.953 0.667 1.954 1.194 3.497 0.079 6.715l-0.539 1.556c0.28 0.773 0.376 1.6 0.282 2.417-0.095 0.816-0.378 1.599-0.827 2.287l-0.109 0.166 4.773 12.078-9.903 3e-3z" fill="#2F2E41"/>
  <path d="m135.28 176.23-8.631-0.802 3.057-9.779c0.631-6.385 2.221-12.638 4.717-18.549l4.17-9.884c0.01-0.22 0.028-0.442 0.055-0.658 0.126-1.068 0.464-2.1 0.993-3.035 0.529-0.936 1.239-1.757 2.089-2.416 0.814-0.636 1.746-1.104 2.742-1.377 0.997-0.272 2.038-0.344 3.062-0.21l20.665 2.674 0.9-7.554 19.835-2.654 0.091 0.148c3.467 5.64 5.668 10.057 6.927 13.897 0.063 0.196 0.119 0.396 0.167 0.595 1.028 4.272-1.538 8.602-5.719 9.654-10.656 2.716-23.47 2.641-40.318-0.239l-8.153 19.404c-0.78 1.854-1.745 3.623-2.88 5.282l-3.769 5.503z" fill="#2F2E41"/>
  <path d="m165.38 78.273c5.521 0 9.997-4.5758 9.997-10.22 0-5.6445-4.476-10.22-9.997-10.22-5.522 0-9.998 4.5758-9.998 10.22 0 5.6446 4.476 10.22 9.998 10.22z" fill="#FFB6B6"/>
  <path d="m168.27 132.55-1.435-5.139-0.352-2.535-2.062 0.069-4.047-9.34-1.571-2.463c-0.321-0.337-0.611-0.662-0.872-0.973-1.637-1.851-2.95-3.966-3.883-6.254-0.654-1.645-1.038-3.384-1.137-5.15-0.294-5.2191 1.906-10.74 6.725-16.879-0.079-0.2173-0.131-0.4432-0.157-0.673-0.086-0.7457 0.126-1.4953 0.59-2.0857 0.463-0.5903 1.141-0.9737 1.886-1.0667l4.648-0.522c0.362-0.0409 0.728-0.0095 1.077 0.0923s0.675 0.272 0.957 0.5008c0.296 0.2367 0.541 0.5297 0.722 0.8621s0.293 0.6974 0.332 1.0739c0.062 0.5823-0.052 1.1699-0.329 1.6862 2.369 0.3008 4.601 1.2787 6.429 2.8163 1.827 1.5377 3.172 3.5699 3.874 5.8528 2.781 5.1921 4.998 10.667 6.612 16.332 0.318 1.11 0.176 2.253 0.039 3.358-0.126 1.021-0.257 2.077-0.037 3.13 0.224 1.07 0.762 2.144 1.333 3.281 0.653 1.302 1.328 2.649 1.511 4.021l0.012 0.097-20.865 9.908z" fill="#E4E4E4"/>
  <path d="m154.17 105.87c0.929 2.275 2.235 4.378 3.863 6.219 0.278 0.333 0.573 0.66 0.881 0.987l1.581 2.482c5.83-4.37 10.554-21.576 10.554-21.576l-6.578-1.2796-10.301 13.167z" fill="#000" opacity=".2"/>
  <path d="m150.19 79.228c0.576 0.9894 0.743 2.1645 0.466 3.2753-0.278 1.1108-0.977 2.0696-1.951 2.6724-0.199 0.1194-0.409 0.2221-0.625 0.3069l0.465 15.326-6.636-4.1781 0.575-13.913c-0.283-0.9258-0.25-1.9191 0.091-2.8248 0.342-0.9057 0.973-1.6729 1.797-2.1818 0.479-0.2901 1.012-0.4812 1.567-0.5618 0.554-0.0807 1.12-0.0494 1.662 0.092s1.051 0.3901 1.495 0.7314c0.445 0.3413 0.817 0.7683 1.094 1.2556z" fill="#FFB6B6"/>
  <path d="m149.13 95.023-7.299 1.0379 0.314 15.114c0.018 1.078 0.312 2.133 0.853 3.066s1.312 1.712 2.239 2.263c1.132 0.666 2.45 0.946 3.756 0.798 1.305-0.148 2.527-0.717 3.481-1.62l17.231-16.574c1.212-1.1501 1.938-2.721 2.028-4.3897 0.089-1.6686-0.464-3.3082-1.546-4.5814-0.536-0.634-1.193-1.1539-1.934-1.5289-0.74-0.3749-1.548-0.5974-2.376-0.6541s-1.659 0.0535-2.444 0.3241c-0.784 0.2706-1.506 0.696-2.123 1.2511-0.171 0.1522-0.333 0.3135-0.486 0.4832l-11.377 13.089-0.317-8.0792z" fill="#E6E6E6"/>
  <path d="m88.083 193.61h5.1803l2.4645-19.982-7.6456 1e-3 8e-4 19.981z" fill="#FFB6B6"/>
  <path d="m58.72 78.57c5.7103 0 10.339-4.6291 10.339-10.339 0-5.7102-4.6291-10.339-10.339-10.339s-10.339 4.6292-10.339 10.339c0 5.7103 4.6291 10.339 10.339 10.339z" fill="#FFB6B6"/>
  <path d="m94.954 187.45h-7.3358l-1.8702-2.507-0.5062-2.362-0.4357-0.422c-0.5911-0.567-0.9732-1.317-1.0845-2.129s0.0548-1.637 0.4713-2.343l-5.3166-24.805c-1.3924-0.123-17.096-1.527-28.012-3.459-2.7936-0.494-4.9747-1.852-6.4829-4.036-3.7057-5.366-2.1182-14.049-2.1018-14.136l0.0183-0.097 0.0979-0.011 25.497-2.861 0.0344 0.016c0.8461 0.401 20.76 9.854 24.014 13.109 1.4696 1.469 4.7481 10.2 5.4821 19.482 0.1314 1.663-0.3417 3.357-0.7993 4.994-0.4281 1.533-0.8708 3.117-0.7834 4.615 0.135 2.311 0.2629 4.736 0.3803 7.206 0.0187 0.394 0.3153 0.801 0.602 1.195 0.2996 0.411 0.5826 0.8 0.6006 1.207 0.1743 3.945-2.404 7.26-2.43 7.293l-0.0401 0.051z" fill="#2F2E41"/>
  <path d="m96.624 95.769c-0.5555-0.1519-1.1374-0.1801-1.705-0.0827-0.5675 0.0974-1.1067 0.318-1.5797 0.6464-0.4731 0.3284-0.8683 0.7564-1.158 1.2541-0.2897 0.4976-0.4667 1.0527-0.5187 1.6262l-8.5908 2.6849 0.3584 5.619 12.079-3.962c0.9692 0.023 1.9133-0.31 2.6534-0.936s1.2248-1.502 1.3623-2.462c0.1374-0.9596-0.0819-1.9363-0.6165-2.745-0.5346-0.8088-1.3473-1.3933-2.284-1.6429z" fill="#FFB6B6"/>
  <path d="m91.019 105.07-6.4206 2.43-0.1642 0.318c-0.3936 0.764-1.0745 1.34-1.8928 1.601-0.8183 0.262-1.707 0.188-2.4707-0.206l-14.432 5.462s-6.4449-6.449-11.033-12.205l1.5638-9.6185c0.3622-2.2318 1.132-4.3778 2.271-6.3309 9.4102 2.0634 14.812 15.218 14.812 15.218l16.96-3.2363 0.8068 6.5673z" fill="#006753"/>
  <path d="m57.25 78.017c-2.5885 0.699-5.4421-0.2304-7.4622-1.9934-2.02-1.7631-3.2836-4.2613-4.0117-6.8417-0.5333-1.8899-0.7861-3.9877 0.0554-5.762 0.8414-1.7742 3.1061-2.9712 4.8534-2.075-1.0779-1.2558-0.5394-3.3328 0.7194-4.407 1.2589-1.0743 2.9874-1.3823 4.6338-1.5507 2.3892-0.2443 4.8572-0.2716 7.1308 0.5024 2.2736 0.7741 4.3393 2.4664 5.0509 4.7603 0.7267 0.3383 1.5452 0.4261 2.3271 0.2496 0.782-0.1766 1.4833-0.6075 1.9942-1.2253 0.1317 0.7095 0.0259 1.4427-0.301 2.0861-0.3269 0.6433-0.8568 1.161-1.5075 1.4729l3.4835-1.1294c0.5991 1.2681-0.4506 2.8376-1.7931 3.2437-1.3424 0.4061-2.7915-0.0378-4.0654-0.6245-1.2738-0.5867-2.5084-1.3284-3.8921-1.5572s-3.009 0.2158-3.6491 1.4637c-0.3352 0.6537-0.3527 1.4192-0.5473 2.1275-0.1947 0.7083-0.6877 1.4427-1.42 1.5007-0.4626 0.0366-0.9156-0.2099-1.377-0.1595-0.5719 0.0625-1.0097 0.5806-1.1621 1.1355-0.1148 0.5654-0.1162 1.148-0.0041 1.714l0.8849 6.7637" fill="#2F2E41"/>
  <path d="m44.441 146.62c-2e-3 0-4e-3 0-0.0059-1e-3l-0.0817-0.014-0.0237-0.079c-0.2972-1-0.6755-2.024-1.0413-3.013-0.5388-1.371-0.9937-2.773-1.3622-4.199-0.29-1.364-0.4911-2.744-0.602-4.134-0.1021-1.008-0.2076-2.052-0.3871-3.078-0.0796-0.456 0.2223-0.888 0.5143-1.306 0.2708-0.387 0.5265-0.752 0.4729-1.098-0.0549-0.354-0.4472-0.743-0.8266-1.118-0.4159-0.412-0.8459-0.838-0.9068-1.286-0.8288-6.116-1.2146-12.284-1.1543-18.456 0.0857-8.538 0.4716-14.358 1.1469-17.299 1.8161-7.9055 10.206-9.3482 11.519-9.5263 0.1399-0.3726 0.3549-0.7123 0.6318-0.9982 0.2768-0.2859 0.6096-0.5117 0.9775-0.6634 0.3678-0.1517 0.763-0.2261 1.1609-0.2185s0.7899 0.097 1.1518 0.2627l5.9613 2.7289c1.2092 0.5555 2.2912 1.3537 3.1789 2.3451s1.562 2.1547 1.9811 3.4177l0.8855 2.6998 0.4436 18.123-2.4582 12.763 4.803 7.204c-25.598 14.054-25.897 16.943-25.979 16.943z" fill="#006753"/>
  <path d="m85.295 191.59h1.6843l6.5758-2.675 3.5244 2.674h5e-4c1.9917 0 3.9018 0.792 5.3098 2.2 1.409 1.408 2.2 3.318 2.2 5.31v0.244l-19.294 1e-3 -3e-4 -7.754z" fill="#2F2E41"/>
  <path d="m98.776 108.7c-0.4966-0.292-1.051-0.471-1.6243-0.525s-1.1514 0.019-1.6937 0.212c-0.5423 0.194-1.0356 0.504-1.4451 0.909-0.4094 0.405-0.7252 0.894-0.9249 1.434l-8.9938 0.351-1.2119 4.189 12.786 0.655c0.9295 0.275 1.9277 0.2 2.8056-0.211 0.8778-0.412 1.5746-1.131 1.9576-2.021 0.383-0.891 0.426-1.891 0.121-2.811s-0.9373-1.697-1.7765-2.182z" fill="#FFB6B6"/>
  <path d="m91.388 116.38-9.2385-0.116-1.1694-0.015-18.796-0.237s-5.1042-4.87-9.5487-9.883l0.623-4.506c0.6076-4.4221 2.8012-8.4727 6.1724-11.398 6.3656 4.2534 10.057 12.673 10.057 12.673l6.1896 2.769c4.356 0.195 8.6006 1.438 12.374 3.624l2.0355 1.179 1.3015 5.91z" fill="#006753"/>
  <path d="m159.28 196.02-3.074 0.758-1.265-2.767-0.689 3.249-8.153 2.012c-0.391 0.097-0.802 0.066-1.174-0.088s-0.685-0.423-0.893-0.767c-0.209-0.344-0.301-0.746-0.265-1.147s0.2-0.78 0.466-1.081l5.401-6.104-0.724-2.934 6.949-1.281 3.421 10.15z" fill="#2F2E41"/>
  <path d="m126.71 196.97-2.931-1.196 0.606-2.981-2.47 2.22-7.774-3.173c-0.373-0.152-0.687-0.42-0.897-0.763s-0.305-0.745-0.271-1.146 0.196-0.781 0.461-1.083c0.266-0.303 0.621-0.513 1.014-0.6l7.959-1.753 1.142-2.798 6.371 3.055-3.21 10.218z" fill="#2F2E41"/>
  <path d="m116.5 115.41h-2.402c-2.582-3e-3 -5.057-1.03-6.883-2.856s-2.853-4.302-2.856-6.884v-0.133h21.88v0.133c-3e-3 2.582-1.03 5.058-2.856 6.884s-4.301 2.853-6.883 2.856z" fill="#E4E4E4"/>
  <g fill="#D5B26B">
   <path d="m114.1 102.06c0 0.663-1.201 1.201-1.201 1.201s-1.2-0.538-1.2-1.201 1.2-1.201 1.2-1.201 1.201 0.538 1.201 1.201z"/>
   <path d="m121.31 102.06c0 0.663-1.201 1.201-1.201 1.201s-1.201-0.538-1.201-1.201 1.201-1.201 1.201-1.201 1.201 0.538 1.201 1.201z"/>
   <path d="m116.5 104.46c0 0.664-1.201 1.201-1.201 1.201s-1.201-0.537-1.201-1.201c0-0.663 1.201-1.2 1.201-1.2s1.201 0.537 1.201 1.2z"/>
   <path d="m108.1 99.529c0.664 0 1.201-0.5376 1.201-1.2008 0-0.6631-0.537-1.2007-1.201-1.2007-0.663 0-1.2 0.5376-1.2 1.2007 0 0.6632 0.537 1.2008 1.2 1.2008z"/>
  </g>
  <path d="m90.634 95.748 18.938 2.6155c0.171 0.0236 0.336 0.0817 0.484 0.1708 0.149 0.0891 0.277 0.2073 0.379 0.3475 0.101 0.1402 0.173 0.2995 0.211 0.4682 0.038 0.1688 0.041 0.3434 0.01 0.5135-0.032 0.1697-0.097 0.3317-0.193 0.4757s-0.22 0.268-0.364 0.362c-0.145 0.095-0.307 0.16-0.478 0.19-0.17 0.03-0.345 0.026-0.513-0.013l-18.623-4.3198c-0.1034-0.0239-0.1936-0.0869-0.2518-0.1757s-0.0799-0.1966-0.0607-0.301c0.0193-0.1044 0.0781-0.1973 0.1642-0.2595s0.1928-0.0888 0.298-0.0742z" fill="#E4E4E4"/>
  <g fill="#fff">
   <path d="m113.65 41.079v-36.079h-2.401v36.079c-3.281 0.2994-6.332 1.8144-8.554 4.2476-2.221 2.4332-3.4533 5.609-3.4537 8.9038v3.6023h8.4057c0 1.2738 0.506 2.4955 1.406 3.3962 0.901 0.9008 2.123 1.4068 3.397 1.4068 1.273 0 2.495-0.506 3.396-1.4068 0.901-0.9007 1.407-2.1224 1.407-3.3962h8.405v-3.6023c-1e-3 -3.2948-1.232-6.4706-3.454-8.9038s-5.272-3.9482-8.554-4.2476z"/>
   <path d="m144.57 32.06v-27.06h-1.802v27.06c-2.461 0.2246-4.749 1.3608-6.415 3.1858-1.666 1.8249-2.59 4.2067-2.59 6.6778v2.7017h6.304c0 0.9554 0.379 1.8717 1.055 2.5472 0.675 0.6756 1.592 1.0551 2.547 1.0551s1.872-0.3795 2.547-1.0551c0.676-0.6755 1.055-1.5918 1.055-2.5472h6.304v-2.7017c0-2.4711-0.924-4.8529-2.59-6.6778-1.666-1.825-3.955-2.9612-6.415-3.1858z"/>
   <path d="m83.728 32.06v-27.06h-1.8011v27.06c-2.4609 0.2246-4.7491 1.3608-6.4153 3.1858-1.6662 1.8249-2.5901 4.2067-2.5904 6.6778v2.7017h6.304c0 0.9554 0.3795 1.8717 1.0551 2.5472 0.6755 0.6756 1.5918 1.0551 2.5471 1.0551 0.9554 0 1.8717-0.3795 2.5472-1.0551 0.6756-0.6755 1.0551-1.5918 1.0551-2.5472h6.3039v-2.7017c-2e-4 -2.4711-0.9242-4.8529-2.5904-6.6778-1.6662-1.825-3.9543-2.9612-6.4152-3.1858z"/>
  </g>
  <path d="m192.13 63.62c-1.699-1.9817-2.507-4.611-3.866-6.8614-1.358-2.2503-3.722-4.2645-6.22-3.7408-1.722 0.3611-3.052 1.8803-3.726 3.574-0.673 1.6937-0.799 3.5616-0.917 5.3915 0.041-3.7605-2.436-7.406-5.849-8.6059s-7.497 0.1386-9.641 3.1596c-0.936-0.8673-2.158-1.3612-3.433-1.388-1.276-0.0268-2.517 0.4154-3.488 1.2427-1.919 1.7144-2.343 4.9774-0.932 7.1641 1.41 2.1867 4.465 3.0013 6.707 1.7885l0.793 0.7291c-0.447 1.5603 0.419 3.4034 1.873 3.9907 1.179 0.4764 2.844 0.3971 3.285 1.6346 0.309 0.8647-0.268 1.7877-0.881 2.4522s-1.341 1.3506-1.414 2.2701c-0.112 1.3874 1.322 2.3593 2.625 2.652 3.143 0.7058 6.63-0.7495 8.441-3.5228 0.035-0.0535 0.073-0.1071 0.114-0.1607 1.016-1.2995 1.757-2.7927 2.177-4.3881 0.419-1.5954 0.509-3.2597 0.264-4.8911-0.102-0.641 1e-3 -1.1178 0.443-1.2696 1.91-0.6561 7.262 0.721 8.881 1.9656 1.62 1.2446 2.917 2.8917 4.477 4.2167 1.56 1.3249 3.549 2.3469 5.529 1.9861 1.587-0.2889 2.937-1.4407 3.845-2.8301 0.907-1.3893 1.43-3.0087 1.898-4.6181-3.509 2.0267-8.31 1.1783-10.985-1.9409z" fill="#2F2E41"/>
 </g>
 <defs>
  <clipPath id="clip0_112_205">
   <rect width="238.46" height="200" fill="#fff"/>
  </clipPath>
 </defs>
</svg>
