<svg fill="none" save-fill="" version="1.1" viewBox="0 0 221 200" xmlns="http://www.w3.org/2000/svg">
 <g clip-path="url(#clip0_112_587)">
  <path d="m220.21 100c0.023 13.931-2.879 27.711-8.519 40.449-0.182 0.411-0.366 0.82-0.553 1.227-0.093 0.204-0.187 0.406-0.282 0.611-0.095 0.202-0.19 0.406-0.287 0.608-0.125 0.262-0.249 0.521-0.376 0.781-0.158 0.327-0.317 0.651-0.482 0.975-0.02 0.045-0.042 0.09-0.067 0.135-0.137 0.274-0.274 0.548-0.417 0.822-0.029 0.06-0.059 0.12-0.092 0.178-0.162 0.319-0.329 0.638-0.499 0.955v2e-3c-0.179 0.337-0.359 0.673-0.541 1.008-0.449 0.828-0.91 1.648-1.384 2.461-0.142 0.242-0.282 0.484-0.426 0.723-0.132 0.225-0.265 0.447-0.399 0.669-0.092 0.154-0.185 0.306-0.279 0.458-0.15 0.247-0.302 0.494-0.457 0.741-2e-3 2e-3 -2e-3 3e-3 -2e-3 5e-3 -0.342 0.549-0.691 1.095-1.043 1.636h-2e-3c-0.162 0.252-0.327 0.501-0.491 0.751v2e-3c-0.497 0.748-1.003 1.489-1.519 2.222v2e-3l-5e-3 3e-3v2e-3l-5e-3 5e-3c-0.409 0.586-0.826 1.168-1.252 1.744v2e-3c-0.272 0.369-0.546 0.738-0.823 1.102-0.227 0.3-0.456 0.598-0.688 0.896-0.048 0.064-0.098 0.127-0.15 0.192v2e-3c-0.062 0.082-0.125 0.162-0.192 0.244v3e-3c-0.985 1.259-2 2.494-3.045 3.703h-2e-3c-0.055 0.068-0.113 0.132-0.17 0.197-0.055 0.065-0.115 0.13-0.172 0.197h-2e-3c-0.088 0.102-0.177 0.205-0.267 0.307-0.088 0.102-0.18 0.204-0.272 0.307v2e-3c-5.447 6.145-11.627 11.598-18.404 16.235-0.903 0.621-1.817 1.225-2.743 1.813-0.23 0.147-0.459 0.291-0.691 0.436-0.07 0.047-0.14 0.09-0.209 0.132-0.123 0.077-0.247 0.155-0.372 0.232-0.122 0.075-0.247 0.152-0.372 0.227-0.496 0.304-0.997 0.603-1.498 0.898-0.125 0.075-0.252 0.147-0.379 0.222-0.125 0.072-0.252 0.144-0.379 0.217-2e-3 2e-3 -4e-3 4e-3 -7e-3 6e-3s-5e-3 3e-3 -8e-3 4e-3l-5e-3 2e-3 -5e-3 5e-3h-3e-3c-0.628 0.362-1.259 0.718-1.898 1.062-1.142 0.624-2.296 1.225-3.461 1.803-0.289 0.145-0.581 0.287-0.873 0.429-0.242 0.118-0.486 0.235-0.728 0.35-0.067 0.032-0.132 0.064-0.199 0.094-0.202 0.095-0.404 0.19-0.606 0.282-0.22 0.105-0.442 0.205-0.661 0.304-0.247 0.113-0.492 0.222-0.738 0.332-0.928 0.414-1.866 0.813-2.806 1.197-3.359 1.375-6.791 2.562-10.282 3.556-0.162 0.047-0.326 0.095-0.491 0.14-1.494 0.419-2.998 0.802-4.514 1.149-2.646 0.609-5.316 1.108-8.01 1.499-5e-3 0-0.012 3e-3 -0.017 3e-3 -0.322 0.047-0.646 0.092-0.968 0.137-0.027 5e-3 -0.057 0.01-0.087 0.012-3e-3 3e-3 -5e-3 3e-3 -0.01 0 0 0 0 3e-3 -3e-3 0-0.356 0.048-0.713 0.095-1.072 0.14-0.025 5e-3 -0.05 7e-3 -0.075 0.01-0.334 0.04-0.67 0.08-1.007 0.117-0.362 0.04-0.723 0.077-1.087 0.115-0.277 0.027-0.554 0.055-0.831 0.08-0.024 5e-3 -0.05 7e-3 -0.075 7e-3 -0.252 0.023-0.503 0.045-0.755 0.065-0.01 0-0.023 2e-3 -0.033 2e-3 -0.219 0.02-0.439 0.035-0.658 0.053-2.581 0.204-5.187 0.306-7.818 0.304-2.855 0-5.682-0.119-8.479-0.357-0.01 0-0.02-2e-3 -0.03-2e-3 -0.596-0.05-1.191-0.105-1.785-0.165-0.157-0.015-0.312-0.032-0.469-0.047-0.03-3e-3 -0.06-5e-3 -0.09-0.01-0.047-5e-3 -0.095-0.01-0.144-0.015-0.025-2e-3 -0.053-5e-3 -0.078-0.01-0.207-0.022-0.414-0.045-0.623-0.07-0.232-0.027-0.467-0.055-0.698-0.085-0.232-0.027-0.467-0.057-0.699-0.089-0.05-5e-3 -0.102-0.01-0.152-0.02-0.169-0.02-0.339-0.043-0.506-0.068-0.082-0.01-0.162-0.022-0.242-0.035-0.162-0.022-0.322-0.044-0.484-0.069-5e-3 0-0.012-3e-3 -0.017-3e-3 -5.093-0.735-10.12-1.868-15.035-3.389h-0.0025c-0.2668-0.082-0.5336-0.167-0.8004-0.252-0.0798-0.022-0.1597-0.047-0.2395-0.075-0.6932-0.222-1.3823-0.451-2.0673-0.688-0.9451-0.324-1.8836-0.663-2.8154-1.017-0.2544-0.098-0.5063-0.195-0.7606-0.292-0.5063-0.2-1.01-0.399-1.5113-0.604-0.8553-0.349-1.7049-0.709-2.5486-1.079h-0.0025v-3e-3c-0.788-0.346-1.5702-0.704-2.3466-1.072-0.0229-7e-3 -0.0448-0.017-0.0649-0.03-0.0025 0-0.0025-3e-3 -0.0049-3e-3 -0.1721-0.079-0.3442-0.162-0.5163-0.244l-0.0049-3e-3c-4.2775-2.05-8.402-4.405-12.342-7.047-1.2643-0.845-2.5071-1.719-3.7282-2.621-0.985-0.726-1.9559-1.469-2.9127-2.232-4.7659-3.788-9.1765-8.002-13.177-12.591h-0.0025v-2e-3c-0.2818-0.322-0.5561-0.641-0.8355-0.965v-3e-3c-0.0399-0.045-0.0773-0.09-0.1147-0.135-0.177-0.206-0.3491-0.411-0.5212-0.62v-3e-3c-0.2344-0.277-0.4638-0.554-0.6882-0.833-0.0499-0.06-0.0973-0.117-0.1447-0.177h-0.0025v-2e-3c-0.1845-0.225-0.3666-0.452-0.5461-0.679-0.0923-0.112-0.1821-0.227-0.2718-0.341h-0.0025v-3e-3c-0.5437-0.686-1.0765-1.378-1.5985-2.077v-3e-3c-0.1447-0.192-0.2868-0.384-0.4265-0.578h-0.0024c-0.6684-0.903-1.3192-1.816-1.9527-2.741v-2e-3c-0.2394-0.347-0.4763-0.696-0.7107-1.048-0.2344-0.351-0.4663-0.704-0.6958-1.057h-0.0024c-0.2369-0.364-0.4714-0.73-0.7033-1.097-0.0125-0.02-0.0249-0.038-0.0349-0.055-0.2294-0.362-0.4555-0.726-0.6783-1.092-0.1795-0.292-0.3566-0.582-0.5287-0.873-0.1197-0.197-0.2369-0.392-0.3516-0.591-0.0424-0.068-0.0798-0.135-0.1172-0.2-0.2643-0.451-0.5237-0.903-0.783-1.356-0.3018-0.534-0.601-1.073-0.8928-1.611-0.1197-0.222-0.2394-0.447-0.3566-0.671-0.0424-0.073-0.0798-0.145-0.1172-0.22-0.1397-0.264-0.2793-0.528-0.4165-0.795-0.1371-0.265-0.2743-0.531-0.409-0.798-0.1346-0.267-0.2693-0.534-0.4015-0.803-0.0997-0.202-0.1995-0.407-0.2967-0.609-0.0101-0.017-0.0193-0.034-0.0274-0.052-0.0449-0.095-0.0923-0.187-0.1347-0.282-0.01-0.014-0.0175-0.03-0.0225-0.047-0.1022-0.21-0.2019-0.417-0.2992-0.626-0.1297-0.269-0.2544-0.541-0.3791-0.813-0.0897-0.19-0.1745-0.382-0.2618-0.574-0.1247-0.269-0.2469-0.541-0.3666-0.815-0.1272-0.282-0.2494-0.566-0.3716-0.851-0.0324-0.072-0.0623-0.142-0.0922-0.214-0.0574-0.13-0.1123-0.259-0.1671-0.389-0.1472-0.344-0.2918-0.693-0.4339-1.04-0.1621-0.391-0.3201-0.784-0.4739-1.177-0.1471-0.367-0.2901-0.734-0.4289-1.102l-0.0523-0.135v-2e-3c-2.1669-5.695-3.8063-11.577-4.8978-17.571v-3e-3c-0.6223-3.422-1.0652-6.875-1.3267-10.344-0.0149-0.19-0.0274-0.379-0.0399-0.569-0.1646-2.346-0.2452-4.702-0.2419-7.067 0-1.0499 0.0167-2.0948 0.0499-3.1347 0.6466-21.741 8.3966-42.672 22.065-59.591 0.601-0.7456 1.2129-1.4821 1.8355-2.2095 18.339-21.461 45.606-35.065 76.05-35.065 35.594 0 66.845 18.596 84.564 46.604 0.922 1.4514 1.805 2.9293 2.648 4.4339 8.41 14.946 12.816 31.812 12.788 48.963z" fill="#F2F2F2"/>
  <path d="m168.63 178.49c-0.359 0.993-0.717 1.985-1.075 2.978-0.067 0.189-0.137 0.376-0.204 0.566-0.913 2.529-1.826 5.058-2.741 7.588-0.289 0.145-0.581 0.287-0.873 0.429-0.242 0.118-0.486 0.235-0.728 0.35-0.067 0.032-0.132 0.064-0.199 0.094-0.202 0.095-0.404 0.19-0.606 0.282-0.22 0.105-0.442 0.205-0.661 0.304-0.247 0.113-0.491 0.222-0.738 0.332-0.129-0.334-0.202-0.687-0.217-1.045-0.011-0.562 0.055-1.122 0.197-1.666 0.217-0.898 0.561-1.778 0.788-2.678 0.012-0.042 0.022-0.087 0.032-0.13 0.506-2.149 0.272-4.406-0.663-6.406-0.564-1.192-1.372-2.277-1.723-3.549-0.306-1.194-0.17-2.458 0.381-3.561 0.205-0.428 0.462-0.828 0.766-1.192 0.072-0.092 0.149-0.179 0.229-0.267 0.734-0.806 1.708-1.352 2.778-1.558 2.048-0.364 4.187 0.725 5.332 2.436 0.469 0.687 0.755 1.483 0.83 2.312 0.125 1.498-0.394 2.967-0.905 4.381z" fill="#E4E4E4"/>
  <path d="m11.46 111c-8.5263-7.674-13.689-19.877-10.516-30.9 7.1601 10.215 17.702 17.568 29.762 20.758 4.6553 1.213 9.9595 2.078 12.792 5.967 1.7623 2.419 2.1715 5.617 1.7544 8.581-0.4172 2.964-1.5832 5.764-2.7386 8.525l0.0611 0.745c-11.26-2.191-22.588-6.003-31.114-13.676z" fill="#E6E6E6"/>
  <g fill="#fff">
   <path d="m1.1815 80.13c2.167 9.1414 7.2685 17.65 14.427 23.756 1.5476 1.32 3.2324 2.524 5.1223 3.303 1.848 0.745 3.8617 0.981 5.8319 0.685 1.8427-0.24 3.6997-0.698 5.5685-0.486 1.9698 0.224 3.6155 1.328 4.7651 2.917 1.4066 1.945 2.0307 4.279 2.5616 6.582 0.5895 2.558 1.1612 5.224 2.8499 7.315 0.2046 0.253-0.2003 0.556-0.4046 0.303-2.9381-3.637-2.5362-8.672-4.664-12.691-0.9929-1.875-2.557-3.462-4.7112-3.856-1.8837-0.345-3.7991 0.126-5.6627 0.385-1.9569 0.272-3.8501 0.206-5.7274-0.457-1.9204-0.678-3.6558-1.819-5.2304-3.094-3.5489-2.918-6.6171-6.3747-9.0921-10.245-2.8492-4.4016-4.9245-9.2582-6.136-14.36-0.074858-0.3158 0.42801-0.3711 0.50238-0.0574z"/>
   <path d="m13.177 102.02c-1.2049 1.064-2.7488 1.665-4.3561 1.696s-3.1733-0.51-4.4184-1.527c-0.25122-0.207 0.0581-0.607 0.30964-0.4 1.1576 0.949 2.6164 1.453 4.1131 1.421 1.4966-0.031 2.9326-0.597 4.0486-1.595 0.2428-0.217 0.5445 0.189 0.3031 0.405z"/>
   <path d="m25.644 108.12c0.2325-3.278-0.7791-6.523-2.833-9.0884-0.2038-0.254 0.2012-0.5567 0.4046-0.303 2.1324 2.6734 3.1782 6.0524 2.9288 9.4634-0.024 0.325-0.5243 0.252-0.5004-0.072z"/>
   <path d="m4.6271 90.035c0.55199-0.3147 1.0172-0.7615 1.3538-1.3004 0.33662-0.5389 0.53413-1.1529 0.57479-1.787 0.01987-0.3252 0.52018-0.2513 0.50044 0.0718-0.04819 0.7004-0.26714 1.3783-0.63774 1.9745s-0.88157 1.0926-1.4882 1.4457c-0.0544 0.0381-0.12126 0.0541-0.18699 0.0446-0.06572-0.0094-0.12539-0.0435-0.16688-0.0954-0.03985-0.0537-0.05688-0.1211-0.04736-0.1874 0.00951-0.0662 0.04479-0.126 0.09817-0.1664z"/>
  </g>
  <path d="m36.551 64.587c-0.0066 0.2034-0.0132 0.4069-0.0165 0.6129-0.075 2.7353 0.0724 5.4722 0.4407 8.1837 0.0251 0.21 0.0538 0.4226 0.0849 0.6315 0.9568 6.523 3.1164 12.812 6.369 18.546 1.2963 2.2808 2.7643 4.4597 4.3912 6.5177 2.2471 2.8419 4.9095 5.7449 6.0528 9.0659 0.1231 0.345 0.2248 0.697 0.3044 1.055l-10.7 15.339c-0.0418 0.022-0.0803 0.047-0.1222 0.07l-0.3992 0.632c-0.0913-0.1-0.1839-0.206-0.2752-0.306-0.0532-0.058-0.1041-0.12-0.1573-0.178-0.0347-0.039-0.0693-0.079-0.1029-0.113-0.0116-0.013-0.0231-0.027-0.0313-0.037-0.0336-0.034-0.0612-0.069-0.0913-0.101-0.519-0.59-1.0348-1.186-1.5473-1.786-0.0035-3e-3 -0.0035-3e-3 -0.0046-9e-3 -3.8935-4.583-7.4385-9.532-10.12-14.862-0.0806-0.161-0.1648-0.323-0.2405-0.491-1.1952-2.409-2.1915-4.912-2.979-7.4831-0.4266-1.4094-0.7816-2.8395-1.0637-4.2849-0.7215-3.7359-0.851-7.562-0.3835-11.338 0.9329-7.5275 4.2629-14.673 10.138-19.315 0.1503-0.1187 0.2984-0.2341 0.4523-0.3503z" fill="#E6E6E6"/>
  <g fill="#fff">
   <path d="m36.722 64.757c-3.7735 8.6036-4.8229 18.468-2.7837 27.654 0.4409 1.9858 1.0609 3.9619 2.101 5.7215 1.0271 1.7074 2.4925 3.1088 4.2442 4.0578 1.6156 0.918 3.3744 1.67 4.7386 2.965 1.4379 1.365 2.0873 3.237 2.0484 5.198-0.0477 2.4-0.9547 4.639-1.9177 6.798-1.0693 2.397-2.2179 4.87-2.1282 7.556 0.0109 0.325-0.4947 0.323-0.5056-2e-3 -0.1561-4.673 3.1959-8.451 3.9166-12.941 0.3363-2.095 0.0432-4.304-1.4396-5.915-1.2967-1.41-3.1097-2.187-4.7535-3.102-1.726-0.961-3.198-2.153-4.2978-3.8132-1.1249-1.6978-1.8235-3.6538-2.3132-5.6196-1.0772-4.466-1.4455-9.0736-1.0914-13.654 0.3751-5.2298 1.6421-10.357 3.7462-15.16 0.1303-0.2972 0.5652-0.0386 0.4357 0.2567z"/>
   <path d="m33.118 89.46c-1.6028 0.1244-3.1976-0.325-4.4996-1.2679-1.302-0.943-2.2265-2.318-2.6083-3.8796-0.0761-0.3163 0.4117-0.4495 0.488-0.1328 0.3528 1.4548 1.2141 2.7356 2.4283 3.6112 1.2143 0.8755 2.7015 1.2882 4.1933 1.1636 0.3242-0.0268 0.3207 0.479-0.0017 0.5055z"/>
   <path d="m39.403 101.83c2.1592-2.4769 3.3054-5.6771 3.2099-8.9619-0.0097-0.3255 0.4959-0.3234 0.5056 0.0016 0.0929 3.4185-1.1066 6.7464-3.3592 9.3193-0.2149 0.245-0.57-0.115-0.3563-0.359z"/>
   <path d="m33.509 74.74c0.6301 0.0811 1.2706 0.0044 1.8638-0.2232s1.1206-0.5989 1.5349-1.0807c0.2116-0.2477 0.5665 0.1125 0.3563 0.3586-0.4602 0.5302-1.0431 0.9396-1.698 1.1926-0.6548 0.2529-1.3617 0.3416-2.0587 0.2583-0.0664-0.0024-0.1294-0.0299-0.1762-0.077s-0.0739-0.1103-0.0758-0.1766c6e-4 -0.067 0.0275-0.131 0.075-0.1782 0.0475-0.0471 0.1117-0.0737 0.1787-0.0738z"/>
  </g>
  <path d="m134.29 65.61c1.487-8.2207-0.983-17.549-7.726-22.48 0.433 9.0744-2.357 18.01-7.877 25.225-2.139 2.7749-4.807 5.6385-4.703 9.1406 0.064 2.1791 1.255 4.2025 2.817 5.723 1.562 1.5206 3.482 2.6122 5.379 3.6867l0.297 0.4561c5.505-6.2833 10.327-13.53 11.813-21.751z" fill="#E6E6E6"/>
  <g fill="#fff">
   <path d="m126.45 43.256c2.858 6.2966 3.659 13.334 2.289 20.111-0.269 1.4644-0.767 2.8772-1.475 4.1864-0.732 1.2531-1.786 2.2873-3.053 2.9953-1.167 0.6839-2.441 1.2482-3.422 2.204-0.495 0.4967-0.88 1.0925-1.128 1.7482-0.249 0.6556-0.356 1.3565-0.315 2.0565 0.058 1.7469 0.74 3.369 1.461 4.932 0.802 1.7355 1.662 3.5255 1.622 5.4822-5e-3 0.237 0.363 0.2307 0.368-6e-3 0.069-3.4043-2.408-6.1236-2.975-9.3864-0.265-1.5225-0.072-3.1341 0.992-4.3216 0.931-1.0385 2.244-1.6215 3.432-2.3037 1.246-0.6726 2.308-1.64 3.094-2.8176 0.773-1.2689 1.325-2.6602 1.631-4.1142 0.742-3.2624 0.967-6.6213 0.666-9.9534-0.323-3.8049-1.294-7.5266-2.872-11.004-0.098-0.2152-0.412-0.0228-0.315 0.191z"/>
   <path d="m129.3 61.211c1.168 0.0754 2.325-0.267 3.264-0.966 0.94-0.699 1.6-1.7091 1.863-2.8499 0.052-0.231-0.304-0.3234-0.357-0.092-0.243 1.0627-0.858 2.0036-1.734 2.6527s-1.955 0.9638-3.042 0.8871c-0.237-0.0164-0.229 0.3519 6e-3 0.3681z"/>
   <path d="m124.84 70.28c-1.596-1.7836-2.461-4.1031-2.423-6.4961 4e-3 -0.2371-0.364-0.2308-0.368 6e-3 -0.035 2.4903 0.87 4.9023 2.535 6.7547 0.159 0.1764 0.414-0.0891 0.256-0.2646z"/>
   <path d="m128.88 50.495c-0.458 0.065-0.926 0.0152-1.36-0.1449s-0.821-0.4255-1.128-0.7724c-0.156-0.1784-0.411 0.0873-0.256 0.2645 0.34 0.3817 0.769 0.6744 1.248 0.8523 0.479 0.178 0.995 0.2358 1.502 0.1686 0.048-0.0023 0.094-0.023 0.127-0.0577 0.034-0.0348 0.053-0.081 0.054-0.1294-1e-3 -0.0487-0.021-0.0951-0.056-0.129s-0.082-0.0526-0.131-0.052z"/>
  </g>
  <path d="m99.15 50.082c0.0946 0.1141 0.1891 0.2283 0.2829 0.3454 1.2626 1.5414 2.3986 3.1828 3.3966 4.9082 0.079 0.1321 0.157 0.2673 0.232 0.4014 2.359 4.1823 3.92 8.7661 4.605 13.518 0.271 1.8913 0.398 3.8004 0.379 5.7109-0.026 2.6385-0.264 5.4972 0.559 7.9189 0.083 0.2536 0.181 0.5019 0.295 0.7433l13.001 4.0588c0.035-0.0056 0.068-0.0082 0.102-0.0138l0.512 0.1858c8e-3 -0.0984 0.014-0.2007 0.022-0.2992 4e-3 -0.0571 6e-3 -0.1151 0.011-0.1722 2e-3 -0.0384 5e-3 -0.0768 9e-3 -0.1112 1e-3 -0.0128 1e-3 -0.0256 1e-3 -0.0354 4e-3 -0.0345 5e-3 -0.067 8e-3 -0.0985 0.035-0.5717 0.067-1.1446 0.094-1.7188 1e-3 -3e-3 1e-3 -3e-3 -1e-3 -0.0069 0.197-4.3755 0.031-8.8059-0.803-13.07-0.025-0.1283-0.049-0.2595-0.08-0.3896-0.386-1.9201-0.929-3.8054-1.623-5.6371-0.383-1.0017-0.816-1.9834-1.298-2.9413-1.251-2.4727-2.883-4.7333-4.836-6.6988-3.895-3.9178-8.999-6.5464-14.452-6.5983-0.1395-0.0012-0.2763-0.0016-0.4167 2e-4z" fill="#E6E6E6"/>
  <g fill="#fff">
   <path d="m99.128 50.256c6.0727 3.307 10.949 8.4433 13.937 14.68 0.667 1.331 1.119 2.7589 1.342 4.2311 0.17 1.441-0.049 2.9013-0.634 4.2292-0.521 1.2491-1.198 2.4665-1.406 3.8204-0.096 0.6946-0.044 1.4017 0.152 2.0749 0.197 0.6732 0.533 1.2972 0.987 1.8313 1.098 1.3602 2.619 2.2449 4.136 3.0584 1.685 0.9032 3.449 1.8147 4.595 3.401 0.139 0.1922 0.429-0.0346 0.291-0.2265-1.994-2.7599-5.609-3.4398-8.027-5.7034-1.128-1.0563-1.944-2.4589-1.809-4.048 0.118-1.3896 0.815-2.6456 1.353-3.9058 0.59-1.287 0.855-2.6988 0.774-4.1122-0.147-1.4787-0.544-2.9216-1.175-4.2671-1.372-3.0516-3.214-5.8686-5.461-8.3478-2.549-2.8437-5.565-5.2304-8.9183-7.057-0.2076-0.113-0.3427 0.2298-0.1364 0.342z"/>
   <path d="m112.22 62.871c0.978-0.6433 1.696-1.6133 2.025-2.7369s0.248-2.3276-0.229-3.3969c-0.097-0.216-0.437-0.0752-0.34 0.1412 0.446 0.9949 0.521 2.1164 0.213 3.1621-0.309 1.0456-0.981 1.9466-1.896 2.5401-0.198 0.1292 0.029 0.4188 0.227 0.2904z"/>
   <path d="m114.12 72.798c-2.348-0.4633-4.435-1.7945-5.845-3.7283-0.14-0.1917-0.43 0.035-0.29 0.2265 1.471 2.0095 3.646 3.3905 6.09 3.8672 0.233 0.0453 0.277-0.3204 0.045-0.3654z"/>
   <path d="m105.43 54.571c-0.327 0.3277-0.73 0.5692-1.173 0.7028-0.443 0.1335-0.912 0.1549-1.365 0.0623-0.233-0.0482-0.276 0.3175-0.046 0.3654 0.502 0.1 1.02 0.0757 1.51-0.0707 0.49-0.1465 0.936-0.4107 1.3-0.7695 0.037-0.031 0.061-0.0749 0.067-0.1229s-6e-3 -0.0964-0.035-0.1355c-0.03-0.0383-0.074-0.0631-0.122-0.0691-0.049-6e-3 -0.098 0.0074-0.136 0.0372z"/>
  </g>
  <path d="m32.737 94.269c1.8 0 3.5262 0.715 4.799 1.9877 1.2727 1.2728 1.9877 2.999 1.9877 4.7986-2e-4 1.575-0.5477 3.1-1.5487 4.315s-2.3932 2.045-3.9384 2.346v11.1h-4.3319v-24.547h3.0323z" fill="#D5B26B"/>
  <path d="m198.98 159.29v2.324c-0.985 1.259-2 2.494-3.045 3.703-0.112 0.133-0.227 0.262-0.344 0.394-0.177 0.207-0.359 0.412-0.541 0.616v-7.037h3.93z" fill="#CACACA"/>
  <path d="m187.44 154.44c-0.869 1e-3 -1.702 0.347-2.316 0.961s-0.96 1.447-0.961 2.316v4.716c1e-3 0.868 0.347 1.701 0.961 2.315 0.614 0.615 1.447 0.96 2.316 0.961h8.142c0.117-0.132 0.232-0.262 0.344-0.394 1.045-1.209 2.06-2.444 3.045-3.703 0.065-0.082 0.13-0.165 0.192-0.247 0.564-0.721 1.117-1.454 1.661-2.192 0.424-0.578 0.845-1.162 1.257-1.75 2e-3 -3e-3 5e-3 -3e-3 5e-3 -5e-3 0.688-0.978 1.359-1.971 2.012-2.978h-16.658z" fill="#D5B26B"/>
  <path d="m208.41 114.08c-0.501-0.173-1.027-0.261-1.556-0.26h-1.339c-0.488 1e-3 -0.973 0.074-1.439 0.217-0.984 0.309-1.843 0.924-2.453 1.754-0.61 0.831-0.94 1.834-0.941 2.865v39.339c0 0.147 7e-3 0.292 0.02 0.434 0.021 0.252 0.064 0.503 0.127 0.748 0.424-0.578 0.845-1.162 1.257-1.751 2e-3 -2e-3 5e-3 -2e-3 5e-3 -5e-3 0.688-0.977 1.359-1.97 2.012-2.977 0.352-0.541 0.701-1.087 1.043-1.636 2.468-3.961 4.655-8.091 6.543-12.359v-21.793c-1e-3 -1.01-0.318-1.993-0.906-2.814s-1.418-1.437-2.373-1.762z" fill="#D5B26B"/>
  <path d="m43.356 159.29v4.696c-1.1222-1.342-2.207-2.714-3.2544-4.115-0.1446-0.192-0.2868-0.387-0.4289-0.581h3.6833z" fill="#CACACA"/>
  <path d="m50.957 154.44h-14.646c0.4614 0.711 0.931 1.413 1.409 2.107 0.6334 0.925 1.2843 1.839 1.9526 2.741 0.1422 0.194 0.2843 0.389 0.4289 0.581 1.0499 1.401 2.1347 2.773 3.2544 4.115 0.2095 0.254 0.4215 0.506 0.6359 0.758 0.2743 0.324 0.5528 0.646 0.8354 0.967h6.1297c0.8685-1e-3 1.7011-0.346 2.3149-0.961 0.6139-0.614 0.959-1.447 0.9594-2.315v-4.716c-4e-4 -0.869-0.3455-1.702-0.9594-2.316-0.6138-0.614-1.4464-0.96-2.3149-0.961z" fill="#D5B26B"/>
  <path d="m35.12 114.37c-0.6905-0.358-1.4567-0.546-2.2344-0.547h-1.3367c-0.6325 0-1.2589 0.124-1.8429 0.367-0.8848 0.366-1.6413 0.985-2.174 1.781-0.5326 0.795-0.8175 1.731-0.8185 2.688v16.9c2.518 6.62 5.7357 12.952 9.5985 18.888 0.4614 0.711 0.931 1.413 1.409 2.107v-37.895c-7e-4 -0.884-0.2434-1.752-0.7019-2.508s-1.1153-1.372-1.8991-1.781z" fill="#D5B26B"/>
  <path d="m89.599 187.4 4.393-1.008-1.797-17.425-6.4838 1.488 3.8878 16.945z" fill="#FFB6B6"/>
  <path d="m93.596 172.29c-0.09-0.307-0.151-0.622-0.1821-0.94-0.0365-0.377-0.11-0.748-0.2194-1.11-0.1249-0.329-0.2793-0.646-0.4614-0.948-0.0872-0.159-0.1795-0.319-0.2618-0.481-0.0829-0.162-0.1545-0.329-0.2145-0.501-2.5711-7.594-6.1596-17.913-8.6484-23.953-1.4638-3.553-10.466-4.735-18.96-5.037-1.0349-0.038-2.0623-0.063-3.0673-0.075-0.3466-5e-3 -0.6908-0.01-1.0324-0.013-0.8728-5e-3 -1.7232-4e-3 -2.5412 5e-3 -0.1072 0-0.2144 0-0.3217 3e-3 -0.596 5e-3 -1.1737 0.013-1.7331 0.025-3.8454 0.075-6.6709 0.249-7.1746 0.282l-4.4863-2.821-0.8753-0.551-0.0923 0.551-0.7057 4.205-1.2045 7.174 3.02 0.848 1.9601 0.549 11.613 3.257 2.4689 0.693 0.0149 5e-3 4.1571-8e-3 11.367-0.019 0.5486 1.453c-0.197 0.306-0.3266 0.651-0.3802 1.011s-0.0299 0.727 0.0694 1.077 0.272 0.675 0.5066 0.953c0.2347 0.278 0.5258 0.503 0.8541 0.66l0.4265 0.202 5.1945 13.746c0.0159 1.243 0.4042 2.453 1.1147 3.474 0.0873 0.127 0.182 0.251 0.2818 0.374l0.1147 0.137 1.9975 3.908 1.1895-0.275 5.0624-1.159 0.0249-0.05c0.0025-8e-3 0.0673-0.145 0.1621-0.384v-8e-3c0.3965-0.99 1.2743-3.696 0.414-6.259z" fill="#2F2E41"/>
  <path d="m105.94 188.56c-0.19-0.838-0.543-1.63-1.039-2.331-0.496-0.7-1.127-1.296-1.854-1.752-0.728-0.456-1.538-0.764-2.385-0.906-0.8474-0.141-1.714-0.114-2.5504 0.081l-3.5087-1.584-0.9825 0.691-4.0748 2.858-0.3367 0.077-1.0923 0.25 1.5088 6.576 16.364-3.753-0.049-0.207z" fill="#2F2E41"/>
  <path d="m84.232 178.42-1.4838 12.03-0.0499 0.394-0.2195 1.793c-0.8553-0.349-1.7082-0.711-2.5511-1.082-0.788-0.347-1.5702-0.704-2.3466-1.073v-12.06l6.6509-2e-3z" fill="#FFB6B6"/>
  <path d="m52.034 95.722c4.9683 0 8.9958-4.0276 8.9958-8.9958s-4.0275-8.9958-8.9958-8.9958c-4.9682 0-8.9958 4.0276-8.9958 8.9958s4.0276 8.9958 8.9958 8.9958z" fill="#FFB6B6"/>
  <path d="m85.187 183.01c-0.2494-0.342-0.5087-0.698-0.5237-1.04-0.0573-1.204-0.1172-2.396-0.1795-3.563-0.0449-0.816-0.0898-1.621-0.1347-2.409-5e-3 -0.1-0.0125-0.2-0.0174-0.297-0.0773-1.304 0.3092-2.681 0.6808-4.015 0.1222-0.437 0.2443-0.878 0.3541-1.319 0.2743-0.984 0.3896-2.005 0.3416-3.025-0.6384-8.078-3.4912-15.674-4.7706-16.953-1.9451-1.945-10.741-6.439-16.289-9.172-0.9851-0.486-1.8679-0.915-2.5911-1.264-0.6409-0.312-1.1571-0.559-1.5087-0.729-0.2693-0.127-0.4439-0.209-0.5037-0.239l-0.03-0.015-2.0074 0.225-0.3217 0.037-1.7706 0.199-11.519 1.292-1.7781 0.2-2.5162 0.284-2.2718 0.254-0.0848 8e-3 -0.0149 0.085c0 2e-3 -5e-3 0.02-0.01 0.052-0.3907 2.465-0.3907 4.976 0 7.441 0.2943 1.674 0.8504 3.374 1.8379 4.806 0.1347 0.194 0.2743 0.381 0.4239 0.561 0.0051 9e-3 0.0119 0.018 0.02 0.025 0.0324 0.04 0.0648 0.08 0.0997 0.12v2e-3c1.1296 1.314 2.6458 2.237 4.3317 2.636 0.2494 0.067 0.5038 0.122 0.7656 0.167 2.7905 0.494 5.9426 0.948 9.0324 1.347 1.2793 0.164 2.5486 0.319 3.7756 0.464 2.4563 0.289 4.7506 0.533 6.6409 0.728 2.6483 0.269 4.5087 0.436 4.9227 0.471l4.6259 21.581c-0.363 0.614-0.5079 1.333-0.411 2.04 0.0969 0.706 0.4298 1.359 0.9447 1.853l0.379 0.367 0.4389 2.054 1.4464 1.936 0.182 0.244h6.3816l0.0349-0.042c0.0224-0.03 2.2668-2.913 2.1147-6.347-0.015-0.354-0.2618-0.691-0.5212-1.05z" fill="#2F2E41"/>
  <path d="m85.012 110.69c-0.4833-0.132-0.9896-0.156-1.4834-0.072-0.4937 0.085-0.9629 0.277-1.3745 0.563-0.4115 0.285-0.7554 0.658-1.0075 1.091-0.252 0.433-0.406 0.916-0.4512 1.415l-7.4745 2.336 0.3118 4.888 10.509-3.447c0.8432 0.02 1.6646-0.269 2.3085-0.814 0.644-0.545 1.0657-1.307 1.1853-2.142s-0.0713-1.685-0.5364-2.388c-0.4651-0.704-1.1722-1.213-1.9872-1.43z" fill="#FFB6B6"/>
  <path d="m80.136 118.78-5.5863 2.114-0.1429 0.277c-0.1695 0.329-0.4022 0.621-0.6848 0.86s-0.6094 0.42-0.962 0.533c-0.3525 0.113-0.7238 0.155-1.0926 0.124-0.3688-0.03-0.728-0.134-1.057-0.303l-12.556 4.752s-5.6073-5.611-9.5995-10.619l1.3606-8.369c0.3151-1.942 0.9849-3.809 1.9759-5.508 8.1873 1.795 12.887 13.241 12.887 13.241l14.756-2.816 0.702 5.714z" fill="#006753"/>
  <path d="m50.755 95.241c-2.2521 0.6082-4.7349-0.2004-6.4925-1.7344-1.7575-1.5339-2.8569-3.7075-3.4904-5.9526-0.4639-1.6443-0.6839-3.4695 0.0482-5.0132 0.7321-1.5436 2.7025-2.5851 4.2227-1.8054-0.9378-1.0925-0.4693-2.8996 0.626-3.8343 1.0952-0.9347 2.5992-1.2026 4.0316-1.3491 2.0788-0.2126 4.226-0.2364 6.2042 0.437 1.9781 0.6735 3.7754 2.1459 4.3945 4.1417 0.6323 0.2944 1.3444 0.3708 2.0247 0.2172 0.6804-0.1536 1.2906-0.5285 1.7351-1.0661 0.1146 0.6174 0.0225 1.2553-0.2619 1.815-0.2845 0.5598-0.7454 1.0102-1.3116 1.2816l3.0308-0.9826c0.5213 1.1033-0.3921 2.4688-1.5601 2.8221-1.1679 0.3533-2.4287-0.0329-3.5371-0.5433-1.1083-0.5105-2.1824-1.1558-3.3863-1.3549-1.2039-0.199-2.6181 0.1878-3.1749 1.2736-0.2917 0.5686-0.3069 1.2347-0.4762 1.8509-0.1694 0.6163-0.5984 1.2553-1.2355 1.3057-0.4025 0.0319-0.7966-0.1825-1.198-0.1387-0.2464 0.0485-0.4732 0.1678-0.6528 0.3433-0.1796 0.1754-0.3041 0.3994-0.3583 0.6446-0.1 0.4919-0.1012 0.9988-0.0036 1.4913l0.7699 5.8847 0.0515 0.2659z" fill="#2F2E41"/>
  <path d="m62.057 139.96-0.4763-0.716-3.4763-5.215-0.0698-0.102 1.0748-5.576 0.3342-1.741 0.7306-3.788-0.212-8.67-0.1521-6.135-0.0224-0.963-0.7706-2.349c-0.3653-1.098-0.9522-2.11-1.7243-2.973-0.7721-0.862-1.713-1.557-2.7645-2.0417l-5.187-2.3741c-0.6104-0.2779-1.3063-0.3019-1.9344-0.0668-0.6281 0.2352-1.1372 0.7102-1.4151 1.3206-0.0232 0.051-0.0447 0.1028-0.0645 0.1552-0.7107 0.0973-3.7955 0.616-6.4114 2.6458-1.8327 1.394-3.112 3.393-3.611 5.641-5e-3 0.017-0.0075 0.035-0.0125 0.052-0.3466 1.549-0.606 3.993-0.773 7.305-0.1123 2.189-0.1829 4.754-0.212 7.695-0.0466 4.903 0.2292 9.803 0.8254 14.669 0.0574 0.464 0.1172 0.925 0.1796 1.389 0.0523 0.389 0.4264 0.76 0.788 1.117 0.3317 0.327 0.6733 0.666 0.7207 0.972 0.0424 0.27-0.1297 0.552-0.3342 0.846-0.0249 0.037-0.0523 0.075-0.0773 0.112-0.2543 0.362-0.5162 0.738-0.4488 1.135 0.1571 0.893 0.2493 1.8 0.3366 2.678 0.0975 1.209 0.2724 2.41 0.5237 3.596 0.0873 0.364 0.187 0.731 0.2993 1.097 0.2618 0.861 0.5785 1.719 0.8877 2.556 0.2669 0.729 0.5437 1.477 0.7781 2.215 0.0449 0.137 0.0873 0.272 0.1272 0.406l0.0199 0.07 0.0723 0.013h5e-3c0.0983-0.175 0.2153-0.339 0.3492-0.489 6e-3 -0.01 0.0136-0.018 0.0224-0.025 0.0349-0.042 0.0748-0.087 0.1197-0.135 0.5461-0.596 1.7332-1.666 4.3317-3.469 0.581-0.401 1.2319-0.837 1.9601-1.316 2.6708-1.748 6.4015-4.025 11.613-6.965 1.3068-0.738 2.7091-1.519 4.207-2.342l-0.1571-0.234z" fill="#006753"/>
  <path d="m90.03 194.82c-0.6057-0.609-1.326-1.091-2.1191-1.419s-1.6434-0.496-2.5018-0.494l-2.7108-2.055-0.3566-0.272-2.4139 0.983c0.8429 0.371 1.6957 0.733 2.5511 1.082 2.6758 1.092 5.4081 2.068 8.197 2.928-0.196-0.267-0.4119-0.519-0.6459-0.753z" fill="#2F2E41"/>
  <g fill="#FFB6B6">
   <path d="m150.24 187.23-3.395-1.624 4.664-14.191 5.01 2.397-6.279 13.418z"/>
   <path d="m173 184.95c-0.987 0.616-1.987 1.214-3 1.795v8e-3l-0.015 2e-3 -5e-3 3e-3 -0.384 0.094-0.551-1.456-1.272-3.359-3.466-9.152 5.389-1.329 0.304 1.234 2.28 9.245 0.653 2.643 0.067 0.272z"/>
   <path d="m159.25 125.56c0.484 0.786 1.256 1.352 2.152 1.577s1.844 0.09 2.642-0.374c0.161-0.098 0.313-0.208 0.455-0.33l10.734 6.16-0.467-6.323-10.121-4.88c-0.55-0.554-1.269-0.908-2.043-1.009s-1.56 0.058-2.234 0.452c-0.771 0.463-1.327 1.214-1.545 2.087s-0.081 1.797 0.383 2.569c0.014 0.023 0.029 0.047 0.044 0.071z"/>
  </g>
  <path d="m170.62 130.27 1.898 1.156 8.521 5.196c0.559 0.35 1.182 0.587 1.832 0.696 0.651 0.109 1.317 0.089 1.96-0.059s1.25-0.421 1.788-0.804c0.537-0.383 0.994-0.868 1.344-1.427l2e-3 -4e-3c0.631-1.04 0.855-2.276 0.627-3.471l-3.787-18.921c-0.14-0.742-0.439-1.446-0.876-2.063s-1.002-1.132-1.656-1.51-1.383-0.611-2.135-0.682c-0.753-0.071-1.512 0.022-2.225 0.271-1.199 0.422-2.193 1.284-2.779 2.412s-0.72 2.437-0.375 3.661l3.96 13.428-6.07-2.831-2.029 4.952z" fill="#006753"/>
  <path d="m205.56 148.92c-3e-3 -7e-3 -8e-3 -0.035-0.015-0.077l-8e-3 -0.027c-0.017-0.09-0.037-0.19-0.059-0.3-0.509-2.526-1.163-5.022-1.958-7.474-0.471-1.501-1.095-2.95-1.863-4.324-0.025-0.045-0.052-0.09-0.08-0.134l-0.092-0.15-0.776 0.284-0.029 0.01-11.791 4.322-3.409 1.249-0.107 0.04-0.581 2.369-8.152-1.055-6.644-0.86-1.908-0.247c-0.827-0.108-1.667-0.05-2.471 0.17-0.805 0.22-1.557 0.598-2.214 1.112-0.686 0.532-1.259 1.194-1.686 1.95-0.427 0.755-0.699 1.587-0.801 2.449-0.025 0.19-0.04 0.382-0.047 0.571l-0.576 21.489v0.027l0.267 0.534 5.573 11.182h3.863l2.28-2e-3h1.852l-3.852-9.749 0.087-0.132c0.362-0.556 0.591-1.188 0.667-1.847 0.077-0.659 0-1.327-0.226-1.951l0.434-1.257c0.9-2.596 0.474-3.843-0.065-5.419-0.484-1.281-0.768-2.629-0.843-3.997l-0.089-1.778c2.261 0.396 4.369 0.838 6.399 1.282 0.678 0.147 1.35 0.296 2.015 0.446 1.892 0.421 3.72 0.828 5.511 1.167 3.626 0.691 7.1 1.112 10.668 0.85 0.07-5e-3 0.14-0.01 0.21-0.017 0.867-0.07 1.74-0.182 2.623-0.339 0.496-0.09 0.995-0.192 1.499-0.312 0.139-0.035 0.282-0.07 0.421-0.105 0.388-0.102 0.762-0.252 1.112-0.446 0.5-0.279 0.964-0.615 1.384-1.002 3e-3 -3e-3 5e-3 -3e-3 5e-3 -5e-3 0.689-0.978 1.36-1.971 2.013-2.978 0.352-0.541 0.701-1.087 1.042-1.636 0.499-1.369 0.689-2.751 0.417-3.883z" fill="#2F2E41"/>
  <path d="m205.64 144.89c-0.037-0.16-0.085-0.322-0.135-0.479-0.395-1.19-0.857-2.357-1.381-3.496-0.589-1.297-1.294-2.686-2.135-4.19-0.406-0.728-0.843-1.485-1.311-2.272-0.235-0.394-0.478-0.795-0.731-1.204-0.01-0.019-0.021-0.037-0.033-0.055l-0.072-0.12-11.666 1.562-4.344 0.581-0.259 2.164-0.063 0.536c-2e-3 0-2e-3 0 0 3e-3l-0.174 1.461v3e-3l-0.232 1.93-0.02-3e-3 -6.446-0.835-6.644-0.86-3.568-0.462c-0.827-0.108-1.667-0.05-2.472 0.17-0.804 0.22-1.557 0.598-2.214 1.112-0.686 0.532-1.259 1.194-1.685 1.95-0.427 0.755-0.7 1.587-0.801 2.449-0.023 0.175-0.038 0.354-0.045 0.531l-3.367 7.978c-2.014 4.771-3.297 9.818-3.805 14.972l-2.469 7.893 0.352 0.032 5.231 0.487 1.382 0.129 3.042-4.441c0.347-0.506 0.676-1.027 0.983-1.561 0.505-0.872 0.954-1.775 1.344-2.703l6.581-15.661c0.509 0.087 1.013 0.17 1.511 0.249 2.307 0.374 4.522 0.679 6.644 0.915 6.9 0.771 12.875 0.831 18.194 0.178 1.494-0.183 2.938-0.422 4.332-0.719 0.511-0.107 1.016-0.222 1.514-0.346 0.117-0.028 0.231-0.055 0.346-0.085 1.031-0.266 1.978-0.786 2.756-1.513 0.778-0.726 1.361-1.636 1.696-2.647 0.399-1.17 0.456-2.431 0.164-3.633z" fill="#2F2E41"/>
  <path d="m180.84 97.787c4.457 0 8.07-3.6934 8.07-8.2493 0-4.556-3.613-8.2493-8.07-8.2493-4.456 0-8.069 3.6933-8.069 8.2493 0 4.5559 3.613 8.2493 8.069 8.2493z" fill="#FFB6B6"/>
  <path d="m200 133.52c-0.012-0.093-0.027-0.185-0.047-0.277-0.192-1.013-0.691-2.005-1.172-2.968-0.459-0.917-0.895-1.785-1.075-2.648-0.177-0.85-0.072-1.703 0.03-2.526 0.11-0.893 0.224-1.816-0.033-2.711-1.302-4.572-3.091-8.991-5.336-13.182-0.567-1.843-1.652-3.483-3.128-4.724-1.475-1.241-3.276-2.031-5.189-2.273 0.223-0.417 0.316-0.892 0.267-1.362-0.031-0.304-0.123-0.599-0.269-0.8671-0.146-0.2684-0.343-0.5052-0.581-0.6966-0.229-0.1843-0.492-0.3215-0.774-0.4037-0.282-0.0821-0.578-0.1077-0.87-0.0751l-3.75 0.4215c-0.602 0.0754-1.149 0.3853-1.523 0.862-0.374 0.477-0.545 1.082-0.475 1.684 0.021 0.185 0.063 0.368 0.125 0.544-3.482 4.434-5.27 8.474-5.434 12.294v2e-3c-0.02 0.442-0.018 0.884 7e-3 1.325 0.079 1.426 0.389 2.83 0.918 4.157 0.624 1.533 1.461 2.971 2.484 4.272 0.209 0.264 0.426 0.523 0.651 0.778 0.209 0.249 0.444 0.511 0.703 0.785l0.656 1.028 0.611 0.96 3.267 7.538 1.663-0.054 0.232 1.658 0.055 0.386 1.077 3.858 0.08 0.29 1.474-0.701 8.793-4.175 6.573-3.122-0.01-0.077z" fill="#006753"/>
  <path d="m171.79 120.06c0.75 1.836 1.804 3.533 3.117 5.019 0.225 0.269 0.463 0.533 0.712 0.797l1.276 2.003c4.706-3.527 8.518-17.414 8.518-17.414l-5.309-1.033-8.314 10.628z" fill="#000" opacity=".2"/>
  <path d="m168.57 98.558c0.465 0.7985 0.6 1.7471 0.377 2.6431-0.224 0.897-0.789 1.671-1.574 2.157-0.162 0.097-0.331 0.18-0.505 0.248l0.375 12.37-5.356-3.372 0.464-11.23c-0.228-0.747-0.202-1.5487 0.073-2.2797 0.276-0.7311 0.786-1.3503 1.451-1.7611 0.768-0.4647 1.689-0.6052 2.561-0.3906s1.623 0.7668 2.087 1.535c0.017 0.0266 0.032 0.0533 0.047 0.0803z" fill="#FFB6B6"/>
  <path d="m167.72 111.31-5.891 0.838 0.254 12.199c0.014 0.87 0.251 1.722 0.688 2.475s1.059 1.381 1.807 1.826c0.914 0.538 1.978 0.764 3.032 0.644 1.053-0.119 2.04-0.578 2.81-1.307l13.908-13.377c0.978-0.929 1.564-2.197 1.636-3.544 0.072-1.346-0.374-2.67-1.248-3.697-0.856-1.014-2.079-1.645-3.401-1.756-1.322-0.112-2.633 0.307-3.646 1.163-0.04 0.033-0.079 0.067-0.118 0.102-0.137 0.123-0.268 0.253-0.391 0.39l-9.184 10.565-0.256-6.521z" fill="#006753"/>
  <g fill="#2F2E41">
   <path d="m173.15 184.64-0.217 0.04-2.933 0.541-0.955 0.177-1.504 0.277 0.534 2.152c0.641-0.347 1.274-0.703 1.905-1.067l5e-3 -3e-3 0.015-2e-3v-8e-3c1.013-0.578 2.013-1.177 3-1.795 0.07-0.043 0.14-0.085 0.21-0.132l-0.06-0.18z"/>
   <path d="m151.32 184.92-3.673-1.761-0.576-0.277-0.92 2.26-6.424 1.414c-0.318 0.069-0.605 0.239-0.819 0.483-0.215 0.244-0.346 0.551-0.373 0.875-0.028 0.324 0.048 0.648 0.218 0.926 0.169 0.277 0.423 0.493 0.724 0.616l6.277 2.561 1.993-1.793-0.489 2.406 2.364 0.965 2.591-8.246-0.893-0.429z"/>
   <path d="m202.43 85.96c-1.371-1.5995-2.023-3.7217-3.12-5.5381s-3.005-3.442-5.021-3.0194c-1.389 0.2914-2.463 1.5177-3.007 2.8848-0.543 1.367-0.645 2.8747-0.741 4.3516 0.034-3.0352-1.966-5.9776-4.72-6.9461-2.755-0.9685-6.051 0.1118-7.782 2.5502-0.755-0.7001-1.741-1.0987-2.771-1.1203s-2.031 0.3353-2.815 1.003c-1.549 1.3838-1.891 4.0175-0.753 5.7824 1.139 1.765 3.605 2.4225 5.414 1.4436l0.64 0.5885c-0.36 1.2594 0.338 2.747 1.512 3.2211 0.952 0.3845 2.296 0.3205 2.652 1.3193 0.249 0.698-0.217 1.443-0.712 1.9793-0.494 0.5363-1.082 1.0902-1.141 1.8323-0.09 1.1198 1.067 1.9043 2.119 2.1405 2.537 0.5697 5.351-0.6049 6.813-2.8434 0.028-0.0432 0.059-0.0864 0.092-0.1297 0.82-1.0489 1.418-2.2541 1.757-3.5418 0.338-1.2878 0.411-2.631 0.213-3.9478-0.082-0.5174 1e-3 -0.9022 0.357-1.0247 1.542-0.5296 5.862 0.5819 7.169 1.5865 1.308 1.0045 2.354 2.334 3.614 3.4034 1.259 1.0694 2.864 1.8943 4.463 1.6031 1.28-0.2332 2.369-1.1629 3.102-2.2843 0.733-1.1213 1.155-2.4285 1.532-3.7275-2.831 1.6359-6.707 0.9511-8.866-1.5665z"/>
  </g>
  <path d="m176.64 135.13v47.431c-0.903 0.621-1.817 1.225-2.743 1.813v-46.1c0-1.336-0.449-2.421-1-2.424h-41.519c-0.554 3e-3 -1 1.088-1.003 2.424v61.212c-0.553 0.055-1.107 0.107-1.661 0.152-0.229 0.02-0.461 0.038-0.69 0.055-0.132-0.244-0.262-0.491-0.392-0.74v-63.823c0-0.369 0.015-0.741 0.04-1.108 0.225-3.112 1.339-5.386 2.643-5.391h43.641c0.158 1e-3 0.314 0.034 0.459 0.097 1.093 0.464 1.955 2.499 2.172 5.13 0.035 0.419 0.055 0.845 0.053 1.272z" fill="#E4E4E4"/>
  <path d="m110.02 135.13v64.167c-0.038 0.06-0.075 0.117-0.113 0.177-0.937-0.095-1.871-0.204-2.8-0.327v-60.873c0-1.336-0.476-2.421-1.062-2.424h-44.068c-0.5861 3e-3 -1.0624 1.088-1.0624 2.424v42.26c-0.985-0.726-1.9559-1.47-2.9127-2.232v-43.172c0-0.369 0.015-0.741 0.0424-1.108 0.2369-3.112 1.4215-5.386 2.808-5.391h46.316c0.167 0 0.332 0.033 0.487 0.097 1.159 0.464 2.077 2.499 2.309 5.13 0.037 0.419 0.055 0.845 0.055 1.272z" fill="#E4E4E4"/>
  <path d="m95.255 113.81 2.8881 12.707 1.8454 2.021h1.3313l-5.487-23.104-0.2715 3.925v3e-3l-0.3063 4.448z" fill="#D5B26B"/>
  <path d="m104.87 129.19c-9e-3 -0.019-0.02-0.038-0.033-0.055-0.027-0.06-0.065-0.114-0.112-0.159l-0.337-0.337-1.77-1.773c-0.13-0.127-0.305-0.199-0.487-0.2h-7e-3l-1.249 8e-3 -1.0753 7e-3 -1.5013 0.01-16.945 0.108c-0.182 2e-3 -0.3559 0.076-0.4841 0.205-0.1283 0.129-0.2007 0.303-0.2017 0.485 0.0011 0.101 0.0232 0.201 0.0649 0.292l0.1296 0.277 0.2719 0.581 0.3541 0.761 0.1745 0.374c0.0557 0.119 0.1441 0.22 0.255 0.29 0.1108 0.071 0.2395 0.109 0.371 0.109h21.948c0.116-3e-3 0.229-0.033 0.33-0.089 0.1-0.057 0.186-0.137 0.249-0.234 0.062-0.097 0.1-0.208 0.109-0.323 0.01-0.115-9e-3 -0.231-0.054-0.337z" fill="#D5B26B"/>
  <path d="m81.492 129.4 0.1732 0.376c0.0564 0.118 0.1451 0.219 0.256 0.289 0.1108 0.071 0.2393 0.108 0.3707 0.109h21.949c0.115-2e-3 0.228-0.032 0.329-0.089 0.101-0.056 0.187-0.136 0.249-0.233 0.063-0.097 0.1-0.208 0.11-0.323 9e-3 -0.115-0.01-0.231-0.056-0.337-7e-3 -0.02-0.018-0.038-0.031-0.055l-23.35 0.263z" fill="#000" opacity=".17"/>
  <path d="m95.562 109.36v3e-3l4.6985 19.176h1.06l-5.4869-23.104-0.2716 3.925z" fill="#000" opacity=".17"/>
  <path d="m102.93 55.695-0.688-0.0923c-0.189-0.0246-0.38 0.0265-0.531 0.1421l-0.411 0.3168-4.5815 5.7306c-0.1513 0.117-0.25 0.2892-0.2743 0.4788l-0.2569 1.9502-6.394 48.651c-0.0228 0.18 0.0226 0.363 0.1272 0.511l3.0125 8.304 0.0897 0.13 0.1945 0.277c0.1002 0.14 0.2468 0.241 0.414 0.284l0.4364 0.11c0.0992 0.025 0.2024 0.028 0.303 0.01s0.1962-0.057 0.2805-0.115c0.0847-0.057 0.1561-0.131 0.2095-0.218 0.0533-0.087 0.0874-0.184 0.0998-0.286l0.7805-5.93v-2e-3l0.4988-3.806 0.4214-3.209v-3e-3l6.8929-52.426c0.025-0.1893-0.027-0.3808-0.143-0.5322s-0.288-0.2505-0.477-0.2754l-4e-3 -4e-4z" fill="#D5B26B"/>
  <path d="m101.3 56.062-8.3657 65.626 0.0909 0.129 0.1939 0.276c0.1 0.141 0.2467 0.242 0.414 0.284l0.4371 0.11c0.0989 0.025 0.2019 0.028 0.3022 0.01s0.1957-0.057 0.28-0.114c0.0842-0.058 0.1554-0.132 0.2089-0.219s0.088-0.184 0.1014-0.285l8.5923-65.375c0.025-0.1899-0.027-0.3818-0.143-0.5337-0.117-0.1519-0.289-0.2512-0.479-0.2762l-0.69-0.0907c-0.093-0.0127-0.189-0.0066-0.28 0.0179-0.091 0.0246-0.177 0.067-0.251 0.1249l-0.412 0.3158z" fill="#000" opacity=".17"/>
  <path d="m101.05 57.938-4.4398 6.3369-5.2768 40.15 2.8608 5.676 6.8558-52.163z" fill="#006753"/>
  <path d="m144.3 113.81-2.888 12.707-1.845 2.021h-1.331l5.487-23.104 0.271 3.925v3e-3l0.306 4.448z" fill="#D5B26B"/>
  <path d="m158.2 126.8-16.942-0.108-1.504-0.01-1.072-7e-3 -1.25-8e-3h-0.01c-0.181 1e-3 -0.355 0.072-0.484 0.2l-2.109 2.11c-0.047 0.046-0.085 0.1-0.113 0.159-0.013 0.017-0.024 0.036-0.032 0.055-0.046 0.106-0.065 0.222-0.055 0.337s0.047 0.226 0.11 0.323 0.148 0.177 0.249 0.234c0.101 0.056 0.214 0.087 0.329 0.089h21.948c0.132-1e-3 0.261-0.038 0.372-0.109s0.2-0.171 0.256-0.29l0.173-0.374 0.354-0.761 0.401-0.858c0.043-0.091 0.065-0.191 0.065-0.292-1e-3 -0.182-0.073-0.356-0.202-0.485-0.128-0.129-0.302-0.203-0.484-0.205z" fill="#D5B26B"/>
  <path d="m158.06 129.4-0.174 0.376c-0.056 0.118-0.145 0.219-0.256 0.289-0.111 0.071-0.239 0.108-0.37 0.109h-21.949c-0.115-2e-3 -0.228-0.032-0.329-0.089-0.101-0.056-0.187-0.136-0.249-0.233-0.063-0.097-0.1-0.208-0.11-0.323-9e-3 -0.115 0.01-0.231 0.056-0.337 7e-3 -0.02 0.018-0.038 0.031-0.055l23.35 0.263z" fill="#000" opacity=".17"/>
  <path d="m143.99 109.36v3e-3l-4.699 19.176h-1.059l5.487-23.104 0.271 3.925z" fill="#000" opacity=".17"/>
  <path d="m149.76 112.87-6.65-50.601c-0.025-0.1896-0.123-0.3619-0.275-0.4788l-4.578-5.7306-0.412-0.3168c-0.152-0.1154-0.344-0.1664-0.533-0.1421l-0.689 0.0923c-0.19 0.0244-0.362 0.1233-0.479 0.2748-0.117 0.1516-0.169 0.3433-0.144 0.5331l6.893 52.429v2e-3l0.421 3.207 0.501 3.808v5e-3l0.778 5.925c0.013 0.102 0.047 0.199 0.101 0.286s0.126 0.162 0.211 0.218c0.084 0.058 0.179 0.097 0.279 0.115s0.203 0.015 0.302-0.01l0.437-0.11c0.167-0.043 0.313-0.144 0.413-0.284l0.195-0.277 0.09-0.13 3.012-8.304c0.106-0.148 0.151-0.331 0.127-0.511z" fill="#D5B26B"/>
  <path d="m138.26 56.062 8.366 65.626-0.09 0.129-0.194 0.276c-0.1 0.141-0.247 0.242-0.414 0.284l-0.437 0.11c-0.099 0.025-0.202 0.028-0.303 0.01-0.1-0.018-0.195-0.057-0.28-0.114-0.084-0.058-0.155-0.132-0.209-0.219-0.053-0.087-0.088-0.184-0.101-0.285l-8.592-65.375c-0.025-0.1899 0.026-0.3818 0.143-0.5337s0.289-0.2512 0.479-0.2762l0.69-0.0907c0.093-0.0127 0.188-0.0066 0.28 0.0179 0.091 0.0246 0.176 0.067 0.251 0.1249l0.411 0.3158z" fill="#000" opacity=".17"/>
  <path d="m138.5 57.938 4.44 6.3369 5.276 40.15-2.86 5.676-6.856-52.163z" fill="#006753"/>
  <g fill="#D5B26B">
   <path d="m55.985 138.89c7e-4 0.125-0.0101 0.251-0.0324 0.374-0.0099 0.06-0.0224 0.117-0.0374 0.175-0.1214 0.463-0.3931 0.874-0.7726 1.166-0.3795 0.293-0.8453 0.452-1.3246 0.452h-9.3841v22.382c4e-4 0.473-0.1547 0.933-0.4414 1.309-0.2144-0.252-0.4264-0.504-0.6359-0.758-1.1222-1.342-2.207-2.714-3.2543-4.115v-18.818h-4.1896c-0.5586 0-1.0955-0.217-1.4985-0.603-0.403-0.387-0.6409-0.915-0.6641-1.473s0.1702-1.104 0.5397-1.523c0.3696-0.419 0.8867-0.679 1.4434-0.725 0.0598-5e-3 0.1197-8e-3 0.1795-8e-3h17.905c0.5743 0 1.1253 0.228 1.5317 0.634 0.4063 0.406 0.6349 0.957 0.6353 1.531z"/>
   <path d="m205.52 138.89c1e-3 0.439-0.132 0.867-0.381 1.228-0.248 0.362-0.601 0.64-1.01 0.797-0.194 0.074-0.399 0.12-0.606 0.134-0.055 5e-3 -0.112 8e-3 -0.167 8e-3h-4.187v20.314c-0.063 0.082-0.127 0.165-0.192 0.247-0.985 1.259-2 2.494-3.045 3.703-0.334-0.188-0.611-0.461-0.804-0.792-0.192-0.331-0.293-0.708-0.291-1.09v-22.382h-9.386c-0.277 1e-3 -0.552-0.052-0.808-0.157-0.323-0.129-0.611-0.335-0.837-0.599-0.227-0.264-0.386-0.578-0.465-0.917v-3e-3c-0.116-0.492-0.055-1.01 0.174-1.461-2e-3 -3e-3 -2e-3 -3e-3 0-3e-3 0.099-0.198 0.229-0.38 0.384-0.538 0.202-0.207 0.444-0.372 0.71-0.484s0.553-0.17 0.842-0.17h17.905c0.574 0 1.124 0.228 1.53 0.634s0.634 0.956 0.634 1.53v1e-3z"/>
   <path d="m205.38 97.157c-0.891 0-1.774 0.1756-2.597 0.5166-0.823 0.3411-1.572 0.841-2.202 1.4712s-1.13 1.3785-1.471 2.2015c-0.341 0.824-0.517 1.706-0.517 2.597 1e-3 1.575 0.548 3.1 1.549 4.315s2.393 2.045 3.939 2.347v11.099h4.331v-24.547h-3.032z"/>
  </g>
  <path d="m86.884 121.94c-0.4321-0.253-0.9145-0.409-1.4133-0.456-0.4987-0.047-1.0018 0.016-1.4736 0.184-0.4718 0.169-0.901 0.438-1.2573 0.791-0.3562 0.352-0.6309 0.778-0.8047 1.248l-7.8251 0.305-1.0543 3.645 11.124 0.569c0.8087 0.24 1.6773 0.175 2.441-0.183 0.7638-0.358 1.3697-0.984 1.703-1.759s0.3708-1.645 0.1054-2.445c-0.2655-0.801-0.8153-1.477-1.5455-1.899z" fill="#FFB6B6"/>
  <path d="m80.456 128.62-8.0379-0.101-1.0175-0.013-16.354-0.206s-4.4409-4.237-8.3079-8.599l0.542-3.92c0.5287-3.848 2.4372-7.372 5.3704-9.917 5.5384 3.7 8.7502 11.026 8.7502 11.026l5.3853 2.409c3.7899 0.17 7.483 1.251 10.766 3.153l1.771 1.026 1.1323 5.142z" fill="#006753"/>
  <path d="m105.71 198.96h28.992c-1.977 0.289-3.973 0.518-5.987 0.685h-17.018c-2.015-0.167-4.011-0.395-5.987-0.685z" fill="#ccc"/>
  <path d="m111.54 184.36c0.561-5.064 3.627-10.087 8.427-11.797-1.832 5.229-1.755 10.938 0.217 16.116 0.767 1.994 1.829 4.132 1.159 6.161-0.417 1.263-1.465 2.238-2.643 2.855-1.177 0.617-2.489 0.922-3.785 1.22l-0.253 0.215c-2.125-4.631-3.684-9.706-3.122-14.77z" fill="#ccc"/>
  <g fill="#fff">
   <path d="m120.02 172.66c-2.766 3.183-4.458 7.158-4.837 11.358-0.097 0.903-0.052 1.815 0.135 2.704 0.21 0.86 0.646 1.648 1.263 2.282 0.564 0.603 1.21 1.154 1.617 1.884 0.203 0.376 0.324 0.791 0.356 1.218 0.031 0.426-0.028 0.854-0.174 1.256-0.338 1.012-1.018 1.841-1.712 2.629-0.771 0.876-1.585 1.772-1.902 2.923-0.038 0.139-0.252 0.072-0.214-0.067 0.552-2.003 2.473-3.161 3.372-4.97 0.419-0.844 0.587-1.819 0.172-2.699-0.364-0.769-1.03-1.338-1.606-1.944-0.611-0.609-1.064-1.36-1.318-2.185-0.231-0.876-0.312-1.785-0.238-2.688 0.134-2.037 0.587-4.039 1.342-5.935 0.851-2.168 2.066-4.174 3.593-5.933 0.095-0.108 0.245 0.059 0.151 0.167z"/>
   <path d="m115.22 182.66c-0.696-0.159-1.313-0.56-1.741-1.132-0.427-0.572-0.637-1.278-0.593-1.99 2e-3 -0.029 0.016-0.056 0.037-0.076 0.022-0.019 0.05-0.03 0.079-0.029 0.029 2e-3 0.057 0.014 0.077 0.035s0.032 0.049 0.032 0.078c-0.043 0.663 0.153 1.32 0.552 1.852s0.975 0.904 1.624 1.048c0.141 0.032 0.073 0.246-0.067 0.214z"/>
   <path d="m116.25 188.74c1.243-0.765 2.152-1.971 2.546-3.376 0.039-0.14 0.253-0.072 0.214 0.067-0.413 1.462-1.361 2.715-2.657 3.508-0.123 0.075-0.226-0.124-0.103-0.199z"/>
   <path d="m117.33 176.47c0.256 0.118 0.538 0.17 0.82 0.152 0.281-0.018 0.554-0.106 0.794-0.255 0.122-0.077 0.225 0.122 0.103 0.199-0.265 0.164-0.566 0.26-0.877 0.281-0.312 0.021-0.623-0.035-0.908-0.163-0.027-0.01-0.05-0.029-0.064-0.056-0.014-0.026-0.017-0.056-9e-3 -0.085 9e-3 -0.028 0.029-0.051 0.055-0.065 0.027-0.014 0.058-0.017 0.086-8e-3z"/>
  </g>
  <path d="m134.78 181.4c-0.075 0.051-0.15 0.101-0.225 0.153-1.006 0.681-1.956 1.443-2.839 2.278-0.069 0.064-0.139 0.129-0.206 0.195-2.106 2.034-3.816 4.442-5.043 7.101-0.488 1.058-0.894 2.152-1.215 3.273-0.444 1.546-0.802 3.259-1.704 4.531-0.093 0.134-0.194 0.262-0.302 0.384l-8.306 0.111c-0.019-0.01-0.038-0.017-0.058-0.026l-0.331 0.019c0.013-0.058 0.027-0.119 0.039-0.178 8e-3 -0.034 0.017-0.069 0.024-0.103 5e-3 -0.023 0.01-0.046 0.014-0.066 2e-3 -8e-3 4e-3 -0.016 5e-3 -0.021 4e-3 -0.021 9e-3 -0.04 0.013-0.059 0.079-0.341 0.16-0.681 0.244-1.021 0-2e-3 0-2e-3 2e-3 -4e-3 0.614-2.6 1.535-5.118 2.743-7.501 0.037-0.071 0.073-0.143 0.114-0.214 0.56-1.055 1.205-2.063 1.929-3.013 0.398-0.519 0.823-1.017 1.271-1.493 1.161-1.228 2.509-2.266 3.992-3.075 2.958-1.613 6.399-2.261 9.596-1.343 0.082 0.023 0.162 0.047 0.243 0.072z" fill="#ccc"/>
  <g fill="#fff">
   <path d="m134.77 181.5c-4.125 0.877-7.869 3.031-10.7 6.157-0.621 0.662-1.135 1.418-1.521 2.24-0.35 0.813-0.476 1.704-0.365 2.582 0.087 0.821 0.271 1.65 0.157 2.478-0.064 0.423-0.218 0.827-0.449 1.187-0.232 0.359-0.537 0.665-0.896 0.898-0.878 0.605-1.921 0.857-2.95 1.069-1.142 0.235-2.332 0.461-3.278 1.188-0.114 0.089-0.244-0.094-0.13-0.182 1.646-1.267 3.877-1.036 5.684-1.938 0.843-0.421 1.565-1.099 1.762-2.052 0.173-0.833-0.016-1.688-0.111-2.518-0.121-0.855-0.031-1.727 0.263-2.539 0.343-0.839 0.826-1.613 1.429-2.29 1.332-1.545 2.9-2.871 4.644-3.93 1.985-1.219 4.163-2.089 6.441-2.574 0.141-0.03 0.16 0.194 0.02 0.224z"/>
   <path d="m124.92 186.6c-0.46-0.546-0.71-1.238-0.707-1.952s0.26-1.404 0.724-1.946c0.095-0.11 0.269 0.032 0.175 0.141-0.434 0.504-0.673 1.147-0.675 1.812-1e-3 0.665 0.235 1.308 0.666 1.814 0.094 0.11-0.09 0.24-0.183 0.131z"/>
   <path d="m122.08 192.07c1.453 0.138 2.905-0.278 4.066-1.163 0.115-0.087 0.245 0.096 0.13 0.183-1.209 0.919-2.721 1.348-4.233 1.201-0.144-0.014-0.106-0.235 0.037-0.221z"/>
   <path d="m130.33 182.93c0.134 0.249 0.327 0.46 0.563 0.615s0.506 0.249 0.788 0.274c0.144 0.012 0.106 0.234-0.038 0.221-0.31-0.028-0.609-0.133-0.87-0.304-0.261-0.17-0.476-0.402-0.626-0.676-0.016-0.024-0.023-0.054-0.018-0.083s0.021-0.055 0.044-0.073c0.025-0.017 0.055-0.024 0.084-0.019s0.055 0.021 0.073 0.045z"/>
   <path d="m124.18 34.589c-15.538 4.0873-32.755 6.5736-50.262 7.2544-2.5656 0.1397-5.1373 0.1222-7.7008-0.0524-5.6334-0.4738-10.459-2.2444-15.833-3.212-2.5836-0.4638-5.4614-0.803-8.0624-1.3042 0.601-0.7456 1.2128-1.4821 1.8354-2.2095 5.6085 0.4738 11.304 2.0249 16.98 2.7456 9.6484 1.227 20.459-0.1421 27.773-3.5187 3.5486-1.6384 6.2668-3.6832 9.803-5.3291 0.4809-0.2469 1.0019-0.4065 1.539-0.4714 1.119-0.1022 2.102 0.3492 2.902 0.7532 5.933 2.995 14.547 5.4289 22.542 4.0897 0.596 0.4664-0.537 0.9975-1.517 1.2544z"/>
   <path d="m159.56 45.129c0.073-0.0133 0.147-0.0237 0.22-0.0364-0.308-0.1903-0.597-0.4082-0.864-0.6509l0.644 0.6873z"/>
   <path d="m207.42 51.038c-3.339 0.2668-6.696 0.4655-10.07 0.596-2.566 0.1385-5.137 0.121-7.701-0.0524-5.633-0.4763-10.459-2.2444-15.833-3.2119-4.925-0.8853-10.91-1.3118-14.037-3.2768 8.082-1.399 16.456 1.4488 24.79 2.5087 6.742 0.8289 13.575 0.4915 20.202-0.9975 0.923 1.4514 1.806 2.9293 2.649 4.4339z"/>
   <path d="m132.25 88.446c-7.822-26.85-12.427-54.534-12.427-82.501v-2.0268h-2.599v2.0268c0 27.966-4.604 55.651-12.427 82.501-0.378 1.2998-0.569 2.6468-0.569 4.0005 0 0.512 0.101 1.019 0.297 1.492s0.483 0.9028 0.845 1.2648c0.362 0.3621 0.792 0.6492 1.265 0.8452 0.473 0.1959 0.98 0.2968 1.492 0.2968h5.198c0 0.6826 0.135 1.3586 0.396 1.9893s0.644 1.2037 1.127 1.6868c0.483 0.482 1.056 0.865 1.686 1.126 0.631 0.262 1.307 0.396 1.99 0.396 0.682 0 1.358-0.134 1.989-0.396 0.631-0.261 1.204-0.644 1.687-1.126 0.482-0.4831 0.865-1.0561 1.126-1.6868 0.262-0.6307 0.396-1.3067 0.396-1.9893h4.045v11.204c-0.57 0.017-1.113 0.251-1.516 0.655s-0.637 0.947-0.652 1.518c-0.015 0.57 0.188 1.125 0.569 1.551 0.381 0.425 0.91 0.688 1.479 0.736 0.569 0.047 1.134-0.125 1.58-0.482 0.446-0.356 0.739-0.87 0.818-1.435s-0.061-1.139-0.392-1.605c-0.331-0.465-0.827-0.786-1.387-0.897v-11.245h0.654c1.034 0 2.026-0.4107 2.757-1.1419 0.731-0.7311 1.142-1.7228 1.142-2.7568 1e-3 -1.3538-0.191-2.7008-0.569-4.0006z"/>
  </g>
 </g>
 <defs>
  <clipPath id="clip0_112_587">
   <rect width="220.21" height="200" fill="#fff"/>
  </clipPath>
 </defs>
</svg>
