<svg width="116" height="71" viewBox="0 0 116 71" fill="none" xmlns="http://www.w3.org/2000/svg">
<path d="M18.9557 58.3133C18.9557 58.6547 19.3336 59.3496 19.3336 59.3496C19.3702 59.3862 20.1503 60.1664 23.6854 59.5325C23.7585 59.5203 23.8438 59.5081 23.917 59.4837C27.513 58.8131 31.621 56.9844 31.621 56.9844L43.9694 50.4009L64.6556 36.7828L65.9843 34.6248L66.4597 32.7473L66.2647 32.345L66.0331 31.8695L64.0217 30.7357L63.3391 30.8698L38.557 43.1468C38.557 43.1468 31.8404 46.6946 27.7446 49.1695C23.6488 51.6444 20.3453 55.3629 20.3453 55.3629C20.2966 55.4482 18.9557 57.9719 18.9557 58.3133Z" fill="#B16D19"/>
<path d="M18.9557 58.3133C18.9557 58.6547 19.3336 59.3496 19.3336 59.3496C19.3702 59.3618 19.9553 59.5568 20.3332 59.4349C20.4063 59.4105 25.5748 58.2036 26.1965 57.9841C28.7564 57.2526 31.6454 55.7896 31.6454 55.7896L43.9937 49.2061L64.6556 35.6002L66.4597 32.7595L66.2647 32.3572L66.0331 31.8817L64.0217 30.7479L63.3391 30.882L38.557 43.1468C38.557 43.1468 31.8404 46.6946 27.7446 49.1695C23.6488 51.6444 20.3453 55.3629 20.3453 55.3629C20.2966 55.4482 18.9557 57.9719 18.9557 58.3133Z" fill="#D5B26B"/>
<path d="M18.9557 58.3133L19.5408 58.8863C19.5408 58.8863 23.8682 58.1304 29.0124 55.7774C34.1687 53.4122 43.7012 47.5358 43.7012 47.5358L66.2647 32.3572L66.0331 31.8817L35.3024 46.7068L20.3453 55.3751C20.2966 55.4482 18.9557 57.9719 18.9557 58.3133Z" fill="#1B514A"/>
<path d="M20.3331 55.3751L20.4063 56.6187C20.4063 56.6187 23.405 56.6187 28.8417 53.8999C34.2784 51.1812 43.6158 46.0363 44.1278 45.7924C44.6276 45.5486 66.0331 31.8817 66.0331 31.8817L64.0217 30.7479C64.0217 30.7479 42.3115 41.8545 38.5814 43.8418C34.8635 45.829 26.0624 50.4253 24.4289 51.8273C22.8077 53.2172 20.3331 55.3751 20.3331 55.3751Z" fill="#006753"/>
<path d="M33.0472 56.387L33.6323 54.863L33.4617 53.5829L32.8887 51.8395C32.8522 51.8029 32.0233 50.852 31.426 50.4984C30.8408 50.1571 28.6832 49.2183 28.5857 49.1695L28.5491 49.1573L27.0376 49.4256L27.0864 49.6816L28.5126 49.4256C28.8051 49.5475 30.7555 50.4009 31.2797 50.7179C31.7917 51.0227 32.5352 51.8395 32.6571 51.9858L33.1935 53.6439L33.352 54.8265L32.7912 56.2895L33.0472 56.387Z" fill="#E2E3E4"/>
<path d="M34.2174 30.5528L37.8379 45.6218L37.2771 46.5239L36.8505 46.0241L33.2422 29.9067L34.2174 30.5528Z" fill="#ECEBEA"/>
<path d="M37.2284 68.8225C37.2284 69.1639 37.6063 69.8588 37.6063 69.8588C37.6428 69.8954 38.423 70.6757 41.9581 70.0417C42.0312 70.0295 42.1165 70.0173 42.1897 69.9929C45.7857 69.3224 49.8937 67.4936 49.8937 67.4936L62.2421 60.9101L82.9283 47.292L84.257 45.1341L84.7324 43.2566L84.5374 42.8542L84.3058 42.3788L82.2944 41.2449L81.6118 41.3791L56.8176 53.6439C56.8176 53.6439 50.1009 57.1917 46.0051 59.6666C41.9093 62.1415 38.6059 65.8599 38.6059 65.8599C38.5571 65.9575 37.2284 68.4811 37.2284 68.8225Z" fill="#8B5E3C"/>
<path d="M37.2284 68.8225C37.2284 69.1639 37.6063 69.8588 37.6063 69.8588C37.6428 69.871 38.228 70.0661 38.6059 69.9442C38.679 69.9198 43.8475 68.7128 44.4692 68.4934C47.0291 67.7619 49.9181 66.2989 49.9181 66.2989L62.2664 59.7154L82.9283 46.1094L84.7324 43.2688L84.5374 42.8664L84.3058 42.391L82.2944 41.2571L81.6118 41.3912L56.8176 53.6561C56.8176 53.6561 50.1009 57.2039 46.0051 59.6788C41.9093 62.1537 38.6059 65.8722 38.6059 65.8722C38.5571 65.9575 37.2284 68.4812 37.2284 68.8225Z" fill="#1B514A"/>
<path d="M37.2284 68.8225L37.8135 69.3955C37.8135 69.3955 42.1409 68.6397 47.2851 66.2867C52.4414 63.9215 61.9739 58.0451 61.9739 58.0451L84.5374 42.8542L84.3057 42.3788L53.5628 57.216L38.6059 65.8843C38.5571 65.9575 37.2284 68.4812 37.2284 68.8225Z" fill="#1B514A"/>
<path d="M38.6058 65.8843L38.679 67.1279C38.679 67.1279 41.6777 67.1279 47.1144 64.4092C52.5511 61.6904 61.8886 56.5455 62.4005 56.3017C62.9003 56.0578 84.3058 42.391 84.3058 42.391L82.2945 41.2571C82.2945 41.2571 60.5842 52.3638 56.8541 54.351C53.1362 56.3383 44.3351 60.9345 42.7016 62.3366C41.0804 63.7264 38.6058 65.8843 38.6058 65.8843Z" fill="#006753"/>
<path d="M51.7831 60.0323C51.7831 60.0323 53.0874 59.3252 53.3312 58.8741C53.575 58.423 54.1967 55.7652 54.1967 55.7652L53.9163 55.2166L53.1849 55.6067L53.4531 56.1798L52.6364 58.6303L51.4296 59.4593L51.7831 60.0323Z" fill="#D7D6D2"/>
<path d="M60.4257 54.351L61.2425 51.9005L61.0718 51.5469L61.9251 51.1202L61.9739 51.4738C61.9739 51.4738 61.34 54.1316 61.1084 54.5827C60.8768 55.0338 59.5602 55.7409 59.5602 55.7409L59.2067 55.1679L60.4257 54.351Z" fill="#D7D6D2"/>
<path d="M99.9089 14.533L82.1604 6.62056C82.1604 6.62056 80.3441 5.95002 78.6131 6.59618C77.1747 7.13261 75.5656 7.46179 75.1999 7.68124C75.1268 7.73 75.4925 8.13233 75.4925 8.13233L90.7786 18.7269C90.7786 18.7269 96.0812 16.5934 99.9089 14.533Z" fill="#D5B26B"/>
<path d="M100.604 14.472L82.1603 6.14508C82.1603 6.14508 80.344 5.47454 78.6131 6.1207C76.8821 6.76686 75.1999 7.66904 75.1999 7.66904L90.7664 18.2514C90.7786 18.2636 96.776 16.5324 100.604 14.472Z" fill="#FFFDF1"/>
<path d="M94.8135 15.1913L94.9354 14.9719L78.674 6.02317L78.5521 6.24262L94.8135 15.1913Z" fill="#E2E3E4"/>
<path d="M30.463 51.7176L30.3655 52.7417L32.0599 53.9731L32.9253 54.607L35.2902 55.6921C35.217 57.338 32.4499 56.2773 33.1204 56.8991C33.5227 57.277 33.9615 57.6062 34.3638 57.8622C35.0951 58.3621 35.6925 58.6425 35.6925 58.6425C35.6925 58.6425 41.2632 57.3623 48.1993 54.3754C51.259 53.0587 61.7545 46.3289 61.7545 46.3289C61.7545 46.3289 73.2739 39.1845 75.0414 37.9288C76.6261 36.8072 85.0615 29.2118 89.5596 25.5299C93.9114 22.5917 97.0686 20.4581 97.1052 20.4337C97.1417 20.4094 97.3733 20.2509 97.7147 20.007C98.312 19.5803 99.2384 18.8854 99.9698 18.1905C100.262 17.9101 100.531 17.6296 100.726 17.3736C101.701 16.1057 101.554 14.9597 101.554 14.9597C101.554 14.9597 101.506 14.9109 101.42 14.8378C101.152 14.6305 100.506 14.2526 99.6894 14.4598C98.6045 14.7402 90.291 18.8732 85.1834 21.0921C84.3789 21.4335 83.0868 21.9943 81.4655 22.7014C66.8133 28.4315 62.1202 30.5285 56.208 32.9546C48.1749 36.2585 43.6525 39.2577 43.6525 39.2577L42.0678 41.5497C39.2519 43.5126 36.0947 45.7193 34.8513 46.5971C32.4012 48.3405 29.7072 49.7425 29.4268 50.3399C29.1343 50.9739 30.463 51.7176 30.463 51.7176Z" fill="url(#paint0_linear_301_2324)"/>
<path d="M32.9253 54.5949L35.2902 55.6799C35.217 57.3258 32.4499 56.2651 33.1204 56.8869C33.1448 56.9113 33.1691 56.9235 33.1935 56.9479C33.5836 57.3014 33.9859 57.6062 34.3637 57.85C35.0951 58.3499 35.6924 58.6303 35.6924 58.6303C35.6924 58.6303 41.2632 57.3502 48.1993 54.3632C51.2589 53.0465 61.7545 46.3167 61.7545 46.3167C61.7545 46.3167 73.2739 39.1724 75.0415 37.9166C76.6261 36.795 85.0616 29.1996 89.5596 25.5177C93.3141 22.9818 96.1666 21.0555 96.9223 20.5557C97.0442 20.4703 97.1052 20.4338 97.1174 20.4338C97.1539 20.4094 97.3855 20.2509 97.7269 20.007C98.3242 19.5803 99.2506 18.8854 99.982 18.1905C97.3734 18.9708 95.4352 19.7266 95.4352 19.7266C95.4352 19.7266 87.5483 23.4085 84.8543 25.1885C82.1604 26.9807 71.2504 33.4057 69.0806 34.8565C66.9108 36.3073 52.5511 44.0734 48.4187 46.6946C44.3473 49.2793 34.9001 53.4732 34.9001 53.4732C34.1565 53.5951 32.8766 53.522 32.0842 53.9365L32.9253 54.5949Z" fill="#E8E8E8"/>
<path d="M94.3015 20.4947L95.2035 21.7139L96.8979 20.5678L94.3015 20.4947Z" fill="#B5B4AC"/>
<path d="M50.6373 50.4253L56.7566 46.7922L56.0861 41.5741L49.8937 43.9759L50.1618 45.5974L50.6373 50.4253ZM56.4762 46.6581L50.8445 49.9986L50.4056 45.5608L50.1618 44.1344L55.8667 41.9277L56.4762 46.6581Z" fill="#E2E3E4"/>
<path d="M33.1813 56.9478C33.5714 57.3014 33.9736 57.6062 34.3515 57.85C35.0829 58.3499 35.6802 58.6303 35.6802 58.6303C35.6802 58.6303 41.251 57.3502 48.1871 54.3632C51.2467 53.0465 61.7422 46.3167 61.7422 46.3167C61.7422 46.3167 73.2617 39.1724 75.0292 37.9166C76.6139 36.795 85.0493 29.1996 89.5474 25.5177C93.3019 22.9818 96.1543 21.0555 96.9101 20.5557C96.5932 20.1411 96.4591 19.7632 96.4591 19.7632C96.4591 19.7632 87.5361 25.2373 84.8421 27.0294C82.1481 28.8216 74.761 35.0516 72.5912 36.5024C70.4214 37.9532 55.1475 47.9504 51.0151 50.5716C46.9437 53.1562 34.8757 56.765 34.8757 56.765C34.4247 56.8747 33.7908 56.8747 33.1813 56.9478Z" fill="#E0E0E0"/>
<path d="M34.3515 57.8622C35.0829 58.3621 35.6802 58.6425 35.6802 58.6425C35.6802 58.6425 41.251 57.3623 48.187 54.3754C51.2467 53.0587 61.7422 46.3289 61.7422 46.3289C61.7422 46.3289 73.2616 39.1846 75.0292 37.9288C76.6138 36.8072 85.0493 29.2118 89.5473 25.5299C93.8991 22.5917 97.0563 20.4581 97.0929 20.4337C97.1294 20.4094 97.361 20.2509 97.7024 20.007C97.7999 19.7266 97.8486 19.5803 97.8486 19.5803C97.8486 19.5803 89.6692 24.774 88.7428 25.5664C87.8164 26.3589 76.5285 36.2098 76.0287 36.7096C75.5289 37.2095 57.3782 48.9257 51.6368 51.9371C45.8953 54.9484 35.7777 57.5452 35.7777 57.5452C35.3876 57.7891 34.6441 57.6062 34.3515 57.8622Z" fill="#C5C5C5"/>
<path d="M30.2192 51.8639L30.3655 52.7417C31.9502 53.0221 33.3398 53.0953 33.3398 53.0953C33.3398 53.0953 43.3721 47.4018 44.6033 46.5483C45.8466 45.6949 46.2367 45.9266 49.2598 41.8058C52.2829 37.685 62.5956 34.6005 68.8124 32.1256C75.0414 29.6507 94.0942 20.1899 94.0942 20.1899C98.2632 17.715 100.348 15.9716 101.384 14.8621C101.116 14.6549 100.47 14.2769 99.6528 14.4842C98.5679 14.7646 90.2544 18.8976 85.1469 21.1165C84.3423 21.4578 83.0502 22.0187 81.4289 22.7258C66.7767 28.4559 62.0836 30.5528 56.1715 32.979C48.1383 36.2829 44.3351 37.9532 44.3351 37.9532L42.0434 41.5741C39.2275 43.537 36.8383 44.683 35.5949 45.5608C33.1448 47.3042 29.7926 49.0842 29.5122 49.6938C29.244 50.2912 30.2192 51.8639 30.2192 51.8639Z" fill="#006753"/>
<path d="M62.1446 33.7593C62.1446 33.7593 78.5765 26.298 81.2583 25.1032C83.9279 23.8962 90.4251 20.6288 90.4251 20.6288C90.4251 20.6288 89.4255 20.129 83.4647 22.4454C77.5038 24.7618 61.791 30.7357 59.1824 32.7108C56.5738 34.6736 62.1446 33.7593 62.1446 33.7593Z" fill="#006753"/>
<path d="M30.2802 49.4499C30.2802 49.4499 40.9707 42.8421 42.3116 42.0252C43.6159 40.1965 43.8597 38.9773 45.0299 38.4165C46.2001 37.8679 48.5528 39.6113 48.9307 40.0502C49.3086 40.4891 48.9307 40.7329 48.9307 40.7329C48.9307 40.7329 47.1022 43.7442 45.8223 44.6952C44.5423 45.6583 35.2292 50.9008 33.8396 51.5103C32.4743 52.1199 30.2802 49.4499 30.2802 49.4499Z" fill="#006753"/>
<path d="M35.5827 54.2413C35.6558 54.2169 43.3477 51.4006 44.3473 50.9861L44.4448 50.9495L44.4204 50.852C44.1279 49.3037 43.2746 47.987 41.8849 46.9507C41.0072 46.2923 37.1186 44.7074 36.948 44.6464L36.8505 44.8781C36.887 44.8903 40.8732 46.5118 41.7265 47.1579C43.0308 48.1333 43.8475 49.3646 44.1523 50.8032C42.8357 51.3397 35.5705 53.9852 35.4974 54.0218L35.5827 54.2413Z" fill="#E2E3E4"/>
<path d="M41.2511 42.135C41.2511 42.135 39.6908 43.8052 41.0073 44.7074C43.4818 46.4142 47.1753 45.4755 47.1753 45.4755L50.0278 40.8548L44.4083 37.7703L41.2511 42.135Z" fill="#474854"/>
<path d="M43.494 39.404L41.7265 42.391C41.7265 42.391 43.8231 41.2571 44.0547 41.0986C44.2864 40.9401 45.9076 40.038 45.9076 40.038L45.2493 38.9895C45.2615 38.9895 44.3839 38.5506 43.494 39.404Z" fill="#777881"/>
<path d="M41.9702 45.5242L46.7609 38.9651L46.1758 38.8432L41.3607 45.1097L41.9702 45.5242Z" fill="#006753"/>
<path d="M99.9088 0.914852L99.214 0.427185C99.214 0.427185 95.1304 2.21936 94.4721 2.64607C93.8139 3.07278 93.5701 3.25566 93.1434 4.81619C92.7046 6.37673 90.3154 15.5693 90.0594 16.252C89.8034 16.9347 89.2061 18.6781 86.4999 20.4459C83.7938 22.2259 79.1007 24.8715 79.1007 24.8715L78.5887 25.2738L78.6496 25.5664C79.9783 25.0056 90.7908 20.0924 94.1064 16.2154C100.323 8.96136 99.9088 0.914852 99.9088 0.914852Z" fill="#D5B26B"/>
<path d="M78.674 25.5664L81.1486 24.5179C83.5865 23.4573 87.341 21.8724 89.779 20.8726L90.547 20.5435C90.6811 20.4947 90.8152 20.4215 90.9614 20.3606C92.6315 19.5803 94.5453 18.5196 96.1787 17.5565C98.2998 16.3129 99.921 15.2523 99.921 15.2523V0.92704C99.921 0.92704 98.0438 1.7195 96.6054 2.37785C95.8862 2.70703 95.2889 2.97524 95.0694 3.10935C94.399 3.52387 94.143 3.70674 93.7042 5.26728C93.2409 6.80343 90.7176 15.9716 90.4373 16.6299C90.1813 17.3127 89.5474 19.0561 86.7803 20.7995C84.001 22.5551 79.1982 25.1763 79.1982 25.1763L78.674 25.5664Z" fill="#E8E6E4"/>
<path d="M78.674 25.5664L81.1486 24.518L89.779 20.8726L90.547 20.5435L90.7176 20.4703L90.9614 20.3484L96.1787 17.5443L96.5931 2.37786C95.8739 2.70703 95.2766 2.97525 95.0572 3.10936C94.3868 3.52388 94.1308 3.70675 93.6919 5.26729C93.2287 6.80344 90.7054 15.9716 90.4251 16.6299C90.1691 17.3127 89.5352 19.0561 86.7681 20.7995C83.9888 22.5551 79.186 25.1763 79.186 25.1763L78.674 25.5664Z" fill="#D5B26B"/>
<path d="M68.8246 32.5035L67.6422 35.5148L64.2656 37.2583V34.4298L68.8246 32.5035Z" fill="#474854"/>
<path d="M55.562 38.2336V42.2934L62.8759 38.2336V37.7215L60.9499 35.3929L55.562 38.2336Z" fill="#3B3B3B"/>
<path d="M55.3181 38.0873L55.0012 42.6836L49.7839 45.9387L49.6742 43.5857L52.4535 39.1236L55.3181 38.0873Z" fill="#474854"/>
<path d="M42.5797 53.9731L45.1396 63.0071L45.7003 63.3241L46.0295 62.7998L43.433 53.6317L42.7869 52.9124L42.5797 53.9731Z" fill="#ECEBEA"/>
<path d="M47.797 51.5469L51.393 59.9104L51.8928 60.0689L52.1976 59.6544L48.5772 51.486L48.0042 50.8032L47.797 51.5469Z" fill="#B5B3AF"/>
<path d="M41.9703 41.0987C43.9816 41.1962 45.8832 42.0496 47.2972 43.476L47.9799 44.1588L49.6743 43.5736L54.0383 48.6453L54.7331 50.2058L55.0622 50.4863L65.0457 44.2563L73.2373 39.0992L76.7602 36.5146C76.5408 35.1979 71.3601 33.3935 71.3601 33.3935L63.3757 33.1862L44.3473 37.941L41.9703 41.0987Z" fill="#B5B4AC"/>
<path d="M55.0988 48.4259L58.7923 55.5824L59.7065 55.7653L59.926 54.9362L56.1105 47.8529L55.3182 47.67L55.0988 48.4259Z" fill="#B5B3AF"/>
<path d="M63.4854 48.0845L55.7326 56.6065L54.538 56.7406L55.1475 55.7774L62.5712 47.353L63.4854 48.0845Z" fill="#ECEBEA"/>
<path d="M61.7057 43.0371L65.3017 50.3643L65.8259 50.0595L66.2159 49.8401L62.6077 42.647L61.7057 43.0371Z" fill="#3B3B3B"/>
<path d="M16.9321 6.47426C16.9321 6.47426 9.04527 6.76686 4.94946 8.22987C0.853653 9.69287 0.487961 11.9118 1.35344 12.5335C2.21893 13.1553 38.2888 35.3198 38.2888 35.3198C38.2888 35.3198 43.9206 39.0139 44.3228 39.1114C44.3472 39.1114 45.0664 39.5259 45.0786 39.5503C45.2615 39.7819 51.649 43.0371 51.649 43.0371C51.649 43.0371 90.5713 64.3848 91.6562 64.8846C92.7411 65.3845 96.5809 65.1772 99.1164 62.812C101.652 60.4468 102.152 55.8872 102.152 55.8872V55.0337L58.5485 31.3331L16.9321 6.47426Z" fill="#B16D19"/>
<path d="M16.9321 5.62084C16.9321 5.62084 9.04527 5.91344 4.94946 7.37644C0.853653 8.83944 0.487961 11.0583 1.35344 11.6801C2.21893 12.3019 38.2888 34.4664 38.2888 34.4664C38.2888 34.4664 43.9206 38.1604 44.3228 38.258C44.3472 38.258 45.0664 38.6725 45.0786 38.6969C45.2615 38.9285 51.649 42.1837 51.649 42.1837C51.649 42.1837 90.5713 63.5313 91.6562 64.0312C92.7411 64.5311 96.5809 64.3238 99.1164 61.9586C101.652 59.5934 102.152 55.0337 102.152 55.0337L58.5485 30.4797L16.9321 5.62084Z" fill="#006753"/>
<path d="M41.8727 33.2472L2.98687 8.9248C3.59637 8.47371 4.40091 8.047 5.47362 7.65686C7.76532 6.84002 11.2029 6.49865 13.8237 6.25482L18.2121 9.79041L51.5636 29.8092L62.8759 36.1854L96.1299 54.6802L101.274 56.5577C100.884 58.0939 100.006 60.2396 98.4826 61.6782C97.6415 62.4585 96.715 62.873 95.7398 63.2388L96.1299 63.446L53.8066 40.7329L41.8727 33.2472Z" fill="#006753"/>
<path d="M35.8509 55.1191C36.2775 56.5943 36.5213 57.6915 36.4116 58.0573C36.1678 58.8619 34.6806 58.8863 33.4495 58.1792C32.5474 57.6549 31.7185 57.1917 31.0846 55.9603C30.3167 54.4729 29.7194 52.254 29.439 51.0349C28.9392 48.8526 30.6092 48.9623 32.6084 50.1205C34.6075 51.2787 35.2048 52.9246 35.8509 55.1191Z" fill="#C0C0BE"/>
<path d="M29.5243 49.6938C29.5243 49.6938 30.4995 49.645 31.426 50.1449C32.3524 50.6447 33.5105 51.4494 33.8152 51.7907C34.4125 52.4491 35.595 54.2778 35.595 54.2778C35.595 54.2778 35.3268 52.4491 33.6933 50.9251C32.0598 49.4012 30.5483 49.2793 30.0972 49.3158C29.7681 49.2793 29.5243 49.6938 29.5243 49.6938Z" fill="#FDFDFD"/>
<path d="M31.2308 54.6802C31.2308 54.6802 34.2174 56.4724 34.7659 56.6918C35.2901 56.8991 35.4364 57.082 35.4851 57.2283C35.5339 57.3624 35.9362 58.167 35.0097 58.1426C34.0833 58.1183 32.2182 56.7528 32.1085 56.6431C31.8159 56.3627 31.3893 56.2773 31.1577 55.2166C31.0723 54.9972 30.9992 54.7655 30.9992 54.7655L31.2308 54.6802Z" fill="#2A272E"/>
<path d="M31.231 54.6802C31.231 54.6802 31.3407 54.7534 31.4991 54.8387C31.5113 54.8631 31.5113 54.8753 31.5235 54.8997C31.7551 55.9603 32.1696 56.0335 32.4743 56.3261C32.584 56.4358 34.4491 57.8013 35.3755 57.8257C35.4608 57.8257 35.534 57.8135 35.6071 57.8013C35.5705 57.9841 35.4365 58.1548 35.022 58.1426C34.0956 58.1183 32.2305 56.7528 32.1208 56.6431C31.8283 56.3627 31.4016 56.2773 31.17 55.2166C31.0847 54.9972 31.0115 54.7655 31.0115 54.7655L31.231 54.6802Z" fill="#7D7C79"/>
<path d="M33.5592 53.8268C33.547 53.9975 33.4738 54.3022 33.3398 54.5583C33.0716 55.0459 32.6206 55.0338 32.133 54.7777C31.7794 54.5949 31.4503 54.4242 31.2065 53.9121C30.9261 53.2781 30.8043 52.7051 30.7555 52.4125C30.597 51.425 31.4503 51.3153 32.2427 51.7298C33.035 52.1565 33.6201 53.0709 33.5592 53.8268Z" fill="#2A272E"/>
<path d="M101.359 15.3742L115.073 25.6274C115.073 25.6274 116.243 26.6759 115.11 27.6756C113.988 28.6753 112.684 29.4922 112.684 29.4922L94.3014 20.4947C94.3014 20.4947 93.9967 20.2753 94.1064 20.1899C94.8622 19.5681 98.2388 17.3127 101.359 15.3742Z" fill="#D5B26B"/>
<path d="M101.359 14.9109L115.073 25.1641C115.073 25.1641 116.243 26.2126 115.11 27.2123C113.988 28.212 112.44 29.1874 112.44 29.1874L94.1064 20.1899C94.1064 20.1899 97.8 17.1176 101.359 14.9109Z" fill="#FFFDF1"/>
<path d="M32.4134 53.7048C32.3524 53.522 32.1574 53.3757 31.9746 53.3391C31.8527 53.3147 31.7308 53.3635 31.6698 53.4854C31.5357 53.8024 31.2432 58.5328 31.1457 61.3612C31.0482 63.9946 32.1208 65.2138 32.1452 65.2504C32.1452 65.2504 32.7547 63.9702 32.7912 63.2631C32.84 62.5682 32.5109 54.0096 32.4134 53.7048Z" fill="#231F20"/>
<path d="M32.1452 65.2504C32.1452 65.2504 31.938 62.5316 31.9867 59.7641C32.0233 57.6671 31.9867 54.668 31.9624 53.3391C31.8405 53.3147 31.7186 53.3635 31.6576 53.4854C31.5235 53.8024 31.231 58.5328 31.1334 61.3612C31.0481 64.0068 32.1208 65.2138 32.1452 65.2504Z" fill="#414042"/>
<path d="M31.5479 53.2659C31.682 53.4001 31.8404 53.3635 31.9258 53.205C31.9867 53.0953 31.9989 52.9368 31.938 52.7417C31.7917 52.2662 28.9758 46.9506 27.2692 43.8418C25.6845 40.9401 24.5509 40.7451 24.5265 40.7329C24.5265 40.7329 25.0994 42.7201 25.5261 43.5004C25.9405 44.2928 31.3285 53.0465 31.5479 53.2659Z" fill="#231F20"/>
<path d="M24.5265 40.7329C24.5265 40.7329 26.2696 43.415 27.9518 46.402C29.2318 48.6697 31.0968 51.8151 31.9136 53.205C31.9745 53.0953 31.9867 52.9368 31.9257 52.7417C31.7795 52.2662 28.9636 46.9506 27.257 43.8418C25.6845 40.9401 24.5631 40.7451 24.5265 40.7329Z" fill="#414042"/>
<path d="M31.7673 52.6807C31.7185 52.8027 31.8404 53.0587 32.0111 53.2537C32.133 53.3879 32.2793 53.4976 32.4256 53.5098C32.7669 53.5342 35.985 52.1687 37.8379 51.2787C39.5688 50.4497 39.1787 48.9379 39.1666 48.8891C39.1666 48.8891 37.7281 48.7184 37.2527 48.9257C36.7651 49.1329 31.8526 52.4735 31.7673 52.6807Z" fill="#231F20"/>
<path d="M35.9484 50.9739C34.6198 51.6688 32.8157 52.7661 32.0233 53.2538C32.1452 53.3879 32.2915 53.4976 32.4378 53.5098C32.7791 53.5342 35.9972 52.1687 37.8501 51.2787C39.581 50.4497 39.191 48.9379 39.1788 48.8891C39.1544 48.8891 37.7038 50.0595 35.9484 50.9739Z" fill="#414042"/>
<path d="M31.2676 53.5464C31.6332 54.1803 32.2305 54.5217 32.5962 54.3144C32.9619 54.1072 32.9619 53.4244 32.5962 52.7905C32.2305 52.1565 31.6332 51.8151 31.2676 52.0224C30.9019 52.2175 30.9019 52.9124 31.2676 53.5464Z" fill="#231F20"/>
<path d="M29.7559 54.8021C29.9144 54.924 30.1704 54.9972 30.5239 54.9972C31.4259 54.9972 32.1086 54.668 32.4621 54.5339C32.7425 54.4729 32.9375 54.2047 32.9375 53.7902C32.9375 53.3635 32.7425 52.8758 32.4621 52.4857C32.2914 52.254 32.0842 52.059 31.8648 51.937C31.6088 51.7907 31.3772 51.7542 31.1943 51.8151C31.1212 51.8395 31.048 51.8761 30.9993 51.937C30.9871 51.9492 30.9871 51.9492 30.9749 51.9614C30.7799 52.1565 30.5848 52.3759 30.3776 52.6198C29.5974 53.5463 29.2561 54.4241 29.7559 54.8021Z" fill="#006753"/>
<path d="M30.2558 53.1197C30.0364 53.3757 29.5976 54.2291 29.7438 54.351C29.8901 54.4729 30.5605 53.8146 30.78 53.5586C30.9994 53.3025 31.0603 52.9855 30.914 52.8636C30.7678 52.7539 30.4752 52.8636 30.2558 53.1197Z" fill="#006753"/>
<path d="M40.8243 57.216L41.0316 54.985L40.6049 52.2906L40.3489 52.3272L40.7756 54.9972L40.5684 57.1795L40.8243 57.216Z" fill="#E2E3E4"/>
<path d="M74.7245 38.2702C75.8094 36.1122 74.7489 29.9067 73.3349 28.1877C71.9452 26.5052 70.6774 26.8466 70.6287 26.8588L70.7018 27.1026C70.7506 27.0782 71.872 26.81 73.1398 28.3461C74.5173 30.0164 75.5413 36.0513 74.4929 38.1483L74.7245 38.2702Z" fill="#E2E3E4"/>
<path d="M97.2027 2.03649H97.4587V16.8738H97.2027V2.03649Z" fill="#D4D5D6"/>
<path d="M88.5722 19.9583C88.8038 19.9583 89.1573 19.9461 89.6815 19.9095C91.3637 19.812 92.0707 18.1051 92.0951 18.032L95.3741 4.97469L93.9357 4.5114L93.8626 4.75524L95.0694 5.14537L91.8391 17.9588C91.8391 17.9588 91.1686 19.5681 89.6571 19.6657C88.4503 19.7388 88.2553 19.7022 88.2309 19.6901L88.1943 19.7876H88.1699L88.0846 19.6901L88.048 19.8364C88.0724 19.8973 88.0968 19.9583 88.5722 19.9583Z" fill="#E2E3E4"/>
<path d="M99.8555 3.94422L99.987 4.16387L97.4028 5.70892L97.2713 5.48928L99.8555 3.94422Z" fill="#D4D5D6"/>
<path d="M99.8577 7.79585L99.9892 8.0155L97.405 9.56055L97.2734 9.34091L99.8577 7.79585Z" fill="#D4D5D6"/>
<path d="M99.8582 11.6485L99.9897 11.8682L97.4055 13.4132L97.274 13.1936L99.8582 11.6485Z" fill="#D4D5D6"/>
<path d="M99.0493 16.3782L115.186 27.0951L115.045 27.3084L98.9077 16.5915L99.0493 16.3782Z" fill="#E2E3E4"/>
<path d="M96.13 54.8387L96.1909 54.8021L98.8849 53.2781L98.7508 53.0465L96.13 54.5339L53.3922 30.7601L17.9805 9.4978L21.4424 8.41274L21.3693 8.16891L17.3588 9.42465L17.6026 9.57095L53.2581 30.9795L96.13 54.8387Z" fill="#EFC2A8"/>
<path d="M59.5603 37.1241L59.5968 37.112L65.1067 34.2591L64.9848 34.0275L59.4993 36.8681L47.4679 36.5511L47.9189 30.9917L53.9651 27.8219L53.8432 27.5903L47.6751 30.821L47.1997 36.795H47.3338L59.5603 37.1241Z" fill="#EFC2A8"/>
<path d="M59.4713 36.8944L59.5964 37.1178L50.998 41.9229L50.873 41.6995L59.4713 36.8944Z" fill="#EFC2A8"/>
<path d="M39.2641 35.1735L47.8458 31.0161L47.7361 30.7967L39.1422 34.9419L39.2641 35.1735Z" fill="#EFC2A8"/>
<path d="M2.47744 8.55973L42.4057 33.4339L42.2704 33.6512L2.3421 8.77705L2.47744 8.55973Z" fill="#EFC2A8"/>
<path d="M96.3494 63.7142L96.4713 63.4948L53.38 40.3671L53.2581 40.5866L96.3494 63.7142Z" fill="#EFC2A8"/>
<path d="M74.1028 29.9554L87.9018 23.3841C88.109 23.5304 88.9014 24.1644 89.1573 25.7737L89.4133 25.7371C89.0964 23.7377 88.0115 23.1525 87.9627 23.1281L87.9018 23.1037L87.8408 23.1281L73.9809 29.7238L74.1028 29.9554Z" fill="#E2E3E4"/>
<path d="M52.1732 66.3964L52.7583 64.8724L52.5876 63.5923L52.0147 61.8489C51.9781 61.8123 51.1492 60.8614 50.5519 60.5078C49.9668 60.1665 47.8092 59.2277 47.7117 59.1789L47.6751 59.1667L46.1636 59.4349L46.2123 59.691L47.6386 59.4349C47.9311 59.5569 49.8815 60.4103 50.4056 60.7273C50.9176 61.0321 51.6612 61.8489 51.7831 61.9952L52.3195 63.6533L52.4779 64.8359L51.9172 66.2989L52.1732 66.3964Z" fill="#E2E3E4"/>
<path d="M36.896 17.4435L36.9962 17.6791L33.6182 19.1122L33.5181 18.8766L36.896 17.4435Z" fill="#EFC2A8"/>
<path d="M80.1455 42.5471L80.2456 42.7828L77.0809 44.125L76.9808 43.8894L80.1455 42.5471Z" fill="#EFC2A8"/>
<path d="M108.694 20.3244L108.807 20.5541L106.607 21.6343L106.494 21.4046L108.694 20.3244Z" fill="#DBDCDD"/>
<path d="M90.3227 9.83591L90.4614 10.0511L88.257 11.4692L88.1183 11.2539L90.3227 9.83591Z" fill="#DBDCDD"/>
<defs>
<linearGradient id="paint0_linear_301_2324" x1="62.6992" y1="28.2195" x2="70.4629" y2="41.6645" gradientUnits="userSpaceOnUse">
<stop stop-color="#EFF0E4"/>
<stop offset="0.0676496" stop-color="#FAFAE8"/>
<stop offset="0.1417" stop-color="#FFFFEA"/>
<stop offset="0.4944" stop-color="#FDFDE8"/>
<stop offset="0.6214" stop-color="#F7F6E3"/>
<stop offset="0.7116" stop-color="#EBEBD8"/>
<stop offset="0.7532" stop-color="#E3E2D1"/>
<stop offset="0.9606" stop-color="#C5C6B9"/>
</linearGradient>
</defs>
</svg>
