<svg width="188" height="204" viewBox="0 0 188 204" fill="none" xmlns="http://www.w3.org/2000/svg">
<path opacity="0.4" d="M187.365 118.577H55.1468L102.12 145.693L55.1468 172.804H187.365V118.577Z" fill="url(#paint0_linear_306_62)"/>
<path d="M7.88071 145.517V90.9446L55.1468 118.231V172.804L7.88071 145.517Z" fill="#B0D1BF"/>
<path d="M55.1468 172.804V118.231L102.419 90.9505V145.517L55.1468 172.804Z" fill="#007A5D"/>
<path d="M55.1468 59.1125L3.05176e-05 90.9446L55.1468 122.777L110.294 90.9446L55.1468 59.1125ZM55.1468 118.231L7.87483 90.9446L55.1468 63.6583L102.419 90.9446L55.1468 118.231Z" fill="#42934E"/>
<path d="M3.05176e-05 90.9505V36.3779L55.1468 68.2099V122.783L3.05176e-05 90.9505Z" fill="#B0D1BF"/>
<path d="M55.1468 122.783V68.2099L110.299 36.3779V90.9505L55.1468 122.783Z" fill="#4E9376"/>
<path d="M55.1468 4.54578L0 36.3779L55.1468 68.2099L110.294 36.3779L55.1468 4.54578ZM55.1468 63.6642L7.8748 36.3779L55.1468 9.09154L102.419 36.3779L55.1468 63.6642Z" fill="#CEDFE2"/>
<path d="M7.88074 98.5014V95.4962L55.1468 122.783V125.782L7.88074 98.5014Z" fill="#4A896D"/>
<path d="M55.1468 0L7.87476 27.2863L55.1468 54.5726L102.419 27.2863L55.1468 0ZM55.1468 36.8348L38.6004 27.2863L55.1468 17.7379L71.6931 27.2863L55.1468 36.8348Z" fill="#CEDFE2"/>
<path d="M7.88071 36.3778V27.2805L55.1468 54.5668V63.6642L7.88071 36.3778Z" fill="#B0D1BF"/>
<path d="M55.1468 63.6642V54.5668L102.419 27.2805V36.3778L55.1468 63.6642Z" fill="#4A896D"/>
<path d="M62.2364 17.732H55.1468L71.6931 27.2804L55.1468 36.8348H62.2364L78.7827 27.2804L62.2364 17.732Z" fill="url(#paint1_linear_306_62)"/>
<path d="M55.1468 32.8162L38.6063 23.2678L55.1468 13.7193L71.6931 23.2678L55.1468 32.8162Z" fill="white"/>
<path d="M55.1469 36.8348L38.6064 27.2805V23.2678L55.1469 32.8162V36.8348Z" fill="#B0D1BF"/>
<path d="M71.6931 27.2805L55.1468 36.8348V32.8162L71.6931 23.2678V27.2805Z" fill="#4E9376"/>
<path opacity="0.6" d="M55.1468 63.6642H63.0274L110.299 36.3778L102.419 31.8321V36.3778L55.1468 63.6642Z" fill="#3A8C5B"/>
<path d="M13.0191 59.9502L9.31024 57.8121V53.5299L13.0191 55.6739V59.9502Z" fill="#006550"/>
<path d="M23.9583 66.2651L20.2495 64.1269V59.8448L23.9583 61.9888V66.2651Z" fill="#006550"/>
<path d="M34.8974 72.58L31.1886 70.4418V66.1596L34.8974 68.3036V72.58Z" fill="#006550"/>
<path d="M45.8365 78.8948L42.1277 76.7567V72.4745L45.8365 74.6185V78.8948Z" fill="#006550"/>
<path d="M13.0192 69.6803L9.31024 67.5362V63.2541L13.0192 65.3981V69.6803Z" fill="#006550"/>
<path d="M23.9583 75.9893L20.2495 73.8511V69.569L23.9583 71.713V75.9893Z" fill="#006550"/>
<path d="M34.8974 82.3041L31.1886 80.166V75.8838L34.8974 78.022V82.3041Z" fill="#006550"/>
<path d="M45.8365 88.619L42.1277 86.4809V82.1987L45.8365 84.3368V88.619Z" fill="#006550"/>
<path d="M13.0192 79.3986L9.31024 77.2605V72.9783L13.0192 75.1223V79.3986Z" fill="#006550"/>
<path d="M23.9583 85.7135L20.2495 83.5753V79.2932L23.9583 81.4313V85.7135Z" fill="#006550"/>
<path d="M34.8974 92.0283L31.1886 89.8902V85.608L34.8974 87.7462V92.0283Z" fill="#006550"/>
<path d="M45.8365 98.3432L42.1277 96.205V91.9229L45.8365 94.061V98.3432Z" fill="#006550"/>
<path d="M13.0192 89.1228L9.31024 86.9846V82.7025L13.0192 84.8465V89.1228Z" fill="#006550"/>
<path d="M23.9583 95.4377L20.2495 93.2995V89.0174L23.9583 91.1614V95.4377Z" fill="#006550"/>
<path d="M34.8974 101.753L31.1886 99.6144V95.3322L34.8974 97.4704V101.753Z" fill="#006550"/>
<path d="M45.8365 108.067L42.1277 105.929V101.647L45.8365 103.791V108.067Z" fill="#006550"/>
<path d="M97.2745 59.9502L100.983 57.8121V53.5299L97.2745 55.6739V59.9502Z" fill="#006558"/>
<path d="M86.3352 66.2651L90.0442 64.1269V59.8448L86.3352 61.9888V66.2651Z" fill="#006558"/>
<path d="M75.3962 72.58L79.1051 70.4418V66.1596L75.3962 68.3036V72.58Z" fill="#006558"/>
<path d="M64.4629 78.8948L68.1659 76.7567V72.4745L64.4629 74.6185V78.8948Z" fill="#006558"/>
<path d="M97.2745 69.6803L100.983 67.5362V63.2541L97.2745 65.3981V69.6803Z" fill="#006558"/>
<path d="M86.3352 75.9893L90.0442 73.8511V69.569L86.3352 71.713V75.9893Z" fill="#006558"/>
<path d="M75.3962 82.3041L79.1051 80.166V75.8838L75.3962 78.022V82.3041Z" fill="#006558"/>
<path d="M64.4629 88.619L68.1659 86.4809V82.1987L64.4629 84.3368V88.619Z" fill="#006558"/>
<path d="M97.2745 79.3986L100.983 77.2605V72.9783L97.2745 75.1223V79.3986Z" fill="#006558"/>
<path d="M86.3352 85.7135L90.0442 83.5753V79.2932L86.3352 81.4313V85.7135Z" fill="#006558"/>
<path d="M75.3962 92.0283L79.1051 89.8902V85.608L75.3962 87.7462V92.0283Z" fill="#006558"/>
<path d="M64.4629 98.3432L68.1659 96.205V91.9229L64.4629 94.061V98.3432Z" fill="#006558"/>
<path d="M97.2745 89.1228L100.983 86.9846V82.7025L97.2745 84.8465V89.1228Z" fill="#006558"/>
<path d="M86.3352 95.4377L90.0442 93.2995V89.0174L86.3352 91.1614V95.4377Z" fill="#006558"/>
<path d="M75.3962 101.753L79.1051 99.6144V95.3322L75.3962 97.4704V101.753Z" fill="#006558"/>
<path d="M64.4629 108.067L68.1659 105.929V101.647L64.4629 103.791V108.067Z" fill="#006558"/>
<path d="M78.0445 99.5382L109.555 117.727V203.827L78.0445 185.632V99.5382Z" fill="#E2E2E2"/>
<path d="M172.577 167.444L109.555 203.827V117.727L172.577 81.3493V167.444Z" fill="#909090"/>
<path d="M172.577 81.3493L141.066 63.1604L78.0445 99.5383L109.555 117.727L172.577 81.3493ZM130.303 93.323L113.756 102.871L103.778 97.1131L120.319 87.5646L130.303 93.323Z" fill="#D3D3D3"/>
<path d="M114.078 170.121L117.758 172.241V203.335L114.078 201.215V170.121Z" fill="#E2E2E2"/>
<path d="M171.288 172.434L117.758 203.335V172.241L171.288 141.341V172.434Z" fill="#909090"/>
<path d="M171.288 141.341L167.608 139.22L114.073 170.121L117.752 172.241L171.288 141.341Z" fill="#CEDFE2"/>
<path d="M125.082 86.2993H118.127L130.303 93.323L113.756 102.871H120.711L137.258 93.323L125.082 86.2993Z" fill="url(#paint2_linear_306_62)"/>
<path d="M113.756 98.8587L130.303 89.3103L120.319 83.5461L103.778 93.1004L113.756 98.8587Z" fill="white"/>
<path d="M130.303 93.323L113.756 102.871V98.8587L130.303 89.3103V93.323Z" fill="#909090"/>
<path d="M113.756 102.871L103.778 97.1131V93.1004L113.756 98.8587V102.871Z" fill="#E2E2E2"/>
<path d="M114.078 170.121L117.758 172.241L171.288 141.341L167.608 139.22L114.078 170.121Z" fill="#A6A6A6"/>
<path d="M125.662 198.772V173.395L123.026 174.912L123.031 200.295L125.662 198.772Z" fill="#34564F"/>
<path d="M132.424 194.87V169.488L129.793 171.011V196.388L132.424 194.87Z" fill="#34564F"/>
<path d="M139.191 190.963L139.185 165.587L136.555 167.104V192.486L139.191 190.963Z" fill="#34564F"/>
<path d="M145.953 187.062V161.685L143.316 163.202V188.585L145.953 187.062Z" fill="#34564F"/>
<path d="M152.714 183.16V157.778L150.077 159.301V184.678L152.714 183.16Z" fill="#34564F"/>
<path d="M159.476 179.253V153.877L156.839 155.394V180.776L159.476 179.253Z" fill="#34564F"/>
<path d="M166.237 175.352V149.969L163.601 151.492V176.869L166.237 175.352Z" fill="#34564F"/>
<path d="M155.573 108.501L159.282 106.363V102.081L155.573 104.219V108.501Z" fill="#34564F"/>
<path d="M144.634 114.816L148.343 112.678V108.395L144.634 110.534V114.816Z" fill="#34564F"/>
<path d="M133.695 121.131L137.404 118.987V114.71L133.695 116.848V121.131Z" fill="#34564F"/>
<path d="M122.756 127.44L126.465 125.302V121.019L122.756 123.163V127.44Z" fill="#34564F"/>
<path d="M155.573 118.225L159.282 116.087V111.805L155.573 113.943V118.225Z" fill="#34564F"/>
<path d="M144.634 124.54L148.343 122.396V118.12L144.634 120.258V124.54Z" fill="#34564F"/>
<path d="M133.695 130.855L137.404 128.711V124.435L133.695 126.573V130.855Z" fill="#34564F"/>
<path d="M122.756 137.164L126.465 135.026V130.743L122.756 132.888V137.164Z" fill="#34564F"/>
<path d="M155.573 127.949L159.282 125.805V121.529L155.573 123.667V127.949Z" fill="#34564F"/>
<path d="M144.634 134.258L148.343 132.12V127.838L144.634 129.982V134.258Z" fill="#34564F"/>
<path d="M133.695 140.573L137.404 138.435V134.153L133.695 136.297V140.573Z" fill="#34564F"/>
<path d="M122.756 146.888L126.465 144.75V140.468L122.756 142.612V146.888Z" fill="#34564F"/>
<path d="M155.573 137.673L159.282 135.529V131.253L155.573 133.391V137.673Z" fill="#34564F"/>
<path d="M144.634 143.982L148.343 141.844V137.562L144.634 139.706V143.982Z" fill="#34564F"/>
<path d="M133.695 150.297L137.404 148.159V143.877L133.695 146.021V150.297Z" fill="#34564F"/>
<path d="M122.756 156.612L126.465 154.474V150.192L122.756 152.336V156.612Z" fill="#34564F"/>
<path d="M95.6513 125.717L91.9484 123.579V119.297L95.6513 121.441V125.717Z" fill="#34564F"/>
<path d="M95.6513 135.442L91.9484 133.303V129.021L95.6513 131.165V135.442Z" fill="#34564F"/>
<path d="M95.6513 145.166L91.9484 143.028V138.745L95.6513 140.889V145.166Z" fill="#34564F"/>
<path d="M95.6513 154.89L91.9484 152.752V148.47L95.6513 150.614V154.89Z" fill="#34564F"/>
<path d="M95.6513 164.21L91.9484 162.072V157.79L95.6513 159.934V164.21Z" fill="#34564F"/>
<path d="M95.6513 173.53L91.9484 171.392V167.11L95.6513 169.254V173.53Z" fill="#34564F"/>
<path d="M95.6513 182.85L91.9484 180.712V176.43L95.6513 178.568V182.85Z" fill="#34564F"/>
<defs>
<linearGradient id="paint0_linear_306_62" x1="55.1484" y1="145.691" x2="187.368" y2="145.691" gradientUnits="userSpaceOnUse">
<stop stop-color="#666666"/>
<stop offset="0.1781" stop-color="#8B8B8B"/>
<stop offset="0.4482" stop-color="#BDBDBD" stop-opacity="0.5"/>
<stop offset="0.6851" stop-color="#E1E1E1" stop-opacity="0.31"/>
<stop offset="0.8771" stop-color="#F7F7F7" stop-opacity="0.06"/>
<stop offset="1" stop-color="white" stop-opacity="0"/>
</linearGradient>
<linearGradient id="paint1_linear_306_62" x1="55.1469" y1="27.2821" x2="78.7828" y2="27.2821" gradientUnits="userSpaceOnUse">
<stop stop-color="#005F4F"/>
<stop offset="0.1707" stop-color="#337F72"/>
<stop offset="0.4755" stop-color="#8AB5AE" stop-opacity="0.24"/>
<stop offset="0.7248" stop-color="#C9DDDA" stop-opacity="0.05"/>
<stop offset="0.9058" stop-color="#F0F6F5" stop-opacity="0.08"/>
<stop offset="1" stop-color="white" stop-opacity="0"/>
</linearGradient>
<linearGradient id="paint2_linear_306_62" x1="113.757" y1="94.5857" x2="137.258" y2="94.5857" gradientUnits="userSpaceOnUse">
<stop stop-color="#666666"/>
<stop offset="0.1781" stop-color="#8B8B8B"/>
<stop offset="0.4482" stop-color="#BDBDBD" stop-opacity="0.5"/>
<stop offset="0.6851" stop-color="#E1E1E1" stop-opacity="0.31"/>
<stop offset="0.8771" stop-color="#F7F7F7" stop-opacity="0.06"/>
<stop offset="1" stop-color="white" stop-opacity="0"/>
</linearGradient>
</defs>
</svg>
