<svg width="578" height="364" viewBox="0 0 578 364" fill="none" xmlns="http://www.w3.org/2000/svg">
<path opacity="0.4" d="M456.926 209.43H223.401L306.365 257.323L223.401 305.206H456.926V209.43Z" fill="url(#paint0_linear_198_5090)"/>
<path d="M139.919 257.013V160.627L223.401 208.82V305.206L139.919 257.013Z" fill="#B0D1BF"/>
<path d="M223.401 305.206V208.82L306.893 160.637V257.013L223.401 305.206Z" fill="#007A5D"/>
<path d="M223.4 104.405L126 160.627L223.4 216.848L320.801 160.627L223.4 104.405ZM223.4 208.82L139.908 160.627L223.4 112.433L306.892 160.627L223.4 208.82Z" fill="#42934E"/>
<path d="M126 160.637V64.2506L223.4 120.473V216.859L126 160.637Z" fill="#B0D1BF"/>
<path d="M223.401 216.859V120.473L320.811 64.2506V160.637L223.401 216.859Z" fill="#4E9376"/>
<path d="M223.4 8.02875L126 64.2506L223.4 120.472L320.801 64.2506L223.4 8.02875ZM223.4 112.444L139.908 64.2506L223.4 16.0575L306.892 64.2506L223.4 112.444Z" fill="#CEDFE2"/>
<path d="M2.52238 287.711C-0.840794 289.656 -0.840794 292.831 2.52238 294.776L75.9439 337.158C79.3071 339.103 84.8148 339.103 88.1838 337.158L137.132 308.906C140.495 306.961 140.495 303.786 137.132 301.841L63.7099 259.459C60.3468 257.514 54.8391 257.514 51.4701 259.459L2.52238 287.711Z" fill="#B3CDBD"/>
<path d="M46.1942 294.905L64.5947 305.565C69.1948 305.565 71.7754 305.565 76.3755 305.565L94.8882 294.905C94.8882 292.212 94.8882 290.753 94.8882 288.06L76.4877 277.399C71.8876 277.399 69.307 277.399 64.7069 277.399L46.3064 288.06C46.1942 290.753 46.1942 292.212 46.1942 294.905Z" fill="#F0F0F0"/>
<path d="M75.5903 280.766V288.06L87.7077 295.129L91.5225 292.885V289.967L75.5903 280.766Z" fill="#EDEDEE"/>
<path d="M49.6724 289.967V292.885L53.3749 295.129L65.6045 288.06V280.766L49.6724 289.967Z" fill="#A6A6A6"/>
<path d="M65.6047 280.766H75.5903V288.06H65.6047V280.766Z" fill="#D8D8D8"/>
<path d="M46.1944 294.905V303.882L64.707 314.542V305.565L46.1944 294.905Z" fill="#EDEDEE"/>
<path d="M64.707 305.565H76.4878V314.542H64.707V305.565Z" fill="#D8D8D8"/>
<path d="M94.8882 294.905V303.882L76.4877 314.542V305.565L94.8882 294.905Z" fill="#A6A6A6"/>
<path d="M50.7944 293.558L65.6045 302.087H75.5901L90.2881 293.558L75.5901 285.03H65.6045L50.7944 293.558Z" fill="#006753"/>
<path d="M50.7944 293.558L56.6287 296.925L61.0044 299.506L65.6045 302.087H75.5901L83.3318 297.598L88.0441 294.905L90.2881 293.558L88.0441 292.324L83.3318 289.518L75.5901 285.03H65.6045L61.0044 287.723L56.6287 290.192L50.7944 293.558Z" fill="#1B514A"/>
<path opacity="0.7" d="M60.7798 279.083L64.3701 277.063C64.4823 277.063 64.4823 277.063 64.5945 276.951C64.7067 276.838 64.9311 276.838 65.1555 276.838C65.6043 276.838 66.1653 276.951 66.6141 277.287L66.8385 277.399C67.6238 277.848 68.4092 278.634 68.9702 279.531L65.2677 281.664C64.8189 280.99 64.3701 280.429 63.8091 279.98V292.099L60.1066 294.232V280.654C59.8822 279.868 60.2188 279.307 60.7798 279.083Z" fill="#B3CDBD"/>
<path d="M64.1461 275.604V293.558L67.8486 295.69V277.736L64.1461 275.604Z" fill="#EDEDEE"/>
<path opacity="0.7" d="M79.9658 279.083L76.3754 277.063C76.2632 277.063 76.2632 277.063 76.151 276.951C76.0388 276.838 75.8144 276.838 75.59 276.838C75.1412 276.838 74.5802 276.951 74.1314 277.287L73.907 277.399C73.1217 277.848 72.3363 278.634 71.7753 279.531L75.4778 281.664C75.9266 280.99 76.3754 280.429 76.9364 279.98V292.099L80.6389 294.232V280.654C80.7511 279.868 80.5267 279.307 79.9658 279.083Z" fill="#B3CDBD"/>
<path d="M73.234 295.69V277.736L76.9365 275.604V293.558L73.234 295.69Z" fill="#A6A6A6"/>
<path d="M67.8484 277.736H73.2339V295.69H67.8484V277.736Z" fill="#D8D8D8"/>
<path d="M73.6826 277.624L80.3022 273.808L73.6826 269.881H67.3995L60.7798 273.808L67.3995 277.624H73.6826Z" fill="#F0F0F0"/>
<path d="M80.3022 273.809V275.604L73.6826 279.531V277.624L80.3022 273.809Z" fill="#A6A6A6"/>
<path d="M67.3994 279.531V277.624L60.7797 273.809V275.604L67.3994 279.531Z" fill="#EDEDEE"/>
<path d="M67.3995 277.624H73.6826V279.531H67.3995V277.624Z" fill="#D8D8D8"/>
<path d="M64.4823 280.99L67.3994 282.673V282.449L64.4823 280.654V280.99Z" fill="#5E536D"/>
<path d="M76.7119 280.99L73.7948 282.673V282.449L76.7119 280.654V280.99Z" fill="#5E536D"/>
<path d="M69.0829 282.673H72V282.898H69.0829V282.673Z" fill="#5E536D"/>
<path opacity="0.7" d="M59.209 285.591V298.496L62.3505 300.291V287.386C62.3505 286.601 62.6871 285.815 63.1359 284.918C63.2481 284.693 63.4725 284.469 63.6969 284.244C64.1457 283.683 64.5945 283.347 65.1555 283.01L65.3798 282.898C66.1652 282.449 66.8384 282.337 67.3994 282.561L64.5945 280.878C64.4823 280.766 64.3701 280.766 64.2579 280.654C63.6969 280.429 63.0237 280.541 62.2383 280.99L62.0139 281.102C61.4529 281.439 61.0041 281.776 60.5553 282.337C60.3309 282.561 60.2187 282.786 59.9943 283.01C59.5455 283.908 59.209 284.806 59.209 285.591Z" fill="#B3CDBD"/>
<path opacity="0.7" d="M81.873 285.591V298.496L78.7315 300.291V287.386C78.7315 286.601 78.3949 285.815 77.9461 284.918C77.8339 284.693 77.6095 284.469 77.3851 284.244C76.9363 283.683 76.4875 283.347 75.9265 283.01L75.7022 282.898C74.9168 282.449 74.2436 282.337 73.6826 282.561L76.4875 280.878C76.5997 280.766 76.7119 280.766 76.8241 280.654C77.3851 280.429 78.0583 280.541 78.8437 280.99L79.1803 281.215C79.7413 281.551 80.1901 281.888 80.6389 282.449C80.8633 282.673 80.9755 282.898 81.1999 283.122C81.6487 283.908 81.873 284.806 81.873 285.591Z" fill="#B3CDBD"/>
<path d="M73.6826 272.574L83.8926 266.627V266.066L73.6826 260.118H67.3995L57.1895 266.066V266.627L67.3995 272.574H73.6826Z" fill="#F0F0F0"/>
<path d="M72.785 276.277L73.6826 272.574H67.3995L68.4093 276.277H72.785Z" fill="#D8D8D8"/>
<path d="M73.6826 272.574L72.785 276.277L77.3851 273.584L83.8926 266.627L73.6826 272.574Z" fill="#A6A6A6"/>
<path d="M67.3999 272.574L68.4097 276.277L63.6974 273.584L57.1899 266.627L67.3999 272.574Z" fill="#EDEDEE"/>
<path d="M73.3462 271.34L82.0977 266.29L73.3462 261.353H67.7363L58.9849 266.29L67.7363 271.34H73.3462Z" fill="#B3CDBD"/>
<path opacity="0.7" d="M67.6242 292.885V302.087H73.4585V292.885C73.4585 292.212 73.4585 291.538 73.4585 290.865C73.4585 290.753 73.4585 290.753 73.4585 290.641C73.4585 289.967 73.3463 289.294 73.3463 288.621C73.2341 287.723 73.2341 286.713 73.1219 285.815C73.1219 285.703 73.1219 285.591 73.1219 285.479L73.0097 284.693L72.8975 283.683C72.8975 283.459 72.7853 283.235 72.6731 283.122C72.5609 283.01 72.3365 282.898 72.1121 282.898H69.4194C69.195 282.898 68.9706 283.01 68.7462 283.122C68.634 283.235 68.5218 283.459 68.5218 283.683L68.4096 284.693L68.2974 285.479C68.2974 285.591 68.2974 285.703 68.2974 285.815C68.1852 286.713 68.073 287.723 68.073 288.621C68.073 289.294 67.9608 289.967 67.9608 290.641C67.9608 290.753 67.9608 290.753 67.9608 290.865C67.6242 291.651 67.6242 292.324 67.6242 292.885Z" fill="#B3CDBD"/>
<path d="M65.6049 269.095C65.4927 269.208 65.4927 269.32 65.6049 269.32C65.7171 269.432 65.9415 269.432 66.0537 269.32C66.1659 269.208 66.7268 268.871 66.6146 268.759C66.3902 268.759 65.7171 269.095 65.6049 269.095Z" fill="#D5B26B"/>
<path d="M67.3988 268.534C67.511 268.422 67.511 268.31 67.3988 268.31C67.2866 268.198 67.0622 268.198 66.95 268.31C66.8378 268.422 66.2768 268.759 66.389 268.871C66.6134 268.871 67.2866 268.647 67.3988 268.534Z" fill="#D5B26B"/>
<path d="M66.278 269.432C66.278 269.544 66.3902 269.544 66.6146 269.544C66.7268 269.544 66.9512 269.432 66.9512 269.432C66.9512 269.32 66.839 268.871 66.6146 268.871C66.3902 268.871 66.278 269.32 66.278 269.432Z" fill="#D5B26B"/>
<path d="M66.8389 268.31C66.8389 268.198 66.7267 268.198 66.5023 268.198C66.3901 268.198 66.1657 268.31 66.1657 268.31C66.1657 268.31 66.2779 268.871 66.5023 268.871C66.7267 268.871 66.8389 268.31 66.8389 268.31Z" fill="#D5B26B"/>
<path d="M67.0633 269.432C67.1754 269.544 67.3998 269.544 67.512 269.432C67.6242 269.32 67.6242 269.208 67.512 269.208C67.3998 269.095 66.7267 268.871 66.6145 268.871C66.3901 268.871 66.9511 269.32 67.0633 269.432Z" fill="#D5B26B"/>
<path d="M67.512 268.984C67.6242 268.984 67.8486 268.872 67.8486 268.872C67.8486 268.872 67.7364 268.76 67.512 268.76C67.3998 268.76 66.5023 268.872 66.5023 268.872C66.5023 268.872 67.3998 268.984 67.512 268.984Z" fill="#D5B26B"/>
<path d="M65.4927 268.647C65.3805 268.647 65.1561 268.759 65.1561 268.759C65.1561 268.759 65.2683 268.871 65.4927 268.871C65.6049 268.871 66.5024 268.759 66.5024 268.759C66.5024 268.759 65.6049 268.647 65.4927 268.647Z" fill="#D5B26B"/>
<path d="M66.0534 268.31C65.9412 268.198 65.7168 268.198 65.6046 268.31C65.4924 268.422 65.4924 268.534 65.6046 268.534C65.7168 268.647 66.39 268.871 66.5022 268.871C66.6144 268.759 66.1656 268.422 66.0534 268.31Z" fill="#D5B26B"/>
<path d="M66.3899 268.759C66.2777 268.871 66.2777 268.983 66.3899 268.983C66.5021 269.095 66.7265 269.095 66.8387 268.983C66.9509 268.871 66.9509 268.759 66.8387 268.759C66.7265 268.759 66.5021 268.647 66.3899 268.759Z" fill="#F0F0F0"/>
<path d="M72.785 266.627C72.6728 266.739 72.6728 266.851 72.785 266.851C72.8972 266.963 73.1216 266.963 73.2338 266.851C73.346 266.739 73.907 266.402 73.7948 266.29C73.6826 266.29 72.8972 266.627 72.785 266.627Z" fill="#D5B26B"/>
<path d="M74.6912 266.066C74.8034 265.954 74.8034 265.841 74.6912 265.841C74.579 265.729 74.3547 265.729 74.2425 265.841C74.1303 265.954 73.5693 266.29 73.6815 266.403C73.9059 266.403 74.579 266.066 74.6912 266.066Z" fill="#D5B26B"/>
<path d="M73.4581 266.963C73.4581 267.076 73.5703 267.076 73.7947 267.076C73.9069 267.076 74.1313 266.963 74.1313 266.963C74.1313 266.963 74.0191 266.402 73.7947 266.402C73.5703 266.402 73.4581 266.851 73.4581 266.963Z" fill="#D5B26B"/>
<path d="M74.019 265.729C74.019 265.617 73.9068 265.617 73.6825 265.617C73.5703 265.617 73.3459 265.729 73.3459 265.729C73.3459 265.729 73.5703 266.29 73.7946 266.29C73.9068 266.29 74.019 265.841 74.019 265.729Z" fill="#D5B26B"/>
<path d="M74.2434 266.851C74.3556 266.963 74.58 266.963 74.6922 266.851C74.8044 266.739 74.8044 266.627 74.6922 266.627C74.58 266.515 73.9068 266.29 73.7946 266.29C73.6824 266.402 74.1312 266.851 74.2434 266.851Z" fill="#D5B26B"/>
<path d="M74.8045 266.515C74.9167 266.515 75.1411 266.402 75.1411 266.402C75.1411 266.402 75.0289 266.29 74.8045 266.29C74.6923 266.29 73.7947 266.402 73.7947 266.402C73.7947 266.402 74.5801 266.515 74.8045 266.515Z" fill="#D5B26B"/>
<path d="M72.7851 266.178C72.6729 266.178 72.4485 266.29 72.4485 266.29C72.4485 266.29 72.5607 266.402 72.7851 266.402C73.0095 266.402 73.7949 266.29 73.7949 266.29C73.7949 266.29 72.8973 266.178 72.7851 266.178Z" fill="#D5B26B"/>
<path d="M73.2336 265.841C73.1214 265.729 72.897 265.729 72.7848 265.841C72.6726 265.954 72.6726 266.066 72.7848 266.066C72.897 266.178 73.5702 266.402 73.6824 266.402C73.9068 266.29 73.3458 265.841 73.2336 265.841Z" fill="#D5B26B"/>
<path d="M73.7947 266.402C73.6088 266.402 73.4581 266.352 73.4581 266.29C73.4581 266.228 73.6088 266.178 73.7947 266.178C73.9806 266.178 74.1313 266.228 74.1313 266.29C74.1313 266.352 73.9806 266.402 73.7947 266.402Z" fill="#F0F0F0"/>
<path d="M71.5512 262.811C71.439 262.924 71.439 263.036 71.5512 263.036C71.6634 263.148 71.8877 263.148 71.9999 263.036C72.1121 262.924 72.6731 262.587 72.5609 262.475C72.3365 262.475 71.6634 262.811 71.5512 262.811Z" fill="#D5B26B"/>
<path d="M73.3451 262.251C73.4572 262.138 73.4572 262.026 73.3451 262.026C73.2329 261.914 73.0085 261.914 72.8963 262.026C72.7841 262.138 72.2231 262.475 72.3353 262.587C72.5597 262.587 73.2329 262.251 73.3451 262.251Z" fill="#D5B26B"/>
<path d="M72.2243 263.148C72.2243 263.26 72.3365 263.26 72.5609 263.26C72.6731 263.26 72.8975 263.148 72.8975 263.148C72.8975 263.148 72.7853 262.587 72.5609 262.587C72.3365 262.587 72.2243 263.036 72.2243 263.148Z" fill="#D5B26B"/>
<path d="M72.7852 261.914C72.7852 261.802 72.673 261.802 72.4486 261.802C72.3364 261.802 72.112 261.914 72.112 261.914C72.112 261.914 72.3364 262.475 72.4486 262.475C72.5608 262.475 72.7852 262.026 72.7852 261.914Z" fill="#D5B26B"/>
<path d="M73.0095 263.036C73.1217 263.148 73.3461 263.148 73.4583 263.036C73.5705 262.924 73.5705 262.811 73.4583 262.811C73.3461 262.699 72.6729 262.475 72.5607 262.475C72.3363 262.587 72.8973 263.036 73.0095 263.036Z" fill="#D5B26B"/>
<path d="M73.4583 262.699C73.5705 262.699 73.7949 262.587 73.7949 262.587C73.7949 262.475 73.6827 262.475 73.4583 262.475C73.3461 262.363 72.4485 262.475 72.4485 262.475C72.4485 262.587 73.3461 262.699 73.4583 262.699Z" fill="#D5B26B"/>
<path d="M71.439 262.363C71.3268 262.363 71.1024 262.475 71.1024 262.475C71.1024 262.587 71.2146 262.587 71.439 262.587C71.5511 262.587 72.4487 262.475 72.4487 262.475C72.4487 262.475 71.5511 262.363 71.439 262.363Z" fill="#D5B26B"/>
<path d="M71.8874 262.026C71.7752 261.914 71.5508 261.914 71.4386 262.026C71.3264 262.138 71.3264 262.25 71.4386 262.25C71.5508 262.363 72.224 262.587 72.3362 262.587C72.5606 262.475 71.9996 262.026 71.8874 262.026Z" fill="#D5B26B"/>
<path d="M72.3362 262.363C72.224 262.475 72.224 262.587 72.3362 262.587C72.4484 262.699 72.6728 262.699 72.785 262.587C72.8972 262.475 72.8972 262.363 72.785 262.363C72.5606 262.363 72.4484 262.363 72.3362 262.363Z" fill="#F0F0F0"/>
<path d="M64.0341 264.831C63.9219 264.944 63.9219 265.056 64.0341 265.056C64.1463 265.168 64.3707 265.168 64.4829 265.056C64.5951 264.944 65.156 264.607 65.0438 264.495C64.8194 264.495 64.1463 264.719 64.0341 264.831Z" fill="#D5B26B"/>
<path d="M65.828 264.271C65.9402 264.158 65.9402 264.046 65.828 264.046C65.7158 263.934 65.4914 263.934 65.3792 264.046C65.267 264.158 64.706 264.495 64.8182 264.607C65.0426 264.607 65.7158 264.271 65.828 264.271Z" fill="#D5B26B"/>
<path d="M64.5949 265.056C64.5949 265.168 64.7071 265.168 64.9315 265.168C65.0437 265.168 65.2681 265.056 65.2681 265.056C65.2681 264.944 65.1559 264.495 64.9315 264.495C64.7071 264.495 64.5949 265.056 64.5949 265.056Z" fill="#D5B26B"/>
<path d="M65.1558 263.934C65.1558 263.821 65.0436 263.821 64.8192 263.821C64.707 263.821 64.4826 263.934 64.4826 263.934C64.4826 264.046 64.5948 264.495 64.8192 264.495C65.0436 264.495 65.1558 264.046 65.1558 263.934Z" fill="#D5B26B"/>
<path d="M65.3801 265.056C65.4923 265.168 65.7167 265.168 65.8289 265.056C65.9411 264.944 65.9411 264.831 65.8289 264.831C65.7167 264.719 65.0436 264.495 64.9314 264.495C64.8192 264.607 65.2679 264.944 65.3801 265.056Z" fill="#D5B26B"/>
<path d="M65.9412 264.719C66.0534 264.719 66.2778 264.607 66.2778 264.607C66.2778 264.495 66.1656 264.495 65.9412 264.495C65.829 264.495 64.9314 264.607 64.9314 264.607C64.9314 264.607 65.829 264.719 65.9412 264.719Z" fill="#D5B26B"/>
<path d="M63.9218 264.382C63.8096 264.382 63.5853 264.495 63.5853 264.495C63.5853 264.607 63.6974 264.607 63.9218 264.607C64.034 264.607 64.9316 264.495 64.9316 264.495C64.9316 264.382 64.034 264.382 63.9218 264.382Z" fill="#D5B26B"/>
<path d="M64.3705 264.046C64.2583 263.934 64.0339 263.934 63.9217 264.046C63.8095 264.158 63.8095 264.27 63.9217 264.27C64.0339 264.27 64.8193 264.607 64.9315 264.495C65.0437 264.495 64.4827 264.046 64.3705 264.046Z" fill="#D5B26B"/>
<path d="M64.7073 264.382C64.5951 264.495 64.5951 264.607 64.7073 264.607C64.8195 264.719 65.0439 264.719 65.1561 264.607C65.2683 264.495 65.2683 264.382 65.1561 264.382C65.0439 264.27 64.8195 264.27 64.7073 264.382Z" fill="#F0F0F0"/>
<path d="M70.0926 270.666C69.9804 270.779 69.9804 270.891 70.0926 270.891C70.2048 271.003 70.4292 271.003 70.5414 270.891C70.6536 270.779 71.2146 270.442 71.1024 270.33C70.878 270.218 70.2048 270.554 70.0926 270.666Z" fill="#D5B26B"/>
<path d="M71.8866 269.993C71.9988 269.881 71.9988 269.769 71.8866 269.769C71.7744 269.657 71.55 269.657 71.4378 269.769C71.3256 269.881 70.7646 270.218 70.8768 270.33C71.1012 270.442 71.7744 270.105 71.8866 269.993Z" fill="#D5B26B"/>
<path d="M70.7658 270.891C70.7658 271.003 70.878 271.003 71.1024 271.003C71.2146 271.003 71.439 270.891 71.439 270.891C71.439 270.779 71.3268 270.33 71.1024 270.33C70.878 270.33 70.7658 270.779 70.7658 270.891Z" fill="#D5B26B"/>
<path d="M71.3267 269.769C71.3267 269.657 71.2145 269.657 70.9901 269.657C70.8779 269.657 70.6535 269.769 70.6535 269.769C70.6535 269.881 70.7657 270.33 70.9901 270.33C71.2145 270.33 71.3267 269.881 71.3267 269.769Z" fill="#D5B26B"/>
<path d="M71.551 270.891C71.6632 271.003 71.8876 271.003 71.9998 270.891C72.112 270.779 72.112 270.666 71.9998 270.666C71.8876 270.554 71.2144 270.33 71.1022 270.33C70.8779 270.442 71.4388 270.779 71.551 270.891Z" fill="#D5B26B"/>
<path d="M71.9998 270.443C72.112 270.443 72.3364 270.331 72.3364 270.331C72.3364 270.219 72.2242 270.219 71.9998 270.219C71.8876 270.219 70.99 270.331 70.99 270.331C70.99 270.443 71.8876 270.443 71.9998 270.443Z" fill="#D5B26B"/>
<path d="M69.9804 270.218C69.8682 270.218 69.6438 270.33 69.6438 270.33C69.6438 270.442 69.756 270.442 69.9804 270.442C70.0926 270.442 70.9902 270.33 70.9902 270.33C70.9902 270.218 70.2048 270.218 69.9804 270.218Z" fill="#D5B26B"/>
<path d="M70.5412 269.769C70.429 269.657 70.2046 269.657 70.0924 269.769C69.9802 269.881 69.9802 269.993 70.0924 269.993C70.2046 270.105 70.8778 270.33 70.99 270.33C71.1022 270.218 70.6534 269.881 70.5412 269.769Z" fill="#D5B26B"/>
<path d="M70.8779 270.218C70.7657 270.33 70.7657 270.442 70.8779 270.442C70.9901 270.554 71.2145 270.554 71.3267 270.442C71.3267 270.33 71.3267 270.218 71.2145 270.218C71.1023 270.218 70.9901 270.105 70.8779 270.218Z" fill="#F0F0F0"/>
<path d="M69.5316 265.056C69.4194 265.168 69.4194 265.28 69.5316 265.28C69.6438 265.392 69.8682 265.392 69.9804 265.28C70.0926 265.168 70.6536 264.831 70.5414 264.719C70.317 264.607 69.6438 264.944 69.5316 265.056Z" fill="#D5B26B"/>
<path d="M71.4378 264.383C71.55 264.27 71.55 264.158 71.4378 264.158C71.3256 264.046 71.1012 264.046 70.989 264.158C70.8768 264.27 70.3159 264.607 70.4281 264.719C70.6524 264.719 71.3256 264.495 71.4378 264.383Z" fill="#D5B26B"/>
<path d="M70.2047 265.28C70.2047 265.392 70.3169 265.392 70.5413 265.392C70.6535 265.392 70.8779 265.28 70.8779 265.28C70.8779 265.28 70.7657 264.719 70.5413 264.719C70.3169 264.719 70.2047 265.168 70.2047 265.28Z" fill="#D5B26B"/>
<path d="M70.7656 264.158C70.7656 264.046 70.6534 264.046 70.429 264.046C70.3168 264.046 70.0924 264.158 70.0924 264.158C70.0924 264.158 70.2046 264.719 70.429 264.719C70.6534 264.719 70.7656 264.158 70.7656 264.158Z" fill="#D5B26B"/>
<path d="M70.99 265.28C71.1022 265.392 71.3266 265.392 71.4388 265.28C71.551 265.168 71.551 265.056 71.4388 265.056C71.3266 264.944 70.6534 264.607 70.5412 264.719C70.429 264.719 70.8778 265.168 70.99 265.28Z" fill="#D5B26B"/>
<path d="M71.5511 264.832C71.6633 264.832 71.8877 264.72 71.8877 264.72C71.8877 264.72 71.7755 264.608 71.5511 264.608C71.3267 264.608 70.5413 264.72 70.5413 264.72C70.5413 264.72 71.3267 264.832 71.5511 264.832Z" fill="#D5B26B"/>
<path d="M69.4194 264.495C69.3072 264.495 69.0828 264.607 69.0828 264.607C69.0828 264.607 69.195 264.719 69.4194 264.719C69.5316 264.719 70.4292 264.607 70.4292 264.607C70.4292 264.607 69.6438 264.495 69.4194 264.495Z" fill="#D5B26B"/>
<path d="M69.9801 264.158C69.8679 264.046 69.6435 264.046 69.5314 264.158C69.4192 264.27 69.4192 264.382 69.5314 264.382C69.6435 264.495 70.3167 264.719 70.4289 264.719C70.5411 264.607 70.0923 264.27 69.9801 264.158Z" fill="#D5B26B"/>
<path d="M70.3167 264.607C70.2045 264.607 70.2045 264.719 70.3167 264.831C70.4289 264.944 70.6533 264.944 70.7655 264.831C70.8777 264.719 70.8777 264.607 70.7655 264.607C70.6533 264.607 70.4289 264.495 70.3167 264.607Z" fill="#F0F0F0"/>
<path d="M66.5023 266.178C66.3901 266.29 66.3901 266.402 66.5023 266.402C66.6145 266.515 66.8389 266.515 66.9511 266.402C67.0633 266.29 67.6243 265.953 67.5121 265.841C67.2877 265.841 66.6145 266.178 66.5023 266.178Z" fill="#D5B26B"/>
<path d="M68.2962 265.617C68.4084 265.505 68.4084 265.393 68.2962 265.393C68.184 265.28 67.9596 265.28 67.8474 265.393C67.7352 265.505 67.1742 265.841 67.2864 265.954C67.5108 265.954 68.184 265.729 68.2962 265.617Z" fill="#D5B26B"/>
<path d="M67.1755 266.515C67.1755 266.627 67.2877 266.627 67.512 266.627C67.6242 266.627 67.8486 266.515 67.8486 266.515C67.8486 266.402 67.7364 265.953 67.512 265.953C67.2877 265.953 67.1755 266.402 67.1755 266.515Z" fill="#D5B26B"/>
<path d="M67.7363 265.28C67.7363 265.168 67.6241 265.168 67.3997 265.168C67.2875 265.168 67.0631 265.28 67.0631 265.28C67.0631 265.392 67.1753 265.841 67.3997 265.841C67.6241 265.954 67.7363 265.392 67.7363 265.28Z" fill="#D5B26B"/>
<path d="M67.9607 266.402C68.0729 266.515 68.2973 266.515 68.4095 266.402C68.5217 266.29 68.5217 266.178 68.4095 266.178C68.2973 266.066 67.6241 265.841 67.5119 265.841C67.2875 265.953 67.8485 266.402 67.9607 266.402Z" fill="#D5B26B"/>
<path d="M68.4095 266.066C68.5217 266.066 68.7461 265.953 68.7461 265.953C68.7461 265.841 68.6339 265.841 68.4095 265.841C68.2973 265.841 67.3997 265.953 67.3997 265.953C67.3997 265.953 68.2973 266.066 68.4095 266.066Z" fill="#D5B26B"/>
<path d="M66.3901 265.729C66.2779 265.729 66.0535 265.841 66.0535 265.841C66.0535 265.953 66.1657 265.953 66.3901 265.953C66.5023 265.953 67.3999 265.841 67.3999 265.841C67.3999 265.841 66.6145 265.729 66.3901 265.729Z" fill="#D5B26B"/>
<path d="M66.9508 265.392C66.8386 265.28 66.6143 265.28 66.5021 265.392C66.3899 265.505 66.3899 265.617 66.5021 265.617C66.6143 265.729 67.2874 265.953 67.3996 265.953C67.5118 265.841 67.063 265.505 66.9508 265.392Z" fill="#D5B26B"/>
<path d="M67.2874 265.729C67.1752 265.841 67.1752 265.953 67.2874 265.953C67.3996 266.066 67.624 266.066 67.7362 265.953C67.8484 265.841 67.8484 265.729 67.7362 265.729C67.5118 265.729 67.3996 265.729 67.2874 265.729Z" fill="#F0F0F0"/>
<path d="M69.6439 267.861C69.5317 267.973 69.5317 268.086 69.6439 268.086C69.7561 268.198 69.9805 268.198 70.0927 268.086C70.2049 267.973 70.7659 267.637 70.6537 267.524C70.4293 267.524 69.7561 267.861 69.6439 267.861Z" fill="#D5B26B"/>
<path d="M71.5506 267.3C71.6628 267.188 71.6628 267.076 71.5506 267.076C71.4384 266.964 71.214 266.964 71.1018 267.076C70.9896 267.188 70.4286 267.525 70.5408 267.637C70.653 267.637 71.4384 267.3 71.5506 267.3Z" fill="#D5B26B"/>
<path d="M70.317 268.198C70.317 268.31 70.4292 268.31 70.6536 268.31C70.7658 268.31 70.9902 268.198 70.9902 268.198C70.9902 268.198 70.878 267.637 70.6536 267.637C70.4292 267.637 70.317 268.086 70.317 268.198Z" fill="#D5B26B"/>
<path d="M70.8779 266.963C70.8779 266.851 70.7657 266.851 70.5413 266.851C70.4291 266.851 70.2047 266.963 70.2047 266.963C70.2047 266.963 70.3169 267.524 70.5413 267.524C70.7657 267.524 70.8779 267.076 70.8779 266.963Z" fill="#D5B26B"/>
<path d="M71.1023 268.086C71.2145 268.198 71.4389 268.198 71.5511 268.086C71.6633 267.973 71.6633 267.861 71.5511 267.861C71.4389 267.749 70.7657 267.524 70.6535 267.524C70.4291 267.637 70.9901 268.086 71.1023 268.086Z" fill="#D5B26B"/>
<path d="M71.5511 267.749C71.6633 267.749 71.8877 267.637 71.8877 267.637C71.8877 267.637 71.7755 267.524 71.5511 267.524C71.4389 267.524 70.5413 267.637 70.5413 267.637C70.5413 267.637 71.4389 267.749 71.5511 267.749Z" fill="#D5B26B"/>
<path d="M69.5317 267.412C69.4195 267.412 69.1952 267.524 69.1952 267.524C69.1952 267.524 69.3074 267.637 69.5317 267.637C69.6439 267.637 70.5415 267.524 70.5415 267.524C70.5415 267.524 69.7561 267.412 69.5317 267.412Z" fill="#D5B26B"/>
<path d="M70.0924 267.076C69.9802 266.963 69.7558 266.963 69.6436 267.076C69.5314 267.188 69.5314 267.3 69.6436 267.3C69.7558 267.412 70.429 267.637 70.5412 267.637C70.6534 267.524 70.2046 267.076 70.0924 267.076Z" fill="#D5B26B"/>
<path d="M70.6536 267.637C70.4677 267.637 70.317 267.586 70.317 267.524C70.317 267.463 70.4677 267.412 70.6536 267.412C70.8395 267.412 70.9902 267.463 70.9902 267.524C70.9902 267.586 70.8395 267.637 70.6536 267.637Z" fill="#F0F0F0"/>
<path d="M61.902 267.076C61.7898 267.188 61.7898 267.3 61.902 267.3C62.0142 267.412 62.2386 267.412 62.3508 267.3C62.3508 267.3 62.9118 266.851 62.7996 266.851C62.6874 266.739 62.0142 267.076 61.902 267.076Z" fill="#D5B26B"/>
<path d="M63.6961 266.515C63.8083 266.403 63.8083 266.29 63.6961 266.29C63.5839 266.178 63.3595 266.178 63.2473 266.29C63.1351 266.403 62.5741 266.739 62.6863 266.851C62.9107 266.851 63.5839 266.627 63.6961 266.515Z" fill="#D5B26B"/>
<path d="M62.4631 267.412C62.4631 267.524 62.5753 267.524 62.7997 267.524C63.024 267.524 63.1362 267.412 63.1362 267.412C63.1362 267.3 63.024 266.851 62.7997 266.851C62.5753 266.851 62.4631 267.3 62.4631 267.412Z" fill="#D5B26B"/>
<path d="M63.1362 266.178C63.1362 266.066 63.024 266.066 62.7997 266.066C62.5753 266.066 62.4631 266.178 62.4631 266.178C62.4631 266.29 62.5753 266.739 62.7997 266.739C63.024 266.739 63.1362 266.29 63.1362 266.178Z" fill="#D5B26B"/>
<path d="M63.3606 267.3C63.4728 267.412 63.6972 267.412 63.8094 267.3C63.9216 267.188 63.9216 267.076 63.8094 267.076C63.6972 266.963 63.024 266.739 62.9118 266.739C62.7996 266.739 63.2484 267.3 63.3606 267.3Z" fill="#D5B26B"/>
<path d="M63.8094 266.963C63.9216 266.963 64.146 266.851 64.146 266.851C64.146 266.739 64.0338 266.739 63.8094 266.739C63.6972 266.739 62.7996 266.851 62.7996 266.851C62.7996 266.851 63.6972 266.963 63.8094 266.963Z" fill="#D5B26B"/>
<path d="M61.79 266.627C61.6778 266.627 61.4534 266.739 61.4534 266.739C61.4534 266.851 61.5656 266.851 61.79 266.851C61.9022 266.851 62.7998 266.739 62.7998 266.739C62.7998 266.739 61.9022 266.627 61.79 266.627Z" fill="#D5B26B"/>
<path d="M62.2387 266.29C62.1265 266.178 61.9021 266.178 61.7899 266.29C61.6777 266.402 61.6777 266.515 61.7899 266.515C62.0143 266.627 62.6875 266.851 62.7997 266.851C62.9119 266.739 62.3509 266.29 62.2387 266.29Z" fill="#D5B26B"/>
<path d="M62.5755 266.627C62.4633 266.739 62.4633 266.851 62.5755 266.851C62.6877 266.963 62.912 266.963 63.0242 266.851C63.1364 266.739 63.1364 266.627 63.0242 266.627C62.912 266.627 62.6877 266.627 62.5755 266.627Z" fill="#F0F0F0"/>
<path d="M66.7264 263.373C66.6142 263.485 66.6142 263.597 66.7264 263.597C66.8386 263.709 67.063 263.709 67.1752 263.597C67.2874 263.485 67.8484 263.148 67.7362 263.036C67.5118 263.036 66.8386 263.26 66.7264 263.373Z" fill="#D5B26B"/>
<path d="M68.6326 262.812C68.7448 262.699 68.7448 262.587 68.6326 262.587C68.5205 262.475 68.2961 262.475 68.1839 262.587C68.0717 262.699 67.5107 263.036 67.6229 263.148C67.8473 263.148 68.5205 262.812 68.6326 262.812Z" fill="#D5B26B"/>
<path d="M67.3995 263.597C67.3995 263.709 67.5117 263.709 67.7361 263.709C67.9604 263.709 67.9604 263.709 67.9604 263.597C67.9604 263.485 67.8483 263.036 67.6239 263.036C67.3995 263.036 67.3995 263.597 67.3995 263.597Z" fill="#D5B26B"/>
<path d="M67.9604 262.475C67.9604 262.363 67.8483 262.363 67.7361 262.363C67.6239 262.363 67.3995 262.475 67.3995 262.475C67.3995 262.475 67.5117 263.036 67.7361 263.036C67.9604 263.036 67.9604 262.587 67.9604 262.475Z" fill="#D5B26B"/>
<path d="M68.1848 263.597C68.297 263.709 68.5214 263.709 68.6336 263.597C68.7458 263.485 68.7458 263.373 68.6336 263.373C68.5214 263.26 67.8482 263.036 67.736 263.036C67.6238 263.148 68.0726 263.485 68.1848 263.597Z" fill="#D5B26B"/>
<path d="M68.7459 263.26C68.8581 263.26 69.0825 263.148 69.0825 263.148C69.0825 263.148 68.9703 263.036 68.7459 263.036C68.6337 263.036 67.7361 263.148 67.7361 263.148C67.7361 263.148 68.5215 263.26 68.7459 263.26Z" fill="#D5B26B"/>
<path d="M66.6142 262.924C66.502 262.924 66.2776 263.036 66.2776 263.036C66.2776 263.036 66.3898 263.148 66.6142 263.148C66.7264 263.148 67.624 263.036 67.624 263.036C67.624 263.036 66.8386 262.924 66.6142 262.924Z" fill="#D5B26B"/>
<path d="M67.175 262.475C67.0628 262.363 66.8384 262.363 66.7262 262.475C66.614 262.587 66.614 262.699 66.7262 262.699C66.8384 262.811 67.5115 263.036 67.6237 263.036C67.7359 263.036 67.2872 262.587 67.175 262.475Z" fill="#D5B26B"/>
<path d="M67.7361 263.148C67.5502 263.148 67.3995 263.098 67.3995 263.036C67.3995 262.974 67.5502 262.924 67.7361 262.924C67.922 262.924 68.0728 262.974 68.0728 263.036C68.0728 263.098 67.922 263.148 67.7361 263.148Z" fill="#F0F0F0"/>
<path d="M74.5804 264.831C74.4682 264.944 74.4682 265.056 74.5804 265.056C74.6926 265.168 74.917 265.168 75.0292 265.056C75.1414 264.944 75.7024 264.607 75.5902 264.495C75.3658 264.382 74.6926 264.719 74.5804 264.831Z" fill="#D5B26B"/>
<path d="M76.4867 264.158C76.5989 264.046 76.5989 263.934 76.4867 263.934C76.3745 263.821 76.1501 263.821 76.0379 263.934C75.9257 264.046 75.3647 264.383 75.4769 264.495C75.7013 264.495 76.3745 264.27 76.4867 264.158Z" fill="#D5B26B"/>
<path d="M75.2536 265.056C75.2536 265.168 75.3658 265.168 75.5902 265.168C75.7024 265.168 75.9268 265.056 75.9268 265.056C75.9268 265.056 75.8146 264.495 75.5902 264.495C75.3658 264.495 75.2536 264.944 75.2536 265.056Z" fill="#D5B26B"/>
<path d="M75.8145 263.934C75.8145 263.821 75.7023 263.821 75.4779 263.821C75.3657 263.821 75.1413 263.934 75.1413 263.934C75.1413 263.934 75.2535 264.495 75.4779 264.495C75.7023 264.495 75.8145 264.046 75.8145 263.934Z" fill="#D5B26B"/>
<path d="M76.0388 265.056C76.151 265.168 76.3754 265.168 76.4876 265.056C76.5998 264.944 76.5998 264.831 76.4876 264.831C76.3754 264.719 75.7022 264.495 75.59 264.495C75.4778 264.607 75.9266 264.944 76.0388 265.056Z" fill="#D5B26B"/>
<path d="M76.5999 264.608C76.7121 264.608 76.9365 264.496 76.9365 264.496C76.9365 264.496 76.8243 264.383 76.5999 264.383C76.4877 264.383 75.5901 264.496 75.5901 264.496C75.5901 264.496 76.3755 264.608 76.5999 264.608Z" fill="#D5B26B"/>
<path d="M74.4682 264.27C74.356 264.27 74.1317 264.382 74.1317 264.382C74.1317 264.382 74.356 264.607 74.4682 264.607C74.6926 264.607 75.478 264.607 75.478 264.495C75.478 264.382 74.6926 264.27 74.4682 264.27Z" fill="#D5B26B"/>
<path d="M75.029 263.934C74.9168 263.821 74.6924 263.821 74.5802 263.934C74.468 264.046 74.468 264.158 74.5802 264.158C74.6924 264.27 75.3656 264.495 75.4777 264.495C75.5899 264.383 75.1412 264.046 75.029 263.934Z" fill="#D5B26B"/>
<path d="M75.3655 264.382C75.2533 264.495 75.2533 264.607 75.3655 264.607C75.4777 264.607 75.7021 264.607 75.8143 264.607C75.9265 264.495 75.9265 264.382 75.8143 264.382C75.7021 264.27 75.4777 264.27 75.3655 264.382Z" fill="#F0F0F0"/>
<path d="M74.244 269.208C74.1318 269.32 74.1318 269.432 74.244 269.432C74.3562 269.544 74.5806 269.544 74.6928 269.432C74.805 269.32 75.366 268.983 75.2538 268.871C75.0294 268.871 74.3562 269.208 74.244 269.208Z" fill="#D5B26B"/>
<path d="M76.0379 268.647C76.1501 268.535 76.1501 268.422 76.0379 268.422C75.9257 268.31 75.7013 268.31 75.5891 268.422C75.4769 268.535 74.9159 268.871 75.0281 268.984C75.2525 268.984 75.9257 268.759 76.0379 268.647Z" fill="#D5B26B"/>
<path d="M74.8048 269.544C74.8048 269.657 74.917 269.657 75.1414 269.657C75.3658 269.657 75.478 269.544 75.478 269.544C75.478 269.432 75.3658 268.983 75.1414 268.983C74.917 268.983 74.8048 269.432 74.8048 269.544Z" fill="#D5B26B"/>
<path d="M75.3657 268.31C75.3657 268.198 75.2535 268.198 75.0291 268.198C74.8047 268.198 74.6925 268.31 74.6925 268.31C74.6925 268.422 74.8047 268.871 75.0291 268.871C75.2535 268.871 75.3657 268.422 75.3657 268.31Z" fill="#D5B26B"/>
<path d="M75.5901 269.432C75.7023 269.544 75.9267 269.544 76.0389 269.432C76.1511 269.32 76.1511 269.208 76.0389 269.208C75.9267 269.095 75.2535 268.871 75.1413 268.871C75.0291 268.983 75.4779 269.432 75.5901 269.432Z" fill="#D5B26B"/>
<path d="M76.1512 269.095C76.2634 269.095 76.4878 268.983 76.4878 268.983C76.4878 268.871 76.3756 268.871 76.1512 268.871C76.039 268.871 75.1414 268.983 75.1414 268.983C75.1414 268.983 75.9268 269.095 76.1512 269.095Z" fill="#D5B26B"/>
<path d="M74.1318 268.759C74.0196 268.759 73.7952 268.871 73.7952 268.871C73.7952 268.983 73.9074 268.983 74.1318 268.983C74.244 268.983 75.1416 268.871 75.1416 268.871C75.1416 268.871 74.244 268.759 74.1318 268.759Z" fill="#D5B26B"/>
<path d="M74.5802 268.422C74.468 268.31 74.2436 268.31 74.1314 268.422C74.0193 268.534 74.0193 268.647 74.1314 268.647C74.2436 268.759 74.9168 268.983 75.029 268.983C75.1412 268.983 74.6924 268.422 74.5802 268.422Z" fill="#D5B26B"/>
<path d="M74.9173 268.759C74.8051 268.871 74.8051 268.983 74.9173 268.983C75.0295 269.096 75.2539 269.096 75.366 268.983C75.4782 268.871 75.4782 268.759 75.366 268.759C75.2539 268.759 75.0295 268.759 74.9173 268.759Z" fill="#F0F0F0"/>
<path d="M77.8343 266.178C77.7221 266.29 77.7221 266.402 77.8343 266.402C77.9465 266.515 78.1709 266.515 78.2831 266.402C78.3953 266.29 78.9563 265.953 78.8441 265.841C78.6197 265.841 77.9465 266.178 77.8343 266.178Z" fill="#D5B26B"/>
<path d="M79.6283 265.617C79.7405 265.505 79.7405 265.393 79.6283 265.393C79.5161 265.28 79.2917 265.28 79.1795 265.393C79.0673 265.505 78.5063 265.841 78.6185 265.954C78.8429 265.954 79.5161 265.729 79.6283 265.617Z" fill="#D5B26B"/>
<path d="M78.5075 266.515C78.5075 266.627 78.6197 266.627 78.8441 266.627C79.0685 266.627 79.1807 266.515 79.1807 266.515C79.1807 266.515 79.0685 265.953 78.8441 265.953C78.6197 265.953 78.5075 266.402 78.5075 266.515Z" fill="#D5B26B"/>
<path d="M79.0684 265.28C79.0684 265.168 78.9562 265.168 78.7318 265.168C78.5074 265.168 78.3952 265.28 78.3952 265.28C78.3952 265.28 78.5074 265.841 78.7318 265.841C78.9562 265.841 79.0684 265.392 79.0684 265.28Z" fill="#D5B26B"/>
<path d="M79.2928 266.402C79.4049 266.515 79.6293 266.515 79.7415 266.402C79.8537 266.29 79.8537 266.178 79.7415 266.178C79.6293 266.066 78.9562 265.841 78.844 265.841C78.6196 265.953 79.1806 266.402 79.2928 266.402Z" fill="#D5B26B"/>
<path d="M79.7415 266.067C79.8537 266.067 80.0781 265.954 80.0781 265.954C80.0781 265.954 79.9659 265.73 79.7415 265.73C79.6293 265.73 78.7318 265.842 78.7318 265.842C78.7318 265.842 79.6293 266.067 79.7415 266.067Z" fill="#D5B26B"/>
<path d="M77.7222 265.729C77.61 265.729 77.3856 265.841 77.3856 265.841C77.3856 265.841 77.4978 265.953 77.7222 265.953C77.8344 265.953 78.7319 265.841 78.7319 265.841C78.7319 265.841 77.8344 265.729 77.7222 265.729Z" fill="#D5B26B"/>
<path d="M78.1706 265.392C78.0584 265.28 77.834 265.28 77.7218 265.392C77.6096 265.505 77.6096 265.617 77.7218 265.617C77.834 265.729 78.5072 265.953 78.6194 265.953C78.8438 265.841 78.2828 265.505 78.1706 265.392Z" fill="#D5B26B"/>
<path d="M78.6194 265.841C78.5072 265.953 78.5072 266.066 78.6194 266.066C78.7316 266.178 78.956 266.178 79.0682 266.066C79.1804 265.953 79.1804 265.841 79.0682 265.841C78.8438 265.729 78.7316 265.729 78.6194 265.841Z" fill="#F0F0F0"/>
<path d="M45.197 337.32H38.8047L38.2363 339.012H45.197V337.32Z" fill="url(#paint1_linear_198_5090)"/>
<path d="M40.7675 339.27L40.2051 340.963H48.8181V339.34L40.7675 339.27Z" fill="url(#paint2_linear_198_5090)"/>
<path d="M35.9161 323.77C36.1504 324.151 36.5547 324.543 36.6543 324.795C36.7539 325.041 36.7891 325.387 36.795 325.522C36.8008 325.651 36.7129 326.037 36.5488 325.979C36.3848 325.92 36.3262 326.084 36.168 326.061C36.0039 326.031 36.0625 325.973 36.0625 325.973C35.9747 326.008 35.8633 326.008 35.8282 325.943C35.7578 325.973 35.7227 326.049 35.5996 325.908C35.5 325.791 35.4649 325.574 35.3828 325.457C35.125 325.082 35.1954 323.963 35.1426 323.852C35.0899 323.735 35.752 323.507 35.9161 323.77Z" fill="#00654F"/>
<path d="M37.8146 314.626C34.7736 317.092 34.5393 320.513 35.0607 324.116C35.4533 324.655 36.2619 324.362 36.1505 323.852C35.7052 320.097 36.2033 316.536 37.8146 314.626Z" fill="#00654F"/>
<path d="M37.2051 338.438C37.2051 336.968 38.1367 336.927 38.1367 336.927C38.1367 336.927 38.6406 336.927 39.4609 336.587C40.2694 336.253 41.4061 336.382 40.7733 337.554C40.7674 337.566 40.7616 337.583 40.7498 337.595C40.7088 337.659 40.6444 337.718 40.5448 337.776L38.5117 338.966C38.1953 339.147 37.2109 338.737 37.2051 338.438Z" fill="#006250"/>
<path d="M37.2109 338.304C37.2285 338.602 38.2012 339.007 38.5058 338.831L40.5389 337.642C40.6034 337.601 40.7206 337.525 40.826 337.431C40.8085 337.472 40.7909 337.507 40.7675 337.554C40.7616 337.566 40.7557 337.583 40.744 337.595C40.703 337.659 40.6385 337.718 40.5389 337.777L38.5058 338.966C38.2187 339.13 37.334 338.784 37.2168 338.491C37.2109 338.468 37.2051 338.45 37.2051 338.433C37.2051 338.392 37.2051 338.351 37.2109 338.304Z" fill="#000A1C"/>
<path d="M37.5801 336.734C37.8203 336.734 38.664 336.95 38.664 336.95C38.664 336.95 38.6698 337.068 38.7401 337.167C38.7518 337.179 38.7577 337.185 38.7636 337.197C38.9276 337.314 39.0975 337.495 38.705 337.741C38.3827 337.946 38.1191 337.818 37.9961 337.689C37.9433 337.595 37.873 337.489 37.7676 337.431C37.6621 337.366 37.5977 337.343 37.5449 337.337C37.5449 337.331 37.5449 337.32 37.5449 337.32C37.5449 337.32 37.4805 336.734 37.5801 336.734Z" fill="white"/>
<path d="M36.2382 323.126C37.1581 323.143 39.4549 323.184 40.3748 323.202C40.0349 325.961 40.6736 327.73 40.2108 330.407C39.7186 333.008 39.1619 334.836 38.6756 336.997C38.4999 337.402 37.6854 337.249 37.5214 336.863C37.3925 334.871 37.246 332.44 37.8378 330.144C36.7948 327.443 36.1796 325.627 36.2382 323.126Z" fill="#006753"/>
<path d="M39.0801 340.389C39.0801 338.925 40.0117 338.878 40.0117 338.878C40.0117 338.878 40.5156 338.878 41.3358 338.538C42.1444 338.204 43.2811 338.333 42.6424 339.505C42.6366 339.516 42.6307 339.534 42.619 339.546C42.578 339.61 42.5136 339.669 42.414 339.727L40.3808 340.916C40.0703 341.098 39.0859 340.694 39.0801 340.389Z" fill="#006250"/>
<path d="M39.0801 340.26C39.0977 340.565 40.0703 340.963 40.3749 340.787L42.4081 339.598C42.4785 339.557 42.5898 339.481 42.6952 339.387C42.6777 339.428 42.6601 339.469 42.6367 339.51C42.6308 339.522 42.6249 339.54 42.6132 339.551C42.5722 339.616 42.5077 339.674 42.4081 339.733L40.3749 340.922C40.0878 341.086 39.2031 340.741 39.0859 340.448C39.0801 340.424 39.0742 340.407 39.0742 340.389C39.0801 340.342 39.0801 340.301 39.0801 340.26Z" fill="#000A1C"/>
<path d="M39.4551 338.684C39.6953 338.684 40.539 338.901 40.539 338.901C40.539 338.901 40.5449 339.018 40.6152 339.118C40.621 339.13 40.6328 339.135 40.6386 339.147C40.8027 339.264 40.9726 339.446 40.58 339.692C40.2578 339.897 39.9941 339.768 39.8711 339.639C39.8184 339.546 39.748 339.44 39.6426 339.382C39.5371 339.317 39.4727 339.294 39.4199 339.288C39.4199 339.282 39.4199 339.27 39.4199 339.27C39.4199 339.27 39.3555 338.684 39.4551 338.684Z" fill="white"/>
<path d="M42.0037 325.738C42.0037 323.905 37.1054 323.559 36.1973 323.694C36.1973 327.548 38.3124 328.199 39.0741 333.137C38.8632 334.754 38.9687 337.132 39.3964 338.983C39.6249 339.341 40.451 339.358 40.5565 338.93C40.9491 336.939 41.3533 335.17 41.3533 332.522C41.3592 331.643 41.9978 327.976 42.0037 325.738Z" fill="#006250"/>
<path d="M37.6619 325.815C39.6306 326.922 41.5583 326.851 42.2321 325.674C41.9685 323.143 42.0915 319.822 42.0915 319.072C42.0915 318.322 42.0915 317.789 42.2673 317.01C42.1619 316.659 41.447 315.938 40.8552 315.405C40.2224 314.825 39.7947 314.274 39.4666 314.21C36.7713 313.659 35.6639 318.024 35.8924 323.138C36.0741 324.854 36.6952 325.27 37.6619 325.815Z" fill="#006753"/>
<path d="M42.2378 325.668C41.9742 323.138 42.0972 319.816 42.0972 319.066C42.0972 318.316 42.0562 317.824 42.2261 317.045C42.2261 317.039 42.2202 317.034 42.2202 317.022L41.1597 316.606C40.3746 316.963 40.234 317.496 40.1929 319.277C40.1519 321.052 40.4332 322.604 40.7965 324.022C40.9957 324.801 41.0308 326.172 40.7906 326.564C41.4351 326.471 41.9507 326.172 42.2378 325.668Z" fill="#00654F"/>
<path d="M37.9783 314.509C38.5643 314.087 38.119 313.314 38.0545 312.734C37.9549 312.429 37.908 312.089 37.9198 311.738C37.9725 310.461 38.8397 309.389 39.8299 309.506C41.8338 309.729 41.4295 310.771 41.3767 312.048C41.324 313.232 41.0252 314.064 40.117 314.163C40.1111 314.356 40.1287 314.69 40.3689 314.936C39.7127 315.329 38.9158 315.305 38.535 315.136C38.1365 314.948 37.703 314.79 37.9783 314.509Z" fill="#00654F"/>
<path d="M40.6148 308.856C40.562 308.698 40.2573 308.598 39.2261 309.026C39.2203 309.032 38.9742 309.131 38.9624 309.137C37.0582 310.016 37.5797 312.218 37.8785 312.798C37.984 313.003 38.0601 313.167 38.0484 313.489C38.8042 313.443 39.0503 313.858 39.5249 313.425C39.8648 313.114 40.3745 312.745 40.4565 312.593C40.5386 312.441 40.521 312.347 40.521 312.224C40.4975 311.164 41.0015 311.796 40.9956 312.042C41.1948 311.943 41.1714 311.515 41.148 311.041C42.7417 309.793 41.8511 308.973 40.6148 308.856Z" fill="#006753"/>
<path d="M43.3104 325.387C43.5096 325.639 43.867 325.715 44.078 325.932C44.242 326.096 43.9959 326.125 44.119 326.277C44.242 326.43 44.7049 326.541 44.5408 326.81C44.2538 327.279 43.7323 327.426 43.2109 327.133C42.7949 326.898 42.5957 326.272 42.3438 325.873C42.6953 325.744 43.0058 325.592 43.3104 325.387Z" fill="#00654F"/>
<path d="M41.2949 316.571C42.0449 316.36 42.3261 316.782 42.4316 317.783C42.5898 319.5 42.4609 320.156 42.6484 321.884C42.8828 323.003 43.0234 324.268 43.3515 325.287C43.539 325.867 42.8242 326.705 42.2792 325.932C41.787 325.235 41.0488 323.032 40.9258 322.657C40.6328 321.591 40.4042 319.998 40.2988 318.603C40.1874 317.215 40.5449 316.782 41.2949 316.571Z" fill="#006753"/>
<path d="M139.919 173.973V168.666L223.401 216.859V222.156L139.919 173.973Z" fill="#4A896D"/>
<path d="M223.401 0L139.909 48.1931L223.401 96.3863L306.893 48.1931L223.401 0ZM223.401 65.0576L194.177 48.1931L223.401 31.3286L252.625 48.1931L223.401 65.0576Z" fill="#CEDFE2"/>
<path d="M139.92 64.2506V48.1828L223.401 96.3759V112.444L139.92 64.2506Z" fill="#B0D1BF"/>
<path d="M223.401 112.444V96.3759L306.893 48.1828V64.2506L223.401 112.444Z" fill="#4A896D"/>
<path d="M235.923 31.3183H223.401L252.625 48.1828L223.401 65.0576H235.923L265.147 48.1828L235.923 31.3183Z" fill="url(#paint3_linear_198_5090)"/>
<path d="M223.4 57.9601L194.187 41.0956L223.4 24.2311L252.625 41.0956L223.4 57.9601Z" fill="white"/>
<path d="M223.4 65.0576L194.187 48.1828V41.0956L223.4 57.9601V65.0576Z" fill="#B0D1BF"/>
<path d="M252.625 48.1828L223.401 65.0576V57.9601L252.625 41.0956V48.1828Z" fill="#4E9376"/>
<path opacity="0.6" d="M223.401 112.444H237.32L320.812 64.2506L306.893 56.2219V64.2506L223.401 112.444Z" fill="#3A8C5B"/>
<path d="M148.994 105.884L142.443 102.108V94.5446L148.994 98.3314V105.884Z" fill="#006550"/>
<path d="M168.315 117.038L161.765 113.261V105.698L168.315 109.485V117.038Z" fill="#006550"/>
<path d="M187.636 128.191L181.085 124.414V116.851L187.636 120.638V128.191Z" fill="#006550"/>
<path d="M206.956 139.344L200.406 135.568V128.005L206.956 131.791V139.344Z" fill="#006550"/>
<path d="M148.994 123.069L142.443 119.283V111.719L148.994 115.506V123.069Z" fill="#006550"/>
<path d="M168.315 134.212L161.765 130.436V122.873L168.315 126.66V134.212Z" fill="#006550"/>
<path d="M187.636 145.366L181.085 141.589V134.026L187.636 137.803V145.366Z" fill="#006550"/>
<path d="M206.956 156.519L200.406 152.743V145.179L206.956 148.956V156.519Z" fill="#006550"/>
<path d="M148.994 140.234L142.443 136.458V128.894L148.994 132.681V140.234Z" fill="#006550"/>
<path d="M168.315 151.387L161.765 147.611V140.048L168.315 143.824V151.387Z" fill="#006550"/>
<path d="M187.636 162.541L181.085 158.764V151.201L187.636 154.977V162.541Z" fill="#006550"/>
<path d="M206.956 173.694L200.406 169.918V162.354L206.956 166.131V173.694Z" fill="#006550"/>
<path d="M148.994 157.409L142.443 153.632V146.069L148.994 149.856V157.409Z" fill="#006550"/>
<path d="M168.315 168.562L161.765 164.786V157.223L168.315 161.009V168.562Z" fill="#006550"/>
<path d="M187.636 179.715L181.085 175.939V168.376L187.636 172.152V179.715Z" fill="#006550"/>
<path d="M206.956 190.869L200.406 187.092V179.529L206.956 183.316V190.869Z" fill="#006550"/>
<path d="M297.806 105.884L304.357 102.108V94.5446L297.806 98.3314V105.884Z" fill="#006558"/>
<path d="M278.486 117.037L285.037 113.261V105.698L278.486 109.485V117.037Z" fill="#006558"/>
<path d="M259.165 128.191L265.716 124.414V116.851L259.165 120.638V128.191Z" fill="#006558"/>
<path d="M239.854 139.344L246.395 135.568V128.005L239.854 131.791V139.344Z" fill="#006558"/>
<path d="M297.806 123.069L304.357 119.283V111.719L297.806 115.506V123.069Z" fill="#006558"/>
<path d="M278.486 134.212L285.037 130.436V122.873L278.486 126.66V134.212Z" fill="#006558"/>
<path d="M259.165 145.366L265.716 141.589V134.026L259.165 137.803V145.366Z" fill="#006558"/>
<path d="M239.854 156.519L246.395 152.743V145.179L239.854 148.956V156.519Z" fill="#006558"/>
<path d="M297.806 140.234L304.357 136.458V128.894L297.806 132.681V140.234Z" fill="#006558"/>
<path d="M278.486 151.387L285.037 147.611V140.048L278.486 143.824V151.387Z" fill="#006558"/>
<path d="M259.165 162.541L265.716 158.764V151.201L259.165 154.977V162.541Z" fill="#006558"/>
<path d="M239.854 173.694L246.395 169.918V162.354L239.854 166.131V173.694Z" fill="#006558"/>
<path d="M297.806 157.409L304.357 153.632V146.069L297.806 149.856V157.409Z" fill="#006558"/>
<path d="M278.486 168.562L285.037 164.786V157.223L278.486 161.009V168.562Z" fill="#006558"/>
<path d="M259.165 179.715L265.716 175.939V168.376L259.165 172.152V179.715Z" fill="#006558"/>
<path d="M239.854 190.869L246.395 187.092V179.529L239.854 183.316V190.869Z" fill="#006558"/>
<path d="M577.599 251.84H319.497V360H577.599V251.84Z" fill="url(#paint4_linear_198_5090)"/>
<path d="M263.842 175.805L319.496 207.93V360L263.842 327.864V175.805Z" fill="#E2E2E2"/>
<path d="M430.806 295.739L319.497 360V207.93L430.806 143.679V295.739Z" fill="#909090"/>
<path d="M430.805 143.679L375.151 111.554L263.842 175.805L319.496 207.93L430.805 143.679ZM356.14 164.827L326.916 181.692L309.292 171.521L338.506 154.657L356.14 164.827Z" fill="#D3D3D3"/>
<path d="M327.486 300.467L333.985 304.213V359.131L327.486 355.386V300.467Z" fill="#E2E2E2"/>
<path d="M428.528 304.554L333.984 359.131V304.213L428.528 249.636V304.554Z" fill="#909090"/>
<path d="M428.528 249.636L422.029 245.891L327.475 300.467L333.974 304.213L428.528 249.636Z" fill="#CEDFE2"/>
<path d="M346.92 152.422H334.636L356.141 164.827L326.917 181.692H339.2L368.424 164.827L346.92 152.422Z" fill="url(#paint5_linear_198_5090)"/>
<path d="M326.916 174.604L356.14 157.74L338.506 147.559L309.292 164.434L326.916 174.604Z" fill="white"/>
<path d="M356.139 164.827L326.915 181.692V174.604L356.139 157.74V164.827Z" fill="#909090"/>
<path d="M326.916 181.692L309.292 171.521V164.434L326.916 174.604V181.692Z" fill="#E2E2E2"/>
<path d="M327.486 300.467L333.985 304.213L428.529 249.636L422.03 245.891L327.486 300.467Z" fill="#A6A6A6"/>
<path d="M347.944 351.071V306.251L343.288 308.931L343.298 353.761L347.944 351.071Z" fill="#34564F"/>
<path d="M359.887 344.181V299.35L355.241 302.04V346.86L359.887 344.181Z" fill="#34564F"/>
<path d="M371.839 337.279L371.828 292.459L367.182 295.139V339.97L371.839 337.279Z" fill="#34564F"/>
<path d="M383.782 330.389V285.569L379.125 288.248V333.079L383.782 330.389Z" fill="#34564F"/>
<path d="M395.723 323.498V278.668L391.066 281.358V326.178L395.723 323.498Z" fill="#34564F"/>
<path d="M407.665 316.597V271.777L403.009 274.457V319.287L407.665 316.597Z" fill="#34564F"/>
<path d="M419.608 309.707V264.876L414.952 267.566V312.386L419.608 309.707Z" fill="#34564F"/>
<path d="M400.773 191.634L407.324 187.858V180.295L400.773 184.071V191.634Z" fill="#34564F"/>
<path d="M381.452 202.788L388.003 199.011V191.448L381.452 195.225V202.788Z" fill="#34564F"/>
<path d="M362.132 213.941L368.682 210.154V202.602L362.132 206.378V213.941Z" fill="#34564F"/>
<path d="M342.812 225.084L349.362 221.308V213.745L342.812 217.531V225.084Z" fill="#34564F"/>
<path d="M400.773 208.809L407.324 205.033V197.47L400.773 201.246V208.809Z" fill="#34564F"/>
<path d="M381.452 219.963L388.003 216.176V208.623L381.452 212.4V219.963Z" fill="#34564F"/>
<path d="M362.132 231.116L368.682 227.329V219.776L362.132 223.553V231.116Z" fill="#34564F"/>
<path d="M342.812 242.259L349.362 238.483V230.919L342.812 234.706V242.259Z" fill="#34564F"/>
<path d="M400.773 225.984L407.324 222.197V214.645L400.773 218.421V225.984Z" fill="#34564F"/>
<path d="M381.452 237.127L388.003 233.351V225.788L381.452 229.574V237.127Z" fill="#34564F"/>
<path d="M362.132 248.281L368.682 244.504V236.941L362.132 240.728V248.281Z" fill="#34564F"/>
<path d="M342.812 259.434L349.362 255.657V248.094L342.812 251.881V259.434Z" fill="#34564F"/>
<path d="M400.773 243.159L407.324 239.372V231.82L400.773 235.596V243.159Z" fill="#34564F"/>
<path d="M381.452 254.302L388.003 250.526V242.963L381.452 246.749V254.302Z" fill="#34564F"/>
<path d="M362.132 265.455L368.682 261.679V254.116L362.132 257.903V265.455Z" fill="#34564F"/>
<path d="M342.812 276.609L349.362 272.832V265.269L342.812 269.056V276.609Z" fill="#34564F"/>
<path d="M294.939 222.042L288.399 218.266V210.703L294.939 214.489V222.042Z" fill="#34564F"/>
<path d="M294.939 239.217L288.399 235.441V227.878L294.939 231.664V239.217Z" fill="#34564F"/>
<path d="M294.939 256.392L288.399 252.616V245.052L294.939 248.839V256.392Z" fill="#34564F"/>
<path d="M294.939 273.567L288.399 269.791V262.227L294.939 266.014V273.567Z" fill="#34564F"/>
<path d="M294.939 290.028L288.399 286.252V278.688L294.939 282.475V290.028Z" fill="#34564F"/>
<path d="M294.939 306.489L288.399 302.712V295.149L294.939 298.936V306.489Z" fill="#34564F"/>
<path d="M294.939 322.95L288.399 319.174V311.61L294.939 315.387V322.95Z" fill="#34564F"/>
<path d="M125.129 243.917H94.3862V245.989H125.129V243.917Z" fill="url(#paint6_linear_198_5090)"/>
<path d="M92.8774 226.876L94.3862 227.746V245.989L92.8774 245.118V226.876Z" fill="#0A6B60"/>
<path d="M95.8892 226.876L94.3862 227.746V245.989L95.8892 245.118V226.876Z" fill="#004443"/>
<path d="M80 218.383C80 210.443 86.4389 204 94.3808 204C102.323 204 108.762 210.438 108.762 218.383C108.762 226.324 102.323 232.761 94.3808 232.761C86.4446 232.761 80 226.324 80 218.383Z" fill="url(#paint7_radial_198_5090)"/>
<path d="M216.129 361.917H185.386V363.989H216.129V361.917Z" fill="url(#paint8_linear_198_5090)"/>
<path d="M183.877 344.876L185.386 345.746V363.989L183.877 363.118V344.876Z" fill="#0A6B60"/>
<path d="M186.889 344.876L185.386 345.746V363.989L186.889 363.118V344.876Z" fill="#004443"/>
<path d="M171 336.383C171 328.443 177.439 322 185.381 322C193.323 322 199.762 328.438 199.762 336.383C199.762 344.324 193.323 350.761 185.381 350.761C177.445 350.761 171 344.324 171 336.383Z" fill="url(#paint9_radial_198_5090)"/>
<path d="M533.743 185H503V187.072H533.743V185Z" fill="url(#paint10_linear_198_5090)"/>
<path d="M503.37 187.012L502.164 186.31V172.744L503.37 173.439V187.012Z" fill="#0A6B60"/>
<path d="M503.369 187.012L504.575 186.31V172.744L503.369 173.439V187.012Z" fill="#004443"/>
<path d="M516.619 169.532L503.369 149.887C503.369 149.887 489.917 169.822 489.831 169.969C489.277 170.867 489 171.809 489 172.75C489 174.873 490.403 176.995 493.209 178.614C498.822 181.856 507.917 181.856 513.529 178.614C516.336 176.995 517.739 174.873 517.739 172.75C517.739 171.649 517.363 170.56 516.619 169.532Z" fill="url(#paint11_linear_198_5090)"/>
<path d="M514.982 161.583L503.369 144.368L491.763 161.583C491.111 162.482 490.778 163.441 490.778 164.395C490.778 166.253 492.009 168.117 494.464 169.532C499.388 172.375 507.357 172.375 512.274 169.532C514.729 168.111 515.966 166.253 515.966 164.395C515.96 163.441 515.634 162.482 514.982 161.583Z" fill="url(#paint12_linear_198_5090)"/>
<path d="M513.499 155.025C513.437 154.914 503.37 140 503.37 140C503.37 140 493.302 154.92 493.234 155.025C492.822 155.695 492.619 156.397 492.619 157.104C492.619 158.692 493.665 160.279 495.763 161.491C499.966 163.915 506.773 163.915 510.97 161.491C513.068 160.279 514.12 158.692 514.12 157.104C514.12 156.403 513.911 155.701 513.499 155.025Z" fill="url(#paint13_linear_198_5090)"/>
<defs>
<linearGradient id="paint0_linear_198_5090" x1="223.404" y1="257.32" x2="456.93" y2="257.32" gradientUnits="userSpaceOnUse">
<stop stop-color="#666666"/>
<stop offset="0.1781" stop-color="#8B8B8B"/>
<stop offset="0.4482" stop-color="#BDBDBD" stop-opacity="0.5"/>
<stop offset="0.6851" stop-color="#E1E1E1" stop-opacity="0.31"/>
<stop offset="0.8771" stop-color="#F7F7F7" stop-opacity="0.06"/>
<stop offset="1" stop-color="white" stop-opacity="0"/>
</linearGradient>
<linearGradient id="paint1_linear_198_5090" x1="38.235" y1="338.165" x2="45.1955" y2="338.165" gradientUnits="userSpaceOnUse">
<stop stop-color="#00605D"/>
<stop offset="0.8673" stop-color="#F6F9F9"/>
<stop offset="0.8989" stop-color="white"/>
</linearGradient>
<linearGradient id="paint2_linear_198_5090" x1="40.2031" y1="340.116" x2="48.8195" y2="340.116" gradientUnits="userSpaceOnUse">
<stop stop-color="#00605D"/>
<stop offset="0.1382" stop-color="#3C8583"/>
<stop offset="0.29" stop-color="#77AAA8"/>
<stop offset="0.4369" stop-color="#A7C8C7"/>
<stop offset="0.5748" stop-color="#CDE0DF"/>
<stop offset="0.7017" stop-color="#E9F1F1"/>
<stop offset="0.8137" stop-color="#F9FBFB"/>
<stop offset="0.8989" stop-color="white"/>
</linearGradient>
<linearGradient id="paint3_linear_198_5090" x1="223.401" y1="48.1857" x2="265.147" y2="48.1857" gradientUnits="userSpaceOnUse">
<stop stop-color="#005F4F"/>
<stop offset="0.1707" stop-color="#337F72"/>
<stop offset="0.4755" stop-color="#8AB5AE" stop-opacity="0.24"/>
<stop offset="0.7248" stop-color="#C9DDDA" stop-opacity="0.05"/>
<stop offset="0.9058" stop-color="#F0F6F5" stop-opacity="0.08"/>
<stop offset="1" stop-color="white" stop-opacity="0"/>
</linearGradient>
<linearGradient id="paint4_linear_198_5090" x1="319.496" y1="305.916" x2="577.599" y2="305.916" gradientUnits="userSpaceOnUse">
<stop stop-color="#666666"/>
<stop offset="0.1781" stop-color="#8B8B8B"/>
<stop offset="0.4482" stop-color="#BDBDBD"/>
<stop offset="0.6851" stop-color="#E1E1E1"/>
<stop offset="0.8771" stop-color="#F7F7F7"/>
<stop offset="1" stop-color="white"/>
</linearGradient>
<linearGradient id="paint5_linear_198_5090" x1="326.917" y1="167.057" x2="368.425" y2="167.057" gradientUnits="userSpaceOnUse">
<stop stop-color="#666666"/>
<stop offset="0.1781" stop-color="#8B8B8B"/>
<stop offset="0.4482" stop-color="#BDBDBD" stop-opacity="0.5"/>
<stop offset="0.6851" stop-color="#E1E1E1" stop-opacity="0.31"/>
<stop offset="0.8771" stop-color="#F7F7F7" stop-opacity="0.06"/>
<stop offset="1" stop-color="white" stop-opacity="0"/>
</linearGradient>
<linearGradient id="paint6_linear_198_5090" x1="94.3864" y1="244.953" x2="125.129" y2="244.953" gradientUnits="userSpaceOnUse">
<stop stop-color="#005F4F"/>
<stop offset="0.1707" stop-color="#337F72"/>
<stop offset="0.4755" stop-color="#8AB5AE" stop-opacity="0.24"/>
<stop offset="0.7248" stop-color="#C9DDDA" stop-opacity="0.05"/>
<stop offset="0.9058" stop-color="#F0F6F5" stop-opacity="0.08"/>
<stop offset="1" stop-color="white" stop-opacity="0"/>
</linearGradient>
<radialGradient id="paint7_radial_198_5090" cx="0" cy="0" r="1" gradientUnits="userSpaceOnUse" gradientTransform="translate(86.7618 212.874) scale(23.4181 23.4129)">
<stop stop-color="#006550"/>
<stop offset="1" stop-color="#0A6B60"/>
</radialGradient>
<linearGradient id="paint8_linear_198_5090" x1="185.386" y1="362.953" x2="216.129" y2="362.953" gradientUnits="userSpaceOnUse">
<stop stop-color="#005F4F"/>
<stop offset="0.1707" stop-color="#337F72"/>
<stop offset="0.4755" stop-color="#8AB5AE" stop-opacity="0.24"/>
<stop offset="0.7248" stop-color="#C9DDDA" stop-opacity="0.05"/>
<stop offset="0.9058" stop-color="#F0F6F5" stop-opacity="0.08"/>
<stop offset="1" stop-color="white" stop-opacity="0"/>
</linearGradient>
<radialGradient id="paint9_radial_198_5090" cx="0" cy="0" r="1" gradientUnits="userSpaceOnUse" gradientTransform="translate(177.762 330.874) scale(23.4181 23.4129)">
<stop stop-color="#006550"/>
<stop offset="1" stop-color="#0A6B60"/>
</radialGradient>
<linearGradient id="paint10_linear_198_5090" x1="503" y1="186.036" x2="533.743" y2="186.036" gradientUnits="userSpaceOnUse">
<stop stop-color="#005F4F"/>
<stop offset="0.1707" stop-color="#337F72"/>
<stop offset="0.4755" stop-color="#8AB5AE" stop-opacity="0.24"/>
<stop offset="0.7248" stop-color="#C9DDDA" stop-opacity="0.05"/>
<stop offset="0.9058" stop-color="#F0F6F5" stop-opacity="0.08"/>
<stop offset="1" stop-color="white" stop-opacity="0"/>
</linearGradient>
<linearGradient id="paint11_linear_198_5090" x1="489.596" y1="175.129" x2="512.314" y2="162.01" gradientUnits="userSpaceOnUse">
<stop stop-color="#006550"/>
<stop offset="0.3716" stop-color="#00574B"/>
<stop offset="1" stop-color="#004443"/>
</linearGradient>
<linearGradient id="paint12_linear_198_5090" x1="491.3" y1="166.488" x2="511.21" y2="154.991" gradientUnits="userSpaceOnUse">
<stop stop-color="#006550"/>
<stop offset="1" stop-color="#004443"/>
</linearGradient>
<linearGradient id="paint13_linear_198_5090" x1="492.617" y1="151.655" x2="514.121" y2="151.655" gradientUnits="userSpaceOnUse">
<stop stop-color="#006550"/>
<stop offset="1" stop-color="#0A6B60"/>
</linearGradient>
</defs>
</svg>
