<svg fill="none" save-fill="" version="1.1" viewBox="0 0 209 200" xmlns="http://www.w3.org/2000/svg">
 <g clip-path="url(#clip0_112_756)">
  <path d="m204 100c0.023 13.931-2.879 27.711-8.519 40.449-0.182 0.411-0.366 0.82-0.553 1.227-0.093 0.204-0.187 0.406-0.282 0.611-0.095 0.202-0.19 0.406-0.287 0.608-0.125 0.262-0.249 0.521-0.376 0.781-0.157 0.327-0.317 0.651-0.482 0.975-0.02 0.045-0.042 0.09-0.067 0.135-0.137 0.274-0.274 0.548-0.416 0.822-0.03 0.06-0.06 0.12-0.093 0.178-0.162 0.319-0.329 0.638-0.499 0.955v2e-3c-0.179 0.337-0.359 0.673-0.541 1.008-0.449 0.828-0.91 1.648-1.384 2.461-0.142 0.242-0.281 0.484-0.426 0.723-0.132 0.225-0.264 0.447-0.399 0.669-0.092 0.154-0.185 0.306-0.279 0.458-0.15 0.247-0.302 0.494-0.457 0.741-2e-3 2e-3 -2e-3 3e-3 -2e-3 5e-3 -0.342 0.549-0.691 1.095-1.043 1.636h-2e-3c-0.162 0.252-0.327 0.501-0.491 0.751v2e-3c-0.497 0.748-1.003 1.489-1.519 2.222v2e-3l-5e-3 3e-3v2e-3l-5e-3 5e-3c-0.409 0.586-0.826 1.168-1.252 1.744v2e-3c-0.272 0.369-0.546 0.738-0.823 1.102-0.227 0.3-0.456 0.598-0.688 0.896-0.048 0.064-0.097 0.127-0.15 0.192v2e-3c-0.062 0.082-0.125 0.162-0.192 0.244v3e-3c-0.985 1.259-2 2.494-3.045 3.703h-2e-3c-0.055 0.068-0.112 0.132-0.17 0.197-0.055 0.065-0.115 0.13-0.172 0.197h-2e-3c-0.088 0.102-0.177 0.205-0.267 0.307-0.087 0.102-0.18 0.204-0.272 0.307v2e-3c-5.446 6.145-11.627 11.598-18.404 16.235-0.903 0.621-1.817 1.225-2.743 1.813-0.23 0.147-0.459 0.291-0.691 0.436-0.07 0.047-0.14 0.09-0.209 0.132-0.123 0.077-0.247 0.155-0.372 0.232-0.122 0.075-0.247 0.152-0.372 0.227-0.496 0.304-0.997 0.603-1.498 0.898-0.125 0.075-0.252 0.147-0.379 0.222-0.125 0.072-0.252 0.144-0.379 0.217-2e-3 2e-3 -4e-3 4e-3 -7e-3 6e-3 -2e-3 2e-3 -5e-3 3e-3 -8e-3 4e-3l-5e-3 2e-3 -5e-3 5e-3h-3e-3c-0.628 0.362-1.259 0.718-1.898 1.062-1.142 0.624-2.295 1.225-3.461 1.803-0.289 0.145-0.581 0.287-0.873 0.429-0.242 0.118-0.486 0.235-0.728 0.35-0.067 0.032-0.132 0.064-0.199 0.094-0.202 0.095-0.404 0.19-0.606 0.282-0.22 0.105-0.442 0.205-0.661 0.304-0.247 0.113-0.492 0.222-0.738 0.332-0.928 0.414-1.866 0.813-2.806 1.197-3.359 1.375-6.791 2.562-10.282 3.556-0.162 0.047-0.326 0.095-0.491 0.14-1.494 0.419-2.998 0.802-4.514 1.149-2.646 0.609-5.316 1.108-8.01 1.499-5e-3 0-0.012 3e-3 -0.017 3e-3 -0.322 0.047-0.646 0.092-0.968 0.137-0.027 5e-3 -0.057 0.01-0.087 0.012-2e-3 3e-3 -5e-3 3e-3 -0.01 0 0 0 0 3e-3 -2e-3 0-0.357 0.048-0.714 0.095-1.073 0.14-0.025 5e-3 -0.05 7e-3 -0.075 0.01-0.334 0.04-0.67 0.08-1.007 0.117-0.362 0.04-0.723 0.077-1.087 0.115-0.277 0.027-0.554 0.055-0.831 0.08-0.024 5e-3 -0.049 7e-3 -0.075 7e-3 -0.251 0.023-0.503 0.045-0.755 0.065-0.01 0-0.023 2e-3 -0.033 2e-3 -0.219 0.02-0.439 0.035-0.658 0.053-2.581 0.204-5.187 0.306-7.818 0.304-2.855 0-5.6815-0.119-8.4787-0.357-0.01 0-0.02-2e-3 -0.03-2e-3 -0.596-0.05-1.1911-0.105-1.7855-0.165-0.1571-0.015-0.3117-0.032-0.4688-0.047-0.0299-3e-3 -0.0599-5e-3 -0.0898-0.01-0.0474-5e-3 -0.0947-0.01-0.1446-0.015-0.025-2e-3 -0.0524-5e-3 -0.0773-0.01-0.207-0.022-0.414-0.045-0.6235-0.07-0.2319-0.027-0.4663-0.055-0.6982-0.085-0.2319-0.027-0.4664-0.057-0.6983-0.089-0.0498-5e-3 -0.1022-0.01-0.1521-0.02-0.1696-0.02-0.3392-0.043-0.5062-0.068-0.0823-0.01-0.1621-0.022-0.2419-0.035-0.1621-0.022-0.3217-0.044-0.4838-0.069-5e-3 0-0.0125-3e-3 -0.0175-3e-3 -5.0924-0.735-10.119-1.868-15.035-3.389h-0.0025c-0.2668-0.082-0.5336-0.167-0.8005-0.252-0.0798-0.022-0.1596-0.047-0.2394-0.075-0.6932-0.222-1.3823-0.451-2.0673-0.688-0.9452-0.324-1.8836-0.663-2.8155-1.017-0.2543-0.098-0.5062-0.195-0.7606-0.292-0.5062-0.2-1.01-0.399-1.5112-0.604-0.8554-0.349-1.7049-0.709-2.5486-1.079h-0.0025v-3e-3c-0.788-0.346-1.5703-0.704-2.3467-1.072-0.0229-7e-3 -0.0447-0.017-0.0648-0.03-0.0025 0-0.0025-3e-3 -5e-3 -3e-3 -0.172-0.079-0.3441-0.162-0.5162-0.244l-5e-3 -3e-3c-4.2774-2.05-8.4019-4.405-12.342-7.047-1.2644-0.845-2.5071-1.719-3.7282-2.621-0.985-0.726-1.9559-1.469-2.9127-2.232-4.7659-3.788-9.1765-8.002-13.177-12.591h-0.0025v-2e-3c-0.2818-0.322-0.5561-0.641-0.8354-0.965v-3e-3c-0.0399-0.045-0.0773-0.09-0.1147-0.135-0.1771-0.206-0.3491-0.411-0.5212-0.62v-3e-3c-0.2344-0.277-0.4638-0.554-0.6883-0.833-0.0498-0.06-0.0972-0.117-0.1446-0.177h-0.0025v-2e-3c-0.1845-0.225-0.3666-0.452-0.5461-0.679-0.0923-0.112-0.1821-0.227-0.2719-0.341h-0.0024v-3e-3c-0.5437-0.686-1.0765-1.378-1.5986-2.077v-3e-3c-0.1446-0.192-0.2867-0.384-0.4264-0.578h-0.0025c-0.6683-0.903-1.3192-1.816-1.9526-2.741v-2e-3c-0.2394-0.347-0.4763-0.696-0.7107-1.048-0.2344-0.351-0.4664-0.704-0.6958-1.057h-0.0025c-0.2369-0.364-0.4713-0.73-0.7032-1.097-0.0125-0.02-0.025-0.038-0.0349-0.055-0.2295-0.362-0.4556-0.726-0.6783-1.092-0.1796-0.292-0.3566-0.582-0.5287-0.873-0.1197-0.197-0.2369-0.392-0.3516-0.591-0.0424-0.068-0.0798-0.135-0.1172-0.2-0.2644-0.451-0.5237-0.903-0.7831-1.356-0.3017-0.534-0.601-1.073-0.8927-1.611-0.1197-0.222-0.2394-0.447-0.3566-0.671-0.0424-0.073-0.0798-0.145-0.1173-0.22-0.1396-0.264-0.2793-0.528-0.4164-0.795-0.1372-0.265-0.2743-0.531-0.409-0.798s-0.2693-0.534-0.4015-0.803c-0.0997-0.202-0.1995-0.407-0.2967-0.609-0.0102-0.017-0.0193-0.034-0.0275-0.052-0.0449-0.095-0.0922-0.187-0.1346-0.282-0.01-0.014-0.0176-0.03-0.0225-0.047-0.1022-0.21-0.202-0.417-0.2992-0.626-0.1297-0.269-0.2544-0.541-0.3791-0.813-0.0898-0.19-0.1745-0.382-0.2618-0.574-0.1247-0.269-0.2469-0.541-0.3666-0.815-0.1272-0.282-0.2494-0.566-0.3716-0.851-0.0324-0.072-0.0623-0.142-0.0923-0.214-0.0573-0.13-0.1122-0.259-0.1671-0.389-0.1471-0.344-0.2917-0.693-0.4339-1.04-0.1621-0.391-0.32-0.784-0.4738-1.177-0.1471-0.367-0.2901-0.734-0.4289-1.102l-0.0524-0.135v-2e-3c-2.1668-5.695-3.8063-11.577-4.8977-17.571v-3e-3c-0.62234-3.422-1.0652-6.875-1.3267-10.344-0.01497-0.19-0.02745-0.379-0.03991-0.569-0.16458-2.346-0.24522-4.702-0.24189-7.067 0-1.0499 0.01662-2.0948 0.04987-3.1347 0.64658-21.741 8.3966-42.672 22.065-59.591 0.601-0.7456 1.2128-1.4821 1.8354-2.2095 18.339-21.461 45.606-35.065 76.05-35.065 35.594 0 66.845 18.596 84.564 46.604 0.922 1.4514 1.805 2.9293 2.648 4.4339 8.41 14.946 12.816 31.812 12.788 48.963z" fill="#F2F2F2"/>
  <path d="m157.25 106.33c7.431-4.346 17.334-5.255 24.492-0.472-8.937 2.79-16.599 8.651-21.63 16.546-1.93 3.052-3.758 6.647-7.184 7.785-2.132 0.709-4.512 0.272-6.536-0.702-2.025-0.975-3.76-2.447-5.471-3.903l-0.547-0.126c4.135-7.551 9.444-14.782 16.876-19.128z" fill="#F0F0F0"/>
  <g fill="#fff">
   <path d="m181.66 106.02c-7.106-0.539-14.201 1.175-20.277 4.898-1.322 0.778-2.513 1.76-3.53 2.909-0.954 1.151-1.582 2.537-1.82 4.014-0.249 1.372-0.344 2.804-0.923 4.092-0.305 0.655-0.746 1.237-1.293 1.71-0.546 0.473-1.187 0.824-1.879 1.032-1.711 0.562-3.522 0.476-5.291 0.33-1.963-0.162-4-0.361-5.88 0.37-0.227 0.088-0.351-0.27-0.124-0.359 3.271-1.271 6.779 0.165 10.138-0.44 1.567-0.282 3.059-1.039 3.832-2.489 0.676-1.269 0.776-2.746 1.016-4.137 0.21-1.444 0.771-2.814 1.633-3.991 0.955-1.197 2.106-2.223 3.405-3.034 2.896-1.872 6.067-3.278 9.399-4.165 3.797-1.033 7.743-1.409 11.667-1.112 0.243 0.019 0.168 0.391-0.073 0.373v-1e-3z"/>
   <path d="m163.27 109.6c-0.486-1.104-0.564-2.346-0.219-3.502 0.344-1.156 1.088-2.152 2.1-2.811 0.205-0.132 0.42 0.18 0.215 0.313-0.943 0.611-1.636 1.539-1.955 2.617-0.318 1.077-0.241 2.233 0.218 3.258 0.099 0.223-0.26 0.347-0.359 0.125z"/>
   <path d="m156.07 117.12c2.291 0.914 4.842 0.931 7.145 0.047 0.228-0.087 0.352 0.271 0.124 0.359-2.398 0.915-5.053 0.892-7.434-0.064-0.227-0.092-0.061-0.433 0.165-0.342z"/>
   <path d="m173.79 106.22c0.099 0.466 0.312 0.901 0.621 1.265 0.308 0.363 0.702 0.644 1.147 0.818 0.228 0.089 0.061 0.429-0.166 0.342-0.49-0.195-0.925-0.506-1.266-0.907-0.342-0.401-0.58-0.879-0.695-1.394-0.014-0.047-0.011-0.099 0.011-0.143 0.022-0.045 0.06-0.08 0.106-0.098 0.048-0.016 0.1-0.013 0.145 9e-3s0.08 0.061 0.097 0.108z"/>
  </g>
  <path d="m184.71 134.85c-0.144-0.051-0.288-0.102-0.434-0.151-1.939-0.678-3.929-1.197-5.952-1.552-0.156-0.03-0.314-0.058-0.471-0.083-4.882-0.804-9.871-0.694-14.714 0.324-1.926 0.406-3.819 0.959-5.661 1.653-2.545 0.959-5.228 2.2-7.863 2.26-0.275 0.01-0.55 2e-3 -0.824-0.023l-8.527-11.149c-7e-3 -0.035-0.016-0.068-0.023-0.103l-0.361-0.43c0.093-0.042 0.19-0.084 0.282-0.127 0.054-0.024 0.109-0.047 0.163-0.072 0.036-0.015 0.073-0.031 0.105-0.047 0.012-6e-3 0.024-0.011 0.033-0.014 0.032-0.016 0.064-0.028 0.093-0.042 0.541-0.237 1.084-0.47 1.63-0.699 3e-3 -2e-3 3e-3 -2e-3 7e-3 -2e-3 4.166-1.738 8.513-3.144 12.936-3.846 0.133-0.021 0.268-0.044 0.405-0.06 1.995-0.305 4.012-0.446 6.03-0.423 1.105 0.016 2.209 0.089 3.307 0.217 2.835 0.336 5.601 1.116 8.194 2.311 5.17 2.384 9.519 6.395 11.498 11.655 0.051 0.134 0.099 0.267 0.147 0.403z" fill="#F0F0F0"/>
  <g fill="#fff">
   <path d="m184.54 134.94c-5.348-4.708-12.045-7.611-19.137-8.297-1.525-0.175-3.067-0.108-4.571 0.197-1.455 0.345-2.791 1.073-3.869 2.109-1.025 0.946-1.964 2.032-3.201 2.712-0.638 0.339-1.341 0.539-2.062 0.587s-1.444-0.057-2.122-0.308c-1.705-0.581-3.099-1.74-4.423-2.921-1.47-1.312-2.976-2.697-4.917-3.245-0.235-0.067-0.118-0.428 0.116-0.361 3.377 0.954 5.314 4.212 8.36 5.752 1.421 0.718 3.068 1.012 4.558 0.319 1.303-0.605 2.273-1.724 3.302-2.691 1.037-1.026 2.31-1.782 3.707-2.203 1.483-0.381 3.02-0.507 4.545-0.373 3.439 0.249 6.818 1.036 10.012 2.334 3.654 1.461 7.031 3.537 9.985 6.136 0.183 0.161-0.101 0.413-0.283 0.253z"/>
   <path d="m167.7 126.72c0.277-1.174 0.962-2.212 1.933-2.928s2.165-1.063 3.369-0.98c0.049 4e-3 0.095 0.027 0.127 0.063 0.033 0.037 0.05 0.085 0.048 0.135-2e-3 0.049-0.023 0.095-0.059 0.129s-0.083 0.053-0.132 0.052c-1.121-0.079-2.233 0.244-3.136 0.913-0.903 0.668-1.537 1.638-1.789 2.733-0.054 0.238-0.415 0.12-0.361-0.117z"/>
   <path d="m157.42 128.4c1.278 2.109 3.305 3.659 5.676 4.34 0.235 0.067 0.118 0.428-0.117 0.361-2.465-0.713-4.571-2.33-5.897-4.528-0.126-0.209 0.212-0.381 0.338-0.173z"/>
   <path d="m178.14 130.36c-0.201 0.432-0.293 0.907-0.265 1.383 0.027 0.476 0.172 0.938 0.422 1.344 0.129 0.208-0.209 0.38-0.337 0.173-0.274-0.45-0.434-0.96-0.466-1.486-0.031-0.526 0.067-1.051 0.285-1.531 0.017-0.047 0.051-0.085 0.095-0.108 0.045-0.023 0.096-0.028 0.144-0.014 0.048 0.016 0.087 0.05 0.11 0.094 0.023 0.045 0.027 0.097 0.012 0.145z"/>
  </g>
  <path d="m12.549 174.36c0.8718-8.564 5.9777-17.098 14.061-20.059-3.0165 8.863-2.801 18.507 0.6086 27.226 1.3271 3.358 3.1528 6.955 2.0515 10.393-0.6852 2.14-2.4411 3.804-4.4217 4.865-1.9806 1.06-4.1931 1.594-6.3779 2.117l-0.4241 0.367c-3.6606-7.792-6.3697-16.344-5.4978-24.909z" fill="#F0F0F0"/>
  <g fill="#fff">
   <path d="m26.695 154.46c-4.6253 5.421-7.4249 12.161-8.0012 19.264-0.1512 1.526-0.0608 3.067 0.2679 4.566 0.3673 1.45 1.1162 2.774 2.1686 3.837 0.9615 1.01 2.0619 1.932 2.761 3.158 0.3486 0.633 0.5594 1.333 0.6186 2.053s-0.0345 1.445-0.2749 2.126c-0.555 1.714-1.6925 3.126-2.853 4.468-1.2884 1.49-2.6503 3.018-3.1687 4.967-0.0628 0.236-0.4256 0.124-0.3629-0.111 0.9019-3.391 4.13-5.378 5.6222-8.448 0.6962-1.432 0.9651-3.083 0.2495-4.562-0.6258-1.294-1.7598-2.246-2.7421-3.26-1.0419-1.021-1.8179-2.282-2.2602-3.672-0.4039-1.478-0.5536-3.013-0.4425-4.54 0.1953-3.442 0.9306-6.833 2.179-10.047 1.4045-3.676 3.4274-7.084 5.9813-10.078 0.1582-0.185 0.4145 0.095 0.2574 0.279z"/>
   <path d="m18.745 171.42c-1.1785-0.259-2.2268-0.928-2.9576-1.888s-1.0966-2.148-1.032-3.353c0.0032-0.049 0.0253-0.095 0.0616-0.128s0.084-0.051 0.1331-0.05c0.0492 2e-3 0.0958 0.022 0.1303 0.057 0.0344 0.035 0.0539 0.082 0.0544 0.131-0.0622 1.122 0.2786 2.229 0.961 3.122 0.6823 0.892 1.6613 1.512 2.7601 1.746 0.2388 0.051 0.1265 0.414-0.1109 0.363z"/>
   <path d="m20.575 181.68c2.0889-1.312 3.6069-3.362 4.2512-5.743 0.0636-0.236 0.4264-0.125 0.3628 0.111-0.6751 2.476-2.2591 4.607-4.4359 5.967-0.2075 0.129-0.3846-0.207-0.1781-0.335z"/>
   <path d="m22.221 160.93c0.4351 0.195 0.9119 0.279 1.3875 0.244s0.9351-0.187 1.3373-0.443c0.2058-0.132 0.3826 0.204 0.1781 0.335-0.4456 0.281-0.9533 0.448-1.4787 0.488s-1.0524-0.05-1.5351-0.261c-0.0472-0.016-0.0865-0.05-0.1099-0.094s-0.0292-0.095-0.0161-0.143c0.0149-0.048 0.0482-0.088 0.0925-0.112 0.0444-0.023 0.0963-0.029 0.1444-0.014z"/>
  </g>
  <path d="m51.78 169c-0.1261 0.087-0.2523 0.173-0.3786 0.262-1.6903 1.166-3.2831 2.468-4.7627 3.892-0.1161 0.108-0.2322 0.22-0.345 0.331-3.528 3.47-6.3812 7.564-8.4146 12.075-0.8075 1.795-1.4772 3.65-2.0034 5.547-0.7264 2.621-1.3055 5.52-2.8109 7.683-0.1545 0.228-0.323 0.445-0.5044 0.652l-14.032 0.313c-0.0322-0.015-0.0646-0.028-0.097-0.043l-0.5597 0.038c0.0203-0.1 0.0435-0.203 0.0638-0.302 0.0116-0.058 0.0262-0.116 0.0378-0.174 0.0087-0.039 0.0175-0.077 0.0231-0.113 0.0029-0.013 0.0059-0.025 0.0088-0.035 0.0056-0.035 0.0146-0.068 0.0203-0.1 0.128-0.576 0.2604-1.152 0.397-1.729 0-3e-3 0-3e-3 3e-3 -6e-3 1.0522-4.39 2.4802-8.73 4.5214-12.715 0.0615-0.12 0.1227-0.243 0.1905-0.363 0.9301-1.791 2.0051-3.504 3.2141-5.12 0.6649-0.883 1.374-1.731 2.1247-2.542 1.9437-2.093 4.2044-3.866 6.6991-5.255 4.9737-2.77 10.778-3.918 16.193-2.414 0.1385 0.038 0.274 0.077 0.4125 0.118z" fill="#F0F0F0"/>
  <g fill="#fff">
   <path d="m51.752 169.18c-6.9567 1.544-13.25 5.24-17.986 10.564-1.04 1.128-1.8957 2.413-2.5355 3.807-0.5795 1.379-0.7791 2.888-0.5784 4.369 0.1595 1.386 0.483 2.784 0.3029 4.184-0.1028 0.716-0.3557 1.401-0.742 2.012s-0.8974 1.133-1.4996 1.532c-1.4748 1.034-3.2332 1.477-4.9678 1.85-1.926 0.414-3.933 0.813-5.5204 2.058-0.1923 0.15-0.415-0.157-0.223-0.308 2.7618-2.164 6.5354-1.807 9.5748-3.359 1.4183-0.725 2.6269-1.881 2.9463-3.493 0.2793-1.41-0.0531-2.852-0.2267-4.254-0.217-1.443-0.0775-2.916 0.4063-4.293 0.5668-1.422 1.3716-2.738 2.3798-3.891 2.2285-2.631 4.8568-4.895 7.7886-6.709 3.3346-2.09 7.002-3.594 10.844-4.446 0.2378-0.053 0.2738 0.325 0.0375 0.377z"/>
   <path d="m35.19 177.94c-0.7854-0.916-1.2196-2.081-1.2251-3.288-0.0056-1.206 0.418-2.376 1.1949-3.299 0.1578-0.186 0.4547 0.051 0.2966 0.237-0.7251 0.858-1.1195 1.948-1.112 3.071 0.0074 1.124 0.4162 2.207 1.1526 3.056 0.1598 0.184-0.1481 0.406-0.307 0.223z"/>
   <path d="m30.478 187.23c2.4574 0.21 4.9039-0.513 6.8517-2.026 0.1929-0.15 0.4156 0.157 0.2229 0.307-2.0298 1.571-4.5773 2.318-7.134 2.093-0.2437-0.021-0.1829-0.396 0.0594-0.374z"/>
   <path d="m44.281 171.66c0.23 0.418 0.5602 0.772 0.9608 1.031 0.4007 0.258 0.8593 0.413 1.3347 0.451 0.2439 0.018 0.1828 0.393-0.0594 0.375-0.5251-0.044-1.0313-0.216-1.4747-0.501-0.4433-0.284-0.8101-0.673-1.0685-1.133-0.0279-0.041-0.0392-0.091-0.0313-0.14 0.0078-0.05 0.034-0.094 0.0734-0.125 0.0408-0.029 0.0915-0.041 0.1411-0.033s0.0942 0.035 0.1239 0.075z"/>
   <path d="m120.7 23.54-75.538-7.4301c-0.875-0.0909-1.7207-0.367-2.4808-0.8099-0.7842-0.4564-1.4793-1.0509-2.0518-1.7549-1.2305-1.5048-1.9056-3.3874-1.9118-5.3313-7e-4 -0.47347 0.0414-0.94604 0.1259-1.4119 0.0809-0.44625 0.2045-0.88368 0.3692-1.3062 0.1594-0.40885 0.3603-0.8003 0.5995-1.1682 0.2353-0.36148 0.509-0.69647 0.8163-0.99913 0.2989-0.29484 0.6302-0.55493 0.9876-0.77529 0.6957-0.42891 1.4821-0.68894 2.2964-0.75928 0.4162-0.03569 0.8351-0.02495 1.2489 0.03202l75.539 10.218c0.577 0.0857 1.123 0.3143 1.588 0.6652 0.51 0.3826 0.946 0.8548 1.287 1.3936 0.379 0.5935 0.67 1.2395 0.862 1.9173 0.209 0.73 0.315 1.4857 0.315 2.2451 0 0.3701-0.025 0.7397-0.077 1.1061-0.049 0.3492-0.125 0.6941-0.226 1.0318-0.096 0.3215-0.22 0.6343-0.369 0.9351-0.142 0.2873-0.311 0.5604-0.505 0.8157-0.181 0.2392-0.387 0.458-0.616 0.6523-0.212 0.18-0.446 0.3328-0.696 0.4547-0.485 0.2366-1.026 0.3332-1.563 0.2789v4e-4z"/>
  </g>
  <path d="m87.124 20.238-41.964-4.1278c-0.875-0.0909-1.7207-0.3669-2.4808-0.8099-0.7842-0.4564-1.4793-1.0509-2.0518-1.7549-1.2305-1.5048-1.9056-3.3874-1.9118-5.3313-7e-4 -0.47347 0.0414-0.94604 0.1259-1.4119 0.0809-0.44625 0.2045-0.88367 0.3692-1.3062 0.1594-0.40886 0.3603-0.80031 0.5995-1.1682 0.2353-0.36148 0.509-0.69647 0.8163-0.99913 0.2989-0.29484 0.6302-0.55493 0.9876-0.77529 0.6957-0.42891 1.4821-0.68894 2.2964-0.75928 0.4162-0.03569 0.8351-0.02495 1.2489 0.03202l41.964 5.6774 9e-4 12.734z" fill="#006753"/>
  <path d="m87.016 21.176c-0.1941-0.0203-0.3806-0.0861-0.5444-0.1922-0.1727-0.1114-0.3232-0.254-0.4438-0.4204-0.1312-0.1799-0.2329-0.3796-0.301-0.5915-0.0734-0.2257-0.1108-0.4615-0.1108-0.6988v-11.159c-0.0015-0.2288 0.0359-0.45619 0.1104-0.6725 0.0658-0.19133 0.1682-0.36806 0.3014-0.52038 0.1212-0.14015 0.2737-0.24984 0.4451-0.32024 0.1727-0.06852 0.3604-0.0906 0.5444-0.06404 0.1943 0.02872 0.3795 0.10169 0.5412 0.21327 0.1717 0.11879 0.3207 0.26738 0.44 0.43872 0.1293 0.18313 0.2295 0.38513 0.2972 0.59885 0.072 0.22537 0.1087 0.46054 0.1089 0.69715v11.069c0.0013 0.2287-0.0355 0.4559-0.1089 0.6725-0.0652 0.1933-0.166 0.3728-0.2972 0.529-0.12 0.1434-0.2709 0.2577-0.4413 0.3347-0.17 0.0747-0.3564 0.1043-0.5412 0.0858z" fill="#D5B26B"/>
  <path d="m19.889 12.016c-0.0747-0.0077-0.1489-0.0204-0.2219-0.0381-0.0748-0.0182-0.1483-0.0413-0.22-0.0692-0.0738-0.0286-0.1456-0.0619-0.2152-0.0996-0.072-0.039-0.1415-0.0824-0.2082-0.13-0.403-0.2872-0.69-0.7092-0.8089-1.1897-0.0394-0.1598-0.0593-0.3237-0.0592-0.4883v-8.3793c-6e-4 -0.15976 0.0193-0.31894 0.0592-0.47363 0.0376-0.14605 0.0952-0.28616 0.1714-0.41631 0.1493-0.25427 0.3715-0.45786 0.6379-0.58443 0.1338-0.06402 0.2763-0.10794 0.423-0.13034 0.1464-0.022122 0.2952-0.023418 0.4419-0.0038456 0.1516 0.020346 0.2999 0.060619 0.441 0.11977 0.1493 0.062628 0.2904 0.14329 0.4201 0.24018l6.6923 4.9716c0.1196 0.089 0.2291 0.1908 0.3266 0.30359 0.1932 0.22331 0.3364 0.48536 0.4199 0.76856 0.0418 0.14201 0.0681 0.28815 0.0784 0.43584 0 0.01178 8e-4 0.02354 0.0023 0.03523s0.0015 0.02353 0 0.03522v0.07078c5e-4 0.15599-0.0184 0.31143-0.0564 0.46273-0.0359 0.14261-0.0908 0.27973-0.1633 0.40766-0.0705 0.12401-0.1583 0.23725-0.261 0.33625-0.1027 0.0994-0.2194 0.18314-0.3465 0.2485l-6.6929 3.4076c-0.0667 0.0339-0.1357 0.0629-0.2066 0.0868-0.0698 0.0236-0.1413 0.0421-0.2139 0.0554-0.0723 0.0132-0.1455 0.0213-0.219 0.024-0.0738 0.0028-0.1476 5e-4 -0.221-7e-3z" fill="#CACACA"/>
  <path d="m120.71 60.026-75.531 1.4244c-0.8554 0.0159-1.7033-0.1616-2.4805-0.5191-0.7793-0.3608-1.4773-0.876-2.0518-1.5144-0.6034-0.6689-1.077-1.4444-1.3965-2.2868-0.6866-1.8174-0.6866-3.8228 0-5.6403 0.3196-0.8425 0.7931-1.6182 1.3965-2.2874 0.5744-0.6389 1.2724-1.1547 2.0518-1.5163 0.7771-0.3579 1.625-0.5359 2.4805-0.5207l75.531 1.3652c0.563 0.0143 1.111 0.1802 1.588 0.4803 0.509 0.3214 0.946 0.7435 1.286 1.2403 0.383 0.5554 0.673 1.1685 0.862 1.816 0.42 1.4423 0.42 2.9744 0 4.4167-0.189 0.6478-0.479 1.2613-0.862 1.817-0.339 0.4981-0.777 0.9215-1.286 1.2441-0.476 0.3003-1.025 0.4665-1.588 0.481z" fill="#fff"/>
  <path d="m74.704 60.894-29.521 0.5566c-0.8554 0.0158-1.7033-0.1616-2.4806-0.5191-0.7793-0.3608-1.4773-0.876-2.0517-1.5144-0.6035-0.6689-1.0771-1.4444-1.3966-2.2868-0.3425-0.9006-0.5171-1.8564-0.5149-2.82-3e-4 -0.4783 0.0418-0.9557 0.1258-1.4266 0.0821-0.46 0.2057-0.9115 0.3693-1.3492 0.1609-0.4305 0.3616-0.8451 0.5995-1.2383 0.2361-0.3904 0.5094-0.757 0.8159-1.0949 0.2984-0.33 0.6292-0.629 0.9876-0.8925 0.3445-0.2529 0.7149-0.4687 1.1048-0.6437 0.7668-0.3444 1.6004-0.515 2.4409-0.4995l29.521 0.5335v13.195z" fill="#006753"/>
  <path d="m75.049 61.729c-0.2016 0.0041-0.4012-0.041-0.5815-0.1313-0.1836-0.0931-0.3459-0.2233-0.4765-0.3824-0.1411-0.1713-0.2503-0.3665-0.3225-0.5764-0.0791-0.228-0.1191-0.4677-0.1185-0.709v-11.548c-7e-4 -0.2415 0.0394-0.4814 0.1185-0.7096 0.0721-0.2099 0.1814-0.4052 0.3225-0.5765 0.1307-0.1586 0.293-0.2884 0.4765-0.381 0.1803-0.0904 0.3799-0.1354 0.5815-0.1313 0.2029 0.0049 0.4016 0.0583 0.5797 0.1556 0.1825 0.1003 0.3431 0.2361 0.4723 0.3993 0.1389 0.1747 0.2464 0.3721 0.318 0.5835 0.0777 0.228 0.1171 0.4672 0.1166 0.708v11.452c5e-4 0.2409-0.0389 0.4801-0.1166 0.7081-0.0715 0.2115-0.1791 0.409-0.318 0.5838-0.1292 0.1635-0.2898 0.2995-0.4723 0.4-0.1781 0.0972-0.3768 0.1504-0.5797 0.1553z" fill="#D5B26B"/>
  <path d="m19.914 60.319c-0.1492 0.0022-0.2979-0.0164-0.442-0.0554-0.0733-0.0197-0.1452-0.0445-0.2152-0.0742-0.0716-0.0305-0.141-0.0658-0.2078-0.1057-0.1338-0.0794-0.2563-0.1763-0.3644-0.2882-0.107-0.1114-0.1988-0.2363-0.2732-0.3715-0.0754-0.1373-0.133-0.2836-0.1713-0.4355-0.0396-0.1571-0.0595-0.3184-0.0592-0.4804v-8.3793c-3e-4 -0.1619 0.0196-0.3233 0.0592-0.4803 0.0383-0.1517 0.0959-0.2978 0.1713-0.4349 0.1496-0.273 0.37-0.5008 0.6379-0.6593 0.1321-0.0797 0.2744-0.1408 0.4231-0.1816 0.2895-0.0784 0.5953-0.0741 0.8825 0.0125 0.1479 0.0446 0.2891 0.1089 0.4198 0.1911l6.693 4.1868 0.024 0.0154 0.024 0.0157 0.0237 0.016 0.0234 0.0163c0.1074 0.0777 0.2055 0.1675 0.2923 0.2677 0.0867 0.0998 0.1619 0.2091 0.2242 0.3257 0.0628 0.1182 0.1125 0.2428 0.1483 0.3718 0.0368 0.1326 0.0593 0.2687 0.0672 0.406v0.1169c3e-4 0.1581-0.0186 0.3157-0.0563 0.4692-0.0366 0.1484-0.0914 0.2917-0.1634 0.4265-0.0708 0.1329-0.1584 0.2561-0.2606 0.3667-0.1033 0.111-0.2208 0.2079-0.3494 0.2882l-6.6904 4.1941c-0.0661 0.0416-0.135 0.0787-0.2062 0.1112-0.0694 0.0316-0.1408 0.0584-0.2139 0.0803-0.0718 0.0216-0.145 0.0382-0.219 0.0497-0.0734 0.0113-0.1474 0.0175-0.2216 0.0185z" fill="#CACACA"/>
  <path d="m120.7 96.39-75.538 10.25c-0.8205 0.119-1.6574 0.044-2.4442-0.217s-1.5019-0.702-2.0887-1.288c-0.6072-0.604-1.0828-1.327-1.3969-2.123-0.3458-0.879-0.5204-1.815-0.5146-2.759 0.0063-1.9443 0.6813-3.8271 1.9118-5.3322 0.5724-0.7042 1.2675-1.2991 2.0518-1.7558 0.76-0.4432 1.6057-0.7196 2.4808-0.8108l75.538-7.4596c0.547-0.0549 1.098 0.0469 1.588 0.2933 0.507 0.2608 0.947 0.6347 1.287 1.0927 0.385 0.5168 0.677 1.0975 0.862 1.7155 0.213 0.704 0.319 1.436 0.315 2.1715 0 0.7594-0.106 1.5152-0.315 2.2452-0.192 0.6779-0.483 1.3239-0.862 1.9175-0.341 0.539-0.777 1.0115-1.287 1.3943-0.465 0.3511-1.011 0.58-1.588 0.6658z" fill="#fff"/>
  <path d="m108.82 98.002-63.661 8.6382c-0.8205 0.118-1.6574 0.044-2.4442-0.217-0.7868-0.262-1.5019-0.703-2.0887-1.288-0.6072-0.604-1.0828-1.327-1.3969-2.124-0.3456-0.878-0.5203-1.814-0.5146-2.757 2e-4 -0.4834 0.0423-0.9656 0.1259-1.4414 0.25-1.4297 0.8648-2.7706 1.785-3.8931 0.2984-0.3643 0.6289-0.7012 0.9876-1.0065 0.3427-0.2925 0.7125-0.5517 1.1045-0.774 0.3785-0.2144 0.7777-0.3899 1.1916-0.5239 0.4058-0.1312 0.8245-0.2187 1.2489-0.261l63.662-6.2868v11.934z" fill="#006753"/>
  <path d="m19.888 108.46c-0.0736 9e-3 -0.1477 0.014-0.2219 0.013-0.0736 0-0.147-6e-3 -0.2197-0.017-0.1467-0.022-0.2892-0.066-0.423-0.13-0.2666-0.127-0.4888-0.331-0.638-0.586-0.0761-0.13-0.1338-0.27-0.1713-0.416-0.0397-0.154-0.0596-0.313-0.0592-0.472v-8.3805c0-0.1642 0.0199-0.3279 0.0592-0.4874 0.1191-0.4805 0.4061-0.9026 0.8093-1.19 0.1308-0.0938 0.273-0.171 0.423-0.2296 0.1419-0.0553 0.2905-0.0914 0.4419-0.1073 0.1471-0.0153 0.2955-0.0097 0.441 0.0167 0.146 0.0267 0.2873 0.0744 0.4195 0.1418l6.6929 3.4053 0.0243 0.012 0.024 0.013 0.0237 0.014 0.0234 0.014c0.1015 0.061 0.1951 0.135 0.2786 0.219 0.0832 0.084 0.1561 0.178 0.2171 0.28 0.0624 0.103 0.1128 0.214 0.1502 0.329 0.0391 0.12 0.0653 0.245 0.0782 0.371 0.0017 0.016 0.0032 0.033 0.0045 0.05 0.0012 0.016 0.0023 0.033 0.0032 0.05 0 0.017 6e-4 0.034 0.0019 0.051s0.0013 0.034 0 0.052c0 0.16-0.0189 0.32-0.0564 0.475-0.0734 0.31-0.2173 0.599-0.4205 0.844-0.1039 0.124-0.2222 0.234-0.3522 0.33l-6.6929 4.974c-0.0661 0.049-0.1351 0.095-0.2066 0.136-0.069 0.039-0.1405 0.074-0.2139 0.105-0.0713 0.03-0.1445 0.055-0.219 0.075-0.0727 0.02-0.1466 0.035-0.2213 0.045z" fill="#CACACA"/>
  <path d="m108.36 89.429c0.466-0.0671 0.941-0.0313 1.391 0.105 0.451 0.1363 0.866 0.3698 1.217 0.6839 0.35 0.3142 0.628 0.7014 0.813 1.1343 0.184 0.433 0.272 0.9013 0.256 1.3718l10.68 4.1108-4.839 3.4573-9.399-4.434c-0.789-0.0788-1.521-0.4442-2.059-1.0269-0.537-0.5828-0.842-1.3423-0.857-2.1348-0.014-0.7925 0.262-1.5628 0.778-2.165 0.515-0.6022 1.233-0.9944 2.019-1.1024z" fill="#FFB6B6"/>
  <path d="m148.91 87.411 1.807 3.2849c-0.436 2.0834-1.565 3.958-3.202 5.3189-2.766 2.3329-17.23 11.022-17.23 11.022l-18.259-9.1673 3.194-4.2447 14.335 4.8043 8.088-7.6367 11.267-3.3817z" fill="#D5B26B"/>
  <g fill="#CACACA">
   <path d="m150.57 138.92-1.889 0.356 11.385 60.422 1.889-0.356-11.385-60.422z"/>
   <path d="m131.78 199.34 1.888 0.356 11.385-60.422-1.888-0.355-11.385 60.421z"/>
   <path d="m145.55 141.77c7.87 0 14.25-2.079 14.25-4.643 0-2.565-6.38-4.644-14.25-4.644-7.871 0-14.251 2.079-14.251 4.644 0 2.564 6.38 4.643 14.251 4.643z"/>
  </g>
  <path d="m115.29 195.89h-3.926l-1.868-15.143h5.794v15.143z" fill="#FFB6B6"/>
  <path d="m116.29 199.7h-12.659v-0.161c0-1.306 0.519-2.56 1.443-3.484s2.177-1.443 3.484-1.443h1e-3l7.731 1e-3v5.087z" fill="#2F2E41"/>
  <path d="m134.34 175.29-3.429 1.911-9.005-12.317 5.061-2.821 7.373 13.227z" fill="#FFB6B6"/>
  <g fill="#2F2E41">
   <path d="m137.07 178.12-11.058 6.164-0.078-0.14c-0.636-1.141-0.793-2.489-0.435-3.746 0.357-1.257 1.199-2.32 2.34-2.957l6.754-3.764 2.477 4.443z"/>
   <path d="m156.64 125.77s1.904 5.898-9.776 13.357l-15.042 14.989-15.629 37.387-9.279-4.16 14.269-38.089 8.345-14.611 0.242-7.928 2.052-5.588 14.891-5.284 9.927 9.927z"/>
   <path d="m126.1 175.04-15.525-23.407c-0.713-1.077-1.028-2.368-0.892-3.653 0.136-1.284 0.714-2.481 1.637-3.385l15.719-15.377 2.665-2.665h5.964l-2.796 10.318-9.702 10.998 11.216 19.848-8.286 7.323z"/>
  </g>
  <path d="m137.51 93.702 4.678-6.6949 10.689-0.8599s9.19 8.6577 7.518 20.058c-1.672 11.4-3.273 22.608-3.273 22.608s-16.652-11.848-25.299-7.685l5.687-27.426z" fill="#D5B26B"/>
  <path d="m134.34 128.63c0.083-0.463 0.267-0.903 0.538-1.288s0.623-0.705 1.032-0.939c0.408-0.234 0.863-0.376 1.332-0.415 0.47-0.039 0.942 0.025 1.383 0.188l7.263-8.843 1.759 5.68-7.167 7.527c-0.323 0.724-0.9 1.304-1.622 1.631-0.722 0.326-1.539 0.377-2.296 0.141-0.757-0.235-1.401-0.74-1.811-1.419-0.409-0.678-0.555-1.484-0.411-2.263z" fill="#FFB6B6"/>
  <path d="m143.48 128.05-3.199-4.62 9.083-12.111-4.679-10.027 0.341-11.927 3.866-0.7143 0.048 0.0241c1.88 1.0821 3.333 2.7747 4.118 4.7966 0.965 2.4115 3.118 11.464 4.316 16.645 0.235 1.004 0.21 2.052-0.075 3.043-0.284 0.991-0.817 1.893-1.549 2.62l-12.27 12.27z" fill="#D5B26B"/>
  <path d="m151.63 81.148c2.082-3.5018 0.93-8.028-2.571-10.11-3.502-2.0816-8.028-0.9304-10.11 2.5714s-0.93 8.028 2.571 10.11c3.502 2.0816 8.028 0.9304 10.11-2.5714z" fill="#FFB6B6"/>
  <path d="m150.01 74.73c-0.078 1.0711 0.927 5.0205 0.927 5.0205 0.736-1.2385-0.42 2.8775-0.42 2.8775 12.082-8.4224 2.535-16.884-1.199-16.132 0.078-1.0711-2.968-0.6468-2.968-0.6468-1.161-1.8073-3.704 0.5917-3.704 0.5917l0.491-0.8256c-1.975 0.5023-3.927 6.6053-3.927 6.6053 0.67 2.633 10.878 1.438 10.8 2.5091z" fill="#2F2E41"/>
  <path d="m108.54 98.803c-0.162 0.0233-0.328 0.0011-0.478-0.064-0.152-0.0683-0.286-0.1717-0.391-0.3017-0.118-0.1456-0.208-0.3121-0.266-0.4909-0.065-0.2042-0.097-0.4175-0.096-0.6318v-10.46c0-0.2218 0.032-0.4424 0.096-0.6546 0.06-0.1968 0.15-0.3833 0.266-0.5527 0.105-0.1544 0.237-0.2877 0.391-0.3929 0.142-0.0973 0.306-0.1577 0.478-0.1759 0.163-0.016 0.327 0.0132 0.475 0.0843 0.152 0.0746 0.285 0.1828 0.389 0.3164 0.116 0.1489 0.204 0.3176 0.261 0.4979 0.065 0.2039 0.097 0.4167 0.096 0.6306v10.381c0 0.2212-0.033 0.4411-0.096 0.6529-0.059 0.1984-0.147 0.3869-0.261 0.5592-0.104 0.1578-0.236 0.2956-0.389 0.4067-0.14 0.1026-0.303 0.1697-0.475 0.1956z" fill="#D5B26B"/>
  <path d="m207.67 200h-207.29c-0.10094 0-0.19764-0.04-0.26891-0.112-0.071268-0.071-0.11128-0.168-0.11128-0.269s0.040014-0.198 0.11128-0.269c0.071269-0.072 0.16797-0.112 0.26891-0.112h207.29c0.102 0 0.199 0.04 0.27 0.111 0.072 0.072 0.112 0.169 0.112 0.27s-0.04 0.198-0.112 0.269c-0.071 0.072-0.168 0.112-0.27 0.112z" fill="#CACACA"/>
 </g>
 <defs>
  <clipPath id="clip0_112_756">
   <rect width="208.05" height="200" fill="#fff"/>
  </clipPath>
 </defs>
</svg>
