<svg fill="none" version="1.1" viewBox="0 0 224 124" xmlns="http://www.w3.org/2000/svg">
 <path d="m108.36 42.108-30.117 23.18 30.117 17.38-30.117 17.38h70.264l30.116-17.38-70.263-40.56z" fill="url(#paint0_linear_20_89)"/>
 <path d="m196.83 42.829-13.172 7.6037 13.172 7.6094-13.172 7.6036h26.349l13.177-7.6036-26.354-15.213z" fill="url(#paint1_linear_20_89)" opacity=".4"/>
 <path d="m130.95 20.012 52.709 30.426v15.207l-52.709-30.42v-15.213z" fill="#B0D1BF"/>
 <path d="m65.071 42.829 13.178 7.6095v15.207l-13.178-7.6036v-15.213z" fill="#97C7DB"/>
 <path d="m78.248 50.438 52.704-30.426v15.213l-52.704 30.42v-15.207z" fill="#4A896D"/>
 <path d="m183.66 50.438 13.172-7.6095v15.213l-13.172 7.6036v-15.207z" fill="#007A5D"/>
 <path d="m196.83 42.829-65.881-38.024-65.881 38.024 13.177 7.6094 52.703-30.426 52.71 30.426 13.171-7.6094z" fill="#CEDFE2"/>
 <path d="m105.2 19.672-40.124 23.156 13.177 7.6094 40.118-23.162-13.171-7.6036z" fill="url(#paint2_linear_20_89)"/>
 <path d="m104.6 65.645 39.526-22.817-13.177-7.6036-52.704 30.42h26.355z" fill="url(#paint3_linear_20_89)" opacity=".4"/>
 <path d="m144.13 42.829-13.177-22.817v15.213l13.177 7.6036z" fill="url(#paint4_linear_20_89)"/>
 <g fill="#006550">
  <path d="m84.143 51.926 1.6699-0.9607v2.9817l-1.6699 0.9606v-2.9816z"/>
  <path d="m89.053 49.097 1.6639-0.9665v2.9876l-1.6639 0.9607v-2.9818z"/>
  <path d="m93.957 46.262 1.6698-0.9607v2.9816l-1.6698 0.9607v-2.9816z"/>
  <path d="m98.861 43.432 1.6699-0.9607v2.9818l-1.6699 0.9607v-2.9818z"/>
  <path d="m103.77 40.597 1.664-0.9607v2.9817l-1.664 0.9666v-2.9876z"/>
  <path d="m108.68 37.767 1.664-0.9607v2.9817l-1.664 0.9607v-2.9817z"/>
  <path d="m113.58 34.938 1.67-0.9665v2.9816l-1.67 0.9666v-2.9817z"/>
  <path d="m118.48 32.103 1.67-0.9607v2.9817l-1.67 0.9608v-2.9818z"/>
  <path d="m123.39 29.273 1.664-0.9666v2.9876l-1.664 0.9607v-2.9817z"/>
  <path d="m177.76 51.926-1.664-0.9607v2.9817l1.664 0.9606v-2.9816z"/>
  <path d="m172.86 49.097-1.67-0.9665v2.9876l1.67 0.9607v-2.9818z"/>
  <path d="m167.95 46.262-1.67-0.9607v2.9816l1.67 0.9607v-2.9816z"/>
  <path d="m163.04 43.432-1.664-0.9607v2.9818l1.664 0.9607v-2.9818z"/>
  <path d="m158.14 40.597-1.664-0.9607v2.9817l1.664 0.9666v-2.9876z"/>
  <path d="m153.24 37.767-1.67-0.9607v2.9817l1.67 0.9607v-2.9817z"/>
  <path d="m148.33 34.938-1.67-0.9665v2.9816l1.67 0.9666v-2.9817z"/>
  <path d="m143.42 32.103-1.664-0.9607v2.9817l1.664 0.9608v-2.9818z"/>
  <path d="m138.52 29.273-1.664-0.9666v2.9876l1.664 0.9607v-2.9817z"/>
 </g>
 <path d="m78.248 103.2-66.76-38.54v-44.954l66.76 38.534v44.96z" fill="#B0D1BF"/>
 <path d="m111.63 83.922-33.38 19.273v-44.96l33.38-19.267v44.954z" fill="#007A5D"/>
 <path d="m102.16 89.388-14.443 8.3417v-14.405l14.443-8.3417v14.405z" fill="#34564F"/>
 <path d="m44.869 0.43463-33.38 19.267 66.76 38.534 33.38-19.267-66.759-38.534zm-10.002 20.755c-3.4745-2.0092-3.4745-5.2604 0-7.2638s9.111-2.0034 12.591 0c3.4745 2.0093 3.4745 5.2604 0 7.2638-3.4804 2.0093-9.1169 2.0093-12.591 0zm19.47 11.241c-3.4745-2.0092-3.4745-5.2604 0-7.2638 3.4745-2.0093 9.111-2.0034 12.586 0 3.4745 2.0093 3.4745 5.2604 0 7.2638-3.4745 2.0093-9.111 2.0093-12.586 0z" fill="#CEDFE2"/>
 <path d="m76.133 26.362-15.503-2.7005 2.6131 10.046 12.89-2.2846v-5.0613z" fill="url(#paint5_linear_20_89)"/>
 <path d="m56.341 15.173-15.498-2.7064 2.6132 10.052 12.884-2.2904v-5.0554z" fill="url(#paint6_linear_20_89)"/>
 <path d="m68.897 26.895-3.4921-5.4303h-9.5505l-3.492 5.4303c-1.2773 1.8511-0.6211 4.0419 1.9745 5.5357 3.4745 2.0093 9.1111 2.0093 12.586 0 2.5957-1.4996 3.2519-3.6904 1.9746-5.5357z" fill="url(#paint7_linear_20_89)"/>
 <path d="m57.015 20.434c1.998-1.1541 5.2323-1.1541 7.2304 0 1.998 1.154 1.998 3.0227 0 4.1767-1.9981 1.154-5.2383 1.154-7.2304 0-1.9981-1.1599-1.9981-3.0286 0-4.1767z" fill="#fff"/>
 <path d="m49.427 15.654-3.492-5.4304h-9.5504l-3.492 5.4304c-1.2773 1.8511-0.6211 4.0419 1.9745 5.5357 3.4745 2.0093 9.1109 2.0093 12.585 0 2.5956-1.4938 3.2518-3.6846 1.9745-5.5357z" fill="url(#paint8_linear_20_89)"/>
 <path d="m37.544 9.1924c1.998-1.154 5.2382-1.154 7.2303 0 1.998 1.154 1.998 3.0227 0 4.1767s-5.2382 1.154-7.2303 0c-1.998-1.154-1.998-3.0227 0-4.1767z" fill="#fff"/>
 <g fill="#4A896D">
  <path d="m38.535 39.525-3.3515-1.9331v4.2353l3.3515 1.9331v-4.2353z"/>
  <path d="m49.286 45.734-3.3456-1.9331v4.2294l3.3456 1.939v-4.2353z"/>
  <path d="m43.914 42.63-3.3516-1.9331v4.2294l3.3516 1.939v-4.2353z"/>
  <path d="m19.047 32.513 3.3515 1.9331v-4.2294l-3.3515-1.939v4.2353z"/>
  <path d="m33.156 36.42-3.3515-1.9331v4.2352l3.3515 1.9332v-4.2353z"/>
  <path d="m27.777 33.315-3.3515-1.9331v4.2352l3.3515 1.9331v-4.2352z"/>
  <path d="m54.665 48.839-3.3515-1.9331v4.2294l3.3515 1.939v-4.2353z"/>
  <path d="m70.801 58.153-3.3516-1.9331v4.2293l3.3516 1.9331v-4.2293z"/>
  <path d="m65.423 55.048-3.3515-1.9331v4.2294l3.3515 1.9332v-4.2295z"/>
  <path d="m60.044 51.944-3.3515-1.9331v4.2294l3.3515 1.939v-4.2353z"/>
 </g>
 <g fill="#34564F">
  <path d="m101.5 49.026 3.352-1.9331v4.2352l-3.352 1.9331v-4.2352z"/>
  <path d="m85.373 58.34 3.3517-1.9332v4.2295l-3.3517 1.939v-4.2353z"/>
  <path d="m90.746 55.236 3.3514-1.9331v4.2294l-3.3514 1.9389v-4.2352z"/>
  <path d="m96.125 52.131 3.3516-1.9331v4.2352l-3.3516 1.9331v-4.2352z"/>
 </g>
 <path d="m178.46 69.389h-25.382l25.382 14.651-42.303 24.416h25.382l42.303-24.416-25.382-14.651z" fill="url(#paint9_linear_20_89)" opacity=".4"/>
 <path d="m136.16 108.46-25.382-14.65v-14.651l25.382 14.651v14.65z" fill="#B0D1BF"/>
 <path d="m178.46 84.039-42.303 24.416v-14.65l42.303-24.416v14.651z" fill="#4A896D"/>
 <path d="m178.46 69.389-42.303 24.416-25.382-14.651 42.303-24.416 25.382 14.651z" fill="#CEDFE2"/>
 <path d="m127.03 103.2-6.346-18.318-9.913-5.7233v14.651l16.259 9.3905z" fill="#B0D1BF"/>
 <path d="m178.63 69.348-25.552-14.61-42.303 24.416 9.913 5.7232 30.404 0.287 27.538-15.816z" fill="url(#paint10_linear_20_89)" opacity=".7"/>
 <path d="m139.47 96.482 35.677-20.596v3.4034l-35.677 20.597v-3.4035z" fill="#006550"/>
 <path d="m119.76 97.337h-41.506l8.1326 4.6921-36.626 21.136h41.507l36.626-21.136-8.133-4.6921z" fill="url(#paint11_linear_20_89)" opacity=".4"/>
 <path d="m49.755 123.16-48.831-28.183v-23.959l48.831 28.188v23.954z" fill="#B0D1BF"/>
 <path d="m86.381 102.03-36.626 21.141v-23.959l36.626-21.141v23.959z" fill="#4A896D"/>
 <path d="m56.675 60.924-11.906 6.8714-11.291-6.5199 11.906-6.8714-7.8338-4.5223-36.626 21.141 48.831 28.188 36.626-21.141-29.706-17.146z" fill="#CEDFE2"/>
 <path d="m44.769 64.269-11.291-6.514 11.9-6.8714 11.296 6.514-11.906 6.8714z" fill="#fff"/>
 <path d="m56.675 60.924-11.906 6.8714v-3.5265l11.906-6.8714v3.5265z" fill="#4E9376"/>
 <path d="m39.127 57.491-5.6483-3.2628 11.9-6.8714 5.6483 3.2629-11.9 6.8713z" fill="#fff"/>
 <path d="m39.126 61.012v-3.5206l-5.6483-3.2629v7.0471l11.291 6.5199v-3.5265l-5.6425-3.257z" fill="#B0D1BF"/>
 <path d="m51.026 54.14-11.9 6.8714v-3.5206l11.9-6.8713v3.5205z" fill="#4E9376"/>
 <path d="m51.026 54.14-11.9 6.8713h6.1052l8.8475-5.1081-3.0527-1.7632z" fill="url(#paint12_linear_20_89)"/>
 <path d="m56.675 60.924-11.906 6.8714h6.1052l8.8532-5.1081-3.0526-1.7633z" fill="url(#paint13_linear_20_89)"/>
 <g fill="#4A896D">
  <path d="m7.358 98.696-1.9571-1.1365v-18.921l1.9571 1.1306v18.927z"/>
  <path d="m12.08 101.42-1.9569-1.131v-18.927l1.9569 1.1306v18.927z"/>
  <path d="m16.803 104.14-1.9571-1.131v-18.927l1.9571 1.1365v18.921z"/>
  <path d="m21.531 106.87-1.9629-1.131v-18.927l1.9629 1.1306v18.928z"/>
  <path d="m26.254 109.6-1.9629-1.131v-18.927l1.9629 1.1306v18.928z"/>
  <path d="m30.977 112.33-1.9631-1.13v-18.927l1.9631 1.1306v18.927z"/>
  <path d="m35.699 115.05-1.957-1.13v-18.927l1.957 1.1305v18.927z"/>
  <path d="m40.421 117.78-1.9568-1.131v-18.927l1.9568 1.1306v18.927z"/>
  <path d="m45.144 120.5-1.957-1.131v-18.927l1.957 1.131v18.927z"/>
 </g>
 <path d="m75.29 108.43-14.443 8.336v-14.405l14.443-8.3358v14.405z" fill="#34564F"/>
 <defs>
  <linearGradient id="paint0_linear_20_89" x1="78.249" x2="178.63" y1="71.075" y2="71.075" gradientUnits="userSpaceOnUse">
   <stop stop-color="#005F4F" offset="0"/>
   <stop stop-color="#337F72" offset=".1707"/>
   <stop stop-color="#8AB5AE" stop-opacity=".24" offset=".4755"/>
   <stop stop-color="#C9DDDA" stop-opacity=".05" offset=".7248"/>
   <stop stop-color="#F0F6F5" stop-opacity=".08" offset=".9058"/>
   <stop stop-color="#fff" stop-opacity="0" offset="1"/>
  </linearGradient>
  <linearGradient id="paint1_linear_20_89" x1="183.66" x2="223.19" y1="54.236" y2="54.236" gradientUnits="userSpaceOnUse">
   <stop stop-color="#005F4F" offset="0"/>
   <stop stop-color="#337F72" offset=".1707"/>
   <stop stop-color="#8AB5AE" stop-opacity=".24" offset=".4755"/>
   <stop stop-color="#C9DDDA" stop-opacity=".05" offset=".7248"/>
   <stop stop-color="#F0F6F5" stop-opacity=".08" offset=".9058"/>
   <stop stop-color="#fff" stop-opacity="0" offset="1"/>
  </linearGradient>
  <linearGradient id="paint2_linear_20_89" x1="65.074" x2="118.37" y1="35.054" y2="35.054" gradientUnits="userSpaceOnUse">
   <stop stop-color="#007A5D" offset="0"/>
   <stop stop-color="#49A08C" offset=".2148"/>
   <stop stop-color="#8AC2B5" offset=".426"/>
   <stop stop-color="#BCDCD5" offset=".6159"/>
   <stop stop-color="#E1EFEC" offset=".7809"/>
   <stop stop-color="#F7FBFA" offset=".9145"/>
   <stop stop-color="#fff" offset="1"/>
  </linearGradient>
  <linearGradient id="paint3_linear_20_89" x1="78.249" x2="144.13" y1="50.433" y2="50.433" gradientUnits="userSpaceOnUse">
   <stop stop-color="#005F4F" offset="0"/>
   <stop stop-color="#337F72" offset=".1707"/>
   <stop stop-color="#8AB5AE" stop-opacity=".24" offset=".4755"/>
   <stop stop-color="#C9DDDA" stop-opacity=".05" offset=".7248"/>
   <stop stop-color="#F0F6F5" stop-opacity=".08" offset=".9058"/>
   <stop stop-color="#fff" stop-opacity="0" offset="1"/>
  </linearGradient>
  <linearGradient id="paint4_linear_20_89" x1="130.95" x2="144.13" y1="31.422" y2="31.422" gradientUnits="userSpaceOnUse">
   <stop stop-color="#007A5D" offset="0"/>
   <stop stop-color="#49A08C" offset=".2148"/>
   <stop stop-color="#8AC2B5" offset=".426"/>
   <stop stop-color="#BCDCD5" offset=".6159"/>
   <stop stop-color="#E1EFEC" offset=".7809"/>
   <stop stop-color="#F7FBFA" offset=".9145"/>
   <stop stop-color="#fff" offset="1"/>
  </linearGradient>
  <linearGradient id="paint5_linear_20_89" x1="60.63" x2="76.133" y1="28.684" y2="28.684" gradientUnits="userSpaceOnUse">
   <stop stop-color="#005F4F" offset="0"/>
   <stop stop-color="#337F72" offset=".1707"/>
   <stop stop-color="#8AB5AE" stop-opacity=".24" offset=".4755"/>
   <stop stop-color="#C9DDDA" stop-opacity=".05" offset=".7248"/>
   <stop stop-color="#F0F6F5" stop-opacity=".08" offset=".9058"/>
   <stop stop-color="#fff" stop-opacity="0" offset="1"/>
  </linearGradient>
  <linearGradient id="paint6_linear_20_89" x1="40.843" x2="56.341" y1="17.492" y2="17.492" gradientUnits="userSpaceOnUse">
   <stop stop-color="#005F4F" offset="0"/>
   <stop stop-color="#337F72" offset=".1707"/>
   <stop stop-color="#8AB5AE" stop-opacity=".24" offset=".4755"/>
   <stop stop-color="#C9DDDA" stop-opacity=".05" offset=".7248"/>
   <stop stop-color="#F0F6F5" stop-opacity=".08" offset=".9058"/>
   <stop stop-color="#fff" stop-opacity="0" offset="1"/>
  </linearGradient>
  <linearGradient id="paint7_linear_20_89" x1="51.732" x2="69.531" y1="27.698" y2="27.698" gradientUnits="userSpaceOnUse">
   <stop stop-color="#006550" offset=".217"/>
   <stop stop-color="#00594D" offset=".4332"/>
   <stop stop-color="#003A44" offset=".8217"/>
   <stop stop-color="#002940" offset="1"/>
  </linearGradient>
  <linearGradient id="paint8_linear_20_89" x1="32.26" x2="50.059" y1="16.459" y2="16.459" gradientUnits="userSpaceOnUse">
   <stop stop-color="#006550" offset=".217"/>
   <stop stop-color="#00594D" offset=".4332"/>
   <stop stop-color="#003A44" offset=".8217"/>
   <stop stop-color="#002940" offset="1"/>
  </linearGradient>
  <linearGradient id="paint9_linear_20_89" x1="136.16" x2="203.84" y1="88.919" y2="88.919" gradientUnits="userSpaceOnUse">
   <stop stop-color="#005F4F" offset="0"/>
   <stop stop-color="#337F72" offset=".1707"/>
   <stop stop-color="#8AB5AE" stop-opacity=".24" offset=".4755"/>
   <stop stop-color="#C9DDDA" stop-opacity=".05" offset=".7248"/>
   <stop stop-color="#F0F6F5" stop-opacity=".08" offset=".9058"/>
   <stop stop-color="#fff" stop-opacity="0" offset="1"/>
  </linearGradient>
  <linearGradient id="paint10_linear_20_89" x1="110.77" x2="178.63" y1="69.95" y2="69.95" gradientUnits="userSpaceOnUse">
   <stop stop-color="#007A5D" offset="0"/>
   <stop stop-color="#49A08C" offset=".2148"/>
   <stop stop-color="#8AC2B5" offset=".426"/>
   <stop stop-color="#BCDCD5" offset=".6159"/>
   <stop stop-color="#E1EFEC" offset=".7809"/>
   <stop stop-color="#F7FBFA" offset=".9145"/>
   <stop stop-color="#fff" offset="1"/>
  </linearGradient>
  <linearGradient id="paint11_linear_20_89" x1="49.756" x2="127.89" y1="110.25" y2="110.25" gradientUnits="userSpaceOnUse">
   <stop stop-color="#005F4F" offset="0"/>
   <stop stop-color="#337F72" offset=".1707"/>
   <stop stop-color="#8AB5AE" stop-opacity=".24" offset=".4755"/>
   <stop stop-color="#C9DDDA" stop-opacity=".05" offset=".7248"/>
   <stop stop-color="#F0F6F5" stop-opacity=".08" offset=".9058"/>
   <stop stop-color="#fff" stop-opacity="0" offset="1"/>
  </linearGradient>
  <linearGradient id="paint12_linear_20_89" x1="39.125" x2="54.079" y1="57.576" y2="57.576" gradientUnits="userSpaceOnUse">
   <stop stop-color="#007A5D" offset="0"/>
   <stop stop-color="#49A08C" offset=".2148"/>
   <stop stop-color="#8AC2B5" offset=".426"/>
   <stop stop-color="#BCDCD5" offset=".6159"/>
   <stop stop-color="#E1EFEC" offset=".7809"/>
   <stop stop-color="#F7FBFA" offset=".9145"/>
   <stop stop-color="#fff" offset="1"/>
  </linearGradient>
  <linearGradient id="paint13_linear_20_89" x1="44.769" x2="59.727" y1="64.359" y2="64.359" gradientUnits="userSpaceOnUse">
   <stop stop-color="#005F4F" offset="0"/>
   <stop stop-color="#337F72" offset=".1707"/>
   <stop stop-color="#8AB5AE" stop-opacity=".24" offset=".4755"/>
   <stop stop-color="#C9DDDA" stop-opacity=".05" offset=".7248"/>
   <stop stop-color="#F0F6F5" stop-opacity=".08" offset=".9058"/>
   <stop stop-color="#fff" stop-opacity="0" offset="1"/>
  </linearGradient>
 </defs>
</svg>
