<svg width="578" height="340" viewBox="0 0 578 340" fill="none" xmlns="http://www.w3.org/2000/svg">
<path d="M278.982 108.211L200.781 168.4L278.982 213.531L200.781 258.662H383.23L461.431 213.531L278.982 108.211Z" fill="url(#paint0_linear_188_872)"/>
<path opacity="0.4" d="M508.7 110.081L474.499 129.825L508.7 149.584L474.499 169.328H542.917L577.134 149.584L508.7 110.081Z" fill="url(#paint1_linear_188_872)"/>
<path d="M337.632 50.8351L474.499 129.84V169.328L337.632 90.3378V50.8351Z" fill="#B0D1BF"/>
<path d="M166.564 110.082L200.781 129.841V169.328L166.564 149.584V110.082Z" fill="#97C7DB"/>
<path d="M200.781 129.84L337.632 50.8351V90.3378L200.781 169.328V129.84Z" fill="#4A896D"/>
<path d="M474.499 129.841L508.7 110.082V149.584L474.499 169.328V129.841Z" fill="#007A5D"/>
<path d="M508.701 110.082L337.633 11.3475L166.564 110.082L200.781 129.841L337.633 50.8351L474.499 129.841L508.701 110.082Z" fill="#CEDFE2"/>
<path d="M270.751 49.9528L166.564 110.082L200.781 129.841L304.952 69.6966L270.751 49.9528Z" fill="url(#paint2_linear_188_872)"/>
<path opacity="0.4" d="M269.215 169.328L371.849 110.081L337.633 90.3377L200.781 169.328H269.215Z" fill="url(#paint3_linear_188_872)"/>
<path d="M371.849 110.081L337.633 50.8351V90.3378L371.849 110.081Z" fill="url(#paint4_linear_188_872)"/>
<path d="M216.087 133.704L220.423 131.21V138.952L216.087 141.446V133.704Z" fill="#006550"/>
<path d="M228.836 126.357L233.157 123.847V131.605L228.836 134.1V126.357Z" fill="#006550"/>
<path d="M241.57 118.995L245.906 116.501V124.243L241.57 126.738V118.995Z" fill="#006550"/>
<path d="M254.304 111.648L258.641 109.154V116.896L254.304 119.391V111.648Z" fill="#006550"/>
<path d="M267.054 104.286L271.374 101.792V109.534L267.054 112.044V104.286Z" fill="#006550"/>
<path d="M279.789 96.9394L284.11 94.4448V102.187L279.789 104.682V96.9394Z" fill="#006550"/>
<path d="M292.522 89.5926L296.858 87.0828V94.8251L292.522 97.3348V89.5926Z" fill="#006550"/>
<path d="M305.257 82.2303L309.593 79.7357V87.4782L305.257 89.9728V82.2303Z" fill="#006550"/>
<path d="M318.006 74.8836L322.327 72.3738V80.1313L318.006 82.6259V74.8836Z" fill="#006550"/>
<path d="M459.177 133.704L454.857 131.21V138.952L459.177 141.446V133.704Z" fill="#006550"/>
<path d="M446.444 126.357L442.108 123.847V131.605L446.444 134.1V126.357Z" fill="#006550"/>
<path d="M433.709 118.995L429.373 116.501V124.243L433.709 126.738V118.995Z" fill="#006550"/>
<path d="M420.96 111.648L416.64 109.154V116.896L420.96 119.391V111.648Z" fill="#006550"/>
<path d="M408.226 104.286L403.905 101.792V109.534L408.226 112.044V104.286Z" fill="#006550"/>
<path d="M395.492 96.9394L391.156 94.4448V102.187L395.492 104.682V96.9394Z" fill="#006550"/>
<path d="M382.758 89.5926L378.422 87.0828V94.8251L382.758 97.3348V89.5926Z" fill="#006550"/>
<path d="M370.008 82.2303L365.687 79.7357V87.4782L370.008 89.9728V82.2303Z" fill="#006550"/>
<path d="M357.274 74.8836L352.953 72.3738V80.1313L357.274 82.6259V74.8836Z" fill="#006550"/>
<path d="M200.781 266.83L27.4312 166.757V50.0288L200.781 150.086V266.83Z" fill="#B0D1BF"/>
<path d="M287.456 216.786L200.781 266.83V150.086L287.456 100.057V216.786Z" fill="#007A5D"/>
<path d="M262.87 230.978L225.367 252.638V215.234L262.87 193.574V230.978Z" fill="#34564F"/>
<path d="M114.106 0L27.4314 50.0287L200.782 150.086L287.457 100.057L114.106 0ZM88.136 53.8923C79.114 48.6749 79.114 40.2329 88.136 35.0308C97.158 29.8287 111.794 29.8287 120.831 35.0308C129.853 40.2481 129.853 48.6901 120.831 53.8923C111.794 59.1096 97.158 59.1096 88.136 53.8923ZM138.693 83.082C129.671 77.8647 129.671 69.4227 138.693 64.2206C147.715 59.0032 162.351 59.0184 171.373 64.2206C180.395 69.4379 180.395 77.8799 171.373 83.082C162.351 88.2994 147.715 88.2994 138.693 83.082Z" fill="#CEDFE2"/>
<path d="M195.289 67.3239L155.032 60.3117L161.818 86.3983L195.289 80.4661V67.3239Z" fill="url(#paint5_linear_188_872)"/>
<path d="M143.896 38.2709L103.654 31.2435L110.439 57.3452L143.896 51.3978V38.2709Z" fill="url(#paint6_linear_188_872)"/>
<path d="M176.499 68.708L167.431 54.6075H142.632L133.565 68.708C130.248 73.5147 131.952 79.2035 138.692 83.0823C147.714 88.2996 162.35 88.2996 171.372 83.0823C178.112 79.1883 179.816 73.4995 176.499 68.708Z" fill="url(#paint7_linear_188_872)"/>
<path d="M145.644 51.9303C150.832 48.9338 159.231 48.9338 164.419 51.9303C169.607 54.9269 169.607 59.7792 164.419 62.7758C159.231 65.7724 150.817 65.7724 145.644 62.7758C140.456 59.764 140.456 54.9117 145.644 51.9303Z" fill="white"/>
<path d="M125.942 39.5182L116.875 25.4176H92.0757L83.0082 39.5182C79.6915 44.3248 81.3955 50.0136 88.1353 53.8924C97.1572 59.1098 111.793 59.1098 120.815 53.8924C127.555 50.0136 129.259 44.3248 125.942 39.5182Z" fill="url(#paint8_linear_188_872)"/>
<path d="M95.0883 22.7406C100.276 19.7441 108.69 19.7441 113.863 22.7406C119.051 25.7371 119.051 30.5894 113.863 33.5859C108.675 36.5825 100.261 36.5825 95.0883 33.5859C89.9003 30.5894 89.9003 25.7371 95.0883 22.7406Z" fill="white"/>
<path d="M97.6595 101.503L88.957 96.4831V107.481L97.6595 112.5V101.503Z" fill="#4A896D"/>
<path d="M125.578 117.626L116.89 112.607V123.589L125.578 128.624V117.626Z" fill="#4A896D"/>
<path d="M111.626 109.564L102.923 104.545V115.527L111.626 120.562V109.564Z" fill="#4A896D"/>
<path d="M47.0571 83.2951L55.7597 88.3147V77.3325L47.0571 72.2977V83.2951Z" fill="#4A896D"/>
<path d="M83.6924 93.4409L74.9897 88.4213V99.4188L83.6924 104.438V93.4409Z" fill="#4A896D"/>
<path d="M69.7264 85.3791L61.0237 80.3595V91.3569L69.7264 96.3764V85.3791Z" fill="#4A896D"/>
<path d="M139.544 125.688L130.842 120.668V131.651L139.544 136.685V125.688Z" fill="#4A896D"/>
<path d="M181.443 149.873L172.74 144.854V155.836L181.443 160.856V149.873Z" fill="#4A896D"/>
<path d="M167.478 141.812L158.775 136.792V147.774L167.478 152.794V141.812Z" fill="#4A896D"/>
<path d="M153.511 133.75L144.808 128.73V139.712L153.511 144.747V133.75Z" fill="#4A896D"/>
<path d="M261.166 126.175L269.868 121.155V132.152L261.166 137.172V126.175Z" fill="#34564F"/>
<path d="M219.281 150.36L227.984 145.34V156.323L219.281 161.358V150.36Z" fill="#34564F"/>
<path d="M233.233 142.298L241.935 137.278V148.261L233.233 153.295V142.298Z" fill="#34564F"/>
<path d="M247.199 134.237L255.902 129.217V140.214L247.199 145.234V134.237Z" fill="#34564F"/>
<path opacity="0.4" d="M460.989 179.048H395.082L460.989 217.09L351.143 280.49H417.051L526.897 217.09L460.989 179.048Z" fill="url(#paint9_linear_188_872)"/>
<path d="M351.142 280.49L285.234 242.447V204.405L351.142 242.447V280.49Z" fill="#B0D1BF"/>
<path d="M460.988 217.09L351.142 280.49V242.447L460.988 179.048V217.09Z" fill="#4A896D"/>
<path d="M460.989 179.048L351.142 242.447L285.234 204.405L395.081 141.005L460.989 179.048Z" fill="#CEDFE2"/>
<path d="M327.454 266.83L310.977 219.266L285.235 204.404V242.447L327.454 266.83Z" fill="#B0D1BF"/>
<path opacity="0.7" d="M461.43 178.941L395.081 141.005L285.235 204.404L310.977 219.266L389.924 220.011L461.43 178.941Z" fill="url(#paint10_linear_188_872)"/>
<path d="M359.754 249.398L452.393 195.917V204.754L359.754 258.236V249.398Z" fill="#006550"/>
<path d="M539.366 218.304H508.623V220.376H539.366V218.304Z" fill="url(#paint11_linear_188_872)"/>
<path d="M507.114 201.263L508.623 202.133V220.376L507.114 219.505V201.263Z" fill="#0A6B60"/>
<path d="M510.126 201.263L508.623 202.133V220.376L510.126 219.505V201.263Z" fill="#004443"/>
<path d="M494.237 192.77C494.237 184.83 500.675 178.387 508.617 178.387C516.559 178.387 522.998 184.824 522.998 192.77C522.998 200.71 516.559 207.148 508.617 207.148C500.681 207.148 494.237 200.71 494.237 192.77Z" fill="url(#paint12_radial_188_872)"/>
<path d="M91.2999 337.928H60.5571V340H91.2999V337.928Z" fill="url(#paint13_linear_188_872)"/>
<path d="M59.0481 320.887L60.5568 321.757V340L59.0481 339.129V320.887Z" fill="#0A6B60"/>
<path d="M62.0601 320.887L60.5571 321.757V340L62.0601 339.129V320.887Z" fill="#004443"/>
<path d="M46.1707 312.394C46.1707 304.454 52.6096 298.011 60.5515 298.011C68.4934 298.011 74.9323 304.449 74.9323 312.394C74.9323 320.335 68.4934 326.772 60.5515 326.772C52.6153 326.772 46.1707 320.335 46.1707 312.394Z" fill="url(#paint14_radial_188_872)"/>
<path opacity="0.4" d="M308.559 251.619H200.782L221.899 263.803L126.795 318.684H234.572L329.676 263.803L308.559 251.619Z" fill="url(#paint15_linear_188_872)"/>
<path d="M126.795 318.684L0 245.504V183.292L126.795 256.487V318.684Z" fill="#B0D1BF"/>
<path d="M221.898 263.803L126.795 318.699V256.487L221.898 201.591V263.803Z" fill="#4A896D"/>
<path d="M144.763 157.068L113.848 174.91L84.53 157.981L115.445 140.138L95.1037 128.396L0 183.292L126.795 256.487L221.899 201.591L144.763 157.068Z" fill="#CEDFE2"/>
<path d="M113.847 165.754L84.5298 148.839L115.43 130.997L144.762 147.911L113.847 165.754Z" fill="white"/>
<path d="M144.763 157.068L113.848 174.911V165.754L144.763 147.911V157.068Z" fill="#4E9376"/>
<path d="M99.1968 148.155L84.5303 139.682L115.43 121.84L130.097 130.312L99.1968 148.155Z" fill="white"/>
<path d="M99.1964 157.296V148.155L84.5298 139.682V148.839V157.981L113.848 174.911V165.754L99.1964 157.296Z" fill="#B0D1BF"/>
<path d="M130.097 139.454L99.197 157.296V148.155L130.097 130.312V139.454Z" fill="#4E9376"/>
<path d="M130.096 139.454L99.1963 157.296H115.049L138.023 144.033L130.096 139.454Z" fill="url(#paint16_linear_188_872)"/>
<path d="M144.763 157.068L113.848 174.911H129.701L152.689 161.647L144.763 157.068Z" fill="url(#paint17_linear_188_872)"/>
<path d="M16.7051 255.148L11.6233 252.197V203.066L16.7051 206.002V255.148Z" fill="#4A896D"/>
<path d="M28.9678 262.221L23.8865 259.286V210.139L28.9678 213.075V262.221Z" fill="#4A896D"/>
<path d="M41.2303 269.294L36.1484 266.359V217.212L41.2303 220.163V269.294Z" fill="#4A896D"/>
<path d="M53.5087 276.383L48.4119 273.447V224.3L53.5087 227.236V276.383Z" fill="#4A896D"/>
<path d="M65.7707 283.456L60.6738 280.52V231.373L65.7707 234.309V283.456Z" fill="#4A896D"/>
<path d="M78.0337 290.544L72.9365 287.608V238.462L78.0337 241.397V290.544Z" fill="#4A896D"/>
<path d="M90.2961 297.617L85.2146 294.681V245.535L90.2961 248.471V297.617Z" fill="#4A896D"/>
<path d="M102.559 304.705L97.4775 301.77V252.623L102.559 255.559V304.705Z" fill="#4A896D"/>
<path d="M114.821 311.779L109.74 308.843V259.696L114.821 262.632V311.779Z" fill="#4A896D"/>
<path d="M193.098 280.429L155.595 302.074V264.67L193.098 243.025V280.429Z" fill="#34564F"/>
<path d="M387.576 302.837H380.868L380.271 304.614H387.576V302.837Z" fill="url(#paint18_linear_188_872)"/>
<path d="M382.928 304.884L382.337 306.661H391.375V304.958L382.928 304.884Z" fill="url(#paint19_linear_188_872)"/>
<path d="M377.837 288.619C378.083 289.019 378.507 289.431 378.612 289.695C378.716 289.953 378.753 290.316 378.759 290.457C378.765 290.593 378.673 290.998 378.501 290.937C378.329 290.875 378.267 291.047 378.101 291.023C377.929 290.992 377.991 290.931 377.991 290.931C377.898 290.967 377.782 290.967 377.745 290.9C377.671 290.931 377.634 291.011 377.505 290.863C377.4 290.74 377.363 290.513 377.277 290.39C377.007 289.996 377.081 288.822 377.025 288.705C376.97 288.582 377.665 288.343 377.837 288.619Z" fill="#00654F"/>
<path d="M379.829 279.024C376.638 281.612 376.392 285.202 376.939 288.982C377.351 289.547 378.2 289.24 378.083 288.705C377.616 284.765 378.138 281.028 379.829 279.024Z" fill="#00654F"/>
<path d="M379.189 304.011C379.189 302.468 380.167 302.425 380.167 302.425C380.167 302.425 380.696 302.425 381.557 302.069C382.405 301.718 383.598 301.854 382.934 303.083C382.928 303.095 382.921 303.114 382.909 303.126C382.866 303.194 382.798 303.255 382.694 303.317L380.561 304.565C380.229 304.755 379.196 304.325 379.189 304.011Z" fill="#006250"/>
<path d="M379.196 303.87C379.214 304.183 380.235 304.608 380.554 304.423L382.688 303.175C382.755 303.132 382.878 303.052 382.989 302.954C382.971 302.997 382.952 303.034 382.928 303.083C382.921 303.095 382.915 303.114 382.903 303.126C382.86 303.194 382.792 303.255 382.688 303.317L380.554 304.564C380.253 304.737 379.325 304.374 379.202 304.067C379.196 304.042 379.189 304.024 379.189 304.005C379.189 303.962 379.189 303.919 379.196 303.87Z" fill="#000A1C"/>
<path d="M379.583 302.222C379.835 302.222 380.72 302.45 380.72 302.45C380.72 302.45 380.727 302.573 380.8 302.677C380.813 302.69 380.819 302.696 380.825 302.708C380.997 302.831 381.175 303.022 380.763 303.28C380.425 303.495 380.149 303.36 380.02 303.224C379.964 303.126 379.89 303.015 379.78 302.954C379.669 302.886 379.602 302.862 379.546 302.856C379.546 302.85 379.546 302.837 379.546 302.837C379.546 302.837 379.479 302.222 379.583 302.222Z" fill="white"/>
<path d="M378.175 287.943C379.14 287.962 381.551 288.005 382.516 288.023C382.159 290.918 382.829 292.775 382.344 295.584C381.827 298.313 381.243 300.231 380.733 302.499C380.548 302.923 379.694 302.763 379.522 302.358C379.386 300.268 379.233 297.717 379.854 295.307C378.759 292.473 378.114 290.568 378.175 287.943Z" fill="#006753"/>
<path d="M381.157 306.058C381.157 304.521 382.135 304.472 382.135 304.472C382.135 304.472 382.663 304.472 383.524 304.116C384.372 303.765 385.565 303.901 384.895 305.13C384.889 305.142 384.883 305.161 384.871 305.173C384.827 305.241 384.76 305.302 384.655 305.364L382.522 306.611C382.196 306.802 381.163 306.378 381.157 306.058Z" fill="#006250"/>
<path d="M381.157 305.923C381.175 306.243 382.196 306.661 382.516 306.476L384.649 305.228C384.723 305.185 384.84 305.105 384.951 305.007C384.932 305.05 384.914 305.093 384.889 305.136C384.883 305.148 384.877 305.167 384.864 305.179C384.821 305.247 384.754 305.308 384.649 305.37L382.516 306.618C382.215 306.79 381.286 306.427 381.163 306.12C381.157 306.095 381.151 306.077 381.151 306.058C381.157 306.009 381.157 305.966 381.157 305.923Z" fill="#000A1C"/>
<path d="M381.55 304.269C381.802 304.269 382.688 304.497 382.688 304.497C382.688 304.497 382.694 304.62 382.768 304.724C382.774 304.737 382.786 304.743 382.792 304.755C382.964 304.878 383.143 305.069 382.731 305.327C382.393 305.542 382.116 305.407 381.987 305.271C381.932 305.173 381.858 305.062 381.747 305.001C381.636 304.933 381.569 304.909 381.513 304.903C381.513 304.896 381.513 304.884 381.513 304.884C381.513 304.884 381.446 304.269 381.55 304.269Z" fill="white"/>
<path d="M384.225 290.685C384.225 288.761 379.085 288.398 378.132 288.539C378.132 292.584 380.351 293.266 381.151 298.448C380.929 300.145 381.04 302.64 381.489 304.583C381.729 304.958 382.595 304.976 382.706 304.528C383.118 302.438 383.542 300.581 383.542 297.803C383.548 296.881 384.219 293.033 384.225 290.685Z" fill="#006250"/>
<path d="M379.669 290.765C381.735 291.926 383.758 291.853 384.465 290.617C384.188 287.962 384.317 284.476 384.317 283.69C384.317 282.903 384.317 282.343 384.502 281.526C384.391 281.157 383.641 280.401 383.02 279.841C382.356 279.233 381.907 278.655 381.563 278.588C378.735 278.01 377.573 282.589 377.812 287.956C378.003 289.757 378.655 290.193 379.669 290.765Z" fill="#006753"/>
<path d="M384.471 290.611C384.194 287.955 384.323 284.47 384.323 283.683C384.323 282.897 384.28 282.38 384.459 281.563C384.459 281.556 384.453 281.55 384.453 281.538L383.34 281.102C382.516 281.477 382.368 282.036 382.325 283.905C382.282 285.767 382.577 287.396 382.959 288.884C383.168 289.701 383.204 291.14 382.952 291.551C383.629 291.453 384.17 291.14 384.471 290.611Z" fill="#00654F"/>
<path d="M380.001 278.901C380.616 278.458 380.149 277.647 380.081 277.038C379.977 276.719 379.927 276.362 379.94 275.993C379.995 274.653 380.905 273.529 381.944 273.651C384.047 273.885 383.623 274.979 383.567 276.319C383.512 277.561 383.198 278.434 382.245 278.538C382.239 278.741 382.258 279.092 382.51 279.35C381.821 279.762 380.985 279.737 380.585 279.559C380.167 279.362 379.712 279.196 380.001 278.901Z" fill="#00654F"/>
<path d="M382.768 272.969C382.713 272.803 382.393 272.699 381.311 273.147C381.305 273.154 381.046 273.258 381.034 273.264C379.036 274.186 379.583 276.498 379.897 277.106C380.007 277.321 380.087 277.493 380.075 277.831C380.868 277.782 381.126 278.219 381.624 277.764C381.981 277.438 382.516 277.051 382.602 276.891C382.688 276.731 382.669 276.633 382.669 276.504C382.645 275.391 383.174 276.055 383.168 276.313C383.377 276.209 383.352 275.76 383.327 275.262C385 273.953 384.065 273.092 382.768 272.969Z" fill="#006753"/>
<path d="M385.596 290.316C385.805 290.58 386.18 290.66 386.401 290.888C386.573 291.06 386.315 291.09 386.444 291.25C386.573 291.41 387.059 291.527 386.887 291.81C386.586 292.301 386.039 292.455 385.491 292.148C385.055 291.902 384.846 291.244 384.582 290.826C384.95 290.691 385.276 290.531 385.596 290.316Z" fill="#00654F"/>
<path d="M383.481 281.065C384.268 280.844 384.563 281.286 384.674 282.337C384.84 284.138 384.705 284.827 384.901 286.64C385.147 287.814 385.295 289.142 385.639 290.211C385.836 290.82 385.086 291.699 384.514 290.888C383.997 290.156 383.223 287.845 383.094 287.451C382.786 286.333 382.546 284.661 382.436 283.198C382.319 281.741 382.694 281.286 383.481 281.065Z" fill="#006753"/>
<defs>
<linearGradient id="paint0_linear_188_872" x1="200.783" y1="183.426" x2="461.431" y2="183.426" gradientUnits="userSpaceOnUse">
<stop stop-color="#005F4F"/>
<stop offset="0.1707" stop-color="#337F72"/>
<stop offset="0.4755" stop-color="#8AB5AE" stop-opacity="0.24"/>
<stop offset="0.7248" stop-color="#C9DDDA" stop-opacity="0.05"/>
<stop offset="0.9058" stop-color="#F0F6F5" stop-opacity="0.08"/>
<stop offset="1" stop-color="white" stop-opacity="0"/>
</linearGradient>
<linearGradient id="paint1_linear_188_872" x1="474.5" y1="139.701" x2="577.134" y2="139.701" gradientUnits="userSpaceOnUse">
<stop stop-color="#005F4F"/>
<stop offset="0.1707" stop-color="#337F72"/>
<stop offset="0.4755" stop-color="#8AB5AE" stop-opacity="0.24"/>
<stop offset="0.7248" stop-color="#C9DDDA" stop-opacity="0.05"/>
<stop offset="0.9058" stop-color="#F0F6F5" stop-opacity="0.08"/>
<stop offset="1" stop-color="white" stop-opacity="0"/>
</linearGradient>
<linearGradient id="paint2_linear_188_872" x1="166.571" y1="89.8943" x2="304.959" y2="89.8943" gradientUnits="userSpaceOnUse">
<stop stop-color="#007A5D"/>
<stop offset="0.2148" stop-color="#49A08C"/>
<stop offset="0.426" stop-color="#8AC2B5"/>
<stop offset="0.6159" stop-color="#BCDCD5"/>
<stop offset="0.7809" stop-color="#E1EFEC"/>
<stop offset="0.9145" stop-color="#F7FBFA"/>
<stop offset="1" stop-color="white"/>
</linearGradient>
<linearGradient id="paint3_linear_188_872" x1="200.783" y1="129.828" x2="371.85" y2="129.828" gradientUnits="userSpaceOnUse">
<stop stop-color="#005F4F"/>
<stop offset="0.1707" stop-color="#337F72"/>
<stop offset="0.4755" stop-color="#8AB5AE" stop-opacity="0.24"/>
<stop offset="0.7248" stop-color="#C9DDDA" stop-opacity="0.05"/>
<stop offset="0.9058" stop-color="#F0F6F5" stop-opacity="0.08"/>
<stop offset="1" stop-color="white" stop-opacity="0"/>
</linearGradient>
<linearGradient id="paint4_linear_188_872" x1="337.638" y1="80.4628" x2="371.848" y2="80.4628" gradientUnits="userSpaceOnUse">
<stop stop-color="#007A5D"/>
<stop offset="0.2148" stop-color="#49A08C"/>
<stop offset="0.426" stop-color="#8AC2B5"/>
<stop offset="0.6159" stop-color="#BCDCD5"/>
<stop offset="0.7809" stop-color="#E1EFEC"/>
<stop offset="0.9145" stop-color="#F7FBFA"/>
<stop offset="1" stop-color="white"/>
</linearGradient>
<linearGradient id="paint5_linear_188_872" x1="155.033" y1="73.3532" x2="195.289" y2="73.3532" gradientUnits="userSpaceOnUse">
<stop stop-color="#005F4F"/>
<stop offset="0.1707" stop-color="#337F72"/>
<stop offset="0.4755" stop-color="#8AB5AE" stop-opacity="0.24"/>
<stop offset="0.7248" stop-color="#C9DDDA" stop-opacity="0.05"/>
<stop offset="0.9058" stop-color="#F0F6F5" stop-opacity="0.08"/>
<stop offset="1" stop-color="white" stop-opacity="0"/>
</linearGradient>
<linearGradient id="paint6_linear_188_872" x1="103.654" y1="44.2926" x2="143.896" y2="44.2926" gradientUnits="userSpaceOnUse">
<stop stop-color="#005F4F"/>
<stop offset="0.1707" stop-color="#337F72"/>
<stop offset="0.4755" stop-color="#8AB5AE" stop-opacity="0.24"/>
<stop offset="0.7248" stop-color="#C9DDDA" stop-opacity="0.05"/>
<stop offset="0.9058" stop-color="#F0F6F5" stop-opacity="0.08"/>
<stop offset="1" stop-color="white" stop-opacity="0"/>
</linearGradient>
<linearGradient id="paint7_linear_188_872" x1="131.926" y1="70.7939" x2="178.144" y2="70.7939" gradientUnits="userSpaceOnUse">
<stop offset="0.217" stop-color="#006550"/>
<stop offset="0.4332" stop-color="#00594D"/>
<stop offset="0.8217" stop-color="#003A44"/>
<stop offset="1" stop-color="#002940"/>
</linearGradient>
<linearGradient id="paint8_linear_188_872" x1="81.3674" y1="41.609" x2="127.584" y2="41.609" gradientUnits="userSpaceOnUse">
<stop offset="0.217" stop-color="#006550"/>
<stop offset="0.4332" stop-color="#00594D"/>
<stop offset="0.8217" stop-color="#003A44"/>
<stop offset="1" stop-color="#002940"/>
</linearGradient>
<linearGradient id="paint9_linear_188_872" x1="351.144" y1="229.762" x2="526.897" y2="229.762" gradientUnits="userSpaceOnUse">
<stop stop-color="#005F4F"/>
<stop offset="0.1707" stop-color="#337F72"/>
<stop offset="0.4755" stop-color="#8AB5AE" stop-opacity="0.24"/>
<stop offset="0.7248" stop-color="#C9DDDA" stop-opacity="0.05"/>
<stop offset="0.9058" stop-color="#F0F6F5" stop-opacity="0.08"/>
<stop offset="1" stop-color="white" stop-opacity="0"/>
</linearGradient>
<linearGradient id="paint10_linear_188_872" x1="285.234" y1="180.505" x2="461.43" y2="180.505" gradientUnits="userSpaceOnUse">
<stop stop-color="#007A5D"/>
<stop offset="0.2148" stop-color="#49A08C"/>
<stop offset="0.426" stop-color="#8AC2B5"/>
<stop offset="0.6159" stop-color="#BCDCD5"/>
<stop offset="0.7809" stop-color="#E1EFEC"/>
<stop offset="0.9145" stop-color="#F7FBFA"/>
<stop offset="1" stop-color="white"/>
</linearGradient>
<linearGradient id="paint11_linear_188_872" x1="508.623" y1="219.34" x2="539.366" y2="219.34" gradientUnits="userSpaceOnUse">
<stop stop-color="#005F4F"/>
<stop offset="0.1707" stop-color="#337F72"/>
<stop offset="0.4755" stop-color="#8AB5AE" stop-opacity="0.24"/>
<stop offset="0.7248" stop-color="#C9DDDA" stop-opacity="0.05"/>
<stop offset="0.9058" stop-color="#F0F6F5" stop-opacity="0.08"/>
<stop offset="1" stop-color="white" stop-opacity="0"/>
</linearGradient>
<radialGradient id="paint12_radial_188_872" cx="0" cy="0" r="1" gradientUnits="userSpaceOnUse" gradientTransform="translate(500.998 187.261) scale(23.4181 23.4129)">
<stop stop-color="#006550"/>
<stop offset="1" stop-color="#0A6B60"/>
</radialGradient>
<linearGradient id="paint13_linear_188_872" x1="60.5573" y1="338.964" x2="91.3" y2="338.964" gradientUnits="userSpaceOnUse">
<stop stop-color="#005F4F"/>
<stop offset="0.1707" stop-color="#337F72"/>
<stop offset="0.4755" stop-color="#8AB5AE" stop-opacity="0.24"/>
<stop offset="0.7248" stop-color="#C9DDDA" stop-opacity="0.05"/>
<stop offset="0.9058" stop-color="#F0F6F5" stop-opacity="0.08"/>
<stop offset="1" stop-color="white" stop-opacity="0"/>
</linearGradient>
<radialGradient id="paint14_radial_188_872" cx="0" cy="0" r="1" gradientUnits="userSpaceOnUse" gradientTransform="translate(52.9325 306.885) scale(23.4181 23.4129)">
<stop stop-color="#006550"/>
<stop offset="1" stop-color="#0A6B60"/>
</radialGradient>
<linearGradient id="paint15_linear_188_872" x1="126.797" y1="285.147" x2="329.676" y2="285.147" gradientUnits="userSpaceOnUse">
<stop stop-color="#005F4F"/>
<stop offset="0.1707" stop-color="#337F72"/>
<stop offset="0.4755" stop-color="#8AB5AE" stop-opacity="0.24"/>
<stop offset="0.7248" stop-color="#C9DDDA" stop-opacity="0.05"/>
<stop offset="0.9058" stop-color="#F0F6F5" stop-opacity="0.08"/>
<stop offset="1" stop-color="white" stop-opacity="0"/>
</linearGradient>
<linearGradient id="paint16_linear_188_872" x1="99.1936" y1="148.376" x2="138.023" y2="148.376" gradientUnits="userSpaceOnUse">
<stop stop-color="#007A5D"/>
<stop offset="0.2148" stop-color="#49A08C"/>
<stop offset="0.426" stop-color="#8AC2B5"/>
<stop offset="0.6159" stop-color="#BCDCD5"/>
<stop offset="0.7809" stop-color="#E1EFEC"/>
<stop offset="0.9145" stop-color="#F7FBFA"/>
<stop offset="1" stop-color="white"/>
</linearGradient>
<linearGradient id="paint17_linear_188_872" x1="113.848" y1="165.988" x2="152.689" y2="165.988" gradientUnits="userSpaceOnUse">
<stop stop-color="#005F4F"/>
<stop offset="0.1707" stop-color="#337F72"/>
<stop offset="0.4755" stop-color="#8AB5AE" stop-opacity="0.24"/>
<stop offset="0.7248" stop-color="#C9DDDA" stop-opacity="0.05"/>
<stop offset="0.9058" stop-color="#F0F6F5" stop-opacity="0.08"/>
<stop offset="1" stop-color="white" stop-opacity="0"/>
</linearGradient>
<linearGradient id="paint18_linear_188_872" x1="380.27" y1="303.724" x2="387.574" y2="303.724" gradientUnits="userSpaceOnUse">
<stop stop-color="#00605D"/>
<stop offset="0.8673" stop-color="#F6F9F9"/>
<stop offset="0.8989" stop-color="white"/>
</linearGradient>
<linearGradient id="paint19_linear_188_872" x1="382.335" y1="305.772" x2="391.377" y2="305.772" gradientUnits="userSpaceOnUse">
<stop stop-color="#00605D"/>
<stop offset="0.1382" stop-color="#3C8583"/>
<stop offset="0.29" stop-color="#77AAA8"/>
<stop offset="0.4369" stop-color="#A7C8C7"/>
<stop offset="0.5748" stop-color="#CDE0DF"/>
<stop offset="0.7017" stop-color="#E9F1F1"/>
<stop offset="0.8137" stop-color="#F9FBFB"/>
<stop offset="0.8989" stop-color="white"/>
</linearGradient>
</defs>
</svg>
